<?xml version="1.0" encoding="utf-8"?>
<!-- Generator: Adobe Illustrator 19.1.0, SVG Export Plug-In . SVG Version: 6.00 Build 0)  -->
<svg version="1.1" id="Layer_1" xmlns="http://www.w3.org/2000/svg" xmlns:xlink="http://www.w3.org/1999/xlink" x="0px" y="0px"
	 viewBox="-500 287.8 222.5 218.2" style="enable-background:new -500 287.8 222.5 218.2;" xml:space="preserve">
<style type="text/css">
	.st0{fill:#E9E3C4;}
	.st1{clip-path:url(#SVGID_2_);fill:#E9E3C4;}
	.st2{clip-path:url(#SVGID_4_);fill:#E9E3C4;}
	.st3{clip-path:url(#SVGID_6_);fill:#E9E3C4;}
	.st4{clip-path:url(#SVGID_8_);fill:#E9E3C4;}
	.st5{clip-path:url(#SVGID_10_);fill:#E9E3C4;}
	.st6{clip-path:url(#SVGID_12_);fill:#E9E3C4;}
	.st7{clip-path:url(#SVGID_14_);fill:#E9E3C4;}
	.st8{clip-path:url(#SVGID_16_);fill:#A6DCE8;}
	.st9{clip-path:url(#SVGID_18_);fill:#7CB7C1;}
	.st10{clip-path:url(#SVGID_20_);fill:#6BA2A7;}
	.st11{clip-path:url(#SVGID_22_);fill:#A6DCE8;}
	.st12{clip-path:url(#SVGID_24_);fill:#6BA2A7;}
	.st13{clip-path:url(#SVGID_26_);fill:#7CB7C1;}
	.st14{clip-path:url(#SVGID_28_);fill:#6BA2A7;}
	.st15{clip-path:url(#SVGID_30_);fill:#7CB7C1;}
	.st16{clip-path:url(#SVGID_32_);fill:#6BA2A7;}
	.st17{clip-path:url(#SVGID_34_);fill:#7CB7C1;}
	.st18{clip-path:url(#SVGID_36_);fill:#6BA2A7;}
	.st19{clip-path:url(#SVGID_38_);fill:#A6DCE8;}
	.st20{clip-path:url(#SVGID_40_);fill:#7CB7C1;}
	.st21{clip-path:url(#SVGID_42_);fill:#A6DCE8;}
	.st22{clip-path:url(#SVGID_44_);fill:#7CB7C1;}
	.st23{clip-path:url(#SVGID_46_);fill:#7CB7C1;}
	.st24{clip-path:url(#SVGID_48_);fill:#7CB7C1;}
	.st25{clip-path:url(#SVGID_50_);fill:#7CB7C1;}
	.st26{clip-path:url(#SVGID_52_);fill:#6BA2A7;}
	.st27{clip-path:url(#SVGID_54_);fill:#6BA2A7;}
	.st28{clip-path:url(#SVGID_56_);fill:#7CB7C1;}
	.st29{clip-path:url(#SVGID_58_);fill:#A6DCE8;}
	.st30{clip-path:url(#SVGID_60_);fill:#7CB7C1;}
	.st31{clip-path:url(#SVGID_62_);fill:#6BA2A7;}
	.st32{clip-path:url(#SVGID_64_);fill:#7CB7C1;}
	.st33{clip-path:url(#SVGID_66_);fill:#7CB7C1;}
	.st34{clip-path:url(#SVGID_68_);fill:#7CB7C1;}
	.st35{clip-path:url(#SVGID_70_);fill:#7CB7C1;}
	.st36{clip-path:url(#SVGID_72_);fill:#6BA2A7;}
	.st37{clip-path:url(#SVGID_74_);fill:#6BA2A7;}
	.st38{clip-path:url(#SVGID_76_);fill:#A6DCE8;}
	.st39{clip-path:url(#SVGID_78_);fill:#7CB7C1;}
	.st40{clip-path:url(#SVGID_80_);fill:#6BA2A7;}
	.st41{clip-path:url(#SVGID_82_);fill:#6BA2A7;}
	.st42{clip-path:url(#SVGID_84_);fill:#6BA2A7;}
	.st43{clip-path:url(#SVGID_86_);fill:#6BA2A7;}
	.st44{clip-path:url(#SVGID_88_);fill:#6BA2A7;}
	.st45{clip-path:url(#SVGID_90_);fill:#A6DCE8;}
	.st46{clip-path:url(#SVGID_92_);fill:#A6DCE8;}
	.st47{clip-path:url(#SVGID_94_);fill:#7CB7C1;}
	.st48{clip-path:url(#SVGID_96_);fill:#7CB7C1;}
	.st49{clip-path:url(#SVGID_98_);fill:#7CB7C1;}
	.st50{clip-path:url(#SVGID_100_);fill:#7CB7C1;}
	.st51{clip-path:url(#SVGID_102_);fill:#6BA2A7;}
	.st52{clip-path:url(#SVGID_104_);fill:#7CB7C1;}
	.st53{clip-path:url(#SVGID_106_);fill:#A6DCE8;}
	.st54{clip-path:url(#SVGID_108_);fill:#6BA2A7;}
	.st55{clip-path:url(#SVGID_110_);fill:#7CB7C1;}
	.st56{clip-path:url(#SVGID_112_);fill:#7CB7C1;}
	.st57{clip-path:url(#SVGID_114_);fill:#6BA2A7;}
	.st58{clip-path:url(#SVGID_116_);fill:#6BA2A7;}
	.st59{clip-path:url(#SVGID_118_);fill:#A6DCE8;}
	.st60{clip-path:url(#SVGID_120_);fill:#A6DCE8;}
	.st61{clip-path:url(#SVGID_122_);fill:#7CB7C1;stroke:#7CB7C1;stroke-miterlimit:10;}
	.st62{clip-path:url(#SVGID_124_);fill:#6BA2A7;}
	.st63{clip-path:url(#SVGID_126_);fill:#6BA2A7;}
	.st64{clip-path:url(#SVGID_128_);fill:#6BA2A7;}
	.st65{clip-path:url(#SVGID_130_);fill:#6BA2A7;}
	.st66{clip-path:url(#SVGID_132_);fill:#7CB7C1;}
	.st67{clip-path:url(#SVGID_134_);fill:#6BA2A7;}
	.st68{clip-path:url(#SVGID_136_);fill:#A6DCE8;}
	.st69{clip-path:url(#SVGID_138_);fill:#6BA2A7;}
	.st70{clip-path:url(#SVGID_140_);fill:#7CB7C1;stroke:#7CB7C1;stroke-miterlimit:10;}
	.st71{clip-path:url(#SVGID_142_);fill:#7CB7C1;stroke:#7CB7C1;stroke-miterlimit:10;}
</style>
<rect x="-498.8" y="287" class="st0" width="221.1" height="219"/>
<g>
	<g>
		<defs>
			<rect id="SVGID_1_" x="-500.8" y="286.7" width="222.5" height="218.2"/>
		</defs>
		<clipPath id="SVGID_2_">
			<use xlink:href="#SVGID_1_"  style="overflow:visible;"/>
		</clipPath>
		<path class="st1" d="M-433.7,224.9c0,0,0,4.2,3.3,4.5s3.7-3.9,3.7-3.9L-433.7,224.9z"/>
	</g>
	<g>
		<defs>
			<rect id="SVGID_3_" x="-500.8" y="286.7" width="222.5" height="218.2"/>
		</defs>
		<clipPath id="SVGID_4_">
			<use xlink:href="#SVGID_3_"  style="overflow:visible;"/>
		</clipPath>
		<path class="st2" d="M-421.8,227.6l6.5,0.7c0,0,1.1,4.1-3.5,4.9C-423.4,234-423.9,228.6-421.8,227.6z"/>
	</g>
	<g>
		<defs>
			<rect id="SVGID_5_" x="-500.8" y="286.7" width="222.5" height="218.2"/>
		</defs>
		<clipPath id="SVGID_6_">
			<use xlink:href="#SVGID_5_"  style="overflow:visible;"/>
		</clipPath>
		<path class="st3" d="M-411.5,227.9l6.1,0.9c0,0,0.7,4.9-4.2,4.2C-414.4,232.4-411.5,227.9-411.5,227.9z"/>
	</g>
	<g>
		<defs>
			<rect id="SVGID_7_" x="-500.8" y="286.7" width="222.5" height="218.2"/>
		</defs>
		<clipPath id="SVGID_8_">
			<use xlink:href="#SVGID_7_"  style="overflow:visible;"/>
		</clipPath>
		<polygon class="st4" points="-403.8,227.4 -403.1,235.4 -396,235.5 -396.1,226.9 		"/>
	</g>
	<g>
		<defs>
			<rect id="SVGID_9_" x="-500.8" y="286.7" width="222.5" height="218.2"/>
		</defs>
		<clipPath id="SVGID_10_">
			<use xlink:href="#SVGID_9_"  style="overflow:visible;"/>
		</clipPath>
		<polygon class="st5" points="-395.4,226.8 -394.4,235.7 -387.3,236 -387.7,227.6 		"/>
	</g>
	<g>
		<defs>
			<rect id="SVGID_11_" x="-500.8" y="286.7" width="222.5" height="218.2"/>
		</defs>
		<clipPath id="SVGID_12_">
			<use xlink:href="#SVGID_11_"  style="overflow:visible;"/>
		</clipPath>
		<path class="st6" d="M-368.6,224.4c0,0,0.7,5.4-3.5,6.4c-4.2,0.9-5.4-4.3-5.4-4.3L-368.6,224.4z"/>
	</g>
	<g>
		<defs>
			<rect id="SVGID_13_" x="-500.8" y="286.7" width="222.5" height="218.2"/>
		</defs>
		<clipPath id="SVGID_14_">
			<use xlink:href="#SVGID_13_"  style="overflow:visible;"/>
		</clipPath>
		<path class="st7" d="M-379.1,226.9l-6.7,0.5c0,0-1.1,3.9,3.6,4.7C-377.5,233.1-376.9,227.9-379.1,226.9z"/>
	</g>
	<g>
		<defs>
			<rect id="SVGID_15_" x="-500.8" y="286.7" width="222.5" height="218.2"/>
		</defs>
		<clipPath id="SVGID_16_">
			<use xlink:href="#SVGID_15_"  style="overflow:visible;"/>
		</clipPath>
		<path class="st8" d="M-487.1,313c0,0-7.8-5-4.8-9.3s6.5-4.4,10.4-2.6s8.5-1,8.5-1s5.3-0.7,4.7,6.4c-0.5,7.2-3.9,9-3.9,9
			s-4.1,24.4-4.8,42.5l2.1,17.5c0,0,0.2,5.2-4.6,5.8c-4.7,0.7-17.9,6.4-18.2-4.9c-0.2-11.3,8.3-6.2,8.3-6.2S-483.3,325.1-487.1,313z
			"/>
	</g>
	<g>
		<defs>
			<rect id="SVGID_17_" x="-500.8" y="286.7" width="222.5" height="218.2"/>
		</defs>
		<clipPath id="SVGID_18_">
			<use xlink:href="#SVGID_17_"  style="overflow:visible;"/>
		</clipPath>
		<path class="st9" d="M-487.9,384.9c0,0-3.4,1.9-0.1,9.3c3.4,7.4,12.4,24.8,13.8,36.5s2.5,11.1,5.3,10.5c2.9-0.6,4.5-6.6,2.9-10.3
			s-8.6-21.5-8.6-21.5s-3.9-9-2.3-14.3s0-14.2,0-14.2S-476.8,377.3-487.9,384.9z"/>
	</g>
	<g>
		<defs>
			<rect id="SVGID_19_" x="-500.8" y="286.7" width="222.5" height="218.2"/>
		</defs>
		<clipPath id="SVGID_20_">
			<use xlink:href="#SVGID_19_"  style="overflow:visible;"/>
		</clipPath>
		<path class="st10" d="M-495.5,382.2c0,0-7.1,5.3-0.4,10.2s6.3,19.5,6.3,19.5s1.3,12.3,5.6,23.3c0,0,0.7,3.9,0,7.7
			c-0.7,3.8,9.6,2.8,10-1.6c0.3-4.4-4.6-12-4.6-12s-1.1-2.6-1-15.6c0.2-13-4.2-31.7-4.2-31.7S-488.2,384.1-495.5,382.2z"/>
	</g>
	<g>
		<defs>
			<rect id="SVGID_21_" x="-500.8" y="286.7" width="222.5" height="218.2"/>
		</defs>
		<clipPath id="SVGID_22_">
			<use xlink:href="#SVGID_21_"  style="overflow:visible;"/>
		</clipPath>
		<path class="st11" d="M-482.8,448.8c0,0,16.2,4.7,20.2-3.3s-11-6.8-11.2-1.8C-473.8,443.7-486.1,442.3-482.8,448.8z"/>
	</g>
	<g>
		<defs>
			<rect id="SVGID_23_" x="-500.8" y="286.7" width="222.5" height="218.2"/>
		</defs>
		<clipPath id="SVGID_24_">
			<use xlink:href="#SVGID_23_"  style="overflow:visible;"/>
		</clipPath>
		<path class="st12" d="M-480.4,449.2l4.5,0.8c0,0-0.8,10.4,0.4,14.2c0,0-2.2,1.8-5.3-0.5c0,0,1.1-2.8,1.1-6.2L-480.4,449.2z"/>
	</g>
	<g>
		<defs>
			<rect id="SVGID_25_" x="-500.8" y="286.7" width="222.5" height="218.2"/>
		</defs>
		<clipPath id="SVGID_26_">
			<use xlink:href="#SVGID_25_"  style="overflow:visible;"/>
		</clipPath>
		<path class="st13" d="M-479.8,464.4c0,0,1.7,0.6,3,0.3l1.4,10.1c0,0-3.6,1.3-4.7-0.7c-1.1-1.9,1-3.2,0.9-4.7
			C-479.5,468-479.8,464.4-479.8,464.4z"/>
	</g>
	<g>
		<defs>
			<rect id="SVGID_27_" x="-500.8" y="286.7" width="222.5" height="218.2"/>
		</defs>
		<clipPath id="SVGID_28_">
			<use xlink:href="#SVGID_27_"  style="overflow:visible;"/>
		</clipPath>
		<path class="st14" d="M-475.5,449.8l4.6,0.5c0,0-0.2,10.4,1.3,14.2c0,0-2.1,2-5.3-0.2c0,0,1-2.8,0.7-6.3L-475.5,449.8z"/>
	</g>
	<g>
		<defs>
			<rect id="SVGID_29_" x="-500.8" y="286.7" width="222.5" height="218.2"/>
		</defs>
		<clipPath id="SVGID_30_">
			<use xlink:href="#SVGID_29_"  style="overflow:visible;"/>
		</clipPath>
		<path class="st15" d="M-474,464.9c0,0,1.7,0.5,3,0.1l2,10c0,0-3.5,1.5-4.7-0.4s0.8-3.3,0.6-4.7C-473.4,468.5-474,464.9-474,464.9z
			"/>
	</g>
	<g>
		<defs>
			<rect id="SVGID_31_" x="-500.8" y="286.7" width="222.5" height="218.2"/>
		</defs>
		<clipPath id="SVGID_32_">
			<use xlink:href="#SVGID_31_"  style="overflow:visible;"/>
		</clipPath>
		<path class="st16" d="M-465.7,447.9l-4.2,1.9c0,0,3.4,9.8,3.2,13.9c0,0,2.6,1.2,5-1.8c0,0-1.8-2.4-2.6-5.7L-465.7,447.9z"/>
	</g>
	<g>
		<defs>
			<rect id="SVGID_33_" x="-500.8" y="286.7" width="222.5" height="218.2"/>
		</defs>
		<clipPath id="SVGID_34_">
			<use xlink:href="#SVGID_33_"  style="overflow:visible;"/>
		</clipPath>
		<path class="st17" d="M-462.4,462.7c0,0-1.5,1-2.8,1l1.2,10.1c0,0,3.8,0.3,4.4-1.8c0.6-2.2-1.8-2.9-2-4.3
			C-461.9,466.3-462.4,462.7-462.4,462.7z"/>
	</g>
	<g>
		<defs>
			<rect id="SVGID_35_" x="-500.8" y="286.7" width="222.5" height="218.2"/>
		</defs>
		<clipPath id="SVGID_36_">
			<use xlink:href="#SVGID_35_"  style="overflow:visible;"/>
		</clipPath>
		<path class="st18" d="M-490.8,298.2c0,0,7.2-7.5,19-7.5c0,0-1,12.2,10.4,10.3c11.4-1.9,33-1.3,39.8,2.1c0,0-2,28.5-39.2,24.7
			c0,0-7.4-10.8-12.7-9.3c0,0,5.1-6.5,2.7-13.3c-2.3-6.8-21.5,7.6-21.5,7.6L-490.8,298.2z"/>
	</g>
	<g>
		<defs>
			<rect id="SVGID_37_" x="-500.8" y="286.7" width="222.5" height="218.2"/>
		</defs>
		<clipPath id="SVGID_38_">
			<use xlink:href="#SVGID_37_"  style="overflow:visible;"/>
		</clipPath>
		<path class="st19" d="M-479.2,291.8c0,0,34.4-6.6,58.8,4.3c0,0-5.7,4.4-5.4,8.9c0,0-8.6-5.4-45.3-1.6
			C-471.1,303.4-480.6,304.3-479.2,291.8z"/>
	</g>
	<g>
		<defs>
			<rect id="SVGID_39_" x="-500.8" y="286.7" width="222.5" height="218.2"/>
		</defs>
		<clipPath id="SVGID_40_">
			<use xlink:href="#SVGID_39_"  style="overflow:visible;"/>
		</clipPath>
		<path class="st20" d="M-408.8,351.7c0,0-13.2,14.4-14.2,19.2c-1,4.9-4.9,48.7-30.5,41.4c0,0-13-6-8.9-18.3
			c4.1-12.2,9.7,5.8,13,5.8s6.6-1.9,6.6-4.5c0,0-27,1.7-27.2-12.8c-0.2-14.6,8.5,2.5,17.5,3.7s18.4-4.1,18.4-8.7
			c0,0-36.1,13.6-38.1-13.4c0,0,0.8-5.8,11.8,1.9c11.1,7.8,31.3-0.6,31.6-6.4c0,0-34,13.2-42.5-9.5s13.8,4.5,25.2,3.1
			c11.5-1.4,28.1-6.5,31.4-11.3L-408.8,351.7z"/>
	</g>
	<g>
		<defs>
			<rect id="SVGID_41_" x="-500.8" y="286.7" width="222.5" height="218.2"/>
		</defs>
		<clipPath id="SVGID_42_">
			<use xlink:href="#SVGID_41_"  style="overflow:visible;"/>
		</clipPath>
		<path class="st21" d="M-407.1,394.5v3.9l-10.5,4.6c0,0-1.5,0.7-0.2,2.6c1.2,1.9,26.4,8.5,43.6,3.4c17.1-5,10-6.5,10-6.5l-8.8-3
			l-1.5-4.9L-407.1,394.5z"/>
	</g>
	<g>
		<defs>
			<rect id="SVGID_43_" x="-500.8" y="286.7" width="222.5" height="218.2"/>
		</defs>
		<clipPath id="SVGID_44_">
			<use xlink:href="#SVGID_43_"  style="overflow:visible;"/>
		</clipPath>
		<path class="st22" d="M-415.3,340.4l-0.9-8c0,0-23.2,18.1-46.3-3.4c0,0-6.2,0.4-4.3,9.9C-466.8,338.8-441.9,363.3-415.3,340.4z"/>
	</g>
	<g>
		<defs>
			<rect id="SVGID_45_" x="-500.8" y="286.7" width="222.5" height="218.2"/>
		</defs>
		<clipPath id="SVGID_46_">
			<use xlink:href="#SVGID_45_"  style="overflow:visible;"/>
		</clipPath>
		<path class="st23" d="M-423.7,305.6c0,0,5.7,2.3,5.7,9.4c0,7.2-38.2,6.3-38.5-12.2c0,0,0.2-7.6,10.7,0
			C-435.4,310.5-423.7,305.6-423.7,305.6z"/>
	</g>
	<g>
		<defs>
			<rect id="SVGID_47_" x="-500.8" y="286.7" width="222.5" height="218.2"/>
		</defs>
		<clipPath id="SVGID_48_">
			<use xlink:href="#SVGID_47_"  style="overflow:visible;"/>
		</clipPath>
		<path class="st24" d="M-418,322.7l1,7.9c0,0-37.4,14.6-43.8-9.3c0,0-1-8.7,4.1-6.8C-456.7,314.5-438.2,335.3-418,322.7z"/>
	</g>
	<g>
		<defs>
			<rect id="SVGID_49_" x="-500.8" y="286.7" width="222.5" height="218.2"/>
		</defs>
		<clipPath id="SVGID_50_">
			<use xlink:href="#SVGID_49_"  style="overflow:visible;"/>
		</clipPath>
		<path class="st25" d="M-409.5,358.2c0,0-7,15.3,1.9,17.5l34-0.2c0,0,3.8-9.4-2.2-16.5L-409.5,358.2z"/>
	</g>
	<g>
		<defs>
			<rect id="SVGID_51_" x="-500.8" y="286.7" width="222.5" height="218.2"/>
		</defs>
		<clipPath id="SVGID_52_">
			<use xlink:href="#SVGID_51_"  style="overflow:visible;"/>
		</clipPath>
		<path class="st26" d="M-406.7,375.7v5.1l-10.5,6c0,0-1.5,0.9-0.2,3.3c1.2,2.4,26.4,11,43.6,4.5c17.1-6.5,10-8.4,10-8.4l-8.8-3.9
			l-2.8-7.1L-406.7,375.7z"/>
	</g>
	<g>
		<defs>
			<rect id="SVGID_53_" x="-500.8" y="286.7" width="222.5" height="218.2"/>
		</defs>
		<clipPath id="SVGID_54_">
			<use xlink:href="#SVGID_53_"  style="overflow:visible;"/>
		</clipPath>
		<path class="st27" d="M-460.8,435.4c-0.8-6.9-0.3-17.7,17.1-20.9c17.3-3.2,22.3,0.6,28.6,10.8s6.3,10.2,6.3,10.2l-0.9,14.5
			c0,0-10.1-10.1-20-1.4c-9.9,8.6,22.3,19.9,22.3,19.9s2.8,13.6,7.1,15.2c0,0-11,14-29,5.1s-12.1-27-12.1-27s1.7-3.7-7.8-10.1
			C-458.8,445.1-460.2,440.4-460.8,435.4z"/>
	</g>
	<g>
		<defs>
			<rect id="SVGID_55_" x="-500.8" y="286.7" width="222.5" height="218.2"/>
		</defs>
		<clipPath id="SVGID_56_">
			<use xlink:href="#SVGID_55_"  style="overflow:visible;"/>
		</clipPath>
		<path class="st28" d="M-436.7,492.6c0,0-8.2-2.4-4.5-8s10.6-2.1,10.6-2.1s2.2,1,3.9,0.1s6.6-2.8,10.1,1.2s-4.5,8-4.5,8l-5,40.1
			c0,0,0.1,2.1,1.2,2.5s7.5,5.7,3.4,8.7s-21.1,3.7-27.3,0.2c-6.1-3.5-0.8-8.8,7.7-11l4.9-38C-436.1,494.3-435.5,493.1-436.7,492.6z"
			/>
	</g>
	<g>
		<defs>
			<rect id="SVGID_57_" x="-500.8" y="286.7" width="222.5" height="218.2"/>
		</defs>
		<clipPath id="SVGID_58_">
			<use xlink:href="#SVGID_57_"  style="overflow:visible;"/>
		</clipPath>
		<path class="st29" d="M-427.3,584.5c0,0-0.2,1.4-7.1,0.9c-4.3-0.3-5.3,1.8-5.5,3.4c-0.1,1,0.1,1.7,0.1,1.7s5.8,2.6,5.8,5.4
			s8.5,9.2,12.1,6.4c3.6-2.7,8.7-6.9,12.2-7s5.1-5.4,2.1-7.9c-2.9-2.5-6.1-4.7-6.1-4.7l-4.5-3.5c0,0-2.6-0.2-3.1-0.2
			s-4.3,1.1-4.3,1.1L-427.3,584.5z"/>
	</g>
	<g>
		<defs>
			<rect id="SVGID_59_" x="-500.8" y="286.7" width="222.5" height="218.2"/>
		</defs>
		<clipPath id="SVGID_60_">
			<use xlink:href="#SVGID_59_"  style="overflow:visible;"/>
		</clipPath>
		<path class="st30" d="M-295.9,454.8c0,0-1.7,0.7-3,0.4l-0.9,10.2c0,0,3.7,1.1,4.7-0.9s-1.2-3.2-1.1-4.6
			C-296.1,458.4-295.9,454.8-295.9,454.8z"/>
	</g>
	<g>
		<defs>
			<rect id="SVGID_61_" x="-500.8" y="286.7" width="222.5" height="218.2"/>
		</defs>
		<clipPath id="SVGID_62_">
			<use xlink:href="#SVGID_61_"  style="overflow:visible;"/>
		</clipPath>
		<path class="st31" d="M-458.1,595.1c0,0,3.8,5.5,3.7,8c0,0-0.2,1,0.6,1.1c0.8,0.2,6,4.1,5.2,8.1c0,0,3.5-0.8,4-0.1
			c0,0,7.3-6,13.1-6.7c5.8-0.7,4.7-2.9,4.7-2.9l-9.3-14.4h-3.8C-439.9,588.3-448.6,593.7-458.1,595.1z"/>
	</g>
	<g>
		<defs>
			<rect id="SVGID_63_" x="-500.8" y="286.7" width="222.5" height="218.2"/>
		</defs>
		<clipPath id="SVGID_64_">
			<use xlink:href="#SVGID_63_"  style="overflow:visible;"/>
		</clipPath>
		<path class="st32" d="M-300.6,455.6c0,0-1.7,0.6-3,0.2l-1.5,10.1c0,0,3.6,1.3,4.7-0.6s-1-3.2-0.8-4.7
			C-301.1,459.2-300.6,455.6-300.6,455.6z"/>
	</g>
	<g>
		<defs>
			<rect id="SVGID_65_" x="-500.8" y="286.7" width="222.5" height="218.2"/>
		</defs>
		<clipPath id="SVGID_66_">
			<use xlink:href="#SVGID_65_"  style="overflow:visible;"/>
		</clipPath>
		<path class="st33" d="M-458.2,595c0,0-5.7,0.1-6.6,2.4c-0.9,2.3,2.4,16.1,2.4,16.5s13.2,1.5,14.1-1c0.8-2.5-2.6-15.8-2.6-15.8
			l-3.5-1.1L-458.2,595z"/>
	</g>
	<g>
		<defs>
			<rect id="SVGID_67_" x="-500.8" y="286.7" width="222.5" height="218.2"/>
		</defs>
		<clipPath id="SVGID_68_">
			<use xlink:href="#SVGID_67_"  style="overflow:visible;"/>
		</clipPath>
		<path class="st34" d="M-312.3,453.9c0,0,1.5,0.9,2.9,0.9l-0.7,10.2c0,0-3.8,0.5-4.5-1.6s1.7-3,1.8-4.4
			C-312.7,457.5-312.3,453.9-312.3,453.9z"/>
	</g>
	<g>
		<defs>
			<rect id="SVGID_69_" x="-500.8" y="286.7" width="222.5" height="218.2"/>
		</defs>
		<clipPath id="SVGID_70_">
			<use xlink:href="#SVGID_69_"  style="overflow:visible;"/>
		</clipPath>
		<path class="st35" d="M-463.6,597.1l2.2,17.1c0,0-12.9-2.5-12.9-7.5c0,0-1-5.6,2.9-7.3C-467.5,597.6-463.6,597.1-463.6,597.1z"/>
	</g>
	<g>
		<defs>
			<rect id="SVGID_71_" x="-500.8" y="286.7" width="222.5" height="218.2"/>
		</defs>
		<clipPath id="SVGID_72_">
			<use xlink:href="#SVGID_71_"  style="overflow:visible;"/>
		</clipPath>
		<path class="st36" d="M-436.5,542.1c0,0,9.2-1.5,10.4,0.9c1.2,2.5-2.2,4.9-2.2,4.9s-0.6-0.1-0.2,1.5s6.5,24.3,6.1,29.4
			c0,0,3.1,1.2,3.6,3.1c0.5,1.9-2.8,3.5-5,2.2s-2.9,0.6-2.9,0.6s-0.4,1.4-2.7-0.2c-2.3-1.6,1.8-3.6,1.8-3.6s0.2-2.7-1.3-4.8
			c-1.5-2.2-8.7-26.1-8.1-27.7c0,0-6.1-1.8-2.4-5.1L-436.5,542.1z"/>
	</g>
	<g>
		<defs>
			<rect id="SVGID_73_" x="-500.8" y="286.7" width="222.5" height="218.2"/>
		</defs>
		<clipPath id="SVGID_74_">
			<use xlink:href="#SVGID_73_"  style="overflow:visible;"/>
		</clipPath>
		<path class="st37" d="M-445.1,290.3c0,0,19.3-14.5,31.1-14.9l-0.1,25.2L-445.1,290.3z"/>
	</g>
	<g>
		<defs>
			<rect id="SVGID_75_" x="-500.8" y="286.7" width="222.5" height="218.2"/>
		</defs>
		<clipPath id="SVGID_76_">
			<use xlink:href="#SVGID_75_"  style="overflow:visible;"/>
		</clipPath>
		<path class="st38" d="M-294.7,304.8c0,0,7.6-5.4,4.3-9.5c-3.2-4.1-6.7-4.1-10.5-2.1s-8.5-0.6-8.5-0.6s-5.3-0.5-4.4,6.6
			s4.3,8.8,4.3,8.8s5.2,24.1,6.8,42.2l-1.3,17.6c0,0,0.1,5.2,4.8,5.6c4.7,0.4,18.2,5.5,17.9-5.8s-8.6-5.8-8.6-5.8
			S-297.9,317.1-294.7,304.8z"/>
	</g>
	<g>
		<defs>
			<rect id="SVGID_77_" x="-500.8" y="286.7" width="222.5" height="218.2"/>
		</defs>
		<clipPath id="SVGID_78_">
			<use xlink:href="#SVGID_77_"  style="overflow:visible;"/>
		</clipPath>
		<path class="st39" d="M-290.4,375.9c0,0,3.5,1.7,0.5,9.3c-3,7.5-11.2,25.3-12,37.1c-0.8,11.7-2,11.2-4.8,10.7
			c-2.9-0.4-4.8-6.4-3.4-10.1s7.6-21.8,7.6-21.8s3.5-9.2,1.6-14.4c-1.8-5.2-0.7-14.2-0.7-14.2S-301.9,368.8-290.4,375.9z"/>
	</g>
	<g>
		<defs>
			<rect id="SVGID_79_" x="-500.8" y="286.7" width="222.5" height="218.2"/>
		</defs>
		<clipPath id="SVGID_80_">
			<use xlink:href="#SVGID_79_"  style="overflow:visible;"/>
		</clipPath>
		<path class="st40" d="M-283,373.3c0,0,7.4,5,0.9,10.2s-5.4,19.7-5.4,19.7s-0.7,12.4-4.5,23.5c0,0-0.5,3.9,0.4,7.7
			c0.9,3.8-9.5,3.3-10-1.1c-0.5-4.3,4-12.2,4-12.2s1-2.7,0.2-15.6s2.6-31.8,2.6-31.8S-290.3,375.5-283,373.3z"/>
	</g>
	<g>
		<defs>
			<rect id="SVGID_81_" x="-500.8" y="286.7" width="222.5" height="218.2"/>
		</defs>
		<clipPath id="SVGID_82_">
			<use xlink:href="#SVGID_81_"  style="overflow:visible;"/>
		</clipPath>
		<path class="st41" d="M-296.1,440.3l-4.5,1c0,0,1.3,10.3,0.3,14.2c0,0,2.3,1.7,5.2-0.8c0,0-1.3-2.7-1.4-6.2L-296.1,440.3z"/>
	</g>
	<g>
		<defs>
			<rect id="SVGID_83_" x="-500.8" y="286.7" width="222.5" height="218.2"/>
		</defs>
		<clipPath id="SVGID_84_">
			<use xlink:href="#SVGID_83_"  style="overflow:visible;"/>
		</clipPath>
		<path class="st42" d="M-299.9,441.2l-4.5,0.7c0,0,0.6,10.4-0.6,14.2c0,0,2.1,1.9,5.3-0.4c0,0-1.1-2.8-1-6.2L-299.9,441.2z"/>
	</g>
	<g>
		<defs>
			<rect id="SVGID_85_" x="-500.8" y="286.7" width="222.5" height="218.2"/>
		</defs>
		<clipPath id="SVGID_86_">
			<use xlink:href="#SVGID_85_"  style="overflow:visible;"/>
		</clipPath>
		<path class="st43" d="M-309.8,439.7l4.3,1.7c0,0-2.9,10-2.5,14c0,0-2.5,1.4-5.1-1.6c0,0,1.7-2.5,2.4-5.9L-309.8,439.7z"/>
	</g>
	<g>
		<defs>
			<rect id="SVGID_87_" x="-500.8" y="286.7" width="222.5" height="218.2"/>
		</defs>
		<clipPath id="SVGID_88_">
			<use xlink:href="#SVGID_87_"  style="overflow:visible;"/>
		</clipPath>
		<path class="st44" d="M-301.9,290.6c0,0-7.5-7.3-18.5-6c0,0,2.4,13-8.4,12.2s-30.7,2.4-36.5,6.7c0,0,5.4,30,39.2,22.1
			c0,0,5.5-12.3,10.5-11.3c0,0-5.5-6.5-4.2-13.9c1.3-7.5,20.8,5.9,20.8,5.9L-301.9,290.6z"/>
	</g>
	<g>
		<defs>
			<rect id="SVGID_89_" x="-500.8" y="286.7" width="222.5" height="218.2"/>
		</defs>
		<clipPath id="SVGID_90_">
			<use xlink:href="#SVGID_89_"  style="overflow:visible;"/>
		</clipPath>
		<path class="st45" d="M-312.8,283.8c0,0-34.3-2.6-57.4,10.8c0,0,4.7,4.9,4.8,9.4c0,0,8.9-7.1,45.9-7.1
			C-319.5,296.9-310.1,296-312.8,283.8z"/>
	</g>
	<g>
		<defs>
			<rect id="SVGID_91_" x="-500.8" y="286.7" width="222.5" height="218.2"/>
		</defs>
		<clipPath id="SVGID_92_">
			<use xlink:href="#SVGID_91_"  style="overflow:visible;"/>
		</clipPath>
		<path class="st46" d="M-292.6,440.1c0,0-16,5.4-20.3-2.3c-4.3-7.8,10.6-7.3,11.1-2.3C-301.8,435.4-289.5,433.5-292.6,440.1z"/>
	</g>
	<g>
		<defs>
			<rect id="SVGID_93_" x="-500.8" y="286.7" width="222.5" height="218.2"/>
		</defs>
		<clipPath id="SVGID_94_">
			<use xlink:href="#SVGID_93_"  style="overflow:visible;"/>
		</clipPath>
		<path class="st47" d="M-376.9,351.5c0,0,12.7,14.8,13.5,19.7s3.3,48.9,29.1,42.3c0,0,13.2-5.6,9.5-18s-9.9,5.5-13.2,5.4
			c-3.3-0.1-6.5-2.2-6.5-4.7c0,0,26.9,2.6,27.6-11.9s-8.6,2.2-17.6,3.1s-18.3-4.7-18.2-9.3c0,0,35.7,14.8,38.5-12.2
			c0,0-0.6-5.8-11.9,1.6s-31.2-1.6-31.4-7.4c0,0,33.5,14.3,42.8-8.1s-13.9,4-25.3,2.3s-27.8-6.9-30.9-11.9L-376.9,351.5z"/>
	</g>
	<g>
		<defs>
			<rect id="SVGID_95_" x="-500.8" y="286.7" width="222.5" height="218.2"/>
		</defs>
		<clipPath id="SVGID_96_">
			<use xlink:href="#SVGID_95_"  style="overflow:visible;"/>
		</clipPath>
		<path class="st48" d="M-370.6,341.8l1.9-7.8c0,0,22.1,17.9,45.2-3.7c0,0,6.2,0.4,4.3,9.9C-319.1,340.3-344,364.7-370.6,341.8z"/>
	</g>
	<g>
		<defs>
			<rect id="SVGID_97_" x="-500.8" y="286.7" width="222.5" height="218.2"/>
		</defs>
		<clipPath id="SVGID_98_">
			<use xlink:href="#SVGID_97_"  style="overflow:visible;"/>
		</clipPath>
		<path class="st49" d="M-365.2,306.7c0,0-4.5,2.5-4.5,9.7s36.9,6,37.3-12.4c0,0-0.2-7.6-10.7,0
			C-353.5,311.5-365.2,306.7-365.2,306.7z"/>
	</g>
	<g>
		<defs>
			<rect id="SVGID_99_" x="-500.8" y="286.7" width="222.5" height="218.2"/>
		</defs>
		<clipPath id="SVGID_100_">
			<use xlink:href="#SVGID_99_"  style="overflow:visible;"/>
		</clipPath>
		<path class="st50" d="M-369,323.8l-0.3,8c0,0,36.7,14.6,43.1-9.3c0,0,1-8.7-4.1-6.8C-330.2,315.7-348.7,336.4-369,323.8z"/>
	</g>
	<g>
		<defs>
			<rect id="SVGID_101_" x="-500.8" y="286.7" width="222.5" height="218.2"/>
		</defs>
		<clipPath id="SVGID_102_">
			<use xlink:href="#SVGID_101_"  style="overflow:visible;"/>
		</clipPath>
		<path class="st51" d="M-315.2,438.5c1.2-6.8,1.3-17.7-16.9-21.9c-18.1-4.2-23.6-0.7-30.8,9.1c-7.2,9.8-7.2,9.8-7.2,9.8l0.2,14.5
			c0,0,11.2-9.5,21.1-0.3s-24.6,18.6-24.6,18.6s-3.7,13.4-8.3,14.7c0,0,10.8,14.6,30.4,6.8c19.5-7.8,14.3-26.3,14.3-26.3
			s-1.6-3.8,8.8-9.6S-316,443.5-315.2,438.5z"/>
	</g>
	<g>
		<defs>
			<rect id="SVGID_103_" x="-500.8" y="286.7" width="222.5" height="218.2"/>
		</defs>
		<clipPath id="SVGID_104_">
			<use xlink:href="#SVGID_103_"  style="overflow:visible;"/>
		</clipPath>
		<path class="st52" d="M-347.9,493.9c0,0,8.2-2.4,4.5-8s-10.6-2.1-10.6-2.1s-2.2,1-3.9,0.1c-1.7-0.9-6.6-2.8-10.1,1.2s4.5,8,4.5,8
			l5,40.1c0,0-0.1,2.1-1.2,2.5s-7.5,5.7-3.4,8.7s21.1,3.7,27.3,0.2c6.1-3.5,0.8-8.8-7.7-11l-4.9-38
			C-348.6,495.7-349.2,494.4-347.9,493.9z"/>
	</g>
	<g>
		<defs>
			<rect id="SVGID_105_" x="-500.8" y="286.7" width="222.5" height="218.2"/>
		</defs>
		<clipPath id="SVGID_106_">
			<use xlink:href="#SVGID_105_"  style="overflow:visible;"/>
		</clipPath>
		<path class="st53" d="M-357.4,585.8c0,0,0.2,1.4,7.1,0.9c4.3-0.3,5.3,1.8,5.5,3.4c0.1,1-0.1,1.7-0.1,1.7s-5.8,2.6-5.8,5.4
			c0,2.8-8.5,9.2-12.1,6.4c-3.6-2.7-8.7-6.9-12.2-7s-5.1-5.4-2.1-7.9c2.9-2.5,6.1-4.7,6.1-4.7l4.5-3.5c0,0,2.6-0.2,3.1-0.2
			s4.3,1.1,4.3,1.1L-357.4,585.8z"/>
	</g>
	<g>
		<defs>
			<rect id="SVGID_107_" x="-500.8" y="286.7" width="222.5" height="218.2"/>
		</defs>
		<clipPath id="SVGID_108_">
			<use xlink:href="#SVGID_107_"  style="overflow:visible;"/>
		</clipPath>
		<path class="st54" d="M-326.5,596.5c0,0-3.8,5.5-3.7,8c0,0,0.2,1-0.6,1.1c-0.8,0.2-6,4.1-5.2,8.1c0,0-3.5-0.8-4-0.1
			c0,0-7.3-6-13.1-6.7c-5.8-0.7-4.7-2.9-4.7-2.9l9.3-14.4h3.8C-344.7,589.6-336.1,595-326.5,596.5z"/>
	</g>
	<g>
		<defs>
			<rect id="SVGID_109_" x="-500.8" y="286.7" width="222.5" height="218.2"/>
		</defs>
		<clipPath id="SVGID_110_">
			<use xlink:href="#SVGID_109_"  style="overflow:visible;"/>
		</clipPath>
		<path class="st55" d="M-326.2,596.2c0,0,5.7,0.1,6.6,2.4c0.9,2.3-2.4,16.1-2.4,16.5s-13.2,1.5-14.1-1c-0.8-2.5,2.6-15.8,2.6-15.8
			l3.5-1.1L-326.2,596.2z"/>
	</g>
	<g>
		<defs>
			<rect id="SVGID_111_" x="-500.8" y="286.7" width="222.5" height="218.2"/>
		</defs>
		<clipPath id="SVGID_112_">
			<use xlink:href="#SVGID_111_"  style="overflow:visible;"/>
		</clipPath>
		<path class="st56" d="M-319.8,598l-2.2,17.1c0,0,12.9-2.5,12.9-7.5c0,0,1-5.6-2.9-7.3S-319.8,598-319.8,598z"/>
	</g>
	<g>
		<defs>
			<rect id="SVGID_113_" x="-500.8" y="286.7" width="222.5" height="218.2"/>
		</defs>
		<clipPath id="SVGID_114_">
			<use xlink:href="#SVGID_113_"  style="overflow:visible;"/>
		</clipPath>
		<path class="st57" d="M-350.6,288.5c0,0-19.3-15.8-31.1-16.2l0.1,27.4L-350.6,288.5z"/>
	</g>
	<g>
		<defs>
			<rect id="SVGID_115_" x="-500.8" y="286.7" width="222.5" height="218.2"/>
		</defs>
		<clipPath id="SVGID_116_">
			<use xlink:href="#SVGID_115_"  style="overflow:visible;"/>
		</clipPath>
		<path class="st58" d="M-348.1,543.4c0,0-9.2-1.5-10.4,0.9s2.2,4.9,2.2,4.9s0.6-0.1,0.2,1.5s-6.5,24.3-6.1,29.4
			c0,0-3.1,1.2-3.6,3.1c-0.5,1.9,2.8,3.5,5,2.2s2.9,0.6,2.9,0.6s0.4,1.4,2.7-0.2c2.3-1.6-1.8-3.6-1.8-3.6s-0.2-2.7,1.3-4.8
			c1.5-2.2,8.7-26.1,8.1-27.7c0,0,6.1-1.8,2.4-5.1L-348.1,543.4z"/>
	</g>
	<g>
		<defs>
			<rect id="SVGID_117_" x="-500.8" y="286.7" width="222.5" height="218.2"/>
		</defs>
		<clipPath id="SVGID_118_">
			<use xlink:href="#SVGID_117_"  style="overflow:visible;"/>
		</clipPath>
		<path class="st59" d="M-451.7,242.8c0,0,18,9.5,18,15.8c0,0,21.4,9.6,61.9,3.4c0,0,22-15.7,26.4-16.4c0,0-1.4-24.4,3.4-29.8
			c0,0-4.8-3-17.6,2.2c0,0,2.2,20.1-2.6,22c0,0-29.3,7.4-72-0.4c0,0-5.4-13.4-2.2-21.9c0,0-7.7-4.1-20-0.9
			C-456.4,216.8-446.7,228.7-451.7,242.8z"/>
	</g>
	<g>
		<defs>
			<rect id="SVGID_119_" x="-500.8" y="286.7" width="222.5" height="218.2"/>
		</defs>
		<clipPath id="SVGID_120_">
			<use xlink:href="#SVGID_119_"  style="overflow:visible;"/>
		</clipPath>
		<path class="st60" d="M-400.5,486.1c0,0,14.1,11.8,21.3,0c0,0,18.7-35.3,7.7-58.8c0,0-25,3.6-37.4-0.2
			C-408.9,427.2-420.4,454.8-400.5,486.1z"/>
	</g>
	<g>
		<defs>
			<rect id="SVGID_121_" x="-500.8" y="286.7" width="222.5" height="218.2"/>
		</defs>
		<clipPath id="SVGID_122_">
			<use xlink:href="#SVGID_121_"  style="overflow:visible;"/>
		</clipPath>
		<path class="st61" d="M-457.3,216.2c0,0-19.8-5.2-13.6-17.6c0,0,2.2-3.6,8.2-3.6c0,0-20.6-14.3,2.4-35.8
			c23.1-21.5,90.6-13.7,90.6-13.7s46.1,5.4,43.1,36.3c0,0-1.1,10.5-6.4,13.4c0,0,10.2,4.4,7.2,10.9s-10.9,11.7-16.2,9.7
			c-5.3-2-19.1,0.2-22.3,7.7c0,0-44,13.6-73.1,0.2l1-5.9C-436.4,217.7-441,214.6-457.3,216.2z"/>
	</g>
	<g>
		<defs>
			<rect id="SVGID_123_" x="-500.8" y="286.7" width="222.5" height="218.2"/>
		</defs>
		<clipPath id="SVGID_124_">
			<use xlink:href="#SVGID_123_"  style="overflow:visible;"/>
		</clipPath>
		<circle class="st62" cx="-434.9" cy="187.3" r="13"/>
	</g>
	<g>
		<defs>
			<rect id="SVGID_125_" x="-500.8" y="286.7" width="222.5" height="218.2"/>
		</defs>
		<clipPath id="SVGID_126_">
			<use xlink:href="#SVGID_125_"  style="overflow:visible;"/>
		</clipPath>
		<circle class="st63" cx="-361" cy="187.3" r="13"/>
	</g>
	<g>
		<defs>
			<rect id="SVGID_127_" x="-500.8" y="286.7" width="222.5" height="218.2"/>
		</defs>
		<clipPath id="SVGID_128_">
			<use xlink:href="#SVGID_127_"  style="overflow:visible;"/>
		</clipPath>
		<path class="st64" d="M-401.5,205.6c0,0,4-1.9,6,0.6s7.2,3.3,7.7-1.1c0.5-4.3-4.6-9.1-9.6-8.8c-5.1,0.2-11.1,0.7-12.6,7.7
			C-411.4,210.9-401.5,205.6-401.5,205.6z"/>
	</g>
	<g>
		<defs>
			<rect id="SVGID_129_" x="-500.8" y="286.7" width="222.5" height="218.2"/>
		</defs>
		<clipPath id="SVGID_130_">
			<use xlink:href="#SVGID_129_"  style="overflow:visible;"/>
		</clipPath>
		<path class="st65" d="M-412.3,416.6c0,0-3.6,0.7-2.1,3.8c0,0,9.4,5.7,9.4,8.2c0,0,19.4,2.3,29.5,0.1c0,0,5.9-6.7,9-7.9
			c3.1-1.2,0.6-3.4,0.6-3.4s-10.6-4.7-10.9-8c0,0-14.6,1.2-26.3-0.3C-403.1,409.2-407.5,415.3-412.3,416.6z"/>
	</g>
	<g>
		<defs>
			<rect id="SVGID_131_" x="-500.8" y="286.7" width="222.5" height="218.2"/>
		</defs>
		<clipPath id="SVGID_132_">
			<use xlink:href="#SVGID_131_"  style="overflow:visible;"/>
		</clipPath>
		<path class="st66" d="M-419.8,270.9c0,0-3.4,5.2-0.6,7.8c0,0,24.4,4.8,35.6,0.5c0,0,2-4.8-0.4-8.5L-419.8,270.9z"/>
	</g>
	<g>
		<defs>
			<rect id="SVGID_133_" x="-500.8" y="286.7" width="222.5" height="218.2"/>
		</defs>
		<clipPath id="SVGID_134_">
			<use xlink:href="#SVGID_133_"  style="overflow:visible;"/>
		</clipPath>
		<path class="st67" d="M-419.7,262.4c0,0-3.5,6.2-0.7,8.8c0,0,24.4,4.2,35.6-0.1c0,0,1.7-4-0.6-7.8L-419.7,262.4z"/>
	</g>
	<g>
		<defs>
			<rect id="SVGID_135_" x="-500.8" y="286.7" width="222.5" height="218.2"/>
		</defs>
		<clipPath id="SVGID_136_">
			<use xlink:href="#SVGID_135_"  style="overflow:visible;"/>
		</clipPath>
		<path class="st68" d="M-415.4,284.2c0,0-3,8.6-0.3,11.1c0,0,23.6,3,34.5,0c0,0,1.8-7.4-0.4-11L-415.4,284.2z"/>
	</g>
	<g>
		<defs>
			<rect id="SVGID_137_" x="-500.8" y="286.7" width="222.5" height="218.2"/>
		</defs>
		<clipPath id="SVGID_138_">
			<use xlink:href="#SVGID_137_"  style="overflow:visible;"/>
		</clipPath>
		<path class="st69" d="M-418,295l47.6,0.2c0,0,16.3,5.4,1.8,16.6v26.6c0,0-6.6,22.3-27.7,21.8c-16.3-0.4-20.3-22.6-21.3-32.7
			c-0.3-3-0.3-4.9-0.3-4.9s2.4-11.4-7.9-17.7C-425.8,305-426.2,296.9-418,295z"/>
	</g>
	<g>
		<defs>
			<rect id="SVGID_139_" x="-500.8" y="286.7" width="222.5" height="218.2"/>
		</defs>
		<clipPath id="SVGID_140_">
			<use xlink:href="#SVGID_139_"  style="overflow:visible;"/>
		</clipPath>
		<path class="st70" d="M-417.8,151.5c0,0,4.1-2.9,11.6,0.8c0,0-6.1-53.7-5.7-71.7c0.1-5.7-16.2-15.4-17.5,3.5
			c-1.2,16.8,11.4,66.4,11.4,66.4L-417.8,151.5z"/>
	</g>
	<g>
		<defs>
			<rect id="SVGID_141_" x="-500.8" y="286.7" width="222.5" height="218.2"/>
		</defs>
		<clipPath id="SVGID_142_">
			<use xlink:href="#SVGID_141_"  style="overflow:visible;"/>
		</clipPath>
		<path class="st71" d="M-391.3,148.1c0,0,4.6-1.9,11.2,3.3c0,0,5.4-53.8,9.6-71.3c1.3-5.5-12.6-18.5-17.9-0.3
			c-4.7,16.2-2.9,67.3-2.9,67.3L-391.3,148.1z"/>
	</g>
</g>
</svg>
