<?xml version="1.0" encoding="utf-8"?>
<!-- Generator: Adobe Illustrator 19.1.0, SVG Export Plug-In . SVG Version: 6.00 Build 0)  -->
<svg version="1.1" id="Layer_1" xmlns="http://www.w3.org/2000/svg" xmlns:xlink="http://www.w3.org/1999/xlink" x="0px" y="0px"
	 viewBox="23 -90 528.2 792" style="enable-background:new 23 -90 528.2 792;" xml:space="preserve">
<style type="text/css">
	.st0{fill:#7CB6C0;}
	.st1{fill:#43698E;}
	.st2{fill:#6BA1A6;}
	.st3{fill:#9F6C30;}
	.st4{fill:#A6DCE8;}
	.st5{fill:none;stroke:#7CB6C0;stroke-width:1.347;stroke-miterlimit:10;}
	.st6{fill:#F4FAFC;}
	.st7{fill:#1B1F36;}
	.st8{fill:#FFFFFF;}
</style>
<g>
	<path class="st0" d="M139.2,433.4l3.1,33.1c0,0-13.5,12.4-20.1,4.4c-6.6-8,1.5-8.7,1.5-8.7s-25.6,1.9-15.1-10.7
		c0,0-15.9-13.2-0.2-14.6c0,0-13.4-17.4,7.1-17.9c0,0,6.1-22.8,21.4-3.5L139.2,433.4z"/>
	<path class="st0" d="M368.9,304.3c11.5,8.6,54.8,128.9,54.8,128.9s-0.8,13.7-11.7,14.3c-10.9,0.6-2.8-12.9-2.8-12.9
		s-21.5,11.4-20-6.3c0,0-26.1,6.9-9.1-18.1l-56.9-85.9c-4.6-6.9-5.8-15.6-2.9-23.4C324.7,289.7,336.5,280.2,368.9,304.3z"/>
	<path class="st1" d="M375.7,266.9C375.7,266.9,375.7,266.9,375.7,266.9c-0.2-0.6-0.3-1.3-0.5-1.9c0,0-1.6-1.9-4.7-4.4
		c4.1,3.7,5.2,7.7,5.5,9C375.9,269.1,375.8,268.2,375.7,266.9z"/>
	<path class="st2" d="M242.4,552.9c0,0,40.2,3.8,56.8-0.7c0,0,6.9,17.3-2.1,32.5c0,0-1.5,4.8,5.7,4.2s22.1-0.1,29.5,4.8
		c7.3,5,32.9,5.7,33.1-5c0.1-10.7-15.8-9.3-18.3-9.3s-35-2.2-35-2.2s-4.8-7.3,6.4-15.1c11.2-7.7,33.1-20.5,33.6-26.3
		c0.6-5.8-1-8.6-1-8.6l-97.2-14.1L242.4,552.9z"/>
	<path class="st3" d="M273.9,177.6c-0.1,0.1-0.2,0.2-0.5,0.5c-0.2,0.2-0.4,0.3-0.6,0.5C273.5,178,273.8,177.7,273.9,177.6z"/>
	<path class="st2" d="M376,269.7c-0.3-1.3-1.3-5.4-5.5-9 M187.3,149.9 M375.7,266.9c-0.6-5.9,5.1-17.5,7.1-24.7
		c8.4,3.8,10.7-1.1,15.2-3.6c0.9-0.1,1.8-0.2,2.7-0.3c-0.8,9.9,8.4,11,8.4,11c-2.5-7.2-0.6-10.7,1.2-12.2c0.6-0.1,1.2-0.1,1.7-0.2
		c-1.6,5,4.1,8.8,4.1,8.8c-0.2-4.9,2.5-5.8,5-5.6c3.2,7.4,14.8,6.6,14.8,6.6c-3.6,0,4.2-25.5,4.2-25.5c10.9-2.1,32.3-39,32.3-39
		c2.6,5.2,15.1,4.7,15.1,4.7c-6.8-5.7-8.8-17.2-8.8-17.2c3.1-23.9-5.2-44.5-5.2-44.5l18.2-2.7l-18.2-12.4
		c11.4,1.2,19.8-3.1,19.8-3.1c-17.9,0.9-32.9-9.1-32.9-9.1c-11.5-15.8-24.1-26.1-34.7-32.8c4-0.6,7.2-2.3,7.2-5.9
		c0,0-4.2,3.4-12.5,2.7c-11.1-6.2-18.9-8.1-18.9-8.1c2.8-3.3,18.8-3.3,18.8-3.3c-8.9-7-28-1.2-28-1.2c-0.7-6.3,13.2-13.9,13.2-13.9
		c-10.3-2.6-18.6,7.3-18.6,7.3s-7.3-28.9-6.3-18.8c0.9,10.1-5.6,16.2-5.6,16.2c-4.9-0.5-9.9-15.5-9.9-15.5l0.7,16.4l0.1,3.1
		c-0.3-1.3-0.8-2.4-1.5-3.4c-6.1-8.5-26.6-5.9-26.6-5.9c2.8,0,6.2,1.5,9.4,3.3c-6-0.6-12.4-1.8-19.2-1.1c-12.7,1.2-27.3,6-49.7,11.3
		c-24,5.7-41.1,23.3-41.1,23.3s-20.4,18.7-31.6,44.8c0,0-0.7,1-1.4,3L161.5,237c0,0-26.8,67.8-37.5,129.6c-1.4,8.3-2,16.7-1.7,25.2
		c1,27.4,6.4,91.1,34.4,118.7c7.6,7.5,35.8,30,42.6,30c0,0,8.2,19.5,2.2,37.9c0,0-2.4,10.3-5.7,13.7c0,0-3.5,4,1.2,7.1
		c0,0,2.7,2.5,12.7-0.2c10-2.7,27.6,4.7,27.6,4.7s33.6,9.4,41.5-2.2c8-11.7-21.7-12.7-21.7-12.7l-42.8-2.7c0,0-4.9-11.5,3.1-17.4
		c0,0,16.6-19,28-15.4c0,0,23.1,2.7,20.9-33.2c41.6,27.6,84.7,7.3,84.7,7.3S411.5,416.7,375.7,266.9 M213.6,78.7 M241.8,51.1
		 M172.3,176.4c-0.2,0.2-0.4,0.3-0.6,0.5c0.4-0.3,0.7-0.6,0.9-0.7C172.5,176.2,172.4,176.3,172.3,176.4z M368.1,258.8
		c0.8,0.5,1.6,1.1,2.3,1.7C369.7,259.9,368.9,259.4,368.1,258.8z"/>
	<path class="st0" d="M449.7,131.3c8.3,13.1,14.5,22.7-8.1,60.5c-22.8,38.2-56.3,19.9-56.3,19.9s-21.7-16.7-50.3-7.6
		c-28.6,9.2-44.8,9.2-55.4-9.2s-7.2-47.8,7.2-64.9s29.2-35.3,69.1-27.1c7.5,1.6,11.9,3.6,26.9,14.3c14.9,10.7,35.5,5.5,47.3,4.4
		C435.6,121.3,444,122.3,449.7,131.3z"/>
	<g>
		<path class="st4" d="M375.1,154c0,0,5.1-1.6,7.1,1.8c2,3.4,8.1,5.1,9.5,0c1.4-5.1-4-11.7-10.1-12.3c-6.1-0.6-13.4-1-16.4,7.1
			C362.3,158.8,375.1,154,375.1,154z"/>
		<circle class="st1" cx="385.6" cy="152.5" r="1.1"/>
		<circle class="st1" cx="371.2" cy="150.5" r="1.2"/>
	</g>
	<path class="st2" d="M408,128.9l1.3,5.2c0,0,25.4-3.7,31.2,19.1C440.4,153.2,444.3,125.7,408,128.9z"/>
	<path class="st2" d="M363.9,117.5l-3.7,4.5c0,0-20.2-16.8-37.9,2.8C322.4,124.8,330.4,99,363.9,117.5z"/>
	<path class="st5" d="M252.7,85.3c0,0-18.3,3.3-30.5,28.3c0,0,24.9-12.7,35.5-10c0,0-19.9,15-19.9,36c0,0,42.7-46.5,77-49.9"/>
	<path class="st5" d="M231.6,176c0,0-8.5,8.1-9,20.4l15.7-11.4c0,0-7.6,14.2-4.7,24.2"/>
	<path class="st0" d="M391.4,57.3l12.2,4.4c0,0,16.7-67.6,19.5-78.6c2.1-8.2-7.1-16.4-12.5-12.2C405.2-24.9,395.5-15.8,391.4,57.3z"
		/>
	<path class="st4" d="M393.3,57.4l8.5,3.1c0,0,11.6-47.1,13.6-54.8c1.5-5.7-4.9-11.5-8.7-8.5C403,0.1,396.2,6.5,393.3,57.4z"/>
	<g>
		<circle class="st6" cx="416" cy="157.4" r="19.8"/>
		<circle class="st7" cx="415" cy="157.7" r="8.4"/>
		<path class="st4" d="M396.2,158.9c0,0,25.5,0,36.8,9.2c0,0-7.6,11.7-21.2,8.6C399.3,174,396.2,163.3,396.2,158.9z"/>
	</g>
	<g>
		<circle class="st6" cx="342.8" cy="143.2" r="19.8"/>
		<circle class="st7" cx="341.9" cy="143.7" r="8.4"/>
		<path class="st4" d="M323.6,148.7c0,0,24.4-4.7,37.7,2c0,0-5,12.4-18.2,12.3S324.5,153.1,323.6,148.7z"/>
	</g>
	<path class="st2" d="M354.5,161.7c-1.2-6,6.6-9.6,10.4-4.8c2,2.5,5.7,5.7,11.7,6.5c7.3,0.9,12.1-1.1,14-2.6c2.4-1.8,3.5-1,4.7-0.9
		c1.4,0.1,5,5.3,3.4,9.3c-3,7.3-11.5,8.3-18.5,7.9c-15.3-1-24.1-8.2-25.6-15.2C354.6,161.8,354.6,161.7,354.5,161.7z"/>
	<path class="st4" d="M363.9,159.9c0,0,3.9,6.5,14.2,8c7.3,1.1,11-1,12.6-2.3c0.9-0.8,2.1-1.3,3.4-1.1c1.4,0.1,2.7,0.9,1.2,3.8
		c-2.7,5.3-10.9,5.8-18,5c-7-0.9-17-6-18.8-11.3C356.6,156.7,362.7,157.3,363.9,159.9z"/>
	<circle class="st4" cx="325.6" cy="166.9" r="4.2"/>
	<ellipse class="st4" cx="428.1" cy="185" rx="6.3" ry="4.2"/>
	<polygon class="st8" points="373.1,166.7 373.1,170.3 376,170.7 376.3,167.7 	"/>
	<polygon class="st8" points="377.3,167.8 377.3,170.8 379.9,170.8 380.1,168.1 	"/>
	<path class="st8" d="M369.3,164.8l2.9,1.6c0,0-0.3,1.7-2.4,1.1C367.6,167,369.3,164.8,369.3,164.8z"/>
	<path class="st8" d="M365.7,162.1l2.7,2.1c0,0-0.3,1.7-2.4,1.1C363.8,164.8,365.7,162.1,365.7,162.1z"/>
	<path class="st8" d="M363.3,159l2,2.8c0,0-0.8,1.6-2.7,0.4C360.8,161,363.3,159,363.3,159z"/>
	<path class="st8" d="M389.4,166.5l2.3-1.6c0,0,1.9,1.3,0.2,2.8C390.3,169.1,389.4,166.5,389.4,166.5z"/>
	<path class="st8" d="M385.2,167.9l3.3-1.1c0,0,1.3,1.2-0.4,2.7C386.4,171,385.2,167.9,385.2,167.9z"/>
	<path class="st8" d="M381.3,168.2l3.5-0.1c0,0,0.9,1.5-1.2,2.4C381.5,171.4,381.3,168.2,381.3,168.2z"/>
</g>
<path class="st0" d="M339.5,64.3l12.8,2c0,0,3.8-69.6,4.5-80.9c0.5-8.5-10-14.8-14.5-9.7C337.7-19.1,329.9-8.3,339.5,64.3z"/>
<path class="st4" d="M341.4,64l8.9,1.4c0,0,2.7-48.5,3.2-56.4c0.4-5.9-7-10.3-10.1-6.7S334.8,13.5,341.4,64z"/>
<path class="st0" d="M255.9,271.8c9.9,13.5,16.8,162.4,16.8,162.4s-5.6,15-17.9,11.9c-12.3-3.1,1.3-15.3,1.3-15.3
	s-27.9,5.4-20.1-13.9c0,0-31.5-1.3-4-23.3l-33.9-115.2c-2.7-9.3-1.1-19.4,4.8-27.1C211.7,240.3,228.1,233.8,255.9,271.8z"/>
</svg>
