<?xml version="1.0" encoding="utf-8"?>
<!-- Generator: Adobe Illustrator 19.1.0, SVG Export Plug-In . SVG Version: 6.00 Build 0)  -->
<svg version="1.1" id="Layer_1" xmlns="http://www.w3.org/2000/svg" xmlns:xlink="http://www.w3.org/1999/xlink" x="0px" y="0px"
	 viewBox="-525 373 528.2 792" style="enable-background:new -525 373 528.2 792;" xml:space="preserve">
<style type="text/css">
	.st0{fill:#C24D8D;}
	.st1{fill:#D68FAF;}
	.st2{fill:#D478A1;}
	.st3{fill:#F8F4E7;}
	.st4{opacity:0.47;fill:#B04379;enable-background:new    ;}
	.st5{fill:#603E16;}
	.st6{fill:#B04379;}
	.st7{opacity:0.35;fill:#E5B1CB;enable-background:new    ;}
	.st8{fill:#E5B1CB;}
	.st9{opacity:0.56;fill:none;stroke:#B04379;stroke-width:0.7169;stroke-miterlimit:10;enable-background:new    ;}
	.st10{fill:none;stroke:#E5B1CB;stroke-width:1.8471;stroke-miterlimit:10;}
	.st11{fill:#B5AAB1;}
	.st12{fill:none;stroke:#CC84AA;stroke-width:1.8471;stroke-miterlimit:10;}
	.st13{fill:#9E979C;}
	.st14{fill:#CC84AA;}
</style>
<g>
	<path class="st0" d="M-134.6,755.6c0,0-2.3,33.8,1.6,40.7c3.9,6.9,52.3,56.2,52.3,56.2s2.1,7.3-3.5,9.6c-5.6,2.4-3.8-6.1-3.8-6.1
		s-9.2,10-11.7,0.6c0,0-12.5,8.6-8.1-7.6l-49.8-36.7c0,0-42.9-35-32.6-63s26.6-24.9,36.2-21.1C-146.1,731.2-133.3,739.2-134.6,755.6
		z"/>
	<path class="st1" d="M-372.5,862.3l9.8,104.1c0,0-13.7,19.2-29.9-5.1c0,0-28.7,4.6-17.6-20.6c0,0-21.5,4.6-21.9-13.5
		c-0.4-18.2,20.1-15.3,20.1-15.3s-31.5-2.5-8.9-18.8c0,0-19.4-19.1,5.8-15.1c0,0-12.2-19.1,6.8-22.6c0,0,10.3-0.8,14.7,10.9
		C-393.7,866.2-395.8,848-372.5,862.3z"/>
	<path class="st2" d="M-428.8,619c0.2-0.1,0.3-0.3,0.5-0.4C-428.6,618.8-428.7,618.9-428.8,619z M-429.5,619.6
		c0.2-0.1,0.4-0.3,0.5-0.4C-429.2,619.4-429.3,619.5-429.5,619.6z M-428.8,619c0.2-0.1,0.3-0.3,0.5-0.4
		C-428.6,618.8-428.7,618.9-428.8,619z M-429.5,619.6c0.2-0.1,0.4-0.3,0.5-0.4C-429.2,619.4-429.3,619.5-429.5,619.6z"/>
	<path class="st2" d="M-134.7,558.4c19.8,102.7,11.5,342.7-27.4,417.6c0,0-126.7,86.4-213.1,0c0,0-15.6-183.4-8.6-290.9
		c0,0-10-110.3,3-143.8c11.2-28.8,36.7-41.8,116.5-41.1C-178.7,501-147.1,493.9-134.7,558.4z"/>
	<path class="st2" d="M-375.2,974.1c0,0,11.7,40.5,3.2,78.5c0,0-3.4,21.2-8.1,28.3c0,0-5,8.3,1.8,14.6c0,0,3.8,5,18-0.4
		c14.4-5.5,39.4,9.8,39.4,9.8s47.8,19.6,59.2-4.6c11.3-24.2-30.9-26.2-30.9-26.2l-61-5.5c0,0-7-23.6,4.3-36c0,0,19.8-33.1,35.7-32.8
		l-0.2,0.8c0,0,57.3,7.8,80.9-1.5c0,0,9.9,35.8-2.9,67.4c0,0-2,10,8.1,8.7c10.2-1.3,31.5-0.4,42.1,10c10.4,10.3,46.9,11.8,47.1-10.3
		s-22.5-19.2-26-19.2s-49.9-4.6-49.9-4.6s-6.9-15.1,9-31.2c16-16.1,47.1-42.5,47.9-54.5"/>
	<path class="st1" d="M-308.9,563.4c-11,11.2-27.1,31.5-29,55.5c-1.7,21.3,12,40.9,32.5,47.2c27.2,8.4,76.3,16.6,126.7-8
		c10.9-5.3,19.3-14.5,23.5-25.9c3.7-10,7.3-23.5,7.5-38c0.3-22.4-16.1-41.5-38.2-45.4c-23.8-4.2-60.1-7.1-100.3,2
		C-294.9,552.8-302.7,557.1-308.9,563.4z"/>
	<path class="st3" d="M-249.6,638.1c0,0,0.1,2,1.7,2.1s1.7-1.9,1.7-1.9L-249.6,638.1z"/>
	
		<ellipse transform="matrix(-0.2856 -0.9583 0.9583 -0.2856 -953.7955 501.7884)" class="st4" cx="-289.9" cy="606.4" rx="19.6" ry="22.3"/>
	
		<ellipse transform="matrix(-0.2856 -0.9583 0.9583 -0.2856 -953.1221 502.9508)" class="st3" cx="-289.1" cy="606.7" rx="17.8" ry="20.3"/>
	<path class="st3" d="M-236.4,638.1l3.9-0.4c0,0,1.2,2.9-1.9,3.3C-237.5,641.4-236.4,638.1-236.4,638.1z"/>
	<path class="st3" d="M-242.8,638.3l3.5-0.2c0,0,1,2.1-1.4,2.9S-243.9,639-242.8,638.3z"/>
	
		<ellipse transform="matrix(-0.2856 -0.9583 0.9583 -0.2856 -951.0008 514.1682)" class="st5" cx="-283.9" cy="611.5" rx="7.8" ry="8.7"/>
	<path class="st6" d="M-267.2,571.1l-3,7.3c0,0-32.7-13.9-48,18.2C-318.2,596.6-317.9,560.1-267.2,571.1z"/>
	
		<ellipse transform="matrix(-0.2856 -0.9583 0.9583 -0.2856 -808.5538 593.7219)" class="st4" cx="-183" cy="598.2" rx="18.3" ry="19.8"/>
	<path class="st0" d="M-339.9,755.2c0,0-19.8,27.2-20.3,35c-0.4,7.9,13.1,75.7,13.1,75.7s-2.2,7.2-8,6.2c-5.9-1,0.1-7.2,0.1-7.2
		s-12.9,3.4-9.9-5.9c0,0-14.8,0.4-2.6-10.8l-21.4-57.8c0,0-16.6-52.7,6.7-70.6c23.4-17.9,35-6.5,40.9,1.9
		C-336.3,728.5-330.1,742.1-339.9,755.2z"/>
	
		<ellipse transform="matrix(-0.2856 -0.9583 0.9583 -0.2856 -810.9313 593.4252)" class="st3" cx="-184.3" cy="599" rx="16.6" ry="17.9"/>
	
		<ellipse transform="matrix(-0.2856 -0.9583 0.9583 -0.2856 -814.4908 600.5364)" class="st5" cx="-183.4" cy="603.8" rx="8.1" ry="8.8"/>
	<path class="st6" d="M-205,565.2l3.6,6.2c0,0,31.5-14.5,47.8,12.8C-153.5,584.2-159.2,547.1-205,565.2z"/>
	<circle class="st7" cx="-187.3" cy="632.4" r="5.3"/>
	
		<ellipse transform="matrix(-0.2856 -0.9583 0.9583 -0.2856 -986.7513 549.2096)" class="st7" cx="-288.7" cy="642.4" rx="4.8" ry="8.1"/>
	<g>
		<path class="st8" d="M-228.9,615c0,0,3-2,4.9-0.2s6.2,1.8,6.1-1.8c-0.1-3.6-4.8-6.8-8.8-6s-8.9,2-9.2,7.7
			C-236.2,620.5-228.9,615-228.9,615z"/>
		<circle class="st1" cx="-222.5" cy="612" r="0.7"/>
		<circle class="st1" cx="-232" cy="613.5" r="0.8"/>
	</g>
	<g>
		<path class="st9" d="M-226.2,597.7c0,0-2.4,3.3,0,7.9"/>
		<path class="st9" d="M-220.9,595c0,0-6.8-2.4-12.2,3.6"/>
		<path class="st9" d="M-222,591c0,0-6.1-1.8-9.2,1.5"/>
	</g>
	<polygon class="st3" points="-230.2,636.6 -230,640.6 -225.9,639.8 -225.9,635.9 	"/>
	<polygon class="st3" points="-224,635.4 -223.8,639.5 -219.8,638.9 -219.7,635.1 	"/>
	<path class="st10" d="M-225.6,613.9c0,0,0.8,14,5.1,20.6c0,0-22.3,6.6-49,0.8"/>
	<path class="st11" d="M-238.6,674.1c0,0,6.5,199-35.7,340.1c0,0,1.4-0.2,6.2-0.4c0,0,40.2-125.1,37.2-340.5"/>
	<g>
		<line class="st12" x1="-238.4" y1="679.6" x2="-229" y2="679.3"/>
		<line class="st12" x1="-238.4" y1="686.4" x2="-229" y2="686.1"/>
		<line class="st12" x1="-238.4" y1="693.2" x2="-229" y2="692.9"/>
		<line class="st12" x1="-238.4" y1="700.5" x2="-229" y2="700.1"/>
		<line class="st12" x1="-238.4" y1="707.3" x2="-229" y2="707"/>
		<line class="st12" x1="-238.4" y1="714.1" x2="-229" y2="713.8"/>
	</g>
	<g>
		<line class="st12" x1="-238.4" y1="721.6" x2="-229" y2="721.3"/>
		<line class="st12" x1="-238.4" y1="728.5" x2="-229" y2="728.1"/>
		<line class="st12" x1="-238.4" y1="735.3" x2="-229" y2="734.9"/>
		<line class="st12" x1="-238.7" y1="742.5" x2="-229.9" y2="742.2"/>
		<line class="st12" x1="-239.2" y1="749.3" x2="-229.8" y2="749"/>
		<line class="st12" x1="-239.3" y1="756.1" x2="-229.9" y2="755.8"/>
	</g>
	<g>
		<line class="st12" x1="-240.4" y1="764.5" x2="-231" y2="764.2"/>
		<line class="st12" x1="-240.4" y1="771.4" x2="-231" y2="771"/>
		<line class="st12" x1="-240.4" y1="778.2" x2="-231" y2="777.9"/>
		<line class="st12" x1="-240.4" y1="785.4" x2="-231" y2="785.1"/>
		<line class="st12" x1="-240.4" y1="792.2" x2="-231" y2="791.9"/>
		<line class="st12" x1="-240.4" y1="799.1" x2="-231" y2="798.7"/>
	</g>
	<g>
		<line class="st12" x1="-242.8" y1="807.8" x2="-231.7" y2="808.4"/>
		<line class="st12" x1="-243.6" y1="814.6" x2="-232.5" y2="815.2"/>
		<line class="st12" x1="-244.4" y1="821.4" x2="-233.3" y2="821.9"/>
		<line class="st12" x1="-245.2" y1="828.6" x2="-234.2" y2="829.1"/>
		<line class="st12" x1="-246" y1="835.3" x2="-235" y2="835.9"/>
		<line class="st12" x1="-246.8" y1="842.1" x2="-235.8" y2="842.7"/>
	</g>
	<g>
		<line class="st12" x1="-247.7" y1="849.6" x2="-236.6" y2="850.2"/>
		<line class="st12" x1="-248.5" y1="856.4" x2="-237.4" y2="857"/>
		<line class="st12" x1="-249.3" y1="863.2" x2="-238.2" y2="863.8"/>
		<line class="st12" x1="-250.4" y1="870.4" x2="-240.1" y2="870.9"/>
		<line class="st12" x1="-251.8" y1="877.1" x2="-240.7" y2="877.7"/>
		<line class="st12" x1="-252.7" y1="883.9" x2="-241.7" y2="884.5"/>
	</g>
	<g>
		<line class="st12" x1="-252.4" y1="892.1" x2="-243.1" y2="892.7"/>
		<line class="st12" x1="-253.1" y1="898.9" x2="-243.8" y2="899.5"/>
		<line class="st12" x1="-253.7" y1="905.7" x2="-244.4" y2="906.3"/>
		<line class="st12" x1="-254.4" y1="912.9" x2="-245.1" y2="913.5"/>
		<line class="st12" x1="-255.1" y1="919.7" x2="-245.8" y2="920.3"/>
		<line class="st12" x1="-255.8" y1="926.5" x2="-246.5" y2="927.1"/>
	</g>
	<g>
		<line class="st12" x1="-257.4" y1="934.5" x2="-248.2" y2="935.8"/>
		<line class="st12" x1="-258.6" y1="941.3" x2="-249.3" y2="942.5"/>
		<line class="st12" x1="-259.7" y1="948" x2="-250.5" y2="949.2"/>
		<line class="st12" x1="-261" y1="955.1" x2="-251.8" y2="956.3"/>
		<line class="st12" x1="-262.1" y1="961.8" x2="-252.9" y2="963.1"/>
		<line class="st12" x1="-263.3" y1="968.5" x2="-254.1" y2="969.8"/>
	</g>
	<g>
		<line class="st12" x1="-266.1" y1="975.8" x2="-257" y2="977.6"/>
		<line class="st12" x1="-267.7" y1="982.4" x2="-258.6" y2="984.2"/>
		<line class="st12" x1="-269.2" y1="989" x2="-260.1" y2="990.8"/>
		<line class="st12" x1="-270.9" y1="996.1" x2="-261.8" y2="997.9"/>
		<line class="st12" x1="-272.5" y1="1002.7" x2="-263.3" y2="1004.5"/>
		<line class="st12" x1="-274" y1="1009.3" x2="-264.9" y2="1011.2"/>
	</g>
	<g>
		<polygon class="st13" points="-233.3,673.7 -227.8,672.9 -220.4,682.8 -228.1,685.6 		"/>
		<circle class="st14" cx="-226.3" cy="680.8" r="2.6"/>
	</g>
	<path class="st1" d="M-297.2,514.3c0,0,6.6-3.5,17.1,3.4c0,0,0.6-80.8,4.6-107.5c1.3-8.4-21.2-25.8-26.6,2
		c-4.8,24.7,4.9,100.6,4.9,100.6L-297.2,514.3z"/>
	<path class="st8" d="M-293.9,509.8c0,0,3.7-2,9.6,1.9c0,0,0.3-45.1,2.5-60c0.6-4.7-11.8-14.4-14.9,1.1c-2.6,13.8,2.7,56.2,2.7,56.2
		L-293.9,509.8z"/>
	<path class="st1" d="M-211.7,510.9c0,0,11.7-5.2,16.2,6.5c0,0,47.6-65.3,66.2-84.7c5.9-6.1-2.2-33.3-22.9-13.9
		c-18.3,17.3-54.6,84.7-54.6,84.7L-211.7,510.9z"/>
	<path class="st8" d="M-202.4,504.9c0,0,5.1-1.2,7.6,5.1c0,0,25.4-34.9,35.4-45.3c3.2-3.3-1.2-17.8-12.2-7.4
		c-9.8,9.2-29.2,45.3-29.2,45.3L-202.4,504.9z"/>
	<path class="st2" d="M-266.1,503.5c0,0,2-14.5-7.5-20c0,0,15.5,5.5,16,17l4-20.5l2,21c0,0,5.5-18.5,13-15c0,0-9,10-5,17.5
		c0,0,2-8.5-4.5-20.5c0,0,11.5,8.5,11.5,20.5H-266.1z"/>
	<path class="st2" d="M-367,535.1c0,0-21.2-1.4-27,18.9c0,0,20.9-15.6,25.7-9.2l11.3-13.7c0,0-11.5-18.5-22.9-18.6
		C-379.9,512.5-363.3,521.3-367,535.1z"/>
	<path class="st2" d="M-368.5,529.2c0,0-9.5-7.4-20.6-7.9l16.4,11.1c0,0-19-6.3-22.2,1.1l20.6,5.3"/>
	<path class="st2" d="M-377.7,591.9c0,0-13.6,9.1-19.4,33.1l19.4-18.8c0,0-20.7,27.9-25.9,41.5c0,0,27.9-35.8,33.1-21.6
		c0,0-17.5,11.8-34.4,7.9c0,0,18.6,15.2,31.6,8.7"/>
	<path class="st2" d="M-384,712.1c0,0,1.4-13.2-8-13.2c0,0,12.8-5.2,12.8,2.8l-2.4-15.1c0,0-3.4,2.3-10.1,2.8l10.1-8.4l-0.5-10.4
		c0,0-8,10.8-8.5,17.4c0,0,11.8-16,11.8-14.1"/>
	<path class="st2" d="M-376.3,696.9c0,0-12.6,1.7-21.6-5.3c0,0,17.6,2.7,18.3-0.7"/>
	<path class="st2" d="M-133.3,653.8c0,0,16.5,12,18.4,25.5l-18.7-18.7l5.5,42.9c0,0,10.4,6.6,10.1,16.9c0,0-5.4-11.4-8.7-11.4
		c0,0,5.1,13.6,11.4,9.9c0,0-3.9,9-14.5-3C-140.2,703.8-133.3,653.8-133.3,653.8z"/>
	<path class="st2" d="M-381.8,820.9c0,0-7.6-2.5-7.3-16.5l8.6,11.2"/>
</g>
</svg>
