<?xml version="1.0" encoding="utf-8"?>
<!-- Generator: Adobe Illustrator 19.1.0, SVG Export Plug-In . SVG Version: 6.00 Build 0)  -->
<svg version="1.1" id="Layer_1" xmlns="http://www.w3.org/2000/svg" xmlns:xlink="http://www.w3.org/1999/xlink" x="0px" y="0px"
	 viewBox="23 -90 528.2 792" style="enable-background:new 23 -90 528.2 792;" xml:space="preserve">
<style type="text/css">
	.st0{fill:#7DB6BF;}
	.st1{fill:#436A8D;}
	.st2{fill:#6BA0A5;}
	.st3{fill:#9E6D30;}
	.st4{fill:#A6DCE8;}
	.st5{fill:#F3FAFC;}
	.st6{fill:#1A1F36;}
	.st7{fill:#FFFFFF;}
	.st8{fill:#072526;}
	.st9{clip-path:url(#SVGID_2_);fill:#072526;}
	.st10{clip-path:url(#SVGID_2_);fill:#6BA0A5;}
</style>
<g>
	<path class="st0" d="M418.9,309.9c6.4,4.6,31,69.9,31,69.9s-0.3,7.5-6.2,7.9c-5.9,0.4-1.7-7-1.7-7s-11.6,6.4-11-3.3
		c0,0-14.2,4-5.1-9.8l-31.8-46.4c-2.6-3.7-3.3-8.5-1.8-12.8C394.7,302.3,401,297,418.9,309.9z"/>
	<path class="st0" d="M179.8,424.4l2.8,30.2c0,0-12.3,11.3-18.4,4c-6-7.3,1.4-8,1.4-8s-23.4,1.7-13.8-9.8c0,0-14.5-12-0.2-13.4
		c0,0-12.2-15.9,6.5-16.3c0,0,5.5-20.8,19.5-3.2L179.8,424.4z"/>
	<path class="st1" d="M412.8,274.7c-0.1-0.5-0.2-1.3-0.3-2.5c0,0,0,0,0,0"/>
	<path class="st2" d="M274,533.6c0,0,36.7,3.5,51.8-0.6c0,0,6.3,15.8-1.9,29.7c0,0-1.3,4.4,5.2,3.9s20.2-0.1,26.9,4.4
		c6.7,4.5,30.1,5.2,30.2-4.5s-14.4-8.5-16.7-8.5s-32-2-32-2s-4.4-6.7,5.8-13.8c10.2-7.1,30.2-18.7,30.7-24c0.5-5.3-0.9-7.8-0.9-7.8
		l-88.8-12.9L274,533.6z"/>
	<path class="st3" d="M302.8,190.9c-0.1,0.1-0.2,0.2-0.5,0.4c-0.2,0.1-0.3,0.3-0.5,0.4C302.4,191.3,302.7,191,302.8,190.9z"/>
	<path class="st2" d="M223.7,165.6 M412.5,272.2c-0.6-5.4-3.5-15.4-1.7-22c7.7,3.5,1.3-1.3,5.3-3.6c0.8-0.1,1.7-0.2,2.5-0.3
		c-0.7,9.1,7.7,10.1,7.7,10.1c-2.3-6.6-0.5-9.7,1.1-11.2c0.6-0.1,1.1-0.1,1.6-0.2c-1.5,4.6,3.7,8,3.7,8c-0.2-4.5,2.3-5.3,4.6-5.1
		c2.9,6.8,13.5,6.1,13.5,6.1c-3.3,0,3.8-23.3,3.8-23.3c10-1.9,29.5-35.6,29.5-35.6c2.4,4.7,13.8,4.3,13.8,4.3
		c-6.2-5.2-8.1-15.7-8.1-15.7c2.8-21.9-4.7-40.6-4.7-40.6l16.6-2.4L485,129.4c10.4,1.1,18-2.8,18-2.8c-16.3,0.8-30-8.3-30-8.3
		c-10.5-14.4-22-23.9-31.7-30c3.7-0.6,6.5-2.1,6.5-5.4c0,0-3.8,3.1-11.4,2.4c-10.1-5.7-17.3-7.4-17.3-7.4c2.6-3,17.2-3,17.2-3
		c-8.2-6.4-25.5-1.1-25.5-1.1c-0.6-5.8,12-12.7,12-12.7c-9.4-2.4-16.9,6.7-16.9,6.7s-6.7-26.4-5.8-17.2c0.8,9.2-5.1,14.8-5.1,14.8
		c-4.5-0.4-9-14.2-9-14.2l0.6,15l0.1,2.9c-0.2-1.2-0.7-2.2-1.4-3.1c-5.6-7.7-24.3-5.4-24.3-5.4c2.5,0,5.6,1.3,8.6,3
		c-5.5-0.6-11.3-1.6-17.6-1c-11.6,1.1-25,5.5-45.4,10.3c-21.9,5.2-37.5,21.3-37.5,21.3s-18.6,17.1-28.8,40.9c0,0-0.6,0.9-1.3,2.8
		l-38.8,107.1c0,0-24.4,61.9-34.2,118.3c-1.3,7.6-1.8,15.3-1.5,23c0.9,25,5.8,83.2,31.4,108.3c6.9,6.8,32.7,27.4,38.9,27.4
		c0,0,7.5,17.8,2,34.6c0,0-2.2,9.4-5.2,12.5c0,0-3.2,3.7,1.1,6.5c0,0,2.4,2.2,11.6-0.2c9.2-2.4,25.2,4.3,25.2,4.3s30.6,8.6,37.9-2
		c7.3-10.7-19.8-11.6-19.8-11.6l-39.1-2.4c0,0-4.5-10.5,2.8-15.9c0,0,15.1-17.4,25.6-14c0,0,21.1,2.5,19.1-30.3
		c38,25.2,77.3,6.7,77.3,6.7S445.2,409,412.5,272.2 M247.7,100.6 M273.5,75.4 M210,189.8c-0.2,0.1-0.3,0.3-0.5,0.4
		c0.3-0.3,0.6-0.5,0.8-0.6C210.2,189.7,210.1,189.7,210,189.8z"/>
	<path class="st0" d="M463.3,148.7c7.6,12,13.2,20.7-7.4,55.2c-20.8,34.9-51.4,18.2-51.4,18.2s-19.8-15.3-45.9-6.9
		c-26.1,8.4-40.9,8.4-50.6-8.4c-9.7-16.7-6.6-43.6,6.6-59.2s26.7-32.3,63-24.7c6.9,1.4,10.9,3.3,24.5,13.1c13.6,9.8,32.4,5,43.2,4
		C450.5,139.5,458.1,140.4,463.3,148.7z"/>
	<path class="st2" d="M425.2,146.5l1.2,4.7c0,0,23.2-3.3,28.5,17.5C454.9,168.6,458.4,143.5,425.2,146.5z"/>
	<path class="st2" d="M385,136l-3.3,4.1c0,0-18.5-15.3-34.6,2.6C347.1,142.7,354.4,119.1,385,136z"/>
	<path class="st0" d="M360.8,77.5l11.6,1.9c0,0,3.5-63.5,4.1-73.8c0.5-7.7-9.1-13.6-13.3-8.8C359.2,1.4,352.1,11.3,360.8,77.5z"/>
	<path class="st4" d="M362.6,77.3l8.1,1.3c0,0,2.4-44.3,2.9-51.5c0.3-5.4-6.4-9.4-9.2-6.2C361.5,24.3,356.5,31.1,362.6,77.3z"/>
	<path class="st0" d="M410.1,81.1l11.1,4c0,0,15.2-61.8,17.8-71.8c1.9-7.5-6.5-15-11.4-11.2C422.7,6,413.9,14.4,410.1,81.1z"/>
	<path class="st4" d="M411.9,81.2l7.7,2.8c0,0,10.6-43,12.4-50c1.3-5.2-4.5-10.5-7.9-7.8S414.5,34.7,411.9,81.2z"/>
	<g>
		<circle class="st5" cx="432.5" cy="172.5" r="18.1"/>
		<circle class="st6" cx="431.6" cy="172.7" r="7.7"/>
		<path class="st4" d="M414.5,173.8c0,0,23.3,0,33.6,8.4c0,0-6.9,10.7-19.3,7.9C417.3,187.6,414.5,177.9,414.5,173.8z"/>
	</g>
	<g>
		<circle class="st5" cx="365.7" cy="159.5" r="18.1"/>
		<circle class="st6" cx="364.9" cy="160" r="7.7"/>
		<path class="st4" d="M348.2,164.6c0,0,22.3-4.3,34.4,1.8c0,0-4.6,11.3-16.6,11.2C353.9,177.5,349,168.5,348.2,164.6z"/>
	</g>
	<path class="st2" d="M376.4,176.4c-1.1-5.5,6-8.8,9.5-4.4c1.9,2.3,5.2,5.2,10.7,5.9c6.7,0.9,11-1,12.8-2.3c2.2-1.7,3.2-0.9,4.3-0.8
		c1.3,0.1,4.6,4.8,3.1,8.5c-2.8,6.6-10.5,7.6-16.9,7.2c-14-0.9-22-7.5-23.4-13.8C376.5,176.5,376.4,176.4,376.4,176.4z"/>
	<path class="st4" d="M385,174.8c0,0,3.6,6,12.9,7.3c6.7,1,10.1-0.9,11.5-2.1c0.9-0.7,1.9-1.1,3.1-1c1.3,0.1,2.5,0.9,1.1,3.5
		c-2.4,4.8-10,5.3-16.4,4.5c-6.4-0.8-15.5-5.5-17.2-10.3C378.3,171.9,383.8,172.4,385,174.8z"/>
	<polygon class="st7" points="393.4,180.9 393.4,184.3 396,184.6 396.3,181.8 	"/>
	<polygon class="st7" points="397.2,182 397.2,184.7 399.6,184.7 399.8,182.2 	"/>
	<path class="st7" d="M389.9,179.2l2.7,1.5c0,0-0.2,1.6-2.2,1C388.3,181.2,389.9,179.2,389.9,179.2z"/>
	<path class="st7" d="M386.6,176.8l2.5,2c0,0-0.2,1.6-2.2,1S386.6,176.8,386.6,176.8z"/>
	<path class="st7" d="M384.4,173.9l1.8,2.6c0,0-0.7,1.5-2.4,0.4C382.1,175.8,384.4,173.9,384.4,173.9z"/>
	<path class="st7" d="M408.3,180.8l2.1-1.5c0,0,1.8,1.2,0.2,2.5S408.3,180.8,408.3,180.8z"/>
	<path class="st7" d="M404.4,182.1l3-1c0,0,1.2,1.1-0.4,2.4S404.4,182.1,404.4,182.1z"/>
	<path class="st7" d="M400.9,182.3l3.2-0.1c0,0,0.8,1.4-1.1,2.2S400.9,182.3,400.9,182.3z"/>
	<path class="st4" d="M404.5,173.2c-0.5,2.4-2.7-0.6-6.1-1.4c-3.4-0.8-6.6,1-6.1-1.4c0.5-2.4,3.7-3.7,7.1-2.9
		C402.7,168.3,405,170.9,404.5,173.2z"/>
	<circle class="st2" cx="394.9" cy="170.3" r="0.3"/>
	<circle class="st2" cx="402.2" cy="171.4" r="0.3"/>
</g>
<path class="st8" d="M410.8,250.2c0,0-108.9,21.8-194.5-52.2l5.4-12.5c0,0,68.4,49,191.3,60.1L410.8,250.2z"/>
<path class="st8" d="M221.7,185.5c0,0-72.2,94.2-109.8,235c0,0-7,26.5-47.4,29.3c0,0,0,36.2,124.1,39c0,0,84.5-190.7,98.1-261.2
	L221.7,185.5z"/>
<polygon class="st8" points="364,353.5 343.5,389.9 351.7,394.5 404.8,300.4 396.6,295.7 "/>
<path class="st0" d="M339.4,309.9c6.4,4.6,31,69.9,31,69.9s-0.3,7.5-6.2,7.9c-5.9,0.4-1.7-7-1.7-7s-11.6,6.4-11-3.3
	c0,0-14.2,4-5.1-9.8l-31.8-46.4c-2.6-3.7-3.3-8.5-1.8-12.8C315.1,302.3,321.5,297,339.4,309.9z"/>
<path class="st8" d="M407.8,267.3c0,0,1.3,5.1,8.1,4.7c0,0-3.4,2.1-2.1,8.1c0,0-2.1-3.4-6.8-3.4
	C406.9,276.7,409.9,273.3,407.8,267.3z"/>
<path class="st8" d="M387.9,276.7c0,0,1.3,5.1,8.1,4.7c0,0-3.4,2.1-2.1,8.1c0,0-2.1-3.4-6.8-3.4C387,286,390,282.6,387.9,276.7z"/>
<path class="st8" d="M409.6,283.8c0,0-1.9,4.9,3.9,8.5c0,0-4-0.2-6.4,5.3c0,0,0.2-4-3.6-6.7C403.5,290.9,407.9,289.9,409.6,283.8z"
	/>
<path class="st8" d="M411.7,301.6c0,0-1.9,4.9,3.9,8.5c0,0-4-0.2-6.4,5.3c0,0,0.2-4-3.6-6.7C405.6,308.7,410,307.7,411.7,301.6z"/>
<path class="st8" d="M431,288.5c0,0-4.3,2.9-1.6,9.2c0,0-3.2-2.5-8.3,0.8c0,0,2.5-3.2,0.9-7.5C421.9,290.9,426.1,292.5,431,288.5z"
	/>
<g>
	<defs>
		<path id="SVGID_1_" d="M409,80.4c-13.2,4.8-25.5,0-25.5,0s-6.8-5.4-6.8-12.3c0-6.8,21.8-46.8,22.5-48l0,0L409,80.4z"/>
	</defs>
	<clipPath id="SVGID_2_">
		<use xlink:href="#SVGID_1_"  style="overflow:visible;"/>
	</clipPath>
	<path class="st9" d="M409,80.4c-13.2,4.8-25.5,0-25.5,0s-6.8-5.4-6.8-12.3c0-6.8,21.8-46.8,22.5-48l0,0L409,80.4z"/>
	<path class="st10" d="M394.7,37.9c0,0,1.3,5.1,8.1,4.7c0,0-3.4,2.1-2.1,8.1c0,0-2.1-3.4-6.8-3.4C393.9,47.2,396.8,43.8,394.7,37.9z
		"/>
	<path class="st10" d="M380.7,49.7c0,0,1.3,5.1,8.1,4.7c0,0-3.4,2.1-2.1,8.1c0,0-2.1-3.4-6.8-3.4C379.8,59.1,382.8,55.7,380.7,49.7z
		"/>
	<path class="st10" d="M399.3,54.4c0,0-1.9,4.9,3.9,8.5c0,0-4-0.2-6.4,5.3c0,0,0.2-4-3.6-6.7C393.2,61.5,397.6,60.4,399.3,54.4z"/>
	<path class="st10" d="M411.3,64.5c0,0-1.9,4.9,3.9,8.5c0,0-4-0.2-6.4,5.3c0,0,0.2-4-3.6-6.7C405.2,71.6,409.6,70.5,411.3,64.5z"/>
	<path class="st10" d="M398.6,72.2c0,0-1.9,4.9,3.9,8.5c0,0-4-0.2-6.4,5.3c0,0,0.2-4-3.6-6.7C392.5,79.3,396.9,78.2,398.6,72.2z"/>
	<path class="st10" d="M401.1,26.6c0,0-4.3,2.9-1.6,9.2c0,0-3.2-2.5-8.3,0.8c0,0,2.5-3.2,0.9-7.5C392.1,29,396.3,30.6,401.1,26.6z"
		/>
	<path class="st10" d="M390.2,66c0,0-4.3,2.9-1.6,9.2c0,0-3.2-2.5-8.3,0.8c0,0,2.5-3.2,0.9-7.5C381.1,68.4,385.3,70.1,390.2,66z"/>
</g>
</svg>
