<?xml version="1.0" encoding="utf-8"?>
<!-- Generator: Adobe Illustrator 19.1.0, SVG Export Plug-In . SVG Version: 6.00 Build 0)  -->
<svg version="1.1" id="Layer_1" xmlns="http://www.w3.org/2000/svg" xmlns:xlink="http://www.w3.org/1999/xlink" x="0px" y="0px"
	 viewBox="0 0 528.2 792" style="enable-background:new 0 0 528.2 792;" xml:space="preserve">
<style type="text/css">
	.st0{fill:#D68FAF;}
	.st1{fill:#B04379;}
	.st2{fill:#D478A1;}
	.st3{fill:#CC84AA;}
	.st4{fill:#93652B;}
	.st5{fill:#A06C30;}
	.st6{opacity:0.47;fill:#B04379;}
	.st7{fill:#F8F4E7;}
	.st8{fill:#603E16;}
	.st9{fill:#E5B1CB;}
	.st10{opacity:0.56;fill:none;stroke:#B04379;stroke-miterlimit:10;}
	.st11{opacity:0.35;fill:#E5B1CB;}
	.st12{opacity:0.4;fill:#E5B1CB;}
	.st13{opacity:0.75;fill:none;stroke:#B04379;stroke-miterlimit:10;}
	.st14{opacity:0.59;fill:none;stroke:#B04379;stroke-miterlimit:10;}
	.st15{fill:none;stroke:#745326;stroke-miterlimit:10;}
</style>
<path class="st0" d="M63.4,560.9l48.4,64.1c0,0-1.2,18.1-21.6,8.7c0,0-16.9,14.6-19.8-6.4c0,0-12.2,11.7-19.8,0s7-18.1,7-18.1
	s-21.6,11.1-13.4-8.7c0,0-20.4-4.7-2.3-12.2c0,0-15.7-7.6-4.7-17.5c0,0,6.4-4.7,14,1.2C51.1,572,42.4,560.9,63.4,560.9z"/>
<path class="st1" d="M392.8,372.1c0,0-19.5,66-14.9,81.5c4.6,15.4,77.5,136.6,77.5,136.6s0.9,15.4-11.2,17.4c-12,2-4.8-14-4.8-14
	s-22.5,15.5-23.1-4.5c0,0-28.2,11-12.5-19l-81.2-96.6c0,0-68.4-90.1-35.8-140.7s80.1-24.6,80.1-24.6S402.6,340.2,392.8,372.1z"/>
<path class="st2" d="M491.9,180.2c12.8,1.4,22.2-3.5,22.2-3.5c-20.1,1-36.9-10.2-36.9-10.2c-12.9-17.7-27-29.3-38.9-36.8
	c4.5-0.7,8-2.5,8-6.6c0,0-4.7,3.8-14.1,3c-12.5-7-21.3-9.1-21.3-9.1c3.2-3.7,21.1-3.7,21.1-3.7c-10-7.9-31.4-1.3-31.4-1.3
	c-0.8-7.1,14.8-15.6,14.8-15.6c-11.6-2.9-20.8,8.2-20.8,8.2s-8.2-32.4-7.1-21.1c1,11.3-6.3,18.2-6.3,18.2
	c-5.5-0.5-11.1-17.4-11.1-17.4l0.8,18.4l0.1,3.5c-0.3-1.5-0.9-2.7-1.7-3.8c-6.9-9.5-29.8-6.7-29.8-6.7c3.1,0,6.9,1.6,10.5,3.7
	c-6.7-0.7-13.9-1.1-21.6-1.3c0,0-32.8,1.1-55.7,12.7c-23,11.6-53.4-19.8-53.4-19.8s-4,16.6,12.7,22.7c0,0-28,1.3-32,7.9l21.1,1.6
	c0,0-16.9,7.1-20.9,21.4c0,0,21.4-13.7,26.3-7.6c0,0-21.9,21.4-34.4,50.7c0,0-0.9,1.1-2.5,2.9c-6.1,1.1-10,1.3-10,1.3
	c1,1.8,3.2,2.8,5.9,3.4c-4.9,5.6-11.9,13.4-18.3,20.2c-7.5,2-12.7,3.3-12.7,3.3c1.4,1.5,3.5,2.6,6,3.5c-4.1,4-7.3,6.9-8.9,7.3
	c0,0,7.9,3.5,17.8-5.3c0.9-0.8,1.8-1.6,2.7-2.6c3.8-4.2,2.8-2.1-1.3,2.8c-7.8,9.4-26.6,29.1-43.4,35.8c0,0,18.6-0.4,25.7-5.5
	c-7.2,6.1-39.7,34.3-42,45.9c0,0,12.3-6.4,18-11.5c-2.2,2.4-26,28.6-28.2,37.5l19.5-16.8l-9.8,25.1c0,0,20-18.6,31.2-13
	c0,0-72.5,89-82.5,161.6c0,0-26,124.3,78.3,168.5c11,4.7,39,10.3,46.7,10.3c0,0,9.2,21.9,2.5,42.5c0,0-2.7,11.5-6.4,15.3
	c0,0-3.9,4.5,1.4,7.9c0,0,3,2.7,14.2-0.2c11.3-3,31,5.3,31,5.3s37.6,10.6,46.6-2.5c8.9-13.1-24.3-14.2-24.3-14.2l-48-3
	c0,0-5.5-12.8,3.4-19.5c0,0,18.6-21.4,31.5-17.2c0,0,32.5,3.8,21.2-53.7c-11.3-57.5,1-93.4,1-93.4s17.2-42.8,21.6-46.2
	c4.4-3.4-10.4-37.8-10.4-37.8s-14.7-39.8-4-57.2c10.7-17.3,25.1-37.6,69.7-45.7c40.9-7.5,46.5,12.5,47.1,15.8
	c-0.4-3.3-2.5-22.4,0.2-32.2c9.5,4.3,19.5,0.1,24.6-2.6c1-0.1,2.1-0.2,3.1-0.3c-0.9,11.1,9.5,12.4,9.5,12.4
	c-2.8-8.1-0.6-12,1.4-13.7c0.7-0.1,1.3-0.2,1.9-0.2c-1.8,5.6,4.6,9.8,4.6,9.8c-0.2-5.5,2.8-6.5,5.6-6.3c3.6,8.3,16.6,7.5,16.6,7.5
	c-4.1,0,4.7-28.6,4.7-28.6c12.3-2.3,36.2-43.8,36.2-43.8c2.9,5.8,16.9,5.2,16.9,5.2c-7.6-6.4-9.9-19.2-9.9-19.2
	c3.5-26.9-5.8-49.9-5.8-49.9l20.5-3L491.9,180.2z M154,254.4c-0.2,0.2-0.4,0.3-0.6,0.5c0.4-0.3,0.7-0.6,1-0.8
	C154.2,254.2,154.1,254.3,154,254.4z"/>
<path class="st3" d="M232.7,676.7c0,0,45.1,4.2,63.7-0.8c0,0,7.8,19.4-2.3,36.5c0,0-1.6,5.4,6.4,4.7s24.8-0.2,33.1,5.4
	c8.2,5.6,36.9,6.4,37.1-5.6c0.2-12-17.7-10.4-20.5-10.4s-39.3-2.5-39.3-2.5s-5.4-8.2,7.1-16.9c12.6-8.7,37.1-23,37.7-29.5
	c0.6-6.5-1.1-9.6-1.1-9.6l-109-19.5L232.7,676.7z"/>
<path class="st4" d="M370.9,102.8c-0.5-0.1-1-0.2-1.6-0.3c0.8,1.1,1.4,2.4,1.7,3.8L370.9,102.8z"/>
<path class="st5" d="M268,255.7c-0.1,0.1-0.3,0.2-0.6,0.5c-0.2,0.2-0.4,0.3-0.6,0.5C267.5,256.2,267.9,255.8,268,255.7z"/>
<path class="st0" d="M381.7,353.8c0,0-43.8-51.9-119.2,19.1s-56.8,226-8.5,262.9c48.3,37,100.6,12.2,100.6,12.2
	S422.9,522.9,381.7,353.8z"/>
<path class="st4" d="M170.8,224.7c-0.5-0.1-0.9-0.1-1.4-0.2c0.9-0.8,1.8-1.6,2.7-2.6C176,217.7,174.9,219.7,170.8,224.7z"/>
<path class="st0" d="M459.9,209.9c9.3,14.7,16.3,25.5-9.1,67.9c-25.6,42.8-63.1,22.3-63.1,22.3s-24.4-18.8-56.4-8.5
	c-32,10.3-50.2,10.3-62.2-10.3c-12-20.5-8.1-53.6,8.1-72.8c16.3-19.2,32.8-39.6,77.5-30.4c8.5,1.8,13.4,4,30.1,16.1
	s39.8,6.2,53.1,4.9C444.1,198.6,453.5,199.8,459.9,209.9z"/>
<ellipse class="st6" cx="429" cy="241.7" rx="17.7" ry="16.3"/>
<ellipse class="st6" cx="335.6" cy="219" rx="20.8" ry="18.3"/>
<ellipse class="st7" cx="427.7" cy="242" rx="16" ry="14.8"/>
<ellipse class="st8" cx="427.2" cy="246.4" rx="7.9" ry="7.2"/>
<ellipse class="st7" cx="336.2" cy="219.5" rx="18.9" ry="16.6"/>
<ellipse class="st8" cx="339.6" cy="225.2" rx="8.1" ry="7.3"/>
<path class="st9" d="M378.2,243.6c0,0,5.8-1.8,8,2c2.2,3.8,9.1,5.8,10.6,0s-4.4-13.1-11.3-13.8c-6.9-0.7-15.1-1.1-18.4,8
	S378.2,243.6,378.2,243.6z"/>
<circle class="st0" cx="389.9" cy="241.9" r="1.2"/>
<circle class="st0" cx="373.9" cy="239.6" r="1.4"/>
<path class="st10" d="M390.4,221.9c0,0-5,2.7-4.8,9.9"/>
<path class="st10" d="M398.7,221.7c0,0-7-7.2-17.5-2.9"/>
<path class="st10" d="M399.8,216.1c0,0-6.5-6-12.5-3.8"/>
<circle class="st11" cx="430.5" cy="273.6" r="8.3"/>
<ellipse class="st11" cx="313.7" cy="247.9" rx="11.7" ry="7"/>
<path class="st12" d="M413.4,276.9c1.3,2.7,3.4,9.2-6.3,10.2c-9.7,1-8.4-5.8-14.4-11c-5.2-4.5-12.9-14.9-48.1-7.8
	c-4.8,1-14.9,5-19.4-2.4c-4.4-7.3,4.2-11.2,26.9-12.3C374.9,252.6,405.3,260.4,413.4,276.9z"/>
<path class="st7" d="M337.5,263c0,0,0.9,4.7,4.7,4.3c3.8-0.4,3.3-5.1,3.3-5.1L337.5,263z"/>
<path class="st7" d="M348.1,261.5l7.6,0c0,0,1.8,4.6-3.4,6.1C347.1,269.1,345.7,262.8,348.1,261.5z"/>
<path class="st7" d="M359.1,261.5l7.7,0.7c0,0,1.2,6-5,5.6C355.7,267.3,359.1,261.5,359.1,261.5z"/>
<path class="st1" d="M418.1,211.4l1.4,5.8c0,0,28.5-4.1,35,21.5C454.5,238.7,458.8,207.8,418.1,211.4z"/>
<path class="st1" d="M359.7,194.3l-4.1,5.1c0,0-22.7-18.8-42.5,3.1C313.1,202.5,322,173.5,359.7,194.3z"/>
<path class="st1" d="M221.6,366.1c0,0-40.6,55.6-41.5,71.7c-0.9,16.1,26.8,154.8,26.8,154.8s-4.4,14.8-16.4,12.6
	c-12-2.1,0.2-14.8,0.2-14.8s-26.4,7-20.2-12c0,0-30.3,0.9-5.3-22.1L121.5,438c0,0-34-107.9,13.8-144.5s71.7-13.3,83.7,3.9
	C228.8,311.5,241.6,339.4,221.6,366.1z"/>
<path class="st13" d="M244.2,152.2c0,0-20.5,3.7-34.2,31.7c0,0,28-14.3,39.8-11.2c0,0-22.4,16.8-22.4,40.4c0,0,47.8-52.2,86.4-55.9"
	/>
<path class="st13" d="M220.6,253.9c0,0-9.6,9-10.1,22.9L228,264c0,0-8.5,16-5.3,27.1"/>
<circle class="st14" cx="380.2" cy="530.6" r="4.6"/>
<polygon class="st7" points="368.7,262.6 367,274.5 374.7,275.9 376.7,264.4 "/>
<polygon class="st7" points="377.4,264.2 375.7,276.4 383.1,278.1 385.4,266.9 "/>
<path class="st7" d="M402.9,276.1c0,0-3,3.8-6.1,1.7c-3.2-2.1-0.6-6-0.6-6L402.9,276.1z"/>
<path class="st7" d="M393.8,270.3l-7.1-2.9c0,0-3.4,3.6,0.9,6.9C391.9,277.8,395.5,272.5,393.8,270.3z"/>
<path class="st15" d="M403.9,277.2c0,0-24.4-22.8-72.7-13.4"/>
<path class="st0" d="M324.3,132.5c0,0,6.8-3,16.8,4.7c0,0,6.8-80.5,12.8-106.8c1.9-8.3-19.2-27.4-26.7,0
	c-6.7,24.3-2.8,100.7-2.8,100.7L324.3,132.5z"/>
<path class="st9" d="M328,128.3c0,0,3.8-1.7,9.4,2.6c0,0,3.8-44.9,7.1-59.6c1-4.6-10.7-15.3-14.9,0c-3.7,13.6-1.6,56.2-1.6,56.2
	L328,128.3z"/>
<path class="st0" d="M414.2,142.3c0,0,11.7-5.2,16.2,6.5c0,0,47.6-65.3,66.2-84.7c5.9-6.1-2.2-33.3-22.9-13.9
	c-18.3,17.3-54.6,84.7-54.6,84.7L414.2,142.3z"/>
<path class="st9" d="M423.5,136.3c0,0,5.1-1.2,7.6,5.1c0,0,25.4-34.9,35.4-45.3c3.2-3.3-1.2-17.8-12.2-7.4
	c-9.8,9.2-29.2,45.3-29.2,45.3L423.5,136.3z"/>
</svg>
