<?xml version="1.0" encoding="utf-8"?>
<!-- Generator: Adobe Illustrator 19.1.0, SVG Export Plug-In . SVG Version: 6.00 Build 0)  -->
<svg version="1.1" id="Layer_1" xmlns="http://www.w3.org/2000/svg" xmlns:xlink="http://www.w3.org/1999/xlink" x="0px" y="0px"
	 viewBox="489 -149.8 1459.1 911.8" style="enable-background:new 489 -149.8 1459.1 911.8;" xml:space="preserve">
<style type="text/css">
	.st0{fill:#7DB6BF;}
	.st1{fill:#436A8D;}
	.st2{fill:#6BA0A5;}
	.st3{fill:#9E6D30;}
	.st4{fill:#A6DCE8;}
	.st5{fill:#F3FAFC;}
	.st6{fill:#1A1F36;}
	.st7{fill:#FFFFFF;}
	.st8{fill:#072526;}
	.st9{fill:#08383A;}
	.st10{fill:#63AFAF;}
	.st11{fill:#6BA2A7;stroke:#08383A;stroke-width:0.811;stroke-miterlimit:10;}
	.st12{fill:#407F82;stroke:#407F82;stroke-width:0.811;stroke-miterlimit:10;}
	.st13{fill:#1E6468;stroke:#08383A;stroke-width:0.811;stroke-miterlimit:10;}
	.st14{fill:#C795C3;stroke:#407F82;stroke-width:0.811;stroke-miterlimit:10;}
	.st15{fill:#407F82;}
	.st16{fill:#C795C3;}
	.st17{fill:#603F19;}
	.st18{fill:#F68921;}
	.st19{fill:#F57F20;}
</style>
<g>
	<path class="st0" d="M1319.7,307.4c5.3,3.8,25.9,58.3,25.9,58.3s-0.3,6.2-5.2,6.6c-4.9,0.3-1.4-5.8-1.4-5.8s-9.7,5.4-9.1-2.7
		c0,0-11.8,3.3-4.3-8.2l-26.5-38.7c-2.1-3.1-2.7-7.1-1.5-10.6C1299.5,301,1304.8,296.6,1319.7,307.4z"/>
	<path class="st0" d="M1120.5,402.8l2.4,25.2c0,0-10.3,9.4-15.3,3.4s1.2-6.6,1.2-6.6s-19.5,1.4-11.5-8.2c0,0-12.1-10-0.2-11.1
		c0,0-10.2-13.3,5.4-13.6c0,0,4.6-17.3,16.2-2.7L1120.5,402.8z"/>
	<path class="st1" d="M1314.6,278c0-0.4-0.1-1.1-0.2-2.1c0,0,0,0,0,0"/>
	<path class="st2" d="M1199,493.7c0,0,30.6,2.9,43.2-0.5c0,0,5.3,13.2-1.6,24.7c0,0-1.1,3.6,4.4,3.2c5.5-0.4,16.8-0.1,22.4,3.7
		s25.1,4.3,25.2-3.8c0.1-8.1-12-7.1-13.9-7.1c-1.9,0-26.6-1.7-26.6-1.7s-3.7-5.6,4.8-11.5c8.5-5.9,25.2-15.6,25.6-20
		c0.4-4.4-0.7-6.5-0.7-6.5l-73.9-10.8L1199,493.7z"/>
	<path class="st3" d="M1223,208.3c0,0-0.2,0.2-0.4,0.4c-0.1,0.1-0.3,0.2-0.4,0.3C1222.6,208.6,1222.9,208.3,1223,208.3z"/>
	<path class="st2" d="M1157.1,187.2 M1314.4,275.9c-0.5-4.5-2.9-12.9-1.4-18.3c6.4,2.9,1-1.1,4.5-3c0.7-0.1,1.4-0.2,2.1-0.2
		c-0.6,7.6,6.4,8.4,6.4,8.4c-1.9-5.5-0.4-8.1,0.9-9.3c0.5-0.1,0.9-0.1,1.3-0.2c-1.2,3.8,3.1,6.7,3.1,6.7c-0.1-3.7,1.9-4.4,3.8-4.2
		c2.4,5.6,11.2,5.1,11.2,5.1c-2.8,0,3.2-19.4,3.2-19.4c8.3-1.6,24.5-29.7,24.5-29.7c2,4,11.5,3.6,11.5,3.6
		c-5.1-4.4-6.7-13.1-6.7-13.1c2.4-18.2-4-33.8-4-33.8l13.9-2l-13.9-9.4c8.7,0.9,15-2.3,15-2.3c-13.6,0.7-25-6.9-25-6.9
		c-8.7-12-18.3-19.9-26.4-25c3-0.5,5.4-1.7,5.4-4.5c0,0-3.2,2.6-9.5,2c-8.5-4.7-14.4-6.1-14.4-6.1c2.1-2.5,14.3-2.5,14.3-2.5
		c-6.8-5.4-21.3-0.9-21.3-0.9c-0.5-4.8,10-10.5,10-10.5c-7.9-2-14.1,5.5-14.1,5.5s-5.5-22-4.8-14.3c0.7,7.7-4.3,12.3-4.3,12.3
		c-3.8-0.4-7.5-11.8-7.5-11.8l0.5,12.5l0.1,2.4c-0.2-1-0.6-1.9-1.2-2.6c-4.7-6.4-20.2-4.5-20.2-4.5c2.1,0,4.7,1.1,7.1,2.5
		c-4.6-0.5-9.4-1.4-14.6-0.9c-9.6,0.9-20.8,4.6-37.8,8.6c-18.3,4.3-31.3,17.8-31.3,17.8s-15.5,14.2-24,34.1c0,0-0.5,0.8-1,2.3
		l-32.4,89.2c0,0-20.4,51.6-28.5,98.6c-1.1,6.3-1.5,12.7-1.3,19.1c0.8,20.9,4.9,69.3,26.2,90.3c5.8,5.7,27.2,22.8,32.4,22.8
		c0,0,6.3,14.8,1.7,28.8c0,0-1.9,7.8-4.3,10.4c0,0-2.6,3.1,0.9,5.4c0,0,2,1.9,9.6-0.2c7.6-2,21,3.6,21,3.6s25.5,7.2,31.6-1.7
		c6.1-8.9-16.5-9.7-16.5-9.7l-32.5-2c0,0-3.7-8.7,2.3-13.2c0,0,12.6-14.5,21.3-11.7c0,0,17.6,2.1,15.9-25.3
		c31.6,21,64.4,5.6,64.4,5.6S1341.6,389.9,1314.4,275.9 M1177.1,133 M1198.6,112 M1145.6,207.3c-0.1,0.1-0.3,0.2-0.4,0.3
		c0.3-0.2,0.5-0.4,0.7-0.5C1145.8,207.2,1145.7,207.3,1145.6,207.3z"/>
	<path class="st0" d="M1356.7,173.1c6.3,10,11,17.3-6.2,46c-17.3,29-42.8,15.1-42.8,15.1s-16.5-12.7-38.3-5.8c-21.7,7-34,7-42.1-7
		c-8.1-13.9-5.5-36.3,5.5-49.4c11-13,22.2-26.9,52.5-20.6c5.7,1.2,9.1,2.7,20.4,10.9c11.3,8.2,27,4.2,36,3.3
		C1346,165.4,1352.3,166.2,1356.7,173.1z"/>
	<path class="st2" d="M1324.9,171.2l1,3.9c0,0,19.3-2.8,23.7,14.6C1349.6,189.7,1352.6,168.7,1324.9,171.2z"/>
	<path class="st2" d="M1291.4,162.5l-2.8,3.4c0,0-15.4-12.8-28.8,2.1C1259.9,168.1,1265.9,148.5,1291.4,162.5z"/>
	<path class="st0" d="M1271.3,113.7l9.7,1.6c0,0,2.9-52.9,3.5-61.5c0.4-6.4-7.6-11.3-11-7.4C1269.9,50.3,1264,58.6,1271.3,113.7z"/>
	<path class="st4" d="M1272.7,113.6l6.8,1.1c0,0,2-36.9,2.4-42.9c0.3-4.5-5.3-7.9-7.7-5.1C1271.8,69.4,1267.7,75.1,1272.7,113.6z"/>
	<path class="st0" d="M1312.3,116.7l9.2,3.3c0,0,12.7-51.5,14.8-59.8c1.6-6.2-5.4-12.5-9.5-9.3
		C1322.8,54.2,1315.5,61.2,1312.3,116.7z"/>
	<path class="st4" d="M1313.8,116.8l6.4,2.3c0,0,8.9-35.9,10.3-41.7c1.1-4.4-3.7-8.7-6.6-6.5C1321.1,73.3,1316,78.1,1313.8,116.8z"
		/>
	<g>
		<circle class="st5" cx="1331" cy="192.9" r="15.1"/>
		<circle class="st6" cx="1330.3" cy="193.1" r="6.4"/>
		<path class="st4" d="M1316,194c0,0,19.4,0,28,7c0,0-5.8,8.9-16.1,6.6C1318.4,205.5,1316,197.4,1316,194z"/>
	</g>
	<g>
		<circle class="st5" cx="1275.3" cy="182.1" r="15.1"/>
		<circle class="st6" cx="1274.7" cy="182.5" r="6.4"/>
		<path class="st4" d="M1260.7,186.3c0,0,18.6-3.6,28.7,1.5c0,0-3.8,9.4-13.9,9.3C1265.5,197.1,1261.4,189.6,1260.7,186.3z"/>
	</g>
	<path class="st2" d="M1284.3,196.1c-0.9-4.6,5-7.3,7.9-3.7c1.6,1.9,4.4,4.4,8.9,4.9c5.6,0.7,9.2-0.8,10.7-1.9
		c1.8-1.4,2.7-0.7,3.6-0.7c1.1,0.1,3.8,4,2.6,7.1c-2.3,5.5-8.7,6.3-14.1,6c-11.6-0.7-18.3-6.2-19.5-11.5
		C1284.3,196.2,1284.3,196.2,1284.3,196.1z"/>
	<path class="st4" d="M1291.4,194.8c0,0,3,5,10.8,6.1c5.6,0.8,8.4-0.8,9.6-1.7c0.7-0.6,1.6-1,2.6-0.9c1.1,0.1,2.1,0.7,0.9,2.9
		c-2,4-8.3,4.4-13.7,3.8c-5.3-0.6-12.9-4.6-14.3-8.6S1290.5,192.8,1291.4,194.8z"/>
	<polygon class="st7" points="1298.4,199.9 1298.4,202.7 1300.6,203 1300.9,200.7 	"/>
	<polygon class="st7" points="1301.6,200.8 1301.6,203.1 1303.6,203.1 1303.7,201 	"/>
	<path class="st7" d="M1295.5,198.5l2.2,1.2c0,0-0.2,1.3-1.9,0.9C1294.2,200.2,1295.5,198.5,1295.5,198.5z"/>
	<path class="st7" d="M1292.8,196.5l2.1,1.6c0,0-0.2,1.3-1.9,0.9C1291.3,198.5,1292.8,196.5,1292.8,196.5z"/>
	<path class="st7" d="M1291,194.1l1.5,2.2c0,0-0.6,1.2-2,0.3C1289,195.6,1291,194.1,1291,194.1z"/>
	<path class="st7" d="M1310.8,199.8l1.8-1.2c0,0,1.5,1,0.2,2.1C1311.5,201.8,1310.8,199.8,1310.8,199.8z"/>
	<path class="st7" d="M1307.6,200.9l2.5-0.8c0,0,1,0.9-0.3,2C1308.5,203.2,1307.6,200.9,1307.6,200.9z"/>
	<path class="st7" d="M1304.6,201.1l2.6-0.1c0,0,0.7,1.2-0.9,1.9C1304.8,203.6,1304.6,201.1,1304.6,201.1z"/>
	<path class="st4" d="M1307.6,193.5c-0.5,2-2.3-0.5-5.1-1.2c-2.8-0.6-5.5,0.8-5.1-1.2c0.5-2,3.1-3.1,5.9-2.4
		C1306.2,189.4,1308.1,191.5,1307.6,193.5z"/>
	<circle class="st2" cx="1299.7" cy="191.1" r="0.2"/>
	<circle class="st2" cx="1305.8" cy="192" r="0.2"/>
</g>
<g id="K9069P_1_">
	<g>
		<path class="st8" d="M1269.1,358.8c5-3.1,9.9-6.2,14.8-9.4c2.3-1.5,4.7-1.7,7-0.3c0.4,0.3,0.7,0.2,1-0.1c2.7-1.7,5.3-3.4,8-5.1
			c0.4-0.2,0.5-0.6,0.6-0.9c1-2.7,2.5-4.7,5.6-5.4c2.3-0.5,4.5-1.6,6.7-2.4c0.6-0.2,0.9-0.1,1.2,0.4c0.6,1,1.1,1.9,1.8,2.8
			c0.4,0.5,0.4,0.8-0.1,1.2c-2.5,2.4-5,4.8-7.4,7.3c-0.4,0.4-0.7,0.4-1.1,0.4c-3.3-0.4-6,0.8-8.5,2.7c-1.3,1-2.7,1.7-4.1,2.6
			c-0.5,0.3-0.8,0.6-0.7,1.3c0.2,2.5-0.9,4.4-2.9,5.7c-10.1,6.4-20.3,12.8-30.3,19.1c-2.6,1.7-5.9,1.3-8-0.7
			c-2.1-2.1-2.4-5.3-0.9-7.7c0.6-1,1.4-1.6,2.3-2.1C1259.2,365.1,1264.1,362,1269.1,358.8z"/>
		<path class="st8" d="M1271,360.7c4.8-3,9.6-6,14.4-9.1c0.7-0.5,1.5-1.1,2.2-0.2c0.5,0.6,0.1,1.4-1.1,2.1
			c-9.6,6.1-19.3,12.2-28.9,18.2c-0.7,0.5-1.6,1.1-2.3,0.1c-0.6-0.9,0.3-1.5,1.1-2C1261.2,366.9,1266.1,363.9,1271,360.7z"/>
		<path class="st8" d="M1274.7,366.9c-4.8,3-9.6,6.1-14.5,9.1c-0.8,0.5-1.6,1.1-2.2,0.1c-0.6-0.9,0.4-1.5,1-2
			c9.6-6.1,19.3-12.2,28.9-18.2c0.2-0.1,0.3-0.3,0.5-0.3c0.7-0.3,1.4-0.6,1.9,0.2c0.5,0.8-0.2,1.3-0.8,1.7
			C1284.5,360.6,1279.6,363.7,1274.7,366.9z"/>
	</g>
</g>
<path class="st0" d="M1253.4,307.4c5.3,3.8,25.9,58.3,25.9,58.3s-0.3,6.2-5.2,6.6c-4.9,0.3-1.4-5.8-1.4-5.8s-9.7,5.4-9.1-2.7
	c0,0-11.8,3.3-4.3-8.2l-26.5-38.7c-2.1-3.1-2.7-7.1-1.5-10.6C1233.2,301,1238.5,296.6,1253.4,307.4z"/>
<g id="_x35_8JQqv.tif">
	<g>
		<path class="st9" d="M1272.9,116.6c0.4,1,1.2,1.6,2.1,2.1c1.9,1.1,4,1.8,6.2,2.2c2.5,0.4,4.9,0.8,7.4,1.1c0.3,0.1,0.4,0.1,0.6,0.2
			c3.4,1.6,6.9,3.1,10.4,4.3c1.1,0.4,2.3,0.6,3.6,0.6c2.5-0.1,4.8-0.5,7.2-1.2c3.1-0.9,6.3-1.8,9.4-2.8c1.3-0.4,2.4-0.9,3.5-1.7
			c0.3-0.3,0.6-0.6,0.8-0.9c0.3-0.6,0.2-1.1-0.4-1.6c-1.4-1.1-2.8-2.3-4.2-3.5c-0.5-0.4-1-0.8-1.4-1.3c-0.3-0.3-0.4-0.6-0.4-0.9
			c-0.2-1.2-0.4-2.3-0.5-3.5c-0.3-1.5-0.4-3-0.7-4.5c-0.8-3.7-2.2-7.1-4.6-10.1c-3.1-3.8-7-6.2-11.9-7c-1.8-0.3-3.7-0.7-5.6-0.6
			c-3,0.1-5.7,0.9-8.2,2.5c-3.3,2-6.1,4.7-8,8.1c-1.3,2.5-2.3,5-2.7,7.8c-0.3,1.7-0.4,3.5-0.6,5.2c-0.1,0.6,0,1.1-0.1,1.7
			c-0.1,0.9-0.8,1.5-1.4,2.1c-0.1,0.1-0.3,0.2-0.4,0.3C1272.6,115.8,1272.6,115.9,1272.9,116.6z M1300.2,92.7c1.9,2,3.3,4.2,4.3,6.6
			c2.4,5.3,3.6,10.9,3.6,16.9c0,0.3,0.1,0.6,0.1,0.9c-0.1,0-0.2,0.1-0.3,0.1c-2.8,0.6-5.5,0.9-8.3,1c-3.3,0.2-6.7,0.1-10.1-0.2
			c-2.8-0.3-5.5-0.6-8.3-1.4c-1.6-0.4-3.3-1-4.7-2c-0.7-0.5-1.3-1.1-1.3-2.1c0-0.4,0-0.9,0.1-1.4c0.1-1.3,0.2-2.7,0.4-4.1
			c0.3-2.3,1-4.5,1.9-6.5c1.2-2.9,3-5.3,5.3-7.4c0.9-0.8,1.9-1.5,3.1-1.9c1.1-0.4,2.1-1,3.2-1.4c1.6-0.6,3.3-0.7,5-0.4
			C1296.7,89.7,1298.6,91,1300.2,92.7z M1297.6,89.3c2.4,0.9,4.2,2.5,5.9,4.5c1.9,2.3,3.3,4.9,4.4,7.7c1.8,4.4,2.8,8.9,3.1,13.7
			c0.1,0.9,0.2,1.8,0.3,2.6l0,0l0,0l0,0c-0.4-0.3-0.8-0.6-1.2-0.8c-0.7-0.4-0.9-0.9-0.9-1.7c0-4-0.7-7.8-1.9-11.6
			c-1.1-3.7-2.7-7.2-5.2-10.3c-1.6-2-3.5-3.5-5.9-4.4c-0.1,0-0.1-0.1-0.1-0.1C1296.5,89,1297.1,89.1,1297.6,89.3z M1316.3,106.6
			c-1.3-3.8-3.2-7.2-5.7-10.4c-2.5-3.1-5.5-5.7-9.2-7.3C1310.4,91.2,1315.2,99,1316.3,106.6z M1317.6,116.7
			c-1.8,0.6-3.5,1.2-5.3,1.8c-0.3-0.7-0.6-1.4-0.6-2.1c-0.1-3-0.5-5.8-1.1-8.7c-0.9-4.1-2.3-7.9-4.5-11.5c-1.3-2-2.6-3.9-4.5-5.4
			c-0.9-0.7-1.8-1.3-2.6-1.9l0,0c0,0,0.1,0,0.1,0.1c3.1,0.9,5.7,2.5,8.1,4.7c3.3,3,5.7,6.6,7.5,10.7c1.3,3.1,2.2,6.4,2.4,9.8
			c0,0.6,0.2,1.1,0.4,1.6C1317.4,116.1,1317.5,116.4,1317.6,116.7z M1318.3,116.3c-0.1-0.3-0.3-0.6-0.4-1
			C1318.6,115.7,1318.7,115.8,1318.3,116.3z M1291.1,122.3c0-0.1,0-0.1,0.1-0.1c1.1,0.1,2.3,0.1,3.4,0.1c4.4,0.1,8.7-0.2,13.1-0.9
			c2.6-0.4,5-0.9,7.4-1.9c1.7-0.7,3.3-1.4,4.3-3.2c1.3,1.1,2.6,2.2,3.9,3.3c0.4,0.3,0.4,0.6,0,0.9c-0.4,0.4-0.9,0.8-1.5,1
			c-2,1-4,1.6-6.2,2.2c-3.6,1-7.2,2.2-11,2.5c-1.3,0.1-2.7,0.2-4-0.3c-1.3-0.4-2.5-0.8-3.6-1.3
			C1294.9,123.9,1293,123.1,1291.1,122.3z M1273.7,115.9c0.6-0.6,1.2-1.3,1.8-1.9c0.3,0.3,0.6,0.6,1,0.8c0.4,0.3,0.8,0.6,1.3,0.8
			c2.1,1.1,4.3,1.6,6.5,2c3,0.6,6,0.8,9.1,0.9c5.2,0.2,10.4-0.1,15.5-1.2c0.1-0.1,0.4,0,0.5,0.1c0.8,0.6,1.6,1.1,2.5,1.7
			c0.3,0.2,0.4,0.2,0.8,0.1c0.8-0.3,1.6-0.6,2.4-0.9c0.4-0.1,0.8-0.3,1.3-0.4v0.1c-0.1,0.1-0.3,0.1-0.3,0.2
			c-1.1,0.4-2.3,0.9-3.4,1.3c-4.5,1.3-9.1,1.8-13.8,2c-3.4,0.1-6.9,0.1-10.3-0.3c-2.6-0.3-5.2-0.6-7.7-1.3c-1.8-0.4-3.6-1-5.3-2
			c-0.7-0.4-1.4-0.9-1.7-1.6C1273.6,116.3,1273.6,116,1273.7,115.9z"/>
		<path class="st10" d="M1317.9,115.3c0.1,0.4,0.3,0.7,0.4,1C1318.7,115.8,1318.6,115.7,1317.9,115.3z"/>
		<path class="st10" d="M1291.1,122.3c1.9,0.8,3.8,1.6,5.7,2.3c1.2,0.4,2.5,0.9,3.6,1.3c1.3,0.4,2.7,0.4,4,0.3
			c3.8-0.4,7.4-1.5,11-2.5c2.1-0.6,4.2-1.2,6.2-2.2c0.5-0.3,1.1-0.6,1.5-1c0.4-0.3,0.4-0.6,0-0.9c-1.3-1.1-2.6-2.2-3.9-3.3
			c-0.9,1.8-2.6,2.6-4.3,3.2c-2.4,0.9-4.9,1.5-7.4,1.9c-4.3,0.7-8.7,0.9-13.1,0.9C1293.4,122.3,1292.3,122.2,1291.1,122.3
			C1291.1,122.2,1291.1,122.2,1291.1,122.3z"/>
		<path class="st10" d="M1273.6,116.3c0.3,0.8,1,1.3,1.7,1.6c1.6,0.9,3.5,1.5,5.3,2c2.5,0.6,5.2,0.9,7.7,1.3
			c3.4,0.3,6.9,0.4,10.3,0.3c4.7-0.2,9.3-0.6,13.8-2c1.1-0.3,2.3-0.8,3.4-1.3c0.1-0.1,0.3-0.1,0.3-0.2V118c-0.4,0.1-0.8,0.3-1.3,0.4
			c-0.8,0.3-1.6,0.6-2.4,0.9c-0.3,0.1-0.5,0.1-0.8-0.1c-0.8-0.6-1.6-1.1-2.5-1.7c-0.1-0.1-0.4-0.1-0.5-0.1c-5.1,1-10.3,1.3-15.5,1.2
			c-3.1-0.1-6.2-0.4-9.1-0.9c-2.2-0.4-4.5-0.9-6.5-2c-0.4-0.2-0.8-0.5-1.3-0.8c-0.4-0.3-0.7-0.6-1-0.8c-0.6,0.6-1.2,1.3-1.8,1.9
			C1273.6,116,1273.6,116.3,1273.6,116.3z"/>
		<path class="st10" d="M1301.4,89c3.7,1.6,6.7,4.2,9.2,7.3c2.5,3.1,4.4,6.6,5.7,10.4C1315.2,99,1310.4,91.2,1301.4,89z"/>
		<path class="st10" d="M1298.9,89L1298.9,89c0.8,0.6,1.8,1.2,2.6,1.9c1.8,1.5,3.3,3.3,4.5,5.4c2.2,3.6,3.6,7.4,4.5,11.5
			c0.6,2.9,1.1,5.7,1.1,8.7c0,0.7,0.4,1.4,0.6,2.1c1.8-0.6,3.5-1.2,5.3-1.8c-0.1-0.3-0.3-0.6-0.4-0.9c-0.1-0.6-0.3-1.1-0.4-1.6
			c-0.2-3.4-1.1-6.7-2.4-9.8c-1.8-4.1-4.2-7.7-7.5-10.7C1304.7,91.5,1302.1,89.9,1298.9,89C1299,89,1298.9,89,1298.9,89z"/>
		<path class="st10" d="M1296,88.9c0.1,0,0.1,0.1,0.1,0.1c2.4,0.9,4.3,2.5,5.9,4.4c2.5,3,4,6.5,5.2,10.3c1.2,3.8,1.9,7.6,1.9,11.6
			c0,0.8,0.3,1.3,0.9,1.7c0.4,0.3,0.8,0.6,1.2,0.8c-0.1-0.9-0.2-1.8-0.3-2.6c-0.3-4.7-1.3-9.2-3.1-13.7c-1.1-2.8-2.5-5.3-4.4-7.7
			c-1.6-2-3.5-3.5-5.9-4.5C1297.1,89.1,1296.5,89,1296,88.9z"/>
		<path class="st10" d="M1275.4,112.4c0,0.9,0.6,1.6,1.3,2.1c1.4,1,3,1.6,4.7,2c2.7,0.8,5.5,1.1,8.3,1.4c3.3,0.3,6.7,0.4,10.1,0.2
			c2.8-0.1,5.6-0.5,8.3-1c0.1-0.1,0.3-0.1,0.3-0.1c-0.1-0.3-0.2-0.6-0.1-0.9c0-5.9-1.2-11.5-3.6-16.9c-1.1-2.5-2.5-4.7-4.3-6.6
			c-1.6-1.7-3.6-3-6-3.5c-1.7-0.3-3.4-0.2-5,0.4c-1.1,0.4-2.1,1-3.2,1.4c-1.2,0.4-2.2,1.1-3.1,1.9c-2.3,2.1-4.1,4.5-5.3,7.4
			c-0.9,2.1-1.6,4.3-1.9,6.5c-0.2,1.3-0.3,2.7-0.4,4.1C1275.4,111.5,1275.4,111.9,1275.4,112.4z"/>
	</g>
</g>
<g>
	<path class="st11" d="M1341.9,544.9c0,1.5,0,2.8,0,4.3c-0.3,0-0.6,0-0.9,0c-13.9,0-27.8,0.1-41.8-0.1c-1.9,0-3.9-0.6-5.8-1.2
		c-5.4-1.7-10.9-2.4-16.5-2.7c-1.2-0.1-2.4-0.2-3.7-0.2c0,1.4,0,2.7,0,4.1c-10.8,0-21.5,0-32.2,0c0-2.5,0-5,0-7.6
		c0.2,0,0.5-0.1,0.8-0.1c10.2,0,20.4,0,30.7,0c6.6,0,13,0.6,19.5,1.9c5.1,1,10.2,1.5,15.4,1.5c11.1,0,22.1,0,33.3,0
		C1341.1,544.9,1341.5,544.9,1341.9,544.9z"/>
	<path class="st11" d="M1241.2,541.2c0-0.3,0-0.6,0-0.9c0.3,0,0.6,0,1,0c9.7,0,19.5,0,29.3,0c7.4,0,14.7,0.7,21.9,2.1
		c4.6,0.9,9.3,1.2,14,1.2c10.6,0,21.3,0,32,0c0.8,0,1.7,0,2.6,0c0,0.3,0,0.6,0.1,0.8c-0.2,0.1-0.2,0.1-0.2,0.1c-0.2,0-0.3,0-0.4,0
		c-11.5,0-23,0-34.5,0c-5.4,0-10.6-0.6-15.9-1.6c-6.6-1.3-13.2-1.8-19.9-1.8c-9.6,0-19.1,0-28.6,0
		C1242,541.2,1241.7,541.2,1241.2,541.2z"/>
	<path class="st12" d="M1240.6,523.7c0.8,0,1.4,0,1.9,0v-0.1c-0.6-0.1-1.1-0.2-1.7-0.2c-0.1-0.1-0.1-0.2-0.2-0.2
		c0.2-0.2,0.4-0.5,0.6-0.5c4.5,0.4,8.8,1.1,12.7,3.7c3.2,2.2,5.3,5.3,6.4,9c0.4,1.5,0.6,3,1.1,4.5c-0.7,0.2-0.7,0.2-1.2-1.2
		c0,0.4,0.1,0.8,0.1,1.4c-0.4,0-0.7,0-1.1,0c-5.7,0-11.4,0-17,0c-1.3,0-1.3,0-1.5-1.3c-0.6-3.4-0.6-6.9-0.4-10.4
		C1240.4,526.9,1240.5,525.4,1240.6,523.7z"/>
	<path class="st13" d="M1309.8,521.2c0.2-0.2,0.4-0.3,0.6-0.6c1.5,0.7,2.9,1.5,4.5,2.1c3.6,1.5,7.5,2,11.5,2.4
		c2.2,0.2,4.5,0.3,6.7,0.7c5,0.9,9,6.2,8.5,10.8c-0.2,2.1-0.6,4.1-1.1,6.2c-0.1,0.5-0.3,0.6-0.9,0.6c-11.9,0-23.9,0-35.8-0.1
		c-4.6,0-9.2-0.9-13.8-1.7c-4.9-0.9-9.7-1.4-14.6-1.5c-2.7-0.1-5.4-0.1-8-0.1c-0.2,0-0.6,0-0.9,0c0.1-1.9,1-3.3,2.4-4.3
		c1.7-1.2,3.6-2.4,5.4-3.2c6.6-2.9,13.5-4.1,20.8-4.3c3.6-0.1,7.2-0.2,10.9-0.2c2.6,0,4.6-1,6.4-2.8c1-1,0.9-1.6-0.3-2.2
		c-0.6-0.3-1.3-0.6-1.9-1.1c-0.2-0.1-0.2-0.4-0.4-0.6C1309.7,521.3,1309.7,521.2,1309.8,521.2z"/>
	<path class="st12" d="M1276.8,484.2c0.7-0.1,1.2-0.1,1.9-0.1c0,2.3,0,4.5,0,6.9c-0.6,0-1.3,0-1.9,0
		C1276.8,488.7,1276.8,486.5,1276.8,484.2z"/>
	<path class="st12" d="M1276.5,493.3c0.8-0.1,1.5-0.1,2.1-0.2c0.1,1,0.2,1.9,0.2,2.8c0,0.1,0,0.2,0,0.3c0.1,0.6,0.5,1.5,0.2,1.8
		c-0.4,0.6-1.2,0.7-1.9,1.1C1276.4,497.3,1276.6,495.4,1276.5,493.3z"/>
	<path class="st12" d="M1283.5,504.2c-0.2,0.4-0.6,0.8-0.9,1.4c-1.7-1.2-3.5-2.3-4.5-4.2c0.7-0.4,1.5-0.7,2-1
		C1281.2,501.6,1282.2,502.9,1283.5,504.2z"/>
	<path class="st12" d="M1274.5,478.4c1.3-0.2,2.4-0.3,3.4-0.3c0.2,0,0.6,0.4,0.6,0.6c-0.2,0.6-0.3,1.4-0.7,1.6
		c-0.5,0.3-1.3,0.5-1.9-0.4C1275.7,479.3,1275.1,479,1274.5,478.4z"/>
	<path class="st12" d="M1276.8,481.2c-0.1-0.2-0.1-0.4-0.2-0.6c1.6-0.2,1.9-0.5,2-1.9c0.1-0.7-0.2-1.1-0.9-1
		c-0.9,0.1-1.9,0.2-2.8,0.3c-0.6,0.1-1.1,0-1.7,0c0-0.2,0-0.2,0-0.4c1.5-0.2,3.1-0.5,4.6-0.6c1.1-0.1,1.4,0.5,1.4,1.5
		C1279.4,480.3,1278.7,481,1276.8,481.2z"/>
	<path class="st12" d="M1285,505.7c0.2-0.2,0.3-0.2,0.5-0.4c2.1,1.3,4.1,2.6,6.2,4c-0.1,0.2-0.2,0.5-0.2,0.7
		c-0.1,0.1-0.2,0.2-0.3,0.3c-0.2,0.5-0.6,0.5-1.1,0.2c-1.7-1.1-3.5-2.2-5.3-3.3c-0.2-0.2-0.4-0.4-0.6-0.6
		C1284.5,506.3,1284.8,506.1,1285,505.7z"/>
	<path class="st12" d="M1293.4,510.9c0.2-0.1,0.5-0.2,0.6-0.2c2,1.2,4.1,2.4,6.1,3.6c-0.3,0.5-0.6,0.9-0.9,1.3
		c-2-1.2-4.1-2.4-6.1-3.6c-0.2-0.1-0.2-0.3-0.3-0.5C1292.9,511.4,1293.2,511.2,1293.4,510.9z"/>
	<path class="st12" d="M1301.3,516.3c0.1-0.1,0.2-0.2,0.2-0.2c0.2-0.2,0.3-0.2,0.5-0.4c2.1,1.2,4.2,2.5,6.3,3.7
		c-0.3,0.4-0.6,0.8-0.9,1.3c-0.9-0.5-1.7-1-2.6-1.5c-1.1-0.6-2.2-1.3-3.2-1.9C1301.2,517,1301.1,516.8,1301.3,516.3z"/>
	<path class="st9" d="M1280,491.7c0,0.1,0.1,0.2,0.1,0.3c0,0,0,0,0,0.1l0,0c0,0.1,0,0.1,0,0.2c0,0.5-0.4,0.8-1.3,0.8
		c-1.7,0.1-3.5,0.1-5.2,0.2c-0.6,0-1.2-0.1-1.3-0.9c0-0.7,0.6-0.9,1.1-1c1.8-0.1,3.6-0.2,5.4-0.2c0.1,0,0.2,0,0.3,0
		c0.1,0,0.2,0,0.2,0.1c0,0,0,0,0.1,0 M1279.1,490.8v-6.7c0.2-0.1,0.5-0.2,0.7-0.3c-2,0.1-4,0.2-6,0.2c-0.2,0-0.3,0-0.5,0h-0.1
		c-0.1,0-0.2,0-0.2,0l0,0c-0.1,0-0.2,0-0.2-0.1c-0.1,0-0.1,0-0.2,0l0,0l0,0c0.2,0.2,0.2,0.4,0.3,0.5c-0.7,0.1-1.3-0.3-1.3-1.1
		c-0.1-0.6,0.4-1.2,1.3-1.3c-0.2,0.3-0.6,0.6-0.6,0.9c0,0.1,0,0.1,0,0.2c0,0,0,0,0,0.1c0,0,0,0,0,0.1v0.1l0,0c0,0,0,0,0,0.1
		c0,0,0,0,0,0.1l0,0c0,0,0,0.1,0.1,0.1c0.1,0.1,0.1,0.2,0.2,0.3v0.1l0,0c-0.1-0.2-0.2-0.4-0.2-0.6v-0.1c-0.1-0.6,0.2-0.9,1.2-1
		c1.8-0.1,3.6-0.2,5.4-0.2c0.4,0,0.7,0.2,1.1,0.3c-0.3-0.2-0.7-0.5-1.2-0.8c0.1-0.3,0.2-0.8,0.4-1.2c0.7-1.5,0.5-2.7-0.6-3.5h-2.4
		c-1.7,0.3-3.3,0.8-5.1,0.6c-2.6-0.2-5.3,0-7.8,0.3c-3.7,0.5-7.5,1.3-11.2,1.8c-1.7,0.2-3.5,0.3-5.2,0.3c-1.9,0-3.2,1.1-3.2,2.9
		c0,0.9,0,1.8,0,2.8c-0.4,0-0.9,0.1-1.4,0.1v11.2c0.6,0,1.1,0.1,1.6,0.1c-0.1,2.3-0.2,4.5-0.3,6.7h-1.6c-0.1,1.3-0.2,2.6-0.3,4
		c-0.2,2-0.4,4.1-0.6,6.2c-0.1,1.1-0.2,1.1,0.9,1.1c0.2,0,0.3,0.1,0.6,0.2c-0.4,2.4-0.8,4.8-1.2,7.1c-0.4,0.1-0.6,0.1-0.9,0.1
		c-0.1,0.7-0.2,1.5-0.3,2.2c-0.2,1.1-0.2,2.3-0.3,3.4v7.1c0.1,0.7,0.2,1.4,0.3,2.1c0.6,2.4,0.7,4.9,0.6,7.5c-0.1,1.3,0,2.7,0,4v0.9
		h33.1v-4c0.4,0,0.7,0,1.1,0c2,0.2,4.1,0.3,6.2,0.5c4.2,0.3,8.3,1.1,12.3,2.3c1.9,0.6,3.8,1.2,5.8,1.2c14.1,0.1,28.3,0.1,42.4,0.1
		h0.9v-6.3h-1.9c0.1-0.4,0.2-0.6,0.3-0.9c0.7-2.7,1.4-5.5,0.7-8.3c-1.1-4.5-4-7.6-8.6-8.7c-2.1-0.5-4.4-0.5-6.5-0.7
		c-3.9-0.4-7.8-0.9-11.5-2.4c-1.5-0.6-3-1.4-4.5-2.1c0.9-1.6,0.9-1.8,0.2-2.4v0.1c0.5,0.6,0.4,1.1,0,1.6c-0.3,0.5-0.6,1-0.9,1.5
		c0.2-0.2,0.4-0.3,0.6-0.6c1.5,0.7,2.9,1.5,4.5,2.1c3.6,1.5,7.5,2,11.5,2.4c2.2,0.2,4.5,0.3,6.7,0.7c5,0.9,9,6.2,8.5,10.8
		c-0.2,2.1-0.6,4.1-1.1,6.2c-0.1,0.5-0.3,0.6-0.9,0.6c-11.9,0-23.9,0-35.8-0.1c-4.6,0-9.2-0.9-13.8-1.7c-4.8-0.9-9.7-1.4-14.6-1.5
		c-2.7-0.1-5.4-0.1-8-0.1c-0.2,0-0.6,0-0.9,0c0.1-1.9,1-3.3,2.4-4.3c1.7-1.2,3.6-2.4,5.4-3.2c6.6-2.9,13.5-4.1,20.8-4.3
		c3.6-0.1,7.2-0.2,10.9-0.2c2.6,0,4.6-1,6.4-2.8c1-1,0.9-1.6-0.3-2.2c-0.6-0.3-1.3-0.6-1.9-1.1c-0.2-0.1-0.2-0.4-0.4-0.6
		c-0.2,0.2-0.3,0.5-0.5,0.7c1.1,0.6,2.2,1,3.2,1.6c0.6,0.4,0.1,0.9-0.2,1.2c-1.8,1.8-3.9,2.7-6.4,2.7c-3.7,0-7.5,0.1-11.2,0.2
		c-7.6,0.2-14.9,1.6-21.8,4.9c-1.4,0.6-2.7,1.5-3.9,2.4c-1.5,1.1-2.6,2.7-2.8,4.9c-0.4-0.1-0.8-0.2-1.1-0.2
		c-0.3,0.1-0.7,0.2-1.1,0.2c-2.1,0-2,0-2.4-2c-1.5-8.2-6.5-13.3-14.9-14.9c-1.5-0.3-3.1-0.5-4.6-0.7c0.4-2.4,0.8-4.7,1.2-7.1
		c1.1-0.2,1.3-0.2,1.7,0.9c0.3,0.9,1.4,1.6,2.3,1.5c1.1-0.1,2-0.8,2.3-1.9c0.2-1.4,0.3-2.7,0.5-4.1c0.2-2.2,0.5-4.5,0.7-6.7
		c0.1-1.1-0.2-2-1.2-2.6c-0.9-0.5-1.7-0.4-2.4,0.2c-0.4,0.3-0.6,0.8-1.1,1.3c-0.4-0.1-1-0.1-1.5-0.2c0.1-2.4,0.2-4.5,0.2-6.9h1.2
		c0.3,0.6,0.6,1.1,1.1,1.5c0.6,0.6,1.5,0.8,2.3,0.4c0.9-0.4,1.5-1.1,1.5-2.1c0-3.7,0-7.4,0-11.1c0-1.1-0.9-2.1-2-2.2
		c-1.3-0.2-2.2,0.5-2.8,2h-1.6c0-1.2-0.1-2.4,0-3.5s1.3-1.9,2.4-1.9c3.3,0.3,6.5-0.3,9.7-1c4.7-1,9.5-1.5,14.4-1.5
		c1.7,0,3.3,0.6,4.6,1.8c0.7,0.6,1.3,1.3,1.3,2.4c-0.4,0-0.7,0-1.1,0.1c-0.1-0.4-0.1-0.7-0.2-1.1h-0.1c0,0.3,0,0.6-0.1,1.1
		c-0.2-0.1-0.5-0.2-0.6-0.2l0,0l0,0c-0.3,0-0.6,0.1-1,0c-0.7-0.2-1.4-0.1-1.8,0.5s-0.4,1.2,0,1.7c0.5,0.6,1.1,0.7,1.9,0.4
		c0.2-0.1,0.6-0.2,0.9-0.3c-0.1,0.2-0.1,0.4-0.2,0.6l0,0l0,0c0.2-0.2,0.5-0.3,0.8-0.6c0.1,0.6,0.1,1.1,0.2,1.7c0.1,0,0.1,0,0.2,0
		V484h1v6.8c-0.5,0-0.8,0.1-1.2,0.1c0-0.5,0.1-0.8,0.1-1.2c-0.1,0-0.1,0-0.2,0c-0.1,0.4-0.1,0.7-0.2,1.3c-0.7-0.8-1.5-1.3-2.5-1.1
		c-0.5,0.2-1,0.4-1.2,0.8c-0.8,0.9-0.6,2.1,0.2,2.9c1,1,2.1,0.9,3.5-0.2c0.1,0.4,0.1,0.8,0.2,1.2c0.1,0,0.1,0,0.2,0v-1.4h1.1
		c0,0.6-0.1,1.1,0,1.8c0.2,1.5,0.4,3,0.6,4.5c0.9-0.4,1.7-0.8,2.6-1.2c0.6-0.2,1.1-0.3,1.5,0.3c0.3,0.6-0.1,1-0.6,1.3
		c-1.6,0.8-3.3,1.6-4.9,2.4c-0.6,0.2-1.1,0.3-1.4-0.2c-0.3-0.6,0-1.1,0.6-1.4c0.7-0.3,1.5-0.7,2.3-1.1c-0.2,0-0.5,0.1-0.8,0.1
		c-0.1-0.2-0.2-0.6-0.3-0.9c-0.1,0-0.1,0-0.1,0c0.1,0.3,0.2,0.6,0.2,1.2c-1-0.4-1.9-0.7-2.8,0.1c-0.4,0.4-0.7,0.9-0.9,1.4
		c-0.3,1,0.5,2.1,1.5,2.5c1.2,0.5,2.3-0.2,3.1-1.9c0.3,0.5,0.6,0.9,0.9,1.3c0.1,0,0.1-0.1,0.2-0.1c-0.2-0.4-0.6-0.9-0.9-1.4
		c0.3-0.2,0.6-0.3,0.9-0.5c1.1,1.8,2.7,2.8,4.2,4c0.4,0.2,0.4,0.5,0.2,0.9l0,0l0,0c0.7-1,1.4-1.9,2.1-2.9c-0.4,0.3-0.8,0.2-1.1-0.2
		c-0.9-1-1.8-2-2.6-2.9c1-1.3,0.7-1.9-0.6-2.4c-0.2-0.1-0.3-0.2-0.4-0.4c-0.2-1.5-0.4-2.9-0.6-4.3c0.2,0.1,0.2,0.1,0.4,0.2
		c0.3-0.4,0.8-0.6,1.1-1.1 M1273.6,503.9c-1.1-0.3-1.8-1.5-1.5-2.5c0.3-1,1.5-1.9,2.9-1.1c-0.5,0.1-0.7,0.2-1.1,0.2
		c-0.7,0.1-1.2,0.5-1.4,1.2c-0.1,0.7,0.2,1.2,0.7,1.5c0.6,0.3,1.3,0.2,1.7-0.3c-0.1,0-0.2,0-0.3,0.1c-0.8,0.4-1.5,0.2-1.9-0.4
		c-0.4-0.6-0.2-1.2,0.7-1.8c-0.1,0.2-0.2,0.4-0.2,0.5c-0.3,0.8,0.1,1.5,0.9,1.6c0.2,0,0.5,0,0.7,0l0,0c0.2-0.2,0.5-0.4,0.8-0.6
		C1275.8,503.5,1274.7,504.2,1273.6,503.9z M1283.5,504.2c-0.2,0.4-0.6,0.8-0.9,1.4c-1.7-1.2-3.5-2.3-4.5-4.2c0.7-0.4,1.5-0.7,2-1
		C1281.2,501.6,1282.2,502.9,1283.5,504.2z M1278.6,493.3c0.1,1,0.2,1.9,0.2,2.8c0,0.1,0,0.2,0,0.3c0.1,0.6,0.5,1.5,0.2,1.8
		c-0.4,0.6-1.2,0.7-1.9,1.1c-0.8-1.9-0.6-3.9-0.7-5.9C1277.2,493.3,1277.9,493.3,1278.6,493.3z M1272.5,490.8L1272.5,490.8
		L1272.5,490.8h-0.2c-0.2,0.1-0.3,0.2-0.5,0.4l0,0l0,0l0,0c0.2-0.1,0.4-0.1,0.6-0.2c0.1,0,0.2-0.1,0.2-0.1s0.1,0,0.2,0
		c-1.1,1.1-1,1.6,0.2,2.4c-1.2,0.1-1.8-0.7-1.3-1.8c0.1-0.1,0.1-0.2,0.1-0.3l0,0l0,0l0,0c-0.1,0.1-0.2,0.1-0.2,0.2c0,0,0,0-0.1,0.1
		l-0.1,0.1c0,0,0,0,0,0.1c0,0,0,0,0,0.1c0,0,0,0.1-0.1,0.1v0.1c0,0,0,0,0,0.1c0,0,0,0,0,0.1c-0.1,0.2,0,0.6,0.2,0.8
		c0.6,1.5,1.9,0.7,3,0.5c-0.6,0.9-1.3,1.2-2.2,1c-0.8-0.2-1.5-1-1.5-1.8c-0.1-0.9,0.4-1.6,1.3-2c0.8-0.3,1.5-0.1,2.2,0.6
		C1273.7,491.2,1273.1,490.8,1272.5,490.8z M1276.8,484.2c0.7-0.1,1.2-0.1,1.9-0.1v6.9h-1.9V484.2z M1275.9,479.8
		c-0.3-0.5-0.8-0.8-1.5-1.4c1.3-0.2,2.4-0.3,3.4-0.3c0.2,0,0.6,0.4,0.6,0.6c-0.2,0.6-0.3,1.4-0.7,1.6
		C1277.3,480.4,1276.5,480.7,1275.9,479.8z M1277.9,477.2c1.1-0.1,1.4,0.5,1.4,1.5c0,1.6-0.7,2.4-2.6,2.5c-0.1-0.2-0.1-0.4-0.2-0.6
		c1.6-0.2,1.9-0.5,2-1.9c0.1-0.7-0.2-1.1-0.9-1c-0.9,0.1-1.9,0.2-2.8,0.3c-0.6,0.1-1.1,0-1.7,0c0-0.2,0-0.2,0-0.4
		C1274.9,477.5,1276.4,477.3,1277.9,477.2z M1248.4,502.7c1,0.2,1.8,1.1,1.7,2.2c-0.3,3.6-0.7,7.1-1.1,10.8
		c-0.2,1.2-1.1,1.9-2.2,1.9c-1-0.1-1.7-0.9-1.8-1.9c0.1-0.1,0.2-0.2,0.2-0.2c0.2,0.2,0.4,0.3,0.5,0.6c0.3,0.6,0.7,1,1.5,0.8
		c0.7-0.1,1.1-0.6,1.1-1.3c0.4-3.5,0.8-7,1.1-10.5c0-0.4-0.4-1.1-0.7-1.4c-0.5-0.4-1-0.2-1.5,0.2c-0.2,0.2-0.6,0.3-1,0.6
		C1246.6,503,1247.5,502.4,1248.4,502.7z M1246,515.8c0-0.1,0.1-0.2,0.1-0.2c0.6,0.1,1.1,0.1,1.6,0.2c0,0.1,0,0.2,0.1,0.3
		c-0.3,0.1-0.6,0.3-0.9,0.3C1246.6,516.3,1246.3,516,1246,515.8z M1249.1,504.4c-0.6,0-1.1-0.1-1.8-0.1
		C1247.9,503.6,1248.3,503.6,1249.1,504.4z M1248.5,484c1,0.2,1.6,1,1.6,2.2c0,3.5,0,7,0,10.5c0,1.1-0.7,2-1.8,2.2
		c-1,0.2-1.9-0.6-2.3-2c0.4,0.2,0.7,0.3,0.8,0.5c0.4,0.6,0.9,0.9,1.5,0.7c0.7-0.2,1-0.7,1-1.5c0-3.4,0-6.8,0-10.2
		c0-0.7-0.2-1.3-0.9-1.6c-0.6-0.2-1.2,0.1-1.6,0.6c-0.1,0.2-0.4,0.2-0.8,0.4C1246.6,484.3,1247.4,483.8,1248.5,484z M1247.3,497h1.8
		C1248.4,498,1247.8,498,1247.3,497z M1248.9,485.6h-1.5C1247.9,484.8,1248.3,484.8,1248.9,485.6z M1242.7,496.4V486h6.3v10.4
		H1242.7z M1241.4,514.5c0.3-3.5,0.6-6.9,1-10.4c2.2,0.2,4.4,0.5,6.6,0.7c-0.4,3.5-0.7,6.9-1.1,10.4
		C1245.7,514.9,1243.6,514.7,1241.4,514.5z M1240.7,538.8c-0.6-3.4-0.6-6.9-0.4-10.4c0.1-1.5,0.2-3.1,0.3-4.7h1.9v-0.1
		c-0.6-0.1-1.1-0.2-1.7-0.2c-0.1-0.1-0.1-0.2-0.2-0.2c0.2-0.2,0.4-0.5,0.6-0.5c4.5,0.4,8.8,1.1,12.7,3.7c3.2,2.2,5.3,5.3,6.4,9
		c0.4,1.5,0.7,3,1.1,4.5c-0.7,0.2-0.7,0.2-1.2-1.2c0,0.4,0.1,0.8,0.1,1.4h-18C1241,540,1240.9,540,1240.7,538.8z M1341.9,549.2h-0.9
		c-13.9,0-27.8,0.1-41.8-0.1c-1.9,0-3.9-0.6-5.8-1.2c-5.4-1.7-10.9-2.4-16.5-2.7c-1.2-0.1-2.4-0.2-3.7-0.2v4.1h-32.2v-7.6
		c0.2,0,0.5-0.1,0.8-0.1c10.2,0,20.4,0,30.7,0c6.6,0,13,0.6,19.5,1.9c5.1,1,10.2,1.5,15.4,1.5c11.1,0,22.1,0,33.3,0h1.2
		L1341.9,549.2L1341.9,549.2L1341.9,549.2z M1341.7,544.6c-0.2,0-0.3,0-0.4,0c-11.5,0-23,0-34.5,0c-5.4,0-10.6-0.6-15.9-1.6
		c-6.6-1.3-13.2-1.8-19.9-1.8c-9.6,0-19.1,0-28.6,0h-1.2v-0.9h1c9.7,0,19.5,0,29.3,0c7.4,0,14.7,0.7,21.9,2.1
		c4.6,0.9,9.3,1.2,14,1.2c10.6,0,21.3,0,32,0h2.6c0,0.3,0,0.6,0.1,0.8C1341.9,544.5,1341.8,544.6,1341.7,544.6z"/>
	<path class="st14" d="M1285.7,504.5c-0.2,0.4-0.5,0.8-0.7,1.2c-0.2,0.2-0.4,0.6-0.6,0.8c-0.1,0.2-0.2,0.5-0.3,0.7
		c-0.2,0.3-0.4,0.6-0.6,0.9c-0.3,0.4-0.7,0.8-1.1,1.2c-0.4,0.5-0.8,0.9-1.4,0.5c-0.6-0.4-0.5-1-0.1-1.5c0.1-0.2,0.2-0.4,0.3-0.6l0,0
		l0,0l0,0l0,0c0.3-0.5,0.6-1.1,1.1-1.5l0,0l0,0c0.7-1,1.4-1.9,2.1-2.9c0.4,0,0.9-0.1,1.2,0.2
		C1285.6,503.7,1285.6,504.2,1285.7,504.5z"/>
	<path class="st14" d="M1294.1,509.6c-0.2,0.4-0.5,0.8-0.7,1.2c-0.2,0.2-0.4,0.5-0.6,0.8c-0.2,0.2-0.2,0.4-0.4,0.6
		c-0.1,0.1-0.2,0.2-0.2,0.2c-0.5,0.7-1,1.5-1.5,2.2c-0.3,0.4-0.8,0.6-1.3,0.2c-0.5-0.3-0.5-0.8-0.2-1.3c0.2-0.2,0.2-0.5,0.4-0.7l0,0
		l0,0l0,0c0.2-0.4,0.4-0.7,0.6-1.1c0.1-0.1,0.2-0.2,0.3-0.3c0.2-0.4,0.5-0.8,0.7-1.2c0.1-0.1,0.2-0.2,0.3-0.3
		c0.4-0.6,0.8-1.1,1.3-1.6C1294,508.3,1294.3,508.6,1294.1,509.6z"/>
	<path class="st14" d="M1272.5,483.8c-0.4-1.1-0.2-1.5,1.1-1.6c1.8-0.1,3.6-0.2,5.4-0.2c0.4,0,0.7,0.2,1.1,0.3
		c0.4,0.6,0.1,1.1-0.4,1.5c-2,0.1-4,0.2-6,0.2C1273.3,484,1272.9,483.8,1272.5,483.8L1272.5,483.8z"/>
	<path class="st9" d="M1310.7,517.9L1310.7,517.9c-0.8-0.2-1.2,0.2-1.6,0.8c-0.6,1-1.5,1.9-2.1,3l0,0l0,0c0.1-0.2,0.2-0.5,0.3-0.8
		c-2-1.1-4-2.4-5.9-3.4c-0.2-0.1-0.5,0.1-0.8,0.1c0.2-0.4,0.5-0.8,0.8-1.3c-0.2,0.5-0.1,0.7,0.4,1c1.1,0.6,2.2,1.2,3.2,1.9
		c0.8,0.5,1.7,1,2.6,1.5c0.3-0.5,0.6-0.8,0.9-1.3c-2.2-1.3-4.2-2.5-6.3-3.7c-0.2,0.2-0.3,0.2-0.5,0.4c0.2-0.4,0.5-0.7,0.7-1.1h0.1
		c0.1,0.2,0.1,0.5,0.2,0.6c1.9,1.2,4,2.4,5.9,3.5C1309.2,518.6,1309.4,517.1,1310.7,517.9z"/>
	<path class="st9" d="M1298.6,516.7c0.1-0.2,0.2-0.5,0.2-0.7c-1.5-0.9-2.9-1.7-4.4-2.6c-0.6-0.4-1.4-0.7-2-1.1l0,0l0,0
		c0.2-0.2,0.2-0.4,0.4-0.6c0.1,0.2,0.2,0.4,0.3,0.5c2,1.2,4,2.4,6.1,3.6c0.3-0.5,0.6-0.9,0.9-1.3c-2-1.2-4.1-2.4-6.1-3.6
		c-0.2-0.1-0.4,0.1-0.6,0.2c0.2-0.4,0.5-0.8,0.7-1.2c-0.2,0.5,0,0.7,0.5,1.1c1.9,1.1,3.7,2.3,5.6,3.4c0.2-0.2,0.5-0.5,0.7-0.6
		C1300.2,514.5,1299.4,515.6,1298.6,516.7z"/>
	<path d="M1300.9,513.4L1300.9,513.4L1300.9,513.4L1300.9,513.4z"/>
	<path class="st9" d="M1292.8,508.4c-0.4,0.6-0.8,1.1-1.3,1.6c0.1-0.2,0.2-0.5,0.2-0.7c-2.1-1.3-4.1-2.6-6.2-4
		c-0.2,0.1-0.3,0.2-0.5,0.4c0.2-0.4,0.5-0.8,0.7-1.2c0.2,0.2,0.2,0.6,0.4,0.8c1.9,1.3,3.9,2.5,5.8,3.6
		C1292.2,508.8,1292.5,508.6,1292.8,508.4z"/>
	<path class="st15" d="M1300.9,513.4c0.5-0.6,1.1-0.6,1.5-0.1c0.6,0.6,0.5,1.1-0.1,1.7h-0.1c0.2-0.5,0.6-1.1,0-1.5
		C1301.9,513.2,1301.4,513.4,1300.9,513.4L1300.9,513.4z"/>
	<path class="st16" d="M1242.4,504.1c2.2,0.2,4.4,0.5,6.6,0.7c-0.4,3.5-0.7,6.9-1.1,10.4c-2.2-0.2-4.3-0.5-6.5-0.6
		C1241.8,511,1242.1,507.6,1242.4,504.1z"/>
	<path class="st16" d="M1249.1,496.4c-2.1,0-4.1,0-6.3,0c0-3.5,0-6.9,0-10.4c2,0,4.1,0,6.3,0
		C1249.1,489.5,1249.1,492.9,1249.1,496.4z"/>
	<path class="st12" d="M1245.2,515.3c0.2,0.2,0.4,0.3,0.5,0.6c0.3,0.6,0.7,1,1.5,0.8c0.7-0.1,1.1-0.6,1.1-1.3
		c0.4-3.5,0.8-7,1.1-10.5c0-0.4-0.4-1.1-0.7-1.4c-0.5-0.4-1-0.2-1.5,0.2c-0.2,0.2-0.6,0.3-1,0.6c0.5-1.3,1.4-1.9,2.4-1.7
		c1,0.2,1.8,1.1,1.7,2.2c-0.4,3.6-0.7,7.1-1.1,10.8c-0.2,1.2-1.1,1.9-2.2,1.9c-1-0.1-1.7-0.9-1.8-1.9
		C1245.1,515.4,1245.1,515.4,1245.2,515.3z"/>
	<path class="st12" d="M1246.1,485.8c0.5-1.5,1.3-2,2.4-1.9c1,0.2,1.6,1,1.6,2.2c0,3.5,0,7,0,10.5c0,1.1-0.7,2-1.8,2.2
		c-1,0.2-1.9-0.6-2.3-2c0.4,0.2,0.7,0.3,0.8,0.5c0.4,0.6,0.9,0.9,1.5,0.7c0.7-0.2,1-0.7,1-1.5c0-3.4,0-6.8,0-10.2
		c0-0.7-0.2-1.3-0.9-1.6c-0.6-0.2-1.2,0.1-1.6,0.6C1246.8,485.5,1246.6,485.6,1246.1,485.8z"/>
	<path class="st14" d="M1310.6,519.6c-0.3,0.5-0.6,1-0.9,1.5c-0.1,0.1-0.2,0.2-0.2,0.2c-0.2,0.2-0.3,0.5-0.5,0.7
		c-0.1,0.1-0.2,0.2-0.3,0.3c-0.2,0.4-0.5,0.7-0.6,1.1l0,0l0,0l0,0c-0.2,0.2-0.4,0.6-0.6,0.6c-0.3,0.2-0.9,0.4-1.1,0.2
		c-0.2-0.2-0.2-0.7-0.3-1.1c0-0.2,0.2-0.4,0.2-0.6c0.2-0.3,0.5-0.7,0.6-1.1l0,0l0,0c0.7-1,1.5-1.9,2.1-3c0.4-0.6,0.9-1,1.6-0.7
		C1311.1,518.6,1311.1,519,1310.6,519.6z"/>
	<path class="st14" d="M1279,491.2l1.1,0.2c0.6,1.1,0.1,1.5-1.2,1.6c-1.7,0.1-3.5,0.1-5.2,0.2c-0.6,0-1.2-0.1-1.3-0.9
		c0-0.7,0.6-0.9,1.1-1C1275.3,491.3,1277.3,491.2,1279,491.2"/>
	<path class="st14" d="M1280.1,500.1c-1.6,0.8-3.3,1.6-4.9,2.4c-0.6,0.2-1.1,0.3-1.4-0.2c-0.3-0.6,0-1.1,0.6-1.4
		c0.7-0.3,1.5-0.7,2.3-1.1h0.1c0.9-0.4,1.7-0.8,2.6-1.2c0.6-0.2,1.1-0.3,1.5,0.3C1281.1,499.4,1280.7,499.7,1280.1,500.1z"/>
	<path class="st11" d="M1312.3,523.8c-1.1-0.6-2.1-1.1-3.2-1.6c-0.1,0.1-0.2,0.2-0.3,0.3c0,0.5,0,1.1-0.1,1.5
		c-0.1,0.6-0.3,1.1-0.6,1.6c-0.2,0.3-0.3,0.7-0.6,0.8c-0.5,0.2-1.1,0.2-1.5,0.1c-0.9-0.4-1.8-1.1-1.8-2.3c-0.1-0.9,0.6-1.8,1.6-2.2
		c0.3-0.2,0.7-0.2,1.1-0.3c0.1-0.2,0.2-0.5,0.3-0.8c-2-1.1-4-2.4-5.9-3.4c-0.2-0.1-0.5,0.1-0.8,0.1c-0.1,0.1-0.2,0.2-0.3,0.3
		c0,0.6,0,1.1,0,1.7c0,0.8-0.7,1.7-1.5,1.9c-0.9,0.2-1.8,0-2.4-0.7c-0.6-0.8-0.6-1.5-0.2-2.4c0.6-0.6,1.1-1.2,1.9-1.1
		c0.2-0.2,0.3-0.4,0.5-0.6c0.1-0.2,0.2-0.5,0.2-0.7c-1.5-0.9-2.9-1.7-4.4-2.6c-0.6-0.4-1.4-0.7-2-1.1c0,0.4-1,0.9,0,1.3
		c-0.2-0.1-0.4-0.2-0.6-0.2c0,2.4-0.6,3.2-2,3.4c-1.1,0.1-2.2-0.8-2.4-1.8c-0.2-1.4,0.5-2.3,2.4-2.8c-0.6-0.4-1.1-0.7-1.7-1.1
		c0-0.1,0.1-0.1,0.1-0.2c0.4,0.2,0.8,0.5,1.2,0.7c0.2,0.1,0.5,0.1,0.7,0.2c0.1-0.1,0.2-0.2,0.3-0.3c-0.1-0.2-0.2-0.5-0.3-0.6
		c-1.9-1.2-3.8-2.4-5.8-3.6c-0.1-0.1-0.3,0-0.5-0.1c-0.2,0.3-0.4,0.6-0.6,0.9c0,0.3-0.1,0.6-0.1,0.9c0.2,1.2-0.6,2.4-1.8,2.7
		c-1.1,0.2-2.4-0.6-2.6-1.9c-0.2-1.1,0.6-2.3,1.9-2.5c0.5-0.1,0.9-0.2,0.5-0.7c0.2-0.1,0.5-0.2,0.8-0.3c0.2-0.3,0.1-0.6-0.2-0.9
		c-1.5-1.1-3.2-2.2-4.2-4c-0.3,0.2-0.6,0.3-0.9,0.5c0.3,0.5,0.6,1,0.9,1.4c-0.1,0-0.1,0.1-0.2,0.1c-0.3-0.4-0.6-0.9-0.9-1.3
		c-0.9,1.8-1.9,2.4-3.1,1.9c-1-0.3-1.8-1.5-1.5-2.5c0.2-0.5,0.5-1.1,0.9-1.4c0.8-0.7,1.8-0.5,2.8-0.1c-0.1-0.5-0.2-0.9-0.2-1.2
		c0.1,0,0.1,0,0.1,0c0.1,0.3,0.2,0.6,0.3,0.9c0.3,0,0.6-0.1,0.8-0.1h0.1c-0.2-1.5-0.4-3-0.6-4.5c-0.1-0.6,0-1.2,0-1.8h-1.1v1.4
		c-0.1,0-0.1,0-0.2,0c-0.1-0.4-0.1-0.8-0.2-1.2c-1.5,1.1-2.6,1.2-3.5,0.2c-0.8-0.8-0.9-2-0.2-2.9c0.3-0.3,0.8-0.6,1.2-0.8
		c1-0.2,1.8,0.2,2.5,1.1c0.1-0.6,0.1-1,0.2-1.3c0.1,0,0.1,0,0.2,0c0,0.4-0.1,0.7-0.1,1.2c0.4,0,0.7-0.1,1.2-0.1v-6.8h-1v1.5
		c-0.1,0-0.1,0-0.2,0c-0.1-0.6-0.1-1.1-0.2-1.7c-0.4,0.2-0.6,0.5-0.8,0.6l0,0c-0.6,0.6-1.4,0.9-2.2,0.6c-0.9-0.3-1.6-1.4-1.5-2.3
		s0.8-1.9,1.7-2c0.9-0.2,1.7,0.1,2.2,0.8l0,0c0.2,0.1,0.4,0.2,0.6,0.2c0-0.4,0-0.7,0.1-1.1h0.1c0,0.3,0.1,0.6,0.2,1.1
		c0.4,0,0.7,0,1.1-0.1c0.1-1.1-0.5-1.9-1.3-2.4c-1.3-1.1-2.9-1.8-4.6-1.8c-4.8,0-9.6,0.6-14.4,1.5c-3.2,0.6-6.3,1.3-9.7,1
		c-1.1-0.1-2.3,0.8-2.4,1.9c-0.2,1.1,0,2.3,0,3.5h1.6c0.6-1.5,1.5-2.2,2.8-2c1.1,0.2,1.9,1.1,2,2.2c0,3.7,0,7.4,0,11.1
		c0,1.1-0.6,1.7-1.5,2.1c-0.8,0.4-1.7,0.2-2.3-0.4c-0.4-0.4-0.6-1-1.1-1.5h-1.2c-0.1,2.4-0.2,4.5-0.2,6.9c0.6,0.1,1.1,0.1,1.5,0.2
		c0.4-0.5,0.6-1,1.1-1.3c0.7-0.6,1.6-0.7,2.4-0.2c1,0.6,1.4,1.5,1.2,2.6c-0.2,2.2-0.5,4.5-0.7,6.7c-0.2,1.4-0.2,2.7-0.5,4.1
		c-0.2,1.1-1.1,1.8-2.3,1.9c-0.9,0.1-1.9-0.6-2.3-1.5c-0.4-1.1-0.6-1.1-1.7-0.9c-0.4,2.4-0.8,4.7-1.2,7.1c1.5,0.2,3.1,0.4,4.6,0.7
		c8.5,1.6,13.4,6.7,14.9,14.9c0.4,2,0.3,2,2.4,2c0.4,0,0.7-0.2,1.1-0.2c0.3,0.1,0.7,0.2,1.1,0.2c0.2-2.2,1.2-3.6,2.8-4.9
		c1.2-0.9,2.5-1.8,3.9-2.4c6.9-3.3,14.2-4.8,21.8-4.9c3.7-0.1,7.5-0.2,11.2-0.2c2.5,0,4.6-0.9,6.4-2.7
		C1312.4,524.6,1312.9,524.2,1312.3,523.8z M1309,523.4c0-0.1,0.1-0.2,0.1-0.2c0.7,0.4,1.4,0.7,2.2,1.1c0-0.2,0.1-0.3,0.1-0.5
		c0.1,0,0.1,0,0.2,0c0.1,0.2,0.2,0.5,0.3,1C1310.7,524.3,1309.8,523.9,1309,523.4z"/>
	<path class="st15" d="M1274.4,484.1c-0.1,0.2-0.1,0.4-0.2,0.6c-0.2,0.1-0.3,0.2-0.5,0.2c-1.1,0.6-2.3,0.2-2.8-1
		c-0.5-1,0-2.1,1.1-2.6c0.9-0.4,1.6,0,2.4,0.5c-0.3,0-0.6,0.1-1,0c-0.7-0.2-1.4-0.1-1.8,0.5s-0.4,1.2,0,1.7c0.5,0.6,1.1,0.7,1.9,0.4
		C1273.7,484.3,1274,484.2,1274.4,484.1z"/>
	<path class="st7" d="M1274.3,484.7L1274.3,484.7C1274.2,484.7,1274.2,484.7,1274.3,484.7C1274.2,484.7,1274.2,484.7,1274.3,484.7
		C1274.2,484.7,1274.2,484.7,1274.3,484.7z"/>
	<path class="st7" d="M1274.5,481.8C1274.4,481.8,1274.4,481.8,1274.5,481.8C1274.4,481.7,1274.4,481.7,1274.5,481.8L1274.5,481.8
		L1274.5,481.8z"/>
	<path class="st15" d="M1271.9,491.3c-0.6,0.4-0.6,1-0.4,1.5c0.6,1.5,1.9,0.7,3,0.5c-0.6,0.9-1.3,1.2-2.2,1c-0.8-0.2-1.5-1-1.5-1.8
		c-0.1-0.9,0.4-1.6,1.3-2c0.8-0.3,1.5-0.1,2.2,0.6C1273.5,491.2,1272.5,490.3,1271.9,491.3L1271.9,491.3z"/>
	<path class="st15" d="M1275.2,502.9c0.2-0.2,0.5-0.4,0.8-0.6c-0.2,1.3-1.3,1.9-2.4,1.7c-1.1-0.3-1.8-1.5-1.5-2.5
		c0.3-1,1.5-1.9,2.9-1.1c-0.5,0.1-0.7,0.2-1.1,0.2c-0.7,0.1-1.2,0.5-1.4,1.2c-0.1,0.7,0.2,1.2,0.7,1.5
		C1274.1,503.6,1274.8,503.6,1275.2,502.9L1275.2,502.9z"/>
	<path class="st15" d="M1272.5,483.8c0.2,0.2,0.2,0.4,0.3,0.5c-0.7,0.1-1.3-0.3-1.3-1.1c-0.1-0.6,0.4-1.2,1.3-1.3
		c-0.2,0.3-0.6,0.6-0.6,0.9C1272.2,483.2,1272.4,483.5,1272.5,483.8L1272.5,483.8z"/>
	<path class="st15" d="M1275.2,502.9c-0.1,0-0.2,0-0.3,0.1c-0.8,0.4-1.5,0.2-1.9-0.4c-0.4-0.6-0.2-1.2,0.7-1.8
		c-0.1,0.2-0.2,0.4-0.2,0.5c-0.3,0.8,0.1,1.5,0.9,1.6C1274.7,502.9,1274.9,502.9,1275.2,502.9L1275.2,502.9z"/>
	<path class="st15" d="M1271.8,491.3c0.3-0.1,0.6-0.2,1.1-0.2c-1.1,1.1-1,1.6,0.2,2.4c-1.2,0.1-1.8-0.7-1.3-1.8
		C1271.8,491.5,1271.8,491.5,1271.8,491.3C1271.9,491.3,1271.8,491.3,1271.8,491.3z"/>
	<path class="st11" d="M1249,497c-0.6,1-1.2,0.9-1.8,0C1247.9,497,1248.4,497,1249,497z"/>
	<path class="st11" d="M1246.1,515.6c0.6,0.1,1.1,0.1,1.6,0.2c0,0.1,0,0.2,0.1,0.3c-0.3,0.1-0.6,0.3-0.9,0.3
		c-0.3-0.1-0.6-0.3-0.9-0.6C1246.1,515.7,1246.1,515.6,1246.1,515.6z"/>
	<path class="st11" d="M1247.4,485.6c0.6-0.8,1-0.8,1.5,0C1248.4,485.6,1247.9,485.6,1247.4,485.6z"/>
	<path class="st11" d="M1247.3,504.3c0.7-0.7,1.1-0.7,1.8,0.1C1248.4,504.4,1247.9,504.3,1247.3,504.3z"/>
	<path class="st9" d="M1283.4,508.3c-0.3,0.4-0.7,0.8-1.1,1.2c-0.4,0.5-0.8,0.9-1.4,0.5c-0.6-0.4-0.5-1-0.1-1.5
		c0.1-0.2,0.2-0.4,0.3-0.6l0,0l0,0c0.3-0.5,0.6-1.1,1.1-1.5l0,0l0,0c-0.2,0.1-0.5,0.2-0.8,0.3c0.4,0.6,0,0.6-0.5,0.7
		c-1.2,0.2-2.1,1.4-1.9,2.5c0.2,1.2,1.5,2.1,2.6,1.9c1.2-0.2,2-1.5,1.8-2.7C1283.3,508.8,1283.4,508.5,1283.4,508.3z M1281.8,511.5
		c-1.1,0.3-2.3-0.3-2.6-1.4c-0.2-1.1,0.4-2.2,1.5-2.4c0,0,0,0,0.1,0c0,0,0,0,0.1,0c0,0,0.1,0,0.1,0.1c0,0,0,0,0.1,0
		c0.1,0.1,0.2,0.1,0.2,0.2c-0.2,0.2-0.6,0.4-0.8,0.6c0,0.1,0.1,0.2,0.1,0.3c0.1,1.5,0.6,1.8,1.9,1.3c-0.4,0.7-1,0.9-1.6,0.6
		c-0.6-0.2-0.9-1-0.6-1.6l0.2-0.6c-0.1,0-0.1,0.1-0.2,0.1c-0.2,0.2-0.3,0.3-0.4,0.6c0,0,0,0,0,0.1v0.1c0,0,0,0,0,0.1
		c0,0.2,0,0.6,0.2,0.8c0.2,0.6,0.8,0.9,1.5,0.8s1.1-0.6,1.3-1.3c0-0.2,0.2-0.5,0.3-0.9C1283.4,510.1,1282.8,511.2,1281.8,511.5z"/>
	<path class="st9" d="M1291.2,510.4c-0.2,0.4-0.5,0.8-0.7,1.2c-0.1-0.2-0.2-0.5-0.3-0.6c-1.9-1.2-3.8-2.4-5.8-3.6
		c-0.1-0.1-0.3,0-0.5-0.1c0.1-0.2,0.2-0.5,0.3-0.7c0.2,0.2,0.3,0.5,0.6,0.6c1.8,1.1,3.5,2.2,5.3,3.3
		C1290.6,510.8,1290.9,510.8,1291.2,510.4z"/>
	<path class="st9" d="M1292.4,512.3L1292.4,512.3L1292.4,512.3L1292.4,512.3c-0.2,0.1-0.2,0.1-0.3,0.2c-0.5,0.7-1,1.5-1.5,2.2
		c-0.3,0.4-0.8,0.6-1.3,0.2c-0.5-0.3-0.5-0.8-0.2-1.3c0.2-0.2,0.2-0.5,0.4-0.7l0,0l0,0c0.2-0.4,0.4-0.7,0.6-1.1
		c-0.2-0.1-0.6-0.1-0.7-0.2c-0.4-0.2-0.8-0.5-1.2-0.7c0,0.1-0.1,0.1-0.1,0.2c0.6,0.3,1.1,0.7,1.7,1.1c-1.9,0.5-2.7,1.4-2.4,2.8
		c0.2,1.1,1.3,1.9,2.4,1.8c1.5-0.2,1.9-1.1,2-3.4c0.2,0.1,0.5,0.2,0.6,0.2C1291.5,513.2,1292.4,512.8,1292.4,512.3z M1290.7,515.3
		c-0.3,0.2-0.7,0.6-1.1,0.5c-0.4,0-0.9-0.3-1.1-0.6c-0.2-0.3-0.1-0.9-0.1-1.3c0.1,0,0.2,0,0.2,0
		C1288.8,515.3,1289.3,515.6,1290.7,515.3z M1290.2,516.5c-1,0.3-2.2-0.2-2.5-1.3c-0.3-1,0.2-2.1,1.2-2.5c0.1,0,0.1,0,0.2,0
		c0,0,0.1,0,0.1,0.1c0.1,0,0.1,0.1,0.2,0.1c0,0,0.1,0,0.1,0.1c0.1,0,0.1,0.1,0.2,0.1c-0.2,0.2-0.5,0.2-0.6,0.4
		c-0.6,0.4-0.9,1-0.6,1.7c0.2,0.6,0.7,1.1,1.5,1c0.7,0,1.2-0.4,1.4-1.1c0.1-0.3,0.2-0.6,0.3-1.1
		C1291.7,515.1,1291.2,516.2,1290.2,516.5z"/>
	<path class="st14" d="M1302.3,514.9c-0.2,0.4-0.5,0.7-0.7,1.1c-0.1,0.1-0.2,0.2-0.2,0.2c-0.2,0.4-0.5,0.8-0.8,1.3
		c-0.1,0.1-0.2,0.2-0.3,0.3c-0.4,0.6-0.9,1.2-1.3,1.9c-0.2,0-0.4,0.1-0.6,0.1s-0.4,0.1-0.6,0.1l0,0l0,0l0,0
		c-0.1-0.1-0.2-0.2-0.2-0.3l0,0c-0.2-0.4-0.2-0.8,0.2-1.3c0.2-0.2,0.2-0.5,0.3-0.7c0-0.1,0.1-0.1,0.1-0.2c0.2-0.2,0.3-0.4,0.5-0.6
		c0.7-1.1,1.5-2.2,2.2-3.3c0,0,0,0,0-0.1l0,0c0.5,0,1-0.1,1.4,0.1C1302.8,513.9,1302.4,514.4,1302.3,514.9z"/>
	<path class="st15" d="M1299.4,520.9c-0.6,0.6-1.4,0.6-2.1,0.3c-0.8-0.4-1.3-1.2-1.2-2c0-0.2,0.1-0.6,0.1-0.8
		c0.6-0.6,1.1-1.2,1.9-1.1c0,0.1-0.1,0.1-0.1,0.2c-0.2,0.2-0.5,0.4-0.7,0.6c-0.6,0.4-0.9,1-0.6,1.8c0.2,0.6,0.7,1,1.5,1
		c0.8,0,1.2-0.5,1.5-1.2c0.1-0.2,0.2-0.6,0.3-1C1300.2,519.6,1300,520.3,1299.4,520.9z"/>
	<path d="M1297.7,519.9c-0.1-0.1-0.2-0.2-0.2-0.3C1297.6,519.7,1297.6,519.8,1297.7,519.9z"/>
	<path class="st9" d="M1300.2,519.6c0,0.8-0.7,1.7-1.5,1.9c-0.9,0.2-1.8,0-2.4-0.7c-0.6-0.8-0.6-1.5-0.2-2.4c0,0.2-0.1,0.6-0.1,0.8
		c-0.1,0.8,0.4,1.6,1.2,2s1.5,0.2,2.1-0.3c0.6-0.6,0.8-1.3,0.5-2.2c-0.2,0.4-0.2,0.6-0.3,1c-0.2,0.7-0.6,1.2-1.5,1.2
		c-0.7,0-1.2-0.3-1.5-1c-0.2-0.7,0-1.3,0.6-1.8c0.2-0.2,0.5-0.4,0.7-0.6c-0.1,0.2-0.2,0.5-0.3,0.7c-0.3,0.5-0.4,0.9-0.2,1.3
		c-0.1-0.1-0.1-0.2-0.2-0.2c-0.1-0.1-0.1-0.2-0.2-0.2c-0.1-0.2-0.2-0.2-0.2-0.4c-0.3,0.6-0.2,1.3,0.4,1.6c0.6,0.3,1.3,0.2,1.6-0.3
		c0.1-0.1-0.1-0.2-0.1-0.4c0.4-0.6,0.9-1.2,1.3-1.9C1300.2,518.5,1300.2,519,1300.2,519.6z"/>
	<path d="M1308.1,523.6L1308.1,523.6L1308.1,523.6z"/>
	<path class="st9" d="M1308.8,524c-0.1,0.6-0.3,1.1-0.6,1.6c-0.2,0.3-0.3,0.7-0.6,0.8c-0.5,0.2-1.1,0.2-1.5,0.1
		c-0.9-0.4-1.8-1.1-1.8-2.3c-0.1-0.9,0.6-1.8,1.6-2.2c0.3-0.2,0.7-0.2,1.1-0.3l0,0l0,0c-0.2,0.3-0.5,0.7-0.6,1.1h-0.1
		c0-0.2,0.1-0.3,0.2-0.5c-1.2,0.1-1.9,1-1.9,2.2c0.1,1.1,1.2,1.9,2.4,1.7c1.1-0.2,1.9-1.3,1.6-2.4l0,0l0,0l0,0l0,0
		c-0.1-0.1-0.2-0.1-0.2-0.2c0.2-0.4,0.5-0.7,0.6-1.1C1308.8,523,1308.8,523.5,1308.8,524z"/>
	<path class="st9" d="M1271,483.9c0.6,1.1,1.7,1.5,2.8,1c0.2-0.1,0.3-0.2,0.5-0.2l0,0l0,0c-0.6,0.6-1.4,0.9-2.2,0.6
		c-0.9-0.3-1.6-1.4-1.5-2.3s0.8-1.9,1.7-2c0.9-0.2,1.7,0.1,2.2,0.8l0,0c0,0,0,0-0.1,0c-0.7-0.5-1.5-0.9-2.4-0.5
		C1271,481.8,1270.5,483,1271,483.9z"/>
	<path class="st9" d="M1311.8,524.9c-1.1-0.6-1.9-1.1-2.8-1.5c0-0.1,0.1-0.2,0.1-0.2c0.7,0.4,1.4,0.7,2.2,1.1c0-0.2,0.1-0.3,0.1-0.5
		c0.1,0,0.1,0,0.2,0C1311.5,524.2,1311.6,524.4,1311.8,524.9z"/>
	<path class="st9" d="M1306.2,522.8c-0.1,0.2-0.3,0.4-0.2,0.6c0,0.4,0.1,1,0.3,1.1c0.2,0.2,0.8,0,1.1-0.2c0.2-0.2,0.4-0.5,0.6-0.7
		l0,0c-0.1,0.2-0.1,0.4-0.2,0.6c-0.2,1-0.6,1.5-1.5,1.4c-0.7,0-1.2-0.4-1.4-1.1C1304.9,523.7,1305.3,523.1,1306.2,522.8
		L1306.2,522.8z M1307.5,524.9c-1.7,0.2-1.7-0.5-1.9-1.5c-0.5,0.7-0.4,1.5,0.2,1.9C1306.4,525.6,1306.9,525.4,1307.5,524.9z"/>
	<path class="st15" d="M1280.3,508.4c-0.6,0.4-0.7,1.1-0.5,1.7c0.2,0.6,0.8,0.9,1.5,0.8c0.7-0.1,1.1-0.6,1.3-1.3
		c0-0.2,0.2-0.5,0.3-0.9c0.4,1.2-0.1,2.3-1.1,2.7c-1.1,0.3-2.3-0.3-2.6-1.4c-0.2-1.1,0.4-2.2,1.5-2.4c0.1,0,0.2,0.2,0.4,0.2l0,0
		C1280.9,508.1,1280.5,508.3,1280.3,508.4L1280.3,508.4z"/>
	<path class="st15" d="M1280.3,508.4c0,0.1,0.1,0.2,0.1,0.3c0.1,1.5,0.6,1.8,1.9,1.3c-0.4,0.7-1,0.9-1.6,0.6c-0.6-0.2-0.9-1-0.6-1.6
		C1280.1,508.8,1280.2,508.7,1280.3,508.4L1280.3,508.4z"/>
	<path class="st15" d="M1289.5,513c-0.2,0.2-0.5,0.2-0.7,0.4c-0.6,0.4-0.9,1-0.6,1.7c0.2,0.6,0.7,1.1,1.5,1c0.7,0,1.2-0.4,1.4-1.1
		c0.1-0.3,0.2-0.6,0.3-1.1c0.4,1.3-0.1,2.3-1.1,2.7c-1,0.3-2.2-0.2-2.5-1.3c-0.3-1,0.2-2.1,1.2-2.5
		C1289.1,512.7,1289.3,512.9,1289.5,513C1289.5,513,1289.5,513,1289.5,513z"/>
	<path class="st15" d="M1288.6,513.9c0.2,1.4,0.6,1.7,2,1.5c-0.3,0.2-0.7,0.6-1.1,0.5c-0.4,0-0.9-0.3-1.1-0.6
		c-0.2-0.3-0.1-0.9-0.1-1.3C1288.5,513.9,1288.6,513.9,1288.6,513.9z"/>
	<path class="st15" d="M1298.9,519.7c0,0.2,0.2,0.3,0.1,0.4c-0.3,0.6-1.1,0.6-1.6,0.3c-0.6-0.4-0.7-1-0.4-1.6
		c0.2,0.3,0.5,0.7,0.7,1.1C1298.1,519.9,1298.5,519.8,1298.9,519.7z"/>
	<path class="st15" d="M1306.2,522.7c-1,0.4-1.4,1-1.1,1.8c0.2,0.7,0.6,1.1,1.4,1.1c0.8,0,1.3-0.4,1.5-1.4c0.1-0.2,0.1-0.4,0.2-0.6
		c0.1,0.1,0.3,0.1,0.3,0.2c0.2,1-0.6,2.2-1.6,2.4c-1.1,0.2-2.3-0.6-2.4-1.7c-0.2-1.2,0.6-2.1,1.9-2.2
		C1306.3,522.4,1306.2,522.5,1306.2,522.7z"/>
	<path class="st15" d="M1307.5,524.9c-0.5,0.6-1.1,0.7-1.6,0.3c-0.6-0.4-0.6-1.1-0.2-1.9C1305.7,524.4,1305.7,525,1307.5,524.9z"/>
</g>
<g>
	<g>
		<path class="st11" d="M1263.8,551.9c0,1.5,0,2.8,0,4.3c-0.3,0-0.6,0-0.9,0c-13.9,0-27.8,0.1-41.8-0.1c-1.9,0-3.9-0.6-5.8-1.2
			c-5.4-1.7-10.9-2.4-16.5-2.7c-1.2-0.1-2.4-0.2-3.7-0.2c0,1.4,0,2.7,0,4.1c-10.8,0-21.5,0-32.2,0c0-2.5,0-5,0-7.6
			c0.2,0,0.5-0.1,0.8-0.1c10.2,0,20.4,0,30.7,0c6.6,0,13,0.6,19.5,1.9c5.1,1,10.2,1.5,15.4,1.5c11.1,0,22.1,0,33.3,0
			C1262.9,551.9,1263.3,551.9,1263.8,551.9z"/>
		<path class="st11" d="M1163,548.3c0-0.3,0-0.6,0-0.9c0.3,0,0.6,0,1,0c9.7,0,19.5,0,29.3,0c7.4,0,14.7,0.7,21.9,2.1
			c4.6,0.9,9.3,1.2,14,1.2c10.6,0,21.3,0,32,0c0.8,0,1.7,0,2.6,0c0,0.3,0,0.6,0.1,0.8c-0.2,0.1-0.2,0.1-0.2,0.1c-0.2,0-0.3,0-0.4,0
			c-11.5,0-23,0-34.5,0c-5.4,0-10.6-0.6-15.9-1.6c-6.6-1.3-13.2-1.8-19.9-1.8c-9.6,0-19.1,0-28.6,0
			C1163.9,548.3,1163.5,548.3,1163,548.3z"/>
		<path class="st12" d="M1162.4,530.8c0.8,0,1.4,0,1.9,0v-0.1c-0.6-0.1-1.1-0.2-1.7-0.2c-0.1-0.1-0.1-0.2-0.2-0.2
			c0.2-0.2,0.4-0.5,0.6-0.5c4.5,0.4,8.8,1.1,12.7,3.7c3.2,2.2,5.3,5.3,6.4,9c0.4,1.5,0.6,3,1.1,4.5c-0.7,0.2-0.7,0.2-1.2-1.2
			c0,0.4,0.1,0.8,0.1,1.4c-0.4,0-0.7,0-1.1,0c-5.7,0-11.4,0-17,0c-1.3,0-1.3,0-1.5-1.3c-0.6-3.4-0.6-6.9-0.4-10.4
			C1162.2,533.9,1162.4,532.4,1162.4,530.8z"/>
		<path class="st13" d="M1231.6,528.2c0.2-0.2,0.4-0.3,0.6-0.6c1.5,0.7,2.9,1.5,4.5,2.1c3.6,1.5,7.5,2,11.5,2.4
			c2.2,0.2,4.5,0.3,6.7,0.7c5,0.9,9,6.2,8.5,10.8c-0.2,2.1-0.6,4.1-1.1,6.2c-0.1,0.5-0.3,0.6-0.9,0.6c-11.9,0-23.9,0-35.8-0.1
			c-4.6,0-9.2-0.9-13.8-1.7c-4.9-0.9-9.7-1.4-14.6-1.5c-2.7-0.1-5.4-0.1-8-0.1c-0.2,0-0.6,0-0.9,0c0.1-1.9,1-3.3,2.4-4.3
			c1.7-1.2,3.6-2.4,5.4-3.2c6.6-2.9,13.5-4.1,20.8-4.3c3.6-0.1,7.2-0.2,10.9-0.2c2.6,0,4.6-1,6.4-2.8c1-1,0.9-1.6-0.3-2.2
			c-0.6-0.3-1.3-0.6-1.9-1.1c-0.2-0.1-0.2-0.4-0.4-0.6C1231.5,528.4,1231.5,528.3,1231.6,528.2z"/>
		<path class="st12" d="M1198.6,491.3c0.7-0.1,1.2-0.1,1.9-0.1c0,2.3,0,4.5,0,6.9c-0.6,0-1.3,0-1.9,0
			C1198.6,495.8,1198.6,493.6,1198.6,491.3z"/>
		<path class="st12" d="M1198.3,500.4c0.8-0.1,1.5-0.1,2.1-0.2c0.1,1,0.2,1.9,0.2,2.8c0,0.1,0,0.2,0,0.3c0.1,0.6,0.5,1.5,0.2,1.8
			c-0.4,0.6-1.2,0.7-1.9,1.1C1198.2,504.4,1198.4,502.4,1198.3,500.4z"/>
		<path class="st12" d="M1205.3,511.3c-0.2,0.4-0.6,0.8-0.9,1.4c-1.7-1.2-3.5-2.3-4.5-4.2c0.7-0.4,1.5-0.7,2-1
			C1203,508.7,1204,509.9,1205.3,511.3z"/>
		<path class="st12" d="M1196.3,485.5c1.3-0.2,2.4-0.3,3.4-0.3c0.2,0,0.6,0.4,0.6,0.6c-0.2,0.6-0.3,1.4-0.7,1.6
			c-0.5,0.3-1.3,0.5-1.9-0.4C1197.5,486.4,1196.9,486.1,1196.3,485.5z"/>
		<path class="st12" d="M1198.6,488.3c-0.1-0.2-0.1-0.4-0.2-0.6c1.6-0.2,1.9-0.5,2-1.9c0.1-0.7-0.2-1.1-0.9-1
			c-0.9,0.1-1.9,0.2-2.8,0.3c-0.6,0.1-1.1,0-1.7,0c0-0.2,0-0.2,0-0.4c1.5-0.2,3.1-0.5,4.6-0.6c1.1-0.1,1.4,0.5,1.4,1.5
			C1201.2,487.4,1200.5,488.1,1198.6,488.3z"/>
		<path class="st12" d="M1206.8,512.8c0.2-0.2,0.3-0.2,0.5-0.4c2.1,1.3,4.1,2.6,6.2,4c-0.1,0.2-0.2,0.5-0.2,0.7
			c-0.1,0.1-0.2,0.2-0.3,0.3c-0.2,0.5-0.6,0.5-1.1,0.2c-1.7-1.1-3.5-2.2-5.3-3.3c-0.2-0.2-0.4-0.4-0.6-0.6
			C1206.4,513.4,1206.6,513.2,1206.8,512.8z"/>
		<path class="st12" d="M1215.2,517.9c0.2-0.1,0.5-0.2,0.6-0.2c2,1.2,4.1,2.4,6.1,3.6c-0.3,0.5-0.6,0.9-0.9,1.3
			c-2-1.2-4.1-2.4-6.1-3.6c-0.2-0.1-0.2-0.3-0.3-0.5C1214.7,518.5,1215,518.3,1215.2,517.9z"/>
		<path class="st12" d="M1223.1,523.4c0.1-0.1,0.2-0.2,0.2-0.2c0.2-0.2,0.3-0.2,0.5-0.4c2.1,1.2,4.2,2.5,6.3,3.7
			c-0.3,0.4-0.6,0.8-0.9,1.3c-0.9-0.5-1.7-1-2.6-1.5c-1.1-0.6-2.2-1.3-3.2-1.9C1223,524.1,1222.9,523.9,1223.1,523.4z"/>
		<path class="st9" d="M1201.9,498.7c0,0.1,0.1,0.2,0.1,0.3c0,0,0,0,0,0.1l0,0c0,0.1,0,0.1,0,0.2c0,0.5-0.4,0.8-1.3,0.8
			c-1.7,0.1-3.5,0.1-5.2,0.2c-0.6,0-1.2-0.1-1.3-0.9c0-0.7,0.6-0.9,1.1-1c1.8-0.1,3.6-0.2,5.4-0.2c0.1,0,0.2,0,0.3,0
			c0.1,0,0.2,0,0.2,0.1c0,0,0,0,0.1,0 M1200.9,497.9v-6.7c0.2-0.1,0.5-0.2,0.7-0.3c-2,0.1-4,0.2-6,0.2c-0.2,0-0.3,0-0.5,0h-0.1
			c-0.1,0-0.2,0-0.2,0l0,0c-0.1,0-0.2,0-0.2-0.1c-0.1,0-0.1,0-0.2,0l0,0l0,0c0.2,0.2,0.2,0.4,0.3,0.5c-0.7,0.1-1.3-0.3-1.3-1.1
			c-0.1-0.6,0.4-1.2,1.3-1.3c-0.2,0.3-0.6,0.6-0.6,0.9c0,0.1,0,0.1,0,0.2c0,0,0,0,0,0.1c0,0,0,0,0,0.1v0.1l0,0c0,0,0,0,0,0.1
			c0,0,0,0,0,0.1l0,0c0,0,0,0.1,0.1,0.1c0.1,0.1,0.1,0.2,0.2,0.3v0.1l0,0c-0.1-0.2-0.2-0.4-0.2-0.6v-0.1c-0.1-0.6,0.2-0.9,1.2-1
			c1.8-0.1,3.6-0.2,5.4-0.2c0.4,0,0.7,0.2,1.1,0.3c-0.3-0.2-0.7-0.5-1.2-0.8c0.1-0.3,0.2-0.8,0.4-1.2c0.7-1.5,0.5-2.7-0.6-3.5h-2.4
			c-1.7,0.3-3.3,0.8-5.1,0.6c-2.6-0.2-5.3,0-7.8,0.3c-3.7,0.5-7.5,1.3-11.2,1.8c-1.7,0.2-3.5,0.3-5.2,0.3c-1.9,0-3.2,1.1-3.2,2.9
			c0,0.9,0,1.8,0,2.8c-0.4,0-0.9,0.1-1.4,0.1v11c0.6,0,1.1,0.1,1.6,0.1c-0.1,2.3-0.2,4.5-0.3,6.7h-1.6c-0.1,1.3-0.2,2.6-0.3,4
			c-0.2,2-0.4,4.1-0.6,6.2c-0.1,1.1-0.2,1.1,0.9,1.1c0.2,0,0.3,0.1,0.6,0.2c-0.4,2.4-0.8,4.8-1.2,7.1c-0.4,0.1-0.6,0.1-0.9,0.1
			c-0.1,0.7-0.2,1.5-0.3,2.2c-0.2,1.1-0.2,2.3-0.3,3.4v7.1c0.1,0.7,0.2,1.4,0.3,2.1c0.6,2.4,0.7,4.9,0.6,7.5c-0.1,1.3,0,2.7,0,4v0.9
			h33.1v-4c0.4,0,0.7,0,1.1,0c2,0.2,4.1,0.3,6.2,0.5c4.2,0.3,8.3,1.1,12.3,2.3c1.9,0.6,3.8,1.2,5.8,1.2c14.1,0.1,28.3,0.1,42.4,0.1
			h0.9v-6.3h-1.8c0.1-0.4,0.2-0.6,0.3-0.9c0.7-2.7,1.4-5.5,0.7-8.3c-1.1-4.5-4-7.6-8.6-8.7c-2.1-0.5-4.4-0.5-6.5-0.7
			c-3.9-0.4-7.8-0.9-11.5-2.4c-1.5-0.6-3-1.4-4.5-2.1c0.9-1.6,0.9-1.8,0.2-2.4v0.1c0.5,0.6,0.4,1.1,0,1.6c-0.3,0.5-0.6,1-0.9,1.5
			c0.2-0.2,0.4-0.3,0.6-0.6c1.5,0.7,2.9,1.5,4.5,2.1c3.6,1.5,7.5,2,11.5,2.4c2.2,0.2,4.5,0.3,6.7,0.7c5,0.9,9,6.2,8.5,10.8
			c-0.2,2.1-0.6,4.1-1.1,6.2c-0.1,0.5-0.3,0.6-0.9,0.6c-11.9,0-23.9,0-35.8-0.1c-4.6,0-9.2-0.9-13.8-1.7c-4.8-0.9-9.7-1.4-14.6-1.5
			c-2.7-0.1-5.4-0.1-8-0.1c-0.2,0-0.6,0-0.9,0c0.1-1.9,1-3.3,2.4-4.3c1.7-1.2,3.6-2.4,5.4-3.2c6.6-2.9,13.5-4.1,20.8-4.3
			c3.6-0.1,7.2-0.2,10.9-0.2c2.6,0,4.6-1,6.4-2.8c1-1,0.9-1.6-0.3-2.2c-0.6-0.3-1.3-0.6-1.9-1.1c-0.2-0.1-0.2-0.4-0.4-0.6
			c-0.2,0.2-0.3,0.5-0.5,0.7c1.1,0.6,2.2,1,3.2,1.6c0.6,0.4,0.1,0.9-0.2,1.2c-1.8,1.8-3.9,2.7-6.4,2.7c-3.7,0-7.5,0.1-11.2,0.2
			c-7.6,0.2-14.9,1.6-21.8,4.9c-1.4,0.6-2.7,1.5-3.9,2.4c-1.5,1.1-2.6,2.7-2.8,4.9c-0.4-0.1-0.8-0.2-1.1-0.2
			c-0.3,0.1-0.7,0.2-1.1,0.2c-2.1,0-2,0-2.4-2c-1.5-8.2-6.5-13.3-14.9-14.9c-1.5-0.3-3.1-0.5-4.6-0.7c0.4-2.4,0.8-4.7,1.2-7.1
			c1.1-0.2,1.3-0.2,1.7,0.9c0.3,0.9,1.4,1.6,2.3,1.5c1.1-0.1,2-0.8,2.3-1.9c0.2-1.4,0.3-2.7,0.5-4.1c0.2-2.2,0.5-4.5,0.7-6.7
			c0.1-1.1-0.2-2-1.2-2.6c-0.9-0.5-1.7-0.4-2.4,0.2c-0.4,0.3-0.6,0.8-1.1,1.3c-0.4-0.1-1-0.1-1.5-0.2c0.1-2.4,0.2-4.5,0.2-6.9h1.2
			c0.3,0.6,0.6,1.1,1.1,1.5c0.6,0.6,1.5,0.8,2.3,0.4c0.9-0.4,1.5-1.1,1.5-2.1c0-3.7,0-7.4,0-11.1c0-1.1-0.9-2.1-2-2.2
			c-1.3-0.2-2.2,0.5-2.8,2h-1.6c0-1.2-0.1-2.4,0-3.5c0.1-1.1,1.3-1.9,2.4-1.9c3.3,0.3,6.5-0.3,9.7-1c4.7-1,9.5-1.5,14.4-1.5
			c1.7,0,3.3,0.6,4.6,1.8c0.7,0.6,1.3,1.3,1.3,2.4c-0.4,0-0.7,0-1.1,0.1c-0.1-0.4-0.1-0.7-0.2-1.1h-0.1c0,0.3,0,0.6-0.1,1.1
			c-0.2-0.1-0.5-0.2-0.6-0.2l0,0l0,0c-0.3,0-0.6,0.1-1,0c-0.7-0.2-1.4-0.1-1.8,0.5s-0.4,1.2,0,1.7c0.5,0.6,1.1,0.7,1.9,0.4
			c0.2-0.1,0.6-0.2,0.9-0.3c-0.1,0.2-0.1,0.4-0.2,0.6l0,0l0,0c0.2-0.2,0.5-0.3,0.8-0.6c0.1,0.6,0.1,1.1,0.2,1.7c0.1,0,0.1,0,0.2,0
			v-1.5h1v6.8c-0.5,0-0.8,0.1-1.2,0.1c0-0.5,0.1-0.8,0.1-1.2c-0.1,0-0.1,0-0.2,0c-0.1,0.4-0.1,0.7-0.2,1.3c-0.7-0.8-1.5-1.3-2.5-1.1
			c-0.5,0.2-1,0.4-1.2,0.8c-0.8,0.9-0.6,2.1,0.2,2.9c1,1,2.1,0.9,3.5-0.2c0.1,0.4,0.1,0.8,0.2,1.2c0.1,0,0.1,0,0.2,0v-1.4h1.1
			c0,0.6-0.1,1.1,0,1.8c0.2,1.5,0.4,3,0.6,4.5c0.9-0.4,1.7-0.8,2.6-1.2c0.6-0.2,1.1-0.3,1.5,0.3c0.3,0.6-0.1,1-0.6,1.3
			c-1.6,0.8-3.3,1.6-4.9,2.4c-0.6,0.2-1.1,0.3-1.4-0.2c-0.3-0.6,0-1.1,0.6-1.4c0.7-0.3,1.5-0.7,2.3-1.1c-0.2,0-0.5,0.1-0.8,0.1
			c-0.1-0.2-0.2-0.6-0.3-0.9c-0.1,0-0.1,0-0.1,0c0.1,0.3,0.2,0.6,0.2,1.2c-1-0.4-1.9-0.7-2.8,0.1c-0.4,0.4-0.7,0.9-0.9,1.4
			c-0.3,1,0.5,2.1,1.5,2.5c1.2,0.5,2.3-0.2,3.1-1.9c0.3,0.5,0.6,0.9,0.9,1.3c0.1,0,0.1-0.1,0.2-0.1c-0.2-0.4-0.6-0.9-0.9-1.4
			c0.3-0.2,0.6-0.3,0.9-0.5c1.1,1.8,2.7,2.8,4.2,4c0.4,0.2,0.4,0.5,0.2,0.9l0,0l0,0c0.7-1,1.4-1.9,2.1-2.9c-0.4,0.3-0.8,0.2-1.1-0.2
			c-0.9-1-1.8-2-2.6-2.9c1-1.3,0.7-1.9-0.6-2.4c-0.2-0.1-0.3-0.2-0.4-0.4c-0.2-1.5-0.4-2.9-0.6-4.3c0.2,0.1,0.2,0.1,0.4,0.2
			c0.3-0.4,0.8-0.6,1.1-1.1 M1195.5,511c-1.1-0.3-1.8-1.5-1.5-2.5c0.3-1,1.5-1.9,2.9-1.1c-0.5,0.1-0.7,0.2-1.1,0.2
			c-0.7,0.1-1.2,0.5-1.4,1.2c-0.1,0.7,0.2,1.2,0.7,1.5c0.6,0.3,1.3,0.2,1.7-0.3c-0.1,0-0.2,0-0.3,0.1c-0.8,0.4-1.5,0.2-1.9-0.4
			s-0.2-1.2,0.7-1.8c-0.1,0.2-0.2,0.4-0.2,0.5c-0.3,0.8,0.1,1.5,0.9,1.6c0.2,0,0.5,0,0.7,0l0,0c0.2-0.2,0.5-0.4,0.8-0.6
			C1197.6,510.6,1196.5,511.3,1195.5,511z M1205.3,511.3c-0.2,0.4-0.6,0.8-0.9,1.4c-1.7-1.2-3.5-2.3-4.5-4.2c0.7-0.4,1.5-0.7,2-1
			C1203,508.7,1204,509.9,1205.3,511.3z M1200.4,500.3c0.1,1,0.2,1.9,0.2,2.8c0,0.1,0,0.2,0,0.3c0.1,0.6,0.5,1.5,0.2,1.8
			c-0.4,0.6-1.2,0.7-1.9,1.1c-0.8-1.9-0.6-3.9-0.7-5.9C1199,500.3,1199.7,500.3,1200.4,500.3z M1194.3,497.9L1194.3,497.9
			L1194.3,497.9h-0.2c-0.2,0.1-0.3,0.2-0.5,0.4l0,0l0,0l0,0c0.2-0.1,0.4-0.1,0.6-0.2c0.1,0,0.2-0.1,0.2-0.1s0.1,0,0.2,0
			c-1.1,1.1-1,1.6,0.2,2.4c-1.2,0.1-1.8-0.7-1.3-1.8c0.1-0.1,0.1-0.2,0.1-0.3l0,0l0,0l0,0c-0.1,0.1-0.2,0.1-0.2,0.2c0,0,0,0-0.1,0.1
			l-0.1,0.1c0,0,0,0,0,0.1c0,0,0,0,0,0.1c0,0,0,0.1-0.1,0.1v0.1c0,0,0,0,0,0.1c0,0,0,0,0,0.1c-0.1,0.2,0,0.6,0.2,0.8
			c0.6,1.5,1.9,0.7,3,0.5c-0.6,0.9-1.3,1.2-2.2,1c-0.8-0.2-1.5-1-1.5-1.8c-0.1-0.9,0.4-1.6,1.3-2c0.8-0.3,1.5-0.1,2.2,0.6
			C1195.5,498.3,1194.9,497.8,1194.3,497.9z M1198.6,491.3c0.7-0.1,1.2-0.1,1.9-0.1v6.9h-1.9V491.3z M1197.8,486.9
			c-0.3-0.5-0.8-0.8-1.5-1.4c1.3-0.2,2.4-0.3,3.4-0.3c0.2,0,0.6,0.4,0.6,0.6c-0.2,0.6-0.3,1.4-0.7,1.6
			C1199.1,487.5,1198.3,487.7,1197.8,486.9z M1199.8,484.3c1.1-0.1,1.4,0.5,1.4,1.5c0,1.6-0.7,2.4-2.6,2.5c-0.1-0.2-0.1-0.4-0.2-0.6
			c1.6-0.2,1.9-0.5,2-1.9c0.1-0.7-0.2-1.1-0.9-1c-0.9,0.1-1.9,0.2-2.8,0.3c-0.6,0.1-1.1,0-1.7,0c0-0.2,0-0.2,0-0.4
			C1196.7,484.6,1198.3,484.4,1199.8,484.3z M1170.2,509.7c1,0.2,1.8,1.1,1.7,2.2c-0.3,3.6-0.7,7.1-1.1,10.8
			c-0.2,1.2-1.1,1.9-2.2,1.9c-1-0.1-1.7-0.9-1.8-1.9c0.1-0.1,0.2-0.2,0.2-0.2c0.2,0.2,0.4,0.3,0.5,0.6c0.3,0.6,0.7,1,1.5,0.8
			c0.7-0.1,1.1-0.6,1.1-1.3c0.4-3.5,0.8-7,1.1-10.5c0-0.4-0.4-1.1-0.7-1.4c-0.5-0.4-1-0.2-1.5,0.2c-0.2,0.2-0.6,0.3-1,0.6
			C1168.4,510.1,1169.3,509.5,1170.2,509.7z M1167.8,522.8c0-0.1,0.1-0.2,0.1-0.2c0.6,0.1,1.1,0.1,1.6,0.2c0,0.1,0,0.2,0.1,0.3
			c-0.3,0.1-0.6,0.3-0.9,0.3C1168.4,523.3,1168.1,523,1167.8,522.8z M1170.9,511.4c-0.6,0-1.1-0.1-1.8-0.1
			C1169.7,510.6,1170.1,510.6,1170.9,511.4z M1170.3,491.1c1,0.2,1.6,1,1.6,2.2c0,3.5,0,7,0,10.5c0,1.1-0.7,2-1.8,2.2
			c-1,0.2-1.9-0.6-2.3-2c0.4,0.2,0.7,0.3,0.8,0.5c0.4,0.6,0.9,0.9,1.5,0.7c0.7-0.2,1-0.7,1-1.5c0-3.4,0-6.8,0-10.2
			c0-0.7-0.2-1.3-0.9-1.6c-0.6-0.2-1.2,0.1-1.6,0.6c-0.1,0.2-0.4,0.2-0.8,0.4C1168.4,491.4,1169.3,490.8,1170.3,491.1z
			 M1169.1,504.1h1.8C1170.2,505,1169.6,505,1169.1,504.1z M1170.7,492.7h-1.5C1169.7,491.9,1170.1,491.9,1170.7,492.7z
			 M1164.5,503.5v-10.4h6.3v10.4H1164.5z M1163.2,521.6c0.3-3.5,0.6-6.9,1-10.4c2.2,0.2,4.4,0.5,6.6,0.7c-0.4,3.5-0.7,6.9-1.1,10.4
			C1167.5,522,1165.4,521.7,1163.2,521.6z M1162.5,545.8c-0.6-3.4-0.6-6.9-0.4-10.4c0.1-1.5,0.2-3.1,0.3-4.7h1.9v-0.1
			c-0.6-0.1-1.1-0.2-1.7-0.2c-0.1-0.1-0.1-0.2-0.2-0.2c0.2-0.2,0.4-0.5,0.6-0.5c4.5,0.4,8.8,1.1,12.7,3.7c3.2,2.2,5.3,5.3,6.4,9
			c0.4,1.5,0.7,3,1.1,4.5c-0.7,0.2-0.7,0.2-1.2-1.2c0,0.4,0.1,0.8,0.1,1.4h-18C1162.8,547.1,1162.8,547.1,1162.5,545.8z
			 M1263.8,556.2h-0.9c-13.9,0-27.8,0.1-41.8-0.1c-1.9,0-3.9-0.6-5.8-1.2c-5.4-1.7-10.9-2.4-16.5-2.7c-1.2-0.1-2.4-0.2-3.7-0.2v4.1
			H1163v-7.5c0.2,0,0.5-0.1,0.8-0.1c10.2,0,20.4,0,30.7,0c6.6,0,13,0.6,19.5,1.9c5.1,1,10.2,1.5,15.4,1.5c11.1,0,22.1,0,33.3,0h1.2
			L1263.8,556.2L1263.8,556.2L1263.8,556.2z M1263.6,551.7c-0.2,0-0.3,0-0.4,0c-11.5,0-23,0-34.5,0c-5.4,0-10.6-0.6-15.9-1.6
			c-6.6-1.3-13.2-1.8-19.9-1.8c-9.6,0-19.1,0-28.6,0h-1.2v-0.9h1c9.7,0,19.5,0,29.3,0c7.4,0,14.7,0.7,21.9,2.1
			c4.6,0.9,9.3,1.2,14,1.2c10.6,0,21.3,0,32,0h2.6c0,0.3,0,0.6,0.1,0.8C1263.7,551.6,1263.7,551.7,1263.6,551.7z"/>
		<path class="st14" d="M1207.5,511.6c-0.2,0.4-0.5,0.8-0.7,1.2c-0.2,0.2-0.4,0.6-0.6,0.8c-0.1,0.2-0.2,0.5-0.3,0.7
			c-0.2,0.3-0.4,0.6-0.6,0.9c-0.3,0.4-0.7,0.8-1.1,1.2c-0.4,0.5-0.8,0.9-1.4,0.5c-0.6-0.4-0.5-1-0.1-1.5c0.1-0.2,0.2-0.4,0.3-0.6
			l0,0l0,0l0,0l0,0c0.3-0.5,0.6-1.1,1.1-1.5l0,0l0,0c0.7-1,1.4-1.9,2.1-2.9c0.4,0,0.9-0.1,1.2,0.2
			C1207.4,510.7,1207.4,511.3,1207.5,511.6z"/>
		<path class="st14" d="M1215.9,516.7c-0.2,0.4-0.5,0.8-0.7,1.2c-0.2,0.2-0.4,0.5-0.6,0.8c-0.2,0.2-0.2,0.4-0.4,0.6
			c-0.1,0.1-0.2,0.2-0.2,0.2c-0.5,0.7-1,1.5-1.5,2.2c-0.3,0.4-0.8,0.6-1.3,0.2c-0.5-0.3-0.5-0.8-0.2-1.3c0.2-0.2,0.2-0.5,0.4-0.7
			l0,0l0,0l0,0c0.2-0.4,0.4-0.7,0.6-1.1c0.1-0.1,0.2-0.2,0.3-0.3c0.2-0.4,0.5-0.8,0.7-1.2c0.1-0.1,0.2-0.2,0.3-0.3
			c0.4-0.6,0.8-1.1,1.3-1.6C1215.8,515.3,1216.2,515.7,1215.9,516.7z"/>
		<path class="st14" d="M1194.4,490.9c-0.4-1.1-0.2-1.5,1.1-1.6c1.8-0.1,3.6-0.2,5.4-0.2c0.4,0,0.7,0.2,1.1,0.3
			c0.4,0.6,0.1,1.1-0.4,1.5c-2,0.1-4,0.2-6,0.2C1195.1,491.1,1194.7,490.9,1194.4,490.9L1194.4,490.9z"/>
		<path class="st9" d="M1232.5,525L1232.5,525c-0.8-0.2-1.2,0.2-1.6,0.8c-0.6,1-1.5,1.9-2.1,3l0,0l0,0c0.1-0.2,0.2-0.5,0.3-0.8
			c-2-1.1-4-2.4-5.9-3.4c-0.2-0.1-0.5,0.1-0.8,0.1c0.2-0.4,0.5-0.8,0.8-1.3c-0.2,0.5-0.1,0.7,0.4,1c1.1,0.6,2.2,1.2,3.2,1.9
			c0.8,0.5,1.7,1,2.6,1.5c0.3-0.5,0.6-0.8,0.9-1.3c-2.2-1.3-4.2-2.5-6.3-3.7c-0.2,0.2-0.3,0.2-0.5,0.4c0.2-0.4,0.5-0.7,0.7-1.1h0.1
			c0.1,0.2,0.1,0.5,0.2,0.6c1.9,1.2,4,2.4,5.9,3.5C1231.1,525.6,1231.2,524.2,1232.5,525z"/>
		<path class="st9" d="M1220.5,523.8c0.1-0.2,0.2-0.5,0.2-0.7c-1.5-0.9-2.9-1.7-4.4-2.6c-0.6-0.4-1.4-0.7-2-1.1l0,0l0,0
			c0.2-0.2,0.2-0.4,0.4-0.6c0.1,0.2,0.2,0.4,0.3,0.5c2,1.2,4,2.4,6.1,3.6c0.3-0.5,0.6-0.9,0.9-1.3c-2-1.2-4.1-2.4-6.1-3.6
			c-0.2-0.1-0.4,0.1-0.6,0.2c0.2-0.4,0.5-0.8,0.7-1.2c-0.2,0.5,0,0.7,0.5,1.1c1.9,1.1,3.7,2.3,5.6,3.4c0.2-0.2,0.5-0.5,0.7-0.6
			C1222,521.6,1221.2,522.6,1220.5,523.8z"/>
		<path d="M1222.8,520.5C1222.7,520.5,1222.7,520.5,1222.8,520.5C1222.7,520.5,1222.7,520.5,1222.8,520.5L1222.8,520.5z"/>
		<path class="st9" d="M1214.6,515.4c-0.4,0.6-0.8,1.1-1.3,1.6c0.1-0.2,0.2-0.5,0.2-0.7c-2.1-1.3-4.1-2.6-6.2-4
			c-0.2,0.1-0.3,0.2-0.5,0.4c0.2-0.4,0.5-0.8,0.7-1.2c0.2,0.2,0.2,0.6,0.4,0.8c1.9,1.3,3.9,2.5,5.8,3.6
			C1214,515.8,1214.3,515.7,1214.6,515.4z"/>
		<path class="st15" d="M1222.8,520.5c0.5-0.6,1.1-0.6,1.5-0.1c0.6,0.6,0.5,1.1-0.1,1.7h-0.1c0.2-0.5,0.6-1.1,0-1.5
			C1223.8,520.3,1223.2,520.5,1222.8,520.5L1222.8,520.5z"/>
		<path class="st16" d="M1164.2,511.1c2.2,0.2,4.4,0.5,6.6,0.7c-0.4,3.5-0.7,6.9-1.1,10.4c-2.2-0.2-4.3-0.5-6.5-0.6
			C1163.6,518.1,1163.9,514.7,1164.2,511.1z"/>
		<path class="st16" d="M1170.9,503.5c-2.1,0-4.1,0-6.3,0c0-3.5,0-6.9,0-10.4c2,0,4.1,0,6.3,0C1170.9,496.6,1170.9,500,1170.9,503.5
			z"/>
		<path class="st12" d="M1167,522.4c0.2,0.2,0.4,0.3,0.5,0.6c0.3,0.6,0.7,1,1.5,0.8c0.7-0.1,1.1-0.6,1.1-1.3c0.4-3.5,0.8-7,1.1-10.5
			c0-0.4-0.4-1.1-0.7-1.4c-0.5-0.4-1-0.2-1.5,0.2c-0.2,0.2-0.6,0.3-1,0.6c0.5-1.3,1.4-1.9,2.4-1.7c1,0.2,1.8,1.1,1.7,2.2
			c-0.4,3.6-0.7,7.1-1.1,10.8c-0.2,1.2-1.1,1.9-2.2,1.9c-1-0.1-1.7-0.9-1.8-1.9C1166.9,522.5,1167,522.4,1167,522.4z"/>
		<path class="st12" d="M1168,492.9c0.5-1.5,1.3-2,2.4-1.9c1,0.2,1.6,1,1.6,2.2c0,3.5,0,7,0,10.5c0,1.1-0.7,2-1.8,2.2
			c-1,0.2-1.9-0.6-2.3-2c0.4,0.2,0.7,0.3,0.8,0.5c0.4,0.6,0.9,0.9,1.5,0.7c0.7-0.2,1-0.7,1-1.5c0-3.4,0-6.8,0-10.2
			c0-0.7-0.2-1.3-0.9-1.6c-0.6-0.2-1.2,0.1-1.6,0.6C1168.7,492.6,1168.4,492.7,1168,492.9z"/>
		<path class="st14" d="M1232.5,526.7c-0.3,0.5-0.6,1-0.9,1.5c-0.1,0.1-0.2,0.2-0.2,0.2c-0.2,0.2-0.3,0.5-0.5,0.7
			c-0.1,0.1-0.2,0.2-0.3,0.3c-0.2,0.4-0.5,0.7-0.6,1.1l0,0l0,0l0,0c-0.2,0.2-0.4,0.6-0.6,0.6c-0.3,0.2-0.9,0.4-1.1,0.2
			c-0.2-0.2-0.2-0.7-0.3-1.1c0-0.2,0.2-0.4,0.2-0.6c0.2-0.3,0.5-0.7,0.6-1.1l0,0l0,0c0.7-1,1.5-1.9,2.1-3c0.4-0.6,0.9-1,1.6-0.7
			C1232.9,525.6,1232.9,526.1,1232.5,526.7z"/>
		<path class="st14" d="M1200.8,498.2l1.1,0.2c0.6,1.1,0.1,1.5-1.2,1.6c-1.7,0.1-3.5,0.1-5.2,0.2c-0.6,0-1.2-0.1-1.3-0.9
			c0-0.7,0.6-0.9,1.1-1C1197.1,498.3,1199.1,498.2,1200.8,498.2"/>
		<path class="st14" d="M1201.9,507.1c-1.6,0.8-3.3,1.6-4.9,2.4c-0.6,0.2-1.1,0.3-1.4-0.2c-0.3-0.6,0-1.1,0.6-1.4
			c0.7-0.3,1.5-0.7,2.3-1.1h0.1c0.9-0.4,1.7-0.8,2.6-1.2c0.6-0.2,1.1-0.3,1.5,0.3C1202.9,506.5,1202.5,506.8,1201.9,507.1z"/>
		<path class="st11" d="M1234.1,530.8c-1.1-0.6-2.1-1.1-3.2-1.6c-0.1,0.1-0.2,0.2-0.3,0.3c0,0.5,0,1.1-0.1,1.5
			c-0.1,0.6-0.3,1.1-0.6,1.6c-0.2,0.3-0.3,0.7-0.6,0.8c-0.5,0.2-1.1,0.2-1.5,0.1c-0.9-0.4-1.8-1.1-1.8-2.3c-0.1-0.9,0.6-1.8,1.6-2.2
			c0.3-0.2,0.7-0.2,1.1-0.3c0.1-0.2,0.2-0.5,0.3-0.8c-2-1.1-4-2.4-5.9-3.4c-0.2-0.1-0.5,0.1-0.8,0.1c-0.1,0.1-0.2,0.2-0.3,0.3
			c0,0.6,0,1.1,0,1.7c0,0.8-0.7,1.7-1.5,1.9c-0.9,0.2-1.8,0-2.4-0.7c-0.6-0.8-0.6-1.5-0.2-2.4c0.6-0.6,1.1-1.2,1.9-1.1
			c0.2-0.2,0.3-0.4,0.5-0.6c0.1-0.2,0.2-0.5,0.2-0.7c-1.5-0.9-2.9-1.7-4.4-2.6c-0.6-0.4-1.4-0.7-2-1.1c0,0.4-1,0.9,0,1.3
			c-0.2-0.1-0.4-0.2-0.6-0.2c0,2.4-0.6,3.2-2,3.4c-1.1,0.1-2.2-0.8-2.4-1.8c-0.2-1.4,0.5-2.3,2.4-2.8c-0.6-0.4-1.1-0.7-1.7-1.1
			c0-0.1,0.1-0.1,0.1-0.2c0.4,0.2,0.8,0.5,1.2,0.7c0.2,0.1,0.5,0.1,0.7,0.2c0.1-0.1,0.2-0.2,0.3-0.3c-0.1-0.2-0.2-0.5-0.3-0.6
			c-1.9-1.2-3.8-2.4-5.8-3.6c-0.1-0.1-0.3,0-0.5-0.1c-0.2,0.3-0.4,0.6-0.6,0.9c0,0.3-0.1,0.6-0.1,0.9c0.2,1.2-0.6,2.4-1.8,2.7
			c-1.1,0.2-2.4-0.6-2.6-1.9c-0.2-1.1,0.6-2.3,1.9-2.5c0.5-0.1,0.9-0.2,0.5-0.7c0.2-0.1,0.5-0.2,0.8-0.3c0.2-0.3,0.1-0.6-0.2-0.9
			c-1.5-1.1-3.2-2.2-4.2-4c-0.3,0.2-0.6,0.3-0.9,0.5c0.3,0.5,0.6,1,0.9,1.4c-0.1,0-0.1,0.1-0.2,0.1c-0.3-0.4-0.6-0.9-0.9-1.3
			c-0.9,1.8-1.9,2.4-3.1,1.9c-1-0.3-1.8-1.5-1.5-2.5c0.2-0.5,0.5-1.1,0.9-1.4c0.8-0.7,1.8-0.5,2.8-0.1c-0.1-0.5-0.2-0.9-0.2-1.2
			c0.1,0,0.1,0,0.1,0c0.1,0.3,0.2,0.6,0.3,0.9c0.3,0,0.6-0.1,0.8-0.1h0.1c-0.2-1.5-0.4-3-0.6-4.5c-0.1-0.6,0-1.2,0-1.8h-1.1v1.4
			c-0.1,0-0.1,0-0.2,0c-0.1-0.4-0.1-0.8-0.2-1.2c-1.5,1.1-2.6,1.2-3.5,0.2c-0.8-0.8-0.9-2-0.2-2.9c0.3-0.3,0.8-0.6,1.2-0.8
			c1-0.2,1.8,0.2,2.5,1.1c0.1-0.6,0.1-1,0.2-1.3c0.1,0,0.1,0,0.2,0c0,0.4-0.1,0.7-0.1,1.2c0.4,0,0.7-0.1,1.2-0.1v-6.8h-0.7v1.5
			c-0.1,0-0.1,0-0.2,0c-0.1-0.6-0.1-1.1-0.2-1.7c-0.4,0.2-0.6,0.5-0.8,0.6l0,0c-0.6,0.6-1.4,0.9-2.2,0.6c-0.9-0.3-1.6-1.4-1.5-2.3
			c0.1-0.9,0.8-1.9,1.7-2c0.9-0.2,1.7,0.1,2.2,0.8l0,0c0.2,0.1,0.4,0.2,0.6,0.2c0-0.4,0-0.7,0.1-1.1h0.1c0,0.3,0.1,0.6,0.2,1.1
			c0.4,0,0.7,0,1.1-0.1c0.1-1.1-0.5-1.9-1.3-2.4c-1.3-1.1-2.9-1.8-4.6-1.8c-4.8,0-9.6,0.6-14.4,1.5c-3.2,0.6-6.3,1.3-9.7,1
			c-1.1-0.1-2.3,0.8-2.4,1.9c-0.2,1.1,0,2.3,0,3.5h1.6c0.6-1.5,1.5-2.2,2.8-2c1.1,0.2,1.9,1.1,2,2.2c0,3.7,0,7.4,0,11.1
			c0,1.1-0.6,1.7-1.5,2.1c-0.8,0.4-1.7,0.2-2.3-0.4c-0.4-0.4-0.6-1-1.1-1.5h-1.2c-0.1,2.4-0.2,4.5-0.2,6.9c0.6,0.1,1.1,0.1,1.5,0.2
			c0.4-0.5,0.6-1,1.1-1.3c0.7-0.6,1.6-0.7,2.4-0.2c1,0.6,1.4,1.5,1.2,2.6c-0.2,2.2-0.5,4.5-0.7,6.7c-0.2,1.4-0.2,2.7-0.5,4.1
			c-0.2,1.1-1.1,1.8-2.3,1.9c-0.9,0.1-1.9-0.6-2.3-1.5c-0.4-1.1-0.6-1.1-1.7-0.9c-0.4,2.4-0.8,4.7-1.2,7.1c1.5,0.2,3.1,0.4,4.6,0.7
			c8.5,1.6,13.4,6.7,14.9,14.9c0.4,2,0.3,2,2.4,2c0.4,0,0.7-0.2,1.1-0.2c0.3,0.1,0.7,0.2,1.1,0.2c0.2-2.2,1.2-3.6,2.8-4.9
			c1.2-0.9,2.5-1.8,3.9-2.4c6.9-3.3,14.2-4.8,21.8-4.9c3.7-0.1,7.5-0.2,11.2-0.2c2.5,0,4.6-0.9,6.4-2.7
			C1234.2,531.7,1234.7,531.2,1234.1,530.8z M1230.8,530.5c0-0.1,0.1-0.2,0.1-0.2c0.7,0.4,1.4,0.7,2.2,1.1c0-0.2,0.1-0.3,0.1-0.5
			c0.1,0,0.1,0,0.2,0c0.1,0.2,0.2,0.5,0.3,1C1232.5,531.4,1231.6,530.9,1230.8,530.5z"/>
		<path class="st15" d="M1196.2,491.2c-0.1,0.2-0.1,0.4-0.2,0.6c-0.2,0.1-0.3,0.2-0.5,0.2c-1.1,0.6-2.3,0.2-2.8-1
			c-0.5-1,0-2.1,1.1-2.6c0.9-0.4,1.6,0,2.4,0.5c-0.3,0-0.6,0.1-1,0c-0.7-0.2-1.4-0.1-1.8,0.5s-0.4,1.2,0,1.7
			c0.5,0.6,1.1,0.7,1.9,0.4C1195.5,491.4,1195.9,491.3,1196.2,491.2z"/>
		<path class="st7" d="M1196.1,491.7L1196.1,491.7C1196,491.7,1196,491.7,1196.1,491.7C1196,491.7,1196,491.7,1196.1,491.7
			L1196.1,491.7z"/>
		<path class="st7" d="M1196.3,488.9C1196.3,488.8,1196.2,488.8,1196.3,488.9C1196.2,488.8,1196.2,488.8,1196.3,488.9L1196.3,488.9
			L1196.3,488.9z"/>
		<path class="st15" d="M1193.7,498.4c-0.6,0.4-0.6,1-0.4,1.5c0.6,1.5,1.9,0.7,3,0.5c-0.6,0.9-1.3,1.2-2.2,1c-0.8-0.2-1.5-1-1.5-1.8
			c-0.1-0.9,0.4-1.6,1.3-2c0.8-0.3,1.5-0.1,2.2,0.6C1195.3,498.3,1194.3,497.3,1193.7,498.4L1193.7,498.4z"/>
		<path class="st15" d="M1197,509.9c0.2-0.2,0.5-0.4,0.8-0.6c-0.2,1.3-1.3,1.9-2.4,1.7c-1.1-0.3-1.8-1.5-1.5-2.5
			c0.3-1,1.5-1.9,2.9-1.1c-0.5,0.1-0.7,0.2-1.1,0.2c-0.7,0.1-1.2,0.5-1.4,1.2c-0.1,0.7,0.2,1.2,0.7,1.5
			C1195.9,510.6,1196.6,510.6,1197,509.9L1197,509.9z"/>
		<path class="st15" d="M1194.3,490.8c0.2,0.2,0.2,0.4,0.3,0.5c-0.7,0.1-1.3-0.3-1.3-1.1c-0.1-0.6,0.4-1.2,1.3-1.3
			c-0.2,0.3-0.6,0.6-0.6,0.9C1194,490.2,1194.2,490.6,1194.3,490.8C1194.4,490.9,1194.3,490.8,1194.3,490.8z"/>
		<path class="st15" d="M1197.1,509.9c-0.1,0-0.2,0-0.3,0.1c-0.8,0.4-1.5,0.2-1.9-0.4c-0.4-0.6-0.2-1.2,0.7-1.8
			c-0.1,0.2-0.2,0.4-0.2,0.5c-0.3,0.8,0.1,1.5,0.9,1.6C1196.5,510,1196.7,509.9,1197.1,509.9C1197,509.9,1197.1,509.9,1197.1,509.9z
			"/>
		<path class="st15" d="M1193.7,498.4c0.3-0.1,0.6-0.2,1.1-0.2c-1.1,1.1-1,1.6,0.2,2.4c-1.2,0.1-1.8-0.7-1.3-1.8
			C1193.6,498.6,1193.6,498.5,1193.7,498.4L1193.7,498.4z"/>
		<path class="st11" d="M1170.9,504.1c-0.6,1-1.2,0.9-1.8,0C1169.7,504.1,1170.2,504.1,1170.9,504.1z"/>
		<path class="st11" d="M1168,522.6c0.6,0.1,1.1,0.1,1.6,0.2c0,0.1,0,0.2,0.1,0.3c-0.3,0.1-0.6,0.3-0.9,0.3
			c-0.3-0.1-0.6-0.3-0.9-0.6C1167.9,522.7,1167.9,522.6,1168,522.6z"/>
		<path class="st11" d="M1169.2,492.7c0.6-0.8,1-0.8,1.5,0C1170.2,492.7,1169.7,492.7,1169.2,492.7z"/>
		<path class="st11" d="M1169.1,511.4c0.7-0.7,1.1-0.7,1.8,0.1C1170.2,511.4,1169.7,511.4,1169.1,511.4z"/>
		<path class="st9" d="M1205.3,515.3c-0.3,0.4-0.7,0.8-1.1,1.2c-0.4,0.5-0.8,0.9-1.4,0.5c-0.6-0.4-0.5-1-0.1-1.5
			c0.1-0.2,0.2-0.4,0.3-0.6l0,0l0,0c0.3-0.5,0.6-1.1,1.1-1.5l0,0l0,0c-0.2,0.1-0.5,0.2-0.8,0.3c0.4,0.6,0,0.6-0.5,0.7
			c-1.2,0.2-2.1,1.4-1.9,2.5c0.2,1.2,1.5,2.1,2.6,1.9c1.2-0.2,2-1.5,1.8-2.7C1205.1,515.9,1205.2,515.6,1205.3,515.3z M1203.6,518.5
			c-1.1,0.3-2.3-0.3-2.6-1.4c-0.2-1.1,0.4-2.2,1.5-2.4c0,0,0,0,0.1,0c0.1,0,0,0,0.1,0c0,0,0.1,0,0.1,0.1c0,0,0,0,0.1,0
			c0.1,0.1,0.2,0.1,0.2,0.2c-0.2,0.2-0.6,0.4-0.8,0.6c0,0.1,0.1,0.2,0.1,0.3c0.1,1.5,0.6,1.8,1.9,1.3c-0.4,0.7-1,0.9-1.6,0.6
			c-0.6-0.2-0.9-1-0.6-1.6l0.2-0.6c-0.1,0-0.1,0.1-0.2,0.1c-0.2,0.2-0.3,0.3-0.4,0.6c0,0,0,0,0,0.1v0.1c0,0,0,0,0,0.1
			c0,0.2,0,0.6,0.2,0.8c0.2,0.6,0.8,0.9,1.5,0.8c0.7-0.1,1.1-0.6,1.3-1.3c0-0.2,0.2-0.5,0.3-0.9
			C1205.2,517.1,1204.6,518.2,1203.6,518.5z"/>
		<path class="st9" d="M1213,517.4c-0.2,0.4-0.5,0.8-0.7,1.2c-0.1-0.2-0.2-0.5-0.3-0.6c-1.9-1.2-3.8-2.4-5.8-3.6
			c-0.1-0.1-0.3,0-0.5-0.1c0.1-0.2,0.2-0.5,0.3-0.7c0.2,0.2,0.3,0.5,0.6,0.6c1.8,1.1,3.5,2.2,5.3,3.3
			C1212.4,517.9,1212.7,517.9,1213,517.4z"/>
		<path class="st9" d="M1214.2,519.4L1214.2,519.4L1214.2,519.4L1214.2,519.4c-0.2,0.1-0.2,0.1-0.3,0.2c-0.5,0.7-1,1.5-1.5,2.2
			c-0.3,0.4-0.8,0.6-1.3,0.2c-0.5-0.3-0.5-0.8-0.2-1.3c0.2-0.2,0.2-0.5,0.4-0.7l0,0l0,0c0.2-0.4,0.4-0.7,0.6-1.1
			c-0.2-0.1-0.6-0.1-0.7-0.2c-0.4-0.2-0.8-0.5-1.2-0.7c0,0.1-0.1,0.1-0.1,0.2c0.6,0.3,1.1,0.7,1.7,1.1c-1.9,0.5-2.7,1.4-2.4,2.8
			c0.2,1.1,1.3,1.9,2.4,1.8c1.5-0.2,1.9-1.1,2-3.4c0.2,0.1,0.5,0.2,0.6,0.2C1213.3,520.3,1214.2,519.8,1214.2,519.4z M1212.5,522.4
			c-0.3,0.2-0.7,0.6-1.1,0.5c-0.4,0-0.9-0.3-1.1-0.6c-0.2-0.3-0.1-0.9-0.1-1.3c0.1,0,0.2,0,0.2,0
			C1210.7,522.3,1211.2,522.6,1212.5,522.4z M1212,523.6c-1,0.3-2.2-0.2-2.5-1.3c-0.3-1,0.2-2.1,1.2-2.5c0.1,0,0.1,0,0.2,0
			c0,0,0.1,0,0.1,0.1c0.1,0,0.1,0.1,0.2,0.1c0,0,0.1,0,0.1,0.1c0.1,0,0.1,0.1,0.2,0.1c-0.2,0.2-0.5,0.2-0.6,0.4
			c-0.6,0.4-0.9,1-0.6,1.7c0.2,0.6,0.7,1.1,1.5,1c0.7,0,1.2-0.4,1.4-1.1c0.1-0.3,0.2-0.6,0.3-1.1
			C1213.5,522.2,1213,523.2,1212,523.6z"/>
		<path class="st14" d="M1224.1,521.9c-0.2,0.4-0.5,0.7-0.7,1.1c-0.1,0.1-0.2,0.2-0.2,0.2c-0.2,0.4-0.5,0.8-0.8,1.3
			c-0.1,0.1-0.2,0.2-0.3,0.3c-0.4,0.6-0.9,1.2-1.3,1.9c-0.2,0-0.4,0.1-0.6,0.1c-0.2,0-0.4,0.1-0.6,0.1l0,0l0,0l0,0
			c-0.1-0.1-0.2-0.2-0.2-0.3l0,0c-0.2-0.4-0.2-0.8,0.2-1.3c0.2-0.2,0.2-0.5,0.3-0.7c0-0.1,0.1-0.1,0.1-0.2c0.2-0.2,0.3-0.4,0.5-0.6
			c0.7-1.1,1.5-2.2,2.2-3.3c0,0,0,0,0-0.1l0,0c0.5,0,1-0.1,1.4,0.1C1224.6,520.9,1224.2,521.4,1224.1,521.9z"/>
		<path class="st15" d="M1221.2,527.9c-0.6,0.6-1.4,0.6-2.1,0.3c-0.8-0.4-1.3-1.2-1.2-2c0-0.2,0.1-0.6,0.1-0.8
			c0.6-0.6,1.1-1.2,1.9-1.1c0,0.1-0.1,0.1-0.1,0.2c-0.2,0.2-0.5,0.4-0.7,0.6c-0.6,0.4-0.9,1-0.6,1.8c0.2,0.6,0.7,1,1.5,1
			c0.8,0,1.2-0.5,1.5-1.2c0.1-0.2,0.2-0.6,0.3-1C1222,526.7,1221.8,527.4,1221.2,527.9z"/>
		<path d="M1219.5,526.9c-0.1-0.1-0.2-0.2-0.2-0.3C1219.5,526.7,1219.5,526.9,1219.5,526.9z"/>
		<path class="st9" d="M1222,526.7c0,0.8-0.7,1.7-1.5,1.9c-0.9,0.2-1.8,0-2.4-0.7c-0.6-0.8-0.6-1.5-0.2-2.4c0,0.2-0.1,0.6-0.1,0.8
			c-0.1,0.8,0.4,1.6,1.2,2s1.5,0.2,2.1-0.3c0.6-0.6,0.8-1.3,0.5-2.2c-0.2,0.4-0.2,0.6-0.3,1c-0.2,0.7-0.6,1.2-1.5,1.2
			c-0.7,0-1.2-0.3-1.5-1c-0.2-0.7,0-1.3,0.6-1.8c0.2-0.2,0.5-0.4,0.7-0.6c-0.1,0.2-0.2,0.5-0.3,0.7c-0.3,0.5-0.4,0.9-0.2,1.3
			c-0.1-0.1-0.1-0.2-0.2-0.2c-0.1-0.1-0.1-0.2-0.2-0.2c-0.1-0.2-0.2-0.2-0.2-0.4c-0.3,0.6-0.2,1.3,0.4,1.6c0.6,0.3,1.3,0.2,1.6-0.3
			c0.1-0.1-0.1-0.2-0.1-0.4c0.4-0.6,0.9-1.2,1.3-1.9C1222,525.5,1222,526,1222,526.7z"/>
		<path d="M1229.9,530.7L1229.9,530.7L1229.9,530.7z"/>
		<path class="st9" d="M1230.6,531.1c-0.1,0.6-0.3,1.1-0.6,1.6c-0.2,0.3-0.3,0.7-0.6,0.8c-0.5,0.2-1.1,0.2-1.5,0.1
			c-0.9-0.4-1.8-1.1-1.8-2.3c-0.1-0.9,0.6-1.8,1.6-2.2c0.3-0.2,0.7-0.2,1.1-0.3l0,0l0,0c-0.2,0.3-0.5,0.7-0.6,1.1h-0.1
			c0-0.2,0.1-0.3,0.2-0.5c-1.2,0.1-1.9,1-1.9,2.2c0.1,1.1,1.2,1.9,2.4,1.7c1.1-0.2,1.9-1.3,1.6-2.4l0,0l0,0l0,0l0,0
			c-0.1-0.1-0.2-0.1-0.2-0.2c0.2-0.4,0.5-0.7,0.6-1.1C1230.6,530,1230.6,530.6,1230.6,531.1z"/>
		<path class="st9" d="M1192.8,491c0.6,1.1,1.7,1.5,2.8,1c0.2-0.1,0.3-0.2,0.5-0.2l0,0l0,0c-0.6,0.6-1.4,0.9-2.2,0.6
			c-0.9-0.3-1.6-1.4-1.5-2.3c0.1-0.9,0.8-1.9,1.7-2c0.9-0.2,1.7,0.1,2.2,0.8l0,0c0,0,0,0-0.1,0c-0.7-0.5-1.5-0.9-2.4-0.5
			C1192.8,488.8,1192.3,490,1192.8,491z"/>
		<path class="st9" d="M1233.6,532c-1.1-0.6-1.9-1.1-2.8-1.5c0-0.1,0.1-0.2,0.1-0.2c0.7,0.4,1.4,0.7,2.2,1.1c0-0.2,0.1-0.3,0.1-0.5
			c0.1,0,0.1,0,0.2,0C1233.3,531.2,1233.4,531.5,1233.6,532z"/>
		<path class="st9" d="M1228.1,529.8c-0.1,0.2-0.3,0.4-0.2,0.6c0,0.4,0.1,1,0.3,1.1s0.8,0,1.1-0.2c0.2-0.2,0.4-0.5,0.6-0.7l0,0
			c-0.1,0.2-0.1,0.4-0.2,0.6c-0.2,1-0.6,1.5-1.5,1.4c-0.7,0-1.2-0.4-1.4-1.1C1226.7,530.8,1227.1,530.2,1228.1,529.8L1228.1,529.8z
			 M1229.3,531.9c-1.7,0.2-1.7-0.5-1.9-1.5c-0.5,0.7-0.4,1.5,0.2,1.9C1228.2,532.6,1228.8,532.5,1229.3,531.9z"/>
		<path class="st15" d="M1202.1,515.5c-0.6,0.4-0.7,1.1-0.5,1.7c0.2,0.6,0.8,0.9,1.5,0.8c0.7-0.1,1.1-0.6,1.3-1.3
			c0-0.2,0.2-0.5,0.3-0.9c0.4,1.2-0.1,2.3-1.1,2.7c-1.1,0.3-2.3-0.3-2.6-1.4c-0.2-1.1,0.4-2.2,1.5-2.4c0.1,0,0.2,0.2,0.4,0.2l0,0
			C1202.7,515.1,1202.4,515.3,1202.1,515.5L1202.1,515.5z"/>
		<path class="st15" d="M1202.1,515.5c0,0.1,0.1,0.2,0.1,0.3c0.1,1.5,0.6,1.8,1.9,1.3c-0.4,0.7-1,0.9-1.6,0.6
			c-0.6-0.2-0.9-1-0.6-1.6C1201.9,515.9,1202,515.7,1202.1,515.5L1202.1,515.5z"/>
		<path class="st15" d="M1211.3,520c-0.2,0.2-0.5,0.2-0.7,0.4c-0.6,0.4-0.9,1-0.6,1.7c0.2,0.6,0.7,1.1,1.5,1c0.7,0,1.2-0.4,1.4-1.1
			c0.1-0.3,0.2-0.6,0.3-1.1c0.4,1.3-0.1,2.3-1.1,2.7c-1,0.3-2.2-0.2-2.5-1.3c-0.3-1,0.2-2.1,1.2-2.5
			C1210.9,519.8,1211.1,520,1211.3,520L1211.3,520z"/>
		<path class="st15" d="M1210.5,520.9c0.2,1.4,0.6,1.7,2,1.5c-0.3,0.2-0.7,0.6-1.1,0.5c-0.4,0-0.9-0.3-1.1-0.6
			c-0.2-0.3-0.1-0.9-0.1-1.3C1210.4,520.9,1210.5,520.9,1210.5,520.9z"/>
		<path class="st15" d="M1220.8,526.8c0,0.2,0.2,0.3,0.1,0.4c-0.3,0.6-1.1,0.6-1.6,0.3c-0.6-0.4-0.7-1-0.4-1.6
			c0.2,0.3,0.5,0.7,0.7,1.1C1219.9,526.9,1220.3,526.9,1220.8,526.8z"/>
		<path class="st15" d="M1228.1,529.8c-1,0.4-1.4,1-1.1,1.8c0.2,0.7,0.6,1.1,1.4,1.1c0.8,0,1.3-0.4,1.5-1.4c0.1-0.2,0.1-0.4,0.2-0.6
			c0.1,0.1,0.3,0.1,0.3,0.2c0.2,1-0.6,2.2-1.6,2.4c-1.1,0.2-2.3-0.6-2.4-1.7c-0.2-1.2,0.6-2.1,1.9-2.2
			C1228.1,529.5,1228.1,529.6,1228.1,529.8z"/>
		<path class="st15" d="M1229.3,531.9c-0.5,0.6-1.1,0.7-1.6,0.3c-0.6-0.4-0.6-1.1-0.2-1.9C1227.5,531.4,1227.6,532.1,1229.3,531.9z"
			/>
	</g>
	<g id="mhKcRL.tif">
		<g>
			<path class="st17" d="M1744.6,489.9c4.8,1.3,8.5,4.1,10.9,8.4c6.7,11.4,13.1,22.8,19.7,34.2c1.7,3,0.6,5.8-2.6,7.8
				c-3.2,1.9-6.6,2.8-10.2,3.5c-0.6,0.1-1.2-0.2-1.6,0.4c-46.3,0-92.5,0-138.8,0c-3.4-0.3-6.8-1-9.8-2.6c-2-1.1-3.7-2.5-4.6-4.8
				c0-1.1,0-2.1,0-3.1c8-11.8,16.1-23.5,24.1-35.4c2.9-4.3,6.7-7.1,11.7-8.4c0.4-0.1,0.7-0.1,1.1-0.2c0.6,1,0.2,2,0,3
				c-0.9,4.9-2.3,9.6-3,14.4c-0.4,2.8,0.6,4.8,2.6,6.5c4.5,3.6,9.7,5.1,15.1,6.5c9.2,2.4,18.5,3.2,28,3.7
				c12.2,0.6,24.2-0.2,36.1-2.2c6.5-1.1,12.9-2.7,18.7-5.8c1.1-0.6,2-1.1,2.9-1.9c2.7-2.1,3.6-4.5,2.6-8c-1.4-4.6-2.2-9.5-3.2-14.2
				C1744.2,491.1,1743.9,490.4,1744.6,489.9z"/>
			<path class="st18" d="M1747.1,512.4c-2.3,2.8-5.4,4.2-8.6,5.5c-6.8,2.8-13.9,4.1-21.1,5.1c-11.5,1.6-23.2,1.9-34.8,1.1
				c-10.9-0.7-21.7-2.2-32-6.2c-1.5-0.6-3.1-1.4-4.5-2.3c-5.4-3.2-6.2-5.4-4.9-11.4c1.1-4.9,2.1-9.8,3.2-14.8
				c4.1-18.7,8.2-37.5,12.2-56.2c0.2-0.6,0.2-1.1,0.4-1.7c0.6-0.5,1.1-0.2,1.6,0c2.7,1.1,5.3,2.3,8.1,3.1c0.5,0.2,0.9,0.5,1.1,1
				c0,0,4.4,1.5,10.4,2.3l0.1-0.1c1.7-0.6,3.3,0,5,0.2c12.4,1.1,24.6,0.2,36.6-3.2c3.3-1,6.6-2,9.8-3.2c0.7-0.2,1.4-0.8,2.2-0.2
				c4.1,19,8.2,37.9,12.2,56.8c0.1,0.4,0.2,0.9,0.4,1.3c1.1,5.8,2.3,11.7,3.8,17.4C1748.9,509.3,1748.4,511,1747.1,512.4z"/>
			<path class="st18" d="M1717.8,366.7c-8.8,2.6-17.9,3.3-27.1,2.8c-0.7,0-1.4,0-2.1,0c-0.4,0-0.8,0-1.2,0c0,0,0,0-0.1,0
				c-0.2,0-0.5-0.1-0.8-0.1c-2.8-0.3-7.3-1.1-8.6-1.4c0,0.1-0.1,0.1-0.2,0.1c-2.4,0.3-4.7,0.1-6.7-1.5c3.2-14.8,6.5-29.6,9.7-44.4
				c0.2-1.2,0.5-2.4,0.8-3.6c0.7-3.2,1.9-4.6,5.3-5c5.2-0.7,10.4-0.8,15.5,0.2c2.8,0.5,4.5,2.1,5,4.9c3.3,15.6,6.7,31.1,10.1,46.6
				C1717.7,365.8,1717.8,366.2,1717.8,366.7z"/>
			<path class="st19" d="M1687.4,369.5c-0.3,0.2-0.6,0.2-0.8-0.1C1686.9,369.5,1687.3,369.5,1687.4,369.5z"/>
			<path class="st17" d="M1694.6,317.4c-2.3,0.1-4.5-0.2-6.7-0.8c-0.3-0.1-0.8-0.2-0.7-0.7c0.1-0.4,0.5-0.4,0.7-0.5
				c4.5-1,9.1-1,13.6,0c0.3,0.1,0.7,0.1,0.7,0.5c0,0.5-0.4,0.6-0.8,0.7C1699.3,317.2,1697,317.4,1694.6,317.4z"/>
			<path class="st18" d="M1688.7,369.5c-0.1,0.1-0.2,0.1-0.3,0.1c-0.2,0-0.6,0-0.9-0.1c0,0,0,0,0.1,0
				C1687.9,369.5,1688.3,369.5,1688.7,369.5z"/>
			<path class="st7" d="M1680.9,438.5c11.4,1.5,22.6,0.9,33.8-1.5c5.9-1.2,11.6-3.2,17.2-5.2c-0.1-0.5-0.1-1.1-0.2-1.5
				c-1-4.3-2-8.6-2.9-13c-1.3-5.9-2.4-11.9-3.7-17.9c-1.1-5.4-2.5-10.7-3.6-16.1c-1.1-5.5-2.3-11-3.6-16.5c-0.7-0.5-1.5-0.2-2.3,0
				c-1.5,0.3-2.9,0.7-4.4,1.1c-6.7,1.4-12.6,1.8-19.4,1.7c-1.2,0-2.9,0.1-4.4-0.1c-5.9-0.7-13.1-1.9-13.1-1.9l-0.3-0.1
				c-1-0.2-1.9-0.5-2.8-0.7c-0.6,2.3-1.1,4.5-1.6,6.7c-1,4.6-1.8,9.2-2.8,13.9c-0.9,4.2-2.1,8.4-3,12.7c-1.5,6.5-2.9,13.1-4.2,19.6
				c-0.8,4.1-2.1,8.1-2.4,12.2c3.5,1.3,7.1,2.6,10.5,3.9c0.1-0.1,0.5,0.4,0.6,0.3c2.2,0.8-1.9-0.6,3,1.1c0.1,0,1.6,0.3,2.3,0.4
				L1680.9,438.5z"/>
		</g>
	</g>
	<g id="mhKcRL.tif_1_">
		<g>
			<path class="st17" d="M920,489.9c4.8,1.3,8.5,4.1,10.9,8.4c6.7,11.4,13.1,22.8,19.7,34.2c1.7,3,0.6,5.8-2.6,7.8
				c-3.2,1.9-6.6,2.8-10.2,3.5c-0.6,0.1-1.2-0.2-1.6,0.4c-46.3,0-92.5,0-138.8,0c-3.4-0.3-6.8-1-9.8-2.6c-2-1.1-3.7-2.5-4.6-4.8
				c0-1.1,0-2.1,0-3.1c8-11.8,16.1-23.5,24.1-35.4c2.9-4.3,6.7-7.1,11.7-8.4c0.4-0.1,0.7-0.1,1.1-0.2c0.6,1,0.2,2,0,3
				c-0.9,4.9-2.3,9.6-3,14.4c-0.4,2.8,0.6,4.8,2.6,6.5c4.5,3.6,9.7,5.1,15.1,6.5c9.2,2.4,18.5,3.2,28,3.7
				c12.2,0.6,24.2-0.2,36.1-2.2c6.5-1.1,12.9-2.7,18.7-5.8c1.1-0.6,2-1.1,2.9-1.9c2.7-2.1,3.6-4.5,2.6-8c-1.4-4.6-2.2-9.5-3.2-14.2
				C919.7,491.1,919.5,490.4,920,489.9z"/>
			<path class="st18" d="M922.6,512.4c-2.3,2.8-5.4,4.2-8.6,5.5c-6.8,2.8-13.9,4.1-21.1,5.1c-11.5,1.6-23.2,1.9-34.8,1.1
				c-10.9-0.7-21.7-2.2-32-6.2c-1.5-0.6-3.1-1.4-4.5-2.3c-5.4-3.2-6.2-5.4-4.9-11.4c1.1-4.9,2.1-9.8,3.2-14.8
				c4.1-18.7,8.2-37.5,12.2-56.2c0.2-0.6,0.2-1.1,0.4-1.7c0.6-0.5,1.1-0.2,1.6,0c2.7,1.1,5.3,2.3,8.1,3.1c0.5,0.2,0.9,0.5,1.1,1
				c0,0,4.4,1.5,10.4,2.3l0.1-0.1c1.7-0.6,3.3,0,5,0.2c12.4,1.1,24.6,0.2,36.6-3.2c3.3-1,6.6-2,9.8-3.2c0.7-0.2,1.4-0.8,2.2-0.2
				c4.1,19,8.2,37.9,12.2,56.8c0.1,0.4,0.2,0.9,0.4,1.3c1.1,5.8,2.3,11.7,3.8,17.4C924.4,509.3,923.9,511,922.6,512.4z"/>
			<path class="st18" d="M893.3,366.7c-8.8,2.6-17.9,3.3-27.1,2.8c-0.7,0-1.4,0-2.1,0c-0.4,0-0.8,0-1.2,0c0,0,0,0-0.1,0
				c-0.2,0-0.5-0.1-0.8-0.1c-2.8-0.3-7.3-1.1-8.6-1.4c0,0.1-0.1,0.1-0.2,0.1c-2.4,0.3-4.7,0.1-6.7-1.5c3.2-14.8,6.5-29.6,9.7-44.4
				c0.2-1.2,0.5-2.4,0.8-3.6c0.7-3.2,1.9-4.6,5.3-5c5.2-0.7,10.4-0.8,15.5,0.2c2.8,0.5,4.5,2.1,5,4.9c3.3,15.6,6.7,31.1,10.1,46.6
				C893.1,365.8,893.3,366.2,893.3,366.7z"/>
			<path class="st19" d="M862.9,369.5c-0.3,0.2-0.6,0.2-0.8-0.1C862.4,369.5,862.7,369.5,862.9,369.5z"/>
			<path class="st17" d="M870.1,317.4c-2.3,0.1-4.5-0.2-6.7-0.8c-0.3-0.1-0.8-0.2-0.7-0.7c0.1-0.4,0.5-0.4,0.7-0.5
				c4.5-1,9.1-1,13.6,0c0.3,0.1,0.7,0.1,0.7,0.5c0,0.5-0.4,0.6-0.8,0.7C874.8,317.2,872.4,317.4,870.1,317.4z"/>
			<path class="st18" d="M864.1,369.5c-0.1,0.1-0.2,0.1-0.3,0.1c-0.2,0-0.6,0-0.9-0.1c0,0,0,0,0.1,0
				C863.4,369.5,863.8,369.5,864.1,369.5z"/>
			<path class="st7" d="M856.4,438.5c11.4,1.5,22.6,0.9,33.8-1.5c5.9-1.2,11.6-3.2,17.2-5.2c-0.1-0.5-0.1-1.1-0.2-1.5
				c-1-4.3-2-8.6-2.9-13c-1.3-5.9-2.4-11.9-3.7-17.9c-1.1-5.4-2.5-10.7-3.6-16.1c-1.1-5.5-2.3-11-3.6-16.5c-0.7-0.5-1.5-0.2-2.3,0
				c-1.5,0.3-2.9,0.7-4.4,1.1c-6.7,1.4-12.6,1.8-19.4,1.7c-1.2,0-2.9,0.1-4.4-0.1c-5.9-0.7-13.1-1.9-13.1-1.9l-0.3-0.1
				c-1-0.2-1.9-0.5-2.8-0.7c-0.6,2.3-1.1,4.5-1.6,6.7c-1,4.6-1.8,9.2-2.8,13.9c-0.9,4.2-2.1,8.4-3,12.7c-1.5,6.5-2.9,13.1-4.2,19.6
				c-0.8,4.1-2.1,8.1-2.4,12.2c3.5,1.3,7.1,2.6,10.5,3.9c0.1-0.1,0.5,0.4,0.6,0.3c2.2,0.8-1.9-0.6,3,1.1c0.1,0,1.6,0.3,2.3,0.4
				L856.4,438.5z"/>
		</g>
	</g>
</g>
<g>
	<path class="st8" d="M1347.4,328.9c-1,1.3-1.8,2.4-2.7,3.6c-0.9,1.2-0.9,2.4-0.2,3.4c0.1,0.2,0.3,0.4,0.5,0.5
		c0.9,0.7,1.8,1.3,2.7,2c1.2,0.8,2.7,0.6,3.6-0.5c0.8-1.1,1.6-2.2,2.4-3.3c0.1-0.2,0.3-0.3,0.5-0.6c0.6,2.1,0.5,4-0.5,5.8
		c-1.5,2.6-3.8,4-6.9,3.9c-0.3,0-0.5,0.1-0.6,0.4c-0.2,0.5-0.5,1-0.8,1.4c-5.2,7-10.3,14-15.5,21c-1,1.3-2.3,2-4,1.9
		c-2.9-0.2-4.5-3.4-3.2-6c0.3-0.5,0.5-0.9,0.8-1.3c4.9-6.7,9.9-13.3,14.8-20c0.5-0.6,1-1.2,1.6-1.7c0.3-0.2,0.2-0.4,0.1-0.6
		c-0.9-2.6-0.5-5.1,1.3-7.2C1343,329.8,1344.9,328.9,1347.4,328.9z"/>
	<path class="st8" d="M1324.9,366.5c-1.1-0.8-1.4-2.5-0.5-3.6c0.8-1.1,2.5-1.3,3.6-0.6c1.1,0.8,1.4,2.5,0.6,3.6
		C1327.7,367.1,1326,367.3,1324.9,366.5z"/>
</g>
</svg>
