<?xml version="1.0" encoding="utf-8"?>
<!-- Generator: Adobe Illustrator 19.1.0, SVG Export Plug-In . SVG Version: 6.00 Build 0)  -->
<svg version="1.1" id="Layer_1" xmlns="http://www.w3.org/2000/svg" xmlns:xlink="http://www.w3.org/1999/xlink" x="0px" y="0px"
	 viewBox="489 -149.8 1459.1 911.8" style="enable-background:new 489 -149.8 1459.1 911.8;" xml:space="preserve">
<style type="text/css">
	.st0{fill:#7CB6C0;}
	.st1{fill:#43698E;}
	.st2{fill:#6BA1A6;}
	.st3{fill:#9F6C30;}
	.st4{fill:#A6DCE8;}
	.st5{fill:none;stroke:#7CB6C0;stroke-width:1.347;stroke-miterlimit:10;}
	.st6{fill:#F4FAFC;}
	.st7{fill:#1B1F36;}
	.st8{fill:#FFFFFF;}
	.st9{fill:#63AFAF;stroke:#154F4D;stroke-miterlimit:10;}
	.st10{fill:#63AFAF;}
	.st11{fill:#6BA2A7;stroke:#08383A;stroke-miterlimit:10;}
	.st12{fill:#407F82;stroke:#407F82;stroke-miterlimit:10;}
	.st13{fill:#1E6468;stroke:#08383A;stroke-miterlimit:10;}
	.st14{fill:#08383A;}
	.st15{fill:#C795C3;stroke:#407F82;stroke-miterlimit:10;}
	.st16{fill:#407F82;}
	.st17{fill:#C795C3;}
	.st18{fill:#603F19;}
	.st19{fill:#F68921;}
	.st20{fill:#F57F20;}
</style>
<g>
	<path class="st0" d="M1004.2,515.9l3.1,33.1c0,0-13.5,12.4-20.1,4.4c-6.6-8,1.5-8.7,1.5-8.7s-25.6,1.9-15.1-10.7
		c0,0-15.9-13.2-0.2-14.6c0,0-13.4-17.4,7.1-17.9c0,0,6.1-22.8,21.4-3.5L1004.2,515.9z"/>
	<path class="st0" d="M1233.9,386.8c11.5,8.6,54.8,128.9,54.8,128.9s-0.8,13.7-11.7,14.3c-10.9,0.6-2.8-12.9-2.8-12.9
		s-21.5,11.4-20-6.3c0,0-26.1,6.9-9.1-18.1l-56.9-85.9c-4.6-6.9-5.8-15.6-2.9-23.4C1189.7,372.2,1201.5,362.7,1233.9,386.8z"/>
	<path class="st1" d="M1240.7,349.4C1240.7,349.4,1240.7,349.4,1240.7,349.4c-0.2-0.6-0.3-1.3-0.5-1.9c0,0-1.6-1.9-4.7-4.4
		c4.1,3.7,5.2,7.7,5.5,9C1240.9,351.6,1240.8,350.7,1240.7,349.4z"/>
	<path class="st2" d="M1107.4,635.4c0,0,40.2,3.8,56.8-0.7c0,0,6.9,17.3-2.1,32.5c0,0-1.5,4.8,5.7,4.2c7.2-0.6,22.1-0.1,29.5,4.8
		c7.3,5,32.9,5.7,33.1-5c0.1-10.7-15.8-9.3-18.3-9.3c-2.5,0-35-2.2-35-2.2s-4.8-7.3,6.4-15.1c11.2-7.7,33.1-20.5,33.6-26.3
		c0.6-5.8-1-8.6-1-8.6l-97.2-14.1L1107.4,635.4z"/>
	<path class="st3" d="M1138.9,260.1c-0.1,0.1-0.2,0.2-0.5,0.5c-0.2,0.2-0.4,0.3-0.6,0.5C1138.4,260.5,1138.8,260.2,1138.9,260.1z"/>
	<path class="st2" d="M1241,352.1c-0.3-1.3-1.3-5.4-5.5-9 M1052.2,232.4 M1240.7,349.4c-0.6-5.9,5.1-17.5,7.1-24.7
		c8.4,3.8,10.7-1.1,15.2-3.6c0.9-0.1,1.8-0.2,2.7-0.3c-0.8,9.9,8.4,11,8.4,11c-2.5-7.2-0.6-10.7,1.2-12.2c0.6-0.1,1.2-0.1,1.7-0.2
		c-1.6,5,4.1,8.8,4.1,8.8c-0.2-4.9,2.5-5.8,5-5.6c3.2,7.4,14.8,6.6,14.8,6.6c-3.6,0,4.2-25.5,4.2-25.5c10.9-2.1,32.3-39,32.3-39
		c2.6,5.2,15.1,4.7,15.1,4.7c-6.8-5.7-8.8-17.2-8.8-17.2c3.1-23.9-5.2-44.5-5.2-44.5l18.2-2.7l-18.2-12.4
		c11.4,1.2,19.8-3.1,19.8-3.1c-17.9,0.9-32.9-9.1-32.9-9.1c-11.5-15.8-24.1-26.1-34.7-32.8c4-0.6,7.2-2.3,7.2-5.9
		c0,0-4.2,3.4-12.5,2.7c-11.1-6.2-18.9-8.1-18.9-8.1c2.8-3.3,18.8-3.3,18.8-3.3c-8.9-7-28-1.2-28-1.2c-0.7-6.3,13.2-13.9,13.2-13.9
		c-10.3-2.6-18.6,7.3-18.6,7.3s-7.3-28.9-6.3-18.8c0.9,10.1-5.6,16.2-5.6,16.2c-4.9-0.5-9.9-15.5-9.9-15.5l0.7,16.4l0.1,3.1
		c-0.3-1.3-0.8-2.4-1.5-3.4c-6.1-8.5-26.6-5.9-26.6-5.9c2.8,0,6.2,1.5,9.4,3.3c-6-0.6-12.4-1.8-19.2-1.1c-12.7,1.2-27.3,6-49.7,11.3
		c-24,5.7-41.1,23.3-41.1,23.3s-20.4,18.7-31.6,44.8c0,0-0.7,1-1.4,3l-42.5,117.3c0,0-26.8,67.8-37.5,129.6
		c-1.4,8.3-2,16.7-1.7,25.2c1,27.4,6.4,91.1,34.4,118.7c7.6,7.5,35.8,30,42.6,30c0,0,8.2,19.5,2.2,37.9c0,0-2.4,10.3-5.7,13.7
		c0,0-3.5,4,1.2,7.1c0,0,2.7,2.5,12.7-0.2c10-2.7,27.6,4.7,27.6,4.7s33.6,9.4,41.5-2.2c8-11.7-21.7-12.7-21.7-12.7l-42.8-2.7
		c0,0-4.9-11.5,3.1-17.4c0,0,16.6-19,28-15.4c0,0,23.1,2.7,20.9-33.2c41.6,27.6,84.7,7.3,84.7,7.3S1276.5,499.2,1240.7,349.4
		 M1078.5,161.2 M1106.8,133.6 M1037.2,258.9c-0.2,0.2-0.4,0.3-0.6,0.5c0.4-0.3,0.7-0.6,0.9-0.7
		C1037.4,258.7,1037.4,258.8,1037.2,258.9z M1233,341.3c0.8,0.5,1.6,1.1,2.3,1.7C1234.6,342.4,1233.9,341.8,1233,341.3z"/>
	<path class="st0" d="M1314.7,213.8c8.3,13.1,14.5,22.7-8.1,60.5c-22.8,38.2-56.3,19.9-56.3,19.9s-21.7-16.7-50.3-7.6
		c-28.6,9.2-44.8,9.2-55.4-9.2c-10.7-18.3-7.2-47.8,7.2-64.9c14.5-17.1,29.2-35.3,69.1-27.1c7.5,1.6,11.9,3.6,26.9,14.3
		s35.5,5.5,47.3,4.4C1300.6,203.7,1309,204.8,1314.7,213.8z"/>
	<g>
		<path class="st4" d="M1240.1,236.5c0,0,5.1-1.6,7.1,1.8c2,3.4,8.1,5.1,9.5,0c1.4-5.1-4-11.7-10.1-12.3c-6.1-0.6-13.4-1-16.4,7.1
			C1227.3,241.3,1240.1,236.5,1240.1,236.5z"/>
		<circle class="st1" cx="1250.5" cy="235" r="1.1"/>
		<circle class="st1" cx="1236.2" cy="233" r="1.2"/>
	</g>
	<path class="st2" d="M1272.9,211.4l1.3,5.2c0,0,25.4-3.7,31.2,19.1C1305.4,235.7,1309.3,208.2,1272.9,211.4z"/>
	<path class="st2" d="M1228.9,200l-3.7,4.5c0,0-20.2-16.8-37.9,2.8C1187.4,207.3,1195.3,181.5,1228.9,200z"/>
	<path class="st5" d="M1117.7,167.8c0,0-18.3,3.3-30.5,28.3c0,0,24.9-12.7,35.5-10c0,0-19.9,15-19.9,36c0,0,42.7-46.5,77-49.9"/>
	<path class="st5" d="M1096.6,258.5c0,0-8.5,8.1-9,20.4l15.7-11.4c0,0-7.6,14.2-4.7,24.2"/>
	<path class="st0" d="M1256.4,139.8l12.2,4.4c0,0,16.7-67.6,19.5-78.6c2.1-8.2-7.1-16.4-12.5-12.2S1260.5,66.7,1256.4,139.8z"/>
	<path class="st4" d="M1258.3,139.9l8.5,3.1c0,0,11.6-47.1,13.6-54.8c1.5-5.7-4.9-11.5-8.7-8.5C1267.9,82.6,1261.2,89,1258.3,139.9z
		"/>
	<g>
		<circle class="st6" cx="1280.9" cy="239.9" r="19.8"/>
		<circle class="st7" cx="1280" cy="240.2" r="8.4"/>
		<path class="st4" d="M1261.2,241.4c0,0,25.5,0,36.8,9.2c0,0-7.6,11.7-21.2,8.6C1264.3,256.5,1261.2,245.8,1261.2,241.4z"/>
	</g>
	<g>
		<circle class="st6" cx="1207.7" cy="225.7" r="19.8"/>
		<circle class="st7" cx="1206.8" cy="226.2" r="8.4"/>
		<path class="st4" d="M1188.5,231.2c0,0,24.4-4.7,37.7,2c0,0-5,12.4-18.2,12.3C1194.8,245.4,1189.5,235.5,1188.5,231.2z"/>
	</g>
	<path class="st2" d="M1219.5,244.2c-1.2-6,6.6-9.6,10.4-4.8c2,2.5,5.7,5.7,11.7,6.5c7.3,0.9,12.1-1.1,14-2.6c2.4-1.8,3.5-1,4.7-0.9
		c1.4,0.1,5,5.3,3.4,9.3c-3,7.3-11.5,8.3-18.5,7.9c-15.3-1-24.1-8.2-25.6-15.2C1219.5,244.3,1219.5,244.2,1219.5,244.2z"/>
	<path class="st4" d="M1228.9,242.4c0,0,3.9,6.5,14.2,8c7.3,1.1,11-1,12.6-2.3c0.9-0.8,2.1-1.3,3.4-1.1c1.4,0.1,2.7,0.9,1.2,3.8
		c-2.7,5.3-10.9,5.8-18,5c-7-0.9-17-6-18.8-11.3C1221.6,239.2,1227.6,239.8,1228.9,242.4z"/>
	<circle class="st4" cx="1190.5" cy="249.4" r="4.2"/>
	<ellipse class="st4" cx="1293.1" cy="267.4" rx="6.3" ry="4.2"/>
	<polygon class="st8" points="1238.1,249.2 1238.1,252.8 1241,253.2 1241.3,250.1 	"/>
	<polygon class="st8" points="1242.2,250.3 1242.3,253.3 1244.9,253.3 1245.1,250.6 	"/>
	<path class="st8" d="M1234.2,247.3l2.9,1.6c0,0-0.3,1.7-2.4,1.1C1232.5,249.5,1234.2,247.3,1234.2,247.3z"/>
	<path class="st8" d="M1230.7,244.6l2.7,2.1c0,0-0.3,1.7-2.4,1.1C1228.8,247.3,1230.7,244.6,1230.7,244.6z"/>
	<path class="st8" d="M1228.3,241.5l2,2.8c0,0-0.8,1.6-2.7,0.4C1225.7,243.5,1228.3,241.5,1228.3,241.5z"/>
	<path class="st8" d="M1254.4,249l2.3-1.6c0,0,1.9,1.3,0.2,2.8C1255.2,251.6,1254.4,249,1254.4,249z"/>
	<path class="st8" d="M1250.2,250.4l3.3-1.1c0,0,1.3,1.2-0.4,2.7C1251.3,253.5,1250.2,250.4,1250.2,250.4z"/>
	<path class="st8" d="M1246.3,250.7l3.5-0.1c0,0,0.9,1.5-1.2,2.4C1246.5,253.9,1246.3,250.7,1246.3,250.7z"/>
</g>
<g>
	<path class="st9" d="M1311.3,439.4c-2.3,3.1-4.3,5.8-6.4,8.6c-2.1,2.9-2.2,5.6-0.4,8c0.3,0.5,0.8,0.9,1.2,1.2
		c2.1,1.6,4.2,3.1,6.4,4.7c2.8,2,6.4,1.5,8.6-1.3c2-2.6,3.9-5.3,5.8-7.9c0.3-0.4,0.6-0.8,1.1-1.4c1.5,5,1.2,9.5-1.2,13.8
		c-3.5,6.3-9,9.4-16.3,9.3c-0.8,0-1.1,0.2-1.4,1c-0.4,1.3-1.1,2.4-1.9,3.4c-12.3,16.6-24.6,33.3-36.9,49.9c-2.3,3.2-5.5,4.8-9.4,4.5
		c-6.8-0.4-10.7-8-7.5-14.2c0.6-1.1,1.2-2.2,2-3.2c11.7-15.9,23.5-31.7,35.2-47.6c1.1-1.5,2.3-2.9,3.8-4c0.7-0.5,0.5-0.9,0.3-1.5
		c-2.1-6.3-1.1-12.1,3.1-17.2C1301,441.5,1305.5,439.5,1311.3,439.4z"/>
	<path class="st10" d="M1257.8,528.8c-2.7-2-3.3-5.9-1.3-8.6c1.9-2.6,5.9-3.2,8.5-1.4c2.6,1.9,3.3,6,1.4,8.6
		C1264.5,530.1,1260.5,530.8,1257.8,528.8z"/>
</g>
<g id="K9069P_1_">
	<g>
		<path class="st9" d="M1115,482.4c9.8-6.2,19.6-12.3,29.3-18.5c4.6-3,9.2-3.4,13.9-0.6c0.8,0.5,1.3,0.3,2-0.1
			c5.3-3.3,10.5-6.7,15.8-10c0.7-0.4,0.9-1.1,1.2-1.7c2-5.3,5-9.3,11.1-10.7c4.6-1,8.9-3.1,13.2-4.8c1.1-0.4,1.7-0.2,2.3,0.7
			c1.1,1.9,2.2,3.7,3.5,5.5c0.7,0.9,0.7,1.5-0.2,2.4c-4.9,4.8-9.9,9.5-14.7,14.5c-0.7,0.7-1.4,0.8-2.2,0.7
			c-6.5-0.7-11.8,1.6-16.8,5.4c-2.6,1.9-5.4,3.4-8.1,5.2c-1,0.6-1.5,1.2-1.4,2.5c0.3,4.9-1.8,8.7-5.8,11.2
			c-19.9,12.7-40,25.2-59.9,37.8c-5.2,3.3-11.7,2.5-15.7-1.4c-4.1-4.1-4.8-10.4-1.7-15.3c1.2-1.9,2.8-3.1,4.6-4.1
			C1095.4,494.7,1105.2,488.6,1115,482.4z"/>
		<path class="st9" d="M1118.7,486.2c9.5-5.9,19-11.9,28.4-17.9c1.4-0.9,2.9-2.1,4.4-0.4c1,1.1,0.1,2.8-2.1,4.1
			c-19,12-38.1,24-57.1,36c-1.4,0.9-3.2,2.1-4.5,0.2c-1.2-1.8,0.6-2.9,2.1-3.9C1099.5,498.3,1109.1,492.4,1118.7,486.2z"/>
		<path class="st9" d="M1126,498.4c-9.5,6-19,12-28.6,18c-1.5,0.9-3.2,2.1-4.4,0.2c-1.2-1.8,0.7-3,2-3.9c19-12,38.1-24,57.1-36
			c0.3-0.2,0.6-0.5,0.9-0.5c1.3-0.5,2.7-1.2,3.7,0.4c0.9,1.6-0.3,2.5-1.6,3.3C1145.5,486,1135.8,492.1,1126,498.4z"/>
	</g>
</g>
<g>
	<path class="st11" d="M1267.4,680.5c0,1.8,0,3.5,0,5.3c-0.4,0-0.7,0-1.1,0c-17.2,0-34.3,0.1-51.5-0.1c-2.4,0-4.8-0.8-7.1-1.5
		c-6.6-2.1-13.4-2.9-20.3-3.3c-1.5-0.1-3-0.2-4.6-0.3c0,1.7,0,3.3,0,5c-13.3,0-26.5,0-39.7,0c0-3.1,0-6.2,0-9.4c0.3,0,0.6-0.1,1-0.1
		c12.6,0,25.2,0,37.9,0c8.1,0,16,0.8,24,2.4c6.3,1.2,12.6,1.8,19,1.8c13.7,0,27.3,0,41,0C1266.4,680.5,1266.9,680.5,1267.4,680.5z"
		/>
	<path class="st11" d="M1143.2,675.9c0-0.4,0-0.7,0-1.1c0.4,0,0.8,0,1.2,0c12,0,24,0,36.1,0c9.1,0,18.1,0.9,27,2.6
		c5.7,1.1,11.5,1.5,17.3,1.5c13.1,0,26.3,0,39.4,0c1,0,2.1,0,3.2,0c0,0.4,0,0.7,0.1,1c-0.2,0.1-0.2,0.1-0.3,0.1c-0.2,0-0.4,0-0.5,0
		c-14.2,0-28.3,0-42.5,0c-6.6,0-13.1-0.7-19.6-2c-8.1-1.6-16.3-2.2-24.5-2.2c-11.8,0-23.6,0-35.3,0
		C1144.2,675.9,1143.8,675.9,1143.2,675.9z"/>
	<path class="st12" d="M1142.5,654.4c1,0,1.7,0,2.4,0v-0.1c-0.7-0.1-1.4-0.2-2.1-0.3c-0.1-0.1-0.1-0.2-0.2-0.2
		c0.3-0.2,0.5-0.6,0.8-0.6c5.5,0.5,10.9,1.4,15.6,4.6c4,2.7,6.5,6.5,7.9,11.1c0.5,1.8,0.8,3.7,1.3,5.5c-0.9,0.2-0.9,0.2-1.5-1.5
		c0,0.5,0.1,1,0.1,1.7c-0.5,0-0.9,0-1.3,0c-7,0-14,0-21,0c-1.6,0-1.6,0-1.9-1.6c-0.7-4.2-0.8-8.5-0.5-12.8
		C1142.2,658.3,1142.3,656.4,1142.5,654.4z"/>
	<path class="st13" d="M1227.8,651.2c0.2-0.2,0.5-0.4,0.7-0.7c1.8,0.9,3.6,1.8,5.6,2.6c4.5,1.8,9.3,2.5,14.2,3
		c2.7,0.3,5.5,0.4,8.2,0.9c6.2,1.1,11.1,7.6,10.5,13.3c-0.3,2.6-0.8,5.1-1.3,7.6c-0.1,0.6-0.4,0.8-1.1,0.8c-14.7,0-29.5,0-44.2-0.1
		c-5.7,0-11.4-1.1-17-2.1c-6-1.1-12-1.7-18-1.8c-3.3-0.1-6.6-0.1-9.9-0.1c-0.3,0-0.7,0-1.1,0c0.1-2.4,1.2-4.1,2.9-5.3
		c2.1-1.5,4.4-3,6.7-4c8.1-3.6,16.7-5.1,25.6-5.3c4.5-0.1,8.9-0.2,13.4-0.2c3.2,0,5.7-1.2,7.9-3.4c1.2-1.2,1.1-2-0.4-2.7
		c-0.8-0.4-1.6-0.8-2.4-1.3c-0.2-0.1-0.3-0.5-0.5-0.8C1227.6,651.4,1227.7,651.3,1227.8,651.2z"/>
	<path class="st12" d="M1187.1,605.6c0.9-0.1,1.5-0.1,2.3-0.1c0,2.8,0,5.6,0,8.5c-0.8,0-1.6,0-2.3,0
		C1187.1,611.2,1187.1,608.5,1187.1,605.6z"/>
	<path class="st12" d="M1186.7,616.9c1-0.1,1.8-0.1,2.6-0.2c0.1,1.2,0.2,2.3,0.3,3.4c0,0.1,0,0.3,0,0.4c0.1,0.8,0.6,1.8,0.3,2.2
		c-0.5,0.7-1.5,0.9-2.4,1.4C1186.6,621.8,1186.8,619.4,1186.7,616.9z"/>
	<path class="st12" d="M1195.3,630.3c-0.3,0.5-0.7,1-1.1,1.7c-2.1-1.5-4.3-2.8-5.6-5.2c0.9-0.5,1.8-0.9,2.5-1.2
		C1192.5,627.1,1193.8,628.7,1195.3,630.3z"/>
	<path class="st12" d="M1184.3,598.5c1.6-0.2,2.9-0.4,4.2-0.4c0.2,0,0.7,0.5,0.7,0.7c-0.2,0.7-0.4,1.7-0.9,2
		c-0.6,0.4-1.6,0.6-2.3-0.5C1185.7,599.6,1185,599.2,1184.3,598.5z"/>
	<path class="st12" d="M1187.1,602c-0.1-0.3-0.1-0.5-0.2-0.7c2-0.3,2.3-0.6,2.5-2.3c0.1-0.9-0.3-1.3-1.1-1.2
		c-1.1,0.1-2.3,0.3-3.4,0.4c-0.7,0.1-1.4,0-2.1,0c0-0.2,0-0.3,0-0.5c1.9-0.2,3.8-0.6,5.7-0.7c1.3-0.1,1.7,0.6,1.7,1.8
		C1190.3,600.8,1189.4,601.7,1187.1,602z"/>
	<path class="st12" d="M1197.2,632.2c0.2-0.2,0.4-0.3,0.6-0.5c2.6,1.6,5.1,3.2,7.7,4.9c-0.1,0.3-0.2,0.6-0.2,0.9
		c-0.1,0.1-0.2,0.3-0.4,0.4c-0.3,0.6-0.7,0.6-1.3,0.2c-2.1-1.4-4.3-2.7-6.5-4.1c-0.3-0.2-0.5-0.5-0.7-0.7
		C1196.6,632.9,1196.9,632.6,1197.2,632.2z"/>
	<path class="st12" d="M1207.5,638.6c0.3-0.1,0.6-0.3,0.8-0.2c2.5,1.5,5,3,7.5,4.5c-0.4,0.6-0.7,1.1-1.1,1.6c-2.5-1.5-5-2.9-7.5-4.4
		c-0.2-0.1-0.3-0.4-0.4-0.6C1207,639.2,1207.3,638.9,1207.5,638.6z"/>
	<path class="st12" d="M1217.3,645.2c0.1-0.1,0.2-0.2,0.3-0.3c0.2-0.2,0.4-0.3,0.6-0.5c2.6,1.5,5.2,3.1,7.8,4.6
		c-0.4,0.5-0.7,1-1.1,1.6c-1.1-0.6-2.1-1.2-3.2-1.8c-1.3-0.8-2.7-1.6-4-2.3C1217.2,646.1,1217.1,645.8,1217.3,645.2z"/>
	<path class="st14" d="M1191.1,614.9c0,0.1,0.1,0.2,0.1,0.4c0,0,0,0,0,0.1l0,0c0,0.1,0,0.1,0,0.2c0,0.6-0.5,1-1.6,1
		c-2.1,0.1-4.3,0.1-6.4,0.2c-0.8,0-1.5-0.1-1.6-1.1c0-0.9,0.7-1.1,1.4-1.2c2.2-0.1,4.5-0.2,6.7-0.2c0.1,0,0.3,0,0.4,0
		c0.1,0,0.2,0,0.3,0.1c0,0,0,0,0.1,0 M1189.9,613.8v-8.3c0.3-0.1,0.6-0.3,0.9-0.4c-2.5,0.1-4.9,0.2-7.4,0.2c-0.2,0-0.4,0-0.6,0h-0.1
		c-0.1,0-0.2,0-0.3,0l0,0c-0.1,0-0.2,0-0.3-0.1c-0.1,0-0.1,0-0.2,0l0,0l0,0c0.2,0.2,0.3,0.5,0.4,0.6c-0.9,0.1-1.6-0.4-1.6-1.3
		c-0.1-0.8,0.5-1.5,1.6-1.6c-0.3,0.4-0.7,0.7-0.7,1.1c0,0.1,0,0.1,0,0.2c0,0,0,0,0,0.1c0,0,0,0,0,0.1v0.1l0,0c0,0,0,0,0,0.1
		c0,0,0,0,0,0.1l0,0c0,0,0,0.1,0.1,0.1c0.1,0.1,0.1,0.3,0.2,0.4v0.1l0,0c-0.1-0.3-0.2-0.5-0.2-0.7v-0.1c-0.1-0.8,0.3-1.1,1.5-1.2
		c2.2-0.1,4.5-0.2,6.7-0.2c0.5,0,0.9,0.3,1.4,0.4c-0.4-0.3-0.9-0.6-1.5-1c0.1-0.4,0.2-1,0.5-1.5c0.9-1.9,0.6-3.3-0.8-4.3h-3
		c-2.1,0.4-4.1,1-6.3,0.8c-3.2-0.3-6.5,0-9.6,0.4c-4.6,0.6-9.2,1.6-13.8,2.2c-2.1,0.3-4.3,0.4-6.4,0.4c-2.3,0-3.9,1.3-4,3.6
		c0,1.1,0,2.2,0,3.5c-0.5,0-1.1,0.1-1.7,0.1v13.8c0.7,0,1.3,0.1,2,0.1c-0.1,2.8-0.2,5.5-0.4,8.3h-2c-0.1,1.6-0.3,3.2-0.4,4.9
		c-0.2,2.5-0.5,5.1-0.8,7.6c-0.1,1.3-0.2,1.3,1.1,1.4c0.2,0,0.4,0.1,0.8,0.2c-0.5,2.9-1,5.9-1.5,8.8c-0.5,0.1-0.7,0.1-1.1,0.1
		c-0.1,0.9-0.3,1.8-0.4,2.7c-0.2,1.4-0.3,2.8-0.4,4.2v8.8c0.1,0.9,0.2,1.7,0.4,2.6c0.7,3,0.9,6.1,0.8,9.2c-0.1,1.6,0,3.3,0,4.9v1.1
		h40.8v-4.9c0.5,0,0.9,0,1.3,0c2.5,0.2,5,0.4,7.6,0.6c5.2,0.4,10.2,1.3,15.2,2.8c2.3,0.7,4.7,1.5,7.1,1.5
		c17.4,0.1,34.9,0.1,52.3,0.1h1.1v-7.8h-2.4c0.1-0.5,0.3-0.8,0.4-1.1c0.9-3.3,1.7-6.8,0.9-10.2c-1.3-5.6-4.9-9.4-10.6-10.7
		c-2.6-0.6-5.4-0.6-8-0.9c-4.8-0.5-9.6-1.1-14.2-3c-1.9-0.8-3.7-1.7-5.6-2.6c1.1-2,1.1-2.2,0.2-2.9v0.1c0.6,0.7,0.5,1.3,0,2
		c-0.4,0.6-0.7,1.2-1.1,1.8c0.2-0.2,0.5-0.4,0.7-0.7c1.8,0.9,3.6,1.8,5.6,2.6c4.5,1.8,9.3,2.5,14.2,3c2.7,0.3,5.5,0.4,8.2,0.9
		c6.2,1.1,11.1,7.6,10.5,13.3c-0.3,2.6-0.8,5.1-1.3,7.6c-0.1,0.6-0.4,0.8-1.1,0.8c-14.7,0-29.5,0-44.2-0.1c-5.7,0-11.4-1.1-17-2.1
		c-5.9-1.1-12-1.7-18-1.8c-3.3-0.1-6.6-0.1-9.9-0.1c-0.3,0-0.7,0-1.1,0c0.1-2.4,1.2-4.1,2.9-5.3c2.1-1.5,4.4-3,6.7-4
		c8.1-3.6,16.7-5.1,25.6-5.3c4.5-0.1,8.9-0.2,13.4-0.2c3.2,0,5.7-1.2,7.9-3.4c1.2-1.2,1.1-2-0.4-2.7c-0.8-0.4-1.6-0.8-2.4-1.3
		c-0.2-0.1-0.3-0.5-0.5-0.8c-0.2,0.3-0.4,0.6-0.6,0.9c1.3,0.7,2.7,1.2,4,2c0.7,0.5,0.1,1.1-0.3,1.5c-2.2,2.2-4.8,3.3-7.9,3.3
		c-4.6,0-9.2,0.1-13.8,0.2c-9.4,0.2-18.4,2-26.9,6.1c-1.7,0.8-3.3,1.9-4.8,3c-1.9,1.4-3.2,3.3-3.4,6c-0.5-0.1-1-0.2-1.4-0.3
		c-0.4,0.1-0.9,0.2-1.3,0.2c-2.6,0-2.5,0-3-2.5c-1.9-10.1-8-16.4-18.4-18.4c-1.9-0.4-3.8-0.6-5.7-0.9c0.5-2.9,1-5.8,1.5-8.7
		c1.4-0.3,1.6-0.2,2.1,1.1c0.4,1.1,1.7,2,2.8,1.9c1.4-0.1,2.5-1,2.8-2.3c0.3-1.7,0.4-3.3,0.6-5c0.3-2.7,0.6-5.5,0.9-8.3
		c0.1-1.4-0.3-2.5-1.5-3.2c-1.1-0.6-2.1-0.5-3,0.2c-0.5,0.4-0.8,1-1.3,1.6c-0.5-0.1-1.2-0.1-1.9-0.2c0.1-2.9,0.2-5.6,0.3-8.5h1.5
		c0.4,0.7,0.8,1.4,1.3,1.9c0.8,0.7,1.8,1,2.8,0.5c1.1-0.5,1.9-1.3,1.9-2.6c0-4.6,0-9.1,0-13.7c0-1.4-1.1-2.6-2.5-2.7
		c-1.6-0.2-2.7,0.6-3.4,2.5h-2c0-1.5-0.1-2.9,0-4.3s1.6-2.4,3-2.3c4.1,0.4,8-0.4,11.9-1.2c5.8-1.2,11.7-1.9,17.7-1.9
		c2.1,0,4.1,0.8,5.7,2.2c0.9,0.7,1.6,1.6,1.6,3c-0.5,0-0.9,0-1.3,0.1c-0.1-0.5-0.1-0.9-0.2-1.3h-0.1c0,0.4,0,0.8-0.1,1.3
		c-0.3-0.1-0.6-0.2-0.8-0.3l0,0l0,0c-0.4,0-0.8,0.1-1.2,0c-0.9-0.3-1.7-0.1-2.2,0.6s-0.5,1.5,0,2.1c0.6,0.7,1.4,0.9,2.3,0.5
		c0.3-0.1,0.7-0.3,1.1-0.4c-0.1,0.3-0.1,0.5-0.2,0.7l0,0l0,0c0.3-0.2,0.6-0.4,1-0.8c0.1,0.8,0.1,1.4,0.2,2.1c0.1,0,0.1,0,0.2,0v-1.9
		h1.2v8.4c-0.6,0-1,0.1-1.5,0.1c0-0.6,0.1-1,0.1-1.5c-0.1,0-0.1,0-0.2,0c-0.1,0.5-0.1,0.9-0.2,1.6c-0.9-1-1.9-1.6-3.1-1.3
		c-0.6,0.2-1.2,0.5-1.5,1c-1,1.1-0.8,2.6,0.2,3.6c1.2,1.2,2.6,1.1,4.3-0.3c0.1,0.5,0.1,1,0.2,1.5c0.1,0,0.1,0,0.2,0v-1.7h1.4
		c0,0.7-0.1,1.4,0,2.2c0.2,1.8,0.5,3.7,0.7,5.5c1.1-0.5,2.1-1,3.2-1.5c0.7-0.3,1.4-0.4,1.8,0.4c0.4,0.8-0.1,1.2-0.8,1.6
		c-2,1-4.1,2-6.1,3c-0.7,0.3-1.4,0.4-1.7-0.3c-0.4-0.8,0-1.3,0.7-1.7c0.9-0.4,1.9-0.9,2.8-1.4c-0.3,0-0.6,0.1-1,0.1
		c-0.1-0.3-0.3-0.7-0.4-1.1c-0.1,0-0.1,0-0.1,0c0.1,0.4,0.2,0.8,0.3,1.5c-1.2-0.5-2.4-0.9-3.4,0.1c-0.5,0.5-0.9,1.1-1.1,1.7
		c-0.4,1.2,0.6,2.6,1.8,3.1c1.5,0.6,2.8-0.2,3.8-2.4c0.4,0.6,0.8,1.1,1.1,1.6c0.1,0,0.1-0.1,0.2-0.1c-0.3-0.5-0.7-1.1-1.1-1.7
		c0.4-0.2,0.7-0.4,1.1-0.6c1.3,2.2,3.3,3.5,5.2,4.9c0.5,0.3,0.5,0.6,0.3,1.1l0,0l0,0c0.9-1.2,1.7-2.4,2.6-3.6
		c-0.5,0.4-1,0.3-1.4-0.2c-1.1-1.2-2.2-2.5-3.2-3.6c1.2-1.6,0.9-2.3-0.7-2.9c-0.2-0.1-0.4-0.3-0.5-0.5c-0.3-1.8-0.5-3.6-0.8-5.3
		c0.2,0.1,0.3,0.1,0.5,0.2c0.4-0.5,1-0.8,1.3-1.4 M1183.2,629.9c-1.4-0.4-2.2-1.8-1.8-3.1c0.4-1.2,1.9-2.3,3.6-1.3
		c-0.6,0.1-0.9,0.2-1.3,0.2c-0.9,0.1-1.5,0.6-1.7,1.5c-0.1,0.9,0.2,1.5,0.9,1.9c0.8,0.4,1.6,0.3,2.1-0.4c-0.1,0-0.3,0-0.4,0.1
		c-1,0.5-1.8,0.3-2.3-0.5s-0.2-1.5,0.9-2.2c-0.1,0.3-0.2,0.5-0.3,0.6c-0.4,1,0.1,1.9,1.1,2c0.3,0,0.6,0,0.9,0l0,0
		c0.3-0.2,0.6-0.5,1-0.8C1185.9,629.4,1184.5,630.3,1183.2,629.9z M1195.3,630.3c-0.3,0.5-0.7,1-1.1,1.7c-2.1-1.5-4.3-2.8-5.6-5.2
		c0.9-0.5,1.8-0.9,2.5-1.2C1192.5,627.1,1193.8,628.7,1195.3,630.3z M1189.3,616.8c0.1,1.2,0.2,2.3,0.3,3.4c0,0.1,0,0.3,0,0.4
		c0.1,0.8,0.6,1.8,0.3,2.2c-0.5,0.7-1.5,0.9-2.4,1.4c-1-2.4-0.7-4.8-0.9-7.3C1187.6,616.9,1188.4,616.8,1189.3,616.8z M1181.8,613.8
		L1181.8,613.8L1181.8,613.8h-0.2c-0.2,0.1-0.4,0.2-0.6,0.5l0,0l0,0l0,0c0.2-0.1,0.5-0.1,0.7-0.2c0.1,0,0.2-0.1,0.3-0.1s0.1,0,0.2,0
		c-1.3,1.3-1.2,2,0.2,3c-1.5,0.1-2.2-0.9-1.6-2.2c0.1-0.1,0.1-0.3,0.1-0.4l0,0l0,0l0,0c-0.1,0.1-0.2,0.1-0.3,0.2c0,0,0,0-0.1,0.1
		l-0.1,0.1c0,0,0,0,0,0.1c0,0,0,0,0,0.1c0,0,0,0.1-0.1,0.1v0.1c0,0,0,0,0,0.1c0,0,0,0,0,0.1c-0.1,0.3,0,0.7,0.2,1
		c0.8,1.9,2.3,0.9,3.7,0.6c-0.8,1.1-1.6,1.5-2.7,1.2c-1-0.3-1.8-1.2-1.8-2.2c-0.1-1.1,0.5-2,1.6-2.5c1-0.4,1.9-0.1,2.7,0.8
		C1183.3,614.3,1182.5,613.8,1181.8,613.8z M1187.1,605.6c0.9-0.1,1.5-0.1,2.3-0.1v8.5h-2.3V605.6z M1186,600.2
		c-0.4-0.6-1-1-1.8-1.7c1.6-0.2,2.9-0.4,4.2-0.4c0.2,0,0.7,0.5,0.7,0.7c-0.2,0.7-0.4,1.7-0.9,2C1187.7,601,1186.7,601.3,1186,600.2z
		 M1188.5,597c1.3-0.1,1.7,0.6,1.7,1.8c0,2-0.9,2.9-3.2,3.1c-0.1-0.3-0.1-0.5-0.2-0.7c2-0.3,2.3-0.6,2.5-2.3
		c0.1-0.9-0.3-1.3-1.1-1.2c-1.1,0.1-2.3,0.3-3.4,0.4c-0.7,0.1-1.4,0-2.1,0c0-0.2,0-0.3,0-0.5C1184.8,597.4,1186.6,597.1,1188.5,597z
		 M1152.1,628.4c1.2,0.3,2.2,1.4,2.1,2.7c-0.4,4.4-0.9,8.8-1.4,13.3c-0.2,1.5-1.3,2.4-2.7,2.3c-1.2-0.1-2.1-1.1-2.2-2.4
		c0.1-0.1,0.2-0.2,0.2-0.2c0.2,0.2,0.5,0.4,0.6,0.7c0.4,0.7,0.9,1.2,1.8,1c0.9-0.1,1.3-0.8,1.4-1.6c0.5-4.3,1-8.6,1.3-12.9
		c0-0.5-0.5-1.3-0.9-1.7c-0.6-0.5-1.2-0.2-1.8,0.3c-0.3,0.3-0.7,0.4-1.2,0.7C1149.9,628.8,1151,628.1,1152.1,628.4z M1149.1,644.6
		c0-0.1,0.1-0.2,0.1-0.3c0.7,0.1,1.3,0.1,2,0.2c0,0.1,0,0.3,0.1,0.4c-0.4,0.1-0.8,0.4-1.1,0.4
		C1149.8,645.2,1149.5,644.8,1149.1,644.6z M1152.9,630.5c-0.8,0-1.4-0.1-2.2-0.1C1151.5,629.5,1151.9,629.5,1152.9,630.5z
		 M1152.2,605.4c1.2,0.2,2,1.2,2,2.7c0,4.3,0,8.6,0,12.9c0,1.4-0.9,2.5-2.2,2.7c-1.2,0.2-2.3-0.7-2.8-2.5c0.5,0.3,0.9,0.4,1,0.6
		c0.5,0.7,1.1,1.1,1.9,0.9c0.9-0.3,1.2-0.9,1.2-1.8c0-4.2,0-8.4,0-12.6c0-0.9-0.2-1.6-1.1-2c-0.8-0.3-1.5,0.1-2,0.8
		c-0.1,0.2-0.5,0.3-1,0.5C1149.9,605.8,1150.8,605.2,1152.2,605.4z M1150.7,621.4h2.2C1152.1,622.6,1151.3,622.6,1150.7,621.4z
		 M1152.7,607.4h-1.9C1151.5,606.4,1152,606.4,1152.7,607.4z M1145.1,620.7v-12.8h7.8v12.8H1145.1z M1143.5,643
		c0.4-4.3,0.8-8.5,1.2-12.8c2.7,0.3,5.4,0.6,8.1,0.9c-0.5,4.3-0.9,8.5-1.3,12.8C1148.8,643.5,1146.2,643.3,1143.5,643z M1142.6,673
		c-0.7-4.2-0.8-8.5-0.5-12.8c0.1-1.9,0.3-3.8,0.4-5.8h2.4v-0.1c-0.7-0.1-1.4-0.2-2.1-0.3c-0.1-0.1-0.1-0.2-0.2-0.3
		c0.3-0.2,0.5-0.6,0.8-0.6c5.5,0.5,10.9,1.4,15.6,4.6c4,2.7,6.5,6.5,7.9,11.1c0.5,1.8,0.9,3.7,1.3,5.5c-0.9,0.2-0.9,0.2-1.5-1.5
		c0,0.5,0.1,1,0.1,1.7h-22.2C1142.9,674.5,1142.8,674.5,1142.6,673z M1267.4,685.8h-1.1c-17.2,0-34.3,0.1-51.5-0.1
		c-2.4,0-4.8-0.8-7.1-1.5c-6.6-2.1-13.4-2.9-20.3-3.3c-1.5-0.1-3-0.2-4.6-0.3v5h-39.7v-9.4c0.3,0,0.6-0.1,1-0.1
		c12.6,0,25.2,0,37.9,0c8.1,0,16,0.8,24,2.4c6.3,1.2,12.6,1.8,19,1.8c13.7,0,27.3,0,41,0h1.5v5.5H1267.4z M1267.1,680.1
		c-0.2,0-0.4,0-0.5,0c-14.2,0-28.3,0-42.5,0c-6.6,0-13.1-0.7-19.6-2c-8.1-1.6-16.3-2.2-24.5-2.2c-11.8,0-23.6,0-35.3,0h-1.5v-1.1
		h1.2c12,0,24,0,36.1,0c9.1,0,18.1,0.9,27,2.6c5.7,1.1,11.5,1.5,17.3,1.5c13.1,0,26.3,0,39.4,0h3.2c0,0.4,0,0.7,0.1,1
		C1267.3,680,1267.2,680.1,1267.1,680.1z"/>
	<path class="st15" d="M1198.1,630.7c-0.3,0.5-0.6,1-0.9,1.5c-0.3,0.3-0.5,0.7-0.8,1c-0.1,0.3-0.3,0.6-0.4,0.9
		c-0.2,0.4-0.5,0.8-0.7,1.1c-0.4,0.5-0.9,1-1.3,1.5c-0.5,0.6-1,1.1-1.7,0.6c-0.7-0.5-0.6-1.2-0.1-1.8c0.1-0.2,0.3-0.5,0.4-0.7l0,0
		l0,0l0,0l0,0c0.4-0.6,0.8-1.3,1.3-1.9l0,0l0,0c0.9-1.2,1.7-2.4,2.6-3.6c0.5,0,1.1-0.1,1.5,0.2C1198,629.7,1198,630.3,1198.1,630.7z
		"/>
	<path class="st15" d="M1208.4,637c-0.3,0.5-0.6,1-0.9,1.5c-0.2,0.3-0.5,0.6-0.7,1c-0.2,0.3-0.3,0.5-0.5,0.8
		c-0.1,0.1-0.3,0.2-0.3,0.3c-0.6,0.9-1.2,1.8-1.8,2.7c-0.4,0.5-1,0.7-1.6,0.3s-0.6-1-0.3-1.6c0.2-0.3,0.3-0.6,0.5-0.9l0,0l0,0l0,0
		c0.3-0.5,0.5-0.9,0.8-1.3c0.1-0.1,0.3-0.3,0.4-0.4c0.3-0.5,0.6-1,0.9-1.5c0.1-0.1,0.2-0.3,0.4-0.4c0.5-0.7,1-1.4,1.6-2
		C1208.3,635.3,1208.7,635.7,1208.4,637z"/>
	<path class="st15" d="M1181.8,605.2c-0.5-1.4-0.2-1.9,1.3-2c2.2-0.1,4.5-0.2,6.7-0.2c0.5,0,0.9,0.3,1.4,0.4
		c0.5,0.8,0.1,1.3-0.5,1.8c-2.5,0.1-4.9,0.2-7.4,0.2C1182.8,605.4,1182.3,605.2,1181.8,605.2L1181.8,605.2z"/>
	<path class="st14" d="M1228.9,647.2L1228.9,647.2c-1-0.2-1.5,0.2-2,1c-0.8,1.2-1.8,2.4-2.6,3.7l0,0l0,0c0.1-0.3,0.3-0.6,0.4-1
		c-2.5-1.4-4.9-2.9-7.3-4.2c-0.2-0.1-0.6,0.1-1,0.1c0.3-0.5,0.6-1,1-1.6c-0.3,0.6-0.1,0.9,0.5,1.2c1.4,0.7,2.7,1.5,4,2.3
		c1,0.6,2.1,1.2,3.2,1.8c0.4-0.6,0.7-1,1.1-1.6c-2.7-1.6-5.2-3.1-7.8-4.6c-0.2,0.2-0.4,0.3-0.6,0.5c0.3-0.5,0.6-0.9,0.9-1.4h0.1
		c0.1,0.3,0.1,0.6,0.3,0.7c2.4,1.5,4.9,2.9,7.3,4.3C1227,648,1227.3,646.2,1228.9,647.2z"/>
	<path class="st14" d="M1214,645.7c0.1-0.3,0.2-0.6,0.2-0.9c-1.8-1.1-3.6-2.1-5.4-3.2c-0.8-0.5-1.7-0.9-2.5-1.3l0,0l0,0
		c0.2-0.3,0.3-0.5,0.5-0.8c0.1,0.2,0.2,0.5,0.4,0.6c2.5,1.5,4.9,2.9,7.5,4.4c0.4-0.6,0.7-1.1,1.1-1.6c-2.5-1.5-5-3-7.5-4.5
		c-0.2-0.1-0.5,0.1-0.8,0.2c0.3-0.5,0.6-1,0.9-1.5c-0.2,0.6,0,0.9,0.6,1.3c2.3,1.3,4.6,2.8,6.9,4.2c0.3-0.3,0.6-0.6,0.9-0.8
		C1215.9,643,1215,644.4,1214,645.7z"/>
	<path d="M1216.8,641.6L1216.8,641.6L1216.8,641.6L1216.8,641.6z"/>
	<path class="st14" d="M1206.8,635.5c-0.5,0.7-1,1.4-1.6,2c0.1-0.3,0.2-0.6,0.2-0.9c-2.6-1.6-5.1-3.2-7.7-4.9
		c-0.2,0.1-0.4,0.3-0.6,0.5c0.3-0.5,0.6-1,0.9-1.5c0.2,0.3,0.2,0.8,0.5,1c2.4,1.6,4.8,3.1,7.1,4.5
		C1206.1,636,1206.4,635.7,1206.8,635.5z"/>
	<path class="st16" d="M1216.8,641.6c0.6-0.8,1.3-0.7,1.8-0.1c0.7,0.7,0.6,1.4-0.1,2.1h-0.1c0.2-0.6,0.7-1.3,0-1.8
		C1218.1,641.4,1217.4,641.6,1216.8,641.6L1216.8,641.6z"/>
	<path class="st17" d="M1144.7,630.2c2.7,0.3,5.4,0.6,8.1,0.9c-0.5,4.3-0.9,8.5-1.3,12.8c-2.7-0.3-5.3-0.6-8-0.8
		C1143.9,638.7,1144.3,634.5,1144.7,630.2z"/>
	<path class="st17" d="M1152.9,620.7c-2.6,0-5.1,0-7.8,0c0-4.3,0-8.5,0-12.8c2.5,0,5.1,0,7.8,0
		C1152.9,612.2,1152.9,616.4,1152.9,620.7z"/>
	<path class="st12" d="M1148.1,644c0.2,0.2,0.5,0.4,0.6,0.7c0.4,0.7,0.9,1.2,1.8,1c0.9-0.1,1.3-0.8,1.4-1.6c0.5-4.3,1-8.6,1.3-12.9
		c0-0.5-0.5-1.3-0.9-1.7c-0.6-0.5-1.2-0.2-1.8,0.3c-0.3,0.3-0.7,0.4-1.2,0.7c0.6-1.6,1.7-2.3,2.9-2.1c1.2,0.3,2.2,1.4,2.1,2.7
		c-0.5,4.4-0.9,8.8-1.4,13.3c-0.2,1.5-1.3,2.4-2.7,2.3c-1.2-0.1-2.1-1.1-2.2-2.4C1148,644.1,1148,644.1,1148.1,644z"/>
	<path class="st12" d="M1149.3,607.6c0.6-1.8,1.6-2.5,2.9-2.3c1.2,0.2,2,1.2,2,2.7c0,4.3,0,8.6,0,12.9c0,1.4-0.9,2.5-2.2,2.7
		c-1.2,0.2-2.3-0.7-2.8-2.5c0.5,0.3,0.9,0.4,1,0.6c0.5,0.7,1.1,1.1,1.9,0.9c0.9-0.3,1.2-0.9,1.2-1.8c0-4.2,0-8.4,0-12.6
		c0-0.9-0.2-1.6-1.1-2c-0.8-0.3-1.5,0.1-2,0.8C1150.1,607.3,1149.8,607.4,1149.3,607.6z"/>
	<path class="st15" d="M1228.8,649.3c-0.4,0.6-0.7,1.2-1.1,1.8c-0.1,0.1-0.2,0.2-0.3,0.3c-0.2,0.3-0.4,0.6-0.6,0.9
		c-0.1,0.1-0.2,0.2-0.4,0.4c-0.3,0.5-0.6,0.9-0.8,1.4l0,0l0,0l0,0c-0.3,0.3-0.5,0.7-0.8,0.8c-0.4,0.2-1.1,0.5-1.4,0.3
		s-0.3-0.9-0.4-1.4c0-0.2,0.2-0.5,0.3-0.7c0.3-0.4,0.6-0.9,0.8-1.3l0,0l0,0c0.9-1.2,1.8-2.4,2.6-3.7c0.5-0.7,1.1-1.2,2-0.9
		C1229.4,648,1229.4,648.6,1228.8,649.3z"/>
	<path class="st15" d="M1189.8,614.3l1.4,0.3c0.7,1.4,0.1,1.9-1.5,2c-2.1,0.1-4.3,0.1-6.4,0.2c-0.8,0-1.5-0.1-1.6-1.1
		c0-0.9,0.7-1.1,1.4-1.2c2.2-0.1,4.6-0.2,6.8-0.2"/>
	<path class="st15" d="M1191.2,625.2c-2,1-4.1,2-6.1,3c-0.7,0.3-1.4,0.4-1.7-0.3c-0.4-0.8,0-1.3,0.7-1.7c0.9-0.4,1.9-0.9,2.8-1.4
		h0.1c1.1-0.5,2.1-1,3.2-1.5c0.7-0.3,1.4-0.4,1.8,0.4C1192.4,624.4,1191.9,624.8,1191.2,625.2z"/>
	<path class="st11" d="M1230.9,654.5c-1.3-0.8-2.6-1.4-4-2c-0.1,0.1-0.2,0.2-0.4,0.4c0,0.6,0,1.3-0.1,1.9c-0.1,0.7-0.4,1.4-0.7,2
		c-0.2,0.4-0.4,0.9-0.7,1c-0.6,0.2-1.3,0.3-1.8,0.1c-1.1-0.5-2.2-1.3-2.2-2.8c-0.1-1.1,0.7-2.2,2-2.7c0.4-0.2,0.9-0.3,1.3-0.4
		c0.1-0.3,0.3-0.6,0.4-1c-2.5-1.4-4.9-2.9-7.3-4.2c-0.2-0.1-0.6,0.1-1,0.1c-0.1,0.1-0.2,0.2-0.4,0.4c0,0.7,0,1.4,0,2.1
		c0,1-0.9,2.1-1.9,2.4c-1.1,0.3-2.2,0-2.9-0.9c-0.8-1-0.8-1.9-0.2-3c0.7-0.7,1.3-1.5,2.4-1.3c0.2-0.3,0.4-0.5,0.6-0.8
		c0.1-0.3,0.2-0.6,0.2-0.9c-1.8-1.1-3.6-2.1-5.4-3.2c-0.8-0.5-1.7-0.9-2.5-1.3c0,0.5-1.2,1.1,0,1.6c-0.3-0.1-0.5-0.2-0.8-0.3
		c0,2.9-0.7,4-2.5,4.2c-1.3,0.1-2.7-1-2.9-2.2c-0.3-1.7,0.6-2.8,3-3.4c-0.7-0.5-1.4-0.9-2.1-1.3c0-0.1,0.1-0.1,0.1-0.2
		c0.5,0.3,1,0.6,1.5,0.9c0.3,0.1,0.6,0.1,0.9,0.2c0.1-0.1,0.3-0.3,0.4-0.4c-0.1-0.3-0.2-0.6-0.4-0.8c-2.3-1.5-4.7-3-7.1-4.4
		c-0.1-0.1-0.4,0-0.6-0.1c-0.2,0.4-0.5,0.8-0.7,1.1c0,0.4-0.1,0.7-0.1,1.1c0.2,1.5-0.7,3-2.2,3.3c-1.4,0.3-2.9-0.8-3.2-2.3
		c-0.3-1.4,0.8-2.8,2.3-3.1c0.6-0.1,1.1-0.2,0.6-0.9c0.3-0.1,0.6-0.2,1-0.4c0.2-0.4,0.1-0.7-0.3-1.1c-1.9-1.4-3.9-2.7-5.2-4.9
		c-0.4,0.2-0.7,0.4-1.1,0.6c0.4,0.6,0.7,1.2,1.1,1.7c-0.1,0-0.1,0.1-0.2,0.1c-0.4-0.5-0.8-1.1-1.1-1.6c-1.1,2.2-2.3,3-3.8,2.4
		c-1.2-0.4-2.2-1.9-1.8-3.1c0.2-0.6,0.6-1.3,1.1-1.7c1-0.9,2.2-0.6,3.4-0.1c-0.1-0.6-0.2-1.1-0.3-1.5c0.1,0,0.1,0,0.1,0
		c0.1,0.4,0.3,0.7,0.4,1.1c0.4,0,0.7-0.1,1-0.1h0.1c-0.2-1.8-0.5-3.7-0.7-5.5c-0.1-0.7,0-1.5,0-2.2h-1.4v1.7c-0.1,0-0.1,0-0.2,0
		c-0.1-0.5-0.1-1-0.2-1.5c-1.8,1.4-3.2,1.5-4.3,0.3c-1-1-1.1-2.5-0.2-3.6c0.4-0.4,1-0.8,1.5-1c1.2-0.3,2.2,0.3,3.1,1.3
		c0.1-0.7,0.1-1.2,0.2-1.6c0.1,0,0.1,0,0.2,0c0,0.5-0.1,0.9-0.1,1.5c0.5,0,0.9-0.1,1.5-0.1v-8.4h-1.2v1.9c-0.1,0-0.1,0-0.2,0
		c-0.1-0.7-0.1-1.3-0.2-2.1c-0.5,0.3-0.7,0.6-1,0.8l0,0c-0.7,0.8-1.7,1.1-2.7,0.7c-1.1-0.4-2-1.7-1.9-2.8c0.1-1.1,1-2.3,2.1-2.5
		c1.1-0.3,2.1,0.1,2.7,1l0,0c0.2,0.1,0.5,0.2,0.8,0.3c0-0.5,0-0.9,0.1-1.3h0.1c0,0.4,0.1,0.8,0.2,1.3c0.5,0,0.9,0,1.3-0.1
		c0.1-1.4-0.6-2.3-1.6-3c-1.6-1.4-3.6-2.2-5.7-2.2c-5.9,0-11.8,0.7-17.7,1.9c-3.9,0.8-7.8,1.6-11.9,1.2c-1.4-0.1-2.8,1-3,2.3
		c-0.2,1.4,0,2.8,0,4.3h2c0.7-1.9,1.8-2.7,3.4-2.5c1.3,0.2,2.4,1.3,2.5,2.7c0,4.6,0,9.1,0,13.7c0,1.3-0.8,2.1-1.9,2.6
		c-1,0.5-2.1,0.2-2.8-0.5c-0.5-0.5-0.8-1.2-1.3-1.9h-1.5c-0.1,2.9-0.2,5.6-0.3,8.5c0.7,0.1,1.4,0.1,1.9,0.2c0.5-0.6,0.8-1.2,1.3-1.6
		c0.9-0.7,2-0.9,3-0.2c1.2,0.7,1.7,1.8,1.5,3.2c-0.3,2.7-0.6,5.5-0.9,8.3c-0.2,1.7-0.3,3.3-0.6,5c-0.2,1.4-1.4,2.2-2.8,2.3
		c-1.1,0.1-2.3-0.8-2.8-1.9c-0.5-1.3-0.8-1.4-2.1-1.1c-0.5,2.9-1,5.8-1.5,8.7c1.9,0.3,3.8,0.5,5.7,0.9c10.5,2,16.5,8.3,18.4,18.4
		c0.5,2.5,0.4,2.5,3,2.5c0.5,0,0.9-0.2,1.3-0.2c0.4,0.1,0.9,0.2,1.4,0.3c0.2-2.7,1.5-4.5,3.4-6c1.5-1.1,3.1-2.2,4.8-3
		c8.5-4.1,17.5-5.9,26.9-6.1c4.6-0.1,9.2-0.2,13.8-0.2c3.1,0,5.7-1.1,7.9-3.3C1231,655.5,1231.6,654.9,1230.9,654.5z M1226.8,654
		c0-0.1,0.1-0.2,0.1-0.2c0.9,0.5,1.7,0.9,2.7,1.4c0-0.3,0.1-0.4,0.1-0.6c0.1,0,0.1,0,0.2,0c0.1,0.3,0.2,0.6,0.4,1.2
		C1228.9,655.1,1227.8,654.6,1226.8,654z"/>
	<path class="st16" d="M1184.1,605.5c-0.1,0.3-0.1,0.5-0.2,0.7c-0.2,0.1-0.4,0.2-0.6,0.3c-1.4,0.7-2.8,0.2-3.4-1.2
		c-0.6-1.2,0-2.6,1.3-3.2c1.1-0.5,2,0,2.9,0.6c-0.4,0-0.8,0.1-1.2,0c-0.9-0.3-1.7-0.1-2.2,0.6s-0.5,1.5,0,2.1
		c0.6,0.7,1.4,0.9,2.3,0.5C1183.3,605.8,1183.7,605.7,1184.1,605.5z"/>
	<path class="st8" d="M1184,606.2L1184,606.2C1183.9,606.3,1183.9,606.3,1184,606.2C1183.9,606.2,1183.9,606.2,1184,606.2
		C1183.9,606.2,1183.9,606.2,1184,606.2z"/>
	<path class="st8" d="M1184.2,602.7C1184.1,602.7,1184.1,602.7,1184.2,602.7C1184.1,602.6,1184.1,602.6,1184.2,602.7L1184.2,602.7
		L1184.2,602.7z"/>
	<path class="st16" d="M1181,614.4c-0.8,0.5-0.8,1.2-0.5,1.9c0.8,1.9,2.3,0.9,3.7,0.6c-0.8,1.1-1.6,1.5-2.7,1.2
		c-1-0.3-1.8-1.2-1.8-2.2c-0.1-1.1,0.5-2,1.6-2.5c1-0.4,1.9-0.1,2.7,0.8C1183,614.3,1181.8,613.2,1181,614.4L1181,614.4z"/>
	<path class="st16" d="M1185.1,628.7c0.3-0.2,0.6-0.5,1-0.8c-0.3,1.6-1.6,2.4-2.9,2.1c-1.4-0.4-2.2-1.8-1.8-3.1
		c0.4-1.2,1.9-2.3,3.6-1.3c-0.6,0.1-0.9,0.2-1.3,0.2c-0.9,0.1-1.5,0.6-1.7,1.5c-0.1,0.9,0.2,1.5,0.9,1.9
		C1183.8,629.5,1184.6,629.5,1185.1,628.7L1185.1,628.7z"/>
	<path class="st16" d="M1181.8,605.2c0.2,0.2,0.3,0.5,0.4,0.6c-0.9,0.1-1.6-0.4-1.6-1.3c-0.1-0.8,0.5-1.5,1.6-1.6
		c-0.3,0.4-0.7,0.7-0.7,1.1C1181.4,604.4,1181.7,604.8,1181.8,605.2L1181.8,605.2z"/>
	<path class="st16" d="M1185.1,628.7c-0.1,0-0.3,0-0.4,0.1c-1,0.5-1.8,0.3-2.3-0.5s-0.2-1.5,0.9-2.2c-0.1,0.3-0.2,0.5-0.3,0.6
		c-0.4,1,0.1,1.9,1.1,2C1184.5,628.7,1184.8,628.7,1185.1,628.7L1185.1,628.7z"/>
	<path class="st16" d="M1180.9,614.4c0.4-0.1,0.8-0.2,1.3-0.3c-1.3,1.3-1.2,2,0.2,3c-1.5,0.1-2.2-0.9-1.6-2.2
		C1180.9,614.7,1180.9,614.6,1180.9,614.4C1181,614.4,1180.9,614.4,1180.9,614.4z"/>
	<path class="st11" d="M1152.8,621.4c-0.7,1.2-1.5,1.1-2.2,0C1151.4,621.4,1152.1,621.4,1152.8,621.4z"/>
	<path class="st11" d="M1149.3,644.3c0.7,0.1,1.3,0.1,2,0.2c0,0.1,0,0.2,0.1,0.4c-0.4,0.1-0.8,0.4-1.1,0.4c-0.4-0.1-0.7-0.4-1.1-0.7
		C1149.2,644.5,1149.2,644.4,1149.3,644.3z"/>
	<path class="st11" d="M1150.8,607.4c0.7-1,1.2-1,1.9,0C1152.1,607.4,1151.5,607.4,1150.8,607.4z"/>
	<path class="st11" d="M1150.7,630.4c0.9-0.9,1.3-0.9,2.2,0.1C1152.1,630.5,1151.5,630.4,1150.7,630.4z"/>
	<path class="st14" d="M1195.2,635.3c-0.4,0.5-0.9,1-1.3,1.5c-0.5,0.6-1,1.1-1.7,0.6c-0.7-0.5-0.6-1.2-0.1-1.8
		c0.1-0.2,0.3-0.5,0.4-0.7l0,0l0,0c0.4-0.6,0.8-1.3,1.3-1.9l0,0l0,0c-0.3,0.1-0.6,0.3-1,0.4c0.5,0.7,0,0.8-0.6,0.9
		c-1.5,0.3-2.6,1.7-2.3,3.1c0.3,1.5,1.8,2.6,3.2,2.3c1.5-0.3,2.5-1.8,2.2-3.3C1195.1,636,1195.2,635.6,1195.2,635.3z M1193.2,639.3
		c-1.3,0.4-2.8-0.4-3.2-1.7c-0.3-1.3,0.5-2.7,1.8-3c0,0,0,0,0.1,0c0,0,0,0,0.1,0c0,0,0.1,0,0.1,0.1c0,0,0,0,0.1,0
		c0.1,0.1,0.2,0.1,0.2,0.2c-0.3,0.2-0.7,0.5-1,0.7c0,0.1,0.1,0.3,0.1,0.4c0.1,1.8,0.7,2.2,2.4,1.6c-0.5,0.9-1.2,1.1-2,0.8
		c-0.8-0.3-1.1-1.2-0.8-2l0.3-0.7c-0.1,0-0.1,0.1-0.2,0.1c-0.2,0.2-0.4,0.4-0.5,0.7c0,0,0,0,0,0.1v0.1c0,0,0,0,0,0.1
		c0,0.3,0,0.7,0.2,1c0.3,0.8,1,1.1,1.9,1s1.4-0.7,1.6-1.6c0-0.3,0.2-0.6,0.4-1.1C1195.2,637.6,1194.5,638.9,1193.2,639.3z"/>
	<path class="st14" d="M1204.8,637.9c-0.3,0.5-0.6,1-0.9,1.5c-0.1-0.3-0.2-0.6-0.4-0.8c-2.3-1.5-4.7-3-7.1-4.4
		c-0.1-0.1-0.4,0-0.6-0.1c0.1-0.3,0.3-0.6,0.4-0.9c0.2,0.3,0.4,0.6,0.7,0.7c2.2,1.4,4.3,2.7,6.5,4.1
		C1204.1,638.5,1204.5,638.4,1204.8,637.9z"/>
	<path class="st14" d="M1206.3,640.3L1206.3,640.3L1206.3,640.3L1206.3,640.3c-0.2,0.1-0.3,0.1-0.4,0.3c-0.6,0.9-1.2,1.8-1.8,2.7
		c-0.4,0.5-1,0.7-1.6,0.3s-0.6-1-0.3-1.6c0.2-0.3,0.3-0.6,0.5-0.9l0,0l0,0c0.3-0.5,0.5-0.9,0.8-1.3c-0.3-0.1-0.7-0.1-0.9-0.2
		c-0.5-0.3-1-0.6-1.5-0.9c0,0.1-0.1,0.1-0.1,0.2c0.7,0.4,1.4,0.9,2.1,1.3c-2.4,0.6-3.3,1.7-3,3.4c0.2,1.3,1.6,2.4,2.9,2.2
		c1.8-0.2,2.4-1.3,2.5-4.2c0.3,0.1,0.6,0.2,0.8,0.3C1205.2,641.4,1206.3,640.9,1206.3,640.3z M1204.2,644c-0.4,0.2-0.9,0.7-1.3,0.6
		c-0.5,0-1.1-0.4-1.3-0.8c-0.2-0.4-0.1-1.1-0.1-1.6c0.1,0,0.2,0,0.3,0C1201.9,644,1202.5,644.4,1204.2,644z M1203.6,645.5
		c-1.2,0.4-2.7-0.3-3.1-1.6c-0.4-1.2,0.3-2.6,1.5-3.1c0.1,0,0.1,0,0.2,0c0,0,0.1,0,0.1,0.1c0.1,0,0.1,0.1,0.2,0.1c0,0,0.1,0,0.1,0.1
		c0.1,0,0.1,0.1,0.2,0.1c-0.3,0.2-0.6,0.3-0.8,0.5c-0.8,0.5-1.1,1.2-0.8,2.1c0.3,0.8,0.9,1.3,1.8,1.2c0.9,0,1.5-0.5,1.7-1.4
		c0.1-0.4,0.2-0.8,0.4-1.3C1205.5,643.8,1204.9,645.1,1203.6,645.5z"/>
	<path class="st15" d="M1218.5,643.5c-0.3,0.5-0.6,0.9-0.9,1.4c-0.1,0.1-0.2,0.2-0.3,0.3c-0.3,0.5-0.6,1-1,1.6
		c-0.1,0.1-0.2,0.2-0.4,0.4c-0.5,0.8-1.1,1.5-1.6,2.3c-0.2,0-0.5,0.1-0.7,0.1c-0.2,0-0.5,0.1-0.7,0.1l0,0l0,0l0,0
		c-0.1-0.1-0.2-0.3-0.3-0.4l0,0c-0.3-0.5-0.2-1,0.2-1.6c0.2-0.3,0.3-0.6,0.4-0.9c0-0.1,0.1-0.1,0.1-0.2c0.2-0.3,0.4-0.5,0.6-0.8
		c0.9-1.4,1.8-2.7,2.7-4.1c0,0,0,0,0-0.1l0,0c0.6,0,1.2-0.1,1.7,0.1C1219.2,642.2,1218.7,642.9,1218.5,643.5z"/>
	<path class="st16" d="M1214.9,650.9c-0.8,0.7-1.7,0.8-2.6,0.4c-1-0.5-1.6-1.5-1.5-2.5c0-0.3,0.1-0.7,0.1-1c0.7-0.7,1.3-1.5,2.4-1.3
		c0,0.1-0.1,0.1-0.1,0.2c-0.3,0.2-0.6,0.5-0.9,0.7c-0.8,0.5-1.1,1.2-0.8,2.2c0.3,0.8,0.9,1.2,1.8,1.2c1,0,1.5-0.6,1.8-1.5
		c0.1-0.3,0.2-0.7,0.4-1.2C1215.9,649.3,1215.7,650.2,1214.9,650.9z"/>
	<path d="M1212.9,649.6c-0.1-0.1-0.2-0.3-0.3-0.4C1212.7,649.4,1212.8,649.5,1212.9,649.6z"/>
	<path class="st14" d="M1216,649.3c0,1-0.9,2.1-1.9,2.4c-1.1,0.3-2.2,0-2.9-0.9c-0.8-1-0.8-1.9-0.2-3c0,0.3-0.1,0.7-0.1,1
		c-0.1,1,0.5,2,1.5,2.5s1.8,0.3,2.6-0.4c0.8-0.7,1-1.6,0.6-2.7c-0.2,0.5-0.3,0.8-0.4,1.2c-0.3,0.9-0.8,1.5-1.8,1.5
		c-0.9,0-1.5-0.4-1.8-1.2c-0.3-0.9,0-1.6,0.8-2.2c0.3-0.2,0.6-0.5,0.9-0.7c-0.1,0.3-0.2,0.6-0.4,0.9c-0.4,0.6-0.5,1.1-0.2,1.6
		c-0.1-0.1-0.1-0.2-0.2-0.2c-0.1-0.1-0.1-0.2-0.2-0.2c-0.1-0.2-0.2-0.3-0.3-0.5c-0.4,0.8-0.3,1.6,0.5,2c0.7,0.4,1.6,0.2,2-0.4
		c0.1-0.1-0.1-0.3-0.1-0.5c0.5-0.8,1.1-1.5,1.6-2.3C1216,647.9,1216,648.6,1216,649.3z"/>
	<path d="M1225.7,654.2L1225.7,654.2L1225.7,654.2z"/>
	<path class="st14" d="M1226.5,654.7c-0.1,0.7-0.4,1.4-0.7,2c-0.2,0.4-0.4,0.9-0.7,1c-0.6,0.2-1.3,0.3-1.8,0.1
		c-1.1-0.5-2.2-1.3-2.2-2.8c-0.1-1.1,0.7-2.2,2-2.7c0.4-0.2,0.9-0.3,1.3-0.4l0,0l0,0c-0.3,0.4-0.6,0.9-0.8,1.3h-0.1
		c0-0.2,0.1-0.4,0.2-0.6c-1.5,0.1-2.4,1.2-2.3,2.7c0.1,1.3,1.5,2.3,2.9,2.1c1.3-0.2,2.3-1.6,2-2.9l0,0l0,0l0,0l0,0
		c-0.1-0.1-0.2-0.1-0.3-0.2c0.3-0.5,0.6-0.9,0.8-1.4C1226.5,653.5,1226.6,654.1,1226.5,654.7z"/>
	<path class="st14" d="M1179.9,605.3c0.7,1.4,2.1,1.9,3.4,1.2c0.2-0.1,0.4-0.2,0.6-0.3l0,0l0,0c-0.7,0.8-1.7,1.1-2.7,0.7
		c-1.1-0.4-2-1.7-1.9-2.8c0.1-1.1,1-2.3,2.1-2.5c1.1-0.3,2.1,0.1,2.7,1l0,0c0,0,0,0-0.1,0c-0.9-0.6-1.8-1.1-2.9-0.6
		C1179.9,602.7,1179.3,604.1,1179.9,605.3z"/>
	<path class="st14" d="M1230.2,655.8c-1.3-0.7-2.4-1.3-3.4-1.8c0-0.1,0.1-0.2,0.1-0.2c0.9,0.5,1.7,0.9,2.7,1.4
		c0-0.3,0.1-0.4,0.1-0.6c0.1,0,0.1,0,0.2,0C1229.9,654.9,1230,655.2,1230.2,655.8z"/>
	<path class="st14" d="M1223.4,653.2c-0.1,0.2-0.4,0.5-0.3,0.7c0,0.5,0.1,1.2,0.4,1.4c0.3,0.2,1,0,1.4-0.3c0.3-0.2,0.5-0.6,0.8-0.9
		l0,0c-0.1,0.3-0.1,0.5-0.2,0.8c-0.2,1.2-0.8,1.8-1.9,1.7c-0.9,0-1.5-0.5-1.7-1.4C1221.7,654.3,1222.2,653.6,1223.4,653.2
		L1223.4,653.2z M1224.9,655.8c-2.1,0.2-2.1-0.6-2.3-1.9c-0.6,0.9-0.5,1.8,0.2,2.3C1223.6,656.7,1224.2,656.5,1224.9,655.8z"/>
	<path class="st16" d="M1191.4,635.5c-0.8,0.5-0.9,1.3-0.6,2.1c0.3,0.8,1,1.1,1.9,1s1.4-0.7,1.6-1.6c0-0.3,0.2-0.6,0.4-1.1
		c0.5,1.5-0.1,2.8-1.4,3.3c-1.3,0.4-2.8-0.4-3.2-1.7c-0.3-1.3,0.5-2.7,1.8-3c0.1,0,0.3,0.2,0.5,0.3l0,0
		C1192.1,635.1,1191.7,635.3,1191.4,635.5L1191.4,635.5z"/>
	<path class="st16" d="M1191.4,635.5c0,0.1,0.1,0.3,0.1,0.4c0.1,1.8,0.7,2.2,2.4,1.6c-0.5,0.9-1.2,1.1-2,0.8c-0.8-0.3-1.1-1.2-0.8-2
		C1191.2,636,1191.3,635.8,1191.4,635.5L1191.4,635.5z"/>
	<path class="st16" d="M1202.8,641.1c-0.3,0.2-0.6,0.3-0.9,0.5c-0.8,0.5-1.1,1.2-0.8,2.1c0.3,0.8,0.9,1.3,1.8,1.2
		c0.9,0,1.5-0.5,1.7-1.4c0.1-0.4,0.2-0.8,0.4-1.3c0.5,1.6-0.1,2.8-1.4,3.3c-1.2,0.4-2.7-0.3-3.1-1.6c-0.4-1.2,0.3-2.6,1.5-3.1
		C1202.2,640.8,1202.5,641,1202.8,641.1C1202.7,641.1,1202.8,641.1,1202.8,641.1z"/>
	<path class="st16" d="M1201.7,642.2c0.2,1.7,0.8,2.1,2.5,1.8c-0.4,0.2-0.9,0.7-1.3,0.6c-0.5,0-1.1-0.4-1.3-0.8
		c-0.2-0.4-0.1-1.1-0.1-1.6C1201.5,642.2,1201.6,642.2,1201.7,642.2z"/>
	<path class="st16" d="M1214.4,649.4c0,0.2,0.2,0.4,0.1,0.5c-0.4,0.7-1.3,0.8-2,0.4c-0.8-0.5-0.9-1.2-0.5-2c0.3,0.4,0.6,0.9,0.9,1.3
		C1213.4,649.6,1213.9,649.5,1214.4,649.4z"/>
	<path class="st16" d="M1223.4,653.1c-1.2,0.5-1.7,1.2-1.4,2.2c0.2,0.9,0.8,1.4,1.7,1.4c1,0,1.6-0.5,1.9-1.7
		c0.1-0.3,0.1-0.5,0.2-0.8c0.1,0.1,0.4,0.1,0.4,0.3c0.3,1.2-0.7,2.7-2,2.9c-1.3,0.2-2.8-0.8-2.9-2.1c-0.2-1.5,0.8-2.6,2.3-2.7
		C1223.5,652.7,1223.4,652.9,1223.4,653.1z"/>
	<path class="st16" d="M1224.9,655.8c-0.6,0.8-1.3,0.9-2,0.4c-0.7-0.5-0.8-1.3-0.2-2.3C1222.7,655.2,1222.7,656,1224.9,655.8z"/>
</g>
<g>
	<g>
		<path class="st11" d="M1174.4,689.8c0,1.8,0,3.5,0,5.3c-0.4,0-0.7,0-1.1,0c-17.2,0-34.3,0.1-51.5-0.1c-2.4,0-4.8-0.8-7.1-1.5
			c-6.6-2.1-13.4-2.9-20.3-3.3c-1.5-0.1-3-0.2-4.6-0.3c0,1.7,0,3.3,0,5c-13.3,0-26.5,0-39.7,0c0-3.1,0-6.2,0-9.4
			c0.3,0,0.6-0.1,1-0.1c12.6,0,25.2,0,37.9,0c8.1,0,16,0.8,24,2.4c6.3,1.2,12.6,1.8,19,1.8c13.7,0,27.3,0,41,0
			C1173.3,689.8,1173.8,689.8,1174.4,689.8z"/>
		<path class="st11" d="M1050.1,685.3c0-0.4,0-0.7,0-1.1c0.4,0,0.8,0,1.2,0c12,0,24,0,36.1,0c9.1,0,18.1,0.9,27,2.6
			c5.7,1.1,11.5,1.5,17.3,1.5c13.1,0,26.3,0,39.4,0c1,0,2.1,0,3.2,0c0,0.4,0,0.7,0.1,1c-0.2,0.1-0.2,0.1-0.3,0.1c-0.2,0-0.4,0-0.5,0
			c-14.2,0-28.3,0-42.5,0c-6.6,0-13.1-0.7-19.6-2c-8.1-1.6-16.3-2.2-24.5-2.2c-11.8,0-23.6,0-35.3,0
			C1051.2,685.3,1050.7,685.3,1050.1,685.3z"/>
		<path class="st12" d="M1049.4,663.8c1,0,1.7,0,2.4,0v-0.1c-0.7-0.1-1.4-0.2-2.1-0.3c-0.1-0.1-0.1-0.2-0.2-0.2
			c0.3-0.2,0.5-0.6,0.8-0.6c5.5,0.5,10.9,1.4,15.6,4.6c4,2.7,6.5,6.5,7.9,11.1c0.5,1.8,0.8,3.7,1.3,5.5c-0.9,0.2-0.9,0.2-1.5-1.5
			c0,0.5,0.1,1,0.1,1.7c-0.5,0-0.9,0-1.3,0c-7,0-14,0-21,0c-1.6,0-1.6,0-1.9-1.6c-0.7-4.2-0.8-8.5-0.5-12.8
			C1049.1,667.6,1049.3,665.7,1049.4,663.8z"/>
		<path class="st13" d="M1134.7,660.6c0.2-0.2,0.5-0.4,0.7-0.7c1.8,0.9,3.6,1.8,5.6,2.6c4.5,1.8,9.3,2.5,14.2,3
			c2.7,0.3,5.5,0.4,8.2,0.9c6.2,1.1,11.1,7.6,10.5,13.3c-0.3,2.6-0.8,5.1-1.3,7.6c-0.1,0.6-0.4,0.8-1.1,0.8c-14.7,0-29.5,0-44.2-0.1
			c-5.7,0-11.4-1.1-17-2.1c-6-1.1-12-1.7-18-1.8c-3.3-0.1-6.6-0.1-9.9-0.1c-0.3,0-0.7,0-1.1,0c0.1-2.4,1.2-4.1,2.9-5.3
			c2.1-1.5,4.4-3,6.7-4c8.1-3.6,16.7-5.1,25.6-5.3c4.5-0.1,8.9-0.2,13.4-0.2c3.2,0,5.7-1.2,7.9-3.4c1.2-1.2,1.1-2-0.4-2.7
			c-0.8-0.4-1.6-0.8-2.4-1.3c-0.2-0.1-0.3-0.5-0.5-0.8C1134.5,660.8,1134.6,660.7,1134.7,660.6z"/>
		<path class="st12" d="M1094,615c0.9-0.1,1.5-0.1,2.3-0.1c0,2.8,0,5.6,0,8.5c-0.8,0-1.6,0-2.3,0C1094,620.6,1094,617.9,1094,615z"
			/>
		<path class="st12" d="M1093.6,626.3c1-0.1,1.8-0.1,2.6-0.2c0.1,1.2,0.2,2.3,0.3,3.4c0,0.1,0,0.3,0,0.4c0.1,0.8,0.6,1.8,0.3,2.2
			c-0.5,0.7-1.5,0.9-2.4,1.4C1093.5,631.2,1093.8,628.8,1093.6,626.3z"/>
		<path class="st12" d="M1102.2,639.7c-0.3,0.5-0.7,1-1.1,1.7c-2.1-1.5-4.3-2.8-5.6-5.2c0.9-0.5,1.8-0.9,2.5-1.2
			C1099.4,636.5,1100.7,638,1102.2,639.7z"/>
		<path class="st12" d="M1091.2,607.9c1.6-0.2,2.9-0.4,4.2-0.4c0.2,0,0.7,0.5,0.7,0.7c-0.2,0.7-0.4,1.7-0.9,2
			c-0.6,0.4-1.6,0.6-2.3-0.5C1092.6,609,1091.9,608.6,1091.2,607.9z"/>
		<path class="st12" d="M1094,611.3c-0.1-0.3-0.1-0.5-0.2-0.7c2-0.3,2.3-0.6,2.5-2.3c0.1-0.9-0.3-1.3-1.1-1.2
			c-1.1,0.1-2.3,0.3-3.4,0.4c-0.7,0.1-1.4,0-2.1,0c0-0.2,0-0.3,0-0.5c1.9-0.2,3.8-0.6,5.7-0.7c1.3-0.1,1.7,0.6,1.7,1.8
			C1097.2,610.2,1096.3,611.1,1094,611.3z"/>
		<path class="st12" d="M1104.1,641.6c0.2-0.2,0.4-0.3,0.6-0.5c2.6,1.6,5.1,3.2,7.7,4.9c-0.1,0.3-0.2,0.6-0.2,0.9
			c-0.1,0.1-0.2,0.3-0.4,0.4c-0.3,0.6-0.7,0.6-1.3,0.2c-2.1-1.4-4.3-2.7-6.5-4.1c-0.3-0.2-0.5-0.5-0.7-0.7
			C1103.6,642.3,1103.8,642,1104.1,641.6z"/>
		<path class="st12" d="M1114.4,647.9c0.3-0.1,0.6-0.3,0.8-0.2c2.5,1.5,5,3,7.5,4.5c-0.4,0.6-0.7,1.1-1.1,1.6
			c-2.5-1.5-5-2.9-7.5-4.4c-0.2-0.1-0.3-0.4-0.4-0.6C1113.9,648.6,1114.2,648.3,1114.4,647.9z"/>
		<path class="st12" d="M1124.2,654.6c0.1-0.1,0.2-0.2,0.3-0.3c0.2-0.2,0.4-0.3,0.6-0.5c2.6,1.5,5.2,3.1,7.8,4.6
			c-0.4,0.5-0.7,1-1.1,1.6c-1.1-0.6-2.1-1.2-3.2-1.8c-1.3-0.8-2.7-1.6-4-2.3C1124.1,655.5,1124,655.2,1124.2,654.6z"/>
		<path class="st14" d="M1098,624.2c0,0.1,0.1,0.2,0.1,0.4c0,0,0,0,0,0.1l0,0c0,0.1,0,0.1,0,0.2c0,0.6-0.5,1-1.6,1
			c-2.1,0.1-4.3,0.1-6.4,0.2c-0.8,0-1.5-0.1-1.6-1.1c0-0.9,0.7-1.1,1.4-1.2c2.2-0.1,4.5-0.2,6.7-0.2c0.1,0,0.3,0,0.4,0
			c0.1,0,0.2,0,0.3,0.1c0,0,0,0,0.1,0 M1096.8,623.2v-8.3c0.3-0.1,0.6-0.3,0.9-0.4c-2.5,0.1-4.9,0.2-7.4,0.2c-0.2,0-0.4,0-0.6,0
			h-0.1c-0.1,0-0.2,0-0.3,0l0,0c-0.1,0-0.2,0-0.3-0.1c-0.1,0-0.1,0-0.2,0l0,0l0,0c0.2,0.2,0.3,0.5,0.4,0.6c-0.9,0.1-1.6-0.4-1.6-1.3
			c-0.1-0.8,0.5-1.5,1.6-1.6c-0.3,0.4-0.7,0.7-0.7,1.1c0,0.1,0,0.1,0,0.2c0,0,0,0,0,0.1c0,0,0,0,0,0.1v0.1l0,0c0,0,0,0,0,0.1
			c0,0,0,0,0,0.1l0,0c0,0,0,0.1,0.1,0.1c0.1,0.1,0.1,0.3,0.2,0.4v0.1l0,0c-0.1-0.3-0.2-0.5-0.2-0.7v-0.1c-0.1-0.8,0.3-1.1,1.5-1.2
			c2.2-0.1,4.5-0.2,6.7-0.2c0.5,0,0.9,0.3,1.4,0.4c-0.4-0.3-0.9-0.6-1.5-1c0.1-0.4,0.2-1,0.5-1.5c0.9-1.9,0.6-3.3-0.8-4.3h-3
			c-2.1,0.4-4.1,1-6.3,0.8c-3.2-0.3-6.5,0-9.6,0.4c-4.6,0.6-9.2,1.6-13.8,2.2c-2.1,0.3-4.3,0.4-6.4,0.4c-2.3,0-3.9,1.3-4,3.6
			c0,1.1,0,2.2,0,3.5c-0.5,0-1.1,0.1-1.7,0.1v13.6c0.7,0,1.3,0.1,2,0.1c-0.1,2.8-0.2,5.5-0.4,8.3h-2c-0.1,1.6-0.3,3.2-0.4,4.9
			c-0.2,2.5-0.5,5.1-0.8,7.6c-0.1,1.3-0.2,1.3,1.1,1.4c0.2,0,0.4,0.1,0.8,0.2c-0.5,2.9-1,5.9-1.5,8.8c-0.5,0.1-0.7,0.1-1.1,0.1
			c-0.1,0.9-0.3,1.8-0.4,2.7c-0.2,1.4-0.3,2.8-0.4,4.2v8.8c0.1,0.9,0.2,1.7,0.4,2.6c0.7,3,0.9,6.1,0.8,9.2c-0.1,1.6,0,3.3,0,4.9v1.1
			h40.8v-4.9c0.5,0,0.9,0,1.3,0c2.5,0.2,5,0.4,7.6,0.6c5.2,0.4,10.2,1.3,15.2,2.8c2.3,0.7,4.7,1.5,7.1,1.5
			c17.4,0.1,34.9,0.1,52.3,0.1h1.1v-7.8h-2.2c0.1-0.5,0.3-0.8,0.4-1.1c0.9-3.3,1.7-6.8,0.9-10.2c-1.3-5.6-4.9-9.4-10.6-10.7
			c-2.6-0.6-5.4-0.6-8-0.9c-4.8-0.5-9.6-1.1-14.2-3c-1.9-0.8-3.7-1.7-5.6-2.6c1.1-2,1.1-2.2,0.2-2.9v0.1c0.6,0.7,0.5,1.3,0,2
			c-0.4,0.6-0.7,1.2-1.1,1.8c0.2-0.2,0.5-0.4,0.7-0.7c1.8,0.9,3.6,1.8,5.6,2.6c4.5,1.8,9.3,2.5,14.2,3c2.7,0.3,5.5,0.4,8.2,0.9
			c6.2,1.1,11.1,7.6,10.5,13.3c-0.3,2.6-0.8,5.1-1.3,7.6c-0.1,0.6-0.4,0.8-1.1,0.8c-14.7,0-29.5,0-44.2-0.1c-5.7,0-11.4-1.1-17-2.1
			c-5.9-1.1-12-1.7-18-1.8c-3.3-0.1-6.6-0.1-9.9-0.1c-0.3,0-0.7,0-1.1,0c0.1-2.4,1.2-4.1,2.9-5.3c2.1-1.5,4.4-3,6.7-4
			c8.1-3.6,16.7-5.1,25.6-5.3c4.5-0.1,8.9-0.2,13.4-0.2c3.2,0,5.7-1.2,7.9-3.4c1.2-1.2,1.1-2-0.4-2.7c-0.8-0.4-1.6-0.8-2.4-1.3
			c-0.2-0.1-0.3-0.5-0.5-0.8c-0.2,0.3-0.4,0.6-0.6,0.9c1.3,0.7,2.7,1.2,4,2c0.7,0.5,0.1,1.1-0.3,1.5c-2.2,2.2-4.8,3.3-7.9,3.3
			c-4.6,0-9.2,0.1-13.8,0.2c-9.4,0.2-18.4,2-26.9,6.1c-1.7,0.8-3.3,1.9-4.8,3c-1.9,1.4-3.2,3.3-3.4,6c-0.5-0.1-1-0.2-1.4-0.3
			c-0.4,0.1-0.9,0.2-1.3,0.2c-2.6,0-2.5,0-3-2.5c-1.9-10.1-8-16.4-18.4-18.4c-1.9-0.4-3.8-0.6-5.7-0.9c0.5-2.9,1-5.8,1.5-8.7
			c1.4-0.3,1.6-0.2,2.1,1.1c0.4,1.1,1.7,2,2.8,1.9c1.4-0.1,2.5-1,2.8-2.3c0.3-1.7,0.4-3.3,0.6-5c0.3-2.7,0.6-5.5,0.9-8.3
			c0.1-1.4-0.3-2.5-1.5-3.2c-1.1-0.6-2.1-0.5-3,0.2c-0.5,0.4-0.8,1-1.3,1.6c-0.5-0.1-1.2-0.1-1.9-0.2c0.1-2.9,0.2-5.6,0.3-8.5h1.5
			c0.4,0.7,0.8,1.4,1.3,1.9c0.8,0.7,1.8,1,2.8,0.5c1.1-0.5,1.9-1.3,1.9-2.6c0-4.6,0-9.1,0-13.7c0-1.4-1.1-2.6-2.5-2.7
			c-1.6-0.2-2.7,0.6-3.4,2.5h-2c0-1.5-0.1-2.9,0-4.3s1.6-2.4,3-2.3c4.1,0.4,8-0.4,11.9-1.2c5.8-1.2,11.7-1.9,17.7-1.9
			c2.1,0,4.1,0.8,5.7,2.2c0.9,0.7,1.6,1.6,1.6,3c-0.5,0-0.9,0-1.3,0.1c-0.1-0.5-0.1-0.9-0.2-1.3h-0.1c0,0.4,0,0.8-0.1,1.3
			c-0.3-0.1-0.6-0.2-0.8-0.3l0,0l0,0c-0.4,0-0.8,0.1-1.2,0c-0.9-0.3-1.7-0.1-2.2,0.6s-0.5,1.5,0,2.1c0.6,0.7,1.4,0.9,2.3,0.5
			c0.3-0.1,0.7-0.3,1.1-0.4c-0.1,0.3-0.1,0.5-0.2,0.7l0,0l0,0c0.3-0.2,0.6-0.4,1-0.8c0.1,0.8,0.1,1.4,0.2,2.1c0.1,0,0.1,0,0.2,0
			v-1.9h1.2v8.4c-0.6,0-1,0.1-1.5,0.1c0-0.6,0.1-1,0.1-1.5c-0.1,0-0.1,0-0.2,0c-0.1,0.5-0.1,0.9-0.2,1.6c-0.9-1-1.9-1.6-3.1-1.3
			c-0.6,0.2-1.2,0.5-1.5,1c-1,1.1-0.8,2.6,0.2,3.6c1.2,1.2,2.6,1.1,4.3-0.3c0.1,0.5,0.1,1,0.2,1.5c0.1,0,0.1,0,0.2,0V626h1.4
			c0,0.7-0.1,1.4,0,2.2c0.2,1.8,0.5,3.7,0.7,5.5c1.1-0.5,2.1-1,3.2-1.5c0.7-0.3,1.4-0.4,1.8,0.4c0.4,0.8-0.1,1.2-0.8,1.6
			c-2,1-4.1,2-6.1,3c-0.7,0.3-1.4,0.4-1.7-0.3c-0.4-0.8,0-1.3,0.7-1.7c0.9-0.4,1.9-0.9,2.8-1.4c-0.3,0-0.6,0.1-1,0.1
			c-0.1-0.3-0.3-0.7-0.4-1.1c-0.1,0-0.1,0-0.1,0c0.1,0.4,0.2,0.8,0.3,1.5c-1.2-0.5-2.4-0.9-3.4,0.1c-0.5,0.5-0.9,1.1-1.1,1.7
			c-0.4,1.2,0.6,2.6,1.8,3.1c1.5,0.6,2.8-0.2,3.8-2.4c0.4,0.6,0.8,1.1,1.1,1.6c0.1,0,0.1-0.1,0.2-0.1c-0.3-0.5-0.7-1.1-1.1-1.7
			c0.4-0.2,0.7-0.4,1.1-0.6c1.3,2.2,3.3,3.5,5.2,4.9c0.5,0.3,0.5,0.6,0.3,1.1l0,0l0,0c0.9-1.2,1.7-2.4,2.6-3.6
			c-0.5,0.4-1,0.3-1.4-0.2c-1.1-1.2-2.2-2.5-3.2-3.6c1.2-1.6,0.9-2.3-0.7-2.9c-0.2-0.1-0.4-0.3-0.5-0.5c-0.3-1.8-0.5-3.6-0.8-5.3
			c0.2,0.1,0.3,0.1,0.5,0.2c0.4-0.5,1-0.8,1.3-1.4 M1090.2,639.3c-1.4-0.4-2.2-1.8-1.8-3.1c0.4-1.2,1.9-2.3,3.6-1.3
			c-0.6,0.1-0.9,0.2-1.3,0.2c-0.9,0.1-1.5,0.6-1.7,1.5c-0.1,0.9,0.2,1.5,0.9,1.9c0.8,0.4,1.6,0.3,2.1-0.4c-0.1,0-0.3,0-0.4,0.1
			c-1,0.5-1.8,0.3-2.3-0.5s-0.2-1.5,0.9-2.2c-0.1,0.3-0.2,0.5-0.3,0.6c-0.4,1,0.1,1.9,1.1,2c0.3,0,0.6,0,0.9,0l0,0
			c0.3-0.2,0.6-0.5,1-0.8C1092.8,638.8,1091.4,639.7,1090.2,639.3z M1102.2,639.7c-0.3,0.5-0.7,1-1.1,1.7c-2.1-1.5-4.3-2.8-5.6-5.2
			c0.9-0.5,1.8-0.9,2.5-1.2C1099.4,636.5,1100.7,638,1102.2,639.7z M1096.2,626.1c0.1,1.2,0.2,2.3,0.3,3.4c0,0.1,0,0.3,0,0.4
			c0.1,0.8,0.6,1.8,0.3,2.2c-0.5,0.7-1.5,0.9-2.4,1.4c-1-2.4-0.7-4.8-0.9-7.3C1094.5,626.2,1095.4,626.2,1096.2,626.1z
			 M1088.7,623.2L1088.7,623.2L1088.7,623.2h-0.2c-0.2,0.1-0.4,0.2-0.6,0.5l0,0l0,0l0,0c0.2-0.1,0.5-0.1,0.7-0.2
			c0.1,0,0.2-0.1,0.3-0.1s0.1,0,0.2,0c-1.3,1.3-1.2,2,0.2,3c-1.5,0.1-2.2-0.9-1.6-2.2c0.1-0.1,0.1-0.3,0.1-0.4l0,0l0,0l0,0
			c-0.1,0.1-0.2,0.1-0.3,0.2c0,0,0,0-0.1,0.1l-0.1,0.1c0,0,0,0,0,0.1c0,0,0,0,0,0.1c0,0,0,0.1-0.1,0.1v0.1c0,0,0,0,0,0.1
			c0,0,0,0,0,0.1c-0.1,0.3,0,0.7,0.2,1c0.8,1.9,2.3,0.9,3.7,0.6c-0.8,1.1-1.6,1.5-2.7,1.2c-1-0.3-1.8-1.2-1.8-2.2
			c-0.1-1.1,0.5-2,1.6-2.5c1-0.4,1.9-0.1,2.7,0.8C1090.2,623.7,1089.4,623.1,1088.7,623.2z M1094,615c0.9-0.1,1.5-0.1,2.3-0.1v8.5
			h-2.3V615z M1093,609.6c-0.4-0.6-1-1-1.8-1.7c1.6-0.2,2.9-0.4,4.2-0.4c0.2,0,0.7,0.5,0.7,0.7c-0.2,0.7-0.4,1.7-0.9,2
			C1094.6,610.4,1093.6,610.6,1093,609.6z M1095.5,606.4c1.3-0.1,1.7,0.6,1.7,1.8c0,2-0.9,2.9-3.2,3.1c-0.1-0.3-0.1-0.5-0.2-0.7
			c2-0.3,2.3-0.6,2.5-2.3c0.1-0.9-0.3-1.3-1.1-1.2c-1.1,0.1-2.3,0.3-3.4,0.4c-0.7,0.1-1.4,0-2.1,0c0-0.2,0-0.3,0-0.5
			C1091.7,606.8,1093.6,606.5,1095.5,606.4z M1059,637.7c1.2,0.3,2.2,1.4,2.1,2.7c-0.4,4.4-0.9,8.8-1.4,13.3
			c-0.2,1.5-1.3,2.4-2.7,2.3c-1.2-0.1-2.1-1.1-2.2-2.4c0.1-0.1,0.2-0.2,0.2-0.2c0.2,0.2,0.5,0.4,0.6,0.7c0.4,0.7,0.9,1.2,1.8,1
			c0.9-0.1,1.3-0.8,1.4-1.6c0.5-4.3,1-8.6,1.3-12.9c0-0.5-0.5-1.3-0.9-1.7c-0.6-0.5-1.2-0.2-1.8,0.3c-0.3,0.3-0.7,0.4-1.2,0.7
			C1056.8,638.2,1057.9,637.5,1059,637.7z M1056,653.9c0-0.1,0.1-0.2,0.1-0.3c0.7,0.1,1.3,0.1,2,0.2c0,0.1,0,0.3,0.1,0.4
			c-0.4,0.1-0.8,0.4-1.1,0.4C1056.7,654.5,1056.4,654.2,1056,653.9z M1059.8,639.9c-0.8,0-1.4-0.1-2.2-0.1
			C1058.4,638.8,1058.8,638.9,1059.8,639.9z M1059.1,614.8c1.2,0.2,2,1.2,2,2.7c0,4.3,0,8.6,0,12.9c0,1.4-0.9,2.5-2.2,2.7
			c-1.2,0.2-2.3-0.7-2.8-2.5c0.5,0.3,0.9,0.4,1,0.6c0.5,0.7,1.1,1.1,1.9,0.9c0.9-0.3,1.2-0.9,1.2-1.8c0-4.2,0-8.4,0-12.6
			c0-0.9-0.2-1.6-1.1-2c-0.8-0.3-1.5,0.1-2,0.8c-0.1,0.2-0.5,0.3-1,0.5C1056.8,615.2,1057.8,614.5,1059.1,614.8z M1057.6,630.8h2.2
			C1059,632,1058.2,632,1057.6,630.8z M1059.6,616.8h-1.9C1058.4,615.8,1058.9,615.8,1059.6,616.8z M1052,630.1v-12.8h7.8v12.8H1052
			z M1050.4,652.4c0.4-4.3,0.8-8.5,1.2-12.8c2.7,0.3,5.4,0.6,8.1,0.9c-0.5,4.3-0.9,8.5-1.3,12.8
			C1055.7,652.9,1053.1,652.6,1050.4,652.4z M1049.5,682.3c-0.7-4.2-0.8-8.5-0.5-12.8c0.1-1.9,0.3-3.8,0.4-5.8h2.4v-0.1
			c-0.7-0.1-1.4-0.2-2.1-0.3c-0.1-0.1-0.1-0.2-0.2-0.3c0.3-0.2,0.5-0.6,0.8-0.6c5.5,0.5,10.9,1.4,15.6,4.6c4,2.7,6.5,6.5,7.9,11.1
			c0.5,1.8,0.9,3.7,1.3,5.5c-0.9,0.2-0.9,0.2-1.5-1.5c0,0.5,0.1,1,0.1,1.7h-22.2C1049.8,683.9,1049.8,683.9,1049.5,682.3z
			 M1174.4,695.1h-1.1c-17.2,0-34.3,0.1-51.5-0.1c-2.4,0-4.8-0.8-7.1-1.5c-6.6-2.1-13.4-2.9-20.3-3.3c-1.5-0.1-3-0.2-4.6-0.3v5
			h-39.7v-9.2c0.3,0,0.6-0.1,1-0.1c12.6,0,25.2,0,37.9,0c8.1,0,16,0.8,24,2.4c6.3,1.2,12.6,1.8,19,1.8c13.7,0,27.3,0,41,0h1.5v5.3
			L1174.4,695.1L1174.4,695.1z M1174.1,689.5c-0.2,0-0.4,0-0.5,0c-14.2,0-28.3,0-42.5,0c-6.6,0-13.1-0.7-19.6-2
			c-8.1-1.6-16.3-2.2-24.5-2.2c-11.8,0-23.6,0-35.3,0h-1.5v-1.1h1.2c12,0,24,0,36.1,0c9.1,0,18.1,0.9,27,2.6
			c5.7,1.1,11.5,1.5,17.3,1.5c13.1,0,26.3,0,39.4,0h3.2c0,0.4,0,0.7,0.1,1C1174.2,689.4,1174.2,689.5,1174.1,689.5z"/>
		<path class="st15" d="M1105,640.1c-0.3,0.5-0.6,1-0.9,1.5c-0.3,0.3-0.5,0.7-0.8,1c-0.1,0.3-0.3,0.6-0.4,0.9
			c-0.2,0.4-0.5,0.8-0.7,1.1c-0.4,0.5-0.9,1-1.3,1.5c-0.5,0.6-1,1.1-1.7,0.6c-0.7-0.5-0.6-1.2-0.1-1.8c0.1-0.2,0.3-0.5,0.4-0.7l0,0
			l0,0l0,0l0,0c0.4-0.6,0.8-1.3,1.3-1.9l0,0l0,0c0.9-1.2,1.7-2.4,2.6-3.6c0.5,0,1.1-0.1,1.5,0.2C1104.9,639,1104.9,639.7,1105,640.1
			z"/>
		<path class="st15" d="M1115.3,646.4c-0.3,0.5-0.6,1-0.9,1.5c-0.2,0.3-0.5,0.6-0.7,1c-0.2,0.3-0.3,0.5-0.5,0.8
			c-0.1,0.1-0.3,0.2-0.3,0.3c-0.6,0.9-1.2,1.8-1.8,2.7c-0.4,0.5-1,0.7-1.6,0.3c-0.6-0.4-0.6-1-0.3-1.6c0.2-0.3,0.3-0.6,0.5-0.9l0,0
			l0,0l0,0c0.3-0.5,0.5-0.9,0.8-1.3c0.1-0.1,0.3-0.3,0.4-0.4c0.3-0.5,0.6-1,0.9-1.5c0.1-0.1,0.2-0.3,0.4-0.4c0.5-0.7,1-1.4,1.6-2
			C1115.2,644.7,1115.7,645.1,1115.3,646.4z"/>
		<path class="st15" d="M1088.8,614.6c-0.5-1.4-0.2-1.9,1.3-2c2.2-0.1,4.5-0.2,6.7-0.2c0.5,0,0.9,0.3,1.4,0.4
			c0.5,0.8,0.1,1.3-0.5,1.8c-2.5,0.1-4.9,0.2-7.4,0.2C1089.7,614.8,1089.2,614.6,1088.8,614.6L1088.8,614.6z"/>
		<path class="st14" d="M1135.8,656.6L1135.8,656.6c-1-0.2-1.5,0.2-2,1c-0.8,1.2-1.8,2.4-2.6,3.7l0,0l0,0c0.1-0.3,0.3-0.6,0.4-1
			c-2.5-1.4-4.9-2.9-7.3-4.2c-0.2-0.1-0.6,0.1-1,0.1c0.3-0.5,0.6-1,1-1.6c-0.3,0.6-0.1,0.9,0.5,1.2c1.4,0.7,2.7,1.5,4,2.3
			c1,0.6,2.1,1.2,3.2,1.8c0.4-0.6,0.7-1,1.1-1.6c-2.7-1.6-5.2-3.1-7.8-4.6c-0.2,0.2-0.4,0.3-0.6,0.5c0.3-0.5,0.6-0.9,0.9-1.4h0.1
			c0.1,0.3,0.1,0.6,0.3,0.7c2.4,1.5,4.9,2.9,7.3,4.3C1134,657.3,1134.2,655.6,1135.8,656.6z"/>
		<path class="st14" d="M1121,655.1c0.1-0.3,0.2-0.6,0.2-0.9c-1.8-1.1-3.6-2.1-5.4-3.2c-0.8-0.5-1.7-0.9-2.5-1.3l0,0l0,0
			c0.2-0.3,0.3-0.5,0.5-0.8c0.1,0.2,0.2,0.5,0.4,0.6c2.5,1.5,4.9,2.9,7.5,4.4c0.4-0.6,0.7-1.1,1.1-1.6c-2.5-1.5-5-3-7.5-4.5
			c-0.2-0.1-0.5,0.1-0.8,0.2c0.3-0.5,0.6-1,0.9-1.5c-0.2,0.6,0,0.9,0.6,1.3c2.3,1.3,4.6,2.8,6.9,4.2c0.3-0.3,0.6-0.6,0.9-0.8
			C1122.8,652.4,1121.9,653.7,1121,655.1z"/>
		<path d="M1123.8,651C1123.7,651,1123.7,651,1123.8,651C1123.7,651,1123.7,651,1123.8,651L1123.8,651z"/>
		<path class="st14" d="M1113.7,644.8c-0.5,0.7-1,1.4-1.6,2c0.1-0.3,0.2-0.6,0.2-0.9c-2.6-1.6-5.1-3.2-7.7-4.9
			c-0.2,0.1-0.4,0.3-0.6,0.5c0.3-0.5,0.6-1,0.9-1.5c0.2,0.3,0.2,0.8,0.5,1c2.4,1.6,4.8,3.1,7.1,4.5
			C1113,645.3,1113.3,645.1,1113.7,644.8z"/>
		<path class="st16" d="M1123.8,651c0.6-0.8,1.3-0.7,1.8-0.1c0.7,0.7,0.6,1.4-0.1,2.1h-0.1c0.2-0.6,0.7-1.3,0-1.8
			C1125,650.8,1124.3,651,1123.8,651L1123.8,651z"/>
		<path class="st17" d="M1051.6,639.5c2.7,0.3,5.4,0.6,8.1,0.9c-0.5,4.3-0.9,8.5-1.3,12.8c-2.7-0.3-5.3-0.6-8-0.8
			C1050.8,648.1,1051.2,643.9,1051.6,639.5z"/>
		<path class="st17" d="M1059.8,630.1c-2.6,0-5.1,0-7.8,0c0-4.3,0-8.5,0-12.8c2.5,0,5.1,0,7.8,0
			C1059.8,621.6,1059.8,625.8,1059.8,630.1z"/>
		<path class="st12" d="M1055,653.4c0.2,0.2,0.5,0.4,0.6,0.7c0.4,0.7,0.9,1.2,1.8,1c0.9-0.1,1.3-0.8,1.4-1.6c0.5-4.3,1-8.6,1.3-12.9
			c0-0.5-0.5-1.3-0.9-1.7c-0.6-0.5-1.2-0.2-1.8,0.3c-0.3,0.3-0.7,0.4-1.2,0.7c0.6-1.6,1.7-2.3,2.9-2.1c1.2,0.3,2.2,1.4,2.1,2.7
			c-0.5,4.4-0.9,8.8-1.4,13.3c-0.2,1.5-1.3,2.4-2.7,2.3c-1.2-0.1-2.1-1.1-2.2-2.4C1054.9,653.5,1055,653.4,1055,653.4z"/>
		<path class="st12" d="M1056.2,617c0.6-1.8,1.6-2.5,2.9-2.3c1.2,0.2,2,1.2,2,2.7c0,4.3,0,8.6,0,12.9c0,1.4-0.9,2.5-2.2,2.7
			c-1.2,0.2-2.3-0.7-2.8-2.5c0.5,0.3,0.9,0.4,1,0.6c0.5,0.7,1.1,1.1,1.9,0.9c0.9-0.3,1.2-0.9,1.2-1.8c0-4.2,0-8.4,0-12.6
			c0-0.9-0.2-1.6-1.1-2c-0.8-0.3-1.5,0.1-2,0.8C1057.1,616.7,1056.7,616.8,1056.2,617z"/>
		<path class="st15" d="M1135.8,658.7c-0.4,0.6-0.7,1.2-1.1,1.8c-0.1,0.1-0.2,0.2-0.3,0.3c-0.2,0.3-0.4,0.6-0.6,0.9
			c-0.1,0.1-0.2,0.2-0.4,0.4c-0.3,0.5-0.6,0.9-0.8,1.4l0,0l0,0l0,0c-0.3,0.3-0.5,0.7-0.8,0.8c-0.4,0.2-1.1,0.5-1.4,0.3
			c-0.3-0.2-0.3-0.9-0.4-1.4c0-0.2,0.2-0.5,0.3-0.7c0.3-0.4,0.6-0.9,0.8-1.3l0,0l0,0c0.9-1.2,1.8-2.4,2.6-3.7c0.5-0.7,1.1-1.2,2-0.9
			C1136.3,657.3,1136.3,658,1135.8,658.7z"/>
		<path class="st15" d="M1096.7,623.6l1.4,0.3c0.7,1.4,0.1,1.9-1.5,2c-2.1,0.1-4.3,0.1-6.4,0.2c-0.8,0-1.5-0.1-1.6-1.1
			c0-0.9,0.7-1.1,1.4-1.2C1092.2,623.7,1094.6,623.6,1096.7,623.6"/>
		<path class="st15" d="M1098.1,634.5c-2,1-4.1,2-6.1,3c-0.7,0.3-1.4,0.4-1.7-0.3c-0.4-0.8,0-1.3,0.7-1.7c0.9-0.4,1.9-0.9,2.8-1.4
			h0.1c1.1-0.5,2.1-1,3.2-1.5c0.7-0.3,1.4-0.4,1.8,0.4C1099.3,633.8,1098.8,634.2,1098.1,634.5z"/>
		<path class="st11" d="M1137.8,663.8c-1.3-0.8-2.6-1.4-4-2c-0.1,0.1-0.2,0.2-0.4,0.4c0,0.6,0,1.3-0.1,1.9c-0.1,0.7-0.4,1.4-0.7,2
			c-0.2,0.4-0.4,0.9-0.7,1c-0.6,0.2-1.3,0.3-1.8,0.1c-1.1-0.5-2.2-1.3-2.2-2.8c-0.1-1.1,0.7-2.2,2-2.7c0.4-0.2,0.9-0.3,1.3-0.4
			c0.1-0.3,0.3-0.6,0.4-1c-2.5-1.4-4.9-2.9-7.3-4.2c-0.2-0.1-0.6,0.1-1,0.1c-0.1,0.1-0.2,0.2-0.4,0.4c0,0.7,0,1.4,0,2.1
			c0,1-0.9,2.1-1.9,2.4c-1.1,0.3-2.2,0-2.9-0.9c-0.8-1-0.8-1.9-0.2-3c0.7-0.7,1.3-1.5,2.4-1.3c0.2-0.3,0.4-0.5,0.6-0.8
			c0.1-0.3,0.2-0.6,0.2-0.9c-1.8-1.1-3.6-2.1-5.4-3.2c-0.8-0.5-1.7-0.9-2.5-1.3c0,0.5-1.2,1.1,0,1.6c-0.3-0.1-0.5-0.2-0.8-0.3
			c0,2.9-0.7,4-2.5,4.2c-1.3,0.1-2.7-1-2.9-2.2c-0.3-1.7,0.6-2.8,3-3.4c-0.7-0.5-1.4-0.9-2.1-1.3c0-0.1,0.1-0.1,0.1-0.2
			c0.5,0.3,1,0.6,1.5,0.9c0.3,0.1,0.6,0.1,0.9,0.2c0.1-0.1,0.3-0.3,0.4-0.4c-0.1-0.3-0.2-0.6-0.4-0.8c-2.3-1.5-4.7-3-7.1-4.4
			c-0.1-0.1-0.4,0-0.6-0.1c-0.2,0.4-0.5,0.8-0.7,1.1c0,0.4-0.1,0.7-0.1,1.1c0.2,1.5-0.7,3-2.2,3.3c-1.4,0.3-2.9-0.8-3.2-2.3
			c-0.3-1.4,0.8-2.8,2.3-3.1c0.6-0.1,1.1-0.2,0.6-0.9c0.3-0.1,0.6-0.2,1-0.4c0.2-0.4,0.1-0.7-0.3-1.1c-1.9-1.4-3.9-2.7-5.2-4.9
			c-0.4,0.2-0.7,0.4-1.1,0.6c0.4,0.6,0.7,1.2,1.1,1.7c-0.1,0-0.1,0.1-0.2,0.1c-0.4-0.5-0.8-1.1-1.1-1.6c-1.1,2.2-2.3,3-3.8,2.4
			c-1.2-0.4-2.2-1.9-1.8-3.1c0.2-0.6,0.6-1.3,1.1-1.7c1-0.9,2.2-0.6,3.4-0.1c-0.1-0.6-0.2-1.1-0.3-1.5c0.1,0,0.1,0,0.1,0
			c0.1,0.4,0.3,0.7,0.4,1.1c0.4,0,0.7-0.1,1-0.1h0.1c-0.2-1.8-0.5-3.7-0.7-5.5c-0.1-0.7,0-1.5,0-2.2h-1.4v1.7c-0.1,0-0.1,0-0.2,0
			c-0.1-0.5-0.1-1-0.2-1.5c-1.8,1.4-3.2,1.5-4.3,0.3c-1-1-1.1-2.5-0.2-3.6c0.4-0.4,1-0.8,1.5-1c1.2-0.3,2.2,0.3,3.1,1.3
			c0.1-0.7,0.1-1.2,0.2-1.6c0.1,0,0.1,0,0.2,0c0,0.5-0.1,0.9-0.1,1.5c0.5,0,0.9-0.1,1.5-0.1V615h-0.9v1.9c-0.1,0-0.1,0-0.2,0
			c-0.1-0.7-0.1-1.3-0.2-2.1c-0.5,0.3-0.7,0.6-1,0.8l0,0c-0.7,0.8-1.7,1.1-2.7,0.7c-1.1-0.4-2-1.7-1.9-2.8c0.1-1.1,1-2.3,2.1-2.5
			c1.1-0.3,2.1,0.1,2.7,1l0,0c0.2,0.1,0.5,0.2,0.8,0.3c0-0.5,0-0.9,0.1-1.3h0.1c0,0.4,0.1,0.8,0.2,1.3c0.5,0,0.9,0,1.3-0.1
			c0.1-1.4-0.6-2.3-1.6-3c-1.6-1.4-3.6-2.2-5.7-2.2c-5.9,0-11.8,0.7-17.7,1.9c-3.9,0.8-7.8,1.6-11.9,1.2c-1.4-0.1-2.8,1-3,2.3
			c-0.2,1.4,0,2.8,0,4.3h2c0.7-1.9,1.8-2.7,3.4-2.5c1.3,0.2,2.4,1.3,2.5,2.7c0,4.6,0,9.1,0,13.7c0,1.3-0.8,2.1-1.9,2.6
			c-1,0.5-2.1,0.2-2.8-0.5c-0.5-0.5-0.8-1.2-1.3-1.9h-1.5c-0.1,2.9-0.2,5.6-0.3,8.5c0.7,0.1,1.4,0.1,1.9,0.2
			c0.5-0.6,0.8-1.2,1.3-1.6c0.9-0.7,2-0.9,3-0.2c1.2,0.7,1.7,1.8,1.5,3.2c-0.3,2.7-0.6,5.5-0.9,8.3c-0.2,1.7-0.3,3.3-0.6,5
			c-0.2,1.4-1.4,2.2-2.8,2.3c-1.1,0.1-2.3-0.8-2.8-1.9c-0.5-1.3-0.8-1.4-2.1-1.1c-0.5,2.9-1,5.8-1.5,8.7c1.9,0.3,3.8,0.5,5.7,0.9
			c10.5,2,16.5,8.3,18.4,18.4c0.5,2.5,0.4,2.5,3,2.5c0.5,0,0.9-0.2,1.3-0.2c0.4,0.1,0.9,0.2,1.4,0.3c0.2-2.7,1.5-4.5,3.4-6
			c1.5-1.1,3.1-2.2,4.8-3c8.5-4.1,17.5-5.9,26.9-6.1c4.6-0.1,9.2-0.2,13.8-0.2c3.1,0,5.7-1.1,7.9-3.3
			C1137.9,664.9,1138.5,664.3,1137.8,663.8z M1133.7,663.4c0-0.1,0.1-0.2,0.1-0.2c0.9,0.5,1.7,0.9,2.7,1.4c0-0.3,0.1-0.4,0.1-0.6
			c0.1,0,0.1,0,0.2,0c0.1,0.3,0.2,0.6,0.4,1.2C1135.8,664.5,1134.7,663.9,1133.7,663.4z"/>
		<path class="st16" d="M1091,614.9c-0.1,0.3-0.1,0.5-0.2,0.7c-0.2,0.1-0.4,0.2-0.6,0.3c-1.4,0.7-2.8,0.2-3.4-1.2
			c-0.6-1.2,0-2.6,1.3-3.2c1.1-0.5,2,0,2.9,0.6c-0.4,0-0.8,0.1-1.2,0c-0.9-0.3-1.7-0.1-2.2,0.6s-0.5,1.5,0,2.1
			c0.6,0.7,1.4,0.9,2.3,0.5C1090.2,615.2,1090.6,615.1,1091,614.9z"/>
		<path class="st8" d="M1090.9,615.6L1090.9,615.6C1090.8,615.6,1090.8,615.6,1090.9,615.6C1090.8,615.6,1090.8,615.6,1090.9,615.6
			L1090.9,615.6z"/>
		<path class="st8" d="M1091.1,612.1C1091.1,612,1091,612,1091.1,612.1C1091,612,1091,612,1091.1,612.1L1091.1,612.1L1091.1,612.1z"
			/>
		<path class="st16" d="M1087.9,623.8c-0.8,0.5-0.8,1.2-0.5,1.9c0.8,1.9,2.3,0.9,3.7,0.6c-0.8,1.1-1.6,1.5-2.7,1.2
			c-1-0.3-1.8-1.2-1.8-2.2c-0.1-1.1,0.5-2,1.6-2.5c1-0.4,1.9-0.1,2.7,0.8C1089.9,623.7,1088.7,622.5,1087.9,623.8L1087.9,623.8z"/>
		<path class="st16" d="M1092,638c0.3-0.2,0.6-0.5,1-0.8c-0.3,1.6-1.6,2.4-2.9,2.1c-1.4-0.4-2.2-1.8-1.8-3.1
			c0.4-1.2,1.9-2.3,3.6-1.3c-0.6,0.1-0.9,0.2-1.3,0.2c-0.9,0.1-1.5,0.6-1.7,1.5c-0.1,0.9,0.2,1.5,0.9,1.9
			C1090.7,638.9,1091.5,638.8,1092,638L1092,638z"/>
		<path class="st16" d="M1088.7,614.5c0.2,0.2,0.3,0.5,0.4,0.6c-0.9,0.1-1.6-0.4-1.6-1.3c-0.1-0.8,0.5-1.5,1.6-1.6
			c-0.3,0.4-0.7,0.7-0.7,1.1C1088.3,613.7,1088.6,614.2,1088.7,614.5C1088.8,614.6,1088.7,614.5,1088.7,614.5z"/>
		<path class="st16" d="M1092.1,638c-0.1,0-0.3,0-0.4,0.1c-1,0.5-1.8,0.3-2.3-0.5s-0.2-1.5,0.9-2.2c-0.1,0.3-0.2,0.5-0.3,0.6
			c-0.4,1,0.1,1.9,1.1,2C1091.4,638.1,1091.7,638,1092.1,638C1092,638,1092.1,638,1092.1,638z"/>
		<path class="st16" d="M1087.9,623.8c0.4-0.1,0.8-0.2,1.3-0.3c-1.3,1.3-1.2,2,0.2,3c-1.5,0.1-2.2-0.9-1.6-2.2
			C1087.8,624.1,1087.8,623.9,1087.9,623.8L1087.9,623.8z"/>
		<path class="st11" d="M1059.8,630.8c-0.7,1.2-1.5,1.1-2.2,0C1058.3,630.8,1059,630.8,1059.8,630.8z"/>
		<path class="st11" d="M1056.2,653.6c0.7,0.1,1.3,0.1,2,0.2c0,0.1,0,0.2,0.1,0.4c-0.4,0.1-0.8,0.4-1.1,0.4
			c-0.4-0.1-0.7-0.4-1.1-0.7C1056.1,653.8,1056.1,653.7,1056.2,653.6z"/>
		<path class="st11" d="M1057.7,616.8c0.7-1,1.2-1,1.9,0C1059,616.8,1058.4,616.8,1057.7,616.8z"/>
		<path class="st11" d="M1057.6,639.8c0.9-0.9,1.3-0.9,2.2,0.1C1059,639.8,1058.4,639.8,1057.6,639.8z"/>
		<path class="st14" d="M1102.2,644.6c-0.4,0.5-0.9,1-1.3,1.5c-0.5,0.6-1,1.1-1.7,0.6c-0.7-0.5-0.6-1.2-0.1-1.8
			c0.1-0.2,0.3-0.5,0.4-0.7l0,0l0,0c0.4-0.6,0.8-1.3,1.3-1.9l0,0l0,0c-0.3,0.1-0.6,0.3-1,0.4c0.5,0.7,0,0.8-0.6,0.9
			c-1.5,0.3-2.6,1.7-2.3,3.1c0.3,1.5,1.8,2.6,3.2,2.3c1.5-0.3,2.5-1.8,2.2-3.3C1102,645.4,1102.1,645,1102.2,644.6z M1100.2,648.6
			c-1.3,0.4-2.8-0.4-3.2-1.7c-0.3-1.3,0.5-2.7,1.8-3c0,0,0,0,0.1,0s0,0,0.1,0c0,0,0.1,0,0.1,0.1c0,0,0,0,0.1,0
			c0.1,0.1,0.2,0.1,0.2,0.2c-0.3,0.2-0.7,0.5-1,0.7c0,0.1,0.1,0.3,0.1,0.4c0.1,1.8,0.7,2.2,2.4,1.6c-0.5,0.9-1.2,1.1-2,0.8
			c-0.8-0.3-1.1-1.2-0.8-2l0.3-0.7c-0.1,0-0.1,0.1-0.2,0.1c-0.2,0.2-0.4,0.4-0.5,0.7c0,0,0,0,0,0.1v0.1c0,0,0,0,0,0.1
			c0,0.3,0,0.7,0.2,1c0.3,0.8,1,1.1,1.9,1s1.4-0.7,1.6-1.6c0-0.3,0.2-0.6,0.4-1.1C1102.1,646.9,1101.4,648.2,1100.2,648.6z"/>
		<path class="st14" d="M1111.7,647.3c-0.3,0.5-0.6,1-0.9,1.5c-0.1-0.3-0.2-0.6-0.4-0.8c-2.3-1.5-4.7-3-7.1-4.4
			c-0.1-0.1-0.4,0-0.6-0.1c0.1-0.3,0.3-0.6,0.4-0.9c0.2,0.3,0.4,0.6,0.7,0.7c2.2,1.4,4.3,2.7,6.5,4.1
			C1111,647.8,1111.4,647.8,1111.7,647.3z"/>
		<path class="st14" d="M1113.2,649.7L1113.2,649.7L1113.2,649.7L1113.2,649.7c-0.2,0.1-0.3,0.1-0.4,0.3c-0.6,0.9-1.2,1.8-1.8,2.7
			c-0.4,0.5-1,0.7-1.6,0.3c-0.6-0.4-0.6-1-0.3-1.6c0.2-0.3,0.3-0.6,0.5-0.9l0,0l0,0c0.3-0.5,0.5-0.9,0.8-1.3
			c-0.3-0.1-0.7-0.1-0.9-0.2c-0.5-0.3-1-0.6-1.5-0.9c0,0.1-0.1,0.1-0.1,0.2c0.7,0.4,1.4,0.9,2.1,1.3c-2.4,0.6-3.3,1.7-3,3.4
			c0.2,1.3,1.6,2.4,2.9,2.2c1.8-0.2,2.4-1.3,2.5-4.2c0.3,0.1,0.6,0.2,0.8,0.3C1112.1,650.8,1113.2,650.2,1113.2,649.7z
			 M1111.1,653.4c-0.4,0.2-0.9,0.7-1.3,0.6c-0.5,0-1.1-0.4-1.3-0.8c-0.2-0.4-0.1-1.1-0.1-1.6c0.1,0,0.2,0,0.3,0
			C1108.9,653.3,1109.5,653.7,1111.1,653.4z M1110.5,654.9c-1.2,0.4-2.7-0.3-3.1-1.6c-0.4-1.2,0.3-2.6,1.5-3.1c0.1,0,0.1,0,0.2,0
			c0,0,0.1,0,0.1,0.1c0.1,0,0.1,0.1,0.2,0.1c0,0,0.1,0,0.1,0.1c0.1,0,0.1,0.1,0.2,0.1c-0.3,0.2-0.6,0.3-0.8,0.5
			c-0.8,0.5-1.1,1.2-0.8,2.1c0.3,0.8,0.9,1.3,1.8,1.2c0.9,0,1.5-0.5,1.7-1.4c0.1-0.4,0.2-0.8,0.4-1.3
			C1112.4,653.2,1111.8,654.4,1110.5,654.9z"/>
		<path class="st15" d="M1125.4,652.8c-0.3,0.5-0.6,0.9-0.9,1.4c-0.1,0.1-0.2,0.2-0.3,0.3c-0.3,0.5-0.6,1-1,1.6
			c-0.1,0.1-0.2,0.2-0.4,0.4c-0.5,0.8-1.1,1.5-1.6,2.3c-0.2,0-0.5,0.1-0.7,0.1c-0.2,0-0.5,0.1-0.7,0.1l0,0l0,0l0,0
			c-0.1-0.1-0.2-0.3-0.3-0.4l0,0c-0.3-0.5-0.2-1,0.2-1.6c0.2-0.3,0.3-0.6,0.4-0.9c0-0.1,0.1-0.1,0.1-0.2c0.2-0.3,0.4-0.5,0.6-0.8
			c0.9-1.4,1.8-2.7,2.7-4.1c0,0,0,0,0-0.1l0,0c0.6,0,1.2-0.1,1.7,0.1C1126.1,651.5,1125.6,652.2,1125.4,652.8z"/>
		<path class="st16" d="M1121.8,660.2c-0.8,0.7-1.7,0.8-2.6,0.4c-1-0.5-1.6-1.5-1.5-2.5c0-0.3,0.1-0.7,0.1-1
			c0.7-0.7,1.3-1.5,2.4-1.3c0,0.1-0.1,0.1-0.1,0.2c-0.3,0.2-0.6,0.5-0.9,0.7c-0.8,0.5-1.1,1.2-0.8,2.2c0.3,0.8,0.9,1.2,1.8,1.2
			c1,0,1.5-0.6,1.8-1.5c0.1-0.3,0.2-0.7,0.4-1.2C1122.8,658.7,1122.6,659.6,1121.8,660.2z"/>
		<path d="M1119.8,659c-0.1-0.1-0.2-0.3-0.3-0.4C1119.7,658.7,1119.7,658.9,1119.8,659z"/>
		<path class="st14" d="M1122.9,658.7c0,1-0.9,2.1-1.9,2.4c-1.1,0.3-2.2,0-2.9-0.9c-0.8-1-0.8-1.9-0.2-3c0,0.3-0.1,0.7-0.1,1
			c-0.1,1,0.5,2,1.5,2.5s1.8,0.3,2.6-0.4c0.8-0.7,1-1.6,0.6-2.7c-0.2,0.5-0.3,0.8-0.4,1.2c-0.3,0.9-0.8,1.5-1.8,1.5
			c-0.9,0-1.5-0.4-1.8-1.2c-0.3-0.9,0-1.6,0.8-2.2c0.3-0.2,0.6-0.5,0.9-0.7c-0.1,0.3-0.2,0.6-0.4,0.9c-0.4,0.6-0.5,1.1-0.2,1.6
			c-0.1-0.1-0.1-0.2-0.2-0.2c-0.1-0.1-0.1-0.2-0.2-0.2c-0.1-0.2-0.2-0.3-0.3-0.5c-0.4,0.8-0.3,1.6,0.5,2c0.7,0.4,1.6,0.2,2-0.4
			c0.1-0.1-0.1-0.3-0.1-0.5c0.5-0.8,1.1-1.5,1.6-2.3C1122.9,657.2,1122.9,657.9,1122.9,658.7z"/>
		<path d="M1132.6,663.6L1132.6,663.6L1132.6,663.6z"/>
		<path class="st14" d="M1133.4,664.1c-0.1,0.7-0.4,1.4-0.7,2c-0.2,0.4-0.4,0.9-0.7,1c-0.6,0.2-1.3,0.3-1.8,0.1
			c-1.1-0.5-2.2-1.3-2.2-2.8c-0.1-1.1,0.7-2.2,2-2.7c0.4-0.2,0.9-0.3,1.3-0.4l0,0l0,0c-0.3,0.4-0.6,0.9-0.8,1.3h-0.1
			c0-0.2,0.1-0.4,0.2-0.6c-1.5,0.1-2.4,1.2-2.3,2.7c0.1,1.3,1.5,2.3,2.9,2.1c1.3-0.2,2.3-1.6,2-2.9l0,0l0,0l0,0l0,0
			c-0.1-0.1-0.2-0.1-0.3-0.2c0.3-0.5,0.6-0.9,0.8-1.4C1133.4,662.8,1133.5,663.5,1133.4,664.1z"/>
		<path class="st14" d="M1086.8,614.7c0.7,1.4,2.1,1.9,3.4,1.2c0.2-0.1,0.4-0.2,0.6-0.3l0,0l0,0c-0.7,0.8-1.7,1.1-2.7,0.7
			c-1.1-0.4-2-1.7-1.9-2.8s1-2.3,2.1-2.5c1.1-0.3,2.1,0.1,2.7,1l0,0c0,0,0,0-0.1,0c-0.9-0.6-1.8-1.1-2.9-0.6
			C1086.8,612,1086.2,613.5,1086.8,614.7z"/>
		<path class="st14" d="M1137.1,665.2c-1.3-0.7-2.4-1.3-3.4-1.8c0-0.1,0.1-0.2,0.1-0.2c0.9,0.5,1.7,0.9,2.7,1.4
			c0-0.3,0.1-0.4,0.1-0.6c0.1,0,0.1,0,0.2,0C1136.8,664.3,1136.9,664.6,1137.1,665.2z"/>
		<path class="st14" d="M1130.3,662.5c-0.1,0.2-0.4,0.5-0.3,0.7c0,0.5,0.1,1.2,0.4,1.4c0.3,0.2,1,0,1.4-0.3c0.3-0.2,0.5-0.6,0.8-0.9
			l0,0c-0.1,0.3-0.1,0.5-0.2,0.8c-0.2,1.2-0.8,1.8-1.9,1.7c-0.9,0-1.5-0.5-1.7-1.4C1128.6,663.7,1129.1,663,1130.3,662.5
			L1130.3,662.5z M1131.8,665.1c-2.1,0.2-2.1-0.6-2.3-1.9c-0.6,0.9-0.5,1.8,0.2,2.3C1130.5,666,1131.2,665.9,1131.8,665.1z"/>
		<path class="st16" d="M1098.3,644.9c-0.8,0.5-0.9,1.3-0.6,2.1c0.3,0.8,1,1.1,1.9,1s1.4-0.7,1.6-1.6c0-0.3,0.2-0.6,0.4-1.1
			c0.5,1.5-0.1,2.8-1.4,3.3c-1.3,0.4-2.8-0.4-3.2-1.7c-0.3-1.3,0.5-2.7,1.8-3c0.1,0,0.3,0.2,0.5,0.3l0,0
			C1099,644.4,1098.7,644.7,1098.3,644.9L1098.3,644.9z"/>
		<path class="st16" d="M1098.3,644.9c0,0.1,0.1,0.3,0.1,0.4c0.1,1.8,0.7,2.2,2.4,1.6c-0.5,0.9-1.2,1.1-2,0.8
			c-0.8-0.3-1.1-1.2-0.8-2C1098.1,645.4,1098.2,645.2,1098.3,644.9L1098.3,644.9z"/>
		<path class="st16" d="M1109.7,650.5c-0.3,0.2-0.6,0.3-0.9,0.5c-0.8,0.5-1.1,1.2-0.8,2.1c0.3,0.8,0.9,1.3,1.8,1.2
			c0.9,0,1.5-0.5,1.7-1.4c0.1-0.4,0.2-0.8,0.4-1.3c0.5,1.6-0.1,2.8-1.4,3.3c-1.2,0.4-2.7-0.3-3.1-1.6c-0.4-1.2,0.3-2.6,1.5-3.1
			C1109.1,650.2,1109.4,650.4,1109.7,650.5L1109.7,650.5z"/>
		<path class="st16" d="M1108.7,651.6c0.2,1.7,0.8,2.1,2.5,1.8c-0.4,0.2-0.9,0.7-1.3,0.6c-0.5,0-1.1-0.4-1.3-0.8
			c-0.2-0.4-0.1-1.1-0.1-1.6C1108.5,651.6,1108.6,651.6,1108.7,651.6z"/>
		<path class="st16" d="M1121.3,658.8c0,0.2,0.2,0.4,0.1,0.5c-0.4,0.7-1.3,0.8-2,0.4c-0.8-0.5-0.9-1.2-0.5-2
			c0.3,0.4,0.6,0.9,0.9,1.3C1120.3,658.9,1120.8,658.9,1121.3,658.8z"/>
		<path class="st16" d="M1130.3,662.5c-1.2,0.5-1.7,1.2-1.4,2.2c0.2,0.9,0.8,1.4,1.7,1.4c1,0,1.6-0.5,1.9-1.7
			c0.1-0.3,0.1-0.5,0.2-0.8c0.1,0.1,0.4,0.1,0.4,0.3c0.3,1.2-0.7,2.7-2,2.9c-1.3,0.2-2.8-0.8-2.9-2.1c-0.2-1.5,0.8-2.6,2.3-2.7
			C1130.4,662.1,1130.3,662.3,1130.3,662.5z"/>
		<path class="st16" d="M1131.8,665.1c-0.6,0.8-1.3,0.9-2,0.4c-0.7-0.5-0.8-1.3-0.2-2.3C1129.6,664.5,1129.7,665.4,1131.8,665.1z"/>
	</g>
	<g id="mhKcRL.tif">
		<g>
			<path class="st18" d="M1767.2,613.3c5.9,1.6,10.5,5,13.5,10.3c8.2,14,16.2,28.1,24.3,42.2c2.1,3.7,0.8,7.1-3.2,9.6
				c-3.9,2.4-8.1,3.5-12.6,4.3c-0.7,0.1-1.5-0.2-2,0.5c-57.1,0-114.1,0-171.2,0c-4.2-0.4-8.4-1.2-12.1-3.2c-2.5-1.4-4.6-3.1-5.7-5.9
				c0-1.3,0-2.6,0-3.8c9.9-14.5,19.9-29,29.7-43.7c3.6-5.3,8.3-8.7,14.4-10.3c0.5-0.1,0.9-0.1,1.4-0.2c0.8,1.2,0.2,2.5,0,3.7
				c-1.1,6-2.8,11.8-3.7,17.8c-0.5,3.4,0.7,5.9,3.2,8c5.5,4.4,12,6.3,18.6,8c11.3,2.9,22.8,4,34.5,4.6c15,0.8,29.8-0.2,44.5-2.7
				c8-1.3,15.9-3.3,23.1-7.2c1.3-0.7,2.5-1.4,3.6-2.3c3.3-2.6,4.5-5.5,3.2-9.9c-1.7-5.7-2.7-11.7-3.9-17.5
				C1766.7,614.8,1766.4,614,1767.2,613.3z"/>
			<path class="st19" d="M1770.3,641.1c-2.8,3.4-6.6,5.2-10.6,6.8c-8.4,3.4-17.1,5.1-26,6.3c-14.2,2-28.6,2.4-42.9,1.4
				c-13.4-0.9-26.7-2.7-39.4-7.6c-1.9-0.8-3.8-1.7-5.6-2.8c-6.6-3.9-7.7-6.6-6.1-14c1.3-6.1,2.6-12.1,3.9-18.2
				c5-23.1,10.1-46.2,15.1-69.3c0.2-0.7,0.3-1.4,0.5-2.1c0.7-0.6,1.4-0.2,2,0c3.3,1.3,6.5,2.8,10,3.8c0.6,0.2,1.1,0.6,1.4,1.2
				c0,0,5.4,1.9,12.8,2.8l0.1-0.1c2.1-0.8,4.1,0,6.2,0.2c15.3,1.3,30.3,0.3,45.1-3.9c4.1-1.2,8.1-2.5,12.1-3.9
				c0.9-0.3,1.7-1,2.7-0.2c5,23.4,10.1,46.7,15.1,70c0.1,0.5,0.3,1.1,0.5,1.6c1.4,7.2,2.8,14.4,4.7,21.4
				C1772.5,637.2,1771.9,639.3,1770.3,641.1z"/>
			<path class="st19" d="M1734.2,461.4c-10.9,3.2-22.1,4.1-33.4,3.5c-0.9,0-1.7,0-2.6,0c-0.5,0-1,0-1.5,0c0,0,0,0-0.1,0
				c-0.3,0-0.6-0.1-1-0.1c-3.4-0.4-9-1.4-10.6-1.7c0,0.1-0.1,0.1-0.2,0.1c-3,0.4-5.8,0.1-8.3-1.9c4-18.2,8-36.5,11.9-54.7
				c0.3-1.5,0.6-3,1-4.4c0.9-4,2.4-5.7,6.5-6.2c6.4-0.9,12.8-1,19.1,0.2c3.5,0.6,5.5,2.6,6.2,6c4.1,19.2,8.3,38.3,12.4,57.5
				C1734,460.3,1734.1,460.8,1734.2,461.4z"/>
			<path class="st20" d="M1696.7,464.9c-0.4,0.2-0.7,0.2-1-0.1C1696.1,464.9,1696.5,464.9,1696.7,464.9z"/>
			<path class="st18" d="M1705.6,400.6c-2.8,0.1-5.6-0.3-8.3-1c-0.4-0.1-1-0.3-0.9-0.9c0.1-0.5,0.6-0.5,0.9-0.6
				c5.6-1.2,11.2-1.2,16.8,0c0.4,0.1,0.9,0.1,0.9,0.6c0,0.6-0.5,0.7-1,0.9C1711.3,400.4,1708.5,400.7,1705.6,400.6z"/>
			<path class="st19" d="M1698.3,464.9c-0.1,0.1-0.3,0.1-0.4,0.1c-0.3,0-0.7,0-1.1-0.1c0,0,0,0,0.1,0
				C1697.3,464.9,1697.8,464.9,1698.3,464.9z"/>
			<path class="st8" d="M1688.7,549.9c14,1.9,27.9,1.1,41.7-1.8c7.3-1.5,14.3-4,21.2-6.4c-0.1-0.6-0.1-1.3-0.2-1.9
				c-1.2-5.3-2.5-10.6-3.6-16c-1.6-7.3-3-14.7-4.6-22.1c-1.4-6.7-3.1-13.2-4.4-19.9c-1.3-6.8-2.8-13.6-4.5-20.4
				c-0.9-0.6-1.9-0.2-2.8,0c-1.8,0.4-3.6,0.9-5.4,1.3c-8.2,1.7-15.5,2.2-23.9,2.1c-1.5,0-3.6,0.1-5.4-0.1
				c-7.3-0.9-16.1-2.3-16.1-2.3l-0.4-0.1c-1.2-0.3-2.4-0.6-3.5-0.9c-0.7,2.8-1.4,5.5-2,8.3c-1.2,5.7-2.2,11.4-3.4,17.1
				c-1.1,5.2-2.6,10.4-3.7,15.6c-1.8,8-3.6,16.1-5.2,24.2c-1,5-2.6,10-3,15.1c4.3,1.6,8.7,3.2,13,4.8c0.1-0.1,0.6,0.5,0.7,0.4
				c2.7,1-2.3-0.8,3.7,1.4c0.1,0,2,0.4,2.8,0.5L1688.7,549.9z"/>
		</g>
	</g>
	<g id="mhKcRL.tif_1_">
		<g>
			<path class="st18" d="M750.5,613.3c5.9,1.6,10.5,5,13.5,10.3c8.2,14,16.2,28.1,24.3,42.2c2.1,3.7,0.8,7.1-3.2,9.6
				c-3.9,2.4-8.1,3.5-12.6,4.3c-0.7,0.1-1.5-0.2-2,0.5c-57.1,0-114.1,0-171.2,0c-4.2-0.4-8.4-1.2-12.1-3.2c-2.5-1.4-4.6-3.1-5.7-5.9
				c0-1.3,0-2.6,0-3.8c9.9-14.5,19.9-29,29.7-43.7c3.6-5.3,8.3-8.7,14.4-10.3c0.5-0.1,0.9-0.1,1.4-0.2c0.8,1.2,0.2,2.5,0,3.7
				c-1.1,6-2.8,11.8-3.7,17.8c-0.5,3.4,0.7,5.9,3.2,8c5.5,4.4,12,6.3,18.6,8c11.3,2.9,22.8,4,34.5,4.6c15,0.8,29.8-0.2,44.5-2.7
				c8-1.3,15.9-3.3,23.1-7.2c1.3-0.7,2.5-1.4,3.6-2.3c3.3-2.6,4.5-5.5,3.2-9.9c-1.7-5.7-2.7-11.7-3.9-17.5
				C750.1,614.8,749.8,614,750.5,613.3z"/>
			<path class="st19" d="M753.7,641.1c-2.8,3.4-6.6,5.2-10.6,6.8c-8.4,3.4-17.1,5.1-26,6.3c-14.2,2-28.6,2.4-42.9,1.4
				c-13.4-0.9-26.7-2.7-39.4-7.6c-1.9-0.8-3.8-1.7-5.6-2.8c-6.6-3.9-7.7-6.6-6.1-14c1.3-6.1,2.6-12.1,3.9-18.2
				c5-23.1,10.1-46.2,15.1-69.3c0.2-0.7,0.3-1.4,0.5-2.1c0.7-0.6,1.4-0.2,2,0c3.3,1.3,6.5,2.8,10,3.8c0.6,0.2,1.1,0.6,1.4,1.2
				c0,0,5.4,1.9,12.8,2.8l0.1-0.1c2.1-0.8,4.1,0,6.2,0.2c15.3,1.3,30.3,0.3,45.1-3.9c4.1-1.2,8.1-2.5,12.1-3.9
				c0.9-0.3,1.7-1,2.7-0.2c5,23.4,10.1,46.7,15.1,70c0.1,0.5,0.3,1.1,0.5,1.6c1.4,7.2,2.8,14.4,4.7,21.4
				C755.9,637.2,755.3,639.3,753.7,641.1z"/>
			<path class="st19" d="M717.6,461.4c-10.9,3.2-22.1,4.1-33.4,3.5c-0.9,0-1.7,0-2.6,0c-0.5,0-1,0-1.5,0c0,0,0,0-0.1,0
				c-0.3,0-0.6-0.1-1-0.1c-3.4-0.4-9-1.4-10.6-1.7c0,0.1-0.1,0.1-0.2,0.1c-3,0.4-5.8,0.1-8.3-1.9c4-18.2,8-36.5,11.9-54.7
				c0.3-1.5,0.6-3,1-4.4c0.9-4,2.4-5.7,6.5-6.2c6.4-0.9,12.8-1,19.1,0.2c3.5,0.6,5.5,2.6,6.2,6c4.1,19.2,8.3,38.3,12.4,57.5
				C717.3,460.3,717.5,460.8,717.6,461.4z"/>
			<path class="st20" d="M680.1,464.9c-0.4,0.2-0.7,0.2-1-0.1C679.5,464.9,679.8,464.9,680.1,464.9z"/>
			<path class="st18" d="M689,400.6c-2.8,0.1-5.6-0.3-8.3-1c-0.4-0.1-1-0.3-0.9-0.9c0.1-0.5,0.6-0.5,0.9-0.6
				c5.6-1.2,11.2-1.2,16.8,0c0.4,0.1,0.9,0.1,0.9,0.6c0,0.6-0.5,0.7-1,0.9C694.7,400.4,691.8,400.7,689,400.6z"/>
			<path class="st19" d="M681.6,464.9c-0.1,0.1-0.3,0.1-0.4,0.1c-0.3,0-0.7,0-1.1-0.1c0,0,0,0,0.1,0
				C680.7,464.9,681.2,464.9,681.6,464.9z"/>
			<path class="st8" d="M672.1,549.9c14,1.9,27.9,1.1,41.7-1.8c7.3-1.5,14.3-4,21.2-6.4c-0.1-0.6-0.1-1.3-0.2-1.9
				c-1.2-5.3-2.5-10.6-3.6-16c-1.6-7.3-3-14.7-4.6-22.1c-1.4-6.7-3.1-13.2-4.4-19.9c-1.3-6.8-2.8-13.6-4.5-20.4
				c-0.9-0.6-1.9-0.2-2.8,0c-1.8,0.4-3.6,0.9-5.4,1.3c-8.2,1.7-15.5,2.2-23.9,2.1c-1.5,0-3.6,0.1-5.4-0.1
				c-7.3-0.9-16.1-2.3-16.1-2.3l-0.4-0.1c-1.2-0.3-2.4-0.6-3.5-0.9c-0.7,2.8-1.4,5.5-2,8.3c-1.2,5.7-2.2,11.4-3.4,17.1
				c-1.1,5.2-2.6,10.4-3.7,15.6c-1.8,8-3.6,16.1-5.2,24.2c-1,5-2.6,10-3,15.1c4.3,1.6,8.7,3.2,13,4.8c0.1-0.1,0.6,0.5,0.7,0.4
				c2.7,1-2.3-0.8,3.7,1.4c0.1,0,2,0.4,2.8,0.5L672.1,549.9z"/>
		</g>
	</g>
</g>
<g id="_x35_8JQqv.tif">
	<g>
		<path class="st14" d="M1204.1,138c0.6,1.6,1.9,2.5,3.3,3.3c3,1.8,6.4,2.8,9.9,3.5c3.9,0.7,7.8,1.2,11.8,1.8c0.4,0.1,0.7,0.1,1,0.3
			c5.4,2.6,10.9,4.9,16.6,6.9c1.8,0.6,3.7,0.9,5.7,0.9c3.9-0.1,7.6-0.8,11.4-1.9c5-1.4,10-2.9,15-4.4c2-0.6,3.8-1.4,5.5-2.7
			c0.5-0.4,0.9-0.9,1.3-1.4c0.5-0.9,0.3-1.8-0.6-2.6c-2.2-1.8-4.4-3.6-6.6-5.5c-0.8-0.6-1.6-1.3-2.2-2c-0.4-0.4-0.6-1-0.7-1.4
			c-0.3-1.9-0.6-3.7-0.8-5.5c-0.4-2.4-0.6-4.8-1.1-7.2c-1.2-5.9-3.5-11.3-7.3-16c-4.9-6.1-11.2-9.8-18.9-11.1
			c-2.9-0.5-5.9-1.1-8.9-1c-4.7,0.2-9.1,1.5-13,3.9c-5.3,3.2-9.7,7.4-12.7,12.9c-2.1,3.9-3.6,8-4.3,12.4c-0.4,2.7-0.6,5.5-0.9,8.2
			c-0.1,0.9,0,1.8-0.2,2.7c-0.2,1.4-1.2,2.4-2.2,3.4c-0.2,0.2-0.4,0.3-0.6,0.5C1203.7,136.7,1203.6,136.9,1204.1,138z M1247.6,100
			c3,3.1,5.2,6.6,6.9,10.5c3.8,8.5,5.8,17.4,5.7,26.8c0,0.4,0.1,0.9,0.2,1.4c-0.1,0-0.3,0.1-0.5,0.1c-4.4,0.9-8.8,1.4-13.2,1.6
			c-5.3,0.3-10.7,0.2-16-0.3c-4.4-0.4-8.8-1-13.2-2.2c-2.6-0.7-5.2-1.6-7.5-3.2c-1.1-0.8-2.1-1.8-2-3.4c0-0.7,0-1.5,0.1-2.2
			c0.2-2.1,0.3-4.3,0.6-6.5c0.5-3.6,1.6-7.1,3-10.4c1.9-4.6,4.8-8.5,8.5-11.7c1.5-1.3,3-2.4,4.9-3c1.8-0.6,3.3-1.6,5.1-2.3
			c2.5-1,5.2-1.1,7.9-0.7C1241.9,95.3,1245,97.3,1247.6,100z M1243.4,94.7c3.8,1.5,6.7,4,9.3,7.1c3,3.7,5.3,7.8,7,12.2
			c2.8,7,4.5,14.2,4.9,21.7c0.1,1.4,0.3,2.8,0.4,4.2l0,0l0,0l0,0c-0.6-0.4-1.2-0.9-1.9-1.3c-1.1-0.6-1.5-1.4-1.5-2.7
			c0-6.3-1.1-12.4-3-18.5c-1.8-5.9-4.3-11.5-8.3-16.3c-2.5-3.1-5.5-5.6-9.3-7c-0.1,0-0.1-0.1-0.2-0.1
			C1241.7,94.2,1242.6,94.4,1243.4,94.7z M1273.1,122.2c-2.1-6-5.1-11.5-9.1-16.5s-8.8-9-14.6-11.6
			C1263.8,97.7,1271.4,110.1,1273.1,122.2z M1275.2,138.2c-2.8,1-5.5,1.9-8.4,2.9c-0.4-1.1-0.9-2.2-1-3.3c-0.1-4.7-0.8-9.2-1.8-13.8
			c-1.5-6.5-3.7-12.6-7.2-18.3c-2-3.2-4.2-6.2-7.2-8.6c-1.4-1.1-2.9-2-4.2-3l0,0c0,0,0.1,0,0.2,0.1c4.9,1.5,9.1,4,12.8,7.5
			c5.2,4.8,9.1,10.5,11.9,17c2.1,4.9,3.5,10.1,3.8,15.5c0,0.9,0.3,1.7,0.6,2.6C1274.8,137.2,1275,137.7,1275.2,138.2z M1276.3,137.5
			c-0.2-0.5-0.4-1-0.6-1.6C1276.8,136.6,1276.9,136.8,1276.3,137.5z M1233.1,147.1c0-0.1,0-0.1,0.1-0.2c1.8,0.1,3.6,0.1,5.4,0.1
			c7,0.1,13.9-0.3,20.8-1.5c4.1-0.7,8-1.5,11.8-3c2.7-1.1,5.3-2.3,6.8-5.1c2.1,1.8,4.1,3.5,6.2,5.2c0.6,0.5,0.6,1,0,1.5
			c-0.7,0.6-1.5,1.2-2.4,1.6c-3.1,1.6-6.4,2.6-9.8,3.5c-5.8,1.6-11.5,3.5-17.5,4c-2.1,0.2-4.3,0.3-6.4-0.4c-2-0.6-3.9-1.3-5.8-2.1
			C1239.1,149.7,1236.1,148.3,1233.1,147.1z M1205.4,136.9c0.9-1,1.9-2,2.8-3c0.5,0.4,1,1,1.6,1.3c0.6,0.4,1.3,0.9,2,1.2
			c3.3,1.7,6.8,2.5,10.3,3.2c4.8,0.9,9.6,1.3,14.5,1.5c8.3,0.3,16.5-0.2,24.6-1.9c0.2-0.1,0.6,0,0.8,0.2c1.3,0.9,2.6,1.8,3.9,2.7
			c0.4,0.3,0.7,0.3,1.2,0.1c1.3-0.4,2.6-0.9,3.8-1.4c0.7-0.2,1.3-0.4,2-0.6v0.1c-0.2,0.1-0.4,0.2-0.5,0.3c-1.8,0.7-3.6,1.4-5.4,2
			c-7.1,2.1-14.5,2.8-21.9,3.1c-5.4,0.2-10.9,0.1-16.3-0.4c-4.1-0.4-8.3-0.9-12.3-2c-2.9-0.7-5.8-1.6-8.4-3.1
			c-1.1-0.7-2.2-1.4-2.7-2.6C1205.2,137.5,1205.2,137.1,1205.4,136.9z"/>
		<path class="st10" d="M1275.7,135.9c0.2,0.6,0.4,1.1,0.6,1.6C1276.9,136.8,1276.8,136.6,1275.7,135.9z"/>
		<path class="st10" d="M1233.1,147.1c3,1.3,6,2.5,9.1,3.7c1.9,0.7,3.9,1.4,5.8,2.1c2.1,0.7,4.3,0.6,6.4,0.4c6-0.6,11.7-2.4,17.5-4
			c3.4-0.9,6.7-1.9,9.8-3.5c0.8-0.4,1.7-1,2.4-1.6c0.6-0.5,0.6-1,0-1.5c-2-1.7-4.1-3.5-6.2-5.2c-1.5,2.9-4.1,4.1-6.8,5.1
			c-3.8,1.5-7.8,2.4-11.8,3c-6.9,1.1-13.8,1.5-20.8,1.5C1236.7,147.1,1234.9,147,1233.1,147.1C1233.1,147,1233.1,147,1233.1,147.1z"
			/>
		<path class="st10" d="M1205.3,137.6c0.5,1.2,1.6,2,2.7,2.6c2.6,1.5,5.5,2.4,8.4,3.1c4,1,8.2,1.5,12.3,2c5.4,0.5,10.9,0.6,16.3,0.4
			c7.4-0.3,14.8-1,21.9-3.1c1.8-0.5,3.6-1.3,5.4-2c0.2-0.1,0.4-0.2,0.5-0.3v-0.1c-0.7,0.2-1.3,0.4-2,0.6c-1.3,0.4-2.6,0.9-3.8,1.4
			c-0.4,0.2-0.8,0.1-1.2-0.1c-1.3-0.9-2.6-1.8-3.9-2.7c-0.2-0.2-0.6-0.2-0.8-0.2c-8.1,1.6-16.3,2.1-24.6,1.9
			c-4.9-0.2-9.8-0.6-14.5-1.5c-3.5-0.7-7.1-1.5-10.3-3.2c-0.7-0.3-1.3-0.8-2-1.2c-0.6-0.5-1.1-1-1.6-1.3c-0.9,1-1.9,2-2.8,3
			C1205.2,137.1,1205.2,137.5,1205.3,137.6z"/>
		<path class="st10" d="M1249.4,94.1c5.9,2.6,10.6,6.7,14.6,11.6s7,10.5,9.1,16.5C1271.4,110.1,1263.8,97.7,1249.4,94.1z"/>
		<path class="st10" d="M1245.5,94.1L1245.5,94.1c1.3,1,2.9,1.9,4.2,3c2.9,2.4,5.2,5.3,7.2,8.6c3.5,5.7,5.7,11.8,7.2,18.3
			c1,4.6,1.7,9.1,1.8,13.8c0,1.1,0.6,2.2,1,3.3c2.8-1,5.6-1.9,8.4-2.9c-0.2-0.5-0.4-1-0.6-1.5c-0.2-0.9-0.5-1.7-0.6-2.6
			c-0.3-5.4-1.7-10.6-3.8-15.5c-2.8-6.5-6.7-12.2-11.9-17c-3.7-3.4-7.9-6-12.8-7.5C1245.6,94.1,1245.5,94.1,1245.5,94.1z"/>
		<path class="st10" d="M1240.9,94c0.1,0,0.1,0.1,0.2,0.1c3.8,1.4,6.8,4,9.3,7c3.9,4.8,6.4,10.4,8.3,16.3c1.9,6,3,12.1,3,18.5
			c0,1.3,0.4,2.1,1.5,2.7c0.7,0.4,1.3,0.9,1.9,1.3c-0.1-1.4-0.3-2.8-0.4-4.2c-0.4-7.5-2.1-14.7-4.9-21.7c-1.8-4.4-4-8.5-7-12.2
			c-2.5-3.1-5.5-5.6-9.3-7.1C1242.6,94.4,1241.7,94.2,1240.9,94z"/>
		<path class="st10" d="M1208.1,131.4c0,1.5,0.9,2.6,2,3.4c2.2,1.6,4.8,2.5,7.5,3.2c4.3,1.2,8.7,1.8,13.2,2.2
			c5.3,0.5,10.7,0.6,16,0.3c4.4-0.2,8.9-0.8,13.2-1.6c0.2-0.1,0.4-0.1,0.5-0.1c-0.1-0.5-0.3-0.9-0.2-1.4c0-9.3-1.9-18.3-5.7-26.8
			c-1.7-3.9-3.9-7.4-6.9-10.5c-2.6-2.7-5.7-4.7-9.6-5.5c-2.7-0.5-5.4-0.3-7.9,0.7c-1.8,0.6-3.3,1.6-5.1,2.3c-1.9,0.7-3.5,1.7-4.9,3
			c-3.7,3.3-6.5,7.1-8.5,11.7c-1.4,3.4-2.5,6.8-3,10.4c-0.3,2.1-0.4,4.3-0.6,6.5C1208.1,129.9,1208.1,130.6,1208.1,131.4z"/>
	</g>
</g>
<path class="st0" d="M1204.5,146.7l12.8,2c0,0,3.8-69.6,4.5-80.9c0.5-8.5-10-14.8-14.5-9.7C1202.7,63.4,1194.9,74.2,1204.5,146.7z"
	/>
<path class="st4" d="M1206.4,146.5l8.9,1.4c0,0,2.7-48.5,3.2-56.4c0.4-5.9-7-10.3-10.1-6.7C1205.2,88.4,1199.7,96,1206.4,146.5z"/>
<path class="st0" d="M1120.8,354.3c9.9,13.5,16.8,162.4,16.8,162.4s-5.6,15-17.9,11.9s1.3-15.3,1.3-15.3s-27.9,5.4-20.1-13.9
	c0,0-31.5-1.3-4-23.3L1063.1,361c-2.7-9.3-1.1-19.4,4.8-27.1C1076.6,322.8,1093,316.3,1120.8,354.3z"/>
</svg>
