<?xml version="1.0" encoding="utf-8"?>
<!-- Generator: Adobe Illustrator 19.1.0, SVG Export Plug-In . SVG Version: 6.00 Build 0)  -->
<svg version="1.1" id="Layer_1" xmlns="http://www.w3.org/2000/svg" xmlns:xlink="http://www.w3.org/1999/xlink" x="0px" y="0px"
	 viewBox="-59 313.2 1459.1 911.8" style="enable-background:new -59 313.2 1459.1 911.8;" xml:space="preserve">
<style type="text/css">
	.st0{fill:#63AFAF;stroke:#154F4D;stroke-miterlimit:10;}
	.st1{fill:#63AFAF;}
	.st2{fill:#C24D8D;}
	.st3{fill:#D68FAF;}
	.st4{fill:#D478A1;}
	.st5{fill:#F8F4E7;}
	.st6{opacity:0.47;fill:#B04379;enable-background:new    ;}
	.st7{fill:#603E16;}
	.st8{fill:#B04379;}
	.st9{opacity:0.35;fill:#E5B1CB;enable-background:new    ;}
	.st10{fill:#E5B1CB;}
	.st11{opacity:0.56;fill:none;stroke:#B04379;stroke-width:0.7169;stroke-miterlimit:10;enable-background:new    ;}
	.st12{fill:none;stroke:#E5B1CB;stroke-width:1.8471;stroke-miterlimit:10;}
	.st13{fill:#B5AAB1;}
	.st14{fill:none;stroke:#CC84AA;stroke-width:1.8471;stroke-miterlimit:10;}
	.st15{fill:#9E979C;}
	.st16{fill:#CC84AA;}
	.st17{fill:#6BA2A7;stroke:#08383A;stroke-miterlimit:10;}
	.st18{fill:#407F82;stroke:#407F82;stroke-miterlimit:10;}
	.st19{fill:#1E6468;stroke:#08383A;stroke-miterlimit:10;}
	.st20{fill:#08383A;}
	.st21{fill:#C795C3;stroke:#407F82;stroke-miterlimit:10;}
	.st22{fill:#407F82;}
	.st23{fill:#C795C3;}
	.st24{fill:#FFFFFF;}
	.st25{fill:#603F19;}
	.st26{fill:#F68921;}
	.st27{fill:#F57F20;}
</style>
<g>
	<path class="st0" d="M860.1,801.6c-2.3,3.1-4.3,5.8-6.4,8.6c-2.1,2.9-2.2,5.6-0.4,8c0.3,0.5,0.8,0.9,1.2,1.2
		c2.1,1.6,4.2,3.1,6.4,4.7c2.8,2,6.4,1.5,8.6-1.3c2-2.6,3.9-5.3,5.8-7.9c0.3-0.4,0.6-0.8,1.1-1.4c1.5,5,1.2,9.5-1.2,13.8
		c-3.5,6.3-9,9.4-16.3,9.3c-0.8,0-1.1,0.2-1.4,1c-0.4,1.3-1.1,2.4-1.9,3.4c-12.3,16.6-24.6,33.3-36.9,49.9c-2.3,3.2-5.5,4.8-9.4,4.5
		c-6.8-0.4-10.7-8-7.5-14.2c0.6-1.1,1.2-2.2,2-3.2c11.7-15.9,23.5-31.7,35.2-47.6c1.1-1.5,2.3-2.9,3.8-4c0.7-0.5,0.5-0.9,0.3-1.5
		c-2.1-6.3-1.1-12.1,3.1-17.2C849.8,803.7,854.3,801.7,860.1,801.6z"/>
	<path class="st1" d="M806.6,891c-2.7-2-3.3-5.9-1.3-8.6c1.9-2.6,5.9-3.2,8.5-1.4c2.6,1.9,3.3,6,1.4,8.6
		C813.3,892.3,809.3,893,806.6,891z"/>
</g>
<g>
	<path class="st2" d="M784.6,771.3c0,0-2.3,33.8,1.6,40.7c3.9,6.9,52.3,56.2,52.3,56.2s2.1,7.3-3.5,9.6c-5.6,2.4-3.8-6.1-3.8-6.1
		s-9.2,10-11.7,0.6c0,0-12.5,8.6-8.1-7.6L761.7,828c0,0-42.9-35-32.6-63c10.4-28,26.6-24.9,36.2-21.1
		C773.2,746.9,785.9,754.9,784.6,771.3z"/>
	<path class="st3" d="M546.7,878l9.8,104.1c0,0-13.7,19.2-29.9-5.1c0,0-28.7,4.6-17.6-20.6c0,0-21.5,4.6-21.9-13.5
		s20.1-15.3,20.1-15.3s-31.5-2.5-8.9-18.8c0,0-19.4-19.1,5.8-15.1c0,0-12.2-19.1,6.8-22.6c0,0,10.3-0.8,14.7,10.9
		C525.5,881.9,523.5,863.7,546.7,878z"/>
	<path class="st4" d="M490.4,634.7c0.2-0.1,0.3-0.3,0.5-0.4C490.7,634.5,490.6,634.6,490.4,634.7z M489.7,635.3
		c0.2-0.1,0.4-0.3,0.5-0.4C490.1,635,489.9,635.2,489.7,635.3z M490.4,634.7c0.2-0.1,0.3-0.3,0.5-0.4
		C490.7,634.5,490.6,634.6,490.4,634.7z M489.7,635.3c0.2-0.1,0.4-0.3,0.5-0.4C490.1,635,489.9,635.2,489.7,635.3z"/>
	<path class="st4" d="M784.5,574.1c19.8,102.7,11.5,342.7-27.4,417.6c0,0-126.7,86.4-213.1,0c0,0-15.6-183.4-8.6-290.9
		c0,0-10-110.3,3-143.8c11.2-28.8,36.7-41.8,116.5-41.1C740.5,516.7,772.1,509.6,784.5,574.1z"/>
	<path class="st4" d="M544,989.8c0,0,11.7,40.5,3.2,78.5c0,0,10.3,19.3,5.6,26.3c0,0-5,8.3,1.8,14.6c0,0-9.9,7,4.3,1.6
		c14.4-5.5,35.5,1.3,35.5,1.3s47.8,19.6,59.2-4.6c11.3-24.2-27-17.7-27-17.7l-61-5.5c0,0-7-23.6,4.3-36c0,0,19.8-33.1,35.7-32.8
		l-0.2,0.8c0,0,57.3,7.8,80.9-1.5c0,0,9.9,35.8-2.9,67.4c0,0-2,10,8.1,8.7s-15.8,8.8-5.2,19.1c10.4,10.3,46.9,11.8,47.1-10.3
		c0.3-22.2-22.5-19.2-26-19.2c-3.6,0-2.7-13.8-2.7-13.8s-6.9-15.1,9-31.2c16-16.1,47.1-42.5,47.9-54.5"/>
	<path class="st3" d="M610.3,579.1c-11,11.2-27.1,31.5-29,55.5c-1.7,21.3,12,40.9,32.5,47.2c27.2,8.4,76.3,16.6,126.7-8
		c10.9-5.3,19.3-14.5,23.5-25.9c3.7-10,7.3-23.5,7.5-38c0.3-22.4-16.1-41.5-38.2-45.4c-23.8-4.2-60.1-7.1-100.3,2
		C624.4,568.5,616.5,572.8,610.3,579.1z"/>
	<path class="st5" d="M669.7,653.8c0,0,0.1,2,1.7,2.1c1.6,0.1,1.7-1.9,1.7-1.9L669.7,653.8z"/>
	
		<ellipse transform="matrix(-0.2856 -0.9583 0.9583 -0.2856 212.929 1402.9083)" class="st6" cx="629.4" cy="622.1" rx="19.6" ry="22.3"/>
	
		<ellipse transform="matrix(-0.2856 -0.9583 0.9583 -0.2856 213.6025 1404.0707)" class="st5" cx="630.1" cy="622.4" rx="17.8" ry="20.3"/>
	<path class="st5" d="M682.8,653.8l3.9-0.4c0,0,1.2,2.9-1.9,3.3C681.7,657.1,682.8,653.8,682.8,653.8z"/>
	<path class="st5" d="M676.4,654l3.5-0.2c0,0,1,2.1-1.4,2.9S675.3,654.7,676.4,654z"/>
	
		<ellipse transform="matrix(-0.2856 -0.9583 0.9583 -0.2856 215.7237 1415.2882)" class="st7" cx="635.4" cy="627.2" rx="7.8" ry="8.7"/>
	<path class="st8" d="M652,586.8l-3,7.3c0,0-32.7-13.9-48,18.2C601,612.3,601.3,575.8,652,586.8z"/>
	
		<ellipse transform="matrix(-0.2856 -0.9583 0.9583 -0.2856 358.1707 1494.8418)" class="st6" cx="736.2" cy="613.9" rx="18.3" ry="19.8"/>
	<path class="st2" d="M579.4,770.9c0,0-19.8,27.2-20.3,35c-0.4,7.9,13.1,75.7,13.1,75.7s-2.2,7.2-8,6.2c-5.9-1,0.1-7.2,0.1-7.2
		s-12.9,3.4-9.9-5.9c0,0-14.8,0.4-2.6-10.8L530.5,806c0,0-16.6-52.7,6.7-70.6c23.4-17.9,35-6.5,40.9,1.9
		C582.9,744.2,589.1,757.8,579.4,770.9z"/>
	
		<ellipse transform="matrix(-0.2856 -0.9583 0.9583 -0.2856 355.7932 1494.5452)" class="st5" cx="734.9" cy="614.7" rx="16.6" ry="17.9"/>
	
		<ellipse transform="matrix(-0.2856 -0.9583 0.9583 -0.2856 352.2337 1501.6564)" class="st7" cx="735.8" cy="619.5" rx="8.1" ry="8.8"/>
	<path class="st8" d="M714.3,580.9l3.6,6.2c0,0,31.5-14.5,47.8,12.8C765.7,599.9,760,562.8,714.3,580.9z"/>
	<circle class="st9" cx="731.9" cy="648.1" r="5.3"/>
	
		<ellipse transform="matrix(-0.2856 -0.9583 0.9583 -0.2856 179.9732 1450.3295)" class="st9" cx="630.6" cy="658.1" rx="4.8" ry="8.1"/>
	<g>
		<path class="st10" d="M690.3,630.7c0,0,3-2,4.9-0.2c1.9,1.8,6.2,1.8,6.1-1.8c-0.1-3.6-4.8-6.8-8.8-6c-4.1,0.8-8.9,2-9.2,7.7
			C683,636.2,690.3,630.7,690.3,630.7z"/>
		<circle class="st3" cx="696.8" cy="627.7" r="0.7"/>
		<circle class="st3" cx="687.2" cy="629.2" r="0.8"/>
	</g>
	<g>
		<path class="st11" d="M693,613.4c0,0-2.4,3.3,0,7.9"/>
		<path class="st11" d="M698.3,610.7c0,0-6.8-2.4-12.2,3.6"/>
		<path class="st11" d="M697.3,606.7c0,0-6.1-1.8-9.2,1.5"/>
	</g>
	<polygon class="st5" points="689,652.3 689.2,656.3 693.3,655.5 693.3,651.6 	"/>
	<polygon class="st5" points="695.2,651.1 695.5,655.2 699.4,654.6 699.6,650.8 	"/>
	<path class="st12" d="M693.7,629.6c0,0,0.8,14,5.1,20.6c0,0-22.3,6.6-49,0.8"/>
	<path class="st13" d="M680.6,689.8c0,0,6.5,199-35.7,340.1c0,0,1.4-0.2,6.2-0.4c0,0,40.2-125.1,37.2-340.5"/>
	<g>
		<line class="st14" x1="680.8" y1="695.3" x2="690.2" y2="695"/>
		<line class="st14" x1="680.8" y1="702.1" x2="690.2" y2="701.8"/>
		<line class="st14" x1="680.8" y1="708.9" x2="690.2" y2="708.6"/>
		<line class="st14" x1="680.8" y1="716.2" x2="690.2" y2="715.8"/>
		<line class="st14" x1="680.8" y1="723" x2="690.2" y2="722.6"/>
		<line class="st14" x1="680.8" y1="729.8" x2="690.2" y2="729.5"/>
	</g>
	<g>
		<line class="st14" x1="680.8" y1="737.3" x2="690.2" y2="737"/>
		<line class="st14" x1="680.8" y1="744.1" x2="690.2" y2="743.8"/>
		<line class="st14" x1="680.8" y1="751" x2="690.2" y2="750.6"/>
		<line class="st14" x1="680.5" y1="758.2" x2="689.3" y2="757.9"/>
		<line class="st14" x1="680" y1="765" x2="689.4" y2="764.7"/>
		<line class="st14" x1="679.9" y1="771.8" x2="689.3" y2="771.5"/>
	</g>
	<g>
		<line class="st14" x1="678.9" y1="780.2" x2="688.3" y2="779.9"/>
		<line class="st14" x1="678.9" y1="787.1" x2="688.3" y2="786.7"/>
		<line class="st14" x1="678.9" y1="793.9" x2="688.3" y2="793.6"/>
		<line class="st14" x1="678.9" y1="801.1" x2="688.3" y2="800.8"/>
		<line class="st14" x1="678.9" y1="807.9" x2="688.3" y2="807.6"/>
		<line class="st14" x1="678.9" y1="814.8" x2="688.3" y2="814.4"/>
	</g>
	<g>
		<line class="st14" x1="676.5" y1="823.5" x2="687.5" y2="824.1"/>
		<line class="st14" x1="675.7" y1="830.3" x2="686.7" y2="830.9"/>
		<line class="st14" x1="674.9" y1="837.1" x2="685.9" y2="837.6"/>
		<line class="st14" x1="674" y1="844.2" x2="685.1" y2="844.8"/>
		<line class="st14" x1="673.2" y1="851" x2="684.3" y2="851.6"/>
		<line class="st14" x1="672.4" y1="857.8" x2="683.5" y2="858.4"/>
	</g>
	<g>
		<line class="st14" x1="671.6" y1="865.3" x2="682.6" y2="865.9"/>
		<line class="st14" x1="670.8" y1="872.1" x2="681.8" y2="872.7"/>
		<line class="st14" x1="670" y1="878.9" x2="681" y2="879.5"/>
		<line class="st14" x1="668.8" y1="886.1" x2="679.1" y2="886.6"/>
		<line class="st14" x1="667.4" y1="892.8" x2="678.5" y2="893.4"/>
		<line class="st14" x1="666.5" y1="899.6" x2="677.5" y2="900.2"/>
	</g>
	<g>
		<line class="st14" x1="666.8" y1="907.8" x2="676.1" y2="908.4"/>
		<line class="st14" x1="666.2" y1="914.6" x2="675.5" y2="915.2"/>
		<line class="st14" x1="665.5" y1="921.4" x2="674.8" y2="922"/>
		<line class="st14" x1="664.8" y1="928.6" x2="674.1" y2="929.2"/>
		<line class="st14" x1="664.1" y1="935.4" x2="673.4" y2="936"/>
		<line class="st14" x1="663.5" y1="942.2" x2="672.7" y2="942.8"/>
	</g>
	<g>
		<line class="st14" x1="661.8" y1="950.2" x2="671" y2="951.5"/>
		<line class="st14" x1="660.7" y1="956.9" x2="669.9" y2="958.2"/>
		<line class="st14" x1="659.5" y1="963.7" x2="668.7" y2="964.9"/>
		<line class="st14" x1="658.3" y1="970.8" x2="667.5" y2="972"/>
		<line class="st14" x1="657.1" y1="977.5" x2="666.3" y2="978.8"/>
		<line class="st14" x1="655.9" y1="984.2" x2="665.1" y2="985.5"/>
	</g>
	<g>
		<line class="st14" x1="653.1" y1="991.4" x2="662.2" y2="993.3"/>
		<line class="st14" x1="651.5" y1="998.1" x2="660.7" y2="999.9"/>
		<line class="st14" x1="650" y1="1004.7" x2="659.1" y2="1006.5"/>
		<line class="st14" x1="648.3" y1="1011.8" x2="657.4" y2="1013.6"/>
		<line class="st14" x1="646.8" y1="1018.4" x2="655.9" y2="1020.2"/>
		<line class="st14" x1="645.2" y1="1025" x2="654.3" y2="1026.9"/>
	</g>
	<g>
		<polygon class="st15" points="686,689.4 691.5,688.6 698.8,698.5 691.2,701.3 		"/>
		<circle class="st16" cx="692.9" cy="696.5" r="2.6"/>
	</g>
	<path class="st3" d="M622,530c0,0,6.6-3.5,17.1,3.4c0,0,0.6-80.8,4.6-107.5c1.3-8.4-21.2-25.8-26.6,2
		c-4.8,24.7,4.9,100.6,4.9,100.6L622,530z"/>
	<path class="st10" d="M625.4,525.5c0,0,3.7-2,9.6,1.9c0,0,0.3-45.1,2.5-60c0.6-4.7-11.8-14.4-14.9,1.1c-2.6,13.8,2.7,56.2,2.7,56.2
		L625.4,525.5z"/>
	<path class="st3" d="M707.6,526.6c0,0,11.7-5.2,16.2,6.5c0,0,47.6-65.3,66.2-84.7c5.9-6.1-2.2-33.3-22.9-13.9
		c-18.3,17.3-54.6,84.7-54.6,84.7L707.6,526.6z"/>
	<path class="st10" d="M716.9,520.6c0,0,5.1-1.2,7.6,5.1c0,0,25.4-34.9,35.4-45.3c3.2-3.3-1.2-17.8-12.2-7.4
		c-9.8,9.2-29.2,45.3-29.2,45.3L716.9,520.6z"/>
	<path class="st4" d="M653.1,519.2c0,0,2-14.5-7.5-20c0,0,15.5,5.5,16,17l4-20.5l2,21c0,0,5.5-18.5,13-15c0,0-9,10-5,17.5
		c0,0,2-8.5-4.5-20.5c0,0,11.5,8.5,11.5,20.5H653.1z"/>
	<path class="st4" d="M552.2,550.8c0,0-21.2-1.4-27,18.9c0,0,20.9-15.6,25.7-9.2l11.3-13.7c0,0-11.5-18.5-22.9-18.6
		C539.3,528.2,555.9,537,552.2,550.8z"/>
	<path class="st4" d="M550.7,544.9c0,0-9.5-7.4-20.6-7.9l16.4,11.1c0,0-19-6.3-22.2,1.1l20.6,5.3"/>
	<path class="st4" d="M541.6,607.6c0,0-13.6,9.1-19.4,33.1l19.4-18.8c0,0-20.7,27.9-25.9,41.5c0,0,27.9-35.8,33.1-21.6
		c0,0-17.5,11.8-34.4,7.9c0,0,18.6,15.2,31.6,8.7"/>
	<path class="st4" d="M535.3,727.8c0,0,1.4-13.2-8-13.2c0,0,12.8-5.2,12.8,2.8l-2.4-15.1c0,0-3.4,2.3-10.1,2.8l10.1-8.4l-0.5-10.4
		c0,0-8,10.8-8.5,17.4c0,0,11.8-16,11.8-14.1"/>
	<path class="st4" d="M542.9,712.6c0,0-12.6,1.7-21.6-5.3c0,0,17.6,2.7,18.3-0.7"/>
	<path class="st4" d="M786,669.5c0,0,16.5,12,18.4,25.5l-18.7-18.7l5.5,42.9c0,0,10.4,6.6,10.1,16.9c0,0-5.4-11.4-8.7-11.4
		c0,0,5.1,13.6,11.4,9.9c0,0-3.9,9-14.5-3C779,719.5,786,669.5,786,669.5z"/>
	<path class="st4" d="M537.4,836.5c0,0-7.6-2.5-7.3-16.5l8.6,11.2"/>
</g>
<g>
	<g>
		<path class="st17" d="M798.7,1126.5c0,1.8,0,3.5,0,5.3c-0.4,0-0.7,0-1.1,0c-17.2,0-34.3,0.1-51.5-0.1c-2.4,0-4.8-0.8-7.1-1.5
			c-6.6-2.1-13.4-2.9-20.3-3.3c-1.5-0.1-3-0.2-4.6-0.3c0,1.7,0,3.3,0,5c-13.3,0-26.5,0-39.7,0c0-3.1,0-6.2,0-9.4
			c0.3,0,0.6-0.1,1-0.1c12.6,0,25.2,0,37.9,0c8.1,0,16,0.8,24,2.4c6.3,1.2,12.6,1.8,19,1.8c13.7,0,27.3,0,41,0
			C797.7,1126.5,798.2,1126.5,798.7,1126.5z"/>
		<path class="st17" d="M674.5,1121.9c0-0.4,0-0.7,0-1.1c0.4,0,0.8,0,1.2,0c12,0,24,0,36.1,0c9.1,0,18.1,0.9,27,2.6
			c5.7,1.1,11.5,1.5,17.3,1.5c13.1,0,26.3,0,39.4,0c1,0,2.1,0,3.2,0c0,0.4,0,0.7,0.1,1c-0.2,0.1-0.2,0.1-0.3,0.1c-0.2,0-0.4,0-0.5,0
			c-14.2,0-28.3,0-42.5,0c-6.6,0-13.1-0.7-19.6-2c-8.1-1.6-16.3-2.2-24.5-2.2c-11.8,0-23.6,0-35.3,0
			C675.5,1121.9,675.1,1121.9,674.5,1121.9z"/>
		<path class="st18" d="M673.8,1100.4c1,0,1.7,0,2.4,0v-0.1c-0.7-0.1-1.4-0.2-2.1-0.3c-0.1-0.1-0.1-0.2-0.2-0.2
			c0.3-0.2,0.5-0.6,0.8-0.6c5.5,0.5,10.9,1.4,15.6,4.6c4,2.7,6.5,6.5,7.9,11.1c0.5,1.8,0.8,3.7,1.3,5.5c-0.9,0.2-0.9,0.2-1.5-1.5
			c0,0.5,0.1,1,0.1,1.7c-0.5,0-0.9,0-1.3,0c-7,0-14,0-21,0c-1.6,0-1.6,0-1.9-1.6c-0.7-4.2-0.8-8.5-0.5-12.8
			C673.5,1104.3,673.6,1102.4,673.8,1100.4z"/>
		<path class="st19" d="M759.1,1097.2c0.2-0.2,0.5-0.4,0.7-0.7c1.8,0.9,3.6,1.8,5.6,2.6c4.5,1.8,9.3,2.5,14.2,3
			c2.7,0.3,5.5,0.4,8.2,0.9c6.2,1.1,11.1,7.6,10.5,13.3c-0.3,2.6-0.8,5.1-1.3,7.6c-0.1,0.6-0.4,0.8-1.1,0.8c-14.7,0-29.5,0-44.2-0.1
			c-5.7,0-11.4-1.1-17-2.1c-6-1.1-12-1.7-18-1.8c-3.3-0.1-6.6-0.1-9.9-0.1c-0.3,0-0.7,0-1.1,0c0.1-2.4,1.2-4.1,2.9-5.3
			c2.1-1.5,4.4-3,6.7-4c8.1-3.6,16.7-5.1,25.6-5.3c4.5-0.1,8.9-0.2,13.4-0.2c3.2,0,5.7-1.2,7.9-3.4c1.2-1.2,1.1-2-0.4-2.7
			c-0.8-0.4-1.6-0.8-2.4-1.3c-0.2-0.1-0.3-0.5-0.5-0.8C758.9,1097.4,759,1097.3,759.1,1097.2z"/>
		<path class="st18" d="M718.4,1051.6c0.9-0.1,1.5-0.1,2.3-0.1c0,2.8,0,5.6,0,8.5c-0.8,0-1.6,0-2.3,0
			C718.4,1057.2,718.4,1054.5,718.4,1051.6z"/>
		<path class="st18" d="M718,1062.9c1-0.1,1.8-0.1,2.6-0.2c0.1,1.2,0.2,2.3,0.3,3.4c0,0.1,0,0.3,0,0.4c0.1,0.8,0.6,1.8,0.3,2.2
			c-0.5,0.7-1.5,0.9-2.4,1.4C717.9,1067.8,718.1,1065.4,718,1062.9z"/>
		<path class="st18" d="M726.6,1076.3c-0.3,0.5-0.7,1-1.1,1.7c-2.1-1.5-4.3-2.8-5.6-5.2c0.9-0.5,1.8-0.9,2.5-1.2
			C723.8,1073.1,725.1,1074.7,726.6,1076.3z"/>
		<path class="st18" d="M715.6,1044.5c1.6-0.2,2.9-0.4,4.2-0.4c0.2,0,0.7,0.5,0.7,0.7c-0.2,0.7-0.4,1.7-0.9,2
			c-0.6,0.4-1.6,0.6-2.3-0.5C717,1045.6,716.3,1045.2,715.6,1044.5z"/>
		<path class="st18" d="M718.4,1048c-0.1-0.3-0.1-0.5-0.2-0.7c2-0.3,2.3-0.6,2.5-2.3c0.1-0.9-0.3-1.3-1.1-1.2
			c-1.1,0.1-2.3,0.3-3.4,0.4c-0.7,0.1-1.4,0-2.1,0c0-0.2,0-0.3,0-0.5c1.9-0.2,3.8-0.6,5.7-0.7c1.3-0.1,1.7,0.6,1.7,1.8
			C721.6,1046.8,720.7,1047.7,718.4,1048z"/>
		<path class="st18" d="M728.5,1078.2c0.2-0.2,0.4-0.3,0.6-0.5c2.6,1.6,5.1,3.2,7.7,4.9c-0.1,0.3-0.2,0.6-0.2,0.9
			c-0.1,0.1-0.2,0.3-0.4,0.4c-0.3,0.6-0.7,0.6-1.3,0.2c-2.1-1.4-4.3-2.7-6.5-4.1c-0.3-0.2-0.5-0.5-0.7-0.7
			C727.9,1078.9,728.2,1078.6,728.5,1078.2z"/>
		<path class="st18" d="M738.8,1084.6c0.3-0.1,0.6-0.3,0.8-0.2c2.5,1.5,5,3,7.5,4.5c-0.4,0.6-0.7,1.1-1.1,1.6
			c-2.5-1.5-5-2.9-7.5-4.4c-0.2-0.1-0.3-0.4-0.4-0.6C738.3,1085.2,738.6,1084.9,738.8,1084.6z"/>
		<path class="st18" d="M748.6,1091.2c0.1-0.1,0.2-0.2,0.3-0.3c0.2-0.2,0.4-0.3,0.6-0.5c2.6,1.5,5.2,3.1,7.8,4.6
			c-0.4,0.5-0.7,1-1.1,1.6c-1.1-0.6-2.1-1.2-3.2-1.8c-1.3-0.8-2.7-1.6-4-2.3C748.5,1092.1,748.4,1091.8,748.6,1091.2z"/>
		<path class="st20" d="M722.4,1060.9c0,0.1,0.1,0.2,0.1,0.4c0,0,0,0,0,0.1l0,0c0,0.1,0,0.1,0,0.2c0,0.6-0.5,1-1.6,1
			c-2.1,0.1-4.3,0.1-6.4,0.2c-0.8,0-1.5-0.1-1.6-1.1c0-0.9,0.7-1.1,1.4-1.2c2.2-0.1,4.5-0.2,6.7-0.2c0.1,0,0.3,0,0.4,0
			c0.1,0,0.2,0,0.3,0.1c0,0,0,0,0.1,0 M721.2,1059.8v-8.3c0.3-0.1,0.6-0.3,0.9-0.4c-2.5,0.1-4.9,0.2-7.4,0.2c-0.2,0-0.4,0-0.6,0H714
			c-0.1,0-0.2,0-0.3,0l0,0c-0.1,0-0.2,0-0.3-0.1c-0.1,0-0.1,0-0.2,0l0,0l0,0c0.2,0.2,0.3,0.5,0.4,0.6c-0.9,0.1-1.6-0.4-1.6-1.3
			c-0.1-0.8,0.5-1.5,1.6-1.6c-0.3,0.4-0.7,0.7-0.7,1.1c0,0.1,0,0.1,0,0.2c0,0,0,0,0,0.1c0,0,0,0,0,0.1v0.1l0,0c0,0,0,0,0,0.1
			c0,0,0,0,0,0.1l0,0c0,0,0,0.1,0.1,0.1c0.1,0.1,0.1,0.3,0.2,0.4v0.1l0,0c-0.1-0.3-0.2-0.5-0.2-0.7v-0.1c-0.1-0.8,0.3-1.1,1.5-1.2
			c2.2-0.1,4.5-0.2,6.7-0.2c0.5,0,0.9,0.3,1.4,0.4c-0.4-0.3-0.9-0.6-1.5-1c0.1-0.4,0.2-1,0.5-1.5c0.9-1.9,0.6-3.3-0.8-4.3h-3
			c-2.1,0.4-4.1,1-6.3,0.8c-3.2-0.3-6.5,0-9.6,0.4c-4.6,0.6-9.2,1.6-13.8,2.2c-2.1,0.3-4.3,0.4-6.4,0.4c-2.3,0-3.9,1.3-4,3.6
			c0,1.1,0,2.2,0,3.5c-0.5,0-1.1,0.1-1.7,0.1v13.8c0.7,0,1.3,0.1,2,0.1c-0.1,2.8-0.2,5.5-0.4,8.3h-2c-0.1,1.6-0.3,3.2-0.4,4.9
			c-0.2,2.5-0.5,5.1-0.8,7.6c-0.1,1.3-0.2,1.3,1.1,1.4c0.2,0,0.4,0.1,0.8,0.2c-0.5,2.9-1,5.9-1.5,8.8c-0.5,0.1-0.7,0.1-1.1,0.1
			c-0.1,0.9-0.3,1.8-0.4,2.7c-0.2,1.4-0.3,2.8-0.4,4.2v8.8c0.1,0.9,0.2,1.7,0.4,2.6c0.7,3,0.9,6.1,0.8,9.2c-0.1,1.6,0,3.3,0,4.9v1.1
			h40.8v-4.9c0.5,0,0.9,0,1.3,0c2.5,0.2,5,0.4,7.6,0.6c5.2,0.4,10.2,1.3,15.2,2.8c2.3,0.7,4.7,1.5,7.1,1.5
			c17.4,0.1,34.9,0.1,52.3,0.1h1.1v-7.8h-2.4c0.1-0.5,0.3-0.8,0.4-1.1c0.9-3.3,1.7-6.8,0.9-10.2c-1.3-5.6-4.9-9.4-10.6-10.7
			c-2.6-0.6-5.4-0.6-8-0.9c-4.8-0.5-9.6-1.1-14.2-3c-1.9-0.8-3.7-1.7-5.6-2.6c1.1-2,1.1-2.2,0.2-2.9v0.1c0.6,0.7,0.5,1.3,0,2
			c-0.4,0.6-0.7,1.2-1.1,1.8c0.2-0.2,0.5-0.4,0.7-0.7c1.8,0.9,3.6,1.8,5.6,2.6c4.5,1.8,9.3,2.5,14.2,3c2.7,0.3,5.5,0.4,8.2,0.9
			c6.2,1.1,11.1,7.6,10.5,13.3c-0.3,2.6-0.8,5.1-1.3,7.6c-0.1,0.6-0.4,0.8-1.1,0.8c-14.7,0-29.5,0-44.2-0.1c-5.7,0-11.4-1.1-17-2.1
			c-5.9-1.1-12-1.7-18-1.8c-3.3-0.1-6.6-0.1-9.9-0.1c-0.3,0-0.7,0-1.1,0c0.1-2.4,1.2-4.1,2.9-5.3c2.1-1.5,4.4-3,6.7-4
			c8.1-3.6,16.7-5.1,25.6-5.3c4.5-0.1,8.9-0.2,13.4-0.2c3.2,0,5.7-1.2,7.9-3.4c1.2-1.2,1.1-2-0.4-2.7c-0.8-0.4-1.6-0.8-2.4-1.3
			c-0.2-0.1-0.3-0.5-0.5-0.8c-0.2,0.3-0.4,0.6-0.6,0.9c1.3,0.7,2.7,1.2,4,2c0.7,0.5,0.1,1.1-0.3,1.5c-2.2,2.2-4.8,3.3-7.9,3.3
			c-4.6,0-9.2,0.1-13.8,0.2c-9.4,0.2-18.4,2-26.9,6.1c-1.7,0.8-3.3,1.9-4.8,3c-1.9,1.4-3.2,3.3-3.4,6c-0.5-0.1-1-0.2-1.4-0.3
			c-0.4,0.1-0.9,0.2-1.3,0.2c-2.6,0-2.5,0-3-2.5c-1.9-10.1-8-16.4-18.4-18.4c-1.9-0.4-3.8-0.6-5.7-0.9c0.5-2.9,1-5.8,1.5-8.7
			c1.4-0.3,1.6-0.2,2.1,1.1c0.4,1.1,1.7,2,2.8,1.9c1.4-0.1,2.5-1,2.8-2.3c0.3-1.7,0.4-3.3,0.6-5c0.3-2.7,0.6-5.5,0.9-8.3
			c0.1-1.4-0.3-2.5-1.5-3.2c-1.1-0.6-2.1-0.5-3,0.2c-0.5,0.4-0.8,1-1.3,1.6c-0.5-0.1-1.2-0.1-1.9-0.2c0.1-2.9,0.2-5.6,0.3-8.5h1.5
			c0.4,0.7,0.8,1.4,1.3,1.9c0.8,0.7,1.8,1,2.8,0.5c1.1-0.5,1.9-1.3,1.9-2.6c0-4.6,0-9.1,0-13.7c0-1.4-1.1-2.6-2.5-2.7
			c-1.6-0.2-2.7,0.6-3.4,2.5h-2c0-1.5-0.1-2.9,0-4.3c0.1-1.4,1.6-2.4,3-2.3c4.1,0.4,8-0.4,11.9-1.2c5.8-1.2,11.7-1.9,17.7-1.9
			c2.1,0,4.1,0.8,5.7,2.2c0.9,0.7,1.6,1.6,1.6,3c-0.5,0-0.9,0-1.3,0.1c-0.1-0.5-0.1-0.9-0.2-1.3h-0.1c0,0.4,0,0.8-0.1,1.3
			c-0.3-0.1-0.6-0.2-0.8-0.3l0,0l0,0c-0.4,0-0.8,0.1-1.2,0c-0.9-0.3-1.7-0.1-2.2,0.6c-0.5,0.7-0.5,1.5,0,2.1
			c0.6,0.7,1.4,0.9,2.3,0.5c0.3-0.1,0.7-0.3,1.1-0.4c-0.1,0.3-0.1,0.5-0.2,0.7l0,0l0,0c0.3-0.2,0.6-0.4,1-0.8
			c0.1,0.8,0.1,1.4,0.2,2.1c0.1,0,0.1,0,0.2,0v-1.9h1.2v8.4c-0.6,0-1,0.1-1.5,0.1c0-0.6,0.1-1,0.1-1.5c-0.1,0-0.1,0-0.2,0
			c-0.1,0.5-0.1,0.9-0.2,1.6c-0.9-1-1.9-1.6-3.1-1.3c-0.6,0.2-1.2,0.5-1.5,1c-1,1.1-0.8,2.6,0.2,3.6c1.2,1.2,2.6,1.1,4.3-0.3
			c0.1,0.5,0.1,1,0.2,1.5c0.1,0,0.1,0,0.2,0v-1.7h1.4c0,0.7-0.1,1.4,0,2.2c0.2,1.8,0.5,3.7,0.7,5.5c1.1-0.5,2.1-1,3.2-1.5
			c0.7-0.3,1.4-0.4,1.8,0.4c0.4,0.8-0.1,1.2-0.8,1.6c-2,1-4.1,2-6.1,3c-0.7,0.3-1.4,0.4-1.7-0.3c-0.4-0.8,0-1.3,0.7-1.7
			c0.9-0.4,1.9-0.9,2.8-1.4c-0.3,0-0.6,0.1-1,0.1c-0.1-0.3-0.3-0.7-0.4-1.1c-0.1,0-0.1,0-0.1,0c0.1,0.4,0.2,0.8,0.3,1.5
			c-1.2-0.5-2.4-0.9-3.4,0.1c-0.5,0.5-0.9,1.1-1.1,1.7c-0.4,1.2,0.6,2.6,1.8,3.1c1.5,0.6,2.8-0.2,3.8-2.4c0.4,0.6,0.8,1.1,1.1,1.6
			c0.1,0,0.1-0.1,0.2-0.1c-0.3-0.5-0.7-1.1-1.1-1.7c0.4-0.2,0.7-0.4,1.1-0.6c1.3,2.2,3.3,3.5,5.2,4.9c0.5,0.3,0.5,0.6,0.3,1.1l0,0
			l0,0c0.9-1.2,1.7-2.4,2.6-3.6c-0.5,0.4-1,0.3-1.4-0.2c-1.1-1.2-2.2-2.5-3.2-3.6c1.2-1.6,0.9-2.3-0.7-2.9c-0.2-0.1-0.4-0.3-0.5-0.5
			c-0.3-1.8-0.5-3.6-0.8-5.3c0.2,0.1,0.3,0.1,0.5,0.2c0.4-0.5,1-0.8,1.3-1.4 M714.5,1075.9c-1.4-0.4-2.2-1.8-1.8-3.1
			c0.4-1.2,1.9-2.3,3.6-1.3c-0.6,0.1-0.9,0.2-1.3,0.2c-0.9,0.1-1.5,0.6-1.7,1.5c-0.1,0.9,0.2,1.5,0.9,1.9c0.8,0.4,1.6,0.3,2.1-0.4
			c-0.1,0-0.3,0-0.4,0.1c-1,0.5-1.8,0.3-2.3-0.5s-0.2-1.5,0.9-2.2c-0.1,0.3-0.2,0.5-0.3,0.6c-0.4,1,0.1,1.9,1.1,2c0.3,0,0.6,0,0.9,0
			l0,0c0.3-0.2,0.6-0.5,1-0.8C717.2,1075.4,715.8,1076.3,714.5,1075.9z M726.6,1076.3c-0.3,0.5-0.7,1-1.1,1.7
			c-2.1-1.5-4.3-2.8-5.6-5.2c0.9-0.5,1.8-0.9,2.5-1.2C723.8,1073.1,725.1,1074.7,726.6,1076.3z M720.6,1062.8
			c0.1,1.2,0.2,2.3,0.3,3.4c0,0.1,0,0.3,0,0.4c0.1,0.8,0.6,1.8,0.3,2.2c-0.5,0.7-1.5,0.9-2.4,1.4c-1-2.4-0.7-4.8-0.9-7.3
			C718.9,1062.9,719.7,1062.8,720.6,1062.8z M713.1,1059.8L713.1,1059.8L713.1,1059.8h-0.2c-0.2,0.1-0.4,0.2-0.6,0.5l0,0l0,0l0,0
			c0.2-0.1,0.5-0.1,0.7-0.2c0.1,0,0.2-0.1,0.3-0.1s0.1,0,0.2,0c-1.3,1.3-1.2,2,0.2,3c-1.5,0.1-2.2-0.9-1.6-2.2
			c0.1-0.1,0.1-0.3,0.1-0.4l0,0l0,0l0,0c-0.1,0.1-0.2,0.1-0.3,0.2c0,0,0,0-0.1,0.1l-0.1,0.1c0,0,0,0,0,0.1c0,0,0,0,0,0.1
			c0,0,0,0.1-0.1,0.1v0.1c0,0,0,0,0,0.1c0,0,0,0,0,0.1c-0.1,0.3,0,0.7,0.2,1c0.8,1.9,2.3,0.9,3.7,0.6c-0.8,1.1-1.6,1.5-2.7,1.2
			c-1-0.3-1.8-1.2-1.8-2.2c-0.1-1.1,0.5-2,1.6-2.5c1-0.4,1.9-0.1,2.7,0.8C714.6,1060.3,713.8,1059.8,713.1,1059.8z M718.4,1051.6
			c0.9-0.1,1.5-0.1,2.3-0.1v8.5h-2.3V1051.6z M717.3,1046.2c-0.4-0.6-1-1-1.8-1.7c1.6-0.2,2.9-0.4,4.2-0.4c0.2,0,0.7,0.5,0.7,0.7
			c-0.2,0.7-0.4,1.7-0.9,2C719,1047,718,1047.3,717.3,1046.2z M719.8,1043c1.3-0.1,1.7,0.6,1.7,1.8c0,2-0.9,2.9-3.2,3.1
			c-0.1-0.3-0.1-0.5-0.2-0.7c2-0.3,2.3-0.6,2.5-2.3c0.1-0.9-0.3-1.3-1.1-1.2c-1.1,0.1-2.3,0.3-3.4,0.4c-0.7,0.1-1.4,0-2.1,0
			c0-0.2,0-0.3,0-0.5C716.1,1043.4,717.9,1043.1,719.8,1043z M683.4,1074.4c1.2,0.3,2.2,1.4,2.1,2.7c-0.4,4.4-0.9,8.8-1.4,13.3
			c-0.2,1.5-1.3,2.4-2.7,2.3c-1.2-0.1-2.1-1.1-2.2-2.4c0.1-0.1,0.2-0.2,0.2-0.2c0.2,0.2,0.5,0.4,0.6,0.7c0.4,0.7,0.9,1.2,1.8,1
			c0.9-0.1,1.3-0.8,1.4-1.6c0.5-4.3,1-8.6,1.3-12.9c0-0.5-0.5-1.3-0.9-1.7c-0.6-0.5-1.2-0.2-1.8,0.3c-0.3,0.3-0.7,0.4-1.2,0.7
			C681.2,1074.8,682.3,1074.1,683.4,1074.4z M680.4,1090.6c0-0.1,0.1-0.2,0.1-0.3c0.7,0.1,1.3,0.1,2,0.2c0,0.1,0,0.3,0.1,0.4
			c-0.4,0.1-0.8,0.4-1.1,0.4C681.1,1091.2,680.8,1090.8,680.4,1090.6z M684.2,1076.5c-0.8,0-1.4-0.1-2.2-0.1
			C682.8,1075.5,683.2,1075.5,684.2,1076.5z M683.5,1051.4c1.2,0.2,2,1.2,2,2.7c0,4.3,0,8.6,0,12.9c0,1.4-0.9,2.5-2.2,2.7
			c-1.2,0.2-2.3-0.7-2.8-2.5c0.5,0.3,0.9,0.4,1,0.6c0.5,0.7,1.1,1.1,1.9,0.9c0.9-0.3,1.2-0.9,1.2-1.8c0-4.2,0-8.4,0-12.6
			c0-0.9-0.2-1.6-1.1-2c-0.8-0.3-1.5,0.1-2,0.8c-0.1,0.2-0.5,0.3-1,0.5C681.2,1051.8,682.1,1051.2,683.5,1051.4z M682,1067.4h2.2
			C683.4,1068.6,682.6,1068.6,682,1067.4z M684,1053.4h-1.9C682.8,1052.4,683.3,1052.4,684,1053.4z M676.4,1066.7v-12.8h7.8v12.8
			H676.4z M674.8,1089c0.4-4.3,0.8-8.5,1.2-12.8c2.7,0.3,5.4,0.6,8.1,0.9c-0.5,4.3-0.9,8.5-1.3,12.8
			C680.1,1089.5,677.5,1089.3,674.8,1089z M673.9,1119c-0.7-4.2-0.8-8.5-0.5-12.8c0.1-1.9,0.3-3.8,0.4-5.8h2.4v-0.1
			c-0.7-0.1-1.4-0.2-2.1-0.3c-0.1-0.1-0.1-0.2-0.2-0.3c0.3-0.2,0.5-0.6,0.8-0.6c5.5,0.5,10.9,1.4,15.6,4.6c4,2.7,6.5,6.5,7.9,11.1
			c0.5,1.8,0.9,3.7,1.3,5.5c-0.9,0.2-0.9,0.2-1.5-1.5c0,0.5,0.1,1,0.1,1.7h-22.2C674.2,1120.5,674.1,1120.5,673.9,1119z
			 M798.7,1131.8h-1.1c-17.2,0-34.3,0.1-51.5-0.1c-2.4,0-4.8-0.8-7.1-1.5c-6.6-2.1-13.4-2.9-20.3-3.3c-1.5-0.1-3-0.2-4.6-0.3v5
			h-39.7v-9.4c0.3,0,0.6-0.1,1-0.1c12.6,0,25.2,0,37.9,0c8.1,0,16,0.8,24,2.4c6.3,1.2,12.6,1.8,19,1.8c13.7,0,27.3,0,41,0h1.5v5.5
			H798.7z M798.4,1126.1c-0.2,0-0.4,0-0.5,0c-14.2,0-28.3,0-42.5,0c-6.6,0-13.1-0.7-19.6-2c-8.1-1.6-16.3-2.2-24.5-2.2
			c-11.8,0-23.6,0-35.3,0h-1.5v-1.1h1.2c12,0,24,0,36.1,0c9.1,0,18.1,0.9,27,2.6c5.7,1.1,11.5,1.5,17.3,1.5c13.1,0,26.3,0,39.4,0
			h3.2c0,0.4,0,0.7,0.1,1C798.6,1126,798.5,1126.1,798.4,1126.1z"/>
		<path class="st21" d="M729.4,1076.7c-0.3,0.5-0.6,1-0.9,1.5c-0.3,0.3-0.5,0.7-0.8,1c-0.1,0.3-0.3,0.6-0.4,0.9
			c-0.2,0.4-0.5,0.8-0.7,1.1c-0.4,0.5-0.9,1-1.3,1.5c-0.5,0.6-1,1.1-1.7,0.6s-0.6-1.2-0.1-1.8c0.1-0.2,0.3-0.5,0.4-0.7l0,0l0,0l0,0
			l0,0c0.4-0.6,0.8-1.3,1.3-1.9l0,0l0,0c0.9-1.2,1.7-2.4,2.6-3.6c0.5,0,1.1-0.1,1.5,0.2C729.3,1075.7,729.3,1076.3,729.4,1076.7z"/>
		<path class="st21" d="M739.7,1083c-0.3,0.5-0.6,1-0.9,1.5c-0.2,0.3-0.5,0.6-0.7,1c-0.2,0.3-0.3,0.5-0.5,0.8
			c-0.1,0.1-0.3,0.2-0.3,0.3c-0.6,0.9-1.2,1.8-1.8,2.7c-0.4,0.5-1,0.7-1.6,0.3s-0.6-1-0.3-1.6c0.2-0.3,0.3-0.6,0.5-0.9l0,0l0,0l0,0
			c0.3-0.5,0.5-0.9,0.8-1.3c0.1-0.1,0.3-0.3,0.4-0.4c0.3-0.5,0.6-1,0.9-1.5c0.1-0.1,0.2-0.3,0.4-0.4c0.5-0.7,1-1.4,1.6-2
			C739.6,1081.3,740,1081.7,739.7,1083z"/>
		<path class="st21" d="M713.1,1051.2c-0.5-1.4-0.2-1.9,1.3-2c2.2-0.1,4.5-0.2,6.7-0.2c0.5,0,0.9,0.3,1.4,0.4
			c0.5,0.8,0.1,1.3-0.5,1.8c-2.5,0.1-4.9,0.2-7.4,0.2C714.1,1051.4,713.6,1051.2,713.1,1051.2L713.1,1051.2z"/>
		<path class="st20" d="M760.2,1093.2L760.2,1093.2c-1-0.2-1.5,0.2-2,1c-0.8,1.2-1.8,2.4-2.6,3.7l0,0l0,0c0.1-0.3,0.3-0.6,0.4-1
			c-2.5-1.4-4.9-2.9-7.3-4.2c-0.2-0.1-0.6,0.1-1,0.1c0.3-0.5,0.6-1,1-1.6c-0.3,0.6-0.1,0.9,0.5,1.2c1.4,0.7,2.7,1.5,4,2.3
			c1,0.6,2.1,1.2,3.2,1.8c0.4-0.6,0.7-1,1.1-1.6c-2.7-1.6-5.2-3.1-7.8-4.6c-0.2,0.2-0.4,0.3-0.6,0.5c0.3-0.5,0.6-0.9,0.9-1.4h0.1
			c0.1,0.3,0.1,0.6,0.3,0.7c2.4,1.5,4.9,2.9,7.3,4.3C758.3,1094,758.6,1092.2,760.2,1093.2z"/>
		<path class="st20" d="M745.3,1091.7c0.1-0.3,0.2-0.6,0.2-0.9c-1.8-1.1-3.6-2.1-5.4-3.2c-0.8-0.5-1.7-0.9-2.5-1.3l0,0l0,0
			c0.2-0.3,0.3-0.5,0.5-0.8c0.1,0.2,0.2,0.5,0.4,0.6c2.5,1.5,4.9,2.9,7.5,4.4c0.4-0.6,0.7-1.1,1.1-1.6c-2.5-1.5-5-3-7.5-4.5
			c-0.2-0.1-0.5,0.1-0.8,0.2c0.3-0.5,0.6-1,0.9-1.5c-0.2,0.6,0,0.9,0.6,1.3c2.3,1.3,4.6,2.8,6.9,4.2c0.3-0.3,0.6-0.6,0.9-0.8
			C747.2,1089,746.3,1090.4,745.3,1091.7z"/>
		<path d="M748.1,1087.6L748.1,1087.6L748.1,1087.6L748.1,1087.6z"/>
		<path class="st20" d="M738.1,1081.5c-0.5,0.7-1,1.4-1.6,2c0.1-0.3,0.2-0.6,0.2-0.9c-2.6-1.6-5.1-3.2-7.7-4.9
			c-0.2,0.1-0.4,0.3-0.6,0.5c0.3-0.5,0.6-1,0.9-1.5c0.2,0.3,0.2,0.8,0.5,1c2.4,1.6,4.8,3.1,7.1,4.5
			C737.4,1082,737.7,1081.7,738.1,1081.5z"/>
		<path class="st22" d="M748.1,1087.6c0.6-0.8,1.3-0.7,1.8-0.1c0.7,0.7,0.6,1.4-0.1,2.1h-0.1c0.2-0.6,0.7-1.3,0-1.8
			C749.4,1087.4,748.7,1087.6,748.1,1087.6L748.1,1087.6z"/>
		<path class="st23" d="M676,1076.2c2.7,0.3,5.4,0.6,8.1,0.9c-0.5,4.3-0.9,8.5-1.3,12.8c-2.7-0.3-5.3-0.6-8-0.8
			C675.2,1084.7,675.6,1080.5,676,1076.2z"/>
		<path class="st23" d="M684.2,1066.7c-2.6,0-5.1,0-7.8,0c0-4.3,0-8.5,0-12.8c2.5,0,5.1,0,7.8,0
			C684.2,1058.2,684.2,1062.4,684.2,1066.7z"/>
		<path class="st18" d="M679.4,1090c0.2,0.2,0.5,0.4,0.6,0.7c0.4,0.7,0.9,1.2,1.8,1c0.9-0.1,1.3-0.8,1.4-1.6c0.5-4.3,1-8.6,1.3-12.9
			c0-0.5-0.5-1.3-0.9-1.7c-0.6-0.5-1.2-0.2-1.8,0.3c-0.3,0.3-0.7,0.4-1.2,0.7c0.6-1.6,1.7-2.3,2.9-2.1c1.2,0.3,2.2,1.4,2.1,2.7
			c-0.5,4.4-0.9,8.8-1.4,13.3c-0.2,1.5-1.3,2.4-2.7,2.3c-1.2-0.1-2.1-1.1-2.2-2.4C679.3,1090.1,679.3,1090.1,679.4,1090z"/>
		<path class="st18" d="M680.6,1053.6c0.6-1.8,1.6-2.5,2.9-2.3c1.2,0.2,2,1.2,2,2.7c0,4.3,0,8.6,0,12.9c0,1.4-0.9,2.5-2.2,2.7
			c-1.2,0.2-2.3-0.7-2.8-2.5c0.5,0.3,0.9,0.4,1,0.6c0.5,0.7,1.1,1.1,1.9,0.9c0.9-0.3,1.2-0.9,1.2-1.8c0-4.2,0-8.4,0-12.6
			c0-0.9-0.2-1.6-1.1-2c-0.8-0.3-1.5,0.1-2,0.8C681.4,1053.3,681.1,1053.4,680.6,1053.6z"/>
		<path class="st21" d="M760.1,1095.3c-0.4,0.6-0.7,1.2-1.1,1.8c-0.1,0.1-0.2,0.2-0.3,0.3c-0.2,0.3-0.4,0.6-0.6,0.9
			c-0.1,0.1-0.2,0.2-0.4,0.4c-0.3,0.5-0.6,0.9-0.8,1.4l0,0l0,0l0,0c-0.3,0.3-0.5,0.7-0.8,0.8c-0.4,0.2-1.1,0.5-1.4,0.3
			c-0.3-0.2-0.3-0.9-0.4-1.4c0-0.2,0.2-0.5,0.3-0.7c0.3-0.4,0.6-0.9,0.8-1.3l0,0l0,0c0.9-1.2,1.8-2.4,2.6-3.7c0.5-0.7,1.1-1.2,2-0.9
			C760.7,1094,760.7,1094.6,760.1,1095.3z"/>
		<path class="st21" d="M721.1,1060.3l1.4,0.3c0.7,1.4,0.1,1.9-1.5,2c-2.1,0.1-4.3,0.1-6.4,0.2c-0.8,0-1.5-0.1-1.6-1.1
			c0-0.9,0.7-1.1,1.4-1.2c2.2-0.1,4.6-0.2,6.8-0.2"/>
		<path class="st21" d="M722.5,1071.2c-2,1-4.1,2-6.1,3c-0.7,0.3-1.4,0.4-1.7-0.3c-0.4-0.8,0-1.3,0.7-1.7c0.9-0.4,1.9-0.9,2.8-1.4
			h0.1c1.1-0.5,2.1-1,3.2-1.5c0.7-0.3,1.4-0.4,1.8,0.4C723.7,1070.4,723.2,1070.8,722.5,1071.2z"/>
		<path class="st17" d="M762.2,1100.5c-1.3-0.8-2.6-1.4-4-2c-0.1,0.1-0.2,0.2-0.4,0.4c0,0.6,0,1.3-0.1,1.9c-0.1,0.7-0.4,1.4-0.7,2
			c-0.2,0.4-0.4,0.9-0.7,1c-0.6,0.2-1.3,0.3-1.8,0.1c-1.1-0.5-2.2-1.3-2.2-2.8c-0.1-1.1,0.7-2.2,2-2.7c0.4-0.2,0.9-0.3,1.3-0.4
			c0.1-0.3,0.3-0.6,0.4-1c-2.5-1.4-4.9-2.9-7.3-4.2c-0.2-0.1-0.6,0.1-1,0.1c-0.1,0.1-0.2,0.2-0.4,0.4c0,0.7,0,1.4,0,2.1
			c0,1-0.9,2.1-1.9,2.4c-1.1,0.3-2.2,0-2.9-0.9c-0.8-1-0.8-1.9-0.2-3c0.7-0.7,1.3-1.5,2.4-1.3c0.2-0.3,0.4-0.5,0.6-0.8
			c0.1-0.3,0.2-0.6,0.2-0.9c-1.8-1.1-3.6-2.1-5.4-3.2c-0.8-0.5-1.7-0.9-2.5-1.3c0,0.5-1.2,1.1,0,1.6c-0.3-0.1-0.5-0.2-0.8-0.3
			c0,2.9-0.7,4-2.5,4.2c-1.3,0.1-2.7-1-2.9-2.2c-0.3-1.7,0.6-2.8,3-3.4c-0.7-0.5-1.4-0.9-2.1-1.3c0-0.1,0.1-0.1,0.1-0.2
			c0.5,0.3,1,0.6,1.5,0.9c0.3,0.1,0.6,0.1,0.9,0.2c0.1-0.1,0.3-0.3,0.4-0.4c-0.1-0.3-0.2-0.6-0.4-0.8c-2.3-1.5-4.7-3-7.1-4.4
			c-0.1-0.1-0.4,0-0.6-0.1c-0.2,0.4-0.5,0.8-0.7,1.1c0,0.4-0.1,0.7-0.1,1.1c0.2,1.5-0.7,3-2.2,3.3c-1.4,0.3-2.9-0.8-3.2-2.3
			c-0.3-1.4,0.8-2.8,2.3-3.1c0.6-0.1,1.1-0.2,0.6-0.9c0.3-0.1,0.6-0.2,1-0.4c0.2-0.4,0.1-0.7-0.3-1.1c-1.9-1.4-3.9-2.7-5.2-4.9
			c-0.4,0.2-0.7,0.4-1.1,0.6c0.4,0.6,0.7,1.2,1.1,1.7c-0.1,0-0.1,0.1-0.2,0.1c-0.4-0.5-0.8-1.1-1.1-1.6c-1.1,2.2-2.3,3-3.8,2.4
			c-1.2-0.4-2.2-1.9-1.8-3.1c0.2-0.6,0.6-1.3,1.1-1.7c1-0.9,2.2-0.6,3.4-0.1c-0.1-0.6-0.2-1.1-0.3-1.5c0.1,0,0.1,0,0.1,0
			c0.1,0.4,0.3,0.7,0.4,1.1c0.4,0,0.7-0.1,1-0.1h0.1c-0.2-1.8-0.5-3.7-0.7-5.5c-0.1-0.7,0-1.5,0-2.2h-1.4v1.7c-0.1,0-0.1,0-0.2,0
			c-0.1-0.5-0.1-1-0.2-1.5c-1.8,1.4-3.2,1.5-4.3,0.3c-1-1-1.1-2.5-0.2-3.6c0.4-0.4,1-0.8,1.5-1c1.2-0.3,2.2,0.3,3.1,1.3
			c0.1-0.7,0.1-1.2,0.2-1.6c0.1,0,0.1,0,0.2,0c0,0.5-0.1,0.9-0.1,1.5c0.5,0,0.9-0.1,1.5-0.1v-8.4h-1.2v1.9c-0.1,0-0.1,0-0.2,0
			c-0.1-0.7-0.1-1.3-0.2-2.1c-0.5,0.3-0.7,0.6-1,0.8l0,0c-0.7,0.8-1.7,1.1-2.7,0.7c-1.1-0.4-2-1.7-1.9-2.8c0.1-1.1,1-2.3,2.1-2.5
			c1.1-0.3,2.1,0.1,2.7,1l0,0c0.2,0.1,0.5,0.2,0.8,0.3c0-0.5,0-0.9,0.1-1.3h0.1c0,0.4,0.1,0.8,0.2,1.3c0.5,0,0.9,0,1.3-0.1
			c0.1-1.4-0.6-2.3-1.6-3c-1.6-1.4-3.6-2.2-5.7-2.2c-5.9,0-11.8,0.7-17.7,1.9c-3.9,0.8-7.8,1.6-11.9,1.2c-1.4-0.1-2.8,1-3,2.3
			c-0.2,1.4,0,2.8,0,4.3h2c0.7-1.9,1.8-2.7,3.4-2.5c1.3,0.2,2.4,1.3,2.5,2.7c0,4.6,0,9.1,0,13.7c0,1.3-0.8,2.1-1.9,2.6
			c-1,0.5-2.1,0.2-2.8-0.5c-0.5-0.5-0.8-1.2-1.3-1.9h-1.5c-0.1,2.9-0.2,5.6-0.3,8.5c0.7,0.1,1.4,0.1,1.9,0.2
			c0.5-0.6,0.8-1.2,1.3-1.6c0.9-0.7,2-0.9,3-0.2c1.2,0.7,1.7,1.8,1.5,3.2c-0.3,2.7-0.6,5.5-0.9,8.3c-0.2,1.7-0.3,3.3-0.6,5
			c-0.2,1.4-1.4,2.2-2.8,2.3c-1.1,0.1-2.3-0.8-2.8-1.9c-0.5-1.3-0.8-1.4-2.1-1.1c-0.5,2.9-1,5.8-1.5,8.7c1.9,0.3,3.8,0.5,5.7,0.9
			c10.5,2,16.5,8.3,18.4,18.4c0.5,2.5,0.4,2.5,3,2.5c0.5,0,0.9-0.2,1.3-0.2c0.4,0.1,0.9,0.2,1.4,0.3c0.2-2.7,1.5-4.5,3.4-6
			c1.5-1.1,3.1-2.2,4.8-3c8.5-4.1,17.5-5.9,26.9-6.1c4.6-0.1,9.2-0.2,13.8-0.2c3.1,0,5.7-1.1,7.9-3.3
			C762.3,1101.5,762.9,1100.9,762.2,1100.5z M758.1,1100c0-0.1,0.1-0.2,0.1-0.2c0.9,0.5,1.7,0.9,2.7,1.4c0-0.3,0.1-0.4,0.1-0.6
			c0.1,0,0.1,0,0.2,0c0.1,0.3,0.2,0.6,0.4,1.2C760.2,1101.1,759.1,1100.6,758.1,1100z"/>
		<path class="st22" d="M715.4,1051.5c-0.1,0.3-0.1,0.5-0.2,0.7c-0.2,0.1-0.4,0.2-0.6,0.3c-1.4,0.7-2.8,0.2-3.4-1.2
			c-0.6-1.2,0-2.6,1.3-3.2c1.1-0.5,2,0,2.9,0.6c-0.4,0-0.8,0.1-1.2,0c-0.9-0.3-1.7-0.1-2.2,0.6c-0.5,0.7-0.5,1.5,0,2.1
			c0.6,0.7,1.4,0.9,2.3,0.5C714.6,1051.8,715,1051.7,715.4,1051.5z"/>
		<path class="st24" d="M715.3,1052.2L715.3,1052.2C715.2,1052.3,715.2,1052.3,715.3,1052.2C715.2,1052.2,715.2,1052.2,715.3,1052.2
			C715.2,1052.2,715.2,1052.2,715.3,1052.2z"/>
		<path class="st24" d="M715.5,1048.7C715.4,1048.7,715.4,1048.7,715.5,1048.7C715.4,1048.6,715.4,1048.6,715.5,1048.7L715.5,1048.7
			L715.5,1048.7z"/>
		<path class="st22" d="M712.3,1060.4c-0.8,0.5-0.8,1.2-0.5,1.9c0.8,1.9,2.3,0.9,3.7,0.6c-0.8,1.1-1.6,1.5-2.7,1.2
			c-1-0.3-1.8-1.2-1.8-2.2c-0.1-1.1,0.5-2,1.6-2.5c1-0.4,1.9-0.1,2.7,0.8C714.3,1060.3,713.1,1059.2,712.3,1060.4L712.3,1060.4z"/>
		<path class="st22" d="M716.4,1074.7c0.3-0.2,0.6-0.5,1-0.8c-0.3,1.6-1.6,2.4-2.9,2.1c-1.4-0.4-2.2-1.8-1.8-3.1
			c0.4-1.2,1.9-2.3,3.6-1.3c-0.6,0.1-0.9,0.2-1.3,0.2c-0.9,0.1-1.5,0.6-1.7,1.5c-0.1,0.9,0.2,1.5,0.9,1.9
			C715.1,1075.5,715.9,1075.5,716.4,1074.7L716.4,1074.7z"/>
		<path class="st22" d="M713.1,1051.2c0.2,0.2,0.3,0.5,0.4,0.6c-0.9,0.1-1.6-0.4-1.6-1.3c-0.1-0.8,0.5-1.5,1.6-1.6
			c-0.3,0.4-0.7,0.7-0.7,1.1C712.7,1050.4,713,1050.8,713.1,1051.2L713.1,1051.2z"/>
		<path class="st22" d="M716.4,1074.7c-0.1,0-0.3,0-0.4,0.1c-1,0.5-1.8,0.3-2.3-0.5c-0.5-0.8-0.2-1.5,0.9-2.2
			c-0.1,0.3-0.2,0.5-0.3,0.6c-0.4,1,0.1,1.9,1.1,2C715.8,1074.7,716.1,1074.7,716.4,1074.7L716.4,1074.7z"/>
		<path class="st22" d="M712.2,1060.4c0.4-0.1,0.8-0.2,1.3-0.3c-1.3,1.3-1.2,2,0.2,3c-1.5,0.1-2.2-0.9-1.6-2.2
			C712.2,1060.7,712.2,1060.6,712.2,1060.4C712.3,1060.4,712.2,1060.4,712.2,1060.4z"/>
		<path class="st17" d="M684.1,1067.4c-0.7,1.2-1.5,1.1-2.2,0C682.7,1067.4,683.4,1067.4,684.1,1067.4z"/>
		<path class="st17" d="M680.6,1090.3c0.7,0.1,1.3,0.1,2,0.2c0,0.1,0,0.2,0.1,0.4c-0.4,0.1-0.8,0.4-1.1,0.4
			c-0.4-0.1-0.7-0.4-1.1-0.7C680.5,1090.5,680.5,1090.4,680.6,1090.3z"/>
		<path class="st17" d="M682.1,1053.4c0.7-1,1.2-1,1.9,0C683.4,1053.4,682.8,1053.4,682.1,1053.4z"/>
		<path class="st17" d="M682,1076.4c0.9-0.9,1.3-0.9,2.2,0.1C683.4,1076.5,682.8,1076.4,682,1076.4z"/>
		<path class="st20" d="M726.5,1081.3c-0.4,0.5-0.9,1-1.3,1.5c-0.5,0.6-1,1.1-1.7,0.6s-0.6-1.2-0.1-1.8c0.1-0.2,0.3-0.5,0.4-0.7l0,0
			l0,0c0.4-0.6,0.8-1.3,1.3-1.9l0,0l0,0c-0.3,0.1-0.6,0.3-1,0.4c0.5,0.7,0,0.8-0.6,0.9c-1.5,0.3-2.6,1.7-2.3,3.1
			c0.3,1.5,1.8,2.6,3.2,2.3c1.5-0.3,2.5-1.8,2.2-3.3C726.4,1082,726.5,1081.6,726.5,1081.3z M724.5,1085.3c-1.3,0.4-2.8-0.4-3.2-1.7
			c-0.3-1.3,0.5-2.7,1.8-3c0,0,0,0,0.1,0c0,0,0,0,0.1,0c0,0,0.1,0,0.1,0.1c0,0,0,0,0.1,0c0.1,0.1,0.2,0.1,0.2,0.2
			c-0.3,0.2-0.7,0.5-1,0.7c0,0.1,0.1,0.3,0.1,0.4c0.1,1.8,0.7,2.2,2.4,1.6c-0.5,0.9-1.2,1.1-2,0.8c-0.8-0.3-1.1-1.2-0.8-2l0.3-0.7
			c-0.1,0-0.1,0.1-0.2,0.1c-0.2,0.2-0.4,0.4-0.5,0.7c0,0,0,0,0,0.1v0.1c0,0,0,0,0,0.1c0,0.3,0,0.7,0.2,1c0.3,0.8,1,1.1,1.9,1
			c0.9-0.1,1.4-0.7,1.6-1.6c0-0.3,0.2-0.6,0.4-1.1C726.5,1083.6,725.8,1084.9,724.5,1085.3z"/>
		<path class="st20" d="M736.1,1083.9c-0.3,0.5-0.6,1-0.9,1.5c-0.1-0.3-0.2-0.6-0.4-0.8c-2.3-1.5-4.7-3-7.1-4.4
			c-0.1-0.1-0.4,0-0.6-0.1c0.1-0.3,0.3-0.6,0.4-0.9c0.2,0.3,0.4,0.6,0.7,0.7c2.2,1.4,4.3,2.7,6.5,4.1
			C735.4,1084.5,735.8,1084.4,736.1,1083.9z"/>
		<path class="st20" d="M737.6,1086.3L737.6,1086.3L737.6,1086.3L737.6,1086.3c-0.2,0.1-0.3,0.1-0.4,0.3c-0.6,0.9-1.2,1.8-1.8,2.7
			c-0.4,0.5-1,0.7-1.6,0.3s-0.6-1-0.3-1.6c0.2-0.3,0.3-0.6,0.5-0.9l0,0l0,0c0.3-0.5,0.5-0.9,0.8-1.3c-0.3-0.1-0.7-0.1-0.9-0.2
			c-0.5-0.3-1-0.6-1.5-0.9c0,0.1-0.1,0.1-0.1,0.2c0.7,0.4,1.4,0.9,2.1,1.3c-2.4,0.6-3.3,1.7-3,3.4c0.2,1.3,1.6,2.4,2.9,2.2
			c1.8-0.2,2.4-1.3,2.5-4.2c0.3,0.1,0.6,0.2,0.8,0.3C736.5,1087.4,737.6,1086.9,737.6,1086.3z M735.5,1090c-0.4,0.2-0.9,0.7-1.3,0.6
			c-0.5,0-1.1-0.4-1.3-0.8c-0.2-0.4-0.1-1.1-0.1-1.6c0.1,0,0.2,0,0.3,0C733.2,1090,733.8,1090.4,735.5,1090z M734.9,1091.5
			c-1.2,0.4-2.7-0.3-3.1-1.6c-0.4-1.2,0.3-2.6,1.5-3.1c0.1,0,0.1,0,0.2,0c0,0,0.1,0,0.1,0.1c0.1,0,0.1,0.1,0.2,0.1
			c0,0,0.1,0,0.1,0.1c0.1,0,0.1,0.1,0.2,0.1c-0.3,0.2-0.6,0.3-0.8,0.5c-0.8,0.5-1.1,1.2-0.8,2.1c0.3,0.8,0.9,1.3,1.8,1.2
			c0.9,0,1.5-0.5,1.7-1.4c0.1-0.4,0.2-0.8,0.4-1.3C736.8,1089.8,736.2,1091.1,734.9,1091.5z"/>
		<path class="st21" d="M749.8,1089.5c-0.3,0.5-0.6,0.9-0.9,1.4c-0.1,0.1-0.2,0.2-0.3,0.3c-0.3,0.5-0.6,1-1,1.6
			c-0.1,0.1-0.2,0.2-0.4,0.4c-0.5,0.8-1.1,1.5-1.6,2.3c-0.2,0-0.5,0.1-0.7,0.1s-0.5,0.1-0.7,0.1l0,0l0,0l0,0
			c-0.1-0.1-0.2-0.3-0.3-0.4l0,0c-0.3-0.5-0.2-1,0.2-1.6c0.2-0.3,0.3-0.6,0.4-0.9c0-0.1,0.1-0.1,0.1-0.2c0.2-0.3,0.4-0.5,0.6-0.8
			c0.9-1.4,1.8-2.7,2.7-4.1c0,0,0,0,0-0.1l0,0c0.6,0,1.2-0.1,1.7,0.1C750.5,1088.2,750,1088.9,749.8,1089.5z"/>
		<path class="st22" d="M746.2,1096.9c-0.8,0.7-1.7,0.8-2.6,0.4c-1-0.5-1.6-1.5-1.5-2.5c0-0.3,0.1-0.7,0.1-1
			c0.7-0.7,1.3-1.5,2.4-1.3c0,0.1-0.1,0.1-0.1,0.2c-0.3,0.2-0.6,0.5-0.9,0.7c-0.8,0.5-1.1,1.2-0.8,2.2c0.3,0.8,0.9,1.2,1.8,1.2
			c1,0,1.5-0.6,1.8-1.5c0.1-0.3,0.2-0.7,0.4-1.2C747.2,1095.3,747,1096.2,746.2,1096.9z"/>
		<path d="M744.2,1095.6c-0.1-0.1-0.2-0.3-0.3-0.4C744,1095.4,744.1,1095.5,744.2,1095.6z"/>
		<path class="st20" d="M747.3,1095.3c0,1-0.9,2.1-1.9,2.4c-1.1,0.3-2.2,0-2.9-0.9c-0.8-1-0.8-1.9-0.2-3c0,0.3-0.1,0.7-0.1,1
			c-0.1,1,0.5,2,1.5,2.5s1.8,0.3,2.6-0.4c0.8-0.7,1-1.6,0.6-2.7c-0.2,0.5-0.3,0.8-0.4,1.2c-0.3,0.9-0.8,1.5-1.8,1.5
			c-0.9,0-1.5-0.4-1.8-1.2c-0.3-0.9,0-1.6,0.8-2.2c0.3-0.2,0.6-0.5,0.9-0.7c-0.1,0.3-0.2,0.6-0.4,0.9c-0.4,0.6-0.5,1.1-0.2,1.6
			c-0.1-0.1-0.1-0.2-0.2-0.2c-0.1-0.1-0.1-0.2-0.2-0.2c-0.1-0.2-0.2-0.3-0.3-0.5c-0.4,0.8-0.3,1.6,0.5,2c0.7,0.4,1.6,0.2,2-0.4
			c0.1-0.1-0.1-0.3-0.1-0.5c0.5-0.8,1.1-1.5,1.6-2.3C747.3,1093.9,747.3,1094.6,747.3,1095.3z"/>
		<path d="M757,1100.2L757,1100.2L757,1100.2z"/>
		<path class="st20" d="M757.8,1100.7c-0.1,0.7-0.4,1.4-0.7,2c-0.2,0.4-0.4,0.9-0.7,1c-0.6,0.2-1.3,0.3-1.8,0.1
			c-1.1-0.5-2.2-1.3-2.2-2.8c-0.1-1.1,0.7-2.2,2-2.7c0.4-0.2,0.9-0.3,1.3-0.4l0,0l0,0c-0.3,0.4-0.6,0.9-0.8,1.3h-0.1
			c0-0.2,0.1-0.4,0.2-0.6c-1.5,0.1-2.4,1.2-2.3,2.7c0.1,1.3,1.5,2.3,2.9,2.1c1.3-0.2,2.3-1.6,2-2.9l0,0l0,0l0,0l0,0
			c-0.1-0.1-0.2-0.1-0.3-0.2c0.3-0.5,0.6-0.9,0.8-1.4C757.8,1099.5,757.9,1100.1,757.8,1100.7z"/>
		<path class="st20" d="M711.2,1051.3c0.7,1.4,2.1,1.9,3.4,1.2c0.2-0.1,0.4-0.2,0.6-0.3l0,0l0,0c-0.7,0.8-1.7,1.1-2.7,0.7
			c-1.1-0.4-2-1.7-1.9-2.8c0.1-1.1,1-2.3,2.1-2.5c1.1-0.3,2.1,0.1,2.7,1l0,0c0,0,0,0-0.1,0c-0.9-0.6-1.8-1.1-2.9-0.6
			C711.2,1048.7,710.6,1050.1,711.2,1051.3z"/>
		<path class="st20" d="M761.5,1101.8c-1.3-0.7-2.4-1.3-3.4-1.8c0-0.1,0.1-0.2,0.1-0.2c0.9,0.5,1.7,0.9,2.7,1.4
			c0-0.3,0.1-0.4,0.1-0.6c0.1,0,0.1,0,0.2,0C761.2,1100.9,761.3,1101.2,761.5,1101.8z"/>
		<path class="st20" d="M754.7,1099.2c-0.1,0.2-0.4,0.5-0.3,0.7c0,0.5,0.1,1.2,0.4,1.4c0.3,0.2,1,0,1.4-0.3c0.3-0.2,0.5-0.6,0.8-0.9
			l0,0c-0.1,0.3-0.1,0.5-0.2,0.8c-0.2,1.2-0.8,1.8-1.9,1.7c-0.9,0-1.5-0.5-1.7-1.4C753,1100.3,753.5,1099.6,754.7,1099.2
			L754.7,1099.2z M756.2,1101.8c-2.1,0.2-2.1-0.6-2.3-1.9c-0.6,0.9-0.5,1.8,0.2,2.3C754.9,1102.7,755.5,1102.5,756.2,1101.8z"/>
		<path class="st22" d="M722.7,1081.5c-0.8,0.5-0.9,1.3-0.6,2.1c0.3,0.8,1,1.1,1.9,1s1.4-0.7,1.6-1.6c0-0.3,0.2-0.6,0.4-1.1
			c0.5,1.5-0.1,2.8-1.4,3.3c-1.3,0.4-2.8-0.4-3.2-1.7c-0.3-1.3,0.5-2.7,1.8-3c0.1,0,0.3,0.2,0.5,0.3l0,0
			C723.4,1081.1,723,1081.3,722.7,1081.5L722.7,1081.5z"/>
		<path class="st22" d="M722.7,1081.5c0,0.1,0.1,0.3,0.1,0.4c0.1,1.8,0.7,2.2,2.4,1.6c-0.5,0.9-1.2,1.1-2,0.8
			c-0.8-0.3-1.1-1.2-0.8-2C722.5,1082,722.6,1081.8,722.7,1081.5L722.7,1081.5z"/>
		<path class="st22" d="M734.1,1087.1c-0.3,0.2-0.6,0.3-0.9,0.5c-0.8,0.5-1.1,1.2-0.8,2.1c0.3,0.8,0.9,1.3,1.8,1.2
			c0.9,0,1.5-0.5,1.7-1.4c0.1-0.4,0.2-0.8,0.4-1.3c0.5,1.6-0.1,2.8-1.4,3.3c-1.2,0.4-2.7-0.3-3.1-1.6c-0.4-1.2,0.3-2.6,1.5-3.1
			C733.5,1086.8,733.8,1087,734.1,1087.1C734,1087.1,734.1,1087.1,734.1,1087.1z"/>
		<path class="st22" d="M733,1088.2c0.2,1.7,0.8,2.1,2.5,1.8c-0.4,0.2-0.9,0.7-1.3,0.6c-0.5,0-1.1-0.4-1.3-0.8
			c-0.2-0.4-0.1-1.1-0.1-1.6C732.8,1088.2,732.9,1088.2,733,1088.2z"/>
		<path class="st22" d="M745.7,1095.4c0,0.2,0.2,0.4,0.1,0.5c-0.4,0.7-1.3,0.8-2,0.4c-0.8-0.5-0.9-1.2-0.5-2
			c0.3,0.4,0.6,0.9,0.9,1.3C744.7,1095.6,745.2,1095.5,745.7,1095.4z"/>
		<path class="st22" d="M754.7,1099.1c-1.2,0.5-1.7,1.2-1.4,2.2c0.2,0.9,0.8,1.4,1.7,1.4c1,0,1.6-0.5,1.9-1.7
			c0.1-0.3,0.1-0.5,0.2-0.8c0.1,0.1,0.4,0.1,0.4,0.3c0.3,1.2-0.7,2.7-2,2.9s-2.8-0.8-2.9-2.1c-0.2-1.5,0.8-2.6,2.3-2.7
			C754.8,1098.7,754.7,1098.9,754.7,1099.1z"/>
		<path class="st22" d="M756.2,1101.8c-0.6,0.8-1.3,0.9-2,0.4s-0.8-1.3-0.2-2.3C754,1101.2,754,1102,756.2,1101.8z"/>
	</g>
	<g>
		<path class="st17" d="M669.2,1114.6c0,1.8,0,3.5,0,5.3c-0.4,0-0.7,0-1.1,0c-17.2,0-34.3,0.1-51.5-0.1c-2.4,0-4.8-0.8-7.1-1.5
			c-6.6-2.1-13.4-2.9-20.3-3.3c-1.5-0.1-3-0.2-4.6-0.3c0,1.7,0,3.3,0,5c-13.3,0-26.5,0-39.7,0c0-3.1,0-6.2,0-9.4
			c0.3,0,0.6-0.1,1-0.1c12.6,0,25.2,0,37.9,0c8.1,0,16,0.8,24,2.4c6.3,1.2,12.6,1.8,19,1.8c13.7,0,27.3,0,41,0
			C668.1,1114.6,668.6,1114.6,669.2,1114.6z"/>
		<path class="st17" d="M544.9,1110.1c0-0.4,0-0.7,0-1.1c0.4,0,0.8,0,1.2,0c12,0,24,0,36.1,0c9.1,0,18.1,0.9,27,2.6
			c5.7,1.1,11.5,1.5,17.3,1.5c13.1,0,26.3,0,39.4,0c1,0,2.1,0,3.2,0c0,0.4,0,0.7,0.1,1c-0.2,0.1-0.2,0.1-0.3,0.1c-0.2,0-0.4,0-0.5,0
			c-14.2,0-28.3,0-42.5,0c-6.6,0-13.1-0.7-19.6-2c-8.1-1.6-16.3-2.2-24.5-2.2c-11.8,0-23.6,0-35.3,0
			C546,1110.1,545.5,1110.1,544.9,1110.1z"/>
		<path class="st18" d="M544.2,1088.6c1,0,1.7,0,2.4,0v-0.1c-0.7-0.1-1.4-0.2-2.1-0.3c-0.1-0.1-0.1-0.2-0.2-0.2
			c0.3-0.2,0.5-0.6,0.8-0.6c5.5,0.5,10.9,1.4,15.6,4.6c4,2.7,6.5,6.5,7.9,11.1c0.5,1.8,0.8,3.7,1.3,5.5c-0.9,0.2-0.9,0.2-1.5-1.5
			c0,0.5,0.1,1,0.1,1.7c-0.5,0-0.9,0-1.3,0c-7,0-14,0-21,0c-1.6,0-1.6,0-1.9-1.6c-0.7-4.2-0.8-8.5-0.5-12.8
			C543.9,1092.4,544.1,1090.5,544.2,1088.6z"/>
		<path class="st19" d="M629.5,1085.4c0.2-0.2,0.5-0.4,0.7-0.7c1.8,0.9,3.6,1.8,5.6,2.6c4.5,1.8,9.3,2.5,14.2,3
			c2.7,0.3,5.5,0.4,8.2,0.9c6.2,1.1,11.1,7.6,10.5,13.3c-0.3,2.6-0.8,5.1-1.3,7.6c-0.1,0.6-0.4,0.8-1.1,0.8c-14.7,0-29.5,0-44.2-0.1
			c-5.7,0-11.4-1.1-17-2.1c-6-1.1-12-1.7-18-1.8c-3.3-0.1-6.6-0.1-9.9-0.1c-0.3,0-0.7,0-1.1,0c0.1-2.4,1.2-4.1,2.9-5.3
			c2.1-1.5,4.4-3,6.7-4c8.1-3.6,16.7-5.1,25.6-5.3c4.5-0.1,8.9-0.2,13.4-0.2c3.2,0,5.7-1.2,7.9-3.4c1.2-1.2,1.1-2-0.4-2.7
			c-0.8-0.4-1.6-0.8-2.4-1.3c-0.2-0.1-0.3-0.5-0.5-0.8C629.3,1085.6,629.4,1085.5,629.5,1085.4z"/>
		<path class="st18" d="M588.8,1039.8c0.9-0.1,1.5-0.1,2.3-0.1c0,2.8,0,5.6,0,8.5c-0.8,0-1.6,0-2.3,0
			C588.8,1045.4,588.8,1042.7,588.8,1039.8z"/>
		<path class="st18" d="M588.4,1051.1c1-0.1,1.8-0.1,2.6-0.2c0.1,1.2,0.2,2.3,0.3,3.4c0,0.1,0,0.3,0,0.4c0.1,0.8,0.6,1.8,0.3,2.2
			c-0.5,0.7-1.5,0.9-2.4,1.4C588.3,1056,588.6,1053.6,588.4,1051.1z"/>
		<path class="st18" d="M597,1064.5c-0.3,0.5-0.7,1-1.1,1.7c-2.1-1.5-4.3-2.8-5.6-5.2c0.9-0.5,1.8-0.9,2.5-1.2
			C594.2,1061.3,595.5,1062.8,597,1064.5z"/>
		<path class="st18" d="M586,1032.7c1.6-0.2,2.9-0.4,4.2-0.4c0.2,0,0.7,0.5,0.7,0.7c-0.2,0.7-0.4,1.7-0.9,2
			c-0.6,0.4-1.6,0.6-2.3-0.5C587.4,1033.8,586.7,1033.4,586,1032.7z"/>
		<path class="st18" d="M588.8,1036.1c-0.1-0.3-0.1-0.5-0.2-0.7c2-0.3,2.3-0.6,2.5-2.3c0.1-0.9-0.3-1.3-1.1-1.2
			c-1.1,0.1-2.3,0.3-3.4,0.4c-0.7,0.1-1.4,0-2.1,0c0-0.2,0-0.3,0-0.5c1.9-0.2,3.8-0.6,5.7-0.7c1.3-0.1,1.7,0.6,1.7,1.8
			C592,1035,591.1,1035.9,588.8,1036.1z"/>
		<path class="st18" d="M598.9,1066.4c0.2-0.2,0.4-0.3,0.6-0.5c2.6,1.6,5.1,3.2,7.7,4.9c-0.1,0.3-0.2,0.6-0.2,0.9
			c-0.1,0.1-0.2,0.3-0.4,0.4c-0.3,0.6-0.7,0.6-1.3,0.2c-2.1-1.4-4.3-2.7-6.5-4.1c-0.3-0.2-0.5-0.5-0.7-0.7
			C598.4,1067.1,598.6,1066.8,598.9,1066.4z"/>
		<path class="st18" d="M609.2,1072.7c0.3-0.1,0.6-0.3,0.8-0.2c2.5,1.5,5,3,7.5,4.5c-0.4,0.6-0.7,1.1-1.1,1.6
			c-2.5-1.5-5-2.9-7.5-4.4c-0.2-0.1-0.3-0.4-0.4-0.6C608.7,1073.4,609,1073.1,609.2,1072.7z"/>
		<path class="st18" d="M619,1079.4c0.1-0.1,0.2-0.2,0.3-0.3c0.2-0.2,0.4-0.3,0.6-0.5c2.6,1.5,5.2,3.1,7.8,4.6
			c-0.4,0.5-0.7,1-1.1,1.6c-1.1-0.6-2.1-1.2-3.2-1.8c-1.3-0.8-2.7-1.6-4-2.3C618.9,1080.3,618.8,1080,619,1079.4z"/>
		<path class="st20" d="M592.8,1049c0,0.1,0.1,0.2,0.1,0.4c0,0,0,0,0,0.1l0,0c0,0.1,0,0.1,0,0.2c0,0.6-0.5,1-1.6,1
			c-2.1,0.1-4.3,0.1-6.4,0.2c-0.8,0-1.5-0.1-1.6-1.1c0-0.9,0.7-1.1,1.4-1.2c2.2-0.1,4.5-0.2,6.7-0.2c0.1,0,0.3,0,0.4,0
			c0.1,0,0.2,0,0.3,0.1c0,0,0,0,0.1,0 M591.6,1048v-8.3c0.3-0.1,0.6-0.3,0.9-0.4c-2.5,0.1-4.9,0.2-7.4,0.2c-0.2,0-0.4,0-0.6,0h-0.1
			c-0.1,0-0.2,0-0.3,0l0,0c-0.1,0-0.2,0-0.3-0.1c-0.1,0-0.1,0-0.2,0l0,0l0,0c0.2,0.2,0.3,0.5,0.4,0.6c-0.9,0.1-1.6-0.4-1.6-1.3
			c-0.1-0.8,0.5-1.5,1.6-1.6c-0.3,0.4-0.7,0.7-0.7,1.1c0,0.1,0,0.1,0,0.2c0,0,0,0,0,0.1c0,0,0,0,0,0.1v0.1l0,0c0,0,0,0,0,0.1
			c0,0,0,0,0,0.1l0,0c0,0,0,0.1,0.1,0.1c0.1,0.1,0.1,0.3,0.2,0.4v0.1l0,0c-0.1-0.3-0.2-0.5-0.2-0.7v-0.1c-0.1-0.8,0.3-1.1,1.5-1.2
			c2.2-0.1,4.5-0.2,6.7-0.2c0.5,0,0.9,0.3,1.4,0.4c-0.4-0.3-0.9-0.6-1.5-1c0.1-0.4,0.2-1,0.5-1.5c0.9-1.9,0.6-3.3-0.8-4.3h-3
			c-2.1,0.4-4.1,1-6.3,0.8c-3.2-0.3-6.5,0-9.6,0.4c-4.6,0.6-9.2,1.6-13.8,2.2c-2.1,0.3-4.3,0.4-6.4,0.4c-2.3,0-3.9,1.3-4,3.6
			c0,1.1,0,2.2,0,3.5c-0.5,0-1.1,0.1-1.7,0.1v13.6c0.7,0,1.3,0.1,2,0.1c-0.1,2.8-0.2,5.5-0.4,8.3h-2c-0.1,1.6-0.3,3.2-0.4,4.9
			c-0.2,2.5-0.5,5.1-0.8,7.6c-0.1,1.3-0.2,1.3,1.1,1.4c0.2,0,0.4,0.1,0.8,0.2c-0.5,2.9-1,5.9-1.5,8.8c-0.5,0.1-0.7,0.1-1.1,0.1
			c-0.1,0.9-0.3,1.8-0.4,2.7c-0.2,1.4-0.3,2.8-0.4,4.2v8.8c0.1,0.9,0.2,1.7,0.4,2.6c0.7,3,0.9,6.1,0.8,9.2c-0.1,1.6,0,3.3,0,4.9v1.1
			h40.8v-4.9c0.5,0,0.9,0,1.3,0c2.5,0.2,5,0.4,7.6,0.6c5.2,0.4,10.2,1.3,15.2,2.8c2.3,0.7,4.7,1.5,7.1,1.5
			c17.4,0.1,34.9,0.1,52.3,0.1h1.1v-7.8h-2.2c0.1-0.5,0.3-0.8,0.4-1.1c0.9-3.3,1.7-6.8,0.9-10.2c-1.3-5.6-4.9-9.4-10.6-10.7
			c-2.6-0.6-5.4-0.6-8-0.9c-4.8-0.5-9.6-1.1-14.2-3c-1.9-0.8-3.7-1.7-5.6-2.6c1.1-2,1.1-2.2,0.2-2.9v0.1c0.6,0.7,0.5,1.3,0,2
			c-0.4,0.6-0.7,1.2-1.1,1.8c0.2-0.2,0.5-0.4,0.7-0.7c1.8,0.9,3.6,1.8,5.6,2.6c4.5,1.8,9.3,2.5,14.2,3c2.7,0.3,5.5,0.4,8.2,0.9
			c6.2,1.1,11.1,7.6,10.5,13.3c-0.3,2.6-0.8,5.1-1.3,7.6c-0.1,0.6-0.4,0.8-1.1,0.8c-14.7,0-29.5,0-44.2-0.1c-5.7,0-11.4-1.1-17-2.1
			c-5.9-1.1-12-1.7-18-1.8c-3.3-0.1-6.6-0.1-9.9-0.1c-0.3,0-0.7,0-1.1,0c0.1-2.4,1.2-4.1,2.9-5.3c2.1-1.5,4.4-3,6.7-4
			c8.1-3.6,16.7-5.1,25.6-5.3c4.5-0.1,8.9-0.2,13.4-0.2c3.2,0,5.7-1.2,7.9-3.4c1.2-1.2,1.1-2-0.4-2.7c-0.8-0.4-1.6-0.8-2.4-1.3
			c-0.2-0.1-0.3-0.5-0.5-0.8c-0.2,0.3-0.4,0.6-0.6,0.9c1.3,0.7,2.7,1.2,4,2c0.7,0.5,0.1,1.1-0.3,1.5c-2.2,2.2-4.8,3.3-7.9,3.3
			c-4.6,0-9.2,0.1-13.8,0.2c-9.4,0.2-18.4,2-26.9,6.1c-1.7,0.8-3.3,1.9-4.8,3c-1.9,1.4-3.2,3.3-3.4,6c-0.5-0.1-1-0.2-1.4-0.3
			c-0.4,0.1-0.9,0.2-1.3,0.2c-2.6,0-2.5,0-3-2.5c-1.9-10.1-8-16.4-18.4-18.4c-1.9-0.4-3.8-0.6-5.7-0.9c0.5-2.9,1-5.8,1.5-8.7
			c1.4-0.3,1.6-0.2,2.1,1.1c0.4,1.1,1.7,2,2.8,1.9c1.4-0.1,2.5-1,2.8-2.3c0.3-1.7,0.4-3.3,0.6-5c0.3-2.7,0.6-5.5,0.9-8.3
			c0.1-1.4-0.3-2.5-1.5-3.2c-1.1-0.6-2.1-0.5-3,0.2c-0.5,0.4-0.8,1-1.3,1.6c-0.5-0.1-1.2-0.1-1.9-0.2c0.1-2.9,0.2-5.6,0.3-8.5h1.5
			c0.4,0.7,0.8,1.4,1.3,1.9c0.8,0.7,1.8,1,2.8,0.5c1.1-0.5,1.9-1.3,1.9-2.6c0-4.6,0-9.1,0-13.7c0-1.4-1.1-2.6-2.5-2.7
			c-1.6-0.2-2.7,0.6-3.4,2.5h-2c0-1.5-0.1-2.9,0-4.3c0.1-1.4,1.6-2.4,3-2.3c4.1,0.4,8-0.4,11.9-1.2c5.8-1.2,11.7-1.9,17.7-1.9
			c2.1,0,4.1,0.8,5.7,2.2c0.9,0.7,1.6,1.6,1.6,3c-0.5,0-0.9,0-1.3,0.1c-0.1-0.5-0.1-0.9-0.2-1.3h-0.1c0,0.4,0,0.8-0.1,1.3
			c-0.3-0.1-0.6-0.2-0.8-0.3l0,0l0,0c-0.4,0-0.8,0.1-1.2,0c-0.9-0.3-1.7-0.1-2.2,0.6s-0.5,1.5,0,2.1c0.6,0.7,1.4,0.9,2.3,0.5
			c0.3-0.1,0.7-0.3,1.1-0.4c-0.1,0.3-0.1,0.5-0.2,0.7l0,0l0,0c0.3-0.2,0.6-0.4,1-0.8c0.1,0.8,0.1,1.4,0.2,2.1c0.1,0,0.1,0,0.2,0
			v-1.9h1.2v8.4c-0.6,0-1,0.1-1.5,0.1c0-0.6,0.1-1,0.1-1.5c-0.1,0-0.1,0-0.2,0c-0.1,0.5-0.1,0.9-0.2,1.6c-0.9-1-1.9-1.6-3.1-1.3
			c-0.6,0.2-1.2,0.5-1.5,1c-1,1.1-0.8,2.6,0.2,3.6c1.2,1.2,2.6,1.1,4.3-0.3c0.1,0.5,0.1,1,0.2,1.5c0.1,0,0.1,0,0.2,0v-1.7h1.4
			c0,0.7-0.1,1.4,0,2.2c0.2,1.8,0.5,3.7,0.7,5.5c1.1-0.5,2.1-1,3.2-1.5c0.7-0.3,1.4-0.4,1.8,0.4c0.4,0.8-0.1,1.2-0.8,1.6
			c-2,1-4.1,2-6.1,3c-0.7,0.3-1.4,0.4-1.7-0.3c-0.4-0.8,0-1.3,0.7-1.7c0.9-0.4,1.9-0.9,2.8-1.4c-0.3,0-0.6,0.1-1,0.1
			c-0.1-0.3-0.3-0.7-0.4-1.1c-0.1,0-0.1,0-0.1,0c0.1,0.4,0.2,0.8,0.3,1.5c-1.2-0.5-2.4-0.9-3.4,0.1c-0.5,0.5-0.9,1.1-1.1,1.7
			c-0.4,1.2,0.6,2.6,1.8,3.1c1.5,0.6,2.8-0.2,3.8-2.4c0.4,0.6,0.8,1.1,1.1,1.6c0.1,0,0.1-0.1,0.2-0.1c-0.3-0.5-0.7-1.1-1.1-1.7
			c0.4-0.2,0.7-0.4,1.1-0.6c1.3,2.2,3.3,3.5,5.2,4.9c0.5,0.3,0.5,0.6,0.3,1.1l0,0l0,0c0.9-1.2,1.7-2.4,2.6-3.6
			c-0.5,0.4-1,0.3-1.4-0.2c-1.1-1.2-2.2-2.5-3.2-3.6c1.2-1.6,0.9-2.3-0.7-2.9c-0.2-0.1-0.4-0.3-0.5-0.5c-0.3-1.8-0.5-3.6-0.8-5.3
			c0.2,0.1,0.3,0.1,0.5,0.2c0.4-0.5,1-0.8,1.3-1.4 M585,1064.1c-1.4-0.4-2.2-1.8-1.8-3.1c0.4-1.2,1.9-2.3,3.6-1.3
			c-0.6,0.1-0.9,0.2-1.3,0.2c-0.9,0.1-1.5,0.6-1.7,1.5c-0.1,0.9,0.2,1.5,0.9,1.9c0.8,0.4,1.6,0.3,2.1-0.4c-0.1,0-0.3,0-0.4,0.1
			c-1,0.5-1.8,0.3-2.3-0.5s-0.2-1.5,0.9-2.2c-0.1,0.3-0.2,0.5-0.3,0.6c-0.4,1,0.1,1.9,1.1,2c0.3,0,0.6,0,0.9,0l0,0
			c0.3-0.2,0.6-0.5,1-0.8C587.6,1063.6,586.2,1064.5,585,1064.1z M597,1064.5c-0.3,0.5-0.7,1-1.1,1.7c-2.1-1.5-4.3-2.8-5.6-5.2
			c0.9-0.5,1.8-0.9,2.5-1.2C594.2,1061.3,595.5,1062.8,597,1064.5z M591,1050.9c0.1,1.2,0.2,2.3,0.3,3.4c0,0.1,0,0.3,0,0.4
			c0.1,0.8,0.6,1.8,0.3,2.2c-0.5,0.7-1.5,0.9-2.4,1.4c-1-2.4-0.7-4.8-0.9-7.3C589.3,1051,590.2,1051,591,1050.9z M583.5,1048
			L583.5,1048L583.5,1048h-0.2c-0.2,0.1-0.4,0.2-0.6,0.5l0,0l0,0l0,0c0.2-0.1,0.5-0.1,0.7-0.2c0.1,0,0.2-0.1,0.3-0.1s0.1,0,0.2,0
			c-1.3,1.3-1.2,2,0.2,3c-1.5,0.1-2.2-0.9-1.6-2.2c0.1-0.1,0.1-0.3,0.1-0.4l0,0l0,0l0,0c-0.1,0.1-0.2,0.1-0.3,0.2c0,0,0,0-0.1,0.1
			l-0.1,0.1c0,0,0,0,0,0.1c0,0,0,0,0,0.1c0,0,0,0.1-0.1,0.1v0.1c0,0,0,0,0,0.1c0,0,0,0,0,0.1c-0.1,0.3,0,0.7,0.2,1
			c0.8,1.9,2.3,0.9,3.7,0.6c-0.8,1.1-1.6,1.5-2.7,1.2c-1-0.3-1.8-1.2-1.8-2.2c-0.1-1.1,0.5-2,1.6-2.5c1-0.4,1.9-0.1,2.7,0.8
			C585,1048.5,584.2,1047.9,583.5,1048z M588.8,1039.8c0.9-0.1,1.5-0.1,2.3-0.1v8.5h-2.3V1039.8z M587.8,1034.4
			c-0.4-0.6-1-1-1.8-1.7c1.6-0.2,2.9-0.4,4.2-0.4c0.2,0,0.7,0.5,0.7,0.7c-0.2,0.7-0.4,1.7-0.9,2
			C589.4,1035.2,588.4,1035.4,587.8,1034.4z M590.3,1031.2c1.3-0.1,1.7,0.6,1.7,1.8c0,2-0.9,2.9-3.2,3.1c-0.1-0.3-0.1-0.5-0.2-0.7
			c2-0.3,2.3-0.6,2.5-2.3c0.1-0.9-0.3-1.3-1.1-1.2c-1.1,0.1-2.3,0.3-3.4,0.4c-0.7,0.1-1.4,0-2.1,0c0-0.2,0-0.3,0-0.5
			C586.5,1031.6,588.4,1031.3,590.3,1031.2z M553.8,1062.5c1.2,0.3,2.2,1.4,2.1,2.7c-0.4,4.4-0.9,8.8-1.4,13.3
			c-0.2,1.5-1.3,2.4-2.7,2.3c-1.2-0.1-2.1-1.1-2.2-2.4c0.1-0.1,0.2-0.2,0.2-0.2c0.2,0.2,0.5,0.4,0.6,0.7c0.4,0.7,0.9,1.2,1.8,1
			c0.9-0.1,1.3-0.8,1.4-1.6c0.5-4.3,1-8.6,1.3-12.9c0-0.5-0.5-1.3-0.9-1.7c-0.6-0.5-1.2-0.2-1.8,0.3c-0.3,0.3-0.7,0.4-1.2,0.7
			C551.6,1063,552.7,1062.3,553.8,1062.5z M550.8,1078.7c0-0.1,0.1-0.2,0.1-0.3c0.7,0.1,1.3,0.1,2,0.2c0,0.1,0,0.3,0.1,0.4
			c-0.4,0.1-0.8,0.4-1.1,0.4C551.5,1079.3,551.2,1079,550.8,1078.7z M554.6,1064.7c-0.8,0-1.4-0.1-2.2-0.1
			C553.2,1063.6,553.6,1063.7,554.6,1064.7z M553.9,1039.6c1.2,0.2,2,1.2,2,2.7c0,4.3,0,8.6,0,12.9c0,1.4-0.9,2.5-2.2,2.7
			c-1.2,0.2-2.3-0.7-2.8-2.5c0.5,0.3,0.9,0.4,1,0.6c0.5,0.7,1.1,1.1,1.9,0.9c0.9-0.3,1.2-0.9,1.2-1.8c0-4.2,0-8.4,0-12.6
			c0-0.9-0.2-1.6-1.1-2c-0.8-0.3-1.5,0.1-2,0.8c-0.1,0.2-0.5,0.3-1,0.5C551.6,1040,552.6,1039.3,553.9,1039.6z M552.4,1055.6h2.2
			C553.8,1056.8,553,1056.8,552.4,1055.6z M554.4,1041.6h-1.9C553.2,1040.6,553.7,1040.6,554.4,1041.6z M546.8,1054.9v-12.8h7.8
			v12.8H546.8z M545.2,1077.2c0.4-4.3,0.8-8.5,1.2-12.8c2.7,0.3,5.4,0.6,8.1,0.9c-0.5,4.3-0.9,8.5-1.3,12.8
			C550.5,1077.7,547.9,1077.4,545.2,1077.2z M544.3,1107.1c-0.7-4.2-0.8-8.5-0.5-12.8c0.1-1.9,0.3-3.8,0.4-5.8h2.4v-0.1
			c-0.7-0.1-1.4-0.2-2.1-0.3c-0.1-0.1-0.1-0.2-0.2-0.3c0.3-0.2,0.5-0.6,0.8-0.6c5.5,0.5,10.9,1.4,15.6,4.6c4,2.7,6.5,6.5,7.9,11.1
			c0.5,1.8,0.9,3.7,1.3,5.5c-0.9,0.2-0.9,0.2-1.5-1.5c0,0.5,0.1,1,0.1,1.7h-22.2C544.6,1108.7,544.6,1108.7,544.3,1107.1z
			 M669.2,1119.9h-1.1c-17.2,0-34.3,0.1-51.5-0.1c-2.4,0-4.8-0.8-7.1-1.5c-6.6-2.1-13.4-2.9-20.3-3.3c-1.5-0.1-3-0.2-4.6-0.3v5
			h-39.7v-9.2c0.3,0,0.6-0.1,1-0.1c12.6,0,25.2,0,37.9,0c8.1,0,16,0.8,24,2.4c6.3,1.2,12.6,1.8,19,1.8c13.7,0,27.3,0,41,0h1.5v5.3
			H669.2z M668.9,1114.3c-0.2,0-0.4,0-0.5,0c-14.2,0-28.3,0-42.5,0c-6.6,0-13.1-0.7-19.6-2c-8.1-1.6-16.3-2.2-24.5-2.2
			c-11.8,0-23.6,0-35.3,0H545v-1.1h1.2c12,0,24,0,36.1,0c9.1,0,18.1,0.9,27,2.6c5.7,1.1,11.5,1.5,17.3,1.5c13.1,0,26.3,0,39.4,0h3.2
			c0,0.4,0,0.7,0.1,1C669,1114.2,669,1114.3,668.9,1114.3z"/>
		<path class="st21" d="M599.8,1064.9c-0.3,0.5-0.6,1-0.9,1.5c-0.3,0.3-0.5,0.7-0.8,1c-0.1,0.3-0.3,0.6-0.4,0.9
			c-0.2,0.4-0.5,0.8-0.7,1.1c-0.4,0.5-0.9,1-1.3,1.5c-0.5,0.6-1,1.1-1.7,0.6s-0.6-1.2-0.1-1.8c0.1-0.2,0.3-0.5,0.4-0.7l0,0l0,0l0,0
			l0,0c0.4-0.6,0.8-1.3,1.3-1.9l0,0l0,0c0.9-1.2,1.7-2.4,2.6-3.6c0.5,0,1.1-0.1,1.5,0.2C599.7,1063.8,599.7,1064.5,599.8,1064.9z"/>
		<path class="st21" d="M610.1,1071.2c-0.3,0.5-0.6,1-0.9,1.5c-0.2,0.3-0.5,0.6-0.7,1c-0.2,0.3-0.3,0.5-0.5,0.8
			c-0.1,0.1-0.3,0.2-0.3,0.3c-0.6,0.9-1.2,1.8-1.8,2.7c-0.4,0.5-1,0.7-1.6,0.3c-0.6-0.4-0.6-1-0.3-1.6c0.2-0.3,0.3-0.6,0.5-0.9l0,0
			l0,0l0,0c0.3-0.5,0.5-0.9,0.8-1.3c0.1-0.1,0.3-0.3,0.4-0.4c0.3-0.5,0.6-1,0.9-1.5c0.1-0.1,0.2-0.3,0.4-0.4c0.5-0.7,1-1.4,1.6-2
			C610,1069.5,610.5,1069.9,610.1,1071.2z"/>
		<path class="st21" d="M583.6,1039.4c-0.5-1.4-0.2-1.9,1.3-2c2.2-0.1,4.5-0.2,6.7-0.2c0.5,0,0.9,0.3,1.4,0.4
			c0.5,0.8,0.1,1.3-0.5,1.8c-2.5,0.1-4.9,0.2-7.4,0.2C584.5,1039.6,584,1039.4,583.6,1039.4L583.6,1039.4z"/>
		<path class="st20" d="M630.6,1081.4L630.6,1081.4c-1-0.2-1.5,0.2-2,1c-0.8,1.2-1.8,2.4-2.6,3.7l0,0l0,0c0.1-0.3,0.3-0.6,0.4-1
			c-2.5-1.4-4.9-2.9-7.3-4.2c-0.2-0.1-0.6,0.1-1,0.1c0.3-0.5,0.6-1,1-1.6c-0.3,0.6-0.1,0.9,0.5,1.2c1.4,0.7,2.7,1.5,4,2.3
			c1,0.6,2.1,1.2,3.2,1.8c0.4-0.6,0.7-1,1.1-1.6c-2.7-1.6-5.2-3.1-7.8-4.6c-0.2,0.2-0.4,0.3-0.6,0.5c0.3-0.5,0.6-0.9,0.9-1.4h0.1
			c0.1,0.3,0.1,0.6,0.3,0.7c2.4,1.5,4.9,2.9,7.3,4.3C628.8,1082.1,629,1080.4,630.6,1081.4z"/>
		<path class="st20" d="M615.8,1079.9c0.1-0.3,0.2-0.6,0.2-0.9c-1.8-1.1-3.6-2.1-5.4-3.2c-0.8-0.5-1.7-0.9-2.5-1.3l0,0l0,0
			c0.2-0.3,0.3-0.5,0.5-0.8c0.1,0.2,0.2,0.5,0.4,0.6c2.5,1.5,4.9,2.9,7.5,4.4c0.4-0.6,0.7-1.1,1.1-1.6c-2.5-1.5-5-3-7.5-4.5
			c-0.2-0.1-0.5,0.1-0.8,0.2c0.3-0.5,0.6-1,0.9-1.5c-0.2,0.6,0,0.9,0.6,1.3c2.3,1.3,4.6,2.8,6.9,4.2c0.3-0.3,0.6-0.6,0.9-0.8
			C617.6,1077.2,616.7,1078.5,615.8,1079.9z"/>
		<path d="M618.6,1075.8C618.5,1075.8,618.5,1075.8,618.6,1075.8C618.5,1075.8,618.5,1075.8,618.6,1075.8L618.6,1075.8z"/>
		<path class="st20" d="M608.5,1069.6c-0.5,0.7-1,1.4-1.6,2c0.1-0.3,0.2-0.6,0.2-0.9c-2.6-1.6-5.1-3.2-7.7-4.9
			c-0.2,0.1-0.4,0.3-0.6,0.5c0.3-0.5,0.6-1,0.9-1.5c0.2,0.3,0.2,0.8,0.5,1c2.4,1.6,4.8,3.1,7.1,4.5
			C607.8,1070.1,608.1,1069.9,608.5,1069.6z"/>
		<path class="st22" d="M618.6,1075.8c0.6-0.8,1.3-0.7,1.8-0.1c0.7,0.7,0.6,1.4-0.1,2.1h-0.1c0.2-0.6,0.7-1.3,0-1.8
			C619.8,1075.6,619.1,1075.8,618.6,1075.8L618.6,1075.8z"/>
		<path class="st23" d="M546.4,1064.3c2.7,0.3,5.4,0.6,8.1,0.9c-0.5,4.3-0.9,8.5-1.3,12.8c-2.7-0.3-5.3-0.6-8-0.8
			C545.6,1072.9,546,1068.7,546.4,1064.3z"/>
		<path class="st23" d="M554.6,1054.9c-2.6,0-5.1,0-7.8,0c0-4.3,0-8.5,0-12.8c2.5,0,5.1,0,7.8,0
			C554.6,1046.4,554.6,1050.6,554.6,1054.9z"/>
		<path class="st18" d="M549.8,1078.2c0.2,0.2,0.5,0.4,0.6,0.7c0.4,0.7,0.9,1.2,1.8,1c0.9-0.1,1.3-0.8,1.4-1.6
			c0.5-4.3,1-8.6,1.3-12.9c0-0.5-0.5-1.3-0.9-1.7c-0.6-0.5-1.2-0.2-1.8,0.3c-0.3,0.3-0.7,0.4-1.2,0.7c0.6-1.6,1.7-2.3,2.9-2.1
			c1.2,0.3,2.2,1.4,2.1,2.7c-0.5,4.4-0.9,8.8-1.4,13.3c-0.2,1.5-1.3,2.4-2.7,2.3c-1.2-0.1-2.1-1.1-2.2-2.4
			C549.7,1078.3,549.8,1078.2,549.8,1078.2z"/>
		<path class="st18" d="M551,1041.8c0.6-1.8,1.6-2.5,2.9-2.3c1.2,0.2,2,1.2,2,2.7c0,4.3,0,8.6,0,12.9c0,1.4-0.9,2.5-2.2,2.7
			c-1.2,0.2-2.3-0.7-2.8-2.5c0.5,0.3,0.9,0.4,1,0.6c0.5,0.7,1.1,1.1,1.9,0.9c0.9-0.3,1.2-0.9,1.2-1.8c0-4.2,0-8.4,0-12.6
			c0-0.9-0.2-1.6-1.1-2c-0.8-0.3-1.5,0.1-2,0.8C551.9,1041.5,551.5,1041.6,551,1041.8z"/>
		<path class="st21" d="M630.6,1083.5c-0.4,0.6-0.7,1.2-1.1,1.8c-0.1,0.1-0.2,0.2-0.3,0.3c-0.2,0.3-0.4,0.6-0.6,0.9
			c-0.1,0.1-0.2,0.2-0.4,0.4c-0.3,0.5-0.6,0.9-0.8,1.4l0,0l0,0l0,0c-0.3,0.3-0.5,0.7-0.8,0.8c-0.4,0.2-1.1,0.5-1.4,0.3
			c-0.3-0.2-0.3-0.9-0.4-1.4c0-0.2,0.2-0.5,0.3-0.7c0.3-0.4,0.6-0.9,0.8-1.3l0,0l0,0c0.9-1.2,1.8-2.4,2.6-3.7c0.5-0.7,1.1-1.2,2-0.9
			C631.1,1082.1,631.1,1082.8,630.6,1083.5z"/>
		<path class="st21" d="M591.5,1048.4l1.4,0.3c0.7,1.4,0.1,1.9-1.5,2c-2.1,0.1-4.3,0.1-6.4,0.2c-0.8,0-1.5-0.1-1.6-1.1
			c0-0.9,0.7-1.1,1.4-1.2c2.2-0.1,4.6-0.2,6.8-0.2"/>
		<path class="st21" d="M592.9,1059.3c-2,1-4.1,2-6.1,3c-0.7,0.3-1.4,0.4-1.7-0.3c-0.4-0.8,0-1.3,0.7-1.7c0.9-0.4,1.9-0.9,2.8-1.4
			h0.1c1.1-0.5,2.1-1,3.2-1.5c0.7-0.3,1.4-0.4,1.8,0.4C594.1,1058.6,593.6,1059,592.9,1059.3z"/>
		<path class="st17" d="M632.6,1088.6c-1.3-0.8-2.6-1.4-4-2c-0.1,0.1-0.2,0.2-0.4,0.4c0,0.6,0,1.3-0.1,1.9c-0.1,0.7-0.4,1.4-0.7,2
			c-0.2,0.4-0.4,0.9-0.7,1c-0.6,0.2-1.3,0.3-1.8,0.1c-1.1-0.5-2.2-1.3-2.2-2.8c-0.1-1.1,0.7-2.2,2-2.7c0.4-0.2,0.9-0.3,1.3-0.4
			c0.1-0.3,0.3-0.6,0.4-1c-2.5-1.4-4.9-2.9-7.3-4.2c-0.2-0.1-0.6,0.1-1,0.1c-0.1,0.1-0.2,0.2-0.4,0.4c0,0.7,0,1.4,0,2.1
			c0,1-0.9,2.1-1.9,2.4c-1.1,0.3-2.2,0-2.9-0.9c-0.8-1-0.8-1.9-0.2-3c0.7-0.7,1.3-1.5,2.4-1.3c0.2-0.3,0.4-0.5,0.6-0.8
			c0.1-0.3,0.2-0.6,0.2-0.9c-1.8-1.1-3.6-2.1-5.4-3.2c-0.8-0.5-1.7-0.9-2.5-1.3c0,0.5-1.2,1.1,0,1.6c-0.3-0.1-0.5-0.2-0.8-0.3
			c0,2.9-0.7,4-2.5,4.2c-1.3,0.1-2.7-1-2.9-2.2c-0.3-1.7,0.6-2.8,3-3.4c-0.7-0.5-1.4-0.9-2.1-1.3c0-0.1,0.1-0.1,0.1-0.2
			c0.5,0.3,1,0.6,1.5,0.9c0.3,0.1,0.6,0.1,0.9,0.2c0.1-0.1,0.3-0.3,0.4-0.4c-0.1-0.3-0.2-0.6-0.4-0.8c-2.3-1.5-4.7-3-7.1-4.4
			c-0.1-0.1-0.4,0-0.6-0.1c-0.2,0.4-0.5,0.8-0.7,1.1c0,0.4-0.1,0.7-0.1,1.1c0.2,1.5-0.7,3-2.2,3.3c-1.4,0.3-2.9-0.8-3.2-2.3
			c-0.3-1.4,0.8-2.8,2.3-3.1c0.6-0.1,1.1-0.2,0.6-0.9c0.3-0.1,0.6-0.2,1-0.4c0.2-0.4,0.1-0.7-0.3-1.1c-1.9-1.4-3.9-2.7-5.2-4.9
			c-0.4,0.2-0.7,0.4-1.1,0.6c0.4,0.6,0.7,1.2,1.1,1.7c-0.1,0-0.1,0.1-0.2,0.1c-0.4-0.5-0.8-1.1-1.1-1.6c-1.1,2.2-2.3,3-3.8,2.4
			c-1.2-0.4-2.2-1.9-1.8-3.1c0.2-0.6,0.6-1.3,1.1-1.7c1-0.9,2.2-0.6,3.4-0.1c-0.1-0.6-0.2-1.1-0.3-1.5c0.1,0,0.1,0,0.1,0
			c0.1,0.4,0.3,0.7,0.4,1.1c0.4,0,0.7-0.1,1-0.1h0.1c-0.2-1.8-0.5-3.7-0.7-5.5c-0.1-0.7,0-1.5,0-2.2h-1.4v1.7c-0.1,0-0.1,0-0.2,0
			c-0.1-0.5-0.1-1-0.2-1.5c-1.8,1.4-3.2,1.5-4.3,0.3c-1-1-1.1-2.5-0.2-3.6c0.4-0.4,1-0.8,1.5-1c1.2-0.3,2.2,0.3,3.1,1.3
			c0.1-0.7,0.1-1.2,0.2-1.6c0.1,0,0.1,0,0.2,0c0,0.5-0.1,0.9-0.1,1.5c0.5,0,0.9-0.1,1.5-0.1v-8.4h-0.9v1.9c-0.1,0-0.1,0-0.2,0
			c-0.1-0.7-0.1-1.3-0.2-2.1c-0.5,0.3-0.7,0.6-1,0.8l0,0c-0.7,0.8-1.7,1.1-2.7,0.7c-1.1-0.4-2-1.7-1.9-2.8c0.1-1.1,1-2.3,2.1-2.5
			c1.1-0.3,2.1,0.1,2.7,1l0,0c0.2,0.1,0.5,0.2,0.8,0.3c0-0.5,0-0.9,0.1-1.3h0.1c0,0.4,0.1,0.8,0.2,1.3c0.5,0,0.9,0,1.3-0.1
			c0.1-1.4-0.6-2.3-1.6-3c-1.6-1.4-3.6-2.2-5.7-2.2c-5.9,0-11.8,0.7-17.7,1.9c-3.9,0.8-7.8,1.6-11.9,1.2c-1.4-0.1-2.8,1-3,2.3
			c-0.2,1.4,0,2.8,0,4.3h2c0.7-1.9,1.8-2.7,3.4-2.5c1.3,0.2,2.4,1.3,2.5,2.7c0,4.6,0,9.1,0,13.7c0,1.3-0.8,2.1-1.9,2.6
			c-1,0.5-2.1,0.2-2.8-0.5c-0.5-0.5-0.8-1.2-1.3-1.9h-1.5c-0.1,2.9-0.2,5.6-0.3,8.5c0.7,0.1,1.4,0.1,1.9,0.2
			c0.5-0.6,0.8-1.2,1.3-1.6c0.9-0.7,2-0.9,3-0.2c1.2,0.7,1.7,1.8,1.5,3.2c-0.3,2.7-0.6,5.5-0.9,8.3c-0.2,1.7-0.3,3.3-0.6,5
			c-0.2,1.4-1.4,2.2-2.8,2.3c-1.1,0.1-2.3-0.8-2.8-1.9c-0.5-1.3-0.8-1.4-2.1-1.1c-0.5,2.9-1,5.8-1.5,8.7c1.9,0.3,3.8,0.5,5.7,0.9
			c10.5,2,16.5,8.3,18.4,18.4c0.5,2.5,0.4,2.5,3,2.5c0.5,0,0.9-0.2,1.3-0.2c0.4,0.1,0.9,0.2,1.4,0.3c0.2-2.7,1.5-4.5,3.4-6
			c1.5-1.1,3.1-2.2,4.8-3c8.5-4.1,17.5-5.9,26.9-6.1c4.6-0.1,9.2-0.2,13.8-0.2c3.1,0,5.7-1.1,7.9-3.3
			C632.7,1089.7,633.3,1089.1,632.6,1088.6z M628.5,1088.2c0-0.1,0.1-0.2,0.1-0.2c0.9,0.5,1.7,0.9,2.7,1.4c0-0.3,0.1-0.4,0.1-0.6
			c0.1,0,0.1,0,0.2,0c0.1,0.3,0.2,0.6,0.4,1.2C630.6,1089.3,629.5,1088.7,628.5,1088.2z"/>
		<path class="st22" d="M585.8,1039.7c-0.1,0.3-0.1,0.5-0.2,0.7c-0.2,0.1-0.4,0.2-0.6,0.3c-1.4,0.7-2.8,0.2-3.4-1.2
			c-0.6-1.2,0-2.6,1.3-3.2c1.1-0.5,2,0,2.9,0.6c-0.4,0-0.8,0.1-1.2,0c-0.9-0.3-1.7-0.1-2.2,0.6s-0.5,1.5,0,2.1
			c0.6,0.7,1.4,0.9,2.3,0.5C585,1040,585.4,1039.9,585.8,1039.7z"/>
		<path class="st24" d="M585.7,1040.4L585.7,1040.4C585.6,1040.4,585.6,1040.4,585.7,1040.4C585.6,1040.4,585.6,1040.4,585.7,1040.4
			L585.7,1040.4z"/>
		<path class="st24" d="M585.9,1036.9C585.9,1036.8,585.8,1036.8,585.9,1036.9C585.8,1036.8,585.8,1036.8,585.9,1036.9L585.9,1036.9
			L585.9,1036.9z"/>
		<path class="st22" d="M582.7,1048.6c-0.8,0.5-0.8,1.2-0.5,1.9c0.8,1.9,2.3,0.9,3.7,0.6c-0.8,1.1-1.6,1.5-2.7,1.2
			c-1-0.3-1.8-1.2-1.8-2.2c-0.1-1.1,0.5-2,1.6-2.5c1-0.4,1.9-0.1,2.7,0.8C584.7,1048.5,583.5,1047.3,582.7,1048.6L582.7,1048.6z"/>
		<path class="st22" d="M586.8,1062.8c0.3-0.2,0.6-0.5,1-0.8c-0.3,1.6-1.6,2.4-2.9,2.1c-1.4-0.4-2.2-1.8-1.8-3.1
			c0.4-1.2,1.9-2.3,3.6-1.3c-0.6,0.1-0.9,0.2-1.3,0.2c-0.9,0.1-1.5,0.6-1.7,1.5c-0.1,0.9,0.2,1.5,0.9,1.9
			C585.5,1063.7,586.3,1063.6,586.8,1062.8L586.8,1062.8z"/>
		<path class="st22" d="M583.5,1039.3c0.2,0.2,0.3,0.5,0.4,0.6c-0.9,0.1-1.6-0.4-1.6-1.3c-0.1-0.8,0.5-1.5,1.6-1.6
			c-0.3,0.4-0.7,0.7-0.7,1.1C583.1,1038.5,583.4,1039,583.5,1039.3C583.6,1039.4,583.5,1039.3,583.5,1039.3z"/>
		<path class="st22" d="M586.9,1062.8c-0.1,0-0.3,0-0.4,0.1c-1,0.5-1.8,0.3-2.3-0.5c-0.5-0.8-0.2-1.5,0.9-2.2
			c-0.1,0.3-0.2,0.5-0.3,0.6c-0.4,1,0.1,1.9,1.1,2C586.2,1062.9,586.5,1062.8,586.9,1062.8C586.8,1062.8,586.9,1062.8,586.9,1062.8z
			"/>
		<path class="st22" d="M582.7,1048.6c0.4-0.1,0.8-0.2,1.3-0.3c-1.3,1.3-1.2,2,0.2,3c-1.5,0.1-2.2-0.9-1.6-2.2
			C582.6,1048.9,582.6,1048.7,582.7,1048.6L582.7,1048.6z"/>
		<path class="st17" d="M554.6,1055.6c-0.7,1.2-1.5,1.1-2.2,0C553.1,1055.6,553.8,1055.6,554.6,1055.6z"/>
		<path class="st17" d="M551,1078.4c0.7,0.1,1.3,0.1,2,0.2c0,0.1,0,0.2,0.1,0.4c-0.4,0.1-0.8,0.4-1.1,0.4c-0.4-0.1-0.7-0.4-1.1-0.7
			C550.9,1078.6,550.9,1078.5,551,1078.4z"/>
		<path class="st17" d="M552.5,1041.6c0.7-1,1.2-1,1.9,0C553.8,1041.6,553.2,1041.6,552.5,1041.6z"/>
		<path class="st17" d="M552.4,1064.6c0.9-0.9,1.3-0.9,2.2,0.1C553.8,1064.6,553.2,1064.6,552.4,1064.6z"/>
		<path class="st20" d="M597,1069.4c-0.4,0.5-0.9,1-1.3,1.5c-0.5,0.6-1,1.1-1.7,0.6s-0.6-1.2-0.1-1.8c0.1-0.2,0.3-0.5,0.4-0.7l0,0
			l0,0c0.4-0.6,0.8-1.3,1.3-1.9l0,0l0,0c-0.3,0.1-0.6,0.3-1,0.4c0.5,0.7,0,0.8-0.6,0.9c-1.5,0.3-2.6,1.7-2.3,3.1
			c0.3,1.5,1.8,2.6,3.2,2.3c1.5-0.3,2.5-1.8,2.2-3.3C596.8,1070.2,596.9,1069.8,597,1069.4z M595,1073.4c-1.3,0.4-2.8-0.4-3.2-1.7
			c-0.3-1.3,0.5-2.7,1.8-3c0,0,0,0,0.1,0s0,0,0.1,0c0,0,0.1,0,0.1,0.1c0,0,0,0,0.1,0c0.1,0.1,0.2,0.1,0.2,0.2
			c-0.3,0.2-0.7,0.5-1,0.7c0,0.1,0.1,0.3,0.1,0.4c0.1,1.8,0.7,2.2,2.4,1.6c-0.5,0.9-1.2,1.1-2,0.8s-1.1-1.2-0.8-2l0.3-0.7
			c-0.1,0-0.1,0.1-0.2,0.1c-0.2,0.2-0.4,0.4-0.5,0.7c0,0,0,0,0,0.1v0.1c0,0,0,0,0,0.1c0,0.3,0,0.7,0.2,1c0.3,0.8,1,1.1,1.9,1
			s1.4-0.7,1.6-1.6c0-0.3,0.2-0.6,0.4-1.1C596.9,1071.7,596.2,1073,595,1073.4z"/>
		<path class="st20" d="M606.5,1072.1c-0.3,0.5-0.6,1-0.9,1.5c-0.1-0.3-0.2-0.6-0.4-0.8c-2.3-1.5-4.7-3-7.1-4.4
			c-0.1-0.1-0.4,0-0.6-0.1c0.1-0.3,0.3-0.6,0.4-0.9c0.2,0.3,0.4,0.6,0.7,0.7c2.2,1.4,4.3,2.7,6.5,4.1
			C605.8,1072.6,606.2,1072.6,606.5,1072.1z"/>
		<path class="st20" d="M608,1074.5L608,1074.5L608,1074.5L608,1074.5c-0.2,0.1-0.3,0.1-0.4,0.3c-0.6,0.9-1.2,1.8-1.8,2.7
			c-0.4,0.5-1,0.7-1.6,0.3c-0.6-0.4-0.6-1-0.3-1.6c0.2-0.3,0.3-0.6,0.5-0.9l0,0l0,0c0.3-0.5,0.5-0.9,0.8-1.3
			c-0.3-0.1-0.7-0.1-0.9-0.2c-0.5-0.3-1-0.6-1.5-0.9c0,0.1-0.1,0.1-0.1,0.2c0.7,0.4,1.4,0.9,2.1,1.3c-2.4,0.6-3.3,1.7-3,3.4
			c0.2,1.3,1.6,2.4,2.9,2.2c1.8-0.2,2.4-1.3,2.5-4.2c0.3,0.1,0.6,0.2,0.8,0.3C606.9,1075.6,608,1075,608,1074.5z M605.9,1078.2
			c-0.4,0.2-0.9,0.7-1.3,0.6c-0.5,0-1.1-0.4-1.3-0.8c-0.2-0.4-0.1-1.1-0.1-1.6c0.1,0,0.2,0,0.3,0
			C603.7,1078.1,604.3,1078.5,605.9,1078.2z M605.3,1079.7c-1.2,0.4-2.7-0.3-3.1-1.6c-0.4-1.2,0.3-2.6,1.5-3.1c0.1,0,0.1,0,0.2,0
			c0,0,0.1,0,0.1,0.1c0.1,0,0.1,0.1,0.2,0.1c0,0,0.1,0,0.1,0.1c0.1,0,0.1,0.1,0.2,0.1c-0.3,0.2-0.6,0.3-0.8,0.5
			c-0.8,0.5-1.1,1.2-0.8,2.1c0.3,0.8,0.9,1.3,1.8,1.2c0.9,0,1.5-0.5,1.7-1.4c0.1-0.4,0.2-0.8,0.4-1.3
			C607.2,1078,606.6,1079.2,605.3,1079.7z"/>
		<path class="st21" d="M620.2,1077.6c-0.3,0.5-0.6,0.9-0.9,1.4c-0.1,0.1-0.2,0.2-0.3,0.3c-0.3,0.5-0.6,1-1,1.6
			c-0.1,0.1-0.2,0.2-0.4,0.4c-0.5,0.8-1.1,1.5-1.6,2.3c-0.2,0-0.5,0.1-0.7,0.1s-0.5,0.1-0.7,0.1l0,0l0,0l0,0
			c-0.1-0.1-0.2-0.3-0.3-0.4l0,0c-0.3-0.5-0.2-1,0.2-1.6c0.2-0.3,0.3-0.6,0.4-0.9c0-0.1,0.1-0.1,0.1-0.2c0.2-0.3,0.4-0.5,0.6-0.8
			c0.9-1.4,1.8-2.7,2.7-4.1c0,0,0,0,0-0.1l0,0c0.6,0,1.2-0.1,1.7,0.1C620.9,1076.3,620.4,1077,620.2,1077.6z"/>
		<path class="st22" d="M616.6,1085c-0.8,0.7-1.7,0.8-2.6,0.4c-1-0.5-1.6-1.5-1.5-2.5c0-0.3,0.1-0.7,0.1-1c0.7-0.7,1.3-1.5,2.4-1.3
			c0,0.1-0.1,0.1-0.1,0.2c-0.3,0.2-0.6,0.5-0.9,0.7c-0.8,0.5-1.1,1.2-0.8,2.2c0.3,0.8,0.9,1.2,1.8,1.2c1,0,1.5-0.6,1.8-1.5
			c0.1-0.3,0.2-0.7,0.4-1.2C617.6,1083.5,617.4,1084.4,616.6,1085z"/>
		<path d="M614.6,1083.8c-0.1-0.1-0.2-0.3-0.3-0.4C614.5,1083.5,614.5,1083.7,614.6,1083.8z"/>
		<path class="st20" d="M617.7,1083.5c0,1-0.9,2.1-1.9,2.4c-1.1,0.3-2.2,0-2.9-0.9c-0.8-1-0.8-1.9-0.2-3c0,0.3-0.1,0.7-0.1,1
			c-0.1,1,0.5,2,1.5,2.5s1.8,0.3,2.6-0.4s1-1.6,0.6-2.7c-0.2,0.5-0.3,0.8-0.4,1.2c-0.3,0.9-0.8,1.5-1.8,1.5c-0.9,0-1.5-0.4-1.8-1.2
			c-0.3-0.9,0-1.6,0.8-2.2c0.3-0.2,0.6-0.5,0.9-0.7c-0.1,0.3-0.2,0.6-0.4,0.9c-0.4,0.6-0.5,1.1-0.2,1.6c-0.1-0.1-0.1-0.2-0.2-0.2
			c-0.1-0.1-0.1-0.2-0.2-0.2c-0.1-0.2-0.2-0.3-0.3-0.5c-0.4,0.8-0.3,1.6,0.5,2c0.7,0.4,1.6,0.2,2-0.4c0.1-0.1-0.1-0.3-0.1-0.5
			c0.5-0.8,1.1-1.5,1.6-2.3C617.7,1082,617.7,1082.7,617.7,1083.5z"/>
		<path d="M627.4,1088.4L627.4,1088.4L627.4,1088.4z"/>
		<path class="st20" d="M628.2,1088.9c-0.1,0.7-0.4,1.4-0.7,2c-0.2,0.4-0.4,0.9-0.7,1c-0.6,0.2-1.3,0.3-1.8,0.1
			c-1.1-0.5-2.2-1.3-2.2-2.8c-0.1-1.1,0.7-2.2,2-2.7c0.4-0.2,0.9-0.3,1.3-0.4l0,0l0,0c-0.3,0.4-0.6,0.9-0.8,1.3h-0.1
			c0-0.2,0.1-0.4,0.2-0.6c-1.5,0.1-2.4,1.2-2.3,2.7c0.1,1.3,1.5,2.3,2.9,2.1c1.3-0.2,2.3-1.6,2-2.9l0,0l0,0l0,0l0,0
			c-0.1-0.1-0.2-0.1-0.3-0.2c0.3-0.5,0.6-0.9,0.8-1.4C628.2,1087.6,628.3,1088.3,628.2,1088.9z"/>
		<path class="st20" d="M581.6,1039.5c0.7,1.4,2.1,1.9,3.4,1.2c0.2-0.1,0.4-0.2,0.6-0.3l0,0l0,0c-0.7,0.8-1.7,1.1-2.7,0.7
			c-1.1-0.4-2-1.7-1.9-2.8s1-2.3,2.1-2.5c1.1-0.3,2.1,0.1,2.7,1l0,0c0,0,0,0-0.1,0c-0.9-0.6-1.8-1.1-2.9-0.6
			C581.6,1036.8,581,1038.3,581.6,1039.5z"/>
		<path class="st20" d="M631.9,1090c-1.3-0.7-2.4-1.3-3.4-1.8c0-0.1,0.1-0.2,0.1-0.2c0.9,0.5,1.7,0.9,2.7,1.4c0-0.3,0.1-0.4,0.1-0.6
			c0.1,0,0.1,0,0.2,0C631.6,1089.1,631.7,1089.4,631.9,1090z"/>
		<path class="st20" d="M625.1,1087.3c-0.1,0.2-0.4,0.5-0.3,0.7c0,0.5,0.1,1.2,0.4,1.4c0.3,0.2,1,0,1.4-0.3c0.3-0.2,0.5-0.6,0.8-0.9
			l0,0c-0.1,0.3-0.1,0.5-0.2,0.8c-0.2,1.2-0.8,1.8-1.9,1.7c-0.9,0-1.5-0.5-1.7-1.4C623.4,1088.5,623.9,1087.8,625.1,1087.3
			L625.1,1087.3z M626.6,1089.9c-2.1,0.2-2.1-0.6-2.3-1.9c-0.6,0.9-0.5,1.8,0.2,2.3C625.3,1090.8,626,1090.7,626.6,1089.9z"/>
		<path class="st22" d="M593.1,1069.7c-0.8,0.5-0.9,1.3-0.6,2.1c0.3,0.8,1,1.1,1.9,1c0.9-0.1,1.4-0.7,1.6-1.6c0-0.3,0.2-0.6,0.4-1.1
			c0.5,1.5-0.1,2.8-1.4,3.3c-1.3,0.4-2.8-0.4-3.2-1.7c-0.3-1.3,0.5-2.7,1.8-3c0.1,0,0.3,0.2,0.5,0.3l0,0
			C593.8,1069.2,593.5,1069.5,593.1,1069.7L593.1,1069.7z"/>
		<path class="st22" d="M593.1,1069.7c0,0.1,0.1,0.3,0.1,0.4c0.1,1.8,0.7,2.2,2.4,1.6c-0.5,0.9-1.2,1.1-2,0.8s-1.1-1.2-0.8-2
			C592.9,1070.2,593,1070,593.1,1069.7L593.1,1069.7z"/>
		<path class="st22" d="M604.5,1075.3c-0.3,0.2-0.6,0.3-0.9,0.5c-0.8,0.5-1.1,1.2-0.8,2.1c0.3,0.8,0.9,1.3,1.8,1.2
			c0.9,0,1.5-0.5,1.7-1.4c0.1-0.4,0.2-0.8,0.4-1.3c0.5,1.6-0.1,2.8-1.4,3.3c-1.2,0.4-2.7-0.3-3.1-1.6c-0.4-1.2,0.3-2.6,1.5-3.1
			C603.9,1075,604.2,1075.2,604.5,1075.3L604.5,1075.3z"/>
		<path class="st22" d="M603.5,1076.4c0.2,1.7,0.8,2.1,2.5,1.8c-0.4,0.2-0.9,0.7-1.3,0.6c-0.5,0-1.1-0.4-1.3-0.8
			c-0.2-0.4-0.1-1.1-0.1-1.6C603.3,1076.4,603.4,1076.4,603.5,1076.4z"/>
		<path class="st22" d="M616.1,1083.6c0,0.2,0.2,0.4,0.1,0.5c-0.4,0.7-1.3,0.8-2,0.4c-0.8-0.5-0.9-1.2-0.5-2
			c0.3,0.4,0.6,0.9,0.9,1.3C615.1,1083.7,615.6,1083.7,616.1,1083.6z"/>
		<path class="st22" d="M625.1,1087.3c-1.2,0.5-1.7,1.2-1.4,2.2c0.2,0.9,0.8,1.4,1.7,1.4c1,0,1.6-0.5,1.9-1.7
			c0.1-0.3,0.1-0.5,0.2-0.8c0.1,0.1,0.4,0.1,0.4,0.3c0.3,1.2-0.7,2.7-2,2.9c-1.3,0.2-2.8-0.8-2.9-2.1c-0.2-1.5,0.8-2.6,2.3-2.7
			C625.2,1086.9,625.1,1087.1,625.1,1087.3z"/>
		<path class="st22" d="M626.6,1089.9c-0.6,0.8-1.3,0.9-2,0.4s-0.8-1.3-0.2-2.3C624.4,1089.3,624.5,1090.2,626.6,1089.9z"/>
	</g>
	<g id="_x35_8JQqv.tif">
		<g>
			<path class="st20" d="M638.8,527.9c0.6,1.6,1.9,2.5,3.3,3.3c3,1.8,6.4,2.8,9.9,3.5c3.9,0.7,7.8,1.2,11.8,1.8
				c0.4,0.1,0.7,0.1,1,0.3c5.4,2.6,10.9,4.9,16.6,6.9c1.8,0.6,3.7,0.9,5.7,0.9c3.9-0.1,7.6-0.8,11.4-1.9c5-1.4,10-2.9,15-4.4
				c2-0.6,3.8-1.4,5.5-2.7c0.5-0.4,0.9-0.9,1.3-1.4c0.5-0.9,0.3-1.8-0.6-2.6c-2.2-1.8-4.4-3.6-6.6-5.5c-0.8-0.6-1.6-1.3-2.2-2
				c-0.4-0.4-0.6-1-0.7-1.4c-0.3-1.9-0.6-3.7-0.8-5.5c-0.4-2.4-0.6-4.8-1.1-7.2c-1.2-5.9-3.5-11.3-7.3-16
				c-4.9-6.1-11.2-9.8-18.9-11.1c-2.9-0.5-5.9-1.1-8.9-1c-4.7,0.2-9.1,1.5-13,3.9c-5.3,3.2-9.7,7.4-12.7,12.9
				c-2.1,3.9-3.6,8-4.3,12.4c-0.4,2.7-0.6,5.5-0.9,8.2c-0.1,0.9,0,1.8-0.2,2.7c-0.2,1.4-1.2,2.4-2.2,3.4c-0.2,0.2-0.4,0.3-0.6,0.5
				C638.4,526.6,638.3,526.8,638.8,527.9z M682.3,489.9c3,3.1,5.2,6.6,6.9,10.5c3.8,8.5,5.8,17.4,5.7,26.8c0,0.4,0.1,0.9,0.2,1.4
				c-0.1,0-0.3,0.1-0.5,0.1c-4.4,0.9-8.8,1.4-13.2,1.6c-5.3,0.3-10.7,0.2-16-0.3c-4.4-0.4-8.8-1-13.2-2.2c-2.6-0.7-5.2-1.6-7.5-3.2
				c-1.1-0.8-2.1-1.8-2-3.4c0-0.7,0-1.5,0.1-2.2c0.2-2.1,0.3-4.3,0.6-6.5c0.5-3.6,1.6-7.1,3-10.4c1.9-4.6,4.8-8.5,8.5-11.7
				c1.5-1.3,3-2.4,4.9-3c1.8-0.6,3.3-1.6,5.1-2.3c2.5-1,5.2-1.1,7.9-0.7C676.6,485.2,679.7,487.2,682.3,489.9z M678.1,484.6
				c3.8,1.5,6.7,4,9.3,7.1c3,3.7,5.3,7.8,7,12.2c2.8,7,4.5,14.2,4.9,21.7c0.1,1.4,0.3,2.8,0.4,4.2l0,0l0,0l0,0
				c-0.6-0.4-1.2-0.9-1.9-1.3c-1.1-0.6-1.5-1.4-1.5-2.7c0-6.3-1.1-12.4-3-18.5c-1.8-5.9-4.3-11.5-8.3-16.3c-2.5-3.1-5.5-5.6-9.3-7
				c-0.1,0-0.1-0.1-0.2-0.1C676.4,484.1,677.3,484.3,678.1,484.6z M707.8,512.1c-2.1-6-5.1-11.5-9.1-16.5c-4-5-8.8-9-14.6-11.6
				C698.5,487.6,706.1,500,707.8,512.1z M709.9,528.1c-2.8,1-5.5,1.9-8.4,2.9c-0.4-1.1-0.9-2.2-1-3.3c-0.1-4.7-0.8-9.2-1.8-13.8
				c-1.5-6.5-3.7-12.6-7.2-18.3c-2-3.2-4.2-6.2-7.2-8.6c-1.4-1.1-2.9-2-4.2-3l0,0c0,0,0.1,0,0.2,0.1c4.9,1.5,9.1,4,12.8,7.5
				c5.2,4.8,9.1,10.5,11.9,17c2.1,4.9,3.5,10.1,3.8,15.5c0,0.9,0.3,1.7,0.6,2.6C709.5,527.1,709.7,527.6,709.9,528.1z M711,527.4
				c-0.2-0.5-0.4-1-0.6-1.6C711.5,526.5,711.6,526.7,711,527.4z M667.8,537c0-0.1,0-0.1,0.1-0.2c1.8,0.1,3.6,0.1,5.4,0.1
				c7,0.1,13.9-0.3,20.8-1.5c4.1-0.7,8-1.5,11.8-3c2.7-1.1,5.3-2.3,6.8-5.1c2.1,1.8,4.1,3.5,6.2,5.2c0.6,0.5,0.6,1,0,1.5
				c-0.7,0.6-1.5,1.2-2.4,1.6c-3.1,1.6-6.4,2.6-9.8,3.5c-5.8,1.6-11.5,3.5-17.5,4c-2.1,0.2-4.3,0.3-6.4-0.4c-2-0.6-3.9-1.3-5.8-2.1
				C673.8,539.6,670.8,538.2,667.8,537z M640.1,526.8c0.9-1,1.9-2,2.8-3c0.5,0.4,1,1,1.6,1.3c0.6,0.4,1.3,0.9,2,1.2
				c3.3,1.7,6.8,2.5,10.3,3.2c4.8,0.9,9.6,1.3,14.5,1.5c8.3,0.3,16.5-0.2,24.6-1.9c0.2-0.1,0.6,0,0.8,0.2c1.3,0.9,2.6,1.8,3.9,2.7
				c0.4,0.3,0.7,0.3,1.2,0.1c1.3-0.4,2.6-0.9,3.8-1.4c0.7-0.2,1.3-0.4,2-0.6c0,0,0,0.1,0,0.1c-0.2,0.1-0.4,0.2-0.5,0.3
				c-1.8,0.7-3.6,1.4-5.4,2c-7.1,2.1-14.5,2.8-21.9,3.1c-5.4,0.2-10.9,0.1-16.3-0.4c-4.1-0.4-8.3-0.9-12.3-2
				c-2.9-0.7-5.8-1.6-8.4-3.1c-1.1-0.7-2.2-1.4-2.7-2.6C639.9,527.4,639.9,527,640.1,526.8z"/>
			<path class="st1" d="M710.4,525.8c0.2,0.6,0.4,1.1,0.6,1.6C711.6,526.7,711.5,526.5,710.4,525.8z"/>
			<path class="st1" d="M667.8,537c3,1.3,6,2.5,9.1,3.7c1.9,0.7,3.9,1.4,5.8,2.1c2.1,0.7,4.3,0.6,6.4,0.4c6-0.6,11.7-2.4,17.5-4
				c3.4-0.9,6.7-1.9,9.8-3.5c0.8-0.4,1.7-1,2.4-1.6c0.6-0.5,0.6-1,0-1.5c-2-1.7-4.1-3.5-6.2-5.2c-1.5,2.9-4.1,4.1-6.8,5.1
				c-3.8,1.5-7.8,2.4-11.8,3c-6.9,1.1-13.8,1.5-20.8,1.5C671.4,537,669.6,536.9,667.8,537C667.8,536.9,667.8,536.9,667.8,537z"/>
			<path class="st1" d="M640,527.5c0.5,1.2,1.6,2,2.7,2.6c2.6,1.5,5.5,2.4,8.4,3.1c4,1,8.2,1.5,12.3,2c5.4,0.5,10.9,0.6,16.3,0.4
				c7.4-0.3,14.8-1,21.9-3.1c1.8-0.5,3.6-1.3,5.4-2c0.2-0.1,0.4-0.2,0.5-0.3c0,0,0-0.1,0-0.1c-0.7,0.2-1.3,0.4-2,0.6
				c-1.3,0.4-2.6,0.9-3.8,1.4c-0.4,0.2-0.8,0.1-1.2-0.1c-1.3-0.9-2.6-1.8-3.9-2.7c-0.2-0.2-0.6-0.2-0.8-0.2
				c-8.1,1.6-16.3,2.1-24.6,1.9c-4.9-0.2-9.8-0.6-14.5-1.5c-3.5-0.7-7.1-1.5-10.3-3.2c-0.7-0.3-1.3-0.8-2-1.2
				c-0.6-0.5-1.1-1-1.6-1.3c-0.9,1-1.9,2-2.8,3C639.9,527,639.9,527.4,640,527.5z"/>
			<path class="st1" d="M684.1,484c5.9,2.6,10.6,6.7,14.6,11.6s7,10.5,9.1,16.5C706.1,500,698.5,487.6,684.1,484z"/>
			<path class="st1" d="M680.2,484L680.2,484c1.3,1,2.9,1.9,4.2,3c2.9,2.4,5.2,5.3,7.2,8.6c3.5,5.7,5.7,11.8,7.2,18.3
				c1,4.6,1.7,9.1,1.8,13.8c0,1.1,0.6,2.2,1,3.3c2.8-1,5.6-1.9,8.4-2.9c-0.2-0.5-0.4-1-0.6-1.5c-0.2-0.9-0.5-1.7-0.6-2.6
				c-0.3-5.4-1.7-10.6-3.8-15.5c-2.8-6.5-6.7-12.2-11.9-17c-3.7-3.4-7.9-6-12.8-7.5C680.3,484,680.2,484,680.2,484z"/>
			<path class="st1" d="M675.6,483.9c0.1,0,0.1,0.1,0.2,0.1c3.8,1.4,6.8,4,9.3,7c3.9,4.8,6.4,10.4,8.3,16.3c1.9,6,3,12.1,3,18.5
				c0,1.3,0.4,2.1,1.5,2.7c0.7,0.4,1.3,0.9,1.9,1.3c-0.1-1.4-0.3-2.8-0.4-4.2c-0.4-7.5-2.1-14.7-4.9-21.7c-1.8-4.4-4-8.5-7-12.2
				c-2.5-3.1-5.5-5.6-9.3-7.1C677.3,484.3,676.4,484.1,675.6,483.9z"/>
			<path class="st1" d="M642.8,521.3c0,1.5,0.9,2.6,2,3.4c2.2,1.6,4.8,2.5,7.5,3.2c4.3,1.2,8.7,1.8,13.2,2.2
				c5.3,0.5,10.7,0.6,16,0.3c4.4-0.2,8.9-0.8,13.2-1.6c0.2-0.1,0.4-0.1,0.5-0.1c-0.1-0.5-0.3-0.9-0.2-1.4c0-9.3-1.9-18.3-5.7-26.8
				c-1.7-3.9-3.9-7.4-6.9-10.5c-2.6-2.7-5.7-4.7-9.6-5.5c-2.7-0.5-5.4-0.3-7.9,0.7c-1.8,0.6-3.3,1.6-5.1,2.3c-1.9,0.7-3.5,1.7-4.9,3
				c-3.7,3.3-6.5,7.1-8.5,11.7c-1.4,3.4-2.5,6.8-3,10.4c-0.3,2.1-0.4,4.3-0.6,6.5C642.8,519.8,642.8,520.5,642.8,521.3z"/>
		</g>
	</g>
	<g id="mhKcRL.tif">
		<g>
			<path class="st25" d="M1262,1038.1c5.9,1.6,10.5,5,13.5,10.3c8.2,14,16.2,28.1,24.3,42.2c2.1,3.7,0.8,7.1-3.2,9.6
				c-3.9,2.4-8.1,3.5-12.6,4.3c-0.7,0.1-1.5-0.2-2,0.5c-57.1,0-114.1,0-171.2,0c-4.2-0.4-8.4-1.2-12.1-3.2c-2.5-1.4-4.6-3.1-5.7-5.9
				c0-1.3,0-2.6,0-3.8c9.9-14.5,19.9-29,29.7-43.7c3.6-5.3,8.3-8.7,14.4-10.3c0.5-0.1,0.9-0.1,1.4-0.2c0.8,1.2,0.2,2.5,0,3.7
				c-1.1,6-2.8,11.8-3.7,17.8c-0.5,3.4,0.7,5.9,3.2,8c5.5,4.4,12,6.3,18.6,8c11.3,2.9,22.8,4,34.5,4.6c15,0.8,29.8-0.2,44.5-2.7
				c8-1.3,15.9-3.3,23.1-7.2c1.3-0.7,2.5-1.4,3.6-2.3c3.3-2.6,4.5-5.5,3.2-9.9c-1.7-5.7-2.7-11.7-3.9-17.5
				C1261.5,1039.6,1261.2,1038.8,1262,1038.1z"/>
			<path class="st26" d="M1265.1,1065.9c-2.8,3.4-6.6,5.2-10.6,6.8c-8.4,3.4-17.1,5.1-26,6.3c-14.2,2-28.6,2.4-42.9,1.4
				c-13.4-0.9-26.7-2.7-39.4-7.6c-1.9-0.8-3.8-1.7-5.6-2.8c-6.6-3.9-7.7-6.6-6.1-14c1.3-6.1,2.6-12.1,3.9-18.2
				c5-23.1,10.1-46.2,15.1-69.3c0.2-0.7,0.3-1.4,0.5-2.1c0.7-0.6,1.4-0.2,2,0c3.3,1.3,6.5,2.8,10,3.8c0.6,0.2,1.1,0.6,1.4,1.2
				c0,0,5.4,1.9,12.8,2.8l0.1-0.1c2.1-0.8,4.1,0,6.2,0.2c15.3,1.3,30.3,0.3,45.1-3.9c4.1-1.2,8.1-2.5,12.1-3.9
				c0.9-0.3,1.7-1,2.7-0.2c5,23.4,10.1,46.7,15.1,70c0.1,0.5,0.3,1.1,0.5,1.6c1.4,7.2,2.8,14.4,4.7,21.4
				C1267.3,1062,1266.7,1064.1,1265.1,1065.9z"/>
			<path class="st26" d="M1229,886.2c-10.9,3.2-22.1,4.1-33.4,3.5c-0.9,0-1.7,0-2.6,0c-0.5,0-1,0-1.5,0c0,0,0,0-0.1,0
				c-0.3,0-0.6-0.1-1-0.1c-3.4-0.4-9-1.4-10.6-1.7c0,0.1-0.1,0.1-0.2,0.1c-3,0.4-5.8,0.1-8.3-1.9c4-18.2,8-36.5,11.9-54.7
				c0.3-1.5,0.6-3,1-4.4c0.9-4,2.4-5.7,6.5-6.2c6.4-0.9,12.8-1,19.1,0.2c3.5,0.6,5.5,2.6,6.2,6c4.1,19.2,8.3,38.3,12.4,57.5
				C1228.8,885.1,1228.9,885.6,1229,886.2z"/>
			<path class="st27" d="M1191.5,889.7c-0.4,0.2-0.7,0.2-1-0.1C1190.9,889.7,1191.3,889.7,1191.5,889.7z"/>
			<path class="st25" d="M1200.4,825.4c-2.8,0.1-5.6-0.3-8.3-1c-0.4-0.1-1-0.3-0.9-0.9c0.1-0.5,0.6-0.5,0.9-0.6
				c5.6-1.2,11.2-1.2,16.8,0c0.4,0.1,0.9,0.1,0.9,0.6c0,0.6-0.5,0.7-1,0.9C1206.1,825.2,1203.3,825.5,1200.4,825.4z"/>
			<path class="st26" d="M1193.1,889.7c-0.1,0.1-0.3,0.1-0.4,0.1c-0.3,0-0.7,0-1.1-0.1c0,0,0,0,0.1,0
				C1192.1,889.7,1192.6,889.7,1193.1,889.7z"/>
			<path class="st24" d="M1183.5,974.7c14,1.9,27.9,1.1,41.7-1.8c7.3-1.5,14.3-4,21.2-6.4c-0.1-0.6-0.1-1.3-0.2-1.9
				c-1.2-5.3-2.5-10.6-3.6-16c-1.6-7.3-3-14.7-4.6-22.1c-1.4-6.7-3.1-13.2-4.4-19.9c-1.3-6.8-2.8-13.6-4.5-20.4
				c-0.9-0.6-1.9-0.2-2.8,0c-1.8,0.4-3.6,0.9-5.4,1.3c-8.2,1.7-15.5,2.2-23.9,2.1c-1.5,0-3.6,0.1-5.4-0.1
				c-7.3-0.9-16.1-2.3-16.1-2.3l-0.4-0.1c-1.2-0.3-2.4-0.6-3.5-0.9c-0.7,2.8-1.4,5.5-2,8.3c-1.2,5.7-2.2,11.4-3.4,17.1
				c-1.1,5.2-2.6,10.4-3.7,15.6c-1.8,8-3.6,16.1-5.2,24.2c-1,5-2.6,10-3,15.1c4.3,1.6,8.7,3.2,13,4.8c0.1-0.1,0.6,0.5,0.7,0.4
				c2.7,1-2.3-0.8,3.7,1.4c0.1,0,2,0.4,2.8,0.5L1183.5,974.7z"/>
		</g>
	</g>
	<g id="mhKcRL.tif_1_">
		<g>
			<path class="st25" d="M245.3,1038.1c5.9,1.6,10.5,5,13.5,10.3c8.2,14,16.2,28.1,24.3,42.2c2.1,3.7,0.8,7.1-3.2,9.6
				c-3.9,2.4-8.1,3.5-12.6,4.3c-0.7,0.1-1.5-0.2-2,0.5c-57.1,0-114.1,0-171.2,0c-4.2-0.4-8.4-1.2-12.1-3.2c-2.5-1.4-4.6-3.1-5.7-5.9
				c0-1.3,0-2.6,0-3.8c9.9-14.5,19.9-29,29.7-43.7c3.6-5.3,8.3-8.7,14.4-10.3c0.5-0.1,0.9-0.1,1.4-0.2c0.8,1.2,0.2,2.5,0,3.7
				c-1.1,6-2.8,11.8-3.7,17.8c-0.5,3.4,0.7,5.9,3.2,8c5.5,4.4,12,6.3,18.6,8c11.3,2.9,22.8,4,34.5,4.6c15,0.8,29.8-0.2,44.5-2.7
				c8-1.3,15.9-3.3,23.1-7.2c1.3-0.7,2.5-1.4,3.6-2.3c3.3-2.6,4.5-5.5,3.2-9.9c-1.7-5.7-2.7-11.7-3.9-17.5
				C244.9,1039.6,244.6,1038.8,245.3,1038.1z"/>
			<path class="st26" d="M248.5,1065.9c-2.8,3.4-6.6,5.2-10.6,6.8c-8.4,3.4-17.1,5.1-26,6.3c-14.2,2-28.6,2.4-42.9,1.4
				c-13.4-0.9-26.7-2.7-39.4-7.6c-1.9-0.8-3.8-1.7-5.6-2.8c-6.6-3.9-7.7-6.6-6.1-14c1.3-6.1,2.6-12.1,3.9-18.2
				c5-23.1,10.1-46.2,15.1-69.3c0.2-0.7,0.3-1.4,0.5-2.1c0.7-0.6,1.4-0.2,2,0c3.3,1.3,6.5,2.8,10,3.8c0.6,0.2,1.1,0.6,1.4,1.2
				c0,0,5.4,1.9,12.8,2.8l0.1-0.1c2.1-0.8,4.1,0,6.2,0.2c15.3,1.3,30.3,0.3,45.1-3.9c4.1-1.2,8.1-2.5,12.1-3.9
				c0.9-0.3,1.7-1,2.7-0.2c5,23.4,10.1,46.7,15.1,70c0.1,0.5,0.3,1.1,0.5,1.6c1.4,7.2,2.8,14.4,4.7,21.4
				C250.7,1062,250.1,1064.1,248.5,1065.9z"/>
			<path class="st26" d="M212.4,886.2c-10.9,3.2-22.1,4.1-33.4,3.5c-0.9,0-1.7,0-2.6,0c-0.5,0-1,0-1.5,0c0,0,0,0-0.1,0
				c-0.3,0-0.6-0.1-1-0.1c-3.4-0.4-9-1.4-10.6-1.7c0,0.1-0.1,0.1-0.2,0.1c-3,0.4-5.8,0.1-8.3-1.9c4-18.2,8-36.5,11.9-54.7
				c0.3-1.5,0.6-3,1-4.4c0.9-4,2.4-5.7,6.5-6.2c6.4-0.9,12.8-1,19.1,0.2c3.5,0.6,5.5,2.6,6.2,6c4.1,19.2,8.3,38.3,12.4,57.5
				C212.1,885.1,212.3,885.6,212.4,886.2z"/>
			<path class="st27" d="M174.9,889.7c-0.4,0.2-0.7,0.2-1-0.1C174.3,889.7,174.6,889.7,174.9,889.7z"/>
			<path class="st25" d="M183.8,825.4c-2.8,0.1-5.6-0.3-8.3-1c-0.4-0.1-1-0.3-0.9-0.9c0.1-0.5,0.6-0.5,0.9-0.6
				c5.6-1.2,11.2-1.2,16.8,0c0.4,0.1,0.9,0.1,0.9,0.6c0,0.6-0.5,0.7-1,0.9C189.5,825.2,186.6,825.5,183.8,825.4z"/>
			<path class="st26" d="M176.4,889.7c-0.1,0.1-0.3,0.1-0.4,0.1c-0.3,0-0.7,0-1.1-0.1c0,0,0,0,0.1,0
				C175.5,889.7,176,889.7,176.4,889.7z"/>
			<path class="st24" d="M166.9,974.7c14,1.9,27.9,1.1,41.7-1.8c7.3-1.5,14.3-4,21.2-6.4c-0.1-0.6-0.1-1.3-0.2-1.9
				c-1.2-5.3-2.5-10.6-3.6-16c-1.6-7.3-3-14.7-4.6-22.1c-1.4-6.7-3.1-13.2-4.4-19.9c-1.3-6.8-2.8-13.6-4.5-20.4
				c-0.9-0.6-1.9-0.2-2.8,0c-1.8,0.4-3.6,0.9-5.4,1.3c-8.2,1.7-15.5,2.2-23.9,2.1c-1.5,0-3.6,0.1-5.4-0.1
				c-7.3-0.9-16.1-2.3-16.1-2.3l-0.4-0.1c-1.2-0.3-2.4-0.6-3.5-0.9c-0.7,2.8-1.4,5.5-2,8.3c-1.2,5.7-2.2,11.4-3.4,17.1
				c-1.1,5.2-2.6,10.4-3.7,15.6c-1.8,8-3.6,16.1-5.2,24.2c-1,5-2.6,10-3,15.1c4.3,1.6,8.7,3.2,13,4.8c0.1-0.1,0.6,0.5,0.7,0.4
				c2.7,1-2.3-0.8,3.7,1.4c0.1,0,2,0.4,2.8,0.5L166.9,974.7z"/>
		</g>
	</g>
</g>
<g id="K9069P_1_">
	<g>
		<path class="st0" d="M562.4,860c5.9-10,11.8-19.9,17.6-29.9c2.7-4.8,6.6-7.2,12.1-6.9c0.9,0.1,1.3-0.3,1.7-1
			c3.2-5.4,6.3-10.8,9.5-16.1c0.4-0.7,0.3-1.4,0.3-2.1c-0.6-5.6,0.2-10.6,5-14.6c3.6-3,6.5-6.8,9.6-10.3c0.8-0.9,1.4-1,2.4-0.4
			c1.8,1.2,3.7,2.3,5.6,3.3c1,0.5,1.3,1,0.9,2.2c-2.2,6.5-4.4,13-6.5,19.6c-0.3,0.9-0.9,1.4-1.6,1.6c-6.1,2.3-9.8,6.8-12.5,12.5
			c-1.4,2.9-3.2,5.5-4.8,8.3c-0.6,1-0.8,1.8-0.1,2.9c2.5,4.2,2.4,8.5,0,12.6c-11.9,20.4-24,40.7-36,61c-3.1,5.3-9.2,7.6-14.6,5.9
			c-5.5-1.8-9-7.1-8.5-12.8c0.2-2.2,1.1-4,2.2-5.8C550.6,880,556.5,870,562.4,860z"/>
		<path class="st0" d="M567.4,861.8c5.7-9.6,11.4-19.3,17.1-28.9c0.8-1.4,1.6-3.2,3.7-2.4c1.4,0.5,1.4,2.4,0,4.6
			c-11.4,19.4-22.9,38.8-34.3,58.2c-0.8,1.4-1.9,3.3-3.9,2.2c-1.9-1.1-0.8-2.9,0.1-4.4C555.9,881.3,561.7,871.6,567.4,861.8z"/>
		<path class="st0" d="M579.5,869.2c-5.7,9.7-11.4,19.4-17.2,29.1c-0.9,1.5-1.9,3.3-3.8,2.2c-1.9-1.1-0.8-3,0-4.4
			c11.4-19.4,22.9-38.8,34.3-58.2c0.2-0.3,0.3-0.7,0.6-0.9c0.9-1,1.9-2.3,3.5-1.3c1.5,1,0.9,2.4,0.1,3.7
			C591.2,849.3,585.3,859.2,579.5,869.2z"/>
	</g>
</g>
<path class="st2" d="M579.4,770.9c0,0-19.8,27.2-20.3,35c-0.4,7.9,13.1,75.7,13.1,75.7s-2.2,7.2-8,6.2c-5.9-1,0.1-7.2,0.1-7.2
	s-12.9,3.4-9.9-5.9c0,0-14.8,0.4-2.6-10.8L530.5,806c0,0-16.6-52.7,6.7-70.6c23.4-17.9,35-6.5,40.9,1.9
	C582.9,744.2,589.1,757.8,579.4,770.9z"/>
</svg>
