<?xml version="1.0" encoding="utf-8"?>
<!-- Generator: Adobe Illustrator 19.1.0, SVG Export Plug-In . SVG Version: 6.00 Build 0)  -->
<svg version="1.1" id="Layer_1" xmlns="http://www.w3.org/2000/svg" xmlns:xlink="http://www.w3.org/1999/xlink" x="0px" y="0px"
	 viewBox="-59 313.2 1459.1 911.8" style="enable-background:new -59 313.2 1459.1 911.8;" xml:space="preserve">
<style type="text/css">
	.st0{fill:#C24D8D;}
	.st1{fill:#D68FAF;}
	.st2{fill:#D478A1;}
	.st3{fill:#CC84AA;}
	.st4{fill:#F8F4E7;}
	.st5{opacity:0.47;fill:#B04379;enable-background:new    ;}
	.st6{fill:#603E16;}
	.st7{fill:#B04379;}
	.st8{opacity:0.35;fill:#E5B1CB;enable-background:new    ;}
	.st9{fill:#E5B1CB;}
	.st10{opacity:0.56;fill:none;stroke:#B04379;stroke-width:0.6774;stroke-miterlimit:10;enable-background:new    ;}
	.st11{fill:none;stroke:#E5B1CB;stroke-width:1.7452;stroke-miterlimit:10;}
	.st12{fill:#B5AAB1;}
	.st13{fill:none;stroke:#CC84AA;stroke-width:1.7452;stroke-miterlimit:10;}
	.st14{fill:#9E979C;}
	.st15{opacity:0.5;fill:none;stroke:#B04379;stroke-width:1.7966;stroke-miterlimit:10;}
	.st16{opacity:0.5;fill:none;stroke:#B04379;stroke-width:1.9884;stroke-miterlimit:10;}
	.st17{fill:#63AFAF;stroke:#154F4D;stroke-miterlimit:10;}
	.st18{fill:#93662B;}
	.st19{fill:#6BA2A7;stroke:#08383A;stroke-miterlimit:10;}
	.st20{fill:#407F82;stroke:#407F82;stroke-miterlimit:10;}
	.st21{fill:#1E6468;stroke:#08383A;stroke-miterlimit:10;}
	.st22{fill:#08383A;}
	.st23{fill:#C795C3;stroke:#407F82;stroke-miterlimit:10;}
	.st24{fill:#407F82;}
	.st25{fill:#C795C3;}
	.st26{fill:#FFFFFF;}
	.st27{fill:#63AFAF;}
	.st28{fill:#603F19;}
	.st29{fill:#F68921;}
	.st30{fill:#F57F20;}
</style>
<path class="st0" d="M730.3,857.5c0,0-2.2,32,1.5,38.5c3.7,6.5,49.5,53.1,49.5,53.1s2,6.9-3.3,9.1c-5.3,2.3-3.6-5.8-3.6-5.8
	s-8.7,9.5-11,0.5c0,0-11.8,8.1-7.6-7.2l-47-34.6c0,0-40.6-33.1-30.8-59.6c9.8-26.5,25.1-23.6,34.2-20
	C719.4,834.5,731.5,842,730.3,857.5z"/>
<path class="st1" d="M505.5,958.4l9.3,98.4c0,0-12.9,18.2-28.2-4.8c0,0-27.1,4.4-16.6-19.5c0,0-20.3,4.4-20.7-12.8
	c-0.4-17.2,19-14.4,19-14.4s-29.8-2.3-8.4-17.8c0,0-18.3-18.1,5.5-14.3c0,0-11.5-18.1,6.4-21.4c0,0,9.7-0.8,13.9,10.3
	C485.4,962.1,483.5,944.9,505.5,958.4z"/>
<path class="st2" d="M452.3,728.5c0.2-0.1,0.3-0.2,0.5-0.3C452.5,728.3,452.4,728.4,452.3,728.5z M451.6,729.1
	c0.2-0.1,0.4-0.3,0.5-0.4C452,728.8,451.8,728.9,451.6,729.1z M452.3,728.5c0.2-0.1,0.3-0.2,0.5-0.3
	C452.5,728.3,452.4,728.4,452.3,728.5z M451.6,729.1c0.2-0.1,0.4-0.3,0.5-0.4C452,728.8,451.8,728.9,451.6,729.1z"/>
<path class="st3" d="M494.8,790.9c0,0,0.2-241.4,43.5-238.1c40.8,3.1,34,76.2,34,76.2h87.1c0,0,1.4-84.4,35.4-84.4
	s35.4,126.5,35.4,126.5S741,995,704.3,1065.8c0,0-119.7,81.6-201.4,0C502.9,1065.8,488.2,892.5,494.8,790.9z"/>
<path class="st3" d="M514.9,1062.8c0,0,9.8,32.7,2.7,63.4c0,0-2.9,17.2-6.8,22.8c0,0-4.2,6.7,1.5,11.8c0,0,3.2,4,15.2-0.3
	c12.1-4.5,33.1,7.9,33.1,7.9s40.2,15.8,49.8-3.7c9.5-19.5-26-21.2-26-21.2L533,1139c0,0-5.9-19.1,3.6-29.1c0,0,16.7-26.8,30.1-26.5
	l-0.1,0.7c0,0,48.2,6.3,68.1-1.2c0,0,15,29.3,4.2,54.8c0,0-1.7,8.1,6.8,7c8.5-1,19.8-0.6,28.7,7.7c8.8,8.4,37.6,36.3,37.8,18.4
	c0.2-17.9-18.9-15.5-21.9-15.5s-31.2-30.8-31.2-30.8s-5.8-12.2,7.6-25.2c13.5-13,30.6-34,31.3-43.7"/>
<path class="st1" d="M565.6,676c-10.4,10.6-25.6,29.8-27.4,52.5c-1.6,20.2,11.4,38.7,30.7,44.6c25.7,7.9,72.1,15.7,119.7-7.6
	c10.3-5,18.3-13.7,22.2-24.5c3.5-9.4,6.9-22.2,7-35.9c0.2-21.2-15.3-39.2-36.1-42.9c-22.5-3.9-56.8-6.7-94.8,1.9
	C578.8,665.9,571.4,670.1,565.6,676z"/>
<path class="st4" d="M621.6,746.6c0,0,0.1,1.9,1.6,2c1.5,0.1,1.6-1.8,1.6-1.8L621.6,746.6z"/>
<ellipse transform="matrix(-0.2856 -0.9583 0.9583 -0.2856 63.4857 1480.5205)" class="st5" cx="583.6" cy="716.6" rx="18.5" ry="21.1"/>
<ellipse transform="matrix(-0.2856 -0.9583 0.9583 -0.2856 64.122 1481.6188)" class="st4" cx="584.3" cy="716.9" rx="16.8" ry="19.2"/>
<path class="st4" d="M634.1,746.5l3.7-0.4c0,0,1.2,2.7-1.8,3.2C633,749.6,634.1,746.5,634.1,746.5z"/>
<path class="st4" d="M628,746.7l3.3-0.2c0,0,0.9,2-1.3,2.8S627,747.4,628,746.7z"/>
<ellipse transform="matrix(-0.2856 -0.9583 0.9583 -0.2856 66.1263 1492.2174)" class="st6" cx="589.2" cy="721.5" rx="7.4" ry="8.2"/>
<path class="st7" d="M605,683.3l-2.8,6.9c0,0-30.9-13.1-45.4,17.2C556.8,707.4,557.1,672.8,605,683.3z"/>
<ellipse transform="matrix(-0.2856 -0.9583 0.9583 -0.2856 200.7151 1567.3824)" class="st5" cx="684.6" cy="708.9" rx="17.2" ry="18.7"/>
<ellipse transform="matrix(-0.2856 -0.9583 0.9583 -0.2856 198.4688 1567.1022)" class="st4" cx="683.3" cy="709.6" rx="15.7" ry="16.9"/>
<ellipse transform="matrix(-0.2856 -0.9583 0.9583 -0.2856 195.1056 1573.821)" class="st6" cx="684.2" cy="714.2" rx="7.6" ry="8.4"/>
<path class="st7" d="M663.8,677.7l3.4,5.9c0,0,29.8-13.7,45.2,12.1C712.4,695.7,707,660.5,663.8,677.7z"/>
<circle class="st8" cx="680.5" cy="741.2" r="5"/>
<ellipse transform="matrix(-0.2856 -0.9583 0.9583 -0.2856 32.348 1525.3257)" class="st8" cx="584.7" cy="750.6" rx="4.6" ry="7.6"/>
<g>
	<path class="st9" d="M641.2,724.7c0,0,2.9-1.9,4.7-0.2s5.9,1.7,5.7-1.7c-0.1-3.4-4.5-6.4-8.4-5.7c-3.9,0.7-8.4,1.8-8.7,7.3
		S641.2,724.7,641.2,724.7z"/>
	<circle class="st1" cx="647.3" cy="721.9" r="0.7"/>
	<circle class="st1" cx="638.2" cy="723.3" r="0.8"/>
</g>
<g>
	<path class="st10" d="M643.7,708.4c0,0-2.2,3.1,0,7.5"/>
	<path class="st10" d="M648.7,705.8c0,0-6.4-2.3-11.5,3.4"/>
	<path class="st10" d="M647.7,702.1c0,0-5.7-1.7-8.7,1.4"/>
</g>
<polygon class="st4" points="639.9,745.1 640.1,748.9 644,748.2 644,744.5 "/>
<polygon class="st4" points="645.8,744 646,747.9 649.8,747.3 649.9,743.7 "/>
<path class="st11" d="M644.3,723.7c0,0,0.8,13.2,4.8,19.5c0,0-21.1,6.2-46.3,0.8"/>
<path class="st12" d="M632,780.6c0,0,6.1,188-33.7,321.4c0,0,1.4-0.2,5.9-0.4c0,0,38-118.2,35.1-321.7"/>
<g>
	<line class="st13" x1="632.2" y1="785.8" x2="641" y2="785.4"/>
	<line class="st13" x1="632.2" y1="792.2" x2="641" y2="791.9"/>
	<line class="st13" x1="632.2" y1="798.7" x2="641" y2="798.3"/>
	<line class="st13" x1="632.2" y1="805.5" x2="641" y2="805.2"/>
	<line class="st13" x1="632.2" y1="811.9" x2="641" y2="811.6"/>
	<line class="st13" x1="632.2" y1="818.4" x2="641" y2="818.1"/>
</g>
<g>
	<line class="st13" x1="632.2" y1="825.5" x2="641" y2="825.2"/>
	<line class="st13" x1="632.2" y1="831.9" x2="641" y2="831.6"/>
	<line class="st13" x1="632.2" y1="838.4" x2="641" y2="838.1"/>
	<line class="st13" x1="631.9" y1="845.2" x2="640.2" y2="844.9"/>
	<line class="st13" x1="631.5" y1="851.6" x2="640.3" y2="851.3"/>
	<line class="st13" x1="631.3" y1="858.1" x2="640.2" y2="857.8"/>
</g>
<g>
	<line class="st13" x1="630.4" y1="866" x2="639.2" y2="865.7"/>
	<line class="st13" x1="630.4" y1="872.5" x2="639.2" y2="872.2"/>
	<line class="st13" x1="630.4" y1="878.9" x2="639.2" y2="878.6"/>
	<line class="st13" x1="630.4" y1="885.7" x2="639.2" y2="885.4"/>
	<line class="st13" x1="630.4" y1="892.2" x2="639.2" y2="891.9"/>
	<line class="st13" x1="630.4" y1="898.6" x2="639.2" y2="898.3"/>
</g>
<g>
	<line class="st13" x1="628.1" y1="906.9" x2="638.5" y2="907.4"/>
	<line class="st13" x1="627.3" y1="913.3" x2="637.8" y2="913.8"/>
	<line class="st13" x1="626.6" y1="919.7" x2="637" y2="920.3"/>
	<line class="st13" x1="625.8" y1="926.5" x2="636.2" y2="927"/>
	<line class="st13" x1="625" y1="932.9" x2="635.4" y2="933.5"/>
	<line class="st13" x1="624.3" y1="939.3" x2="634.7" y2="939.9"/>
</g>
<g>
	<line class="st13" x1="623.4" y1="946.4" x2="633.9" y2="947"/>
	<line class="st13" x1="622.7" y1="952.8" x2="633.1" y2="953.4"/>
	<line class="st13" x1="621.9" y1="959.2" x2="632.4" y2="959.8"/>
	<line class="st13" x1="620.8" y1="966" x2="630.6" y2="966.5"/>
	<line class="st13" x1="619.5" y1="972.4" x2="630" y2="972.9"/>
	<line class="st13" x1="618.7" y1="978.8" x2="629.1" y2="979.3"/>
</g>
<g>
	<line class="st13" x1="619" y1="986.6" x2="627.8" y2="987.1"/>
	<line class="st13" x1="618.3" y1="993" x2="627.1" y2="993.5"/>
	<line class="st13" x1="617.7" y1="999.4" x2="626.5" y2="1000"/>
	<line class="st13" x1="617" y1="1006.2" x2="625.8" y2="1006.8"/>
	<line class="st13" x1="616.4" y1="1012.6" x2="625.2" y2="1013.2"/>
	<line class="st13" x1="615.8" y1="1019" x2="624.6" y2="1019.6"/>
</g>
<g>
	<line class="st13" x1="614.2" y1="1026.6" x2="623" y2="1027.8"/>
	<line class="st13" x1="613.1" y1="1033" x2="621.9" y2="1034.2"/>
	<line class="st13" x1="612" y1="1039.3" x2="620.7" y2="1040.5"/>
	<line class="st13" x1="610.9" y1="1046.1" x2="619.6" y2="1047.2"/>
	<line class="st13" x1="609.8" y1="1052.4" x2="618.5" y2="1053.6"/>
	<line class="st13" x1="608.7" y1="1058.8" x2="617.4" y2="1060"/>
</g>
<g>
	<line class="st13" x1="606" y1="1065.6" x2="614.6" y2="1067.3"/>
	<line class="st13" x1="604.5" y1="1071.9" x2="613.2" y2="1073.6"/>
	<line class="st13" x1="603" y1="1078.1" x2="611.7" y2="1079.8"/>
	<line class="st13" x1="601.5" y1="1084.8" x2="610.1" y2="1086.5"/>
	<line class="st13" x1="600" y1="1091" x2="608.6" y2="1092.8"/>
	<line class="st13" x1="598.5" y1="1097.3" x2="607.1" y2="1099"/>
</g>
<g>
	<polygon class="st14" points="637.1,780.2 642.2,779.4 649.2,788.8 642,791.5 	"/>
	<circle class="st3" cx="643.6" cy="786.9" r="2.4"/>
</g>
<path class="st15" d="M518.3,629.8c0,0-1-46.4,19-44.6c0,0,20.5-3.7,19,43.1"/>
<path class="st16" d="M678.9,628.7c0,0-1-59.7,18.1-57.4c0,0,19.5-4.7,18.1,55.5"/>
<g>
	<g id="K9069P_1_">
		<g>
			<path class="st17" d="M774.8,931.6c5.9-10,11.8-19.9,17.6-29.9c2.7-4.8,6.6-7.2,12.1-6.9c0.9,0.1,1.3-0.3,1.7-1
				c3.2-5.4,6.3-10.8,9.5-16.1c0.4-0.7,0.3-1.4,0.3-2.1c-0.6-5.6,0.2-10.6,5-14.6c3.6-3,6.5-6.8,9.6-10.3c0.8-0.9,1.4-1,2.4-0.4
				c1.8,1.2,3.7,2.3,5.6,3.3c1,0.5,1.3,1,0.9,2.2c-2.2,6.5-4.4,13-6.5,19.6c-0.3,0.9-0.9,1.4-1.6,1.6c-6.1,2.3-9.8,6.8-12.5,12.5
				c-1.4,2.9-3.2,5.5-4.8,8.3c-0.6,1-0.8,1.8-0.1,2.9c2.5,4.2,2.4,8.5,0,12.6c-11.9,20.4-24,40.7-36,61c-3.1,5.3-9.2,7.6-14.6,5.9
				c-5.5-1.8-9-7.1-8.5-12.8c0.2-2.2,1.1-4,2.2-5.8C763,951.6,768.9,941.6,774.8,931.6z"/>
			<path class="st17" d="M779.8,933.4c5.7-9.6,11.4-19.3,17.1-28.9c0.8-1.4,1.6-3.2,3.7-2.4c1.4,0.5,1.4,2.4,0,4.6
				c-11.4,19.4-22.9,38.8-34.3,58.2c-0.8,1.4-1.9,3.3-3.9,2.2c-1.9-1.1-0.8-2.9,0.1-4.4C768.3,952.9,774.1,943.2,779.8,933.4z"/>
			<path class="st17" d="M791.9,940.8c-5.7,9.7-11.4,19.4-17.2,29.1c-0.9,1.5-1.9,3.3-3.8,2.2c-1.9-1.1-0.8-3,0-4.4
				c11.4-19.4,22.9-38.8,34.3-58.2c0.2-0.3,0.3-0.7,0.6-0.9c0.9-1,1.9-2.3,3.5-1.3c1.5,1,0.9,2.4,0.1,3.7
				C803.6,920.9,797.7,930.8,791.9,940.8z"/>
		</g>
	</g>
	<path class="st18" d="M620.6,605.7c-0.5,0.1-0.9,0.2-1.4,0.4c1.1,0.6,2.1,1.4,2.9,2.5L620.6,605.7z"/>
	<g>
		<path class="st19" d="M757.6,1180.2c0,1.8,0,3.5,0,5.3c-0.4,0-0.7,0-1.1,0c-17.2,0-34.3,0.1-51.5-0.1c-2.4,0-4.8-0.8-7.1-1.5
			c-6.6-2.1-13.4-2.9-20.3-3.3c-1.5-0.1-3-0.2-4.6-0.3c0,1.7,0,3.3,0,5c-13.3,0-26.5,0-39.7,0c0-3.1,0-6.2,0-9.4
			c0.3,0,0.6-0.1,1-0.1c12.6,0,25.2,0,37.9,0c8.1,0,16,0.8,24,2.4c6.3,1.2,12.6,1.8,19,1.8c13.7,0,27.3,0,41,0
			C756.6,1180.2,757.1,1180.2,757.6,1180.2z"/>
		<path class="st19" d="M633.4,1175.6c0-0.4,0-0.7,0-1.1c0.4,0,0.8,0,1.2,0c12,0,24,0,36.1,0c9.1,0,18.1,0.9,27,2.6
			c5.7,1.1,11.5,1.5,17.3,1.5c13.1,0,26.3,0,39.4,0c1,0,2.1,0,3.2,0c0,0.4,0,0.7,0.1,1c-0.2,0.1-0.2,0.1-0.3,0.1c-0.2,0-0.4,0-0.5,0
			c-14.2,0-28.3,0-42.5,0c-6.6,0-13.1-0.7-19.6-2c-8.1-1.6-16.3-2.2-24.5-2.2c-11.8,0-23.6,0-35.3,0
			C634.4,1175.6,634,1175.6,633.4,1175.6z"/>
		<path class="st20" d="M632.7,1154.1c1,0,1.7,0,2.4,0v-0.1c-0.7-0.1-1.4-0.2-2.1-0.3c-0.1-0.1-0.1-0.2-0.2-0.2
			c0.3-0.2,0.5-0.6,0.8-0.6c5.5,0.5,10.9,1.4,15.6,4.6c4,2.7,6.5,6.5,7.9,11.1c0.5,1.8,0.8,3.7,1.3,5.5c-0.9,0.2-0.9,0.2-1.5-1.5
			c0,0.5,0.1,1,0.1,1.7c-0.5,0-0.9,0-1.3,0c-7,0-14,0-21,0c-1.6,0-1.6,0-1.9-1.6c-0.7-4.2-0.8-8.5-0.5-12.8
			C632.4,1158,632.5,1156.1,632.7,1154.1z"/>
		<path class="st21" d="M718,1150.9c0.2-0.2,0.5-0.4,0.7-0.7c1.8,0.9,3.6,1.8,5.6,2.6c4.5,1.8,9.3,2.5,14.2,3
			c2.7,0.3,5.5,0.4,8.2,0.9c6.2,1.1,11.1,7.6,10.5,13.3c-0.3,2.6-0.8,5.1-1.3,7.6c-0.1,0.6-0.4,0.8-1.1,0.8c-14.7,0-29.5,0-44.2-0.1
			c-5.7,0-11.4-1.1-17-2.1c-6-1.1-12-1.7-18-1.8c-3.3-0.1-6.6-0.1-9.9-0.1c-0.3,0-0.7,0-1.1,0c0.1-2.4,1.2-4.1,2.9-5.3
			c2.1-1.5,4.4-3,6.7-4c8.1-3.6,16.7-5.1,25.6-5.3c4.5-0.1,8.9-0.2,13.4-0.2c3.2,0,5.7-1.2,7.9-3.4c1.2-1.2,1.1-2-0.4-2.7
			c-0.8-0.4-1.6-0.8-2.4-1.3c-0.2-0.1-0.3-0.5-0.5-0.8C717.8,1151.1,717.9,1151,718,1150.9z"/>
		<path class="st20" d="M677.3,1105.3c0.9-0.1,1.5-0.1,2.3-0.1c0,2.8,0,5.6,0,8.5c-0.8,0-1.6,0-2.3,0
			C677.3,1110.9,677.3,1108.2,677.3,1105.3z"/>
		<path class="st20" d="M676.9,1116.6c1-0.1,1.8-0.1,2.6-0.2c0.1,1.2,0.2,2.3,0.3,3.4c0,0.1,0,0.3,0,0.4c0.1,0.8,0.6,1.8,0.3,2.2
			c-0.5,0.7-1.5,0.9-2.4,1.4C676.8,1121.5,677,1119.1,676.9,1116.6z"/>
		<path class="st20" d="M685.5,1130c-0.3,0.5-0.7,1-1.1,1.7c-2.1-1.5-4.3-2.8-5.6-5.2c0.9-0.5,1.8-0.9,2.5-1.2
			C682.7,1126.8,684,1128.4,685.5,1130z"/>
		<path class="st20" d="M674.5,1098.2c1.6-0.2,2.9-0.4,4.2-0.4c0.2,0,0.7,0.5,0.7,0.7c-0.2,0.7-0.4,1.7-0.9,2
			c-0.6,0.4-1.6,0.6-2.3-0.5C675.9,1099.3,675.2,1098.9,674.5,1098.2z"/>
		<path class="st20" d="M677.3,1101.7c-0.1-0.3-0.1-0.5-0.2-0.7c2-0.3,2.3-0.6,2.5-2.3c0.1-0.9-0.3-1.3-1.1-1.2
			c-1.1,0.1-2.3,0.3-3.4,0.4c-0.7,0.1-1.4,0-2.1,0c0-0.2,0-0.3,0-0.5c1.9-0.2,3.8-0.6,5.7-0.7c1.3-0.1,1.7,0.6,1.7,1.8
			C680.5,1100.5,679.6,1101.4,677.3,1101.7z"/>
		<path class="st20" d="M687.4,1131.9c0.2-0.2,0.4-0.3,0.6-0.5c2.6,1.6,5.1,3.2,7.7,4.9c-0.1,0.3-0.2,0.6-0.2,0.9
			c-0.1,0.1-0.2,0.3-0.4,0.4c-0.3,0.6-0.7,0.6-1.3,0.2c-2.1-1.4-4.3-2.7-6.5-4.1c-0.3-0.2-0.5-0.5-0.7-0.7
			C686.8,1132.6,687.1,1132.3,687.4,1131.9z"/>
		<path class="st20" d="M697.7,1138.3c0.3-0.1,0.6-0.3,0.8-0.2c2.5,1.5,5,3,7.5,4.5c-0.4,0.6-0.7,1.1-1.1,1.6
			c-2.5-1.5-5-2.9-7.5-4.4c-0.2-0.1-0.3-0.4-0.4-0.6C697.2,1138.9,697.5,1138.6,697.7,1138.3z"/>
		<path class="st20" d="M707.5,1144.9c0.1-0.1,0.2-0.2,0.3-0.3c0.2-0.2,0.4-0.3,0.6-0.5c2.6,1.5,5.2,3.1,7.8,4.6
			c-0.4,0.5-0.7,1-1.1,1.6c-1.1-0.6-2.1-1.2-3.2-1.8c-1.3-0.8-2.7-1.6-4-2.3C707.4,1145.8,707.3,1145.5,707.5,1144.9z"/>
		<path class="st22" d="M681.3,1114.6c0,0.1,0.1,0.2,0.1,0.4c0,0,0,0,0,0.1l0,0c0,0.1,0,0.1,0,0.2c0,0.6-0.5,1-1.6,1
			c-2.1,0.1-4.3,0.1-6.4,0.2c-0.8,0-1.5-0.1-1.6-1.1c0-0.9,0.7-1.1,1.4-1.2c2.2-0.1,4.5-0.2,6.7-0.2c0.1,0,0.3,0,0.4,0
			c0.1,0,0.2,0,0.3,0.1c0,0,0,0,0.1,0 M680.1,1113.5v-8.3c0.3-0.1,0.6-0.3,0.9-0.4c-2.5,0.1-4.9,0.2-7.4,0.2c-0.2,0-0.4,0-0.6,0
			h-0.1c-0.1,0-0.2,0-0.3,0l0,0c-0.1,0-0.2,0-0.3-0.1c-0.1,0-0.1,0-0.2,0l0,0l0,0c0.2,0.2,0.3,0.5,0.4,0.6c-0.9,0.1-1.6-0.4-1.6-1.3
			c-0.1-0.8,0.5-1.5,1.6-1.6c-0.3,0.4-0.7,0.7-0.7,1.1c0,0.1,0,0.1,0,0.2c0,0,0,0,0,0.1c0,0,0,0,0,0.1v0.1l0,0c0,0,0,0,0,0.1
			c0,0,0,0,0,0.1l0,0c0,0,0,0.1,0.1,0.1c0.1,0.1,0.1,0.3,0.2,0.4v0.1l0,0c-0.1-0.3-0.2-0.5-0.2-0.7v-0.1c-0.1-0.8,0.3-1.1,1.5-1.2
			c2.2-0.1,4.5-0.2,6.7-0.2c0.5,0,0.9,0.3,1.4,0.4c-0.4-0.3-0.9-0.6-1.5-1c0.1-0.4,0.2-1,0.5-1.5c0.9-1.9,0.6-3.3-0.8-4.3h-3
			c-2.1,0.4-4.1,1-6.3,0.8c-3.2-0.3-6.5,0-9.6,0.4c-4.6,0.6-9.2,1.6-13.8,2.2c-2.1,0.3-4.3,0.4-6.4,0.4c-2.3,0-3.9,1.3-4,3.6
			c0,1.1,0,2.2,0,3.5c-0.5,0-1.1,0.1-1.7,0.1v13.8c0.7,0,1.3,0.1,2,0.1c-0.1,2.8-0.2,5.5-0.4,8.3h-2c-0.1,1.6-0.3,3.2-0.4,4.9
			c-0.2,2.5-0.5,5.1-0.8,7.6c-0.1,1.3-0.2,1.3,1.1,1.4c0.2,0,0.4,0.1,0.8,0.2c-0.5,2.9-1,5.9-1.5,8.8c-0.5,0.1-0.7,0.1-1.1,0.1
			c-0.1,0.9-0.3,1.8-0.4,2.7c-0.2,1.4-0.3,2.8-0.4,4.2v8.8c0.1,0.9,0.2,1.7,0.4,2.6c0.7,3,0.9,6.1,0.8,9.2c-0.1,1.6,0,3.3,0,4.9v1.1
			h40.8v-4.9c0.5,0,0.9,0,1.3,0c2.5,0.2,5,0.4,7.6,0.6c5.2,0.4,10.2,1.3,15.2,2.8c2.3,0.7,4.7,1.5,7.1,1.5
			c17.4,0.1,34.9,0.1,52.3,0.1h1.1v-7.8H756c0.1-0.5,0.3-0.8,0.4-1.1c0.9-3.3,1.7-6.8,0.9-10.2c-1.3-5.6-4.9-9.4-10.6-10.7
			c-2.6-0.6-5.4-0.6-8-0.9c-4.8-0.5-9.6-1.1-14.2-3c-1.9-0.8-3.7-1.7-5.6-2.6c1.1-2,1.1-2.2,0.2-2.9v0.1c0.6,0.7,0.5,1.3,0,2
			c-0.4,0.6-0.7,1.2-1.1,1.8c0.2-0.2,0.5-0.4,0.7-0.7c1.8,0.9,3.6,1.8,5.6,2.6c4.5,1.8,9.3,2.5,14.2,3c2.7,0.3,5.5,0.4,8.2,0.9
			c6.2,1.1,11.1,7.6,10.5,13.3c-0.3,2.6-0.8,5.1-1.3,7.6c-0.1,0.6-0.4,0.8-1.1,0.8c-14.7,0-29.5,0-44.2-0.1c-5.7,0-11.4-1.1-17-2.1
			c-5.9-1.1-12-1.7-18-1.8c-3.3-0.1-6.6-0.1-9.9-0.1c-0.3,0-0.7,0-1.1,0c0.1-2.4,1.2-4.1,2.9-5.3c2.1-1.5,4.4-3,6.7-4
			c8.1-3.6,16.7-5.1,25.6-5.3c4.5-0.1,8.9-0.2,13.4-0.2c3.2,0,5.7-1.2,7.9-3.4c1.2-1.2,1.1-2-0.4-2.7c-0.8-0.4-1.6-0.8-2.4-1.3
			c-0.2-0.1-0.3-0.5-0.5-0.8c-0.2,0.3-0.4,0.6-0.6,0.9c1.3,0.7,2.7,1.2,4,2c0.7,0.5,0.1,1.1-0.3,1.5c-2.2,2.2-4.8,3.3-7.9,3.3
			c-4.6,0-9.2,0.1-13.8,0.2c-9.4,0.2-18.4,2-26.9,6.1c-1.7,0.8-3.3,1.9-4.8,3c-1.9,1.4-3.2,3.3-3.4,6c-0.5-0.1-1-0.2-1.4-0.3
			c-0.4,0.1-0.9,0.2-1.3,0.2c-2.6,0-2.5,0-3-2.5c-1.9-10.1-8-16.4-18.4-18.4c-1.9-0.4-3.8-0.6-5.7-0.9c0.5-2.9,1-5.8,1.5-8.7
			c1.4-0.3,1.6-0.2,2.1,1.1c0.4,1.1,1.7,2,2.8,1.9c1.4-0.1,2.5-1,2.8-2.3c0.3-1.7,0.4-3.3,0.6-5c0.3-2.7,0.6-5.5,0.9-8.3
			c0.1-1.4-0.3-2.5-1.5-3.2c-1.1-0.6-2.1-0.5-3,0.2c-0.5,0.4-0.8,1-1.3,1.6c-0.5-0.1-1.2-0.1-1.9-0.2c0.1-2.9,0.2-5.6,0.3-8.5h1.5
			c0.4,0.7,0.8,1.4,1.3,1.9c0.8,0.7,1.8,1,2.8,0.5c1.1-0.5,1.9-1.3,1.9-2.6c0-4.6,0-9.1,0-13.7c0-1.4-1.1-2.6-2.5-2.7
			c-1.6-0.2-2.7,0.6-3.4,2.5h-2c0-1.5-0.1-2.9,0-4.3s1.6-2.4,3-2.3c4.1,0.4,8-0.4,11.9-1.2c5.8-1.2,11.7-1.9,17.7-1.9
			c2.1,0,4.1,0.8,5.7,2.2c0.9,0.7,1.6,1.6,1.6,3c-0.5,0-0.9,0-1.3,0.1c-0.1-0.5-0.1-0.9-0.2-1.3h-0.1c0,0.4,0,0.8-0.1,1.3
			c-0.3-0.1-0.6-0.2-0.8-0.3l0,0l0,0c-0.4,0-0.8,0.1-1.2,0c-0.9-0.3-1.7-0.1-2.2,0.6c-0.5,0.7-0.5,1.5,0,2.1
			c0.6,0.7,1.4,0.9,2.3,0.5c0.3-0.1,0.7-0.3,1.1-0.4c-0.1,0.3-0.1,0.5-0.2,0.7l0,0l0,0c0.3-0.2,0.6-0.4,1-0.8
			c0.1,0.8,0.1,1.4,0.2,2.1c0.1,0,0.1,0,0.2,0v-1.9h1.2v8.4c-0.6,0-1,0.1-1.5,0.1c0-0.6,0.1-1,0.1-1.5c-0.1,0-0.1,0-0.2,0
			c-0.1,0.5-0.1,0.9-0.2,1.6c-0.9-1-1.9-1.6-3.1-1.3c-0.6,0.2-1.2,0.5-1.5,1c-1,1.1-0.8,2.6,0.2,3.6c1.2,1.2,2.6,1.1,4.3-0.3
			c0.1,0.5,0.1,1,0.2,1.5c0.1,0,0.1,0,0.2,0v-1.7h1.4c0,0.7-0.1,1.4,0,2.2c0.2,1.8,0.5,3.7,0.7,5.5c1.1-0.5,2.1-1,3.2-1.5
			c0.7-0.3,1.4-0.4,1.8,0.4c0.4,0.8-0.1,1.2-0.8,1.6c-2,1-4.1,2-6.1,3c-0.7,0.3-1.4,0.4-1.7-0.3c-0.4-0.8,0-1.3,0.7-1.7
			c0.9-0.4,1.9-0.9,2.8-1.4c-0.3,0-0.6,0.1-1,0.1c-0.1-0.3-0.3-0.7-0.4-1.1c-0.1,0-0.1,0-0.1,0c0.1,0.4,0.2,0.8,0.3,1.5
			c-1.2-0.5-2.4-0.9-3.4,0.1c-0.5,0.5-0.9,1.1-1.1,1.7c-0.4,1.2,0.6,2.6,1.8,3.1c1.5,0.6,2.8-0.2,3.8-2.4c0.4,0.6,0.8,1.1,1.1,1.6
			c0.1,0,0.1-0.1,0.2-0.1c-0.3-0.5-0.7-1.1-1.1-1.7c0.4-0.2,0.7-0.4,1.1-0.6c1.3,2.2,3.3,3.5,5.2,4.9c0.5,0.3,0.5,0.6,0.3,1.1l0,0
			l0,0c0.9-1.2,1.7-2.4,2.6-3.6c-0.5,0.4-1,0.3-1.4-0.2c-1.1-1.2-2.2-2.5-3.2-3.6c1.2-1.6,0.9-2.3-0.7-2.9c-0.2-0.1-0.4-0.3-0.5-0.5
			c-0.3-1.8-0.5-3.6-0.8-5.3c0.2,0.1,0.3,0.1,0.5,0.2c0.4-0.5,1-0.8,1.3-1.4 M673.4,1129.6c-1.4-0.4-2.2-1.8-1.8-3.1
			c0.4-1.2,1.9-2.3,3.6-1.3c-0.6,0.1-0.9,0.2-1.3,0.2c-0.9,0.1-1.5,0.6-1.7,1.5c-0.1,0.9,0.2,1.5,0.9,1.9c0.8,0.4,1.6,0.3,2.1-0.4
			c-0.1,0-0.3,0-0.4,0.1c-1,0.5-1.8,0.3-2.3-0.5c-0.5-0.8-0.2-1.5,0.9-2.2c-0.1,0.3-0.2,0.5-0.3,0.6c-0.4,1,0.1,1.9,1.1,2
			c0.3,0,0.6,0,0.9,0l0,0c0.3-0.2,0.6-0.5,1-0.8C676.1,1129.1,674.7,1130,673.4,1129.6z M685.5,1130c-0.3,0.5-0.7,1-1.1,1.7
			c-2.1-1.5-4.3-2.8-5.6-5.2c0.9-0.5,1.8-0.9,2.5-1.2C682.7,1126.8,684,1128.4,685.5,1130z M679.5,1116.5c0.1,1.2,0.2,2.3,0.3,3.4
			c0,0.1,0,0.3,0,0.4c0.1,0.8,0.6,1.8,0.3,2.2c-0.5,0.7-1.5,0.9-2.4,1.4c-1-2.4-0.7-4.8-0.9-7.3
			C677.8,1116.6,678.6,1116.5,679.5,1116.5z M672,1113.5L672,1113.5L672,1113.5h-0.2c-0.2,0.1-0.4,0.2-0.6,0.5l0,0l0,0l0,0
			c0.2-0.1,0.5-0.1,0.7-0.2c0.1,0,0.2-0.1,0.3-0.1s0.1,0,0.2,0c-1.3,1.3-1.2,2,0.2,3c-1.5,0.1-2.2-0.9-1.6-2.2
			c0.1-0.1,0.1-0.3,0.1-0.4l0,0l0,0l0,0c-0.1,0.1-0.2,0.1-0.3,0.2c0,0,0,0-0.1,0.1l-0.1,0.1c0,0,0,0,0,0.1c0,0,0,0,0,0.1
			c0,0,0,0.1-0.1,0.1v0.1c0,0,0,0,0,0.1c0,0,0,0,0,0.1c-0.1,0.3,0,0.7,0.2,1c0.8,1.9,2.3,0.9,3.7,0.6c-0.8,1.1-1.6,1.5-2.7,1.2
			c-1-0.3-1.8-1.2-1.8-2.2c-0.1-1.1,0.5-2,1.6-2.5c1-0.4,1.9-0.1,2.7,0.8C673.5,1114,672.7,1113.5,672,1113.5z M677.3,1105.3
			c0.9-0.1,1.5-0.1,2.3-0.1v8.5h-2.3V1105.3z M676.2,1099.9c-0.4-0.6-1-1-1.8-1.7c1.6-0.2,2.9-0.4,4.2-0.4c0.2,0,0.7,0.5,0.7,0.7
			c-0.2,0.7-0.4,1.7-0.9,2C677.9,1100.7,676.9,1101,676.2,1099.9z M678.7,1096.7c1.3-0.1,1.7,0.6,1.7,1.8c0,2-0.9,2.9-3.2,3.1
			c-0.1-0.3-0.1-0.5-0.2-0.7c2-0.3,2.3-0.6,2.5-2.3c0.1-0.9-0.3-1.3-1.1-1.2c-1.1,0.1-2.3,0.3-3.4,0.4c-0.7,0.1-1.4,0-2.1,0
			c0-0.2,0-0.3,0-0.5C675,1097.1,676.8,1096.8,678.7,1096.7z M642.3,1128.1c1.2,0.3,2.2,1.4,2.1,2.7c-0.4,4.4-0.9,8.8-1.4,13.3
			c-0.2,1.5-1.3,2.4-2.7,2.3c-1.2-0.1-2.1-1.1-2.2-2.4c0.1-0.1,0.2-0.2,0.2-0.2c0.2,0.2,0.5,0.4,0.6,0.7c0.4,0.7,0.9,1.2,1.8,1
			c0.9-0.1,1.3-0.8,1.4-1.6c0.5-4.3,1-8.6,1.3-12.9c0-0.5-0.5-1.3-0.9-1.7c-0.6-0.5-1.2-0.2-1.8,0.3c-0.3,0.3-0.7,0.4-1.2,0.7
			C640.1,1128.5,641.2,1127.8,642.3,1128.1z M639.3,1144.3c0-0.1,0.1-0.2,0.1-0.3c0.7,0.1,1.3,0.1,2,0.2c0,0.1,0,0.3,0.1,0.4
			c-0.4,0.1-0.8,0.4-1.1,0.4C640,1144.9,639.7,1144.5,639.3,1144.3z M643.1,1130.2c-0.8,0-1.4-0.1-2.2-0.1
			C641.7,1129.2,642.1,1129.2,643.1,1130.2z M642.4,1105.1c1.2,0.2,2,1.2,2,2.7c0,4.3,0,8.6,0,12.9c0,1.4-0.9,2.5-2.2,2.7
			c-1.2,0.2-2.3-0.7-2.8-2.5c0.5,0.3,0.9,0.4,1,0.6c0.5,0.7,1.1,1.1,1.9,0.9c0.9-0.3,1.2-0.9,1.2-1.8c0-4.2,0-8.4,0-12.6
			c0-0.9-0.2-1.6-1.1-2c-0.8-0.3-1.5,0.1-2,0.8c-0.1,0.2-0.5,0.3-1,0.5C640.1,1105.5,641,1104.9,642.4,1105.1z M640.9,1121.1h2.2
			C642.3,1122.3,641.5,1122.3,640.9,1121.1z M642.9,1107.1H641C641.7,1106.1,642.2,1106.1,642.9,1107.1z M635.3,1120.4v-12.8h7.8
			v12.8H635.3z M633.7,1142.7c0.4-4.3,0.8-8.5,1.2-12.8c2.7,0.3,5.4,0.6,8.1,0.9c-0.5,4.3-0.9,8.5-1.3,12.8
			C639,1143.2,636.4,1143,633.7,1142.7z M632.8,1172.7c-0.7-4.2-0.8-8.5-0.5-12.8c0.1-1.9,0.3-3.8,0.4-5.8h2.4v-0.1
			c-0.7-0.1-1.4-0.2-2.1-0.3c-0.1-0.1-0.1-0.2-0.2-0.3c0.3-0.2,0.5-0.6,0.8-0.6c5.5,0.5,10.9,1.4,15.6,4.6c4,2.7,6.5,6.5,7.9,11.1
			c0.5,1.8,0.9,3.7,1.3,5.5c-0.9,0.2-0.9,0.2-1.5-1.5c0,0.5,0.1,1,0.1,1.7h-22.2C633.1,1174.2,633,1174.2,632.8,1172.7z
			 M757.6,1185.5h-1.1c-17.2,0-34.3,0.1-51.5-0.1c-2.4,0-4.8-0.8-7.1-1.5c-6.6-2.1-13.4-2.9-20.3-3.3c-1.5-0.1-3-0.2-4.6-0.3v5
			h-39.7v-9.4c0.3,0,0.6-0.1,1-0.1c12.6,0,25.2,0,37.9,0c8.1,0,16,0.8,24,2.4c6.3,1.2,12.6,1.8,19,1.8c13.7,0,27.3,0,41,0h1.5v5.5
			H757.6z M757.3,1179.8c-0.2,0-0.4,0-0.5,0c-14.2,0-28.3,0-42.5,0c-6.6,0-13.1-0.7-19.6-2c-8.1-1.6-16.3-2.2-24.5-2.2
			c-11.8,0-23.6,0-35.3,0h-1.5v-1.1h1.2c12,0,24,0,36.1,0c9.1,0,18.1,0.9,27,2.6c5.7,1.1,11.5,1.5,17.3,1.5c13.1,0,26.3,0,39.4,0
			h3.2c0,0.4,0,0.7,0.1,1C757.5,1179.7,757.4,1179.8,757.3,1179.8z"/>
		<path class="st23" d="M688.3,1130.4c-0.3,0.5-0.6,1-0.9,1.5c-0.3,0.3-0.5,0.7-0.8,1c-0.1,0.3-0.3,0.6-0.4,0.9
			c-0.2,0.4-0.5,0.8-0.7,1.1c-0.4,0.5-0.9,1-1.3,1.5c-0.5,0.6-1,1.1-1.7,0.6s-0.6-1.2-0.1-1.8c0.1-0.2,0.3-0.5,0.4-0.7l0,0l0,0l0,0
			l0,0c0.4-0.6,0.8-1.3,1.3-1.9l0,0l0,0c0.9-1.2,1.7-2.4,2.6-3.6c0.5,0,1.1-0.1,1.5,0.2C688.2,1129.4,688.2,1130,688.3,1130.4z"/>
		<path class="st23" d="M698.6,1136.7c-0.3,0.5-0.6,1-0.9,1.5c-0.2,0.3-0.5,0.6-0.7,1c-0.2,0.3-0.3,0.5-0.5,0.8
			c-0.1,0.1-0.3,0.2-0.3,0.3c-0.6,0.9-1.2,1.8-1.8,2.7c-0.4,0.5-1,0.7-1.6,0.3c-0.6-0.4-0.6-1-0.3-1.6c0.2-0.3,0.3-0.6,0.5-0.9l0,0
			l0,0l0,0c0.3-0.5,0.5-0.9,0.8-1.3c0.1-0.1,0.3-0.3,0.4-0.4c0.3-0.5,0.6-1,0.9-1.5c0.1-0.1,0.2-0.3,0.4-0.4c0.5-0.7,1-1.4,1.6-2
			C698.5,1135,698.9,1135.4,698.6,1136.7z"/>
		<path class="st23" d="M672,1104.9c-0.5-1.4-0.2-1.9,1.3-2c2.2-0.1,4.5-0.2,6.7-0.2c0.5,0,0.9,0.3,1.4,0.4c0.5,0.8,0.1,1.3-0.5,1.8
			c-2.5,0.1-4.9,0.2-7.4,0.2C673,1105.1,672.5,1104.9,672,1104.9L672,1104.9z"/>
		<path class="st22" d="M719.1,1146.9L719.1,1146.9c-1-0.2-1.5,0.2-2,1c-0.8,1.2-1.8,2.4-2.6,3.7l0,0l0,0c0.1-0.3,0.3-0.6,0.4-1
			c-2.5-1.4-4.9-2.9-7.3-4.2c-0.2-0.1-0.6,0.1-1,0.1c0.3-0.5,0.6-1,1-1.6c-0.3,0.6-0.1,0.9,0.5,1.2c1.4,0.7,2.7,1.5,4,2.3
			c1,0.6,2.1,1.2,3.2,1.8c0.4-0.6,0.7-1,1.1-1.6c-2.7-1.6-5.2-3.1-7.8-4.6c-0.2,0.2-0.4,0.3-0.6,0.5c0.3-0.5,0.6-0.9,0.9-1.4h0.1
			c0.1,0.3,0.1,0.6,0.3,0.7c2.4,1.5,4.9,2.9,7.3,4.3C717.2,1147.7,717.5,1145.9,719.1,1146.9z"/>
		<path class="st22" d="M704.2,1145.4c0.1-0.3,0.2-0.6,0.2-0.9c-1.8-1.1-3.6-2.1-5.4-3.2c-0.8-0.5-1.7-0.9-2.5-1.3l0,0l0,0
			c0.2-0.3,0.3-0.5,0.5-0.8c0.1,0.2,0.2,0.5,0.4,0.6c2.5,1.5,4.9,2.9,7.5,4.4c0.4-0.6,0.7-1.1,1.1-1.6c-2.5-1.5-5-3-7.5-4.5
			c-0.2-0.1-0.5,0.1-0.8,0.2c0.3-0.5,0.6-1,0.9-1.5c-0.2,0.6,0,0.9,0.6,1.3c2.3,1.3,4.6,2.8,6.9,4.2c0.3-0.3,0.6-0.6,0.9-0.8
			C706.1,1142.7,705.2,1144.1,704.2,1145.4z"/>
		<path d="M707,1141.3L707,1141.3L707,1141.3L707,1141.3z"/>
		<path class="st22" d="M697,1135.2c-0.5,0.7-1,1.4-1.6,2c0.1-0.3,0.2-0.6,0.2-0.9c-2.6-1.6-5.1-3.2-7.7-4.9
			c-0.2,0.1-0.4,0.3-0.6,0.5c0.3-0.5,0.6-1,0.9-1.5c0.2,0.3,0.2,0.8,0.5,1c2.4,1.6,4.8,3.1,7.1,4.5
			C696.3,1135.7,696.6,1135.4,697,1135.2z"/>
		<path class="st24" d="M707,1141.3c0.6-0.8,1.3-0.7,1.8-0.1c0.7,0.7,0.6,1.4-0.1,2.1h-0.1c0.2-0.6,0.7-1.3,0-1.8
			C708.3,1141.1,707.6,1141.3,707,1141.3L707,1141.3z"/>
		<path class="st25" d="M634.9,1129.9c2.7,0.3,5.4,0.6,8.1,0.9c-0.5,4.3-0.9,8.5-1.3,12.8c-2.7-0.3-5.3-0.6-8-0.8
			C634.1,1138.4,634.5,1134.2,634.9,1129.9z"/>
		<path class="st25" d="M643.1,1120.4c-2.6,0-5.1,0-7.8,0c0-4.3,0-8.5,0-12.8c2.5,0,5.1,0,7.8,0
			C643.1,1111.9,643.1,1116.1,643.1,1120.4z"/>
		<path class="st20" d="M638.3,1143.7c0.2,0.2,0.5,0.4,0.6,0.7c0.4,0.7,0.9,1.2,1.8,1c0.9-0.1,1.3-0.8,1.4-1.6
			c0.5-4.3,1-8.6,1.3-12.9c0-0.5-0.5-1.3-0.9-1.7c-0.6-0.5-1.2-0.2-1.8,0.3c-0.3,0.3-0.7,0.4-1.2,0.7c0.6-1.6,1.7-2.3,2.9-2.1
			c1.2,0.3,2.2,1.4,2.1,2.7c-0.5,4.4-0.9,8.8-1.4,13.3c-0.2,1.5-1.3,2.4-2.7,2.3c-1.2-0.1-2.1-1.1-2.2-2.4
			C638.2,1143.8,638.2,1143.8,638.3,1143.7z"/>
		<path class="st20" d="M639.5,1107.3c0.6-1.8,1.6-2.5,2.9-2.3c1.2,0.2,2,1.2,2,2.7c0,4.3,0,8.6,0,12.9c0,1.4-0.9,2.5-2.2,2.7
			c-1.2,0.2-2.3-0.7-2.8-2.5c0.5,0.3,0.9,0.4,1,0.6c0.5,0.7,1.1,1.1,1.9,0.9c0.9-0.3,1.2-0.9,1.2-1.8c0-4.2,0-8.4,0-12.6
			c0-0.9-0.2-1.6-1.1-2c-0.8-0.3-1.5,0.1-2,0.8C640.3,1107,640,1107.1,639.5,1107.3z"/>
		<path class="st23" d="M719,1149c-0.4,0.6-0.7,1.2-1.1,1.8c-0.1,0.1-0.2,0.2-0.3,0.3c-0.2,0.3-0.4,0.6-0.6,0.9
			c-0.1,0.1-0.2,0.2-0.4,0.4c-0.3,0.5-0.6,0.9-0.8,1.4l0,0l0,0l0,0c-0.3,0.3-0.5,0.7-0.8,0.8c-0.4,0.2-1.1,0.5-1.4,0.3
			c-0.3-0.2-0.3-0.9-0.4-1.4c0-0.2,0.2-0.5,0.3-0.7c0.3-0.4,0.6-0.9,0.8-1.3l0,0l0,0c0.9-1.2,1.8-2.4,2.6-3.7c0.5-0.7,1.1-1.2,2-0.9
			C719.6,1147.7,719.6,1148.3,719,1149z"/>
		<path class="st23" d="M680,1114l1.4,0.3c0.7,1.4,0.1,1.9-1.5,2c-2.1,0.1-4.3,0.1-6.4,0.2c-0.8,0-1.5-0.1-1.6-1.1
			c0-0.9,0.7-1.1,1.4-1.2c2.2-0.1,4.6-0.2,6.8-0.2"/>
		<path class="st23" d="M681.4,1124.9c-2,1-4.1,2-6.1,3c-0.7,0.3-1.4,0.4-1.7-0.3c-0.4-0.8,0-1.3,0.7-1.7c0.9-0.4,1.9-0.9,2.8-1.4
			h0.1c1.1-0.5,2.1-1,3.2-1.5c0.7-0.3,1.4-0.4,1.8,0.4C682.6,1124.1,682.1,1124.5,681.4,1124.9z"/>
		<path class="st19" d="M721.1,1154.2c-1.3-0.8-2.6-1.4-4-2c-0.1,0.1-0.2,0.2-0.4,0.4c0,0.6,0,1.3-0.1,1.9c-0.1,0.7-0.4,1.4-0.7,2
			c-0.2,0.4-0.4,0.9-0.7,1c-0.6,0.2-1.3,0.3-1.8,0.1c-1.1-0.5-2.2-1.3-2.2-2.8c-0.1-1.1,0.7-2.2,2-2.7c0.4-0.2,0.9-0.3,1.3-0.4
			c0.1-0.3,0.3-0.6,0.4-1c-2.5-1.4-4.9-2.9-7.3-4.2c-0.2-0.1-0.6,0.1-1,0.1c-0.1,0.1-0.2,0.2-0.4,0.4c0,0.7,0,1.4,0,2.1
			c0,1-0.9,2.1-1.9,2.4c-1.1,0.3-2.2,0-2.9-0.9c-0.8-1-0.8-1.9-0.2-3c0.7-0.7,1.3-1.5,2.4-1.3c0.2-0.3,0.4-0.5,0.6-0.8
			c0.1-0.3,0.2-0.6,0.2-0.9c-1.8-1.1-3.6-2.1-5.4-3.2c-0.8-0.5-1.7-0.9-2.5-1.3c0,0.5-1.2,1.1,0,1.6c-0.3-0.1-0.5-0.2-0.8-0.3
			c0,2.9-0.7,4-2.5,4.2c-1.3,0.1-2.7-1-2.9-2.2c-0.3-1.7,0.6-2.8,3-3.4c-0.7-0.5-1.4-0.9-2.1-1.3c0-0.1,0.1-0.1,0.1-0.2
			c0.5,0.3,1,0.6,1.5,0.9c0.3,0.1,0.6,0.1,0.9,0.2c0.1-0.1,0.3-0.3,0.4-0.4c-0.1-0.3-0.2-0.6-0.4-0.8c-2.3-1.5-4.7-3-7.1-4.4
			c-0.1-0.1-0.4,0-0.6-0.1c-0.2,0.4-0.5,0.8-0.7,1.1c0,0.4-0.1,0.7-0.1,1.1c0.2,1.5-0.7,3-2.2,3.3c-1.4,0.3-2.9-0.8-3.2-2.3
			c-0.3-1.4,0.8-2.8,2.3-3.1c0.6-0.1,1.1-0.2,0.6-0.9c0.3-0.1,0.6-0.2,1-0.4c0.2-0.4,0.1-0.7-0.3-1.1c-1.9-1.4-3.9-2.7-5.2-4.9
			c-0.4,0.2-0.7,0.4-1.1,0.6c0.4,0.6,0.7,1.2,1.1,1.7c-0.1,0-0.1,0.1-0.2,0.1c-0.4-0.5-0.8-1.1-1.1-1.6c-1.1,2.2-2.3,3-3.8,2.4
			c-1.2-0.4-2.2-1.9-1.8-3.1c0.2-0.6,0.6-1.3,1.1-1.7c1-0.9,2.2-0.6,3.4-0.1c-0.1-0.6-0.2-1.1-0.3-1.5c0.1,0,0.1,0,0.1,0
			c0.1,0.4,0.3,0.7,0.4,1.1c0.4,0,0.7-0.1,1-0.1h0.1c-0.2-1.8-0.5-3.7-0.7-5.5c-0.1-0.7,0-1.5,0-2.2H675v1.7c-0.1,0-0.1,0-0.2,0
			c-0.1-0.5-0.1-1-0.2-1.5c-1.8,1.4-3.2,1.5-4.3,0.3c-1-1-1.1-2.5-0.2-3.6c0.4-0.4,1-0.8,1.5-1c1.2-0.3,2.2,0.3,3.1,1.3
			c0.1-0.7,0.1-1.2,0.2-1.6c0.1,0,0.1,0,0.2,0c0,0.5-0.1,0.9-0.1,1.5c0.5,0,0.9-0.1,1.5-0.1v-8.4h-1.2v1.9c-0.1,0-0.1,0-0.2,0
			c-0.1-0.7-0.1-1.3-0.2-2.1c-0.5,0.3-0.7,0.6-1,0.8l0,0c-0.7,0.8-1.7,1.1-2.7,0.7c-1.1-0.4-2-1.7-1.9-2.8s1-2.3,2.1-2.5
			c1.1-0.3,2.1,0.1,2.7,1l0,0c0.2,0.1,0.5,0.2,0.8,0.3c0-0.5,0-0.9,0.1-1.3h0.1c0,0.4,0.1,0.8,0.2,1.3c0.5,0,0.9,0,1.3-0.1
			c0.1-1.4-0.6-2.3-1.6-3c-1.6-1.4-3.6-2.2-5.7-2.2c-5.9,0-11.8,0.7-17.7,1.9c-3.9,0.8-7.8,1.6-11.9,1.2c-1.4-0.1-2.8,1-3,2.3
			c-0.2,1.4,0,2.8,0,4.3h2c0.7-1.9,1.8-2.7,3.4-2.5c1.3,0.2,2.4,1.3,2.5,2.7c0,4.6,0,9.1,0,13.7c0,1.3-0.8,2.1-1.9,2.6
			c-1,0.5-2.1,0.2-2.8-0.5c-0.5-0.5-0.8-1.2-1.3-1.9h-1.5c-0.1,2.9-0.2,5.6-0.3,8.5c0.7,0.1,1.4,0.1,1.9,0.2
			c0.5-0.6,0.8-1.2,1.3-1.6c0.9-0.7,2-0.9,3-0.2c1.2,0.7,1.7,1.8,1.5,3.2c-0.3,2.7-0.6,5.5-0.9,8.3c-0.2,1.7-0.3,3.3-0.6,5
			c-0.2,1.4-1.4,2.2-2.8,2.3c-1.1,0.1-2.3-0.8-2.8-1.9c-0.5-1.3-0.8-1.4-2.1-1.1c-0.5,2.9-1,5.8-1.5,8.7c1.9,0.3,3.8,0.5,5.7,0.9
			c10.5,2,16.5,8.3,18.4,18.4c0.5,2.5,0.4,2.5,3,2.5c0.5,0,0.9-0.2,1.3-0.2c0.4,0.1,0.9,0.2,1.4,0.3c0.2-2.7,1.5-4.5,3.4-6
			c1.5-1.1,3.1-2.2,4.8-3c8.5-4.1,17.5-5.9,26.9-6.1c4.6-0.1,9.2-0.2,13.8-0.2c3.1,0,5.7-1.1,7.9-3.3
			C721.2,1155.2,721.8,1154.6,721.1,1154.2z M717,1153.7c0-0.1,0.1-0.2,0.1-0.2c0.9,0.5,1.7,0.9,2.7,1.4c0-0.3,0.1-0.4,0.1-0.6
			c0.1,0,0.1,0,0.2,0c0.1,0.3,0.2,0.6,0.4,1.2C719.1,1154.8,718,1154.3,717,1153.7z"/>
		<path class="st24" d="M674.3,1105.2c-0.1,0.3-0.1,0.5-0.2,0.7c-0.2,0.1-0.4,0.2-0.6,0.3c-1.4,0.7-2.8,0.2-3.4-1.2
			c-0.6-1.2,0-2.6,1.3-3.2c1.1-0.5,2,0,2.9,0.6c-0.4,0-0.8,0.1-1.2,0c-0.9-0.3-1.7-0.1-2.2,0.6s-0.5,1.5,0,2.1
			c0.6,0.7,1.4,0.9,2.3,0.5C673.5,1105.5,673.9,1105.4,674.3,1105.2z"/>
		<path class="st26" d="M674.2,1105.9L674.2,1105.9C674.1,1106,674.1,1106,674.2,1105.9C674.1,1105.9,674.1,1105.9,674.2,1105.9
			C674.1,1105.9,674.1,1105.9,674.2,1105.9z"/>
		<path class="st26" d="M674.4,1102.4C674.3,1102.4,674.3,1102.4,674.4,1102.4C674.3,1102.3,674.3,1102.3,674.4,1102.4L674.4,1102.4
			L674.4,1102.4z"/>
		<path class="st24" d="M671.2,1114.1c-0.8,0.5-0.8,1.2-0.5,1.9c0.8,1.9,2.3,0.9,3.7,0.6c-0.8,1.1-1.6,1.5-2.7,1.2
			c-1-0.3-1.8-1.2-1.8-2.2c-0.1-1.1,0.5-2,1.6-2.5c1-0.4,1.9-0.1,2.7,0.8C673.2,1114,672,1112.9,671.2,1114.1L671.2,1114.1z"/>
		<path class="st24" d="M675.3,1128.4c0.3-0.2,0.6-0.5,1-0.8c-0.3,1.6-1.6,2.4-2.9,2.1c-1.4-0.4-2.2-1.8-1.8-3.1
			c0.4-1.2,1.9-2.3,3.6-1.3c-0.6,0.1-0.9,0.2-1.3,0.2c-0.9,0.1-1.5,0.6-1.7,1.5c-0.1,0.9,0.2,1.5,0.9,1.9
			C674,1129.2,674.8,1129.2,675.3,1128.4L675.3,1128.4z"/>
		<path class="st24" d="M672,1104.9c0.2,0.2,0.3,0.5,0.4,0.6c-0.9,0.1-1.6-0.4-1.6-1.3c-0.1-0.8,0.5-1.5,1.6-1.6
			c-0.3,0.4-0.7,0.7-0.7,1.1C671.6,1104.1,671.9,1104.5,672,1104.9L672,1104.9z"/>
		<path class="st24" d="M675.3,1128.4c-0.1,0-0.3,0-0.4,0.1c-1,0.5-1.8,0.3-2.3-0.5s-0.2-1.5,0.9-2.2c-0.1,0.3-0.2,0.5-0.3,0.6
			c-0.4,1,0.1,1.9,1.1,2C674.7,1128.4,675,1128.4,675.3,1128.4L675.3,1128.4z"/>
		<path class="st24" d="M671.1,1114.1c0.4-0.1,0.8-0.2,1.3-0.3c-1.3,1.3-1.2,2,0.2,3c-1.5,0.1-2.2-0.9-1.6-2.2
			C671.1,1114.4,671.1,1114.3,671.1,1114.1C671.2,1114.1,671.1,1114.1,671.1,1114.1z"/>
		<path class="st19" d="M643,1121.1c-0.7,1.2-1.5,1.1-2.2,0C641.6,1121.1,642.3,1121.1,643,1121.1z"/>
		<path class="st19" d="M639.5,1144c0.7,0.1,1.3,0.1,2,0.2c0,0.1,0,0.2,0.1,0.4c-0.4,0.1-0.8,0.4-1.1,0.4c-0.4-0.1-0.7-0.4-1.1-0.7
			C639.4,1144.2,639.4,1144.1,639.5,1144z"/>
		<path class="st19" d="M641,1107.1c0.7-1,1.2-1,1.9,0C642.3,1107.1,641.7,1107.1,641,1107.1z"/>
		<path class="st19" d="M640.9,1130.1c0.9-0.9,1.3-0.9,2.2,0.1C642.3,1130.2,641.7,1130.1,640.9,1130.1z"/>
		<path class="st22" d="M685.4,1135c-0.4,0.5-0.9,1-1.3,1.5c-0.5,0.6-1,1.1-1.7,0.6s-0.6-1.2-0.1-1.8c0.1-0.2,0.3-0.5,0.4-0.7l0,0
			l0,0c0.4-0.6,0.8-1.3,1.3-1.9l0,0l0,0c-0.3,0.1-0.6,0.3-1,0.4c0.5,0.7,0,0.8-0.6,0.9c-1.5,0.3-2.6,1.7-2.3,3.1
			c0.3,1.5,1.8,2.6,3.2,2.3c1.5-0.3,2.5-1.8,2.2-3.3C685.3,1135.7,685.4,1135.3,685.4,1135z M683.4,1139c-1.3,0.4-2.8-0.4-3.2-1.7
			c-0.3-1.3,0.5-2.7,1.8-3c0,0,0,0,0.1,0c0,0,0,0,0.1,0c0,0,0.1,0,0.1,0.1c0,0,0,0,0.1,0c0.1,0.1,0.2,0.1,0.2,0.2
			c-0.3,0.2-0.7,0.5-1,0.7c0,0.1,0.1,0.3,0.1,0.4c0.1,1.8,0.7,2.2,2.4,1.6c-0.5,0.9-1.2,1.1-2,0.8s-1.1-1.2-0.8-2l0.3-0.7
			c-0.1,0-0.1,0.1-0.2,0.1c-0.2,0.2-0.4,0.4-0.5,0.7c0,0,0,0,0,0.1v0.1c0,0,0,0,0,0.1c0,0.3,0,0.7,0.2,1c0.3,0.8,1,1.1,1.9,1
			s1.4-0.7,1.6-1.6c0-0.3,0.2-0.6,0.4-1.1C685.4,1137.3,684.7,1138.6,683.4,1139z"/>
		<path class="st22" d="M695,1137.6c-0.3,0.5-0.6,1-0.9,1.5c-0.1-0.3-0.2-0.6-0.4-0.8c-2.3-1.5-4.7-3-7.1-4.4
			c-0.1-0.1-0.4,0-0.6-0.1c0.1-0.3,0.3-0.6,0.4-0.9c0.2,0.3,0.4,0.6,0.7,0.7c2.2,1.4,4.3,2.7,6.5,4.1
			C694.3,1138.2,694.7,1138.1,695,1137.6z"/>
		<path class="st22" d="M696.5,1140L696.5,1140L696.5,1140L696.5,1140c-0.2,0.1-0.3,0.1-0.4,0.3c-0.6,0.9-1.2,1.8-1.8,2.7
			c-0.4,0.5-1,0.7-1.6,0.3c-0.6-0.4-0.6-1-0.3-1.6c0.2-0.3,0.3-0.6,0.5-0.9l0,0l0,0c0.3-0.5,0.5-0.9,0.8-1.3
			c-0.3-0.1-0.7-0.1-0.9-0.2c-0.5-0.3-1-0.6-1.5-0.9c0,0.1-0.1,0.1-0.1,0.2c0.7,0.4,1.4,0.9,2.1,1.3c-2.4,0.6-3.3,1.7-3,3.4
			c0.2,1.3,1.6,2.4,2.9,2.2c1.8-0.2,2.4-1.3,2.5-4.2c0.3,0.1,0.6,0.2,0.8,0.3C695.4,1141.1,696.5,1140.6,696.5,1140z M694.4,1143.7
			c-0.4,0.2-0.9,0.7-1.3,0.6c-0.5,0-1.1-0.4-1.3-0.8c-0.2-0.4-0.1-1.1-0.1-1.6c0.1,0,0.2,0,0.3,0
			C692.1,1143.7,692.7,1144.1,694.4,1143.7z M693.8,1145.2c-1.2,0.4-2.7-0.3-3.1-1.6c-0.4-1.2,0.3-2.6,1.5-3.1c0.1,0,0.1,0,0.2,0
			c0,0,0.1,0,0.1,0.1c0.1,0,0.1,0.1,0.2,0.1c0,0,0.1,0,0.1,0.1c0.1,0,0.1,0.1,0.2,0.1c-0.3,0.2-0.6,0.3-0.8,0.5
			c-0.8,0.5-1.1,1.2-0.8,2.1c0.3,0.8,0.9,1.3,1.8,1.2c0.9,0,1.5-0.5,1.7-1.4c0.1-0.4,0.2-0.8,0.4-1.3
			C695.7,1143.5,695.1,1144.8,693.8,1145.2z"/>
		<path class="st23" d="M708.7,1143.2c-0.3,0.5-0.6,0.9-0.9,1.4c-0.1,0.1-0.2,0.2-0.3,0.3c-0.3,0.5-0.6,1-1,1.6
			c-0.1,0.1-0.2,0.2-0.4,0.4c-0.5,0.8-1.1,1.5-1.6,2.3c-0.2,0-0.5,0.1-0.7,0.1s-0.5,0.1-0.7,0.1l0,0l0,0l0,0
			c-0.1-0.1-0.2-0.3-0.3-0.4l0,0c-0.3-0.5-0.2-1,0.2-1.6c0.2-0.3,0.3-0.6,0.4-0.9c0-0.1,0.1-0.1,0.1-0.2c0.2-0.3,0.4-0.5,0.6-0.8
			c0.9-1.4,1.8-2.7,2.7-4.1c0,0,0,0,0-0.1l0,0c0.6,0,1.2-0.1,1.7,0.1C709.4,1141.9,708.9,1142.6,708.7,1143.2z"/>
		<path class="st24" d="M705.1,1150.6c-0.8,0.7-1.7,0.8-2.6,0.4c-1-0.5-1.6-1.5-1.5-2.5c0-0.3,0.1-0.7,0.1-1
			c0.7-0.7,1.3-1.5,2.4-1.3c0,0.1-0.1,0.1-0.1,0.2c-0.3,0.2-0.6,0.5-0.9,0.7c-0.8,0.5-1.1,1.2-0.8,2.2c0.3,0.8,0.9,1.2,1.8,1.2
			c1,0,1.5-0.6,1.8-1.5c0.1-0.3,0.2-0.7,0.4-1.2C706.1,1149,705.9,1149.9,705.1,1150.6z"/>
		<path d="M703.1,1149.3c-0.1-0.1-0.2-0.3-0.3-0.4C702.9,1149.1,703,1149.2,703.1,1149.3z"/>
		<path class="st22" d="M706.2,1149c0,1-0.9,2.1-1.9,2.4c-1.1,0.3-2.2,0-2.9-0.9c-0.8-1-0.8-1.9-0.2-3c0,0.3-0.1,0.7-0.1,1
			c-0.1,1,0.5,2,1.5,2.5s1.8,0.3,2.6-0.4s1-1.6,0.6-2.7c-0.2,0.5-0.3,0.8-0.4,1.2c-0.3,0.9-0.8,1.5-1.8,1.5c-0.9,0-1.5-0.4-1.8-1.2
			c-0.3-0.9,0-1.6,0.8-2.2c0.3-0.2,0.6-0.5,0.9-0.7c-0.1,0.3-0.2,0.6-0.4,0.9c-0.4,0.6-0.5,1.1-0.2,1.6c-0.1-0.1-0.1-0.2-0.2-0.2
			c-0.1-0.1-0.1-0.2-0.2-0.2c-0.1-0.2-0.2-0.3-0.3-0.5c-0.4,0.8-0.3,1.6,0.5,2c0.7,0.4,1.6,0.2,2-0.4c0.1-0.1-0.1-0.3-0.1-0.5
			c0.5-0.8,1.1-1.5,1.6-2.3C706.2,1147.6,706.2,1148.3,706.2,1149z"/>
		<path d="M715.9,1153.9L715.9,1153.9L715.9,1153.9z"/>
		<path class="st22" d="M716.7,1154.4c-0.1,0.7-0.4,1.4-0.7,2c-0.2,0.4-0.4,0.9-0.7,1c-0.6,0.2-1.3,0.3-1.8,0.1
			c-1.1-0.5-2.2-1.3-2.2-2.8c-0.1-1.1,0.7-2.2,2-2.7c0.4-0.2,0.9-0.3,1.3-0.4l0,0l0,0c-0.3,0.4-0.6,0.9-0.8,1.3h-0.1
			c0-0.2,0.1-0.4,0.2-0.6c-1.5,0.1-2.4,1.2-2.3,2.7c0.1,1.3,1.5,2.3,2.9,2.1c1.3-0.2,2.3-1.6,2-2.9l0,0l0,0l0,0l0,0
			c-0.1-0.1-0.2-0.1-0.3-0.2c0.3-0.5,0.6-0.9,0.8-1.4C716.7,1153.2,716.8,1153.8,716.7,1154.4z"/>
		<path class="st22" d="M670.1,1105c0.7,1.4,2.1,1.9,3.4,1.2c0.2-0.1,0.4-0.2,0.6-0.3l0,0l0,0c-0.7,0.8-1.7,1.1-2.7,0.7
			c-1.1-0.4-2-1.7-1.9-2.8s1-2.3,2.1-2.5c1.1-0.3,2.1,0.1,2.7,1l0,0c0,0,0,0-0.1,0c-0.9-0.6-1.8-1.1-2.9-0.6
			C670.1,1102.4,669.5,1103.8,670.1,1105z"/>
		<path class="st22" d="M720.4,1155.5c-1.3-0.7-2.4-1.3-3.4-1.8c0-0.1,0.1-0.2,0.1-0.2c0.9,0.5,1.7,0.9,2.7,1.4
			c0-0.3,0.1-0.4,0.1-0.6c0.1,0,0.1,0,0.2,0C720.1,1154.6,720.2,1154.9,720.4,1155.5z"/>
		<path class="st22" d="M713.6,1152.9c-0.1,0.2-0.4,0.5-0.3,0.7c0,0.5,0.1,1.2,0.4,1.4c0.3,0.2,1,0,1.4-0.3c0.3-0.2,0.5-0.6,0.8-0.9
			l0,0c-0.1,0.3-0.1,0.5-0.2,0.8c-0.2,1.2-0.8,1.8-1.9,1.7c-0.9,0-1.5-0.5-1.7-1.4C711.9,1154,712.4,1153.3,713.6,1152.9
			L713.6,1152.9z M715.1,1155.5c-2.1,0.2-2.1-0.6-2.3-1.9c-0.6,0.9-0.5,1.8,0.2,2.3C713.8,1156.4,714.4,1156.2,715.1,1155.5z"/>
		<path class="st24" d="M681.6,1135.2c-0.8,0.5-0.9,1.3-0.6,2.1c0.3,0.8,1,1.1,1.9,1c0.9-0.1,1.4-0.7,1.6-1.6c0-0.3,0.2-0.6,0.4-1.1
			c0.5,1.5-0.1,2.8-1.4,3.3c-1.3,0.4-2.8-0.4-3.2-1.7c-0.3-1.3,0.5-2.7,1.8-3c0.1,0,0.3,0.2,0.5,0.3l0,0
			C682.3,1134.8,681.9,1135,681.6,1135.2L681.6,1135.2z"/>
		<path class="st24" d="M681.6,1135.2c0,0.1,0.1,0.3,0.1,0.4c0.1,1.8,0.7,2.2,2.4,1.6c-0.5,0.9-1.2,1.1-2,0.8s-1.1-1.2-0.8-2
			C681.4,1135.7,681.5,1135.5,681.6,1135.2L681.6,1135.2z"/>
		<path class="st24" d="M693,1140.8c-0.3,0.2-0.6,0.3-0.9,0.5c-0.8,0.5-1.1,1.2-0.8,2.1c0.3,0.8,0.9,1.3,1.8,1.2
			c0.9,0,1.5-0.5,1.7-1.4c0.1-0.4,0.2-0.8,0.4-1.3c0.5,1.6-0.1,2.8-1.4,3.3c-1.2,0.4-2.7-0.3-3.1-1.6c-0.4-1.2,0.3-2.6,1.5-3.1
			C692.4,1140.5,692.7,1140.7,693,1140.8C692.9,1140.8,693,1140.8,693,1140.8z"/>
		<path class="st24" d="M691.9,1141.9c0.2,1.7,0.8,2.1,2.5,1.8c-0.4,0.2-0.9,0.7-1.3,0.6c-0.5,0-1.1-0.4-1.3-0.8
			c-0.2-0.4-0.1-1.1-0.1-1.6C691.7,1141.9,691.8,1141.9,691.9,1141.9z"/>
		<path class="st24" d="M704.6,1149.1c0,0.2,0.2,0.4,0.1,0.5c-0.4,0.7-1.3,0.8-2,0.4c-0.8-0.5-0.9-1.2-0.5-2
			c0.3,0.4,0.6,0.9,0.9,1.3C703.6,1149.3,704.1,1149.2,704.6,1149.1z"/>
		<path class="st24" d="M713.6,1152.8c-1.2,0.5-1.7,1.2-1.4,2.2c0.2,0.9,0.8,1.4,1.7,1.4c1,0,1.6-0.5,1.9-1.7
			c0.1-0.3,0.1-0.5,0.2-0.8c0.1,0.1,0.4,0.1,0.4,0.3c0.3,1.2-0.7,2.7-2,2.9c-1.3,0.2-2.8-0.8-2.9-2.1c-0.2-1.5,0.8-2.6,2.3-2.7
			C713.7,1152.4,713.6,1152.6,713.6,1152.8z"/>
		<path class="st24" d="M715.1,1155.5c-0.6,0.8-1.3,0.9-2,0.4s-0.8-1.3-0.2-2.3C712.9,1154.9,712.9,1155.7,715.1,1155.5z"/>
	</g>
	<g>
		<path class="st19" d="M628.1,1168.3c0,1.8,0,3.5,0,5.3c-0.4,0-0.7,0-1.1,0c-17.2,0-34.3,0.1-51.5-0.1c-2.4,0-4.8-0.8-7.1-1.5
			c-6.6-2.1-13.4-2.9-20.3-3.3c-1.5-0.1-3-0.2-4.6-0.3c0,1.7,0,3.3,0,5c-13.3,0-26.5,0-39.7,0c0-3.1,0-6.2,0-9.4
			c0.3,0,0.6-0.1,1-0.1c12.6,0,25.2,0,37.9,0c8.1,0,16,0.8,24,2.4c6.3,1.2,12.6,1.8,19,1.8c13.7,0,27.3,0,41,0
			C627,1168.3,627.5,1168.3,628.1,1168.3z"/>
		<path class="st19" d="M503.8,1163.8c0-0.4,0-0.7,0-1.1c0.4,0,0.8,0,1.2,0c12,0,24,0,36.1,0c9.1,0,18.1,0.9,27,2.6
			c5.7,1.1,11.5,1.5,17.3,1.5c13.1,0,26.3,0,39.4,0c1,0,2.1,0,3.2,0c0,0.4,0,0.7,0.1,1c-0.2,0.1-0.2,0.1-0.3,0.1c-0.2,0-0.4,0-0.5,0
			c-14.2,0-28.3,0-42.5,0c-6.6,0-13.1-0.7-19.6-2c-8.1-1.6-16.3-2.2-24.5-2.2c-11.8,0-23.6,0-35.3,0
			C504.9,1163.8,504.4,1163.8,503.8,1163.8z"/>
		<path class="st20" d="M503.1,1142.3c1,0,1.7,0,2.4,0v-0.1c-0.7-0.1-1.4-0.2-2.1-0.3c-0.1-0.1-0.1-0.2-0.2-0.2
			c0.3-0.2,0.5-0.6,0.8-0.6c5.5,0.5,10.9,1.4,15.6,4.6c4,2.7,6.5,6.5,7.9,11.1c0.5,1.8,0.8,3.7,1.3,5.5c-0.9,0.2-0.9,0.2-1.5-1.5
			c0,0.5,0.1,1,0.1,1.7c-0.5,0-0.9,0-1.3,0c-7,0-14,0-21,0c-1.6,0-1.6,0-1.9-1.6c-0.7-4.2-0.8-8.5-0.5-12.8
			C502.8,1146.1,503,1144.2,503.1,1142.3z"/>
		<path class="st21" d="M588.4,1139.1c0.2-0.2,0.5-0.4,0.7-0.7c1.8,0.9,3.6,1.8,5.6,2.6c4.5,1.8,9.3,2.5,14.2,3
			c2.7,0.3,5.5,0.4,8.2,0.9c6.2,1.1,11.1,7.6,10.5,13.3c-0.3,2.6-0.8,5.1-1.3,7.6c-0.1,0.6-0.4,0.8-1.1,0.8c-14.7,0-29.5,0-44.2-0.1
			c-5.7,0-11.4-1.1-17-2.1c-6-1.1-12-1.7-18-1.8c-3.3-0.1-6.6-0.1-9.9-0.1c-0.3,0-0.7,0-1.1,0c0.1-2.4,1.2-4.1,2.9-5.3
			c2.1-1.5,4.4-3,6.7-4c8.1-3.6,16.7-5.1,25.6-5.3c4.5-0.1,8.9-0.2,13.4-0.2c3.2,0,5.7-1.2,7.9-3.4c1.2-1.2,1.1-2-0.4-2.7
			c-0.8-0.4-1.6-0.8-2.4-1.3c-0.2-0.1-0.3-0.5-0.5-0.8C588.2,1139.3,588.3,1139.2,588.4,1139.1z"/>
		<path class="st20" d="M547.7,1093.5c0.9-0.1,1.5-0.1,2.3-0.1c0,2.8,0,5.6,0,8.5c-0.8,0-1.6,0-2.3,0
			C547.7,1099.1,547.7,1096.4,547.7,1093.5z"/>
		<path class="st20" d="M547.3,1104.8c1-0.1,1.8-0.1,2.6-0.2c0.1,1.2,0.2,2.3,0.3,3.4c0,0.1,0,0.3,0,0.4c0.1,0.8,0.6,1.8,0.3,2.2
			c-0.5,0.7-1.5,0.9-2.4,1.4C547.2,1109.7,547.5,1107.3,547.3,1104.8z"/>
		<path class="st20" d="M555.9,1118.2c-0.3,0.5-0.7,1-1.1,1.7c-2.1-1.5-4.3-2.8-5.6-5.2c0.9-0.5,1.8-0.9,2.5-1.2
			C553.1,1115,554.4,1116.5,555.9,1118.2z"/>
		<path class="st20" d="M544.9,1086.4c1.6-0.2,2.9-0.4,4.2-0.4c0.2,0,0.7,0.5,0.7,0.7c-0.2,0.7-0.4,1.7-0.9,2
			c-0.6,0.4-1.6,0.6-2.3-0.5C546.3,1087.5,545.6,1087.1,544.9,1086.4z"/>
		<path class="st20" d="M547.7,1089.8c-0.1-0.3-0.1-0.5-0.2-0.7c2-0.3,2.3-0.6,2.5-2.3c0.1-0.9-0.3-1.3-1.1-1.2
			c-1.1,0.1-2.3,0.3-3.4,0.4c-0.7,0.1-1.4,0-2.1,0c0-0.2,0-0.3,0-0.5c1.9-0.2,3.8-0.6,5.7-0.7c1.3-0.1,1.7,0.6,1.7,1.8
			C550.9,1088.7,550,1089.6,547.7,1089.8z"/>
		<path class="st20" d="M557.8,1120.1c0.2-0.2,0.4-0.3,0.6-0.5c2.6,1.6,5.1,3.2,7.7,4.9c-0.1,0.3-0.2,0.6-0.2,0.9
			c-0.1,0.1-0.2,0.3-0.4,0.4c-0.3,0.6-0.7,0.6-1.3,0.2c-2.1-1.4-4.3-2.7-6.5-4.1c-0.3-0.2-0.5-0.5-0.7-0.7
			C557.3,1120.8,557.5,1120.5,557.8,1120.1z"/>
		<path class="st20" d="M568.1,1126.4c0.3-0.1,0.6-0.3,0.8-0.2c2.5,1.5,5,3,7.5,4.5c-0.4,0.6-0.7,1.1-1.1,1.6
			c-2.5-1.5-5-2.9-7.5-4.4c-0.2-0.1-0.3-0.4-0.4-0.6C567.6,1127.1,567.9,1126.8,568.1,1126.4z"/>
		<path class="st20" d="M577.9,1133.1c0.1-0.1,0.2-0.2,0.3-0.3c0.2-0.2,0.4-0.3,0.6-0.5c2.6,1.5,5.2,3.1,7.8,4.6
			c-0.4,0.5-0.7,1-1.1,1.6c-1.1-0.6-2.1-1.2-3.2-1.8c-1.3-0.8-2.7-1.6-4-2.3C577.8,1134,577.7,1133.7,577.9,1133.1z"/>
		<path class="st22" d="M551.7,1102.7c0,0.1,0.1,0.2,0.1,0.4c0,0,0,0,0,0.1l0,0c0,0.1,0,0.1,0,0.2c0,0.6-0.5,1-1.6,1
			c-2.1,0.1-4.3,0.1-6.4,0.2c-0.8,0-1.5-0.1-1.6-1.1c0-0.9,0.7-1.1,1.4-1.2c2.2-0.1,4.5-0.2,6.7-0.2c0.1,0,0.3,0,0.4,0
			c0.1,0,0.2,0,0.3,0.1c0,0,0,0,0.1,0 M550.5,1101.7v-8.3c0.3-0.1,0.6-0.3,0.9-0.4c-2.5,0.1-4.9,0.2-7.4,0.2c-0.2,0-0.4,0-0.6,0
			h-0.1c-0.1,0-0.2,0-0.3,0l0,0c-0.1,0-0.2,0-0.3-0.1c-0.1,0-0.1,0-0.2,0l0,0l0,0c0.2,0.2,0.3,0.5,0.4,0.6c-0.9,0.1-1.6-0.4-1.6-1.3
			c-0.1-0.8,0.5-1.5,1.6-1.6c-0.3,0.4-0.7,0.7-0.7,1.1c0,0.1,0,0.1,0,0.2c0,0,0,0,0,0.1c0,0,0,0,0,0.1v0.1l0,0c0,0,0,0,0,0.1
			c0,0,0,0,0,0.1l0,0c0,0,0,0.1,0.1,0.1c0.1,0.1,0.1,0.3,0.2,0.4v0.1l0,0c-0.1-0.3-0.2-0.5-0.2-0.7v-0.1c-0.1-0.8,0.3-1.1,1.5-1.2
			c2.2-0.1,4.5-0.2,6.7-0.2c0.5,0,0.9,0.3,1.4,0.4c-0.4-0.3-0.9-0.6-1.5-1c0.1-0.4,0.2-1,0.5-1.5c0.9-1.9,0.6-3.3-0.8-4.3h-3
			c-2.1,0.4-4.1,1-6.3,0.8c-3.2-0.3-6.5,0-9.6,0.4c-4.6,0.6-9.2,1.6-13.8,2.2c-2.1,0.3-4.3,0.4-6.4,0.4c-2.3,0-3.9,1.3-4,3.6
			c0,1.1,0,2.2,0,3.5c-0.5,0-1.1,0.1-1.7,0.1v13.6c0.7,0,1.3,0.1,2,0.1c-0.1,2.8-0.2,5.5-0.4,8.3h-2c-0.1,1.6-0.3,3.2-0.4,4.9
			c-0.2,2.5-0.5,5.1-0.8,7.6c-0.1,1.3-0.2,1.3,1.1,1.4c0.2,0,0.4,0.1,0.8,0.2c-0.5,2.9-1,5.9-1.5,8.8c-0.5,0.1-0.7,0.1-1.1,0.1
			c-0.1,0.9-0.3,1.8-0.4,2.7c-0.2,1.4-0.3,2.8-0.4,4.2v8.8c0.1,0.9,0.2,1.7,0.4,2.6c0.7,3,0.9,6.1,0.8,9.2c-0.1,1.6,0,3.3,0,4.9v1.1
			h40.8v-4.9c0.5,0,0.9,0,1.3,0c2.5,0.2,5,0.4,7.6,0.6c5.2,0.4,10.2,1.3,15.2,2.8c2.3,0.7,4.7,1.5,7.1,1.5
			c17.4,0.1,34.9,0.1,52.3,0.1h1.1v-7.8h-2.2c0.1-0.5,0.3-0.8,0.4-1.1c0.9-3.3,1.7-6.8,0.9-10.2c-1.3-5.6-4.9-9.4-10.6-10.7
			c-2.6-0.6-5.4-0.6-8-0.9c-4.8-0.5-9.6-1.1-14.2-3c-1.9-0.8-3.7-1.7-5.6-2.6c1.1-2,1.1-2.2,0.2-2.9v0.1c0.6,0.7,0.5,1.3,0,2
			c-0.4,0.6-0.7,1.2-1.1,1.8c0.2-0.2,0.5-0.4,0.7-0.7c1.8,0.9,3.6,1.8,5.6,2.6c4.5,1.8,9.3,2.5,14.2,3c2.7,0.3,5.5,0.4,8.2,0.9
			c6.2,1.1,11.1,7.6,10.5,13.3c-0.3,2.6-0.8,5.1-1.3,7.6c-0.1,0.6-0.4,0.8-1.1,0.8c-14.7,0-29.5,0-44.2-0.1c-5.7,0-11.4-1.1-17-2.1
			c-5.9-1.1-12-1.7-18-1.8c-3.3-0.1-6.6-0.1-9.9-0.1c-0.3,0-0.7,0-1.1,0c0.1-2.4,1.2-4.1,2.9-5.3c2.1-1.5,4.4-3,6.7-4
			c8.1-3.6,16.7-5.1,25.6-5.3c4.5-0.1,8.9-0.2,13.4-0.2c3.2,0,5.7-1.2,7.9-3.4c1.2-1.2,1.1-2-0.4-2.7c-0.8-0.4-1.6-0.8-2.4-1.3
			c-0.2-0.1-0.3-0.5-0.5-0.8c-0.2,0.3-0.4,0.6-0.6,0.9c1.3,0.7,2.7,1.2,4,2c0.7,0.5,0.1,1.1-0.3,1.5c-2.2,2.2-4.8,3.3-7.9,3.3
			c-4.6,0-9.2,0.1-13.8,0.2c-9.4,0.2-18.4,2-26.9,6.1c-1.7,0.8-3.3,1.9-4.8,3c-1.9,1.4-3.2,3.3-3.4,6c-0.5-0.1-1-0.2-1.4-0.3
			c-0.4,0.1-0.9,0.2-1.3,0.2c-2.6,0-2.5,0-3-2.5c-1.9-10.1-8-16.4-18.4-18.4c-1.9-0.4-3.8-0.6-5.7-0.9c0.5-2.9,1-5.8,1.5-8.7
			c1.4-0.3,1.6-0.2,2.1,1.1c0.4,1.1,1.7,2,2.8,1.9c1.4-0.1,2.5-1,2.8-2.3c0.3-1.7,0.4-3.3,0.6-5c0.3-2.7,0.6-5.5,0.9-8.3
			c0.1-1.4-0.3-2.5-1.5-3.2c-1.1-0.6-2.1-0.5-3,0.2c-0.5,0.4-0.8,1-1.3,1.6c-0.5-0.1-1.2-0.1-1.9-0.2c0.1-2.9,0.2-5.6,0.3-8.5h1.5
			c0.4,0.7,0.8,1.4,1.3,1.9c0.8,0.7,1.8,1,2.8,0.5c1.1-0.5,1.9-1.3,1.9-2.6c0-4.6,0-9.1,0-13.7c0-1.4-1.1-2.6-2.5-2.7
			c-1.6-0.2-2.7,0.6-3.4,2.5h-2c0-1.5-0.1-2.9,0-4.3c0.1-1.4,1.6-2.4,3-2.3c4.1,0.4,8-0.4,11.9-1.2c5.8-1.2,11.7-1.9,17.7-1.9
			c2.1,0,4.1,0.8,5.7,2.2c0.9,0.7,1.6,1.6,1.6,3c-0.5,0-0.9,0-1.3,0.1c-0.1-0.5-0.1-0.9-0.2-1.3h-0.1c0,0.4,0,0.8-0.1,1.3
			c-0.3-0.1-0.6-0.2-0.8-0.3l0,0l0,0c-0.4,0-0.8,0.1-1.2,0c-0.9-0.3-1.7-0.1-2.2,0.6c-0.5,0.7-0.5,1.5,0,2.1
			c0.6,0.7,1.4,0.9,2.3,0.5c0.3-0.1,0.7-0.3,1.1-0.4c-0.1,0.3-0.1,0.5-0.2,0.7l0,0l0,0c0.3-0.2,0.6-0.4,1-0.8
			c0.1,0.8,0.1,1.4,0.2,2.1c0.1,0,0.1,0,0.2,0v-1.9h1.2v8.4c-0.6,0-1,0.1-1.5,0.1c0-0.6,0.1-1,0.1-1.5c-0.1,0-0.1,0-0.2,0
			c-0.1,0.5-0.1,0.9-0.2,1.6c-0.9-1-1.9-1.6-3.1-1.3c-0.6,0.2-1.2,0.5-1.5,1c-1,1.1-0.8,2.6,0.2,3.6c1.2,1.2,2.6,1.1,4.3-0.3
			c0.1,0.5,0.1,1,0.2,1.5c0.1,0,0.1,0,0.2,0v-1.7h1.4c0,0.7-0.1,1.4,0,2.2c0.2,1.8,0.5,3.7,0.7,5.5c1.1-0.5,2.1-1,3.2-1.5
			c0.7-0.3,1.4-0.4,1.8,0.4c0.4,0.8-0.1,1.2-0.8,1.6c-2,1-4.1,2-6.1,3c-0.7,0.3-1.4,0.4-1.7-0.3c-0.4-0.8,0-1.3,0.7-1.7
			c0.9-0.4,1.9-0.9,2.8-1.4c-0.3,0-0.6,0.1-1,0.1c-0.1-0.3-0.3-0.7-0.4-1.1c-0.1,0-0.1,0-0.1,0c0.1,0.4,0.2,0.8,0.3,1.5
			c-1.2-0.5-2.4-0.9-3.4,0.1c-0.5,0.5-0.9,1.1-1.1,1.7c-0.4,1.2,0.6,2.6,1.8,3.1c1.5,0.6,2.8-0.2,3.8-2.4c0.4,0.6,0.8,1.1,1.1,1.6
			c0.1,0,0.1-0.1,0.2-0.1c-0.3-0.5-0.7-1.1-1.1-1.7c0.4-0.2,0.7-0.4,1.1-0.6c1.3,2.2,3.3,3.5,5.2,4.9c0.5,0.3,0.5,0.6,0.3,1.1l0,0
			l0,0c0.9-1.2,1.7-2.4,2.6-3.6c-0.5,0.4-1,0.3-1.4-0.2c-1.1-1.2-2.2-2.5-3.2-3.6c1.2-1.6,0.9-2.3-0.7-2.9c-0.2-0.1-0.4-0.3-0.5-0.5
			c-0.3-1.8-0.5-3.6-0.8-5.3c0.2,0.1,0.3,0.1,0.5,0.2c0.4-0.5,1-0.8,1.3-1.4 M543.9,1117.8c-1.4-0.4-2.2-1.8-1.8-3.1
			c0.4-1.2,1.9-2.3,3.6-1.3c-0.6,0.1-0.9,0.2-1.3,0.2c-0.9,0.1-1.5,0.6-1.7,1.5c-0.1,0.9,0.2,1.5,0.9,1.9c0.8,0.4,1.6,0.3,2.1-0.4
			c-0.1,0-0.3,0-0.4,0.1c-1,0.5-1.8,0.3-2.3-0.5c-0.5-0.8-0.2-1.5,0.9-2.2c-0.1,0.3-0.2,0.5-0.3,0.6c-0.4,1,0.1,1.9,1.1,2
			c0.3,0,0.6,0,0.9,0l0,0c0.3-0.2,0.6-0.5,1-0.8C546.5,1117.3,545.1,1118.2,543.9,1117.8z M555.9,1118.2c-0.3,0.5-0.7,1-1.1,1.7
			c-2.1-1.5-4.3-2.8-5.6-5.2c0.9-0.5,1.8-0.9,2.5-1.2C553.1,1115,554.4,1116.5,555.9,1118.2z M549.9,1104.6c0.1,1.2,0.2,2.3,0.3,3.4
			c0,0.1,0,0.3,0,0.4c0.1,0.8,0.6,1.8,0.3,2.2c-0.5,0.7-1.5,0.9-2.4,1.4c-1-2.4-0.7-4.8-0.9-7.3
			C548.2,1104.7,549.1,1104.7,549.9,1104.6z M542.4,1101.7L542.4,1101.7L542.4,1101.7h-0.2c-0.2,0.1-0.4,0.2-0.6,0.5l0,0l0,0l0,0
			c0.2-0.1,0.5-0.1,0.7-0.2c0.1,0,0.2-0.1,0.3-0.1s0.1,0,0.2,0c-1.3,1.3-1.2,2,0.2,3c-1.5,0.1-2.2-0.9-1.6-2.2
			c0.1-0.1,0.1-0.3,0.1-0.4l0,0l0,0l0,0c-0.1,0.1-0.2,0.1-0.3,0.2c0,0,0,0-0.1,0.1l-0.1,0.1c0,0,0,0,0,0.1c0,0,0,0,0,0.1
			c0,0,0,0.1-0.1,0.1v0.1c0,0,0,0,0,0.1c0,0,0,0,0,0.1c-0.1,0.3,0,0.7,0.2,1c0.8,1.9,2.3,0.9,3.7,0.6c-0.8,1.1-1.6,1.5-2.7,1.2
			c-1-0.3-1.8-1.2-1.8-2.2c-0.1-1.1,0.5-2,1.6-2.5c1-0.4,1.9-0.1,2.7,0.8C543.9,1102.2,543.1,1101.6,542.4,1101.7z M547.7,1093.5
			c0.9-0.1,1.5-0.1,2.3-0.1v8.5h-2.3V1093.5z M546.7,1088.1c-0.4-0.6-1-1-1.8-1.7c1.6-0.2,2.9-0.4,4.2-0.4c0.2,0,0.7,0.5,0.7,0.7
			c-0.2,0.7-0.4,1.7-0.9,2C548.3,1088.9,547.3,1089.1,546.7,1088.1z M549.2,1084.9c1.3-0.1,1.7,0.6,1.7,1.8c0,2-0.9,2.9-3.2,3.1
			c-0.1-0.3-0.1-0.5-0.2-0.7c2-0.3,2.3-0.6,2.5-2.3c0.1-0.9-0.3-1.3-1.1-1.2c-1.1,0.1-2.3,0.3-3.4,0.4c-0.7,0.1-1.4,0-2.1,0
			c0-0.2,0-0.3,0-0.5C545.4,1085.3,547.3,1085,549.2,1084.9z M512.7,1116.2c1.2,0.3,2.2,1.4,2.1,2.7c-0.4,4.4-0.9,8.8-1.4,13.3
			c-0.2,1.5-1.3,2.4-2.7,2.3c-1.2-0.1-2.1-1.1-2.2-2.4c0.1-0.1,0.2-0.2,0.2-0.2c0.2,0.2,0.5,0.4,0.6,0.7c0.4,0.7,0.9,1.2,1.8,1
			c0.9-0.1,1.3-0.8,1.4-1.6c0.5-4.3,1-8.6,1.3-12.9c0-0.5-0.5-1.3-0.9-1.7c-0.6-0.5-1.2-0.2-1.8,0.3c-0.3,0.3-0.7,0.4-1.2,0.7
			C510.5,1116.7,511.6,1116,512.7,1116.2z M509.7,1132.4c0-0.1,0.1-0.2,0.1-0.3c0.7,0.1,1.3,0.1,2,0.2c0,0.1,0,0.3,0.1,0.4
			c-0.4,0.1-0.8,0.4-1.1,0.4C510.4,1133,510.1,1132.7,509.7,1132.4z M513.5,1118.4c-0.8,0-1.4-0.1-2.2-0.1
			C512.1,1117.3,512.5,1117.4,513.5,1118.4z M512.8,1093.3c1.2,0.2,2,1.2,2,2.7c0,4.3,0,8.6,0,12.9c0,1.4-0.9,2.5-2.2,2.7
			c-1.2,0.2-2.3-0.7-2.8-2.5c0.5,0.3,0.9,0.4,1,0.6c0.5,0.7,1.1,1.1,1.9,0.9c0.9-0.3,1.2-0.9,1.2-1.8c0-4.2,0-8.4,0-12.6
			c0-0.9-0.2-1.6-1.1-2c-0.8-0.3-1.5,0.1-2,0.8c-0.1,0.2-0.5,0.3-1,0.5C510.5,1093.7,511.5,1093,512.8,1093.3z M511.3,1109.3h2.2
			C512.7,1110.5,511.9,1110.5,511.3,1109.3z M513.3,1095.3h-1.9C512.1,1094.3,512.6,1094.3,513.3,1095.3z M505.7,1108.6v-12.8h7.8
			v12.8H505.7z M504.1,1130.9c0.4-4.3,0.8-8.5,1.2-12.8c2.7,0.3,5.4,0.6,8.1,0.9c-0.5,4.3-0.9,8.5-1.3,12.8
			C509.4,1131.4,506.8,1131.1,504.1,1130.9z M503.2,1160.8c-0.7-4.2-0.8-8.5-0.5-12.8c0.1-1.9,0.3-3.8,0.4-5.8h2.4v-0.1
			c-0.7-0.1-1.4-0.2-2.1-0.3c-0.1-0.1-0.1-0.2-0.2-0.3c0.3-0.2,0.5-0.6,0.8-0.6c5.5,0.5,10.9,1.4,15.6,4.6c4,2.7,6.5,6.5,7.9,11.1
			c0.5,1.8,0.9,3.7,1.3,5.5c-0.9,0.2-0.9,0.2-1.5-1.5c0,0.5,0.1,1,0.1,1.7h-22.2C503.5,1162.4,503.5,1162.4,503.2,1160.8z
			 M628.1,1173.6H627c-17.2,0-34.3,0.1-51.5-0.1c-2.4,0-4.8-0.8-7.1-1.5c-6.6-2.1-13.4-2.9-20.3-3.3c-1.5-0.1-3-0.2-4.6-0.3v5h-39.7
			v-9.2c0.3,0,0.6-0.1,1-0.1c12.6,0,25.2,0,37.9,0c8.1,0,16,0.8,24,2.4c6.3,1.2,12.6,1.8,19,1.8c13.7,0,27.3,0,41,0h1.5v5.3H628.1z
			 M627.8,1168c-0.2,0-0.4,0-0.5,0c-14.2,0-28.3,0-42.5,0c-6.6,0-13.1-0.7-19.6-2c-8.1-1.6-16.3-2.2-24.5-2.2c-11.8,0-23.6,0-35.3,0
			h-1.5v-1.1h1.2c12,0,24,0,36.1,0c9.1,0,18.1,0.9,27,2.6c5.7,1.1,11.5,1.5,17.3,1.5c13.1,0,26.3,0,39.4,0h3.2c0,0.4,0,0.7,0.1,1
			C627.9,1167.9,627.9,1168,627.8,1168z"/>
		<path class="st23" d="M558.7,1118.6c-0.3,0.5-0.6,1-0.9,1.5c-0.3,0.3-0.5,0.7-0.8,1c-0.1,0.3-0.3,0.6-0.4,0.9
			c-0.2,0.4-0.5,0.8-0.7,1.1c-0.4,0.5-0.9,1-1.3,1.5c-0.5,0.6-1,1.1-1.7,0.6s-0.6-1.2-0.1-1.8c0.1-0.2,0.3-0.5,0.4-0.7l0,0l0,0l0,0
			l0,0c0.4-0.6,0.8-1.3,1.3-1.9l0,0l0,0c0.9-1.2,1.7-2.4,2.6-3.6c0.5,0,1.1-0.1,1.5,0.2C558.6,1117.5,558.6,1118.2,558.7,1118.6z"/>
		<path class="st23" d="M569,1124.9c-0.3,0.5-0.6,1-0.9,1.5c-0.2,0.3-0.5,0.6-0.7,1c-0.2,0.3-0.3,0.5-0.5,0.8
			c-0.1,0.1-0.3,0.2-0.3,0.3c-0.6,0.9-1.2,1.8-1.8,2.7c-0.4,0.5-1,0.7-1.6,0.3s-0.6-1-0.3-1.6c0.2-0.3,0.3-0.6,0.5-0.9l0,0l0,0l0,0
			c0.3-0.5,0.5-0.9,0.8-1.3c0.1-0.1,0.3-0.3,0.4-0.4c0.3-0.5,0.6-1,0.9-1.5c0.1-0.1,0.2-0.3,0.4-0.4c0.5-0.7,1-1.4,1.6-2
			C568.9,1123.2,569.4,1123.6,569,1124.9z"/>
		<path class="st23" d="M542.5,1093.1c-0.5-1.4-0.2-1.9,1.3-2c2.2-0.1,4.5-0.2,6.7-0.2c0.5,0,0.9,0.3,1.4,0.4
			c0.5,0.8,0.1,1.3-0.5,1.8c-2.5,0.1-4.9,0.2-7.4,0.2C543.4,1093.3,542.9,1093.1,542.5,1093.1L542.5,1093.1z"/>
		<path class="st22" d="M589.5,1135.1L589.5,1135.1c-1-0.2-1.5,0.2-2,1c-0.8,1.2-1.8,2.4-2.6,3.7l0,0l0,0c0.1-0.3,0.3-0.6,0.4-1
			c-2.5-1.4-4.9-2.9-7.3-4.2c-0.2-0.1-0.6,0.1-1,0.1c0.3-0.5,0.6-1,1-1.6c-0.3,0.6-0.1,0.9,0.5,1.2c1.4,0.7,2.7,1.5,4,2.3
			c1,0.6,2.1,1.2,3.2,1.8c0.4-0.6,0.7-1,1.1-1.6c-2.7-1.6-5.2-3.1-7.8-4.6c-0.2,0.2-0.4,0.3-0.6,0.5c0.3-0.5,0.6-0.9,0.9-1.4h0.1
			c0.1,0.3,0.1,0.6,0.3,0.7c2.4,1.5,4.9,2.9,7.3,4.3C587.7,1135.8,587.9,1134.1,589.5,1135.1z"/>
		<path class="st22" d="M574.7,1133.6c0.1-0.3,0.2-0.6,0.2-0.9c-1.8-1.1-3.6-2.1-5.4-3.2c-0.8-0.5-1.7-0.9-2.5-1.3l0,0l0,0
			c0.2-0.3,0.3-0.5,0.5-0.8c0.1,0.2,0.2,0.5,0.4,0.6c2.5,1.5,4.9,2.9,7.5,4.4c0.4-0.6,0.7-1.1,1.1-1.6c-2.5-1.5-5-3-7.5-4.5
			c-0.2-0.1-0.5,0.1-0.8,0.2c0.3-0.5,0.6-1,0.9-1.5c-0.2,0.6,0,0.9,0.6,1.3c2.3,1.3,4.6,2.8,6.9,4.2c0.3-0.3,0.6-0.6,0.9-0.8
			C576.5,1130.9,575.6,1132.2,574.7,1133.6z"/>
		<path d="M577.5,1129.5C577.4,1129.5,577.4,1129.5,577.5,1129.5C577.4,1129.5,577.4,1129.5,577.5,1129.5L577.5,1129.5z"/>
		<path class="st22" d="M567.4,1123.3c-0.5,0.7-1,1.4-1.6,2c0.1-0.3,0.2-0.6,0.2-0.9c-2.6-1.6-5.1-3.2-7.7-4.9
			c-0.2,0.1-0.4,0.3-0.6,0.5c0.3-0.5,0.6-1,0.9-1.5c0.2,0.3,0.2,0.8,0.5,1c2.4,1.6,4.8,3.1,7.1,4.5
			C566.7,1123.8,567,1123.6,567.4,1123.3z"/>
		<path class="st24" d="M577.5,1129.5c0.6-0.8,1.3-0.7,1.8-0.1c0.7,0.7,0.6,1.4-0.1,2.1h-0.1c0.2-0.6,0.7-1.3,0-1.8
			C578.7,1129.3,578,1129.5,577.5,1129.5L577.5,1129.5z"/>
		<path class="st25" d="M505.3,1118c2.7,0.3,5.4,0.6,8.1,0.9c-0.5,4.3-0.9,8.5-1.3,12.8c-2.7-0.3-5.3-0.6-8-0.8
			C504.5,1126.6,504.9,1122.4,505.3,1118z"/>
		<path class="st25" d="M513.5,1108.6c-2.6,0-5.1,0-7.8,0c0-4.3,0-8.5,0-12.8c2.5,0,5.1,0,7.8,0
			C513.5,1100.1,513.5,1104.3,513.5,1108.6z"/>
		<path class="st20" d="M508.7,1131.9c0.2,0.2,0.5,0.4,0.6,0.7c0.4,0.7,0.9,1.2,1.8,1c0.9-0.1,1.3-0.8,1.4-1.6
			c0.5-4.3,1-8.6,1.3-12.9c0-0.5-0.5-1.3-0.9-1.7c-0.6-0.5-1.2-0.2-1.8,0.3c-0.3,0.3-0.7,0.4-1.2,0.7c0.6-1.6,1.7-2.3,2.9-2.1
			c1.2,0.3,2.2,1.4,2.1,2.7c-0.5,4.4-0.9,8.8-1.4,13.3c-0.2,1.5-1.3,2.4-2.7,2.3c-1.2-0.1-2.1-1.1-2.2-2.4
			C508.6,1132,508.7,1131.9,508.7,1131.9z"/>
		<path class="st20" d="M509.9,1095.5c0.6-1.8,1.6-2.5,2.9-2.3c1.2,0.2,2,1.2,2,2.7c0,4.3,0,8.6,0,12.9c0,1.4-0.9,2.5-2.2,2.7
			c-1.2,0.2-2.3-0.7-2.8-2.5c0.5,0.3,0.9,0.4,1,0.6c0.5,0.7,1.1,1.1,1.9,0.9c0.9-0.3,1.2-0.9,1.2-1.8c0-4.2,0-8.4,0-12.6
			c0-0.9-0.2-1.6-1.1-2c-0.8-0.3-1.5,0.1-2,0.8C510.8,1095.2,510.4,1095.3,509.9,1095.5z"/>
		<path class="st23" d="M589.5,1137.2c-0.4,0.6-0.7,1.2-1.1,1.8c-0.1,0.1-0.2,0.2-0.3,0.3c-0.2,0.3-0.4,0.6-0.6,0.9
			c-0.1,0.1-0.2,0.2-0.4,0.4c-0.3,0.5-0.6,0.9-0.8,1.4l0,0l0,0l0,0c-0.3,0.3-0.5,0.7-0.8,0.8c-0.4,0.2-1.1,0.5-1.4,0.3
			c-0.3-0.2-0.3-0.9-0.4-1.4c0-0.2,0.2-0.5,0.3-0.7c0.3-0.4,0.6-0.9,0.8-1.3l0,0l0,0c0.9-1.2,1.8-2.4,2.6-3.7c0.5-0.7,1.1-1.2,2-0.9
			C590,1135.8,590,1136.5,589.5,1137.2z"/>
		<path class="st23" d="M550.4,1102.1l1.4,0.3c0.7,1.4,0.1,1.9-1.5,2c-2.1,0.1-4.3,0.1-6.4,0.2c-0.8,0-1.5-0.1-1.6-1.1
			c0-0.9,0.7-1.1,1.4-1.2c2.2-0.1,4.6-0.2,6.8-0.2"/>
		<path class="st23" d="M551.8,1113c-2,1-4.1,2-6.1,3c-0.7,0.3-1.4,0.4-1.7-0.3c-0.4-0.8,0-1.3,0.7-1.7c0.9-0.4,1.9-0.9,2.8-1.4h0.1
			c1.1-0.5,2.1-1,3.2-1.5c0.7-0.3,1.4-0.4,1.8,0.4C553,1112.3,552.5,1112.7,551.8,1113z"/>
		<path class="st19" d="M591.5,1142.3c-1.3-0.8-2.6-1.4-4-2c-0.1,0.1-0.2,0.2-0.4,0.4c0,0.6,0,1.3-0.1,1.9c-0.1,0.7-0.4,1.4-0.7,2
			c-0.2,0.4-0.4,0.9-0.7,1c-0.6,0.2-1.3,0.3-1.8,0.1c-1.1-0.5-2.2-1.3-2.2-2.8c-0.1-1.1,0.7-2.2,2-2.7c0.4-0.2,0.9-0.3,1.3-0.4
			c0.1-0.3,0.3-0.6,0.4-1c-2.5-1.4-4.9-2.9-7.3-4.2c-0.2-0.1-0.6,0.1-1,0.1c-0.1,0.1-0.2,0.2-0.4,0.4c0,0.7,0,1.4,0,2.1
			c0,1-0.9,2.1-1.9,2.4c-1.1,0.3-2.2,0-2.9-0.9c-0.8-1-0.8-1.9-0.2-3c0.7-0.7,1.3-1.5,2.4-1.3c0.2-0.3,0.4-0.5,0.6-0.8
			c0.1-0.3,0.2-0.6,0.2-0.9c-1.8-1.1-3.6-2.1-5.4-3.2c-0.8-0.5-1.7-0.9-2.5-1.3c0,0.5-1.2,1.1,0,1.6c-0.3-0.1-0.5-0.2-0.8-0.3
			c0,2.9-0.7,4-2.5,4.2c-1.3,0.1-2.7-1-2.9-2.2c-0.3-1.7,0.6-2.8,3-3.4c-0.7-0.5-1.4-0.9-2.1-1.3c0-0.1,0.1-0.1,0.1-0.2
			c0.5,0.3,1,0.6,1.5,0.9c0.3,0.1,0.6,0.1,0.9,0.2c0.1-0.1,0.3-0.3,0.4-0.4c-0.1-0.3-0.2-0.6-0.4-0.8c-2.3-1.5-4.7-3-7.1-4.4
			c-0.1-0.1-0.4,0-0.6-0.1c-0.2,0.4-0.5,0.8-0.7,1.1c0,0.4-0.1,0.7-0.1,1.1c0.2,1.5-0.7,3-2.2,3.3c-1.4,0.3-2.9-0.8-3.2-2.3
			c-0.3-1.4,0.8-2.8,2.3-3.1c0.6-0.1,1.1-0.2,0.6-0.9c0.3-0.1,0.6-0.2,1-0.4c0.2-0.4,0.1-0.7-0.3-1.1c-1.9-1.4-3.9-2.7-5.2-4.9
			c-0.4,0.2-0.7,0.4-1.1,0.6c0.4,0.6,0.7,1.2,1.1,1.7c-0.1,0-0.1,0.1-0.2,0.1c-0.4-0.5-0.8-1.1-1.1-1.6c-1.1,2.2-2.3,3-3.8,2.4
			c-1.2-0.4-2.2-1.9-1.8-3.1c0.2-0.6,0.6-1.3,1.1-1.7c1-0.9,2.2-0.6,3.4-0.1c-0.1-0.6-0.2-1.1-0.3-1.5c0.1,0,0.1,0,0.1,0
			c0.1,0.4,0.3,0.7,0.4,1.1c0.4,0,0.7-0.1,1-0.1h0.1c-0.2-1.8-0.5-3.7-0.7-5.5c-0.1-0.7,0-1.5,0-2.2h-1.4v1.7c-0.1,0-0.1,0-0.2,0
			c-0.1-0.5-0.1-1-0.2-1.5c-1.8,1.4-3.2,1.5-4.3,0.3c-1-1-1.1-2.5-0.2-3.6c0.4-0.4,1-0.8,1.5-1c1.2-0.3,2.2,0.3,3.1,1.3
			c0.1-0.7,0.1-1.2,0.2-1.6c0.1,0,0.1,0,0.2,0c0,0.5-0.1,0.9-0.1,1.5c0.5,0,0.9-0.1,1.5-0.1v-8.4H546v1.9c-0.1,0-0.1,0-0.2,0
			c-0.1-0.7-0.1-1.3-0.2-2.1c-0.5,0.3-0.7,0.6-1,0.8l0,0c-0.7,0.8-1.7,1.1-2.7,0.7c-1.1-0.4-2-1.7-1.9-2.8s1-2.3,2.1-2.5
			c1.1-0.3,2.1,0.1,2.7,1l0,0c0.2,0.1,0.5,0.2,0.8,0.3c0-0.5,0-0.9,0.1-1.3h0.1c0,0.4,0.1,0.8,0.2,1.3c0.5,0,0.9,0,1.3-0.1
			c0.1-1.4-0.6-2.3-1.6-3c-1.6-1.4-3.6-2.2-5.7-2.2c-5.9,0-11.8,0.7-17.7,1.9c-3.9,0.8-7.8,1.6-11.9,1.2c-1.4-0.1-2.8,1-3,2.3
			c-0.2,1.4,0,2.8,0,4.3h2c0.7-1.9,1.8-2.7,3.4-2.5c1.3,0.2,2.4,1.3,2.5,2.7c0,4.6,0,9.1,0,13.7c0,1.3-0.8,2.1-1.9,2.6
			c-1,0.5-2.1,0.2-2.8-0.5c-0.5-0.5-0.8-1.2-1.3-1.9h-1.5c-0.1,2.9-0.2,5.6-0.3,8.5c0.7,0.1,1.4,0.1,1.9,0.2
			c0.5-0.6,0.8-1.2,1.3-1.6c0.9-0.7,2-0.9,3-0.2c1.2,0.7,1.7,1.8,1.5,3.2c-0.3,2.7-0.6,5.5-0.9,8.3c-0.2,1.7-0.3,3.3-0.6,5
			c-0.2,1.4-1.4,2.2-2.8,2.3c-1.1,0.1-2.3-0.8-2.8-1.9c-0.5-1.3-0.8-1.4-2.1-1.1c-0.5,2.9-1,5.8-1.5,8.7c1.9,0.3,3.8,0.5,5.7,0.9
			c10.5,2,16.5,8.3,18.4,18.4c0.5,2.5,0.4,2.5,3,2.5c0.5,0,0.9-0.2,1.3-0.2c0.4,0.1,0.9,0.2,1.4,0.3c0.2-2.7,1.5-4.5,3.4-6
			c1.5-1.1,3.1-2.2,4.8-3c8.5-4.1,17.5-5.9,26.9-6.1c4.6-0.1,9.2-0.2,13.8-0.2c3.1,0,5.7-1.1,7.9-3.3
			C591.6,1143.4,592.2,1142.8,591.5,1142.3z M587.4,1141.9c0-0.1,0.1-0.2,0.1-0.2c0.9,0.5,1.7,0.9,2.7,1.4c0-0.3,0.1-0.4,0.1-0.6
			c0.1,0,0.1,0,0.2,0c0.1,0.3,0.2,0.6,0.4,1.2C589.5,1143,588.4,1142.4,587.4,1141.9z"/>
		<path class="st24" d="M544.7,1093.4c-0.1,0.3-0.1,0.5-0.2,0.7c-0.2,0.1-0.4,0.2-0.6,0.3c-1.4,0.7-2.8,0.2-3.4-1.2
			c-0.6-1.2,0-2.6,1.3-3.2c1.1-0.5,2,0,2.9,0.6c-0.4,0-0.8,0.1-1.2,0c-0.9-0.3-1.7-0.1-2.2,0.6s-0.5,1.5,0,2.1
			c0.6,0.7,1.4,0.9,2.3,0.5C543.9,1093.7,544.3,1093.6,544.7,1093.4z"/>
		<path class="st26" d="M544.6,1094.1L544.6,1094.1C544.5,1094.1,544.5,1094.1,544.6,1094.1C544.5,1094.1,544.5,1094.1,544.6,1094.1
			L544.6,1094.1z"/>
		<path class="st26" d="M544.8,1090.6C544.8,1090.5,544.7,1090.5,544.8,1090.6C544.7,1090.5,544.7,1090.5,544.8,1090.6L544.8,1090.6
			L544.8,1090.6z"/>
		<path class="st24" d="M541.6,1102.3c-0.8,0.5-0.8,1.2-0.5,1.9c0.8,1.9,2.3,0.9,3.7,0.6c-0.8,1.1-1.6,1.5-2.7,1.2
			c-1-0.3-1.8-1.2-1.8-2.2c-0.1-1.1,0.5-2,1.6-2.5c1-0.4,1.9-0.1,2.7,0.8C543.6,1102.2,542.4,1101,541.6,1102.3L541.6,1102.3z"/>
		<path class="st24" d="M545.7,1116.5c0.3-0.2,0.6-0.5,1-0.8c-0.3,1.6-1.6,2.4-2.9,2.1c-1.4-0.4-2.2-1.8-1.8-3.1
			c0.4-1.2,1.9-2.3,3.6-1.3c-0.6,0.1-0.9,0.2-1.3,0.2c-0.9,0.1-1.5,0.6-1.7,1.5c-0.1,0.9,0.2,1.5,0.9,1.9
			C544.4,1117.4,545.2,1117.3,545.7,1116.5L545.7,1116.5z"/>
		<path class="st24" d="M542.4,1093c0.2,0.2,0.3,0.5,0.4,0.6c-0.9,0.1-1.6-0.4-1.6-1.3c-0.1-0.8,0.5-1.5,1.6-1.6
			c-0.3,0.4-0.7,0.7-0.7,1.1C542,1092.2,542.3,1092.7,542.4,1093C542.5,1093.1,542.4,1093,542.4,1093z"/>
		<path class="st24" d="M545.8,1116.5c-0.1,0-0.3,0-0.4,0.1c-1,0.5-1.8,0.3-2.3-0.5s-0.2-1.5,0.9-2.2c-0.1,0.3-0.2,0.5-0.3,0.6
			c-0.4,1,0.1,1.9,1.1,2C545.1,1116.6,545.4,1116.5,545.8,1116.5C545.7,1116.5,545.8,1116.5,545.8,1116.5z"/>
		<path class="st24" d="M541.6,1102.3c0.4-0.1,0.8-0.2,1.3-0.3c-1.3,1.3-1.2,2,0.2,3c-1.5,0.1-2.2-0.9-1.6-2.2
			C541.5,1102.6,541.5,1102.4,541.6,1102.3L541.6,1102.3z"/>
		<path class="st19" d="M513.5,1109.3c-0.7,1.2-1.5,1.1-2.2,0C512,1109.3,512.7,1109.3,513.5,1109.3z"/>
		<path class="st19" d="M509.9,1132.1c0.7,0.1,1.3,0.1,2,0.2c0,0.1,0,0.2,0.1,0.4c-0.4,0.1-0.8,0.4-1.1,0.4
			c-0.4-0.1-0.7-0.4-1.1-0.7C509.8,1132.3,509.8,1132.2,509.9,1132.1z"/>
		<path class="st19" d="M511.4,1095.3c0.7-1,1.2-1,1.9,0C512.7,1095.3,512.1,1095.3,511.4,1095.3z"/>
		<path class="st19" d="M511.3,1118.3c0.9-0.9,1.3-0.9,2.2,0.1C512.7,1118.3,512.1,1118.3,511.3,1118.3z"/>
		<path class="st22" d="M555.9,1123.1c-0.4,0.5-0.9,1-1.3,1.5c-0.5,0.6-1,1.1-1.7,0.6s-0.6-1.2-0.1-1.8c0.1-0.2,0.3-0.5,0.4-0.7l0,0
			l0,0c0.4-0.6,0.8-1.3,1.3-1.9l0,0l0,0c-0.3,0.1-0.6,0.3-1,0.4c0.5,0.7,0,0.8-0.6,0.9c-1.5,0.3-2.6,1.7-2.3,3.1
			c0.3,1.5,1.8,2.6,3.2,2.3c1.5-0.3,2.5-1.8,2.2-3.3C555.7,1123.9,555.8,1123.5,555.9,1123.1z M553.9,1127.1
			c-1.3,0.4-2.8-0.4-3.2-1.7c-0.3-1.3,0.5-2.7,1.8-3c0,0,0,0,0.1,0s0,0,0.1,0c0,0,0.1,0,0.1,0.1c0,0,0,0,0.1,0
			c0.1,0.1,0.2,0.1,0.2,0.2c-0.3,0.2-0.7,0.5-1,0.7c0,0.1,0.1,0.3,0.1,0.4c0.1,1.8,0.7,2.2,2.4,1.6c-0.5,0.9-1.2,1.1-2,0.8
			c-0.8-0.3-1.1-1.2-0.8-2l0.3-0.7c-0.1,0-0.1,0.1-0.2,0.1c-0.2,0.2-0.4,0.4-0.5,0.7c0,0,0,0,0,0.1v0.1c0,0,0,0,0,0.1
			c0,0.3,0,0.7,0.2,1c0.3,0.8,1,1.1,1.9,1c0.9-0.1,1.4-0.7,1.6-1.6c0-0.3,0.2-0.6,0.4-1.1C555.8,1125.4,555.1,1126.7,553.9,1127.1z"
			/>
		<path class="st22" d="M565.4,1125.8c-0.3,0.5-0.6,1-0.9,1.5c-0.1-0.3-0.2-0.6-0.4-0.8c-2.3-1.5-4.7-3-7.1-4.4
			c-0.1-0.1-0.4,0-0.6-0.1c0.1-0.3,0.3-0.6,0.4-0.9c0.2,0.3,0.4,0.6,0.7,0.7c2.2,1.4,4.3,2.7,6.5,4.1
			C564.7,1126.3,565.1,1126.3,565.4,1125.8z"/>
		<path class="st22" d="M566.9,1128.2L566.9,1128.2L566.9,1128.2L566.9,1128.2c-0.2,0.1-0.3,0.1-0.4,0.3c-0.6,0.9-1.2,1.8-1.8,2.7
			c-0.4,0.5-1,0.7-1.6,0.3s-0.6-1-0.3-1.6c0.2-0.3,0.3-0.6,0.5-0.9l0,0l0,0c0.3-0.5,0.5-0.9,0.8-1.3c-0.3-0.1-0.7-0.1-0.9-0.2
			c-0.5-0.3-1-0.6-1.5-0.9c0,0.1-0.1,0.1-0.1,0.2c0.7,0.4,1.4,0.9,2.1,1.3c-2.4,0.6-3.3,1.7-3,3.4c0.2,1.3,1.6,2.4,2.9,2.2
			c1.8-0.2,2.4-1.3,2.5-4.2c0.3,0.1,0.6,0.2,0.8,0.3C565.8,1129.3,566.9,1128.7,566.9,1128.2z M564.8,1131.9
			c-0.4,0.2-0.9,0.7-1.3,0.6c-0.5,0-1.1-0.4-1.3-0.8c-0.2-0.4-0.1-1.1-0.1-1.6c0.1,0,0.2,0,0.3,0
			C562.6,1131.8,563.2,1132.2,564.8,1131.9z M564.2,1133.4c-1.2,0.4-2.7-0.3-3.1-1.6c-0.4-1.2,0.3-2.6,1.5-3.1c0.1,0,0.1,0,0.2,0
			c0,0,0.1,0,0.1,0.1c0.1,0,0.1,0.1,0.2,0.1c0,0,0.1,0,0.1,0.1c0.1,0,0.1,0.1,0.2,0.1c-0.3,0.2-0.6,0.3-0.8,0.5
			c-0.8,0.5-1.1,1.2-0.8,2.1c0.3,0.8,0.9,1.3,1.8,1.2c0.9,0,1.5-0.5,1.7-1.4c0.1-0.4,0.2-0.8,0.4-1.3
			C566.1,1131.7,565.5,1132.9,564.2,1133.4z"/>
		<path class="st23" d="M579.1,1131.3c-0.3,0.5-0.6,0.9-0.9,1.4c-0.1,0.1-0.2,0.2-0.3,0.3c-0.3,0.5-0.6,1-1,1.6
			c-0.1,0.1-0.2,0.2-0.4,0.4c-0.5,0.8-1.1,1.5-1.6,2.3c-0.2,0-0.5,0.1-0.7,0.1s-0.5,0.1-0.7,0.1l0,0l0,0l0,0
			c-0.1-0.1-0.2-0.3-0.3-0.4l0,0c-0.3-0.5-0.2-1,0.2-1.6c0.2-0.3,0.3-0.6,0.4-0.9c0-0.1,0.1-0.1,0.1-0.2c0.2-0.3,0.4-0.5,0.6-0.8
			c0.9-1.4,1.8-2.7,2.7-4.1c0,0,0,0,0-0.1l0,0c0.6,0,1.2-0.1,1.7,0.1C579.8,1130,579.3,1130.7,579.1,1131.3z"/>
		<path class="st24" d="M575.5,1138.7c-0.8,0.7-1.7,0.8-2.6,0.4c-1-0.5-1.6-1.5-1.5-2.5c0-0.3,0.1-0.7,0.1-1
			c0.7-0.7,1.3-1.5,2.4-1.3c0,0.1-0.1,0.1-0.1,0.2c-0.3,0.2-0.6,0.5-0.9,0.7c-0.8,0.5-1.1,1.2-0.8,2.2c0.3,0.8,0.9,1.2,1.8,1.2
			c1,0,1.5-0.6,1.8-1.5c0.1-0.3,0.2-0.7,0.4-1.2C576.5,1137.2,576.3,1138.1,575.5,1138.7z"/>
		<path d="M573.5,1137.5c-0.1-0.1-0.2-0.3-0.3-0.4C573.4,1137.2,573.4,1137.4,573.5,1137.5z"/>
		<path class="st22" d="M576.6,1137.2c0,1-0.9,2.1-1.9,2.4c-1.1,0.3-2.2,0-2.9-0.9c-0.8-1-0.8-1.9-0.2-3c0,0.3-0.1,0.7-0.1,1
			c-0.1,1,0.5,2,1.5,2.5s1.8,0.3,2.6-0.4c0.8-0.7,1-1.6,0.6-2.7c-0.2,0.5-0.3,0.8-0.4,1.2c-0.3,0.9-0.8,1.5-1.8,1.5
			c-0.9,0-1.5-0.4-1.8-1.2c-0.3-0.9,0-1.6,0.8-2.2c0.3-0.2,0.6-0.5,0.9-0.7c-0.1,0.3-0.2,0.6-0.4,0.9c-0.4,0.6-0.5,1.1-0.2,1.6
			c-0.1-0.1-0.1-0.2-0.2-0.2c-0.1-0.1-0.1-0.2-0.2-0.2c-0.1-0.2-0.2-0.3-0.3-0.5c-0.4,0.8-0.3,1.6,0.5,2c0.7,0.4,1.6,0.2,2-0.4
			c0.1-0.1-0.1-0.3-0.1-0.5c0.5-0.8,1.1-1.5,1.6-2.3C576.6,1135.7,576.6,1136.4,576.6,1137.2z"/>
		<path d="M586.3,1142.1L586.3,1142.1L586.3,1142.1z"/>
		<path class="st22" d="M587.1,1142.6c-0.1,0.7-0.4,1.4-0.7,2c-0.2,0.4-0.4,0.9-0.7,1c-0.6,0.2-1.3,0.3-1.8,0.1
			c-1.1-0.5-2.2-1.3-2.2-2.8c-0.1-1.1,0.7-2.2,2-2.7c0.4-0.2,0.9-0.3,1.3-0.4l0,0l0,0c-0.3,0.4-0.6,0.9-0.8,1.3h-0.1
			c0-0.2,0.1-0.4,0.2-0.6c-1.5,0.1-2.4,1.2-2.3,2.7c0.1,1.3,1.5,2.3,2.9,2.1c1.3-0.2,2.3-1.6,2-2.9l0,0l0,0l0,0l0,0
			c-0.1-0.1-0.2-0.1-0.3-0.2c0.3-0.5,0.6-0.9,0.8-1.4C587.1,1141.3,587.2,1142,587.1,1142.6z"/>
		<path class="st22" d="M540.5,1093.2c0.7,1.4,2.1,1.9,3.4,1.2c0.2-0.1,0.4-0.2,0.6-0.3l0,0l0,0c-0.7,0.8-1.7,1.1-2.7,0.7
			c-1.1-0.4-2-1.7-1.9-2.8c0.1-1.1,1-2.3,2.1-2.5c1.1-0.3,2.1,0.1,2.7,1l0,0c0,0,0,0-0.1,0c-0.9-0.6-1.8-1.1-2.9-0.6
			C540.5,1090.5,539.9,1092,540.5,1093.2z"/>
		<path class="st22" d="M590.8,1143.7c-1.3-0.7-2.4-1.3-3.4-1.8c0-0.1,0.1-0.2,0.1-0.2c0.9,0.5,1.7,0.9,2.7,1.4
			c0-0.3,0.1-0.4,0.1-0.6c0.1,0,0.1,0,0.2,0C590.5,1142.8,590.6,1143.1,590.8,1143.7z"/>
		<path class="st22" d="M584,1141c-0.1,0.2-0.4,0.5-0.3,0.7c0,0.5,0.1,1.2,0.4,1.4c0.3,0.2,1,0,1.4-0.3c0.3-0.2,0.5-0.6,0.8-0.9l0,0
			c-0.1,0.3-0.1,0.5-0.2,0.8c-0.2,1.2-0.8,1.8-1.9,1.7c-0.9,0-1.5-0.5-1.7-1.4C582.3,1142.2,582.8,1141.5,584,1141L584,1141z
			 M585.5,1143.6c-2.1,0.2-2.1-0.6-2.3-1.9c-0.6,0.9-0.5,1.8,0.2,2.3C584.2,1144.5,584.9,1144.4,585.5,1143.6z"/>
		<path class="st24" d="M552,1123.4c-0.8,0.5-0.9,1.3-0.6,2.1c0.3,0.8,1,1.1,1.9,1s1.4-0.7,1.6-1.6c0-0.3,0.2-0.6,0.4-1.1
			c0.5,1.5-0.1,2.8-1.4,3.3c-1.3,0.4-2.8-0.4-3.2-1.7c-0.3-1.3,0.5-2.7,1.8-3c0.1,0,0.3,0.2,0.5,0.3l0,0
			C552.7,1122.9,552.4,1123.2,552,1123.4L552,1123.4z"/>
		<path class="st24" d="M552,1123.4c0,0.1,0.1,0.3,0.1,0.4c0.1,1.8,0.7,2.2,2.4,1.6c-0.5,0.9-1.2,1.1-2,0.8c-0.8-0.3-1.1-1.2-0.8-2
			C551.8,1123.9,551.9,1123.7,552,1123.4L552,1123.4z"/>
		<path class="st24" d="M563.4,1129c-0.3,0.2-0.6,0.3-0.9,0.5c-0.8,0.5-1.1,1.2-0.8,2.1c0.3,0.8,0.9,1.3,1.8,1.2
			c0.9,0,1.5-0.5,1.7-1.4c0.1-0.4,0.2-0.8,0.4-1.3c0.5,1.6-0.1,2.8-1.4,3.3c-1.2,0.4-2.7-0.3-3.1-1.6c-0.4-1.2,0.3-2.6,1.5-3.1
			C562.8,1128.7,563.1,1128.9,563.4,1129L563.4,1129z"/>
		<path class="st24" d="M562.4,1130.1c0.2,1.7,0.8,2.1,2.5,1.8c-0.4,0.2-0.9,0.7-1.3,0.6c-0.5,0-1.1-0.4-1.3-0.8
			c-0.2-0.4-0.1-1.1-0.1-1.6C562.2,1130.1,562.3,1130.1,562.4,1130.1z"/>
		<path class="st24" d="M575,1137.3c0,0.2,0.2,0.4,0.1,0.5c-0.4,0.7-1.3,0.8-2,0.4c-0.8-0.5-0.9-1.2-0.5-2c0.3,0.4,0.6,0.9,0.9,1.3
			C574,1137.4,574.5,1137.4,575,1137.3z"/>
		<path class="st24" d="M584,1141c-1.2,0.5-1.7,1.2-1.4,2.2c0.2,0.9,0.8,1.4,1.7,1.4c1,0,1.6-0.5,1.9-1.7c0.1-0.3,0.1-0.5,0.2-0.8
			c0.1,0.1,0.4,0.1,0.4,0.3c0.3,1.2-0.7,2.7-2,2.9s-2.8-0.8-2.9-2.1c-0.2-1.5,0.8-2.6,2.3-2.7C584.1,1140.6,584,1140.8,584,1141z"/>
		<path class="st24" d="M585.5,1143.6c-0.6,0.8-1.3,0.9-2,0.4s-0.8-1.3-0.2-2.3C583.3,1143,583.4,1143.9,585.5,1143.6z"/>
	</g>
	<g id="_x35_8JQqv.tif">
		<g>
			<path class="st22" d="M565.8,638.2c0.7,2,2.4,3.2,4.1,4.2c3.9,2.3,8.2,3.6,12.6,4.4c4.9,0.9,9.9,1.5,14.9,2.2
				c0.5,0.1,0.9,0.1,1.3,0.3c6.9,3.4,13.9,6.2,21.1,8.8c2.3,0.8,4.7,1.1,7.2,1.1c4.9-0.1,9.7-1,14.4-2.4c6.4-1.8,12.7-3.7,19-5.6
				c2.5-0.8,4.9-1.8,7-3.4c0.6-0.5,1.2-1.1,1.6-1.7c0.7-1.1,0.4-2.3-0.8-3.3c-2.8-2.3-5.6-4.6-8.4-7c-1-0.8-2-1.6-2.8-2.5
				c-0.4-0.5-0.8-1.2-0.9-1.8c-0.4-2.4-0.7-4.7-1-7c-0.4-3-0.7-6.1-1.3-9.1c-1.5-7.5-4.4-14.4-9.3-20.4c-6.2-7.7-14.2-12.4-24-14.1
				c-3.7-0.7-7.4-1.4-11.3-1.2c-6,0.2-11.5,1.9-16.6,5c-6.7,4.1-12.3,9.4-16.1,16.4c-2.7,4.9-4.5,10.2-5.5,15.7
				c-0.5,3.5-0.7,6.9-1.1,10.4c-0.1,1.1,0,2.3-0.2,3.4c-0.3,1.8-1.5,3.1-2.8,4.3c-0.3,0.2-0.5,0.4-0.7,0.6
				C565.3,636.5,565.2,636.7,565.8,638.2z M621.1,590c3.8,3.9,6.6,8.4,8.8,13.3c4.9,10.8,7.4,22.1,7.3,34c0,0.5,0.2,1.1,0.3,1.7
				c-0.1,0-0.4,0.1-0.7,0.2c-5.6,1.1-11.2,1.7-16.8,2c-6.8,0.4-13.6,0.2-20.4-0.4c-5.6-0.5-11.2-1.3-16.7-2.8
				c-3.4-0.9-6.7-2.1-9.5-4.1c-1.4-1-2.6-2.3-2.6-4.3c0-0.9,0.1-1.9,0.1-2.8c0.2-2.7,0.4-5.5,0.7-8.2c0.7-4.6,2-9,3.8-13.2
				c2.4-5.8,6-10.7,10.7-14.9c1.9-1.7,3.8-3,6.3-3.9c2.2-0.8,4.2-2.1,6.5-2.9c3.2-1.2,6.7-1.4,10.1-0.8
				C613.8,583.9,617.7,586.6,621.1,590z M615.7,583.2c4.8,1.9,8.5,5.1,11.8,9.1c3.8,4.7,6.7,9.9,8.9,15.5c3.5,8.9,5.7,18.1,6.2,27.6
				c0.1,1.8,0.3,3.6,0.5,5.4l0,0l0,0l0,0c-0.8-0.6-1.6-1.2-2.5-1.7c-1.4-0.8-1.9-1.7-1.9-3.4c0-8-1.4-15.8-3.8-23.4
				c-2.3-7.5-5.5-14.5-10.5-20.7c-3.2-3.9-7-7.2-11.8-8.9c-0.1,0-0.2-0.1-0.2-0.1C613.6,582.5,614.7,582.8,615.7,583.2z
				 M653.4,618.1c-2.7-7.6-6.5-14.6-11.5-20.9c-5.1-6.3-11.1-11.4-18.6-14.8C641.5,587,651.3,602.8,653.4,618.1z M656.1,638.4
				c-3.5,1.2-7,2.4-10.7,3.6c-0.5-1.4-1.2-2.9-1.2-4.2c-0.1-5.9-1-11.7-2.3-17.5c-1.9-8.2-4.7-16-9.1-23.3
				c-2.5-4.1-5.4-7.8-9.1-10.9c-1.7-1.4-3.6-2.6-5.4-3.8l0,0c0,0,0.1,0,0.2,0.1c6.2,1.9,11.5,5.1,16.3,9.5
				c6.6,6.1,11.5,13.3,15.1,21.6c2.7,6.3,4.5,12.8,4.8,19.7c0.1,1.1,0.4,2.2,0.7,3.4C655.6,637.1,655.8,637.7,656.1,638.4z
				 M657.4,637.5c-0.2-0.6-0.5-1.3-0.8-2.1C658.1,636.4,658.2,636.7,657.4,637.5z M602.6,649.7c0-0.1,0-0.1,0.1-0.2
				c2.3,0.1,4.6,0.2,6.8,0.2c8.8,0.1,17.6-0.4,26.4-1.9c5.1-0.8,10.2-1.9,15-3.9c3.4-1.4,6.7-2.9,8.6-6.5c2.6,2.3,5.2,4.5,7.8,6.6
				c0.8,0.6,0.8,1.3,0.1,1.9c-1,0.8-2,1.6-3.1,2.1c-3.9,2-8.2,3.3-12.4,4.5c-7.3,2-14.6,4.4-22.2,5.1c-2.7,0.2-5.5,0.3-8.1-0.6
				c-2.5-0.8-5-1.7-7.4-2.6C610.3,653,606.5,651.3,602.6,649.7z M567.4,636.8c1.2-1.3,2.4-2.5,3.6-3.8c0.6,0.5,1.2,1.2,2,1.7
				c0.8,0.6,1.6,1.1,2.5,1.5c4.1,2.1,8.6,3.1,13.1,4c6.1,1.1,12.2,1.7,18.5,1.9c10.5,0.3,20.9-0.3,31.2-2.4c0.3-0.1,0.8,0,1,0.2
				c1.7,1.1,3.3,2.3,5,3.4c0.5,0.4,0.9,0.4,1.5,0.2c1.6-0.6,3.2-1.2,4.8-1.7c0.8-0.3,1.7-0.5,2.5-0.8c0,0.1,0,0.1,0,0.2
				c-0.2,0.1-0.4,0.3-0.7,0.4c-2.3,0.8-4.5,1.8-6.9,2.5c-9.1,2.6-18.4,3.6-27.8,3.9c-6.9,0.3-13.8,0.1-20.7-0.5
				c-5.3-0.5-10.5-1.2-15.6-2.5c-3.7-0.9-7.3-2-10.7-3.9c-1.4-0.8-2.8-1.8-3.4-3.3C567.2,637.5,567.2,637,567.4,636.8z"/>
			<path class="st27" d="M656.7,635.5c0.3,0.8,0.5,1.4,0.8,2.1C658.2,636.7,658.1,636.4,656.7,635.5z"/>
			<path class="st27" d="M602.6,649.7c3.9,1.6,7.7,3.2,11.5,4.7c2.5,0.9,4.9,1.8,7.4,2.6c2.6,0.8,5.4,0.8,8.1,0.6
				c7.6-0.7,14.9-3.1,22.2-5.1c4.3-1.2,8.5-2.5,12.4-4.5c1.1-0.6,2.1-1.3,3.1-2.1c0.7-0.7,0.7-1.2-0.1-1.9c-2.6-2.2-5.2-4.4-7.8-6.6
				c-1.9,3.6-5.2,5.2-8.6,6.5c-4.8,1.9-9.8,3-15,3.9c-8.7,1.4-17.5,1.9-26.4,1.9c-2.3,0-4.6-0.2-6.8-0.2
				C602.7,649.5,602.6,649.6,602.6,649.7z"/>
			<path class="st27" d="M567.3,637.7c0.7,1.6,2,2.5,3.4,3.3c3.3,1.9,7,3.1,10.7,3.9c5.1,1.2,10.4,1.9,15.6,2.5
				c6.9,0.6,13.8,0.7,20.7,0.5c9.4-0.3,18.7-1.3,27.8-3.9c2.3-0.6,4.6-1.7,6.9-2.5c0.2-0.1,0.4-0.3,0.7-0.4c0-0.1,0-0.1,0-0.2
				c-0.8,0.3-1.7,0.5-2.5,0.8c-1.6,0.6-3.3,1.1-4.8,1.7c-0.5,0.2-1,0.1-1.5-0.2c-1.6-1.2-3.3-2.3-5-3.4c-0.2-0.2-0.7-0.3-1-0.2
				c-10.3,2.1-20.7,2.7-31.2,2.4c-6.2-0.2-12.4-0.7-18.5-1.9c-4.5-0.8-9-1.9-13.1-4c-0.9-0.4-1.7-1-2.5-1.5c-0.7-0.6-1.4-1.2-2-1.7
				c-1.2,1.2-2.4,2.5-3.6,3.8C567.2,637,567.2,637.5,567.3,637.7z"/>
			<path class="st27" d="M623.3,582.4c7.5,3.3,13.5,8.5,18.6,14.8s8.8,13.3,11.5,20.9C651.3,602.8,641.5,587,623.3,582.4z"/>
			<path class="st27" d="M618.3,582.4L618.3,582.4c1.7,1.2,3.6,2.4,5.4,3.8c3.7,3,6.7,6.8,9.1,10.9c4.4,7.2,7.2,15,9.1,23.3
				c1.3,5.8,2.1,11.6,2.3,17.5c0.1,1.4,0.8,2.8,1.2,4.2c3.6-1.3,7.1-2.4,10.7-3.6c-0.2-0.6-0.5-1.3-0.7-1.9
				c-0.3-1.1-0.7-2.2-0.7-3.4c-0.3-6.9-2.1-13.4-4.8-19.7c-3.6-8.2-8.5-15.5-15.1-21.6c-4.7-4.3-10.1-7.7-16.3-9.5
				C618.5,582.4,618.3,582.4,618.3,582.4z"/>
			<path class="st27" d="M612.5,582.3c0.1,0,0.1,0.2,0.2,0.1c4.8,1.8,8.6,5,11.8,8.9c5,6.1,8.2,13.2,10.5,20.7
				c2.4,7.6,3.8,15.4,3.8,23.4c0,1.7,0.5,2.7,1.9,3.4c0.9,0.5,1.7,1.1,2.5,1.7c-0.2-1.8-0.4-3.5-0.5-5.4c-0.6-9.6-2.6-18.7-6.2-27.6
				c-2.3-5.6-5.1-10.8-8.9-15.5c-3.2-3.9-7-7.2-11.8-9.1C614.7,582.8,613.6,582.5,612.5,582.3z"/>
			<path class="st27" d="M570.9,629.7c0,2,1.2,3.2,2.6,4.3c2.8,2.1,6.1,3.2,9.5,4.1c5.5,1.5,11,2.3,16.7,2.8
				c6.8,0.6,13.5,0.7,20.4,0.4c5.6-0.3,11.3-1,16.8-2c0.3-0.1,0.5-0.1,0.7-0.2c-0.1-0.6-0.3-1.2-0.3-1.7c0-11.9-2.4-23.2-7.3-34
				c-2.2-4.9-5-9.4-8.8-13.3c-3.4-3.5-7.3-6-12.1-7c-3.4-0.6-6.8-0.4-10.1,0.8c-2.2,0.8-4.2,2.1-6.5,2.9c-2.4,0.8-4.4,2.2-6.3,3.9
				c-4.7,4.1-8.3,9.1-10.7,14.9c-1.8,4.3-3.1,8.7-3.8,13.2c-0.4,2.7-0.5,5.4-0.7,8.2C570.9,627.9,570.9,628.8,570.9,629.7z"/>
		</g>
	</g>
	<g id="mhKcRL.tif">
		<g>
			<path class="st28" d="M1220.9,1091.8c5.9,1.6,10.5,5,13.5,10.3c8.2,14,16.2,28.1,24.3,42.2c2.1,3.7,0.8,7.1-3.2,9.6
				c-3.9,2.4-8.1,3.5-12.6,4.3c-0.7,0.1-1.5-0.2-2,0.5c-57.1,0-114.1,0-171.2,0c-4.2-0.4-8.4-1.2-12.1-3.2c-2.5-1.4-4.6-3.1-5.7-5.9
				c0-1.3,0-2.6,0-3.8c9.9-14.5,19.9-29,29.7-43.7c3.6-5.3,8.3-8.7,14.4-10.3c0.5-0.1,0.9-0.1,1.4-0.2c0.8,1.2,0.2,2.5,0,3.7
				c-1.1,6-2.8,11.8-3.7,17.8c-0.5,3.4,0.7,5.9,3.2,8c5.5,4.4,12,6.3,18.6,8c11.3,2.9,22.8,4,34.5,4.6c15,0.8,29.8-0.2,44.5-2.7
				c8-1.3,15.9-3.3,23.1-7.2c1.3-0.7,2.5-1.4,3.6-2.3c3.3-2.6,4.5-5.5,3.2-9.9c-1.7-5.7-2.7-11.7-3.9-17.5
				C1220.4,1093.3,1220.1,1092.5,1220.9,1091.8z"/>
			<path class="st29" d="M1224,1119.6c-2.8,3.4-6.6,5.2-10.6,6.8c-8.4,3.4-17.1,5.1-26,6.3c-14.2,2-28.6,2.4-42.9,1.4
				c-13.4-0.9-26.7-2.7-39.4-7.6c-1.9-0.8-3.8-1.7-5.6-2.8c-6.6-3.9-7.7-6.6-6.1-14c1.3-6.1,2.6-12.1,3.9-18.2
				c5-23.1,10.1-46.2,15.1-69.3c0.2-0.7,0.3-1.4,0.5-2.1c0.7-0.6,1.4-0.2,2,0c3.3,1.3,6.5,2.8,10,3.8c0.6,0.2,1.1,0.6,1.4,1.2
				c0,0,5.4,1.9,12.8,2.8l0.1-0.1c2.1-0.8,4.1,0,6.2,0.2c15.3,1.3,30.3,0.3,45.1-3.9c4.1-1.2,8.1-2.5,12.1-3.9
				c0.9-0.3,1.7-1,2.7-0.2c5,23.4,10.1,46.7,15.1,70c0.1,0.5,0.3,1.1,0.5,1.6c1.4,7.2,2.8,14.4,4.7,21.4
				C1226.2,1115.7,1225.6,1117.8,1224,1119.6z"/>
			<path class="st29" d="M1187.9,939.9c-10.9,3.2-22.1,4.1-33.4,3.5c-0.9,0-1.7,0-2.6,0c-0.5,0-1,0-1.5,0c0,0,0,0-0.1,0
				c-0.3,0-0.6-0.1-1-0.1c-3.4-0.4-9-1.4-10.6-1.7c0,0.1-0.1,0.1-0.2,0.1c-3,0.4-5.8,0.1-8.3-1.9c4-18.2,8-36.5,11.9-54.7
				c0.3-1.5,0.6-3,1-4.4c0.9-4,2.4-5.7,6.5-6.2c6.4-0.9,12.8-1,19.1,0.2c3.5,0.6,5.5,2.6,6.2,6c4.1,19.2,8.3,38.3,12.4,57.5
				C1187.7,938.8,1187.8,939.3,1187.9,939.9z"/>
			<path class="st30" d="M1150.4,943.4c-0.4,0.2-0.7,0.2-1-0.1C1149.8,943.4,1150.2,943.4,1150.4,943.4z"/>
			<path class="st28" d="M1159.3,879.1c-2.8,0.1-5.6-0.3-8.3-1c-0.4-0.1-1-0.3-0.9-0.9c0.1-0.5,0.6-0.5,0.9-0.6
				c5.6-1.2,11.2-1.2,16.8,0c0.4,0.1,0.9,0.1,0.9,0.6c0,0.6-0.5,0.7-1,0.9C1165,878.9,1162.2,879.2,1159.3,879.1z"/>
			<path class="st29" d="M1152,943.4c-0.1,0.1-0.3,0.1-0.4,0.1c-0.3,0-0.7,0-1.1-0.1c0,0,0,0,0.1,0
				C1151,943.4,1151.5,943.4,1152,943.4z"/>
			<path class="st26" d="M1142.4,1028.4c14,1.9,27.9,1.1,41.7-1.8c7.3-1.5,14.3-4,21.2-6.4c-0.1-0.6-0.1-1.3-0.2-1.9
				c-1.2-5.3-2.5-10.6-3.6-16c-1.6-7.3-3-14.7-4.6-22.1c-1.4-6.7-3.1-13.2-4.4-19.9c-1.3-6.8-2.8-13.6-4.5-20.4
				c-0.9-0.6-1.9-0.2-2.8,0c-1.8,0.4-3.6,0.9-5.4,1.3c-8.2,1.7-15.5,2.2-23.9,2.1c-1.5,0-3.6,0.1-5.4-0.1
				c-7.3-0.9-16.1-2.3-16.1-2.3l-0.4-0.1c-1.2-0.3-2.4-0.6-3.5-0.9c-0.7,2.8-1.4,5.5-2,8.3c-1.2,5.7-2.2,11.4-3.4,17.1
				c-1.1,5.2-2.6,10.4-3.7,15.6c-1.8,8-3.6,16.1-5.2,24.2c-1,5-2.6,10-3,15.1c4.3,1.6,8.7,3.2,13,4.8c0.1-0.1,0.6,0.5,0.7,0.4
				c2.7,1-2.3-0.8,3.7,1.4c0.1,0,2,0.4,2.8,0.5L1142.4,1028.4z"/>
		</g>
	</g>
	<g id="mhKcRL.tif_1_">
		<g>
			<path class="st28" d="M204.2,1091.8c5.9,1.6,10.5,5,13.5,10.3c8.2,14,16.2,28.1,24.3,42.2c2.1,3.7,0.8,7.1-3.2,9.6
				c-3.9,2.4-8.1,3.5-12.6,4.3c-0.7,0.1-1.5-0.2-2,0.5c-57.1,0-114.1,0-171.2,0c-4.2-0.4-8.4-1.2-12.1-3.2c-2.5-1.4-4.6-3.1-5.7-5.9
				c0-1.3,0-2.6,0-3.8c9.9-14.5,19.9-29,29.7-43.7c3.6-5.3,8.3-8.7,14.4-10.3c0.5-0.1,0.9-0.1,1.4-0.2c0.8,1.2,0.2,2.5,0,3.7
				c-1.1,6-2.8,11.8-3.7,17.8c-0.5,3.4,0.7,5.9,3.2,8c5.5,4.4,12,6.3,18.6,8c11.3,2.9,22.8,4,34.5,4.6c15,0.8,29.8-0.2,44.5-2.7
				c8-1.3,15.9-3.3,23.1-7.2c1.3-0.7,2.5-1.4,3.6-2.3c3.3-2.6,4.5-5.5,3.2-9.9c-1.7-5.7-2.7-11.7-3.9-17.5
				C203.8,1093.3,203.5,1092.5,204.2,1091.8z"/>
			<path class="st29" d="M207.4,1119.6c-2.8,3.4-6.6,5.2-10.6,6.8c-8.4,3.4-17.1,5.1-26,6.3c-14.2,2-28.6,2.4-42.9,1.4
				c-13.4-0.9-26.7-2.7-39.4-7.6c-1.9-0.8-3.8-1.7-5.6-2.8c-6.6-3.9-7.7-6.6-6.1-14c1.3-6.1,2.6-12.1,3.9-18.2
				c5-23.1,10.1-46.2,15.1-69.3c0.2-0.7,0.3-1.4,0.5-2.1c0.7-0.6,1.4-0.2,2,0c3.3,1.3,6.5,2.8,10,3.8c0.6,0.2,1.1,0.6,1.4,1.2
				c0,0,5.4,1.9,12.8,2.8l0.1-0.1c2.1-0.8,4.1,0,6.2,0.2c15.3,1.3,30.3,0.3,45.1-3.9c4.1-1.2,8.1-2.5,12.1-3.9
				c0.9-0.3,1.7-1,2.7-0.2c5,23.4,10.1,46.7,15.1,70c0.1,0.5,0.3,1.1,0.5,1.6c1.4,7.2,2.8,14.4,4.7,21.4
				C209.6,1115.7,209,1117.8,207.4,1119.6z"/>
			<path class="st29" d="M171.3,939.9c-10.9,3.2-22.1,4.1-33.4,3.5c-0.9,0-1.7,0-2.6,0c-0.5,0-1,0-1.5,0c0,0,0,0-0.1,0
				c-0.3,0-0.6-0.1-1-0.1c-3.4-0.4-9-1.4-10.6-1.7c0,0.1-0.1,0.1-0.2,0.1c-3,0.4-5.8,0.1-8.3-1.9c4-18.2,8-36.5,11.9-54.7
				c0.3-1.5,0.6-3,1-4.4c0.9-4,2.4-5.7,6.5-6.2c6.4-0.9,12.8-1,19.1,0.2c3.5,0.6,5.5,2.6,6.2,6c4.1,19.2,8.3,38.3,12.4,57.5
				C171,938.8,171.2,939.3,171.3,939.9z"/>
			<path class="st30" d="M133.8,943.4c-0.4,0.2-0.7,0.2-1-0.1C133.2,943.4,133.5,943.4,133.8,943.4z"/>
			<path class="st28" d="M142.7,879.1c-2.8,0.1-5.6-0.3-8.3-1c-0.4-0.1-1-0.3-0.9-0.9c0.1-0.5,0.6-0.5,0.9-0.6
				c5.6-1.2,11.2-1.2,16.8,0c0.4,0.1,0.9,0.1,0.9,0.6c0,0.6-0.5,0.7-1,0.9C148.4,878.9,145.5,879.2,142.7,879.1z"/>
			<path class="st29" d="M135.3,943.4c-0.1,0.1-0.3,0.1-0.4,0.1c-0.3,0-0.7,0-1.1-0.1c0,0,0,0,0.1,0
				C134.4,943.4,134.9,943.4,135.3,943.4z"/>
			<path class="st26" d="M125.8,1028.4c14,1.9,27.9,1.1,41.7-1.8c7.3-1.5,14.3-4,21.2-6.4c-0.1-0.6-0.1-1.3-0.2-1.9
				c-1.2-5.3-2.5-10.6-3.6-16c-1.6-7.3-3-14.7-4.6-22.1c-1.4-6.7-3.1-13.2-4.4-19.9c-1.3-6.8-2.8-13.6-4.5-20.4
				c-0.9-0.6-1.9-0.2-2.8,0c-1.8,0.4-3.6,0.9-5.4,1.3c-8.2,1.7-15.5,2.2-23.9,2.1c-1.5,0-3.6,0.1-5.4-0.1
				c-7.3-0.9-16.1-2.3-16.1-2.3l-0.4-0.1c-1.2-0.3-2.4-0.6-3.5-0.9c-0.7,2.8-1.4,5.5-2,8.3c-1.2,5.7-2.2,11.4-3.4,17.1
				c-1.1,5.2-2.6,10.4-3.7,15.6c-1.8,8-3.6,16.1-5.2,24.2c-1,5-2.6,10-3,15.1c4.3,1.6,8.7,3.2,13,4.8c0.1-0.1,0.6,0.5,0.7,0.4
				c2.7,1-2.3-0.8,3.7,1.4c0.1,0,2,0.4,2.8,0.5L125.8,1028.4z"/>
		</g>
	</g>
</g>
<g>
	<path class="st17" d="M565.2,878.9c-2.3,3.1-4.3,5.8-6.4,8.6c-2.1,2.9-2.2,5.6-0.4,8c0.3,0.5,0.8,0.9,1.2,1.2
		c2.1,1.6,4.2,3.1,6.4,4.7c2.8,2,6.4,1.5,8.6-1.3c2-2.6,3.9-5.3,5.8-7.9c0.3-0.4,0.6-0.8,1.1-1.4c1.5,5,1.2,9.5-1.2,13.8
		c-3.5,6.3-9,9.4-16.3,9.3c-0.8,0-1.1,0.2-1.4,1c-0.4,1.3-1.1,2.4-1.9,3.4c-12.3,16.6-24.6,33.3-36.9,49.9c-2.3,3.2-5.5,4.8-9.4,4.5
		c-6.8-0.4-10.7-8-7.5-14.2c0.6-1.1,1.2-2.2,2-3.2c11.7-15.9,23.5-31.7,35.2-47.6c1.1-1.5,2.3-2.9,3.8-4c0.7-0.5,0.5-0.9,0.3-1.5
		c-2.1-6.3-1.1-12.1,3.1-17.2C554.9,881,559.4,879,565.2,878.9z"/>
	<path class="st27" d="M511.7,968.3c-2.7-2-3.3-5.9-1.3-8.6c1.9-2.6,5.9-3.2,8.5-1.4c2.6,1.9,3.3,6,1.4,8.6
		C518.4,969.6,514.4,970.3,511.7,968.3z"/>
</g>
<path class="st0" d="M536.3,857.2c0,0-18.7,25.7-19.2,33.1s12.4,71.5,12.4,71.5s-2,6.8-7.6,5.8c-5.5-1,0.1-6.8,0.1-6.8
	s-12.2,3.2-9.3-5.5c0,0-14,0.4-2.4-10.2l-20.2-54.6c0,0-15.7-49.8,6.4-66.7c22.1-16.9,33.1-6.1,38.6,1.8
	C539.7,832,545.6,844.8,536.3,857.2z"/>
</svg>
