<?xml version="1.0" encoding="utf-8"?>
<!-- Generator: Adobe Illustrator 19.1.0, SVG Export Plug-In . SVG Version: 6.00 Build 0)  -->
<svg version="1.1" id="Layer_1" xmlns="http://www.w3.org/2000/svg" xmlns:xlink="http://www.w3.org/1999/xlink" x="0px" y="0px"
	 viewBox="0 0 1459.1 911.8" style="enable-background:new 0 0 1459.1 911.8;" xml:space="preserve">
<style type="text/css">
	.st0{fill:#63AFAF;stroke:#154F4D;stroke-miterlimit:10;}
	.st1{fill:#63AFAF;}
	.st2{fill:#D68FAF;}
	.st3{fill:#C34E8E;}
	.st4{fill:#D478A2;}
	.st5{fill:#CC84AA;}
	.st6{fill:#93662B;}
	.st7{fill:#A06D30;}
	.st8{opacity:0.47;fill:#B1447A;enable-background:new    ;}
	.st9{fill:#F8F4E7;}
	.st10{fill:#603F19;}
	.st11{fill:#E5B1CB;}
	.st12{fill:#6BA2A7;stroke:#08383A;stroke-miterlimit:10;}
	.st13{fill:#407F82;stroke:#407F82;stroke-miterlimit:10;}
	.st14{fill:#1E6468;stroke:#08383A;stroke-miterlimit:10;}
	.st15{fill:#08383A;}
	.st16{fill:#C795C3;stroke:#407F82;stroke-miterlimit:10;}
	.st17{fill:#407F82;}
	.st18{fill:#C795C3;}
	.st19{fill:#FFFFFF;}
	.st20{opacity:0.56;fill:none;stroke:#B1447A;stroke-miterlimit:10;enable-background:new    ;}
	.st21{opacity:0.35;fill:#E5B1CB;enable-background:new    ;}
	.st22{opacity:0.4;fill:#E5B1CB;enable-background:new    ;}
	.st23{fill:#B1447A;}
	.st24{opacity:0.75;fill:none;stroke:#B1447A;stroke-miterlimit:10;enable-background:new    ;}
	.st25{opacity:0.59;fill:none;stroke:#B1447A;stroke-miterlimit:10;enable-background:new    ;}
	.st26{fill:none;stroke:#755426;stroke-miterlimit:10;}
	.st27{fill:#F68921;}
	.st28{fill:#F57F20;}
</style>
<g>
	<g>
		<path class="st0" d="M966.4,366.3c-2.3,3.1-4.3,5.8-6.4,8.6c-2.1,2.9-2.2,5.6-0.4,8c0.3,0.5,0.8,0.9,1.2,1.2
			c2.1,1.6,4.2,3.1,6.4,4.7c2.8,2,6.4,1.5,8.6-1.3c2-2.6,3.9-5.3,5.8-7.9c0.3-0.4,0.6-0.8,1.1-1.4c1.5,5,1.2,9.5-1.2,13.8
			c-3.5,6.3-9,9.4-16.3,9.3c-0.8,0-1.1,0.2-1.4,1c-0.4,1.3-1.1,2.4-1.9,3.4c-12.3,16.6-24.6,33.3-36.9,49.9
			c-2.3,3.2-5.5,4.8-9.4,4.5c-6.8-0.4-10.7-8-7.5-14.2c0.6-1.1,1.2-2.2,2-3.2c11.7-15.9,23.5-31.7,35.2-47.6c1.1-1.5,2.3-2.9,3.8-4
			c0.7-0.5,0.5-0.9,0.3-1.5c-2.1-6.3-1.1-12.1,3.1-17.2C956.1,368.4,960.6,366.4,966.4,366.3z"/>
		<path class="st1" d="M912.9,455.7c-2.7-2-3.3-5.9-1.3-8.6c1.9-2.6,5.9-3.2,8.5-1.4c2.6,1.9,3.3,6,1.4,8.6
			C919.6,457,915.6,457.7,912.9,455.7z"/>
	</g>
	<path class="st2" d="M446.2,640.9l54.5,72c0,0-1.4,20.3-24.3,9.8c0,0-19,16.4-22.3-7.2c0,0-13.7,13.1-22.3,0
		c-8.6-13.1,7.9-20.3,7.9-20.3s-24.3,12.5-15.1-9.8c0,0-23-5.3-2.6-13.7c0,0-17.7-8.5-5.3-19.7c0,0,7.2-5.3,15.8,1.3
		C432.4,653.4,422.6,640.9,446.2,640.9z"/>
	<path class="st3" d="M676.3,462.6c0,0,73.3,25,91,20.6c17.5-4.4,157.4-80.4,157.4-80.4s17.4-0.3,19,13.4c1.7,13.6-16,4.7-16,4.7
		s16.4,26-6.2,25.7c0,0,11,32.2-22,13.1L787,546.2c0,0-104.7,72.4-160,33.4c-55.4-39-23.8-91-23.8-91S640.9,450.1,676.3,462.6z"/>
	<path class="st4" d="M612,763.6c0,0,14.3,2.8,28.8,7.5c0,0,36.6,4.3,23.9-60.3c-12.7-64.6,1.1-104.9,1.1-104.9s19.4-48.1,24.3-51.9
		c5-3.8-11.7-42.4-11.7-42.4s-16.6-44.7-4.5-64.2c12-19.4,28.3-42.2,78.5-51.3c46.1-8.4,52.4,14,53,17.7c-0.5-3.7-2.8-25.2,0.2-36.2
		c10.7,4.8,22,0.1,27.7-2.9c1.1-0.1,2.4-0.2,3.5-0.3c-1,12.5,10.7,13.9,10.7,13.9c-3.2-9.1-0.7-13.5,1.6-15.4
		c0.8-0.1,1.5-0.2,2.1-0.2c-2,6.3,5.2,11,5.2,11c-0.2-6.2,3.2-7.3,6.3-7.1c4.1,9.3,18.7,8.4,18.7,8.4c-4.6,0,5.3-32.1,5.3-32.1
		c13.9-2.6,40.8-49.2,40.8-49.2c3.3,6.5,19,5.8,19,5.8c-8.6-7.2-11.1-21.6-11.1-21.6c3.9-30.2-6.5-56-6.5-56l23.1-3.4l-23.2-15.2
		c14.4,1.6,25-3.9,25-3.9c-22.6,1.1-41.6-11.5-41.6-11.5c-14.5-19.9-30.4-32.9-43.8-41.3c5.1-0.8,9-2.8,9-7.4c0,0-5.3,4.3-15.9,3.4
		c-14.1-7.9-24-10.2-24-10.2c3.6-4.2,23.8-4.2,23.8-4.2c-11.3-8.9-35.4-1.5-35.4-1.5c-0.9-8,16.7-17.5,16.7-17.5
		c-13.1-3.3-23.4,9.2-23.4,9.2s-9.2-36.4-8-23.7c1.1,12.7-7.1,20.4-7.1,20.4c-6.2-0.6-12.5-19.5-12.5-19.5l0.9,20.7l0.1,3.9
		c-0.3-1.7-1-3-1.9-4.3c-7.8-10.7-33.6-7.5-33.6-7.5c3.5,0,7.8,1.8,11.8,4.2c-7.5-0.8-15.7-1.2-24.3-1.5c0,0-36.9,1.2-62.7,14.3
		c-25.9,13-60.1-22.2-60.1-22.2s-4.5,18.6,14.3,25.5c0,0-31.5,1.5-36,8.9l23.8,1.8c0,0-19,8-23.5,24c0,0,24.1-15.4,29.6-8.5
		c0,0-24.7,24-38.7,56.9c0,0-1,1.2-2.8,3.3c-6.9,1.2-11.3,1.5-11.3,1.5c1.1,2,3.6,3.1,6.6,3.8c-5.5,6.3-13.4,15-20.6,22.7
		c-8.4,2.2-14.3,3.7-14.3,3.7c1.6,1.7,3.9,2.9,6.8,3.9c-4.6,4.5-8.2,7.7-10,8.2c0,0,8.9,3.9,20-6c1-0.9,2-1.8,3-2.9
		c4.3-4.7,3.2-2.4-1.5,3.1c-8.8,10.6-30,32.7-48.9,40.2c0,0,20.9-0.4,28.9-6.2c-8.1,6.8-44.7,38.5-47.3,51.5c0,0,13.9-7.2,20.3-12.9
		c-2.5,2.7-29.3,32.1-31.8,42.1l22-18.9l-11,28.2c0,0,22.5-20.9,35.1-14.6c0,0-81.6,99.9-92.9,181.5c0,0-29.3,139.6,88.2,189.2
		c12.4,5.3,43.9,11.6,52.6,11.6c0,0,10.4,24.6,2.8,47.7 M548.2,296.8c-0.2,0.2-0.5,0.3-0.7,0.6c0.5-0.3,0.8-0.7,1.1-0.9
		C548.5,296.5,548.3,296.6,548.2,296.8z"/>
	<path class="st5" d="M724.9,801.6c0,0-6.1-9.2,8-19c14.2-9.8,41.8-25.8,42.5-33.1c0.7-7.3-1.2-10.8-1.2-10.8l-122.7-21.9
		l-10.6,54.2c0,0,46.8,4.6,67.8-1c0,0,8.8,21.8-2.6,41"/>
	<path class="st6" d="M792.5,126.5c-0.6-0.1-1.1-0.2-1.8-0.3c0.9,1.2,1.6,2.7,1.9,4.3L792.5,126.5z"/>
	<path class="st7" d="M676.6,298.2c-0.1,0.1-0.3,0.2-0.7,0.6c-0.2,0.2-0.5,0.3-0.7,0.6C676,298.8,676.5,298.3,676.6,298.2z"/>
	<path class="st2" d="M804.6,408.4c0,0-49.3-58.3-134.2,21.4s-64,253.8-9.6,295.2c54.4,41.5,113.3,13.7,113.3,13.7
		S851,598.2,804.6,408.4z"/>
	<path class="st6" d="M567.1,263.4c-0.6-0.1-1-0.1-1.6-0.2c1-0.9,2-1.8,3-2.9C573,255.5,571.8,257.8,567.1,263.4z"/>
	<path class="st2" d="M892.7,246.8c10.5,16.5,18.4,28.6-10.2,76.2c-28.8,48.1-71.1,25-71.1,25s-27.5-21.1-63.5-9.5
		c-36,11.6-56.5,11.6-70-11.6c-13.5-23-9.1-60.2,9.1-81.7c18.4-21.6,36.9-44.5,87.3-34.1c9.6,2,15.1,4.5,33.9,18.1
		c18.8,13.6,44.8,7,59.8,5.5C874.9,234.1,885.5,235.4,892.7,246.8z"/>
	<ellipse class="st8" cx="857.9" cy="282.5" rx="19.9" ry="18.3"/>
	<ellipse class="st8" cx="752.7" cy="257" rx="23.4" ry="20.5"/>
	<ellipse class="st9" cx="856.4" cy="282.8" rx="18" ry="16.6"/>
	<ellipse class="st10" cx="861" cy="279.8" rx="8.9" ry="8.1"/>
	<ellipse class="st9" cx="753.4" cy="257.6" rx="21.3" ry="18.6"/>
	<ellipse class="st10" cx="760.1" cy="255.4" rx="9.1" ry="8.2"/>
	<path class="st11" d="M800.7,284.6c0,0,6.5-2,9,2.2c2.5,4.3,10.2,6.5,11.9,0c1.7-6.5-5-14.7-12.7-15.5c-7.8-0.8-17-1.2-20.7,9
		C784.5,290.6,800.7,284.6,800.7,284.6z"/>
	<circle class="st2" cx="813.9" cy="282.7" r="1.3"/>
	<g>
		<path class="st12" d="M816.6,867c0,1.8,0,3.5,0,5.3c-0.4,0-0.7,0-1.1,0c-17.2,0-34.3,0.1-51.5-0.1c-2.4,0-4.8-0.8-7.1-1.5
			c-6.6-2.1-13.4-2.9-20.3-3.3c-1.5-0.1-3-0.2-4.6-0.3c0,1.7,0,3.3,0,5c-13.3,0-26.5,0-39.7,0c0-3.1,0-6.2,0-9.4
			c0.3,0,0.6-0.1,1-0.1c12.6,0,25.2,0,37.9,0c8.1,0,16,0.8,24,2.4c6.3,1.2,12.6,1.8,19,1.8c13.7,0,27.3,0,41,0
			C815.6,867,816.1,867,816.6,867z"/>
		<path class="st12" d="M692.4,862.4c0-0.4,0-0.7,0-1.1c0.4,0,0.8,0,1.2,0c12,0,24,0,36.1,0c9.1,0,18.1,0.9,27,2.6
			c5.7,1.1,11.5,1.5,17.3,1.5c13.1,0,26.3,0,39.4,0c1,0,2.1,0,3.2,0c0,0.4,0,0.7,0.1,1c-0.2,0.1-0.2,0.1-0.3,0.1c-0.2,0-0.4,0-0.5,0
			c-14.2,0-28.3,0-42.5,0c-6.6,0-13.1-0.7-19.6-2c-8.1-1.6-16.3-2.2-24.5-2.2c-11.8,0-23.6,0-35.3,0
			C693.4,862.4,693,862.4,692.4,862.4z"/>
		<path class="st13" d="M691.7,840.9c1,0,1.7,0,2.4,0c0,0,0-0.1,0-0.1c-0.7-0.1-1.4-0.2-2.1-0.3c-0.1-0.1-0.1-0.2-0.2-0.2
			c0.3-0.2,0.5-0.6,0.8-0.6c5.5,0.5,10.9,1.4,15.6,4.6c4,2.7,6.5,6.5,7.9,11.1c0.5,1.8,0.8,3.7,1.3,5.5c-0.9,0.2-0.9,0.2-1.5-1.5
			c0,0.5,0.1,1,0.1,1.7c-0.5,0-0.9,0-1.3,0c-7,0-14,0-21,0c-1.6,0-1.6,0-1.9-1.6c-0.7-4.2-0.8-8.5-0.5-12.8
			C691.4,844.8,691.5,842.9,691.7,840.9z"/>
		<path class="st14" d="M777,837.7c0.2-0.2,0.5-0.4,0.7-0.7c1.8,0.9,3.6,1.8,5.6,2.6c4.5,1.8,9.3,2.5,14.2,3
			c2.7,0.3,5.5,0.4,8.2,0.9c6.2,1.1,11.1,7.6,10.5,13.3c-0.3,2.6-0.8,5.1-1.3,7.6c-0.1,0.6-0.4,0.8-1.1,0.8c-14.7,0-29.5,0-44.2-0.1
			c-5.7,0-11.4-1.1-17-2.1c-6-1.1-12-1.7-18-1.8c-3.3-0.1-6.6-0.1-9.9-0.1c-0.3,0-0.7,0-1.1,0c0.1-2.4,1.2-4.1,2.9-5.3
			c2.1-1.5,4.4-3,6.7-4c8.1-3.6,16.7-5.1,25.6-5.3c4.5-0.1,8.9-0.2,13.4-0.2c3.2,0,5.7-1.2,7.9-3.4c1.2-1.2,1.1-2-0.4-2.7
			c-0.8-0.4-1.6-0.8-2.4-1.3c-0.2-0.1-0.3-0.5-0.5-0.8C776.8,837.9,776.9,837.8,777,837.7z"/>
		<path class="st13" d="M736.3,792.1c0.9-0.1,1.5-0.1,2.3-0.1c0,2.8,0,5.6,0,8.5c-0.8,0-1.6,0-2.3,0
			C736.3,797.7,736.3,795,736.3,792.1z"/>
		<path class="st13" d="M735.9,803.4c1-0.1,1.8-0.1,2.6-0.2c0.1,1.2,0.2,2.3,0.3,3.4c0,0.1,0,0.3,0,0.4c0.1,0.8,0.6,1.8,0.3,2.2
			c-0.5,0.7-1.5,0.9-2.4,1.4C735.8,808.3,736,805.9,735.9,803.4z"/>
		<path class="st13" d="M744.5,816.8c-0.3,0.5-0.7,1-1.1,1.7c-2.1-1.5-4.3-2.8-5.6-5.2c0.9-0.5,1.8-0.9,2.5-1.2
			C741.7,813.6,743,815.2,744.5,816.8z"/>
		<path class="st13" d="M733.5,785c1.6-0.2,2.9-0.4,4.2-0.4c0.2,0,0.7,0.5,0.7,0.7c-0.2,0.7-0.4,1.7-0.9,2c-0.6,0.4-1.6,0.6-2.3-0.5
			C734.9,786.1,734.2,785.7,733.5,785z"/>
		<path class="st13" d="M736.3,788.5c-0.1-0.3-0.1-0.5-0.2-0.7c2-0.3,2.3-0.6,2.5-2.3c0.1-0.9-0.3-1.3-1.1-1.2
			c-1.1,0.1-2.3,0.3-3.4,0.4c-0.7,0.1-1.4,0-2.1,0c0-0.2,0-0.3,0-0.5c1.9-0.2,3.8-0.6,5.7-0.7c1.3-0.1,1.7,0.6,1.7,1.8
			C739.5,787.3,738.6,788.2,736.3,788.5z"/>
		<path class="st13" d="M746.4,818.7c0.2-0.2,0.4-0.3,0.6-0.5c2.6,1.6,5.1,3.2,7.7,4.9c-0.1,0.3-0.2,0.6-0.2,0.9
			c-0.1,0.1-0.2,0.3-0.4,0.4c-0.3,0.6-0.7,0.6-1.3,0.2c-2.1-1.4-4.3-2.7-6.5-4.1c-0.3-0.2-0.5-0.5-0.7-0.7
			C745.8,819.4,746.1,819.1,746.4,818.7z"/>
		<path class="st13" d="M756.7,825.1c0.3-0.1,0.6-0.3,0.8-0.2c2.5,1.5,5,3,7.5,4.5c-0.4,0.6-0.7,1.1-1.1,1.6c-2.5-1.5-5-2.9-7.5-4.4
			c-0.2-0.1-0.3-0.4-0.4-0.6C756.2,825.7,756.5,825.4,756.7,825.1z"/>
		<path class="st13" d="M766.5,831.7c0.1-0.1,0.2-0.2,0.3-0.3c0.2-0.2,0.4-0.3,0.6-0.5c2.6,1.5,5.2,3.1,7.8,4.6
			c-0.4,0.5-0.7,1-1.1,1.6c-1.1-0.6-2.1-1.2-3.2-1.8c-1.3-0.8-2.7-1.6-4-2.3C766.4,832.6,766.3,832.3,766.5,831.7z"/>
		<path class="st15" d="M740.3,801.4c0,0.1,0.1,0.2,0.1,0.4c0,0,0,0,0,0.1c0,0,0,0,0,0c0,0.1,0,0.1,0,0.2c0,0.6-0.5,1-1.6,1
			c-2.1,0.1-4.3,0.1-6.4,0.2c-0.8,0-1.5-0.1-1.6-1.1c0-0.9,0.7-1.1,1.4-1.2c2.2-0.1,4.5-0.2,6.7-0.2c0.1,0,0.3,0,0.4,0
			c0.1,0,0.2,0,0.3,0.1c0,0,0,0,0.1,0 M739.1,800.3v-8.3c0.3-0.1,0.6-0.3,0.9-0.4c-2.5,0.1-4.9,0.2-7.4,0.2c-0.2,0-0.4,0-0.6,0
			c0,0-0.1,0-0.1,0c-0.1,0-0.2,0-0.3,0c0,0,0,0,0,0c-0.1,0-0.2,0-0.3-0.1c-0.1,0-0.1,0-0.2,0h0c0,0,0,0,0,0c0.2,0.2,0.3,0.5,0.4,0.6
			c-0.9,0.1-1.6-0.4-1.6-1.3c-0.1-0.8,0.5-1.5,1.6-1.6c-0.3,0.4-0.7,0.7-0.7,1.1c0,0.1,0,0.1,0,0.2c0,0,0,0,0,0.1c0,0,0,0,0,0.1
			c0,0,0,0.1,0,0.1c0,0,0,0,0,0c0,0,0,0,0,0.1c0,0,0,0,0,0.1c0,0,0,0,0,0c0,0,0,0.1,0.1,0.1c0.1,0.1,0.1,0.3,0.2,0.4
			c0,0,0,0.1,0,0.1c0,0,0,0,0,0c-0.1-0.3-0.2-0.5-0.2-0.7c0,0,0-0.1,0-0.1c-0.1-0.8,0.3-1.1,1.5-1.2c2.2-0.1,4.5-0.2,6.7-0.2
			c0.5,0,0.9,0.3,1.4,0.4c-0.4-0.3-0.9-0.6-1.5-1c0.1-0.4,0.2-1,0.5-1.5c0.9-1.9,0.6-3.3-0.8-4.3h-3c-2.1,0.4-4.1,1-6.3,0.8
			c-3.2-0.3-6.5,0-9.6,0.4c-4.6,0.6-9.2,1.6-13.8,2.2c-2.1,0.3-4.3,0.4-6.4,0.4c-2.3,0-3.9,1.3-4,3.6c0,1.1,0,2.2,0,3.5
			c-0.5,0-1.1,0.1-1.7,0.1v13.8c0.7,0,1.3,0.1,2,0.1c-0.1,2.8-0.2,5.5-0.4,8.3h-2c-0.1,1.6-0.3,3.2-0.4,4.9
			c-0.2,2.5-0.5,5.1-0.8,7.6c-0.1,1.3-0.2,1.3,1.1,1.4c0.2,0,0.4,0.1,0.8,0.2c-0.5,2.9-1,5.9-1.5,8.8c-0.5,0.1-0.7,0.1-1.1,0.1
			c-0.1,0.9-0.3,1.8-0.4,2.7c-0.2,1.4-0.3,2.8-0.4,4.2v8.8c0.1,0.9,0.2,1.7,0.4,2.6c0.7,3,0.9,6.1,0.8,9.2c-0.1,1.6,0,3.3,0,4.9v1.1
			h40.8v-4.9c0.5,0,0.9,0,1.3,0c2.5,0.2,5,0.4,7.6,0.6c5.2,0.4,10.2,1.3,15.2,2.8c2.3,0.7,4.7,1.5,7.1,1.5
			c17.4,0.1,34.9,0.1,52.3,0.1h1.1v-7.8H815c0.1-0.5,0.3-0.8,0.4-1.1c0.9-3.3,1.7-6.8,0.9-10.2c-1.3-5.6-4.9-9.4-10.6-10.7
			c-2.6-0.6-5.4-0.6-8-0.9c-4.8-0.5-9.6-1.1-14.2-3c-1.9-0.8-3.7-1.7-5.6-2.6c1.1-2,1.1-2.2,0.2-2.9l0,0.1c0.6,0.7,0.5,1.3,0,2
			c-0.4,0.6-0.7,1.2-1.1,1.8c0.2-0.2,0.5-0.4,0.7-0.7c1.8,0.9,3.6,1.8,5.6,2.6c4.5,1.8,9.3,2.5,14.2,3c2.7,0.3,5.5,0.4,8.2,0.9
			c6.2,1.1,11.1,7.6,10.5,13.3c-0.3,2.6-0.8,5.1-1.3,7.6c-0.1,0.6-0.4,0.8-1.1,0.8c-14.7,0-29.5,0-44.2-0.1c-5.7,0-11.4-1.1-17-2.1
			c-5.9-1.1-12-1.7-18-1.8c-3.3-0.1-6.6-0.1-9.9-0.1c-0.3,0-0.7,0-1.1,0c0.1-2.4,1.2-4.1,2.9-5.3c2.1-1.5,4.4-3,6.7-4
			c8.1-3.6,16.7-5.1,25.6-5.3c4.5-0.1,8.9-0.2,13.4-0.2c3.2,0,5.7-1.2,7.9-3.4c1.2-1.2,1.1-2-0.4-2.7c-0.8-0.4-1.6-0.8-2.4-1.3
			c-0.2-0.1-0.3-0.5-0.5-0.8c-0.2,0.3-0.4,0.6-0.6,0.9c1.3,0.7,2.7,1.2,4,2c0.7,0.5,0.1,1.1-0.3,1.5c-2.2,2.2-4.8,3.3-7.9,3.3
			c-4.6,0-9.2,0.1-13.8,0.2c-9.4,0.2-18.4,2-26.9,6.1c-1.7,0.8-3.3,1.9-4.8,3c-1.9,1.4-3.2,3.3-3.4,6c-0.5-0.1-1-0.2-1.4-0.3
			c-0.4,0.1-0.9,0.2-1.3,0.2c-2.6,0-2.5,0-3-2.5c-1.9-10.1-8-16.4-18.4-18.4c-1.9-0.4-3.8-0.6-5.7-0.9c0.5-2.9,1-5.8,1.5-8.7
			c1.4-0.3,1.6-0.2,2.1,1.1c0.4,1.1,1.7,2,2.8,1.9c1.4-0.1,2.5-1,2.8-2.3c0.3-1.7,0.4-3.3,0.6-5c0.3-2.7,0.6-5.5,0.9-8.3
			c0.1-1.4-0.3-2.5-1.5-3.2c-1.1-0.6-2.1-0.5-3,0.2c-0.5,0.4-0.8,1-1.3,1.6c-0.5-0.1-1.2-0.1-1.9-0.2c0.1-2.9,0.2-5.6,0.3-8.5h1.5
			c0.4,0.7,0.8,1.4,1.3,1.9c0.8,0.7,1.8,1,2.8,0.5c1.1-0.5,1.9-1.3,1.9-2.6c0-4.6,0-9.1,0-13.7c0-1.4-1.1-2.6-2.5-2.7
			c-1.6-0.2-2.7,0.6-3.4,2.5h-2c0-1.5-0.1-2.9,0-4.3c0.1-1.4,1.6-2.4,3-2.3c4.1,0.4,8-0.4,11.9-1.2c5.8-1.2,11.7-1.9,17.7-1.9
			c2.1,0,4.1,0.8,5.7,2.2c0.9,0.7,1.6,1.6,1.6,3c-0.5,0-0.9,0-1.3,0.1c-0.1-0.5-0.1-0.9-0.2-1.3c0,0-0.1,0-0.1,0
			c0,0.4,0,0.8-0.1,1.3c-0.3-0.1-0.6-0.2-0.8-0.3h0c0,0,0,0,0,0c-0.4,0-0.8,0.1-1.2,0c-0.9-0.3-1.7-0.1-2.2,0.6
			c-0.5,0.7-0.5,1.5,0,2.1c0.6,0.7,1.4,0.9,2.3,0.5c0.3-0.1,0.7-0.3,1.1-0.4c-0.1,0.3-0.1,0.5-0.2,0.7c0,0,0,0,0,0c0,0,0,0,0,0
			c0.3-0.2,0.6-0.4,1-0.8c0.1,0.8,0.1,1.4,0.2,2.1c0.1,0,0.1,0,0.2,0v-1.9h1.2v8.4c-0.6,0-1,0.1-1.5,0.1c0-0.6,0.1-1,0.1-1.5
			c-0.1,0-0.1,0-0.2,0c-0.1,0.5-0.1,0.9-0.2,1.6c-0.9-1-1.9-1.6-3.1-1.3c-0.6,0.2-1.2,0.5-1.5,1c-1,1.1-0.8,2.6,0.2,3.6
			c1.2,1.2,2.6,1.1,4.3-0.3c0.1,0.5,0.1,1,0.2,1.5c0.1,0,0.1,0,0.2,0v-1.7h1.4c0,0.7-0.1,1.4,0,2.2c0.2,1.8,0.5,3.7,0.7,5.5
			c1.1-0.5,2.1-1,3.2-1.5c0.7-0.3,1.4-0.4,1.8,0.4c0.4,0.8-0.1,1.2-0.8,1.6c-2,1-4.1,2-6.1,3c-0.7,0.3-1.4,0.4-1.7-0.3
			c-0.4-0.8,0-1.3,0.7-1.7c0.9-0.4,1.9-0.9,2.8-1.4c-0.3,0-0.6,0.1-1,0.1c-0.1-0.3-0.3-0.7-0.4-1.1c-0.1,0-0.1,0-0.1,0
			c0.1,0.4,0.2,0.8,0.3,1.5c-1.2-0.5-2.4-0.9-3.4,0.1c-0.5,0.5-0.9,1.1-1.1,1.7c-0.4,1.2,0.6,2.6,1.8,3.1c1.5,0.6,2.8-0.2,3.8-2.4
			c0.4,0.6,0.8,1.1,1.1,1.6c0.1,0,0.1-0.1,0.2-0.1c-0.3-0.5-0.7-1.1-1.1-1.7c0.4-0.2,0.7-0.4,1.1-0.6c1.3,2.2,3.3,3.5,5.2,4.9
			c0.5,0.3,0.5,0.6,0.3,1.1c0,0,0,0,0,0c0,0,0,0,0,0c0.9-1.2,1.7-2.4,2.6-3.6c-0.5,0.4-1,0.3-1.4-0.2c-1.1-1.2-2.2-2.5-3.2-3.6
			c1.2-1.6,0.9-2.3-0.7-2.9c-0.2-0.1-0.4-0.3-0.5-0.5c-0.3-1.8-0.5-3.6-0.8-5.3c0.2,0.1,0.3,0.1,0.5,0.2c0.4-0.5,1-0.8,1.3-1.4
			 M732.4,816.4c-1.4-0.4-2.2-1.8-1.8-3.1c0.4-1.2,1.9-2.3,3.6-1.3c-0.6,0.1-0.9,0.2-1.3,0.2c-0.9,0.1-1.5,0.6-1.7,1.5
			c-0.1,0.9,0.2,1.5,0.9,1.9c0.8,0.4,1.6,0.3,2.1-0.4c-0.1,0-0.3,0-0.4,0.1c-1,0.5-1.8,0.3-2.3-0.5c-0.5-0.8-0.2-1.5,0.9-2.2
			c-0.1,0.3-0.2,0.5-0.3,0.6c-0.4,1,0.1,1.9,1.1,2c0.3,0,0.6,0,0.9,0h0c0.3-0.2,0.6-0.5,1-0.8C735.1,815.9,733.7,816.8,732.4,816.4z
			 M744.5,816.8c-0.3,0.5-0.7,1-1.1,1.7c-2.1-1.5-4.3-2.8-5.6-5.2c0.9-0.5,1.8-0.9,2.5-1.2C741.7,813.6,743,815.2,744.5,816.8z
			 M738.5,803.3c0.1,1.2,0.2,2.3,0.3,3.4c0,0.1,0,0.3,0,0.4c0.1,0.8,0.6,1.8,0.3,2.2c-0.5,0.7-1.5,0.9-2.4,1.4
			c-1-2.4-0.7-4.8-0.9-7.3C736.8,803.4,737.6,803.3,738.5,803.3z M731,800.3c0,0-0.1,0-0.1,0c0,0,0,0,0,0c0,0-0.1,0-0.1,0
			c-0.2,0.1-0.4,0.2-0.6,0.5c0,0,0,0,0,0l0,0c0,0,0,0,0,0c0.2-0.1,0.5-0.1,0.7-0.2c0.1,0,0.2-0.1,0.3-0.1c0.1,0,0.1,0,0.2,0
			c-1.3,1.3-1.2,2,0.2,3c-1.5,0.1-2.2-0.9-1.6-2.2c0.1-0.1,0.1-0.3,0.1-0.4c0,0,0,0,0,0c0,0,0,0,0,0c0,0,0,0,0,0
			c-0.1,0.1-0.2,0.1-0.3,0.2c0,0,0,0-0.1,0.1c0,0-0.1,0.1-0.1,0.1c0,0,0,0,0,0.1c0,0,0,0,0,0.1c0,0,0,0.1-0.1,0.1c0,0,0,0.1,0,0.1
			c0,0,0,0,0,0.1c0,0,0,0,0,0.1c-0.1,0.3,0,0.7,0.2,1c0.8,1.9,2.3,0.9,3.7,0.6c-0.8,1.1-1.6,1.5-2.7,1.2c-1-0.3-1.8-1.2-1.8-2.2
			c-0.1-1.1,0.5-2,1.6-2.5c1-0.4,1.9-0.1,2.7,0.8C732.5,800.8,731.7,800.3,731,800.3z M736.3,792.1c0.9-0.1,1.5-0.1,2.3-0.1v8.5
			h-2.3V792.1z M735.2,786.7c-0.4-0.6-1-1-1.8-1.7c1.6-0.2,2.9-0.4,4.2-0.4c0.2,0,0.7,0.5,0.7,0.7c-0.2,0.7-0.4,1.7-0.9,2
			C736.9,787.5,735.9,787.8,735.2,786.7z M737.7,783.5c1.3-0.1,1.7,0.6,1.7,1.8c0,2-0.9,2.9-3.2,3.1c-0.1-0.3-0.1-0.5-0.2-0.7
			c2-0.3,2.3-0.6,2.5-2.3c0.1-0.9-0.3-1.3-1.1-1.2c-1.1,0.1-2.3,0.3-3.4,0.4c-0.7,0.1-1.4,0-2.1,0c0-0.2,0-0.3,0-0.5
			C734,783.9,735.8,783.6,737.7,783.5z M701.3,814.9c1.2,0.3,2.2,1.4,2.1,2.7c-0.4,4.4-0.9,8.8-1.4,13.3c-0.2,1.5-1.3,2.4-2.7,2.3
			c-1.2-0.1-2.1-1.1-2.2-2.4c0.1-0.1,0.2-0.2,0.2-0.2c0.2,0.2,0.5,0.4,0.6,0.7c0.4,0.7,0.9,1.2,1.8,1c0.9-0.1,1.3-0.8,1.4-1.6
			c0.5-4.3,1-8.6,1.3-12.9c0-0.5-0.5-1.3-0.9-1.7c-0.6-0.5-1.2-0.2-1.8,0.3c-0.3,0.3-0.7,0.4-1.2,0.7
			C699.1,815.3,700.2,814.6,701.3,814.9z M698.3,831.1c0-0.1,0.1-0.2,0.1-0.3c0.7,0.1,1.3,0.1,2,0.2c0,0.1,0,0.3,0.1,0.4
			c-0.4,0.1-0.8,0.4-1.1,0.4C699,831.7,698.7,831.3,698.3,831.1z M702.1,817c-0.8,0-1.4-0.1-2.2-0.1C700.7,816,701.1,816,702.1,817z
			 M701.4,791.9c1.2,0.2,2,1.2,2,2.7c0,4.3,0,8.6,0,12.9c0,1.4-0.9,2.5-2.2,2.7c-1.2,0.2-2.3-0.7-2.8-2.5c0.5,0.3,0.9,0.4,1,0.6
			c0.5,0.7,1.1,1.1,1.9,0.9c0.9-0.3,1.2-0.9,1.2-1.8c0-4.2,0-8.4,0-12.6c0-0.9-0.2-1.6-1.1-2c-0.8-0.3-1.5,0.1-2,0.8
			c-0.1,0.2-0.5,0.3-1,0.5C699.1,792.3,700,791.7,701.4,791.9z M699.9,807.9h2.2C701.3,809.1,700.5,809.1,699.9,807.9z M701.9,793.9
			H700C700.7,792.9,701.2,792.9,701.9,793.9z M694.3,807.2v-12.8h7.8v12.8H694.3z M692.7,829.5c0.4-4.3,0.8-8.5,1.2-12.8
			c2.7,0.3,5.4,0.6,8.1,0.9c-0.5,4.3-0.9,8.5-1.3,12.8C698,830,695.4,829.8,692.7,829.5z M691.8,859.5c-0.7-4.2-0.8-8.5-0.5-12.8
			c0.1-1.9,0.3-3.8,0.4-5.8h2.4c0,0,0-0.1,0-0.1c-0.7-0.1-1.4-0.2-2.1-0.3c-0.1-0.1-0.1-0.2-0.2-0.3c0.3-0.2,0.5-0.6,0.8-0.6
			c5.5,0.5,10.9,1.4,15.6,4.6c4,2.7,6.5,6.5,7.9,11.1c0.5,1.8,0.9,3.7,1.3,5.5c-0.9,0.2-0.9,0.2-1.5-1.5c0,0.5,0.1,1,0.1,1.7h-22.2
			C692.1,861,692,861,691.8,859.5z M816.6,872.3h-1.1c-17.2,0-34.3,0.1-51.5-0.1c-2.4,0-4.8-0.8-7.1-1.5c-6.6-2.1-13.4-2.9-20.3-3.3
			c-1.5-0.1-3-0.2-4.6-0.3v5h-39.7v-9.4c0.3,0,0.6-0.1,1-0.1c12.6,0,25.2,0,37.9,0c8.1,0,16,0.8,24,2.4c6.3,1.2,12.6,1.8,19,1.8
			c13.7,0,27.3,0,41,0h1.5V872.3z M816.3,866.6c-0.2,0-0.4,0-0.5,0c-14.2,0-28.3,0-42.5,0c-6.6,0-13.1-0.7-19.6-2
			c-8.1-1.6-16.3-2.2-24.5-2.2c-11.8,0-23.6,0-35.3,0h-1.5v-1.1h1.2c12,0,24,0,36.1,0c9.1,0,18.1,0.9,27,2.6
			c5.7,1.1,11.5,1.5,17.3,1.5c13.1,0,26.3,0,39.4,0h3.2c0,0.4,0,0.7,0.1,1C816.5,866.5,816.4,866.6,816.3,866.6z"/>
		<path class="st16" d="M747.3,817.2c-0.3,0.5-0.6,1-0.9,1.5c-0.3,0.3-0.5,0.7-0.8,1c-0.1,0.3-0.3,0.6-0.4,0.9
			c-0.2,0.4-0.5,0.8-0.7,1.1c-0.4,0.5-0.9,1-1.3,1.5c-0.5,0.6-1,1.1-1.7,0.6c-0.7-0.5-0.6-1.2-0.1-1.8c0.1-0.2,0.3-0.5,0.4-0.7
			c0,0,0,0,0,0c0,0,0,0,0,0c0,0,0,0,0,0c0,0,0,0,0,0c0.4-0.6,0.8-1.3,1.3-1.9l0,0c0,0,0,0,0,0c0.9-1.2,1.7-2.4,2.6-3.6
			c0.5,0,1.1-0.1,1.5,0.2C747.2,816.2,747.2,816.8,747.3,817.2z"/>
		<path class="st16" d="M757.6,823.5c-0.3,0.5-0.6,1-0.9,1.5c-0.2,0.3-0.5,0.6-0.7,1c-0.2,0.3-0.3,0.5-0.5,0.8
			c-0.1,0.1-0.3,0.2-0.3,0.3c-0.6,0.9-1.2,1.8-1.8,2.7c-0.4,0.5-1,0.7-1.6,0.3c-0.6-0.4-0.6-1-0.3-1.6c0.2-0.3,0.3-0.6,0.5-0.9l0,0
			c0,0,0,0,0,0v0c0.3-0.5,0.5-0.9,0.8-1.3c0.1-0.1,0.3-0.3,0.4-0.4c0.3-0.5,0.6-1,0.9-1.5c0.1-0.1,0.2-0.3,0.4-0.4
			c0.5-0.7,1-1.4,1.6-2C757.5,821.8,757.9,822.2,757.6,823.5z"/>
		<path class="st16" d="M731,791.7c-0.5-1.4-0.2-1.9,1.3-2c2.2-0.1,4.5-0.2,6.7-0.2c0.5,0,0.9,0.3,1.4,0.4c0.5,0.8,0.1,1.3-0.5,1.8
			c-2.5,0.1-4.9,0.2-7.4,0.2C732,791.9,731.5,791.7,731,791.7L731,791.7z"/>
		<path class="st15" d="M778.1,833.7L778.1,833.7c-1-0.2-1.5,0.2-2,1c-0.8,1.2-1.8,2.4-2.6,3.7c0,0,0,0,0,0c0,0,0,0,0,0
			c0.1-0.3,0.3-0.6,0.4-1c-2.5-1.4-4.9-2.9-7.3-4.2c-0.2-0.1-0.6,0.1-1,0.1c0.3-0.5,0.6-1,1-1.6c-0.3,0.6-0.1,0.9,0.5,1.2
			c1.4,0.7,2.7,1.5,4,2.3c1,0.6,2.1,1.2,3.2,1.8c0.4-0.6,0.7-1,1.1-1.6c-2.7-1.6-5.2-3.1-7.8-4.6c-0.2,0.2-0.4,0.3-0.6,0.5
			c0.3-0.5,0.6-0.9,0.9-1.4l0.1,0c0.1,0.3,0.1,0.6,0.3,0.7c2.4,1.5,4.9,2.9,7.3,4.3C776.2,834.5,776.5,832.7,778.1,833.7z"/>
		<path class="st15" d="M763.2,832.2c0.1-0.3,0.2-0.6,0.2-0.9c-1.8-1.1-3.6-2.1-5.4-3.2c-0.8-0.5-1.7-0.9-2.5-1.3c0,0,0,0,0,0h0
			c0.2-0.3,0.3-0.5,0.5-0.8c0.1,0.2,0.2,0.5,0.4,0.6c2.5,1.5,4.9,2.9,7.5,4.4c0.4-0.6,0.7-1.1,1.1-1.6c-2.5-1.5-5-3-7.5-4.5
			c-0.2-0.1-0.5,0.1-0.8,0.2c0.3-0.5,0.6-1,0.9-1.5c-0.2,0.6,0,0.9,0.6,1.3c2.3,1.3,4.6,2.8,6.9,4.2c0.3-0.3,0.6-0.6,0.9-0.8
			C765.1,829.5,764.2,830.9,763.2,832.2z"/>
		<path d="M766,828.1C766,828.1,766,828.1,766,828.1C766,828.1,766,828.1,766,828.1L766,828.1z"/>
		<path class="st15" d="M756,822c-0.5,0.7-1,1.4-1.6,2c0.1-0.3,0.2-0.6,0.2-0.9c-2.6-1.6-5.1-3.2-7.7-4.9c-0.2,0.1-0.4,0.3-0.6,0.5
			c0.3-0.5,0.6-1,0.9-1.5c0.2,0.3,0.2,0.8,0.5,1c2.4,1.6,4.8,3.1,7.1,4.5C755.3,822.5,755.6,822.2,756,822z"/>
		<path class="st17" d="M766,828.1c0.6-0.8,1.3-0.7,1.8-0.1c0.7,0.7,0.6,1.4-0.1,2.1c0,0-0.1,0-0.1,0c0.2-0.6,0.7-1.3,0-1.8
			C767.3,827.9,766.6,828.1,766,828.1L766,828.1z"/>
		<path class="st18" d="M693.9,816.7c2.7,0.3,5.4,0.6,8.1,0.9c-0.5,4.3-0.9,8.5-1.3,12.8c-2.7-0.3-5.3-0.6-8-0.8
			C693.1,825.2,693.5,821,693.9,816.7z"/>
		<path class="st18" d="M702.1,807.2c-2.6,0-5.1,0-7.8,0c0-4.3,0-8.5,0-12.8c2.5,0,5.1,0,7.8,0C702.1,798.7,702.1,802.9,702.1,807.2
			z"/>
		<path class="st13" d="M697.3,830.5c0.2,0.2,0.5,0.4,0.6,0.7c0.4,0.7,0.9,1.2,1.8,1c0.9-0.1,1.3-0.8,1.4-1.6
			c0.5-4.3,1-8.6,1.3-12.9c0-0.5-0.5-1.3-0.9-1.7c-0.6-0.5-1.2-0.2-1.8,0.3c-0.3,0.3-0.7,0.4-1.2,0.7c0.6-1.6,1.7-2.3,2.9-2.1
			c1.2,0.3,2.2,1.4,2.1,2.7c-0.5,4.4-0.9,8.8-1.4,13.3c-0.2,1.5-1.3,2.4-2.7,2.3c-1.2-0.1-2.1-1.1-2.2-2.4
			C697.2,830.6,697.2,830.6,697.3,830.5z"/>
		<path class="st13" d="M698.5,794.1c0.6-1.8,1.6-2.5,2.9-2.3c1.2,0.2,2,1.2,2,2.7c0,4.3,0,8.6,0,12.9c0,1.4-0.9,2.5-2.2,2.7
			c-1.2,0.2-2.3-0.7-2.8-2.5c0.5,0.3,0.9,0.4,1,0.6c0.5,0.7,1.1,1.1,1.9,0.9c0.9-0.3,1.2-0.9,1.2-1.8c0-4.2,0-8.4,0-12.6
			c0-0.9-0.2-1.6-1.1-2c-0.8-0.3-1.5,0.1-2,0.8C699.3,793.8,699,793.9,698.5,794.1z"/>
		<path class="st16" d="M778,835.8c-0.4,0.6-0.7,1.2-1.1,1.8c-0.1,0.1-0.2,0.2-0.3,0.3c-0.2,0.3-0.4,0.6-0.6,0.9
			c-0.1,0.1-0.2,0.2-0.4,0.4c-0.3,0.5-0.6,0.9-0.8,1.4v0c0,0,0,0,0,0v0c-0.3,0.3-0.5,0.7-0.8,0.8c-0.4,0.2-1.1,0.5-1.4,0.3
			c-0.3-0.2-0.3-0.9-0.4-1.4c0-0.2,0.2-0.5,0.3-0.7c0.3-0.4,0.6-0.9,0.8-1.3l0,0c0,0,0,0,0,0c0.9-1.2,1.8-2.4,2.6-3.7
			c0.5-0.7,1.1-1.2,2-0.9C778.6,834.5,778.6,835.1,778,835.8z"/>
		<path class="st16" d="M739,800.8c0,0,1.4,0.3,1.4,0.3c0.7,1.4,0.1,1.9-1.5,2c-2.1,0.1-4.3,0.1-6.4,0.2c-0.8,0-1.5-0.1-1.6-1.1
			c0-0.9,0.7-1.1,1.4-1.2c2.2-0.1,4.6-0.2,6.8-0.2"/>
		<path class="st16" d="M740.4,811.7c-2,1-4.1,2-6.1,3c-0.7,0.3-1.4,0.4-1.7-0.3c-0.4-0.8,0-1.3,0.7-1.7c0.9-0.4,1.9-0.9,2.8-1.4
			l0.1,0c1.1-0.5,2.1-1,3.2-1.5c0.7-0.3,1.4-0.4,1.8,0.4C741.6,810.9,741.1,811.3,740.4,811.7z"/>
		<path class="st12" d="M780.1,841c-1.3-0.8-2.6-1.4-4-2c-0.1,0.1-0.2,0.2-0.4,0.4c0,0.6,0,1.3-0.1,1.9c-0.1,0.7-0.4,1.4-0.7,2
			c-0.2,0.4-0.4,0.9-0.7,1c-0.6,0.2-1.3,0.3-1.8,0.1c-1.1-0.5-2.2-1.3-2.2-2.8c-0.1-1.1,0.7-2.2,2-2.7c0.4-0.2,0.9-0.3,1.3-0.4
			c0.1-0.3,0.3-0.6,0.4-1c-2.5-1.4-4.9-2.9-7.3-4.2c-0.2-0.1-0.6,0.1-1,0.1c-0.1,0.1-0.2,0.2-0.4,0.4c0,0.7,0,1.4,0,2.1
			c0,1-0.9,2.1-1.9,2.4c-1.1,0.3-2.2,0-2.9-0.9c-0.8-1-0.8-1.9-0.2-3c0.7-0.7,1.3-1.5,2.4-1.3c0.2-0.3,0.4-0.5,0.6-0.8
			c0.1-0.3,0.2-0.6,0.2-0.9c-1.8-1.1-3.6-2.1-5.4-3.2c-0.8-0.5-1.7-0.9-2.5-1.3c0,0.5-1.2,1.1,0,1.6c-0.3-0.1-0.5-0.2-0.8-0.3
			c0,2.9-0.7,4-2.5,4.2c-1.3,0.1-2.7-1-2.9-2.2c-0.3-1.7,0.6-2.8,3-3.4c-0.7-0.5-1.4-0.9-2.1-1.3c0-0.1,0.1-0.1,0.1-0.2
			c0.5,0.3,1,0.6,1.5,0.9c0.3,0.1,0.6,0.1,0.9,0.2c0.1-0.1,0.3-0.3,0.4-0.4c-0.1-0.3-0.2-0.6-0.4-0.8c-2.3-1.5-4.7-3-7.1-4.4
			c-0.1-0.1-0.4,0-0.6-0.1c-0.2,0.4-0.5,0.8-0.7,1.1c0,0.4-0.1,0.7-0.1,1.1c0.2,1.5-0.7,3-2.2,3.3c-1.4,0.3-2.9-0.8-3.2-2.3
			c-0.3-1.4,0.8-2.8,2.3-3.1c0.6-0.1,1.1-0.2,0.6-0.9c0.3-0.1,0.6-0.2,1-0.4c0.2-0.4,0.1-0.7-0.3-1.1c-1.9-1.4-3.9-2.7-5.2-4.9
			c-0.4,0.2-0.7,0.4-1.1,0.6c0.4,0.6,0.7,1.2,1.1,1.7c-0.1,0-0.1,0.1-0.2,0.1c-0.4-0.5-0.8-1.1-1.1-1.6c-1.1,2.2-2.3,3-3.8,2.4
			c-1.2-0.4-2.2-1.9-1.8-3.1c0.2-0.6,0.6-1.3,1.1-1.7c1-0.9,2.2-0.6,3.4-0.1c-0.1-0.6-0.2-1.1-0.3-1.5c0.1,0,0.1,0,0.1,0
			c0.1,0.4,0.3,0.7,0.4,1.1c0.4,0,0.7-0.1,1-0.1l0.1,0c-0.2-1.8-0.5-3.7-0.7-5.5c-0.1-0.7,0-1.5,0-2.2h-1.4v1.7c-0.1,0-0.1,0-0.2,0
			c-0.1-0.5-0.1-1-0.2-1.5c-1.8,1.4-3.2,1.5-4.3,0.3c-1-1-1.1-2.5-0.2-3.6c0.4-0.4,1-0.8,1.5-1c1.2-0.3,2.2,0.3,3.1,1.3
			c0.1-0.7,0.1-1.2,0.2-1.6c0.1,0,0.1,0,0.2,0c0,0.5-0.1,0.9-0.1,1.5c0.5,0,0.9-0.1,1.5-0.1v-8.4h-1.2v1.9c-0.1,0-0.1,0-0.2,0
			c-0.1-0.7-0.1-1.3-0.2-2.1c-0.5,0.3-0.7,0.6-1,0.8c0,0,0,0,0,0c-0.7,0.8-1.7,1.1-2.7,0.7c-1.1-0.4-2-1.7-1.9-2.8
			c0.1-1.1,1-2.3,2.1-2.5c1.1-0.3,2.1,0.1,2.7,1h0c0.2,0.1,0.5,0.2,0.8,0.3c0-0.5,0-0.9,0.1-1.3c0,0,0.1,0,0.1,0
			c0,0.4,0.1,0.8,0.2,1.3c0.5,0,0.9,0,1.3-0.1c0.1-1.4-0.6-2.3-1.6-3c-1.6-1.4-3.6-2.2-5.7-2.2c-5.9,0-11.8,0.7-17.7,1.9
			c-3.9,0.8-7.8,1.6-11.9,1.2c-1.4-0.1-2.8,1-3,2.3c-0.2,1.4,0,2.8,0,4.3h2c0.7-1.9,1.8-2.7,3.4-2.5c1.3,0.2,2.4,1.3,2.5,2.7
			c0,4.6,0,9.1,0,13.7c0,1.3-0.8,2.1-1.9,2.6c-1,0.5-2.1,0.2-2.8-0.5c-0.5-0.5-0.8-1.2-1.3-1.9h-1.5c-0.1,2.9-0.2,5.6-0.3,8.5
			c0.7,0.1,1.4,0.1,1.9,0.2c0.5-0.6,0.8-1.2,1.3-1.6c0.9-0.7,2-0.9,3-0.2c1.2,0.7,1.7,1.8,1.5,3.2c-0.3,2.7-0.6,5.5-0.9,8.3
			c-0.2,1.7-0.3,3.3-0.6,5c-0.2,1.4-1.4,2.2-2.8,2.3c-1.1,0.1-2.3-0.8-2.8-1.9c-0.5-1.3-0.8-1.4-2.1-1.1c-0.5,2.9-1,5.8-1.5,8.7
			c1.9,0.3,3.8,0.5,5.7,0.9c10.5,2,16.5,8.3,18.4,18.4c0.5,2.5,0.4,2.5,3,2.5c0.5,0,0.9-0.2,1.3-0.2c0.4,0.1,0.9,0.2,1.4,0.3
			c0.2-2.7,1.5-4.5,3.4-6c1.5-1.1,3.1-2.2,4.8-3c8.5-4.1,17.5-5.9,26.9-6.1c4.6-0.1,9.2-0.2,13.8-0.2c3.1,0,5.7-1.1,7.9-3.3
			C780.2,842,780.8,841.4,780.1,841z M776,840.5c0-0.1,0.1-0.2,0.1-0.2c0.9,0.5,1.7,0.9,2.7,1.4c0-0.3,0.1-0.4,0.1-0.6
			c0.1,0,0.1,0,0.2,0c0.1,0.3,0.2,0.6,0.4,1.2C778.1,841.6,777,841.1,776,840.5z"/>
		<path class="st17" d="M733.3,792c-0.1,0.3-0.1,0.5-0.2,0.7c-0.2,0.1-0.4,0.2-0.6,0.3c-1.4,0.7-2.8,0.2-3.4-1.2
			c-0.6-1.2,0-2.6,1.3-3.2c1.1-0.5,2,0,2.9,0.6c-0.4,0-0.8,0.1-1.2,0c-0.9-0.3-1.7-0.1-2.2,0.6c-0.5,0.7-0.5,1.5,0,2.1
			c0.6,0.7,1.4,0.9,2.3,0.5C732.5,792.3,732.9,792.2,733.3,792z"/>
		<path class="st19" d="M733.2,792.7L733.2,792.7C733.1,792.8,733.1,792.8,733.2,792.7C733.1,792.7,733.1,792.7,733.2,792.7
			C733.1,792.7,733.1,792.7,733.2,792.7z"/>
		<path class="st19" d="M733.4,789.2C733.3,789.2,733.3,789.2,733.4,789.2C733.3,789.1,733.3,789.1,733.4,789.2L733.4,789.2
			L733.4,789.2z"/>
		<path class="st17" d="M730.2,800.9c-0.8,0.5-0.8,1.2-0.5,1.9c0.8,1.9,2.3,0.9,3.7,0.6c-0.8,1.1-1.6,1.5-2.7,1.2
			c-1-0.3-1.8-1.2-1.8-2.2c-0.1-1.1,0.5-2,1.6-2.5c1-0.4,1.9-0.1,2.7,0.8C732.2,800.8,731,799.7,730.2,800.9L730.2,800.9z"/>
		<path class="st17" d="M734.3,815.2c0.3-0.2,0.6-0.5,1-0.8c-0.3,1.6-1.6,2.4-2.9,2.1c-1.4-0.4-2.2-1.8-1.8-3.1
			c0.4-1.2,1.9-2.3,3.6-1.3c-0.6,0.1-0.9,0.2-1.3,0.2c-0.9,0.1-1.5,0.6-1.7,1.5c-0.1,0.9,0.2,1.5,0.9,1.9
			C733,816,733.8,816,734.3,815.2L734.3,815.2z"/>
		<path class="st17" d="M731,791.7c0.2,0.2,0.3,0.5,0.4,0.6c-0.9,0.1-1.6-0.4-1.6-1.3c-0.1-0.8,0.5-1.5,1.6-1.6
			c-0.3,0.4-0.7,0.7-0.7,1.1C730.6,790.9,730.9,791.3,731,791.7C731,791.7,731,791.7,731,791.7z"/>
		<path class="st17" d="M734.3,815.2c-0.1,0-0.3,0-0.4,0.1c-1,0.5-1.8,0.3-2.3-0.5c-0.5-0.8-0.2-1.5,0.9-2.2
			c-0.1,0.3-0.2,0.5-0.3,0.6c-0.4,1,0.1,1.9,1.1,2C733.7,815.2,734,815.2,734.3,815.2C734.3,815.2,734.3,815.2,734.3,815.2z"/>
		<path class="st17" d="M730.1,800.9c0.4-0.1,0.8-0.2,1.3-0.3c-1.3,1.3-1.2,2,0.2,3c-1.5,0.1-2.2-0.9-1.6-2.2
			C730.1,801.2,730.1,801.1,730.1,800.9C730.2,800.9,730.1,800.9,730.1,800.9z"/>
		<path class="st12" d="M702,807.9c-0.7,1.2-1.5,1.1-2.2,0C700.6,807.9,701.3,807.9,702,807.9z"/>
		<path class="st12" d="M698.5,830.8c0.7,0.1,1.3,0.1,2,0.2c0,0.1,0,0.2,0.1,0.4c-0.4,0.1-0.8,0.4-1.1,0.4c-0.4-0.1-0.7-0.4-1.1-0.7
			C698.4,831,698.4,830.9,698.5,830.8z"/>
		<path class="st12" d="M700,793.9c0.7-1,1.2-1,1.9,0C701.3,793.9,700.7,793.9,700,793.9z"/>
		<path class="st12" d="M699.9,816.9c0.9-0.9,1.3-0.9,2.2,0.1C701.3,817,700.7,816.9,699.9,816.9z"/>
		<path class="st15" d="M744.4,821.8c-0.4,0.5-0.9,1-1.3,1.5c-0.5,0.6-1,1.1-1.7,0.6c-0.7-0.5-0.6-1.2-0.1-1.8
			c0.1-0.2,0.3-0.5,0.4-0.7c0,0,0,0,0,0c0,0,0,0,0,0c0.4-0.6,0.8-1.3,1.3-1.9c0,0,0,0,0,0c0,0,0,0,0,0c-0.3,0.1-0.6,0.3-1,0.4
			c0.5,0.7,0,0.8-0.6,0.9c-1.5,0.3-2.6,1.7-2.3,3.1c0.3,1.5,1.8,2.6,3.2,2.3c1.5-0.3,2.5-1.8,2.2-3.3
			C744.3,822.5,744.4,822.1,744.4,821.8z M742.4,825.8c-1.3,0.4-2.8-0.4-3.2-1.7c-0.3-1.3,0.5-2.7,1.8-3c0,0,0,0,0.1,0
			c0,0,0,0,0.1,0c0,0,0.1,0,0.1,0.1c0,0,0,0,0.1,0c0.1,0.1,0.2,0.1,0.2,0.2c-0.3,0.2-0.7,0.5-1,0.7c0,0.1,0.1,0.3,0.1,0.4
			c0.1,1.8,0.7,2.2,2.4,1.6c-0.5,0.9-1.2,1.1-2,0.8c-0.8-0.3-1.1-1.2-0.8-2l0.3-0.7c-0.1,0-0.1,0.1-0.2,0.1
			c-0.2,0.2-0.4,0.4-0.5,0.7c0,0,0,0,0,0.1c0,0,0,0.1,0,0.1c0,0,0,0,0,0.1c0,0.3,0,0.7,0.2,1c0.3,0.8,1,1.1,1.9,1
			c0.9-0.1,1.4-0.7,1.6-1.6c0-0.3,0.2-0.6,0.4-1.1C744.4,824.1,743.7,825.4,742.4,825.8z"/>
		<path class="st15" d="M754,824.4c-0.3,0.5-0.6,1-0.9,1.5c-0.1-0.3-0.2-0.6-0.4-0.8c-2.3-1.5-4.7-3-7.1-4.4c-0.1-0.1-0.4,0-0.6-0.1
			c0.1-0.3,0.3-0.6,0.4-0.9c0.2,0.3,0.4,0.6,0.7,0.7c2.2,1.4,4.3,2.7,6.5,4.1C753.3,825,753.7,824.9,754,824.4z"/>
		<path class="st15" d="M755.5,826.8C755.5,826.8,755.5,826.8,755.5,826.8C755.5,826.8,755.5,826.8,755.5,826.8L755.5,826.8
			c-0.2,0.1-0.3,0.1-0.4,0.3c-0.6,0.9-1.2,1.8-1.8,2.7c-0.4,0.5-1,0.7-1.6,0.3c-0.6-0.4-0.6-1-0.3-1.6c0.2-0.3,0.3-0.6,0.5-0.9
			c0,0,0,0,0,0v0c0.3-0.5,0.5-0.9,0.8-1.3c-0.3-0.1-0.7-0.1-0.9-0.2c-0.5-0.3-1-0.6-1.5-0.9c0,0.1-0.1,0.1-0.1,0.2
			c0.7,0.4,1.4,0.9,2.1,1.3c-2.4,0.6-3.3,1.7-3,3.4c0.2,1.3,1.6,2.4,2.9,2.2c1.8-0.2,2.4-1.3,2.5-4.2c0.3,0.1,0.6,0.2,0.8,0.3
			C754.4,827.9,755.5,827.4,755.5,826.8z M753.4,830.5c-0.4,0.2-0.9,0.7-1.3,0.6c-0.5,0-1.1-0.4-1.3-0.8c-0.2-0.4-0.1-1.1-0.1-1.6
			c0.1,0,0.2,0,0.3,0C751.1,830.5,751.7,830.9,753.4,830.5z M752.8,832c-1.2,0.4-2.7-0.3-3.1-1.6c-0.4-1.2,0.3-2.6,1.5-3.1
			c0.1,0,0.1,0,0.2,0c0,0,0.1,0,0.1,0.1c0.1,0,0.1,0.1,0.2,0.1c0,0,0.1,0,0.1,0.1c0.1,0,0.1,0.1,0.2,0.1c-0.3,0.2-0.6,0.3-0.8,0.5
			c-0.8,0.5-1.1,1.2-0.8,2.1c0.3,0.8,0.9,1.3,1.8,1.2c0.9,0,1.5-0.5,1.7-1.4c0.1-0.4,0.2-0.8,0.4-1.3
			C754.7,830.3,754.1,831.6,752.8,832z"/>
		<path class="st16" d="M767.7,830c-0.3,0.5-0.6,0.9-0.9,1.4c-0.1,0.1-0.2,0.2-0.3,0.3c-0.3,0.5-0.6,1-1,1.6
			c-0.1,0.1-0.2,0.2-0.4,0.4c-0.5,0.8-1.1,1.5-1.6,2.3c-0.2,0-0.5,0.1-0.7,0.1c-0.2,0-0.5,0.1-0.7,0.1l0,0c0,0,0,0,0,0l0,0
			c-0.1-0.1-0.2-0.3-0.3-0.4v0c-0.3-0.5-0.2-1,0.2-1.6c0.2-0.3,0.3-0.6,0.4-0.9c0-0.1,0.1-0.1,0.1-0.2c0.2-0.3,0.4-0.5,0.6-0.8
			c0.9-1.4,1.8-2.7,2.7-4.1c0,0,0,0,0-0.1h0c0.6,0,1.2-0.1,1.7,0.1C768.4,828.7,767.9,829.4,767.7,830z"/>
		<path class="st17" d="M764.1,837.4c-0.8,0.7-1.7,0.8-2.6,0.4c-1-0.5-1.6-1.5-1.5-2.5c0-0.3,0.1-0.7,0.1-1c0.7-0.7,1.3-1.5,2.4-1.3
			c0,0.1-0.1,0.1-0.1,0.2c-0.3,0.2-0.6,0.5-0.9,0.7c-0.8,0.5-1.1,1.2-0.8,2.2c0.3,0.8,0.9,1.2,1.8,1.2c1,0,1.5-0.6,1.8-1.5
			c0.1-0.3,0.2-0.7,0.4-1.2C765.1,835.8,764.9,836.7,764.1,837.4z"/>
		<path d="M762.1,836.1c-0.1-0.1-0.2-0.3-0.3-0.4C761.9,835.9,762,836,762.1,836.1z"/>
		<path class="st15" d="M765.2,835.8c0,1-0.9,2.1-1.9,2.4c-1.1,0.3-2.2,0-2.9-0.9c-0.8-1-0.8-1.9-0.2-3c0,0.3-0.1,0.7-0.1,1
			c-0.1,1,0.5,2,1.5,2.5c1,0.5,1.8,0.3,2.6-0.4c0.8-0.7,1-1.6,0.6-2.7c-0.2,0.5-0.3,0.8-0.4,1.2c-0.3,0.9-0.8,1.5-1.8,1.5
			c-0.9,0-1.5-0.4-1.8-1.2c-0.3-0.9,0-1.6,0.8-2.2c0.3-0.2,0.6-0.5,0.9-0.7c-0.1,0.3-0.2,0.6-0.4,0.9c-0.4,0.6-0.5,1.1-0.2,1.6
			c-0.1-0.1-0.1-0.2-0.2-0.2c-0.1-0.1-0.1-0.2-0.2-0.2c-0.1-0.2-0.2-0.3-0.3-0.5c-0.4,0.8-0.3,1.6,0.5,2c0.7,0.4,1.6,0.2,2-0.4
			c0.1-0.1-0.1-0.3-0.1-0.5c0.5-0.8,1.1-1.5,1.6-2.3C765.2,834.4,765.2,835.1,765.2,835.8z"/>
		<polygon points="774.9,840.7 774.9,840.7 774.9,840.7 		"/>
		<path class="st15" d="M775.7,841.2c-0.1,0.7-0.4,1.4-0.7,2c-0.2,0.4-0.4,0.9-0.7,1c-0.6,0.2-1.3,0.3-1.8,0.1
			c-1.1-0.5-2.2-1.3-2.2-2.8c-0.1-1.1,0.7-2.2,2-2.7c0.4-0.2,0.9-0.3,1.3-0.4c0,0,0,0,0,0c0,0,0,0,0,0c-0.3,0.4-0.6,0.9-0.8,1.3
			l-0.1,0c0-0.2,0.1-0.4,0.2-0.6c-1.5,0.1-2.4,1.2-2.3,2.7c0.1,1.3,1.5,2.3,2.9,2.1c1.3-0.2,2.3-1.6,2-2.9c0,0,0,0,0,0c0,0,0,0,0,0
			c0,0,0,0,0,0c0,0,0,0,0,0c-0.1-0.1-0.2-0.1-0.3-0.2c0.3-0.5,0.6-0.9,0.8-1.4C775.7,840,775.8,840.6,775.7,841.2z"/>
		<path class="st15" d="M729.1,791.8c0.7,1.4,2.1,1.9,3.4,1.2c0.2-0.1,0.4-0.2,0.6-0.3c0,0,0,0,0,0c0,0,0,0,0,0
			c-0.7,0.8-1.7,1.1-2.7,0.7c-1.1-0.4-2-1.7-1.9-2.8c0.1-1.1,1-2.3,2.1-2.5c1.1-0.3,2.1,0.1,2.7,1c0,0,0,0,0,0c0,0,0,0-0.1,0
			c-0.9-0.6-1.8-1.1-2.9-0.6C729.1,789.2,728.5,790.6,729.1,791.8z"/>
		<path class="st15" d="M779.4,842.3c-1.3-0.7-2.4-1.3-3.4-1.8c0-0.1,0.1-0.2,0.1-0.2c0.9,0.5,1.7,0.9,2.7,1.4
			c0-0.3,0.1-0.4,0.1-0.6c0.1,0,0.1,0,0.2,0C779.1,841.4,779.2,841.7,779.4,842.3z"/>
		<path class="st15" d="M772.6,839.7c-0.1,0.2-0.4,0.5-0.3,0.7c0,0.5,0.1,1.2,0.4,1.4c0.3,0.2,1,0,1.4-0.3c0.3-0.2,0.5-0.6,0.8-0.9
			c0,0,0,0,0,0c-0.1,0.3-0.1,0.5-0.2,0.8c-0.2,1.2-0.8,1.8-1.9,1.7c-0.9,0-1.5-0.5-1.7-1.4C770.9,840.8,771.4,840.1,772.6,839.7
			L772.6,839.7z M774.1,842.3c-2.1,0.2-2.1-0.6-2.3-1.9c-0.6,0.9-0.5,1.8,0.2,2.3C772.8,843.2,773.4,843,774.1,842.3z"/>
		<path class="st17" d="M740.6,822c-0.8,0.5-0.9,1.3-0.6,2.1c0.3,0.8,1,1.1,1.9,1c0.9-0.1,1.4-0.7,1.6-1.6c0-0.3,0.2-0.6,0.4-1.1
			c0.5,1.5-0.1,2.8-1.4,3.3c-1.3,0.4-2.8-0.4-3.2-1.7c-0.3-1.3,0.5-2.7,1.8-3c0.1,0,0.3,0.2,0.5,0.3c0,0,0,0,0,0
			C741.3,821.6,740.9,821.8,740.6,822L740.6,822z"/>
		<path class="st17" d="M740.6,822c0,0.1,0.1,0.3,0.1,0.4c0.1,1.8,0.7,2.2,2.4,1.6c-0.5,0.9-1.2,1.1-2,0.8c-0.8-0.3-1.1-1.2-0.8-2
			C740.4,822.5,740.5,822.3,740.6,822C740.6,822,740.6,822,740.6,822z"/>
		<path class="st17" d="M752,827.6c-0.3,0.2-0.6,0.3-0.9,0.5c-0.8,0.5-1.1,1.2-0.8,2.1c0.3,0.8,0.9,1.3,1.8,1.2
			c0.9,0,1.5-0.5,1.7-1.4c0.1-0.4,0.2-0.8,0.4-1.3c0.5,1.6-0.1,2.8-1.4,3.3c-1.2,0.4-2.7-0.3-3.1-1.6c-0.4-1.2,0.3-2.6,1.5-3.1
			C751.4,827.3,751.7,827.5,752,827.6C751.9,827.6,752,827.6,752,827.6z"/>
		<path class="st17" d="M750.9,828.7c0.2,1.7,0.8,2.1,2.5,1.8c-0.4,0.2-0.9,0.7-1.3,0.6c-0.5,0-1.1-0.4-1.3-0.8
			c-0.2-0.4-0.1-1.1-0.1-1.6C750.7,828.7,750.8,828.7,750.9,828.7z"/>
		<path class="st17" d="M763.6,835.9c0,0.2,0.2,0.4,0.1,0.5c-0.4,0.7-1.3,0.8-2,0.4c-0.8-0.5-0.9-1.2-0.5-2c0.3,0.4,0.6,0.9,0.9,1.3
			C762.6,836.1,763.1,836,763.6,835.9z"/>
		<path class="st17" d="M772.6,839.6c-1.2,0.5-1.7,1.2-1.4,2.2c0.2,0.9,0.8,1.4,1.7,1.4c1,0,1.6-0.5,1.9-1.7
			c0.1-0.3,0.1-0.5,0.2-0.8c0.1,0.1,0.4,0.1,0.4,0.3c0.3,1.2-0.7,2.7-2,2.9c-1.3,0.2-2.8-0.8-2.9-2.1c-0.2-1.5,0.8-2.6,2.3-2.7
			C772.7,839.2,772.6,839.4,772.6,839.6z"/>
		<path class="st17" d="M774.1,842.3c-0.6,0.8-1.3,0.9-2,0.4c-0.7-0.5-0.8-1.3-0.2-2.3C771.9,841.7,771.9,842.5,774.1,842.3z"/>
	</g>
	<g>
		<path class="st12" d="M687.1,855.1c0,1.8,0,3.5,0,5.3c-0.4,0-0.7,0-1.1,0c-17.2,0-34.3,0.1-51.5-0.1c-2.4,0-4.8-0.8-7.1-1.5
			c-6.6-2.1-13.4-2.9-20.3-3.3c-1.5-0.1-3-0.2-4.6-0.3c0,1.7,0,3.3,0,5c-13.3,0-26.5,0-39.7,0c0-3.1,0-6.2,0-9.4
			c0.3,0,0.6-0.1,1-0.1c12.6,0,25.2,0,37.9,0c8.1,0,16,0.8,24,2.4c6.3,1.2,12.6,1.8,19,1.8c13.7,0,27.3,0,41,0
			C686,855.1,686.5,855.1,687.1,855.1z"/>
		<path class="st12" d="M562.8,850.6c0-0.4,0-0.7,0-1.1c0.4,0,0.8,0,1.2,0c12,0,24,0,36.1,0c9.1,0,18.1,0.9,27,2.6
			c5.7,1.1,11.5,1.5,17.3,1.5c13.1,0,26.3,0,39.4,0c1,0,2.1,0,3.2,0c0,0.4,0,0.7,0.1,1c-0.2,0.1-0.2,0.1-0.3,0.1c-0.2,0-0.4,0-0.5,0
			c-14.2,0-28.3,0-42.5,0c-6.6,0-13.1-0.7-19.6-2c-8.1-1.6-16.3-2.2-24.5-2.2c-11.8,0-23.6,0-35.3,0
			C563.9,850.6,563.4,850.6,562.8,850.6z"/>
		<path class="st13" d="M562.1,829.1c1,0,1.7,0,2.4,0c0,0,0-0.1,0-0.1c-0.7-0.1-1.4-0.2-2.1-0.3c-0.1-0.1-0.1-0.2-0.2-0.2
			c0.3-0.2,0.5-0.6,0.8-0.6c5.5,0.5,10.9,1.4,15.6,4.6c4,2.7,6.5,6.5,7.9,11.1c0.5,1.8,0.8,3.7,1.3,5.5c-0.9,0.2-0.9,0.2-1.5-1.5
			c0,0.5,0.1,1,0.1,1.7c-0.5,0-0.9,0-1.3,0c-7,0-14,0-21,0c-1.6,0-1.6,0-1.9-1.6c-0.7-4.2-0.8-8.5-0.5-12.8
			C561.8,832.9,562,831,562.1,829.1z"/>
		<path class="st14" d="M647.4,825.9c0.2-0.2,0.5-0.4,0.7-0.7c1.8,0.9,3.6,1.8,5.6,2.6c4.5,1.8,9.3,2.5,14.2,3
			c2.7,0.3,5.5,0.4,8.2,0.9c6.2,1.1,11.1,7.6,10.5,13.3c-0.3,2.6-0.8,5.1-1.3,7.6c-0.1,0.6-0.4,0.8-1.1,0.8c-14.7,0-29.5,0-44.2-0.1
			c-5.7,0-11.4-1.1-17-2.1c-6-1.1-12-1.7-18-1.8c-3.3-0.1-6.6-0.1-9.9-0.1c-0.3,0-0.7,0-1.1,0c0.1-2.4,1.2-4.1,2.9-5.3
			c2.1-1.5,4.4-3,6.7-4c8.1-3.6,16.7-5.1,25.6-5.3c4.5-0.1,8.9-0.2,13.4-0.2c3.2,0,5.7-1.2,7.9-3.4c1.2-1.2,1.1-2-0.4-2.7
			c-0.8-0.4-1.6-0.8-2.4-1.3c-0.2-0.1-0.3-0.5-0.5-0.8C647.2,826.1,647.3,826,647.4,825.9z"/>
		<path class="st13" d="M606.7,780.3c0.9-0.1,1.5-0.1,2.3-0.1c0,2.8,0,5.6,0,8.5c-0.8,0-1.6,0-2.3,0
			C606.7,785.9,606.7,783.2,606.7,780.3z"/>
		<path class="st13" d="M606.3,791.6c1-0.1,1.8-0.1,2.6-0.2c0.1,1.2,0.2,2.3,0.3,3.4c0,0.1,0,0.3,0,0.4c0.1,0.8,0.6,1.8,0.3,2.2
			c-0.5,0.7-1.5,0.9-2.4,1.4C606.2,796.5,606.5,794.1,606.3,791.6z"/>
		<path class="st13" d="M614.9,805c-0.3,0.5-0.7,1-1.1,1.7c-2.1-1.5-4.3-2.8-5.6-5.2c0.9-0.5,1.8-0.9,2.5-1.2
			C612.1,801.8,613.4,803.3,614.9,805z"/>
		<path class="st13" d="M603.9,773.2c1.6-0.2,2.9-0.4,4.2-0.4c0.2,0,0.7,0.5,0.7,0.7c-0.2,0.7-0.4,1.7-0.9,2
			c-0.6,0.4-1.6,0.6-2.3-0.5C605.3,774.3,604.6,773.9,603.9,773.2z"/>
		<path class="st13" d="M606.7,776.6c-0.1-0.3-0.1-0.5-0.2-0.7c2-0.3,2.3-0.6,2.5-2.3c0.1-0.9-0.3-1.3-1.1-1.2
			c-1.1,0.1-2.3,0.3-3.4,0.4c-0.7,0.1-1.4,0-2.1,0c0-0.2,0-0.3,0-0.5c1.9-0.2,3.8-0.6,5.7-0.7c1.3-0.1,1.7,0.6,1.7,1.8
			C609.9,775.5,609,776.4,606.7,776.6z"/>
		<path class="st13" d="M616.8,806.9c0.2-0.2,0.4-0.3,0.6-0.5c2.6,1.6,5.1,3.2,7.7,4.9c-0.1,0.3-0.2,0.6-0.2,0.9
			c-0.1,0.1-0.2,0.3-0.4,0.4c-0.3,0.6-0.7,0.6-1.3,0.2c-2.1-1.4-4.3-2.7-6.5-4.1c-0.3-0.2-0.5-0.5-0.7-0.7
			C616.3,807.6,616.5,807.3,616.8,806.9z"/>
		<path class="st13" d="M627.1,813.2c0.3-0.1,0.6-0.3,0.8-0.2c2.5,1.5,5,3,7.5,4.5c-0.4,0.6-0.7,1.1-1.1,1.6c-2.5-1.5-5-2.9-7.5-4.4
			c-0.2-0.1-0.3-0.4-0.4-0.6C626.6,813.9,626.9,813.6,627.1,813.2z"/>
		<path class="st13" d="M636.9,819.9c0.1-0.1,0.2-0.2,0.3-0.3c0.2-0.2,0.4-0.3,0.6-0.5c2.6,1.5,5.2,3.1,7.8,4.6
			c-0.4,0.5-0.7,1-1.1,1.6c-1.1-0.6-2.1-1.2-3.2-1.8c-1.3-0.8-2.7-1.6-4-2.3C636.8,820.8,636.7,820.5,636.9,819.9z"/>
		<path class="st15" d="M610.7,789.5c0,0.1,0.1,0.2,0.1,0.4c0,0,0,0,0,0.1c0,0,0,0,0,0c0,0.1,0,0.1,0,0.2c0,0.6-0.5,1-1.6,1
			c-2.1,0.1-4.3,0.1-6.4,0.2c-0.8,0-1.5-0.1-1.6-1.1c0-0.9,0.7-1.1,1.4-1.2c2.2-0.1,4.5-0.2,6.7-0.2c0.1,0,0.3,0,0.4,0
			c0.1,0,0.2,0,0.3,0.1c0,0,0,0,0.1,0 M609.5,788.5v-8.3c0.3-0.1,0.6-0.3,0.9-0.4c-2.5,0.1-4.9,0.2-7.4,0.2c-0.2,0-0.4,0-0.6,0
			c0,0-0.1,0-0.1,0c-0.1,0-0.2,0-0.3,0c0,0,0,0,0,0c-0.1,0-0.2,0-0.3-0.1c-0.1,0-0.1,0-0.2,0h0c0,0,0,0,0,0c0.2,0.2,0.3,0.5,0.4,0.6
			c-0.9,0.1-1.6-0.4-1.6-1.3c-0.1-0.8,0.5-1.5,1.6-1.6c-0.3,0.4-0.7,0.7-0.7,1.1c0,0.1,0,0.1,0,0.2c0,0,0,0,0,0.1c0,0,0,0,0,0.1
			c0,0,0,0.1,0,0.1c0,0,0,0,0,0c0,0,0,0,0,0.1c0,0,0,0,0,0.1c0,0,0,0,0,0c0,0,0,0.1,0.1,0.1c0.1,0.1,0.1,0.3,0.2,0.4
			c0,0,0,0.1,0,0.1c0,0,0,0,0,0c-0.1-0.3-0.2-0.5-0.2-0.7c0,0,0-0.1,0-0.1c-0.1-0.8,0.3-1.1,1.5-1.2c2.2-0.1,4.5-0.2,6.7-0.2
			c0.5,0,0.9,0.3,1.4,0.4c-0.4-0.3-0.9-0.6-1.5-1c0.1-0.4,0.2-1,0.5-1.5c0.9-1.9,0.6-3.3-0.8-4.3h-3c-2.1,0.4-4.1,1-6.3,0.8
			c-3.2-0.3-6.5,0-9.6,0.4c-4.6,0.6-9.2,1.6-13.8,2.2c-2.1,0.3-4.3,0.4-6.4,0.4c-2.3,0-3.9,1.3-4,3.6c0,1.1,0,2.2,0,3.5
			c-0.5,0-1.1,0.1-1.7,0.1V796c0.7,0,1.3,0.1,2,0.1c-0.1,2.8-0.2,5.5-0.4,8.3h-2c-0.1,1.6-0.3,3.2-0.4,4.9c-0.2,2.5-0.5,5.1-0.8,7.6
			c-0.1,1.3-0.2,1.3,1.1,1.4c0.2,0,0.4,0.1,0.8,0.2c-0.5,2.9-1,5.9-1.5,8.8c-0.5,0.1-0.7,0.1-1.1,0.1c-0.1,0.9-0.3,1.8-0.4,2.7
			c-0.2,1.4-0.3,2.8-0.4,4.2v8.8c0.1,0.9,0.2,1.7,0.4,2.6c0.7,3,0.9,6.1,0.8,9.2c-0.1,1.6,0,3.3,0,4.9v1.1h40.8V856
			c0.5,0,0.9,0,1.3,0c2.5,0.2,5,0.4,7.6,0.6c5.2,0.4,10.2,1.3,15.2,2.8c2.3,0.7,4.7,1.5,7.1,1.5c17.4,0.1,34.9,0.1,52.3,0.1h1.1
			v-7.8h-2.2c0.1-0.5,0.3-0.8,0.4-1.1c0.9-3.3,1.7-6.8,0.9-10.2c-1.3-5.6-4.9-9.4-10.6-10.7c-2.6-0.6-5.4-0.6-8-0.9
			c-4.8-0.5-9.6-1.1-14.2-3c-1.9-0.8-3.7-1.7-5.6-2.6c1.1-2,1.1-2.2,0.2-2.9l0,0.1c0.6,0.7,0.5,1.3,0,2c-0.4,0.6-0.7,1.2-1.1,1.8
			c0.2-0.2,0.5-0.4,0.7-0.7c1.8,0.9,3.6,1.8,5.6,2.6c4.5,1.8,9.3,2.5,14.2,3c2.7,0.3,5.5,0.4,8.2,0.9c6.2,1.1,11.1,7.6,10.5,13.3
			c-0.3,2.6-0.8,5.1-1.3,7.6c-0.1,0.6-0.4,0.8-1.1,0.8c-14.7,0-29.5,0-44.2-0.1c-5.7,0-11.4-1.1-17-2.1c-5.9-1.1-12-1.7-18-1.8
			c-3.3-0.1-6.6-0.1-9.9-0.1c-0.3,0-0.7,0-1.1,0c0.1-2.4,1.2-4.1,2.9-5.3c2.1-1.5,4.4-3,6.7-4c8.1-3.6,16.7-5.1,25.6-5.3
			c4.5-0.1,8.9-0.2,13.4-0.2c3.2,0,5.7-1.2,7.9-3.4c1.2-1.2,1.1-2-0.4-2.7c-0.8-0.4-1.6-0.8-2.4-1.3c-0.2-0.1-0.3-0.5-0.5-0.8
			c-0.2,0.3-0.4,0.6-0.6,0.9c1.3,0.7,2.7,1.2,4,2c0.7,0.5,0.1,1.1-0.3,1.5c-2.2,2.2-4.8,3.3-7.9,3.3c-4.6,0-9.2,0.1-13.8,0.2
			c-9.4,0.2-18.4,2-26.9,6.1c-1.7,0.8-3.3,1.9-4.8,3c-1.9,1.4-3.2,3.3-3.4,6c-0.5-0.1-1-0.2-1.4-0.3c-0.4,0.1-0.9,0.2-1.3,0.2
			c-2.6,0-2.5,0-3-2.5c-1.9-10.1-8-16.4-18.4-18.4c-1.9-0.4-3.8-0.6-5.7-0.9c0.5-2.9,1-5.8,1.5-8.7c1.4-0.3,1.6-0.2,2.1,1.1
			c0.4,1.1,1.7,2,2.8,1.9c1.4-0.1,2.5-1,2.8-2.3c0.3-1.7,0.4-3.3,0.6-5c0.3-2.7,0.6-5.5,0.9-8.3c0.1-1.4-0.3-2.5-1.5-3.2
			c-1.1-0.6-2.1-0.5-3,0.2c-0.5,0.4-0.8,1-1.3,1.6c-0.5-0.1-1.2-0.1-1.9-0.2c0.1-2.9,0.2-5.6,0.3-8.5h1.5c0.4,0.7,0.8,1.4,1.3,1.9
			c0.8,0.7,1.8,1,2.8,0.5c1.1-0.5,1.9-1.3,1.9-2.6c0-4.6,0-9.1,0-13.7c0-1.4-1.1-2.6-2.5-2.7c-1.6-0.2-2.7,0.6-3.4,2.5h-2
			c0-1.5-0.1-2.9,0-4.3c0.1-1.4,1.6-2.4,3-2.3c4.1,0.4,8-0.4,11.9-1.2c5.8-1.2,11.7-1.9,17.7-1.9c2.1,0,4.1,0.8,5.7,2.2
			c0.9,0.7,1.6,1.6,1.6,3c-0.5,0-0.9,0-1.3,0.1c-0.1-0.5-0.1-0.9-0.2-1.3c0,0-0.1,0-0.1,0c0,0.4,0,0.8-0.1,1.3
			c-0.3-0.1-0.6-0.2-0.8-0.3h0c0,0,0,0,0,0c-0.4,0-0.8,0.1-1.2,0c-0.9-0.3-1.7-0.1-2.2,0.6c-0.5,0.7-0.5,1.5,0,2.1
			c0.6,0.7,1.4,0.9,2.3,0.5c0.3-0.1,0.7-0.3,1.1-0.4c-0.1,0.3-0.1,0.5-0.2,0.7c0,0,0,0,0,0c0,0,0,0,0,0c0.3-0.2,0.6-0.4,1-0.8
			c0.1,0.8,0.1,1.4,0.2,2.1c0.1,0,0.1,0,0.2,0v-1.9h1.2v8.4c-0.6,0-1,0.1-1.5,0.1c0-0.6,0.1-1,0.1-1.5c-0.1,0-0.1,0-0.2,0
			c-0.1,0.5-0.1,0.9-0.2,1.6c-0.9-1-1.9-1.6-3.1-1.3c-0.6,0.2-1.2,0.5-1.5,1c-1,1.1-0.8,2.6,0.2,3.6c1.2,1.2,2.6,1.1,4.3-0.3
			c0.1,0.5,0.1,1,0.2,1.5c0.1,0,0.1,0,0.2,0v-1.7h1.4c0,0.7-0.1,1.4,0,2.2c0.2,1.8,0.5,3.7,0.7,5.5c1.1-0.5,2.1-1,3.2-1.5
			c0.7-0.3,1.4-0.4,1.8,0.4c0.4,0.8-0.1,1.2-0.8,1.6c-2,1-4.1,2-6.1,3c-0.7,0.3-1.4,0.4-1.7-0.3c-0.4-0.8,0-1.3,0.7-1.7
			c0.9-0.4,1.9-0.9,2.8-1.4c-0.3,0-0.6,0.1-1,0.1c-0.1-0.3-0.3-0.7-0.4-1.1c-0.1,0-0.1,0-0.1,0c0.1,0.4,0.2,0.8,0.3,1.5
			c-1.2-0.5-2.4-0.9-3.4,0.1c-0.5,0.5-0.9,1.1-1.1,1.7c-0.4,1.2,0.6,2.6,1.8,3.1c1.5,0.6,2.8-0.2,3.8-2.4c0.4,0.6,0.8,1.1,1.1,1.6
			c0.1,0,0.1-0.1,0.2-0.1c-0.3-0.5-0.7-1.1-1.1-1.7c0.4-0.2,0.7-0.4,1.1-0.6c1.3,2.2,3.3,3.5,5.2,4.9c0.5,0.3,0.5,0.6,0.3,1.1
			c0,0,0,0,0,0c0,0,0,0,0,0c0.9-1.2,1.7-2.4,2.6-3.6c-0.5,0.4-1,0.3-1.4-0.2c-1.1-1.2-2.2-2.5-3.2-3.6c1.2-1.6,0.9-2.3-0.7-2.9
			c-0.2-0.1-0.4-0.3-0.5-0.5c-0.3-1.8-0.5-3.6-0.8-5.3c0.2,0.1,0.3,0.1,0.5,0.2c0.4-0.5,1-0.8,1.3-1.4 M602.9,804.6
			c-1.4-0.4-2.2-1.8-1.8-3.1c0.4-1.2,1.9-2.3,3.6-1.3c-0.6,0.1-0.9,0.2-1.3,0.2c-0.9,0.1-1.5,0.6-1.7,1.5c-0.1,0.9,0.2,1.5,0.9,1.9
			c0.8,0.4,1.6,0.3,2.1-0.4c-0.1,0-0.3,0-0.4,0.1c-1,0.5-1.8,0.3-2.3-0.5c-0.5-0.8-0.2-1.5,0.9-2.2c-0.1,0.3-0.2,0.5-0.3,0.6
			c-0.4,1,0.1,1.9,1.1,2c0.3,0,0.6,0,0.9,0h0c0.3-0.2,0.6-0.5,1-0.8C605.5,804.1,604.1,805,602.9,804.6z M614.9,805
			c-0.3,0.5-0.7,1-1.1,1.7c-2.1-1.5-4.3-2.8-5.6-5.2c0.9-0.5,1.8-0.9,2.5-1.2C612.1,801.8,613.4,803.3,614.9,805z M608.9,791.4
			c0.1,1.2,0.2,2.3,0.3,3.4c0,0.1,0,0.3,0,0.4c0.1,0.8,0.6,1.8,0.3,2.2c-0.5,0.7-1.5,0.9-2.4,1.4c-1-2.4-0.7-4.8-0.9-7.3
			C607.2,791.5,608.1,791.5,608.9,791.4z M601.4,788.5c0,0-0.1,0-0.1,0c0,0,0,0,0,0c0,0-0.1,0-0.1,0c-0.2,0.1-0.4,0.2-0.6,0.5
			c0,0,0,0,0,0l0,0c0,0,0,0,0,0c0.2-0.1,0.5-0.1,0.7-0.2c0.1,0,0.2-0.1,0.3-0.1c0.1,0,0.1,0,0.2,0c-1.3,1.3-1.2,2,0.2,3
			c-1.5,0.1-2.2-0.9-1.6-2.2c0.1-0.1,0.1-0.3,0.1-0.4c0,0,0,0,0,0c0,0,0,0,0,0c0,0,0,0,0,0c-0.1,0.1-0.2,0.1-0.3,0.2
			c0,0,0,0-0.1,0.1c0,0-0.1,0.1-0.1,0.1c0,0,0,0,0,0.1c0,0,0,0,0,0.1c0,0,0,0.1-0.1,0.1c0,0,0,0.1,0,0.1c0,0,0,0,0,0.1
			c0,0,0,0,0,0.1c-0.1,0.3,0,0.7,0.2,1c0.8,1.9,2.3,0.9,3.7,0.6c-0.8,1.1-1.6,1.5-2.7,1.2c-1-0.3-1.8-1.2-1.8-2.2
			c-0.1-1.1,0.5-2,1.6-2.5c1-0.4,1.9-0.1,2.7,0.8C602.9,789,602.1,788.4,601.4,788.5z M606.7,780.3c0.9-0.1,1.5-0.1,2.3-0.1v8.5
			h-2.3V780.3z M605.7,774.9c-0.4-0.6-1-1-1.8-1.7c1.6-0.2,2.9-0.4,4.2-0.4c0.2,0,0.7,0.5,0.7,0.7c-0.2,0.7-0.4,1.7-0.9,2
			C607.3,775.7,606.3,775.9,605.7,774.9z M608.2,771.7c1.3-0.1,1.7,0.6,1.7,1.8c0,2-0.9,2.9-3.2,3.1c-0.1-0.3-0.1-0.5-0.2-0.7
			c2-0.3,2.3-0.6,2.5-2.3c0.1-0.9-0.3-1.3-1.1-1.2c-1.1,0.1-2.3,0.3-3.4,0.4c-0.7,0.1-1.4,0-2.1,0c0-0.2,0-0.3,0-0.5
			C604.4,772.1,606.3,771.8,608.2,771.7z M571.7,803c1.2,0.3,2.2,1.4,2.1,2.7c-0.4,4.4-0.9,8.8-1.4,13.3c-0.2,1.5-1.3,2.4-2.7,2.3
			c-1.2-0.1-2.1-1.1-2.2-2.4c0.1-0.1,0.2-0.2,0.2-0.2c0.2,0.2,0.5,0.4,0.6,0.7c0.4,0.7,0.9,1.2,1.8,1c0.9-0.1,1.3-0.8,1.4-1.6
			c0.5-4.3,1-8.6,1.3-12.9c0-0.5-0.5-1.3-0.9-1.7c-0.6-0.5-1.2-0.2-1.8,0.3c-0.3,0.3-0.7,0.4-1.2,0.7
			C569.5,803.5,570.6,802.8,571.7,803z M568.7,819.2c0-0.1,0.1-0.2,0.1-0.3c0.7,0.1,1.3,0.1,2,0.2c0,0.1,0,0.3,0.1,0.4
			c-0.4,0.1-0.8,0.4-1.1,0.4C569.4,819.8,569.1,819.5,568.7,819.2z M572.5,805.2c-0.8,0-1.4-0.1-2.2-0.1
			C571.1,804.1,571.5,804.2,572.5,805.2z M571.8,780.1c1.2,0.2,2,1.2,2,2.7c0,4.3,0,8.6,0,12.9c0,1.4-0.9,2.5-2.2,2.7
			c-1.2,0.2-2.3-0.7-2.8-2.5c0.5,0.3,0.9,0.4,1,0.6c0.5,0.7,1.1,1.1,1.9,0.9c0.9-0.3,1.2-0.9,1.2-1.8c0-4.2,0-8.4,0-12.6
			c0-0.9-0.2-1.6-1.1-2c-0.8-0.3-1.5,0.1-2,0.8c-0.1,0.2-0.5,0.3-1,0.5C569.5,780.5,570.5,779.8,571.8,780.1z M570.3,796.1h2.2
			C571.7,797.3,570.9,797.3,570.3,796.1z M572.3,782.1h-1.9C571.1,781.1,571.6,781.1,572.3,782.1z M564.7,795.4v-12.8h7.8v12.8
			H564.7z M563.1,817.7c0.4-4.3,0.8-8.5,1.2-12.8c2.7,0.3,5.4,0.6,8.1,0.9c-0.5,4.3-0.9,8.5-1.3,12.8
			C568.4,818.2,565.8,817.9,563.1,817.7z M562.2,847.6c-0.7-4.2-0.8-8.5-0.5-12.8c0.1-1.9,0.3-3.8,0.4-5.8h2.4c0,0,0-0.1,0-0.1
			c-0.7-0.1-1.4-0.2-2.1-0.3c-0.1-0.1-0.1-0.2-0.2-0.3c0.3-0.2,0.5-0.6,0.8-0.6c5.5,0.5,10.9,1.4,15.6,4.6c4,2.7,6.5,6.5,7.9,11.1
			c0.5,1.8,0.9,3.7,1.3,5.5c-0.9,0.2-0.9,0.2-1.5-1.5c0,0.5,0.1,1,0.1,1.7h-22.2C562.5,849.2,562.5,849.2,562.2,847.6z M687.1,860.4
			H686c-17.2,0-34.3,0.1-51.5-0.1c-2.4,0-4.8-0.8-7.1-1.5c-6.6-2.1-13.4-2.9-20.3-3.3c-1.5-0.1-3-0.2-4.6-0.3v5h-39.7V851
			c0.3,0,0.6-0.1,1-0.1c12.6,0,25.2,0,37.9,0c8.1,0,16,0.8,24,2.4c6.3,1.2,12.6,1.8,19,1.8c13.7,0,27.3,0,41,0h1.5V860.4z
			 M686.8,854.8c-0.2,0-0.4,0-0.5,0c-14.2,0-28.3,0-42.5,0c-6.6,0-13.1-0.7-19.6-2c-8.1-1.6-16.3-2.2-24.5-2.2
			c-11.8,0-23.6,0-35.3,0h-1.5v-1.1h1.2c12,0,24,0,36.1,0c9.1,0,18.1,0.9,27,2.6c5.7,1.1,11.5,1.5,17.3,1.5c13.1,0,26.3,0,39.4,0
			h3.2c0,0.4,0,0.7,0.1,1C686.9,854.7,686.9,854.8,686.8,854.8z"/>
		<path class="st16" d="M617.7,805.4c-0.3,0.5-0.6,1-0.9,1.5c-0.3,0.3-0.5,0.7-0.8,1c-0.1,0.3-0.3,0.6-0.4,0.9
			c-0.2,0.4-0.5,0.8-0.7,1.1c-0.4,0.5-0.9,1-1.3,1.5c-0.5,0.6-1,1.1-1.7,0.6c-0.7-0.5-0.6-1.2-0.1-1.8c0.1-0.2,0.3-0.5,0.4-0.7
			c0,0,0,0,0,0c0,0,0,0,0,0c0,0,0,0,0,0c0,0,0,0,0,0c0.4-0.6,0.8-1.3,1.3-1.9l0,0c0,0,0,0,0,0c0.9-1.2,1.7-2.4,2.6-3.6
			c0.5,0,1.1-0.1,1.5,0.2C617.6,804.3,617.6,805,617.7,805.4z"/>
		<path class="st16" d="M628,811.7c-0.3,0.5-0.6,1-0.9,1.5c-0.2,0.3-0.5,0.6-0.7,1c-0.2,0.3-0.3,0.5-0.5,0.8
			c-0.1,0.1-0.3,0.2-0.3,0.3c-0.6,0.9-1.2,1.8-1.8,2.7c-0.4,0.5-1,0.7-1.6,0.3c-0.6-0.4-0.6-1-0.3-1.6c0.2-0.3,0.3-0.6,0.5-0.9l0,0
			c0,0,0,0,0,0v0c0.3-0.5,0.5-0.9,0.8-1.3c0.1-0.1,0.3-0.3,0.4-0.4c0.3-0.5,0.6-1,0.9-1.5c0.1-0.1,0.2-0.3,0.4-0.4
			c0.5-0.7,1-1.4,1.6-2C627.9,810,628.4,810.4,628,811.7z"/>
		<path class="st16" d="M601.5,779.9c-0.5-1.4-0.2-1.9,1.3-2c2.2-0.1,4.5-0.2,6.7-0.2c0.5,0,0.9,0.3,1.4,0.4
			c0.5,0.8,0.1,1.3-0.5,1.8c-2.5,0.1-4.9,0.2-7.4,0.2C602.4,780.1,601.9,779.9,601.5,779.9L601.5,779.9z"/>
		<path class="st15" d="M648.5,821.9L648.5,821.9c-1-0.2-1.5,0.2-2,1c-0.8,1.2-1.8,2.4-2.6,3.7c0,0,0,0,0,0c0,0,0,0,0,0
			c0.1-0.3,0.3-0.6,0.4-1c-2.5-1.4-4.9-2.9-7.3-4.2c-0.2-0.1-0.6,0.1-1,0.1c0.3-0.5,0.6-1,1-1.6c-0.3,0.6-0.1,0.9,0.5,1.2
			c1.4,0.7,2.7,1.5,4,2.3c1,0.6,2.1,1.2,3.2,1.8c0.4-0.6,0.7-1,1.1-1.6c-2.7-1.6-5.2-3.1-7.8-4.6c-0.2,0.2-0.4,0.3-0.6,0.5
			c0.3-0.5,0.6-0.9,0.9-1.4l0.1,0c0.1,0.3,0.1,0.6,0.3,0.7c2.4,1.5,4.9,2.9,7.3,4.3C646.7,822.6,646.9,820.9,648.5,821.9z"/>
		<path class="st15" d="M633.7,820.4c0.1-0.3,0.2-0.6,0.2-0.9c-1.8-1.1-3.6-2.1-5.4-3.2c-0.8-0.5-1.7-0.9-2.5-1.3c0,0,0,0,0,0h0
			c0.2-0.3,0.3-0.5,0.5-0.8c0.1,0.2,0.2,0.5,0.4,0.6c2.5,1.5,4.9,2.9,7.5,4.4c0.4-0.6,0.7-1.1,1.1-1.6c-2.5-1.5-5-3-7.5-4.5
			c-0.2-0.1-0.5,0.1-0.8,0.2c0.3-0.5,0.6-1,0.9-1.5c-0.2,0.6,0,0.9,0.6,1.3c2.3,1.3,4.6,2.8,6.9,4.2c0.3-0.3,0.6-0.6,0.9-0.8
			C635.5,817.7,634.6,819,633.7,820.4z"/>
		<path d="M636.5,816.3C636.4,816.3,636.4,816.3,636.5,816.3C636.4,816.3,636.4,816.3,636.5,816.3L636.5,816.3z"/>
		<path class="st15" d="M626.4,810.1c-0.5,0.7-1,1.4-1.6,2c0.1-0.3,0.2-0.6,0.2-0.9c-2.6-1.6-5.1-3.2-7.7-4.9
			c-0.2,0.1-0.4,0.3-0.6,0.5c0.3-0.5,0.6-1,0.9-1.5c0.2,0.3,0.2,0.8,0.5,1c2.4,1.6,4.8,3.1,7.1,4.5
			C625.7,810.6,626,810.4,626.4,810.1z"/>
		<path class="st17" d="M636.5,816.3c0.6-0.8,1.3-0.7,1.8-0.1c0.7,0.7,0.6,1.4-0.1,2.1c0,0-0.1,0-0.1,0c0.2-0.6,0.7-1.3,0-1.8
			C637.7,816.1,637,816.3,636.5,816.3L636.5,816.3z"/>
		<path class="st18" d="M564.3,804.8c2.7,0.3,5.4,0.6,8.1,0.9c-0.5,4.3-0.9,8.5-1.3,12.8c-2.7-0.3-5.3-0.6-8-0.8
			C563.5,813.4,563.9,809.2,564.3,804.8z"/>
		<path class="st18" d="M572.5,795.4c-2.6,0-5.1,0-7.8,0c0-4.3,0-8.5,0-12.8c2.5,0,5.1,0,7.8,0C572.5,786.9,572.5,791.1,572.5,795.4
			z"/>
		<path class="st13" d="M567.7,818.7c0.2,0.2,0.5,0.4,0.6,0.7c0.4,0.7,0.9,1.2,1.8,1c0.9-0.1,1.3-0.8,1.4-1.6
			c0.5-4.3,1-8.6,1.3-12.9c0-0.5-0.5-1.3-0.9-1.7c-0.6-0.5-1.2-0.2-1.8,0.3c-0.3,0.3-0.7,0.4-1.2,0.7c0.6-1.6,1.7-2.3,2.9-2.1
			c1.2,0.3,2.2,1.4,2.1,2.7c-0.5,4.4-0.9,8.8-1.4,13.3c-0.2,1.5-1.3,2.4-2.7,2.3c-1.2-0.1-2.1-1.1-2.2-2.4
			C567.6,818.8,567.7,818.7,567.7,818.7z"/>
		<path class="st13" d="M568.9,782.3c0.6-1.8,1.6-2.5,2.9-2.3c1.2,0.2,2,1.2,2,2.7c0,4.3,0,8.6,0,12.9c0,1.4-0.9,2.5-2.2,2.7
			c-1.2,0.2-2.3-0.7-2.8-2.5c0.5,0.3,0.9,0.4,1,0.6c0.5,0.7,1.1,1.1,1.9,0.9c0.9-0.3,1.2-0.9,1.2-1.8c0-4.2,0-8.4,0-12.6
			c0-0.9-0.2-1.6-1.1-2c-0.8-0.3-1.5,0.1-2,0.8C569.8,782,569.4,782.1,568.9,782.3z"/>
		<path class="st16" d="M648.5,824c-0.4,0.6-0.7,1.2-1.1,1.8c-0.1,0.1-0.2,0.2-0.3,0.3c-0.2,0.3-0.4,0.6-0.6,0.9
			c-0.1,0.1-0.2,0.2-0.4,0.4c-0.3,0.5-0.6,0.9-0.8,1.4v0c0,0,0,0,0,0v0c-0.3,0.3-0.5,0.7-0.8,0.8c-0.4,0.2-1.1,0.5-1.4,0.3
			c-0.3-0.2-0.3-0.9-0.4-1.4c0-0.2,0.2-0.5,0.3-0.7c0.3-0.4,0.6-0.9,0.8-1.3l0,0c0,0,0,0,0,0c0.9-1.2,1.8-2.4,2.6-3.7
			c0.5-0.7,1.1-1.2,2-0.9C649,822.6,649,823.3,648.5,824z"/>
		<path class="st16" d="M609.4,788.9c0,0,1.4,0.3,1.4,0.3c0.7,1.4,0.1,1.9-1.5,2c-2.1,0.1-4.3,0.1-6.4,0.2c-0.8,0-1.5-0.1-1.6-1.1
			c0-0.9,0.7-1.1,1.4-1.2c2.2-0.1,4.6-0.2,6.8-0.2"/>
		<path class="st16" d="M610.8,799.8c-2,1-4.1,2-6.1,3c-0.7,0.3-1.4,0.4-1.7-0.3c-0.4-0.8,0-1.3,0.7-1.7c0.9-0.4,1.9-0.9,2.8-1.4
			l0.1,0c1.1-0.5,2.1-1,3.2-1.5c0.7-0.3,1.4-0.4,1.8,0.4C612,799.1,611.5,799.5,610.8,799.8z"/>
		<path class="st12" d="M650.5,829.1c-1.3-0.8-2.6-1.4-4-2c-0.1,0.1-0.2,0.2-0.4,0.4c0,0.6,0,1.3-0.1,1.9c-0.1,0.7-0.4,1.4-0.7,2
			c-0.2,0.4-0.4,0.9-0.7,1c-0.6,0.2-1.3,0.3-1.8,0.1c-1.1-0.5-2.2-1.3-2.2-2.8c-0.1-1.1,0.7-2.2,2-2.7c0.4-0.2,0.9-0.3,1.3-0.4
			c0.1-0.3,0.3-0.6,0.4-1c-2.5-1.4-4.9-2.9-7.3-4.2c-0.2-0.1-0.6,0.1-1,0.1c-0.1,0.1-0.2,0.2-0.4,0.4c0,0.7,0,1.4,0,2.1
			c0,1-0.9,2.1-1.9,2.4c-1.1,0.3-2.2,0-2.9-0.9c-0.8-1-0.8-1.9-0.2-3c0.7-0.7,1.3-1.5,2.4-1.3c0.2-0.3,0.4-0.5,0.6-0.8
			c0.1-0.3,0.2-0.6,0.2-0.9c-1.8-1.1-3.6-2.1-5.4-3.2c-0.8-0.5-1.7-0.9-2.5-1.3c0,0.5-1.2,1.1,0,1.6c-0.3-0.1-0.5-0.2-0.8-0.3
			c0,2.9-0.7,4-2.5,4.2c-1.3,0.1-2.7-1-2.9-2.2c-0.3-1.7,0.6-2.8,3-3.4c-0.7-0.5-1.4-0.9-2.1-1.3c0-0.1,0.1-0.1,0.1-0.2
			c0.5,0.3,1,0.6,1.5,0.9c0.3,0.1,0.6,0.1,0.9,0.2c0.1-0.1,0.3-0.3,0.4-0.4c-0.1-0.3-0.2-0.6-0.4-0.8c-2.3-1.5-4.7-3-7.1-4.4
			c-0.1-0.1-0.4,0-0.6-0.1c-0.2,0.4-0.5,0.8-0.7,1.1c0,0.4-0.1,0.7-0.1,1.1c0.2,1.5-0.7,3-2.2,3.3c-1.4,0.3-2.9-0.8-3.2-2.3
			c-0.3-1.4,0.8-2.8,2.3-3.1c0.6-0.1,1.1-0.2,0.6-0.9c0.3-0.1,0.6-0.2,1-0.4c0.2-0.4,0.1-0.7-0.3-1.1c-1.9-1.4-3.9-2.7-5.2-4.9
			c-0.4,0.2-0.7,0.4-1.1,0.6c0.4,0.6,0.7,1.2,1.1,1.7c-0.1,0-0.1,0.1-0.2,0.1c-0.4-0.5-0.8-1.1-1.1-1.6c-1.1,2.2-2.3,3-3.8,2.4
			c-1.2-0.4-2.2-1.9-1.8-3.1c0.2-0.6,0.6-1.3,1.1-1.7c1-0.9,2.2-0.6,3.4-0.1c-0.1-0.6-0.2-1.1-0.3-1.5c0.1,0,0.1,0,0.1,0
			c0.1,0.4,0.3,0.7,0.4,1.1c0.4,0,0.7-0.1,1-0.1l0.1,0c-0.2-1.8-0.5-3.7-0.7-5.5c-0.1-0.7,0-1.5,0-2.2h-1.4v1.7c-0.1,0-0.1,0-0.2,0
			c-0.1-0.5-0.1-1-0.2-1.5c-1.8,1.4-3.2,1.5-4.3,0.3c-1-1-1.1-2.5-0.2-3.6c0.4-0.4,1-0.8,1.5-1c1.2-0.3,2.2,0.3,3.1,1.3
			c0.1-0.7,0.1-1.2,0.2-1.6c0.1,0,0.1,0,0.2,0c0,0.5-0.1,0.9-0.1,1.5c0.5,0,0.9-0.1,1.5-0.1v-8.4H605v1.9c-0.1,0-0.1,0-0.2,0
			c-0.1-0.7-0.1-1.3-0.2-2.1c-0.5,0.3-0.7,0.6-1,0.8c0,0,0,0,0,0c-0.7,0.8-1.7,1.1-2.7,0.7c-1.1-0.4-2-1.7-1.9-2.8
			c0.1-1.1,1-2.3,2.1-2.5c1.1-0.3,2.1,0.1,2.7,1h0c0.2,0.1,0.5,0.2,0.8,0.3c0-0.5,0-0.9,0.1-1.3c0,0,0.1,0,0.1,0
			c0,0.4,0.1,0.8,0.2,1.3c0.5,0,0.9,0,1.3-0.1c0.1-1.4-0.6-2.3-1.6-3c-1.6-1.4-3.6-2.2-5.7-2.2c-5.9,0-11.8,0.7-17.7,1.9
			c-3.9,0.8-7.8,1.6-11.9,1.2c-1.4-0.1-2.8,1-3,2.3c-0.2,1.4,0,2.8,0,4.3h2c0.7-1.9,1.8-2.7,3.4-2.5c1.3,0.2,2.4,1.3,2.5,2.7
			c0,4.6,0,9.1,0,13.7c0,1.3-0.8,2.1-1.9,2.6c-1,0.5-2.1,0.2-2.8-0.5c-0.5-0.5-0.8-1.2-1.3-1.9h-1.5c-0.1,2.9-0.2,5.6-0.3,8.5
			c0.7,0.1,1.4,0.1,1.9,0.2c0.5-0.6,0.8-1.2,1.3-1.6c0.9-0.7,2-0.9,3-0.2c1.2,0.7,1.7,1.8,1.5,3.2c-0.3,2.7-0.6,5.5-0.9,8.3
			c-0.2,1.7-0.3,3.3-0.6,5c-0.2,1.4-1.4,2.2-2.8,2.3c-1.1,0.1-2.3-0.8-2.8-1.9c-0.5-1.3-0.8-1.4-2.1-1.1c-0.5,2.9-1,5.8-1.5,8.7
			c1.9,0.3,3.8,0.5,5.7,0.9c10.5,2,16.5,8.3,18.4,18.4c0.5,2.5,0.4,2.5,3,2.5c0.5,0,0.9-0.2,1.3-0.2c0.4,0.1,0.9,0.2,1.4,0.3
			c0.2-2.7,1.5-4.5,3.4-6c1.5-1.1,3.1-2.2,4.8-3c8.5-4.1,17.5-5.9,26.9-6.1c4.6-0.1,9.2-0.2,13.8-0.2c3.1,0,5.7-1.1,7.9-3.3
			C650.6,830.2,651.2,829.6,650.5,829.1z M646.4,828.7c0-0.1,0.1-0.2,0.1-0.2c0.9,0.5,1.7,0.9,2.7,1.4c0-0.3,0.1-0.4,0.1-0.6
			c0.1,0,0.1,0,0.2,0c0.1,0.3,0.2,0.6,0.4,1.2C648.5,829.8,647.4,829.2,646.4,828.7z"/>
		<path class="st17" d="M603.7,780.2c-0.1,0.3-0.1,0.5-0.2,0.7c-0.2,0.1-0.4,0.2-0.6,0.3c-1.4,0.7-2.8,0.2-3.4-1.2
			c-0.6-1.2,0-2.6,1.3-3.2c1.1-0.5,2,0,2.9,0.6c-0.4,0-0.8,0.1-1.2,0c-0.9-0.3-1.7-0.1-2.2,0.6c-0.5,0.7-0.5,1.5,0,2.1
			c0.6,0.7,1.4,0.9,2.3,0.5C602.9,780.5,603.3,780.4,603.7,780.2z"/>
		<path class="st19" d="M603.6,780.9L603.6,780.9C603.5,780.9,603.5,780.9,603.6,780.9C603.5,780.9,603.5,780.9,603.6,780.9
			C603.6,780.9,603.6,780.9,603.6,780.9z"/>
		<path class="st19" d="M603.8,777.4C603.8,777.3,603.7,777.3,603.8,777.4C603.7,777.3,603.7,777.3,603.8,777.4L603.8,777.4
			L603.8,777.4z"/>
		<path class="st17" d="M600.6,789.1c-0.8,0.5-0.8,1.2-0.5,1.9c0.8,1.9,2.3,0.9,3.7,0.6c-0.8,1.1-1.6,1.5-2.7,1.2
			c-1-0.3-1.8-1.2-1.8-2.2c-0.1-1.1,0.5-2,1.6-2.5c1-0.4,1.9-0.1,2.7,0.8C602.6,789,601.4,787.8,600.6,789.1L600.6,789.1z"/>
		<path class="st17" d="M604.7,803.3c0.3-0.2,0.6-0.5,1-0.8c-0.3,1.6-1.6,2.4-2.9,2.1c-1.4-0.4-2.2-1.8-1.8-3.1
			c0.4-1.2,1.9-2.3,3.6-1.3c-0.6,0.1-0.9,0.2-1.3,0.2c-0.9,0.1-1.5,0.6-1.7,1.5c-0.1,0.9,0.2,1.5,0.9,1.9
			C603.4,804.2,604.2,804.1,604.7,803.3L604.7,803.3z"/>
		<path class="st17" d="M601.4,779.8c0.2,0.2,0.3,0.5,0.4,0.6c-0.9,0.1-1.6-0.4-1.6-1.3c-0.1-0.8,0.5-1.5,1.6-1.6
			c-0.3,0.4-0.7,0.7-0.7,1.1C601,779,601.3,779.5,601.4,779.8C601.5,779.9,601.4,779.8,601.4,779.8z"/>
		<path class="st17" d="M604.8,803.3c-0.1,0-0.3,0-0.4,0.1c-1,0.5-1.8,0.3-2.3-0.5c-0.5-0.8-0.2-1.5,0.9-2.2
			c-0.1,0.3-0.2,0.5-0.3,0.6c-0.4,1,0.1,1.9,1.1,2C604.1,803.4,604.4,803.3,604.8,803.3C604.7,803.3,604.8,803.3,604.8,803.3z"/>
		<path class="st17" d="M600.6,789.1c0.4-0.1,0.8-0.2,1.3-0.3c-1.3,1.3-1.2,2,0.2,3c-1.5,0.1-2.2-0.9-1.6-2.2
			C600.5,789.4,600.5,789.2,600.6,789.1C600.6,789.1,600.6,789.1,600.6,789.1z"/>
		<path class="st12" d="M572.5,796.1c-0.7,1.2-1.5,1.1-2.2,0C571,796.1,571.7,796.1,572.5,796.1z"/>
		<path class="st12" d="M568.9,818.9c0.7,0.1,1.3,0.1,2,0.2c0,0.1,0,0.2,0.1,0.4c-0.4,0.1-0.8,0.4-1.1,0.4c-0.4-0.1-0.7-0.4-1.1-0.7
			C568.8,819.1,568.8,819,568.9,818.9z"/>
		<path class="st12" d="M570.4,782.1c0.7-1,1.2-1,1.9,0C571.7,782.1,571.1,782.1,570.4,782.1z"/>
		<path class="st12" d="M570.3,805.1c0.9-0.9,1.3-0.9,2.2,0.1C571.7,805.1,571.1,805.1,570.3,805.1z"/>
		<path class="st15" d="M614.9,809.9c-0.4,0.5-0.9,1-1.3,1.5c-0.5,0.6-1,1.1-1.7,0.6c-0.7-0.5-0.6-1.2-0.1-1.8
			c0.1-0.2,0.3-0.5,0.4-0.7c0,0,0,0,0,0c0,0,0,0,0,0c0.4-0.6,0.8-1.3,1.3-1.9c0,0,0,0,0,0c0,0,0,0,0,0c-0.3,0.1-0.6,0.3-1,0.4
			c0.5,0.7,0,0.8-0.6,0.9c-1.5,0.3-2.6,1.7-2.3,3.1c0.3,1.5,1.8,2.6,3.2,2.3c1.5-0.3,2.5-1.8,2.2-3.3
			C614.7,810.7,614.8,810.3,614.9,809.9z M612.9,813.9c-1.3,0.4-2.8-0.4-3.2-1.7c-0.3-1.3,0.5-2.7,1.8-3c0,0,0,0,0.1,0s0,0,0.1,0
			c0,0,0.1,0,0.1,0.1c0,0,0,0,0.1,0c0.1,0.1,0.2,0.1,0.2,0.2c-0.3,0.2-0.7,0.5-1,0.7c0,0.1,0.1,0.3,0.1,0.4c0.1,1.8,0.7,2.2,2.4,1.6
			c-0.5,0.9-1.2,1.1-2,0.8c-0.8-0.3-1.1-1.2-0.8-2l0.3-0.7c-0.1,0-0.1,0.1-0.2,0.1c-0.2,0.2-0.4,0.4-0.5,0.7c0,0,0,0,0,0.1
			c0,0,0,0.1,0,0.1c0,0,0,0,0,0.1c0,0.3,0,0.7,0.2,1c0.3,0.8,1,1.1,1.9,1c0.9-0.1,1.4-0.7,1.6-1.6c0-0.3,0.2-0.6,0.4-1.1
			C614.8,812.2,614.1,813.5,612.9,813.9z"/>
		<path class="st15" d="M624.4,812.6c-0.3,0.5-0.6,1-0.9,1.5c-0.1-0.3-0.2-0.6-0.4-0.8c-2.3-1.5-4.7-3-7.1-4.4
			c-0.1-0.1-0.4,0-0.6-0.1c0.1-0.3,0.3-0.6,0.4-0.9c0.2,0.3,0.4,0.6,0.7,0.7c2.2,1.4,4.3,2.7,6.5,4.1
			C623.7,813.1,624.1,813.1,624.4,812.6z"/>
		<path class="st15" d="M625.9,815C625.9,815,625.9,815,625.9,815C625.9,815,625.9,815,625.9,815L625.9,815
			c-0.2,0.1-0.3,0.1-0.4,0.3c-0.6,0.9-1.2,1.8-1.8,2.7c-0.4,0.5-1,0.7-1.6,0.3c-0.6-0.4-0.6-1-0.3-1.6c0.2-0.3,0.3-0.6,0.5-0.9
			c0,0,0,0,0,0v0c0.3-0.5,0.5-0.9,0.8-1.3c-0.3-0.1-0.7-0.1-0.9-0.2c-0.5-0.3-1-0.6-1.5-0.9c0,0.1-0.1,0.1-0.1,0.2
			c0.7,0.4,1.4,0.9,2.1,1.3c-2.4,0.6-3.3,1.7-3,3.4c0.2,1.3,1.6,2.4,2.9,2.2c1.8-0.2,2.4-1.3,2.5-4.2c0.3,0.1,0.6,0.2,0.8,0.3
			C624.8,816.1,625.9,815.5,625.9,815z M623.8,818.7c-0.4,0.2-0.9,0.7-1.3,0.6c-0.5,0-1.1-0.4-1.3-0.8c-0.2-0.4-0.1-1.1-0.1-1.6
			c0.1,0,0.2,0,0.3,0C621.6,818.6,622.2,819,623.8,818.7z M623.2,820.2c-1.2,0.4-2.7-0.3-3.1-1.6c-0.4-1.2,0.3-2.6,1.5-3.1
			c0.1,0,0.1,0,0.2,0c0,0,0.1,0,0.1,0.1c0.1,0,0.1,0.1,0.2,0.1c0,0,0.1,0,0.1,0.1c0.1,0,0.1,0.1,0.2,0.1c-0.3,0.2-0.6,0.3-0.8,0.5
			c-0.8,0.5-1.1,1.2-0.8,2.1c0.3,0.8,0.9,1.3,1.8,1.2c0.9,0,1.5-0.5,1.7-1.4c0.1-0.4,0.2-0.8,0.4-1.3
			C625.1,818.5,624.5,819.7,623.2,820.2z"/>
		<path class="st16" d="M638.1,818.1c-0.3,0.5-0.6,0.9-0.9,1.4c-0.1,0.1-0.2,0.2-0.3,0.3c-0.3,0.5-0.6,1-1,1.6
			c-0.1,0.1-0.2,0.2-0.4,0.4c-0.5,0.8-1.1,1.5-1.6,2.3c-0.2,0-0.5,0.1-0.7,0.1c-0.2,0-0.5,0.1-0.7,0.1l0,0c0,0,0,0,0,0l0,0
			c-0.1-0.1-0.2-0.3-0.3-0.4v0c-0.3-0.5-0.2-1,0.2-1.6c0.2-0.3,0.3-0.6,0.4-0.9c0-0.1,0.1-0.1,0.1-0.2c0.2-0.3,0.4-0.5,0.6-0.8
			c0.9-1.4,1.8-2.7,2.7-4.1c0,0,0,0,0-0.1h0c0.6,0,1.2-0.1,1.7,0.1C638.8,816.8,638.3,817.5,638.1,818.1z"/>
		<path class="st17" d="M634.5,825.5c-0.8,0.7-1.7,0.8-2.6,0.4c-1-0.5-1.6-1.5-1.5-2.5c0-0.3,0.1-0.7,0.1-1c0.7-0.7,1.3-1.5,2.4-1.3
			c0,0.1-0.1,0.1-0.1,0.2c-0.3,0.2-0.6,0.5-0.9,0.7c-0.8,0.5-1.1,1.2-0.8,2.2c0.3,0.8,0.9,1.2,1.8,1.2c1,0,1.5-0.6,1.8-1.5
			c0.1-0.3,0.2-0.7,0.4-1.2C635.5,824,635.3,824.9,634.5,825.5z"/>
		<path d="M632.5,824.3c-0.1-0.1-0.2-0.3-0.3-0.4C632.4,824,632.4,824.2,632.5,824.3z"/>
		<path class="st15" d="M635.6,824c0,1-0.9,2.1-1.9,2.4c-1.1,0.3-2.2,0-2.9-0.9c-0.8-1-0.8-1.9-0.2-3c0,0.3-0.1,0.7-0.1,1
			c-0.1,1,0.5,2,1.5,2.5c1,0.5,1.8,0.3,2.6-0.4c0.8-0.7,1-1.6,0.6-2.7c-0.2,0.5-0.3,0.8-0.4,1.2c-0.3,0.9-0.8,1.5-1.8,1.5
			c-0.9,0-1.5-0.4-1.8-1.2c-0.3-0.9,0-1.6,0.8-2.2c0.3-0.2,0.6-0.5,0.9-0.7c-0.1,0.3-0.2,0.6-0.4,0.9c-0.4,0.6-0.5,1.1-0.2,1.6
			c-0.1-0.1-0.1-0.2-0.2-0.2c-0.1-0.1-0.1-0.2-0.2-0.2c-0.1-0.2-0.2-0.3-0.3-0.5c-0.4,0.8-0.3,1.6,0.5,2c0.7,0.4,1.6,0.2,2-0.4
			c0.1-0.1-0.1-0.3-0.1-0.5c0.5-0.8,1.1-1.5,1.6-2.3C635.6,822.5,635.6,823.2,635.6,824z"/>
		<polygon points="645.3,828.9 645.3,828.9 645.3,828.9 		"/>
		<path class="st15" d="M646.1,829.4c-0.1,0.7-0.4,1.4-0.7,2c-0.2,0.4-0.4,0.9-0.7,1c-0.6,0.2-1.3,0.3-1.8,0.1
			c-1.1-0.5-2.2-1.3-2.2-2.8c-0.1-1.1,0.7-2.2,2-2.7c0.4-0.2,0.9-0.3,1.3-0.4c0,0,0,0,0,0c0,0,0,0,0,0c-0.3,0.4-0.6,0.9-0.8,1.3
			l-0.1,0c0-0.2,0.1-0.4,0.2-0.6c-1.5,0.1-2.4,1.2-2.3,2.7c0.1,1.3,1.5,2.3,2.9,2.1c1.3-0.2,2.3-1.6,2-2.9c0,0,0,0,0,0c0,0,0,0,0,0
			c0,0,0,0,0,0c0,0,0,0,0,0c-0.1-0.1-0.2-0.1-0.3-0.2c0.3-0.5,0.6-0.9,0.8-1.4C646.1,828.1,646.2,828.8,646.1,829.4z"/>
		<path class="st15" d="M599.5,780c0.7,1.4,2.1,1.9,3.4,1.2c0.2-0.1,0.4-0.2,0.6-0.3c0,0,0,0,0,0c0,0,0,0,0,0
			c-0.7,0.8-1.7,1.1-2.7,0.7c-1.1-0.4-2-1.7-1.9-2.8c0.1-1.1,1-2.3,2.1-2.5c1.1-0.3,2.1,0.1,2.7,1c0,0,0,0,0,0c0,0,0,0-0.1,0
			c-0.9-0.6-1.8-1.1-2.9-0.6C599.5,777.3,598.9,778.8,599.5,780z"/>
		<path class="st15" d="M649.8,830.5c-1.3-0.7-2.4-1.3-3.4-1.8c0-0.1,0.1-0.2,0.1-0.2c0.9,0.5,1.7,0.9,2.7,1.4
			c0-0.3,0.1-0.4,0.1-0.6c0.1,0,0.1,0,0.2,0C649.5,829.6,649.6,829.9,649.8,830.5z"/>
		<path class="st15" d="M643,827.8c-0.1,0.2-0.4,0.5-0.3,0.7c0,0.5,0.1,1.2,0.4,1.4c0.3,0.2,1,0,1.4-0.3c0.3-0.2,0.5-0.6,0.8-0.9
			c0,0,0,0,0,0c-0.1,0.3-0.1,0.5-0.2,0.8c-0.2,1.2-0.8,1.8-1.9,1.7c-0.9,0-1.5-0.5-1.7-1.4C641.3,829,641.8,828.3,643,827.8
			L643,827.8z M644.5,830.4c-2.1,0.2-2.1-0.6-2.3-1.9c-0.6,0.9-0.5,1.8,0.2,2.3C643.2,831.3,643.9,831.2,644.5,830.4z"/>
		<path class="st17" d="M611,810.2c-0.8,0.5-0.9,1.3-0.6,2.1c0.3,0.8,1,1.1,1.9,1c0.9-0.1,1.4-0.7,1.6-1.6c0-0.3,0.2-0.6,0.4-1.1
			c0.5,1.5-0.1,2.8-1.4,3.3c-1.3,0.4-2.8-0.4-3.2-1.7c-0.3-1.3,0.5-2.7,1.8-3c0.1,0,0.3,0.2,0.5,0.3c0,0,0,0,0,0
			C611.7,809.7,611.4,810,611,810.2L611,810.2z"/>
		<path class="st17" d="M611,810.2c0,0.1,0.1,0.3,0.1,0.4c0.1,1.8,0.7,2.2,2.4,1.6c-0.5,0.9-1.2,1.1-2,0.8c-0.8-0.3-1.1-1.2-0.8-2
			C610.8,810.7,610.9,810.5,611,810.2C611,810.2,611,810.2,611,810.2z"/>
		<path class="st17" d="M622.4,815.8c-0.3,0.2-0.6,0.3-0.9,0.5c-0.8,0.5-1.1,1.2-0.8,2.1c0.3,0.8,0.9,1.3,1.8,1.2
			c0.9,0,1.5-0.5,1.7-1.4c0.1-0.4,0.2-0.8,0.4-1.3c0.5,1.6-0.1,2.8-1.4,3.3c-1.2,0.4-2.7-0.3-3.1-1.6c-0.4-1.2,0.3-2.6,1.5-3.1
			C621.8,815.5,622.1,815.7,622.4,815.8C622.4,815.8,622.4,815.8,622.4,815.8z"/>
		<path class="st17" d="M621.4,816.9c0.2,1.7,0.8,2.1,2.5,1.8c-0.4,0.2-0.9,0.7-1.3,0.6c-0.5,0-1.1-0.4-1.3-0.8
			c-0.2-0.4-0.1-1.1-0.1-1.6C621.2,816.9,621.3,816.9,621.4,816.9z"/>
		<path class="st17" d="M634,824.1c0,0.2,0.2,0.4,0.1,0.5c-0.4,0.7-1.3,0.8-2,0.4c-0.8-0.5-0.9-1.2-0.5-2c0.3,0.4,0.6,0.9,0.9,1.3
			C633,824.2,633.5,824.2,634,824.1z"/>
		<path class="st17" d="M643,827.8c-1.2,0.5-1.7,1.2-1.4,2.2c0.2,0.9,0.8,1.4,1.7,1.4c1,0,1.6-0.5,1.9-1.7c0.1-0.3,0.1-0.5,0.2-0.8
			c0.1,0.1,0.4,0.1,0.4,0.3c0.3,1.2-0.7,2.7-2,2.9c-1.3,0.2-2.8-0.8-2.9-2.1c-0.2-1.5,0.8-2.6,2.3-2.7
			C643.1,827.4,643,827.6,643,827.8z"/>
		<path class="st17" d="M644.5,830.4c-0.6,0.8-1.3,0.9-2,0.4c-0.7-0.5-0.8-1.3-0.2-2.3C642.3,829.8,642.4,830.7,644.5,830.4z"/>
	</g>
	<circle class="st2" cx="795.8" cy="280.1" r="1.6"/>
	<path class="st20" d="M814.4,260.3c0,0-5.6,3-5.4,11.1"/>
	<path class="st20" d="M823.8,260c0,0-7.9-8.1-19.7-3.3"/>
	<path class="st20" d="M825,253.8c0,0-7.3-6.7-14.1-4.3"/>
	<ellipse class="st21" cx="859.6" cy="318.3" rx="9.3" ry="9.3"/>
	<ellipse class="st21" cx="728.1" cy="289.5" rx="13.2" ry="7.9"/>
	<path class="st22" d="M748.5,291.9c-1.5-3-3.8-10.3,7.1-11.5c10.9-1.1,9.5,6.5,16.2,12.4c5.9,5.1,14.5,16.7,54.2,8.8
		c5.4-1.1,16.8-5.6,21.8,2.7c5,8.2-4.7,12.6-30.3,13.8C791.9,319.2,757.7,310.4,748.5,291.9z"/>
	<path class="st9" d="M761.5,295.9c0,0-2.3,4.9,1.4,7c3.7,2.2,6.4-2.4,6.4-2.4L761.5,295.9z"/>
	<path class="st9" d="M770.5,301.1l8,3.2c0,0,0,5.5-6.1,5C766.3,308.6,767.4,301.5,770.5,301.1z"/>
	<path class="st9" d="M779.9,305l8.4,2.3c0,0,0.1,6.9-6.7,5.2C774.9,310.7,779.9,305,779.9,305z"/>
	<path class="st23" d="M845.6,248.5l1.6,6.5c0,0,32.1-4.6,39.4,24.1C886.6,279.1,891.4,244.4,845.6,248.5z"/>
	<path class="st23" d="M779.9,229.3l-4.6,5.7c0,0-25.6-21.1-47.9,3.5C727.4,238.5,737.4,205.9,779.9,229.3z"/>
	<path class="st24" d="M649.8,182c0,0-23.1,4.2-38.5,35.6c0,0,31.5-16.1,44.8-12.6c0,0-25.2,18.9-25.2,45.4c0,0,53.8-58.6,97.3-62.8
		"/>
	<path class="st24" d="M623.2,296.2c0,0-10.8,10.1-11.4,25.7l19.7-14.4c0,0-9.6,18-6,30.4"/>
	<ellipse class="st25" cx="802.9" cy="606.9" rx="5.2" ry="5.2"/>
	<polygon class="st9" points="790,307.6 788.1,321 796.7,322.5 799,309.6 	"/>
	<polygon class="st9" points="799.7,309 797.8,322.7 806.1,324.7 808.6,309.8 	"/>
	<path class="st9" d="M832.6,308.9c0,0,0,5.4-4.2,5.7c-4.3,0.3-4.7-4.9-4.7-4.9L832.6,308.9z"/>
	<path class="st9" d="M819.9,310l-8.6,0.1c0,0-2,5.2,3.9,6.8C821.1,318.6,822.6,311.5,819.9,310z"/>
	<path class="st26" d="M757.3,292.4c0,0,27.5,25.6,81.9,15"/>
	<path class="st2" d="M841.2,170.9c0,0,13.2-5.8,18.2,7.3c0,0,53.6-73.3,74.5-95.1c6.6-6.8-2.5-37.4-25.8-15.6
		c-20.6,19.4-61.5,95.1-61.5,95.1L841.2,170.9z"/>
	<path class="st11" d="M851.7,164.1c0,0,5.7-1.3,8.6,5.7c0,0,28.6-39.2,39.9-50.9c3.6-3.7-1.4-20-13.7-8.3
		c-11,10.3-32.9,50.9-32.9,50.9L851.7,164.1z"/>
	<g id="_x35_8JQqv.tif">
		<g>
			<path class="st15" d="M721.4,132.2c0.3,3.4,2.3,5.9,4.6,8.3c5,5.2,11.1,9,17.5,12.2c7.2,3.5,14.7,6.6,22.1,9.8
				c0.7,0.3,1.4,0.6,1.9,1.1c9.2,8.1,18.8,15.5,28.9,22.5c3.2,2.2,6.8,3.7,10.7,4.8c7.6,1.9,15.4,2.5,23.3,2.5
				c10.6,0,21.1-0.3,31.7-0.6c4.2-0.1,8.3-0.7,12.2-2.3c1.2-0.5,2.3-1.2,3.2-2c1.5-1.4,1.6-3.3,0.2-5.4c-3.3-4.8-6.7-9.5-10-14.3
				c-1.2-1.7-2.4-3.3-3.3-5.1c-0.5-0.9-0.7-2.2-0.6-3.2c0.4-3.8,0.9-7.5,1.4-11.3c0.6-4.9,1.5-9.7,1.8-14.6
				c0.9-12.2-0.7-24.1-5.7-35.4c-6.3-14.5-16.7-25.2-31-32c-5.5-2.6-10.9-5.3-16.9-6.7c-9.3-2.2-18.6-1.9-27.7,0.7
				c-12.1,3.5-23,9.3-31.8,18.5c-6.2,6.5-11.3,13.8-15.1,21.9c-2.3,5.1-4.1,10.4-6.1,15.6c-0.7,1.7-1,3.6-1.8,5.2
				c-1.2,2.6-3.6,4.1-6.1,5.4c-0.5,0.2-1,0.4-1.4,0.6C721.3,129.4,721.1,129.7,721.4,132.2z M827.2,81.2c4.2,7.6,6.6,15.8,7.9,24.3
				c2.9,18.8,2,37.3-3.2,55.6c-0.2,0.8-0.2,1.8-0.3,2.8c-0.2,0-0.7,0-1.1,0c-9.1-0.7-18-2.1-26.8-4c-10.6-2.3-21.1-5.4-31.3-9.2
				c-8.5-3.2-16.8-6.7-24.6-11.4c-4.8-2.8-9.4-6-12.9-10.3c-1.8-2.2-3.1-4.7-2.2-7.7c0.4-1.4,0.9-2.9,1.4-4.3
				c1.5-4.1,2.9-8.3,4.6-12.4c3-6.8,6.9-13,11.5-18.8c6.2-7.9,13.9-14,22.9-18.4c3.6-1.8,7.2-3,11.3-3.3c3.8-0.3,7.4-1.4,11.2-1.7
				c5.5-0.5,10.9,0.6,15.9,3C818.6,68.8,823.5,74.5,827.2,81.2z M821.8,68.5c6.6,4.9,11,11.5,14.3,19c3.9,8.9,6.1,18.2,7.2,27.8
				c1.7,15.2,1.1,30.3-2.2,45.2c-0.6,2.8-1,5.7-1.5,8.5c0,0,0,0,0,0c0,0,0,0,0,0c0,0,0,0,0,0c-1-1.2-1.9-2.5-3.1-3.6
				c-1.9-1.8-2.2-3.5-1.5-6.1c3.4-12.4,4.5-25,4.1-37.8c-0.4-12.6-2.3-24.8-7.4-36.5c-3.3-7.4-7.7-14-14.4-18.8
				c-0.1-0.1-0.2-0.2-0.3-0.3C818.8,66.5,820.4,67.4,821.8,68.5z M865.2,138.4c-0.9-12.9-3.8-25.3-8.9-37.2
				c-5.2-11.9-12.3-22.4-22.4-30.7C860.1,85.3,868.4,113.8,865.2,138.4z M860.7,170.9c-6,0.4-11.8,0.7-18,1.1
				c-0.1-2.4-0.6-4.9-0.1-7c2.3-9.2,3.5-18.5,3.9-28c0.5-13.5-0.5-26.7-4.2-39.8c-2.1-7.4-5-14.4-9.5-20.7c-2.1-2.9-4.5-5.5-6.7-8.1
				c0,0,0,0,0,0c0,0,0.2,0.1,0.3,0.2c8.8,5.5,15.6,12.8,21.1,21.6c7.6,12.2,12.1,25.5,14.1,39.7c1.5,10.8,1.5,21.7-0.9,32.4
				c-0.4,1.8-0.3,3.6-0.3,5.5C860.5,168.7,860.6,169.7,860.7,170.9z M863.2,170.1c-0.1-1.1-0.2-2.2-0.3-3.5
				C864.7,168.7,864.8,169.1,863.2,170.1z M773.4,165.6c0.1-0.1,0.1-0.2,0.2-0.3c3.5,1.1,7,2.2,10.5,3.2c13.6,3.9,27.4,6.8,41.6,8.3
				c8.3,0.9,16.5,1.4,24.8,0.4c5.8-0.7,11.6-1.6,16-6.4c3.1,4.6,6.2,9.1,9.3,13.6c0.9,1.3,0.7,2.3-0.7,2.9c-1.8,0.8-3.7,1.6-5.6,1.9
				c-6.9,1.4-14,1.6-21.1,1.6c-12.2,0-24.4,0.6-36.4-1.6c-4.3-0.8-8.6-1.8-12.3-4.3c-3.5-2.3-7-4.7-10.3-7.2
				C783.8,173.9,778.6,169.7,773.4,165.6z M724.5,130.7c2.4-1.5,4.8-2.9,7.1-4.3c0.7,1,1.4,2.4,2.4,3.5c1,1.2,2,2.4,3.2,3.4
				c5.5,5,11.9,8.5,18.5,11.8c8.9,4.3,18.2,7.8,27.7,10.8c16.1,5,32.4,8.4,49.2,9.6c0.5,0,1.2,0.4,1.5,0.8c2.1,2.4,4.2,4.9,6.2,7.4
				c0.6,0.8,1.3,1,2.2,0.9c2.7-0.2,5.5-0.4,8.2-0.6c1.4-0.1,2.8-0.1,4.2-0.2c0,0.1,0,0.2,0,0.3c-0.4,0.1-0.8,0.2-1.2,0.3
				c-3.9,0.3-7.8,0.9-11.7,1c-15.1,0.2-29.9-2.3-44.6-5.8c-10.8-2.5-21.4-5.7-31.7-9.6c-7.9-3-15.7-6.3-23.1-10.5
				c-5.3-3-10.5-6.2-14.8-10.6c-1.8-1.9-3.5-3.9-3.9-6.6C723.8,131.7,724.1,130.9,724.5,130.7z"/>
			<path class="st1" d="M862.9,166.6c0.1,1.3,0.2,2.4,0.3,3.5C864.8,169.1,864.7,168.7,862.9,166.6z"/>
			<path class="st1" d="M773.4,165.6c5.3,4.1,10.5,8.2,15.8,12.2c3.4,2.5,6.8,4.9,10.3,7.2c3.7,2.4,8,3.5,12.3,4.3
				c12.1,2.1,24.3,1.6,36.4,1.6c7.1,0,14.1-0.2,21.1-1.6c1.9-0.4,3.8-1.1,5.6-1.9c1.4-0.7,1.6-1.6,0.7-2.9c-3-4.5-6.1-9-9.3-13.6
				c-4.4,4.8-10.2,5.8-16,6.4c-8.3,0.9-16.5,0.5-24.8-0.4c-14.1-1.5-27.9-4.5-41.6-8.3c-3.5-1-7-2.2-10.5-3.2
				C773.5,165.4,773.4,165.5,773.4,165.6z"/>
			<path class="st1" d="M723.9,132.1c0.4,2.7,2.1,4.7,3.9,6.6c4.3,4.4,9.5,7.7,14.8,10.6c7.4,4.1,15.2,7.4,23.1,10.5
				c10.4,3.9,21,7,31.7,9.6c14.7,3.5,29.5,6,44.6,5.8c3.9,0,7.8-0.6,11.7-1c0.4,0,0.8-0.2,1.2-0.3c0-0.1,0-0.2,0-0.3
				c-1.4,0.1-2.8,0.1-4.2,0.2c-2.7,0.2-5.5,0.3-8.2,0.6c-0.9,0.1-1.6-0.2-2.2-0.9c-2-2.5-4.1-5-6.2-7.4c-0.3-0.4-1-0.7-1.5-0.8
				c-16.8-1.2-33.2-4.6-49.2-9.6c-9.5-3-18.8-6.4-27.7-10.8c-6.6-3.2-13-6.8-18.5-11.8c-1.2-1-2.2-2.2-3.2-3.4
				c-0.9-1.2-1.7-2.5-2.4-3.5c-2.3,1.4-4.8,2.8-7.1,4.3C724.1,130.9,723.8,131.7,723.9,132.1z"/>
			<path class="st1" d="M833.8,70.5c10.1,8.3,17.2,18.8,22.4,30.7c5.2,11.9,8,24.3,8.9,37.2C868.4,113.8,860.1,85.3,833.8,70.5z"/>
			<path class="st1" d="M826.2,68.4C826.2,68.4,826.2,68.4,826.2,68.4c2.1,2.6,4.6,5.2,6.7,8.1c4.5,6.2,7.4,13.3,9.5,20.7
				c3.7,13,4.8,26.3,4.2,39.8c-0.4,9.5-1.6,18.8-3.9,28c-0.5,2.2,0,4.6,0.1,7c6.1-0.4,12-0.7,18-1.1c-0.1-1.1-0.3-2.2-0.3-3.2
				c0-1.8-0.1-3.7,0.3-5.5c2.4-10.8,2.4-21.6,0.9-32.4c-2-14.2-6.5-27.5-14.1-39.7c-5.4-8.7-12.3-16.1-21.1-21.6
				C826.4,68.4,826.2,68.4,826.2,68.4z"/>
			<path class="st1" d="M817.2,65.7c0.1,0.1,0.1,0.3,0.3,0.3c6.7,4.8,11.1,11.4,14.4,18.8c5.1,11.6,7,23.9,7.4,36.5
				c0.4,12.8-0.7,25.4-4.1,37.8c-0.7,2.6-0.4,4.3,1.5,6.1c1.2,1.1,2.1,2.4,3.1,3.6c0.5-2.8,0.9-5.6,1.5-8.5c3.2-15,3.9-30,2.2-45.2
				c-1.1-9.6-3.2-18.9-7.2-27.8c-3.3-7.4-7.7-14-14.3-19C820.4,67.4,818.8,66.5,817.2,65.7z"/>
			<path class="st1" d="M732.8,121.3c-0.9,3,0.4,5.5,2.2,7.7c3.5,4.4,8.1,7.5,12.9,10.3c7.8,4.6,16.1,8.2,24.6,11.4
				c10.2,3.8,20.6,6.9,31.3,9.2c8.8,1.9,17.8,3.3,26.8,4c0.5,0,0.9,0,1.1,0c0.1-1,0-2,0.3-2.8c5.1-18.3,6.1-36.9,3.2-55.6
				c-1.3-8.5-3.7-16.7-7.9-24.3c-3.7-6.8-8.7-12.4-15.8-15.9c-5-2.4-10.4-3.5-15.9-3c-3.8,0.3-7.4,1.4-11.2,1.7
				c-4,0.3-7.7,1.5-11.3,3.3c-9,4.4-16.6,10.5-22.9,18.4c-4.6,5.8-8.5,12.1-11.5,18.8c-1.8,4-3.1,8.2-4.6,12.4
				C733.6,118.4,733.2,119.9,732.8,121.3z"/>
		</g>
	</g>
	<path class="st2" d="M740,159.9c0,0,7.7-3.4,18.9,5.3c0,0,7.7-90.4,14.4-119.9c2.1-9.3-21.6-30.8-30.1,0
		c-7.5,27.3-3.2,113.1-3.2,113.1L740,159.9z"/>
	<path class="st11" d="M744.2,155.2c0,0,4.3-1.9,10.6,2.9c0,0,4.3-50.4,8-66.9c1.1-5.2-12-17.2-16.8,0c-4.2,15.3-1.8,63.1-1.8,63.1
		V155.2z"/>
	<g id="K9069P_1_">
		<g>
			<path class="st0" d="M848.9,400.5c5.9-10,11.8-19.9,17.6-29.9c2.7-4.8,6.6-7.2,12.1-6.9c0.9,0.1,1.3-0.3,1.7-1
				c3.2-5.4,6.3-10.8,9.5-16.1c0.4-0.7,0.3-1.4,0.3-2.1c-0.6-5.6,0.2-10.6,5-14.6c3.6-3,6.5-6.8,9.6-10.3c0.8-0.9,1.4-1,2.4-0.4
				c1.8,1.2,3.7,2.3,5.6,3.3c1,0.5,1.3,1,0.9,2.2c-2.2,6.5-4.4,13-6.5,19.6c-0.3,0.9-0.9,1.4-1.6,1.6c-6.1,2.3-9.8,6.8-12.5,12.5
				c-1.4,2.9-3.2,5.5-4.8,8.3c-0.6,1-0.8,1.8-0.1,2.9c2.5,4.2,2.4,8.5,0,12.6c-11.9,20.4-24,40.7-36,61c-3.1,5.3-9.2,7.6-14.6,5.9
				c-5.5-1.8-9-7.1-8.5-12.8c0.2-2.2,1.1-4,2.2-5.8C837.1,420.5,843,410.5,848.9,400.5z"/>
			<path class="st0" d="M853.9,402.3c5.7-9.6,11.4-19.3,17.1-28.9c0.8-1.4,1.6-3.2,3.7-2.4c1.4,0.5,1.4,2.4,0,4.6
				c-11.4,19.4-22.9,38.8-34.3,58.2c-0.8,1.4-1.9,3.3-3.9,2.2c-1.9-1.1-0.8-2.9,0.1-4.4C842.4,421.8,848.2,412.1,853.9,402.3z"/>
			<path class="st0" d="M866,409.7c-5.7,9.7-11.4,19.4-17.2,29.1c-0.9,1.5-1.9,3.3-3.8,2.2c-1.9-1.1-0.8-3,0-4.4
				c11.4-19.4,22.9-38.8,34.3-58.2c0.2-0.3,0.3-0.7,0.6-0.9c0.9-1,1.9-2.3,3.5-1.3c1.5,1,0.9,2.4,0.1,3.7
				C877.7,389.8,871.8,399.7,866,409.7z"/>
		</g>
	</g>
	<path class="st3" d="M611.8,344.4c0,0,56.9,52.5,74.8,55.5c17.9,3.1,176.6-9.9,176.6-9.9s16,6.8,12,19.9
		c-3.9,13.1-16.5-2.1-16.5-2.1s4.4,30.3-16,21c0,0-2.9,33.9-25.4,3.1l-138,33.5c0,0-125.1,24-159.9-34s-5.6-81.7,15.2-92.9
		C551.6,329.3,584.5,318.7,611.8,344.4z"/>
	<g id="mhKcRL.tif">
		<g>
			<path class="st10" d="M1279.9,778.6c5.9,1.6,10.5,5,13.5,10.3c8.2,14,16.2,28.1,24.3,42.2c2.1,3.7,0.8,7.1-3.2,9.6
				c-3.9,2.4-8.1,3.5-12.6,4.3c-0.7,0.1-1.5-0.2-2,0.5c-57.1,0-114.1,0-171.2,0c-4.2-0.4-8.4-1.2-12.1-3.2c-2.5-1.4-4.6-3.1-5.7-5.9
				c0-1.3,0-2.6,0-3.8c9.9-14.5,19.9-29,29.7-43.7c3.6-5.3,8.3-8.7,14.4-10.3c0.5-0.1,0.9-0.1,1.4-0.2c0.8,1.2,0.2,2.5,0,3.7
				c-1.1,6-2.8,11.8-3.7,17.8c-0.5,3.4,0.7,5.9,3.2,8c5.5,4.4,12,6.3,18.6,8c11.3,2.9,22.8,4,34.5,4.6c15,0.8,29.8-0.2,44.5-2.7
				c8-1.3,15.9-3.3,23.1-7.2c1.3-0.7,2.5-1.4,3.6-2.3c3.3-2.6,4.5-5.5,3.2-9.9c-1.7-5.7-2.7-11.7-3.9-17.5
				C1279.4,780.1,1279.1,779.3,1279.9,778.6z"/>
			<path class="st27" d="M1283,806.4c-2.8,3.4-6.6,5.2-10.6,6.8c-8.4,3.4-17.1,5.1-26,6.3c-14.2,2-28.6,2.4-42.9,1.4
				c-13.4-0.9-26.7-2.7-39.4-7.6c-1.9-0.8-3.8-1.7-5.6-2.8c-6.6-3.9-7.7-6.6-6.1-14c1.3-6.1,2.6-12.1,3.9-18.2
				c5-23.1,10.1-46.2,15.1-69.3c0.2-0.7,0.3-1.4,0.5-2.1c0.7-0.6,1.4-0.2,2,0c3.3,1.3,6.5,2.8,10,3.8c0.6,0.2,1.1,0.6,1.4,1.2
				c0,0,5.4,1.9,12.8,2.8c0,0,0.1-0.1,0.1-0.1c2.1-0.8,4.1,0,6.2,0.2c15.3,1.3,30.3,0.3,45.1-3.9c4.1-1.2,8.1-2.5,12.1-3.9
				c0.9-0.3,1.7-1,2.7-0.2c5,23.4,10.1,46.7,15.1,70c0.1,0.5,0.3,1.1,0.5,1.6c1.4,7.2,2.8,14.4,4.7,21.4
				C1285.2,802.5,1284.6,804.6,1283,806.4z"/>
			<path class="st27" d="M1246.9,626.7c-10.9,3.2-22.1,4.1-33.4,3.5c-0.9,0-1.7,0-2.6,0c-0.5,0-1,0-1.5,0c0,0,0,0-0.1,0
				c-0.3,0-0.6-0.1-1-0.1c-3.4-0.4-9-1.4-10.6-1.7c0,0.1-0.1,0.1-0.2,0.1c-3,0.4-5.8,0.1-8.3-1.9c4-18.2,8-36.5,11.9-54.7
				c0.3-1.5,0.6-3,1-4.4c0.9-4,2.4-5.7,6.5-6.2c6.4-0.9,12.8-1,19.1,0.2c3.5,0.6,5.5,2.6,6.2,6c4.1,19.2,8.3,38.3,12.4,57.5
				C1246.7,625.6,1246.8,626.1,1246.9,626.7z"/>
			<path class="st28" d="M1209.4,630.2c-0.4,0.2-0.7,0.2-1-0.1C1208.8,630.2,1209.2,630.2,1209.4,630.2z"/>
			<path class="st10" d="M1218.3,565.9c-2.8,0.1-5.6-0.3-8.3-1c-0.4-0.1-1-0.3-0.9-0.9c0.1-0.5,0.6-0.5,0.9-0.6
				c5.6-1.2,11.2-1.2,16.8,0c0.4,0.1,0.9,0.1,0.9,0.6c0,0.6-0.5,0.7-1,0.9C1224,565.7,1221.2,566,1218.3,565.9z"/>
			<path class="st27" d="M1211,630.2c-0.1,0.1-0.3,0.1-0.4,0.1c-0.3,0-0.7,0-1.1-0.1c0,0,0,0,0.1,0
				C1210,630.2,1210.5,630.2,1211,630.2z"/>
			<path class="st19" d="M1201.4,715.2c14,1.9,27.9,1.1,41.7-1.8c7.3-1.5,14.3-4,21.2-6.4c-0.1-0.6-0.1-1.3-0.2-1.9
				c-1.2-5.3-2.5-10.6-3.6-16c-1.6-7.3-3-14.7-4.6-22.1c-1.4-6.7-3.1-13.2-4.4-19.9c-1.3-6.8-2.8-13.6-4.5-20.4
				c-0.9-0.6-1.9-0.2-2.8,0c-1.8,0.4-3.6,0.9-5.4,1.3c-8.2,1.7-15.5,2.2-23.9,2.1c-1.5,0-3.6,0.1-5.4-0.1
				c-7.3-0.9-16.1-2.3-16.1-2.3l-0.4-0.1c-1.2-0.3-2.4-0.6-3.5-0.9c-0.7,2.8-1.4,5.5-2,8.3c-1.2,5.7-2.2,11.4-3.4,17.1
				c-1.1,5.2-2.6,10.4-3.7,15.6c-1.8,8-3.6,16.1-5.2,24.2c-1,5-2.6,10-3,15.1c4.3,1.6,8.7,3.2,13,4.8c0.1-0.1,0.6,0.5,0.7,0.4
				c2.7,1-2.3-0.8,3.7,1.4c0.1,0,2,0.4,2.8,0.5L1201.4,715.2z"/>
		</g>
	</g>
	<g id="mhKcRL.tif_1_">
		<g>
			<path class="st10" d="M263.2,778.6c5.9,1.6,10.5,5,13.5,10.3c8.2,14,16.2,28.1,24.3,42.2c2.1,3.7,0.8,7.1-3.2,9.6
				c-3.9,2.4-8.1,3.5-12.6,4.3c-0.7,0.1-1.5-0.2-2,0.5c-57.1,0-114.1,0-171.2,0c-4.2-0.4-8.4-1.2-12.1-3.2c-2.5-1.4-4.6-3.1-5.7-5.9
				c0-1.3,0-2.6,0-3.8c9.9-14.5,19.9-29,29.7-43.7c3.6-5.3,8.3-8.7,14.4-10.3c0.5-0.1,0.9-0.1,1.4-0.2c0.8,1.2,0.2,2.5,0,3.7
				c-1.1,6-2.8,11.8-3.7,17.8c-0.5,3.4,0.7,5.9,3.2,8c5.5,4.4,12,6.3,18.6,8c11.3,2.9,22.8,4,34.5,4.6c15,0.8,29.8-0.2,44.5-2.7
				c8-1.3,15.9-3.3,23.1-7.2c1.3-0.7,2.5-1.4,3.6-2.3c3.3-2.6,4.5-5.5,3.2-9.9c-1.7-5.7-2.7-11.7-3.9-17.5
				C262.8,780.1,262.5,779.3,263.2,778.6z"/>
			<path class="st27" d="M266.4,806.4c-2.8,3.4-6.6,5.2-10.6,6.8c-8.4,3.4-17.1,5.1-26,6.3c-14.2,2-28.6,2.4-42.9,1.4
				c-13.4-0.9-26.7-2.7-39.4-7.6c-1.9-0.8-3.8-1.7-5.6-2.8c-6.6-3.9-7.7-6.6-6.1-14c1.3-6.1,2.6-12.1,3.9-18.2
				c5-23.1,10.1-46.2,15.1-69.3c0.2-0.7,0.3-1.4,0.5-2.1c0.7-0.6,1.4-0.2,2,0c3.3,1.3,6.5,2.8,10,3.8c0.6,0.2,1.1,0.6,1.4,1.2
				c0,0,5.4,1.9,12.8,2.8c0,0,0.1-0.1,0.1-0.1c2.1-0.8,4.1,0,6.2,0.2c15.3,1.3,30.3,0.3,45.1-3.9c4.1-1.2,8.1-2.5,12.1-3.9
				c0.9-0.3,1.7-1,2.7-0.2c5,23.4,10.1,46.7,15.1,70c0.1,0.5,0.3,1.1,0.5,1.6c1.4,7.2,2.8,14.4,4.7,21.4
				C268.6,802.5,268,804.6,266.4,806.4z"/>
			<path class="st27" d="M230.3,626.7c-10.9,3.2-22.1,4.1-33.4,3.5c-0.9,0-1.7,0-2.6,0c-0.5,0-1,0-1.5,0c0,0,0,0-0.1,0
				c-0.3,0-0.6-0.1-1-0.1c-3.4-0.4-9-1.4-10.6-1.7c0,0.1-0.1,0.1-0.2,0.1c-3,0.4-5.8,0.1-8.3-1.9c4-18.2,8-36.5,11.9-54.7
				c0.3-1.5,0.6-3,1-4.4c0.9-4,2.4-5.7,6.5-6.2c6.4-0.9,12.8-1,19.1,0.2c3.5,0.6,5.5,2.6,6.2,6c4.1,19.2,8.3,38.3,12.4,57.5
				C230,625.6,230.2,626.1,230.3,626.7z"/>
			<path class="st28" d="M192.8,630.2c-0.4,0.2-0.7,0.2-1-0.1C192.2,630.2,192.5,630.2,192.8,630.2z"/>
			<path class="st10" d="M201.7,565.9c-2.8,0.1-5.6-0.3-8.3-1c-0.4-0.1-1-0.3-0.9-0.9c0.1-0.5,0.6-0.5,0.9-0.6
				c5.6-1.2,11.2-1.2,16.8,0c0.4,0.1,0.9,0.1,0.9,0.6c0,0.6-0.5,0.7-1,0.9C207.4,565.7,204.5,566,201.7,565.9z"/>
			<path class="st27" d="M194.3,630.2c-0.1,0.1-0.3,0.1-0.4,0.1c-0.3,0-0.7,0-1.1-0.1c0,0,0,0,0.1,0
				C193.4,630.2,193.9,630.2,194.3,630.2z"/>
			<path class="st19" d="M184.8,715.2c14,1.9,27.9,1.1,41.7-1.8c7.3-1.5,14.3-4,21.2-6.4c-0.1-0.6-0.1-1.3-0.2-1.9
				c-1.2-5.3-2.5-10.6-3.6-16c-1.6-7.3-3-14.7-4.6-22.1c-1.4-6.7-3.1-13.2-4.4-19.9c-1.3-6.8-2.8-13.6-4.5-20.4
				c-0.9-0.6-1.9-0.2-2.8,0c-1.8,0.4-3.6,0.9-5.4,1.3c-8.2,1.7-15.5,2.2-23.9,2.1c-1.5,0-3.6,0.1-5.4-0.1
				c-7.3-0.9-16.1-2.3-16.1-2.3l-0.4-0.1c-1.2-0.3-2.4-0.6-3.5-0.9c-0.7,2.8-1.4,5.5-2,8.3c-1.2,5.7-2.2,11.4-3.4,17.1
				c-1.1,5.2-2.6,10.4-3.7,15.6c-1.8,8-3.6,16.1-5.2,24.2c-1,5-2.6,10-3,15.1c4.3,1.6,8.7,3.2,13,4.8c0.1-0.1,0.6,0.5,0.7,0.4
				c2.7,1-2.3-0.8,3.7,1.4c0.1,0,2,0.4,2.8,0.5L184.8,715.2z"/>
		</g>
	</g>
</g>
</svg>
