<?xml version="1.0" encoding="utf-8"?>
<!-- Generator: Adobe Illustrator 19.1.0, SVG Export Plug-In . SVG Version: 6.00 Build 0)  -->
<svg version="1.1" id="Layer_1" xmlns="http://www.w3.org/2000/svg" xmlns:xlink="http://www.w3.org/1999/xlink" x="0px" y="0px"
	 viewBox="-500 287.8 222.5 218.2" style="enable-background:new -500 287.8 222.5 218.2;" xml:space="preserve">
<style type="text/css">
	.st0{fill:#E9E3C4;}
	.st1{clip-path:url(#SVGID_2_);fill:#FCFCFC;}
	.st2{clip-path:url(#SVGID_4_);fill:#FCFCFC;}
	.st3{clip-path:url(#SVGID_6_);fill:#FCFCFC;}
	.st4{clip-path:url(#SVGID_8_);fill:#FFFFFF;}
	.st5{clip-path:url(#SVGID_10_);fill:#FFFFFF;}
	.st6{clip-path:url(#SVGID_12_);fill:#FCFCFC;}
	.st7{clip-path:url(#SVGID_14_);fill:#FFFFFF;}
	.st8{clip-path:url(#SVGID_16_);fill:#A6DCE8;}
	.st9{clip-path:url(#SVGID_18_);fill:#7CB7C1;}
	.st10{clip-path:url(#SVGID_20_);fill:#6BA2A7;}
	.st11{clip-path:url(#SVGID_22_);fill:#A6DCE8;}
	.st12{clip-path:url(#SVGID_24_);fill:#6BA2A7;}
	.st13{clip-path:url(#SVGID_26_);fill:#7CB7C1;}
	.st14{clip-path:url(#SVGID_28_);fill:#6BA2A7;}
	.st15{clip-path:url(#SVGID_30_);fill:#7CB7C1;}
	.st16{clip-path:url(#SVGID_32_);fill:#6BA2A7;}
	.st17{clip-path:url(#SVGID_34_);fill:#7CB7C1;}
	.st18{clip-path:url(#SVGID_40_);fill:#7CB7C1;}
	.st19{clip-path:url(#SVGID_42_);fill:#A6DCE8;}
	.st20{clip-path:url(#SVGID_44_);fill:#7CB7C1;}
	.st21{clip-path:url(#SVGID_46_);fill:#7CB7C1;}
	.st22{clip-path:url(#SVGID_48_);fill:#7CB7C1;}
	.st23{clip-path:url(#SVGID_50_);fill:#7CB7C1;}
	.st24{clip-path:url(#SVGID_52_);fill:#6BA2A7;}
	.st25{clip-path:url(#SVGID_54_);fill:#6BA2A7;}
	.st26{clip-path:url(#SVGID_56_);fill:#7CB7C1;}
	.st27{clip-path:url(#SVGID_58_);fill:#A6DCE8;}
	.st28{clip-path:url(#SVGID_60_);fill:#7CB7C1;}
	.st29{clip-path:url(#SVGID_62_);fill:#6BA2A7;}
	.st30{clip-path:url(#SVGID_64_);fill:#7CB7C1;}
	.st31{clip-path:url(#SVGID_66_);fill:#7CB7C1;}
	.st32{clip-path:url(#SVGID_68_);fill:#7CB7C1;}
	.st33{clip-path:url(#SVGID_70_);fill:#7CB7C1;}
	.st34{clip-path:url(#SVGID_72_);fill:#6BA2A7;}
	.st35{clip-path:url(#SVGID_74_);fill:#6BA2A7;}
	.st36{clip-path:url(#SVGID_76_);fill:#7CB7C1;}
	.st37{clip-path:url(#SVGID_78_);fill:#6BA2A7;}
	.st38{clip-path:url(#SVGID_80_);fill:#6BA2A7;}
	.st39{clip-path:url(#SVGID_82_);fill:#6BA2A7;}
	.st40{clip-path:url(#SVGID_84_);fill:#6BA2A7;}
	.st41{clip-path:url(#SVGID_86_);fill:#A6DCE8;}
	.st42{clip-path:url(#SVGID_88_);fill:#7CB7C1;}
	.st43{clip-path:url(#SVGID_90_);fill:#7CB7C1;}
	.st44{clip-path:url(#SVGID_92_);fill:#7CB7C1;}
	.st45{clip-path:url(#SVGID_94_);fill:#7CB7C1;}
	.st46{clip-path:url(#SVGID_96_);fill:#6BA2A7;}
	.st47{clip-path:url(#SVGID_98_);fill:#7CB7C1;}
	.st48{clip-path:url(#SVGID_100_);fill:#A6DCE8;}
	.st49{clip-path:url(#SVGID_102_);fill:#6BA2A7;}
	.st50{clip-path:url(#SVGID_104_);fill:#7CB7C1;}
	.st51{clip-path:url(#SVGID_106_);fill:#7CB7C1;}
	.st52{clip-path:url(#SVGID_108_);fill:#6BA2A7;}
	.st53{clip-path:url(#SVGID_110_);fill:#6BA2A7;}
	.st54{clip-path:url(#SVGID_112_);fill:#A6DCE8;}
	.st55{clip-path:url(#SVGID_114_);fill:#A6DCE8;}
	.st56{clip-path:url(#SVGID_116_);fill:#7CB7C1;stroke:#7CB7C1;stroke-miterlimit:10;}
	.st57{clip-path:url(#SVGID_118_);fill:#6BA2A7;}
	.st58{clip-path:url(#SVGID_120_);fill:#6BA2A7;}
	.st59{clip-path:url(#SVGID_122_);fill:#6BA2A7;}
	.st60{clip-path:url(#SVGID_124_);fill:#6BA2A7;}
	.st61{clip-path:url(#SVGID_126_);fill:#7CB7C1;}
	.st62{clip-path:url(#SVGID_128_);fill:#6BA2A7;}
	.st63{clip-path:url(#SVGID_130_);fill:#A6DCE8;}
	.st64{clip-path:url(#SVGID_132_);fill:#6BA2A7;}
	.st65{clip-path:url(#SVGID_134_);fill:#7CB7C1;stroke:#7CB7C1;stroke-miterlimit:10;}
	.st66{clip-path:url(#SVGID_136_);fill:#7CB7C1;stroke:#7CB7C1;stroke-miterlimit:10;}
</style>
<rect x="-498.8" y="287" class="st0" width="221.1" height="219"/>
<g>
	<g>
		<defs>
			<polygon id="SVGID_1_" points="-500.2,287 -277.7,287 -286.7,505.2 -509.2,505.2 			"/>
		</defs>
		<clipPath id="SVGID_2_">
			<use xlink:href="#SVGID_1_"  style="overflow:visible;"/>
		</clipPath>
		<path class="st1" d="M-428.2,442.2c0,0,0,4.2,3.3,4.5s3.7-3.9,3.7-3.9L-428.2,442.2z"/>
	</g>
	<g>
		<defs>
			<polygon id="SVGID_3_" points="-500.2,287 -277.7,287 -286.7,505.2 -509.2,505.2 			"/>
		</defs>
		<clipPath id="SVGID_4_">
			<use xlink:href="#SVGID_3_"  style="overflow:visible;"/>
		</clipPath>
		<path class="st2" d="M-416.3,444.9l6.5,0.7c0,0,1.1,4.1-3.5,4.9C-417.8,451.3-418.4,445.8-416.3,444.9z"/>
	</g>
	<g>
		<defs>
			<polygon id="SVGID_5_" points="-500.2,287 -277.7,287 -286.7,505.2 -509.2,505.2 			"/>
		</defs>
		<clipPath id="SVGID_6_">
			<use xlink:href="#SVGID_5_"  style="overflow:visible;"/>
		</clipPath>
		<path class="st3" d="M-406,445.2l6.1,0.9c0,0,0.7,4.9-4.2,4.2C-408.9,449.6-406,445.2-406,445.2z"/>
	</g>
	<g>
		<defs>
			<polygon id="SVGID_7_" points="-500.2,287 -277.7,287 -286.7,505.2 -509.2,505.2 			"/>
		</defs>
		<clipPath id="SVGID_8_">
			<use xlink:href="#SVGID_7_"  style="overflow:visible;"/>
		</clipPath>
		<polygon class="st4" points="-398.3,444.7 -397.5,452.7 -390.4,452.8 -390.6,444.1 		"/>
	</g>
	<g>
		<defs>
			<polygon id="SVGID_9_" points="-500.2,287 -277.7,287 -286.7,505.2 -509.2,505.2 			"/>
		</defs>
		<clipPath id="SVGID_10_">
			<use xlink:href="#SVGID_9_"  style="overflow:visible;"/>
		</clipPath>
		<polygon class="st5" points="-389.9,444.1 -388.9,453 -381.8,453.3 -382.2,444.9 		"/>
	</g>
	<g>
		<defs>
			<polygon id="SVGID_11_" points="-500.2,287 -277.7,287 -286.7,505.2 -509.2,505.2 			"/>
		</defs>
		<clipPath id="SVGID_12_">
			<use xlink:href="#SVGID_11_"  style="overflow:visible;"/>
		</clipPath>
		<path class="st6" d="M-363.1,441.7c0,0,0.7,5.4-3.5,6.4c-4.2,0.9-5.4-4.3-5.4-4.3L-363.1,441.7z"/>
	</g>
	<g>
		<defs>
			<polygon id="SVGID_13_" points="-500.2,287 -277.7,287 -286.7,505.2 -509.2,505.2 			"/>
		</defs>
		<clipPath id="SVGID_14_">
			<use xlink:href="#SVGID_13_"  style="overflow:visible;"/>
		</clipPath>
		<path class="st7" d="M-373.6,444.2l-6.7,0.5c0,0-1.1,3.9,3.6,4.7C-371.9,450.3-371.4,445.2-373.6,444.2z"/>
	</g>
	<g>
		<defs>
			<polygon id="SVGID_15_" points="-500.2,287 -277.7,287 -286.7,505.2 -509.2,505.2 			"/>
		</defs>
		<clipPath id="SVGID_16_">
			<use xlink:href="#SVGID_15_"  style="overflow:visible;"/>
		</clipPath>
		<path class="st8" d="M-506.4,526.4c0,0-7.3-6.3-3.5-10.2c3.8-3.9,7.3-3.5,11-1.2c3.7,2.4,8.8,0.2,8.8,0.2s5.5,0,3.9,7.3
			s-5.3,8.6-5.3,8.6s1.3,24.4-2,42.8l-0.4,18.3c0,0-0.6,5.3-5.5,5.3s-19.2,3.9-17.9-7.7c1.4-11.6,9.4-5.1,9.4-5.1
			S-504.2,539.4-506.4,526.4z"/>
	</g>
	<g>
		<defs>
			<polygon id="SVGID_17_" points="-500.2,287 -277.7,287 -286.7,505.2 -509.2,505.2 			"/>
		</defs>
		<clipPath id="SVGID_18_">
			<use xlink:href="#SVGID_17_"  style="overflow:visible;"/>
		</clipPath>
		<path class="st9" d="M-508.6,600c0,0-3.8,1.4-1.4,9.5c2.4,8.1,9.2,27.2,8.8,39.3c-0.3,12.2,0.9,11.7,3.9,11.5s5.5-6.2,4.4-10.1
			c-1.1-3.9-5.7-23.2-5.7-23.2s-2.7-9.8-0.3-15c2.4-5.2,2.1-14.5,2.1-14.5S-496.1,593.8-508.6,600z"/>
	</g>
	<g>
		<defs>
			<polygon id="SVGID_19_" points="-500.2,287 -277.7,287 -286.7,505.2 -509.2,505.2 			"/>
		</defs>
		<clipPath id="SVGID_20_">
			<use xlink:href="#SVGID_19_"  style="overflow:visible;"/>
		</clipPath>
		<path class="st10" d="M-516,596.1c0,0-8.1,4.4-1.9,10.4c6.2,6,3.6,20.8,3.6,20.8s-0.5,12.8,2.4,24.6c0,0,0.2,4.1-1.1,7.9
			c-1.3,3.8,9.5,4.3,10.4-0.2c0.9-4.4-3-12.9-3-12.9s-0.8-2.8,1.3-16.1c2.1-13.3,0.3-33,0.3-33S-508.8,599.1-516,596.1z"/>
	</g>
	<g>
		<defs>
			<polygon id="SVGID_21_" points="-500.2,287 -277.7,287 -286.7,505.2 -509.2,505.2 			"/>
		</defs>
		<clipPath id="SVGID_22_">
			<use xlink:href="#SVGID_21_"  style="overflow:visible;"/>
		</clipPath>
		<path class="st11" d="M-512.5,666.1c0,0,16,7.1,21.2-0.5s-10.3-8.5-11.2-3.5C-502.6,662.1-515.1,659-512.5,666.1z"/>
	</g>
	<g>
		<defs>
			<polygon id="SVGID_23_" points="-500.2,287 -277.7,287 -286.7,505.2 -509.2,505.2 			"/>
		</defs>
		<clipPath id="SVGID_24_">
			<use xlink:href="#SVGID_23_"  style="overflow:visible;"/>
		</clipPath>
		<path class="st12" d="M-510.2,666.8l4.5,1.4c0,0-2.3,10.5-1.6,14.6c0,0-2.5,1.6-5.3-1.3c0,0,1.6-2.7,2-6.2L-510.2,666.8z"/>
	</g>
	<g>
		<defs>
			<polygon id="SVGID_25_" points="-500.2,287 -277.7,287 -286.7,505.2 -509.2,505.2 			"/>
		</defs>
		<clipPath id="SVGID_26_">
			<use xlink:href="#SVGID_25_"  style="overflow:visible;"/>
		</clipPath>
		<path class="st13" d="M-511.8,682.5c0,0,1.6,0.9,3,0.7l-0.1,10.5c0,0-3.9,0.8-4.7-1.4c-0.9-2.2,1.5-3.2,1.6-4.7
			C-512,686.2-511.8,682.5-511.8,682.5z"/>
	</g>
	<g>
		<defs>
			<polygon id="SVGID_27_" points="-500.2,287 -277.7,287 -286.7,505.2 -509.2,505.2 			"/>
		</defs>
		<clipPath id="SVGID_28_">
			<use xlink:href="#SVGID_27_"  style="overflow:visible;"/>
		</clipPath>
		<path class="st14" d="M-505.2,668.2l4.6,1.2c0,0-1.7,10.6-0.7,14.7c0,0-2.4,1.7-5.4-0.9c0,0,1.4-2.8,1.6-6.3L-505.2,668.2z"/>
	</g>
	<g>
		<defs>
			<polygon id="SVGID_29_" points="-500.2,287 -277.7,287 -286.7,505.2 -509.2,505.2 			"/>
		</defs>
		<clipPath id="SVGID_30_">
			<use xlink:href="#SVGID_29_"  style="overflow:visible;"/>
		</clipPath>
		<path class="st15" d="M-505.9,683.9c0,0,1.7,0.8,3.1,0.5l0.6,10.5c0,0-3.8,1-4.8-1.1s1.3-3.2,1.3-4.8
			C-505.8,687.6-505.9,683.9-505.9,683.9z"/>
	</g>
	<g>
		<defs>
			<polygon id="SVGID_31_" points="-500.2,287 -277.7,287 -286.7,505.2 -509.2,505.2 			"/>
		</defs>
		<clipPath id="SVGID_32_">
			<use xlink:href="#SVGID_31_"  style="overflow:visible;"/>
		</clipPath>
		<path class="st16" d="M-494.9,667.6l-4.6,1.3c0,0,2,10.6,1.2,14.6c0,0,2.5,1.6,5.4-1.1c0,0-1.5-2.7-1.9-6.3L-494.9,667.6z"/>
	</g>
	<g>
		<defs>
			<polygon id="SVGID_33_" points="-500.2,287 -277.7,287 -286.7,505.2 -509.2,505.2 			"/>
		</defs>
		<clipPath id="SVGID_34_">
			<use xlink:href="#SVGID_33_"  style="overflow:visible;"/>
		</clipPath>
		<path class="st17" d="M-493.7,683.3c0,0-1.7,0.8-3.1,0.6l-0.2,10.5c0,0,3.9,0.9,4.8-1.2c0.9-2.1-1.4-3.2-1.5-4.7
			S-493.7,683.3-493.7,683.3z"/>
	</g>
	<g>
		<defs>
			<polygon id="SVGID_35_" points="-500.2,287 -277.7,287 -286.7,505.2 -509.2,505.2 			"/>
		</defs>
		<clipPath id="SVGID_36_">
			<use xlink:href="#SVGID_35_"  style="overflow:visible;"/>
		</clipPath>
	</g>
	<g>
		<defs>
			<polygon id="SVGID_37_" points="-500.2,287 -277.7,287 -286.7,505.2 -509.2,505.2 			"/>
		</defs>
		<clipPath id="SVGID_38_">
			<use xlink:href="#SVGID_37_"  style="overflow:visible;"/>
		</clipPath>
	</g>
	<g>
		<defs>
			<polygon id="SVGID_39_" points="-500.2,287 -277.7,287 -286.7,505.2 -509.2,505.2 			"/>
		</defs>
		<clipPath id="SVGID_40_">
			<use xlink:href="#SVGID_39_"  style="overflow:visible;"/>
		</clipPath>
		<path class="st18" d="M-398.6,565.9c0,0-13.7,14.9-14.7,19.9s-5,50.4-31.5,42.8c0,0-13.5-6.2-9.2-18.9c4.2-12.6,10,6,13.5,6
			c3.4,0,6.8-2,6.8-4.6c0,0-27.9,1.8-28.1-13.3s8.8,2.6,18.1,3.8c9.2,1.2,19.1-4.2,19.1-9c0,0-37.3,14.1-39.4-13.9c0,0,0.8-6,12.2,2
			c11.4,8,32.3-0.6,32.7-6.6c0,0-35.1,13.7-44-9.8c-8.8-23.5,14.3,4.6,26.1,3.2c11.8-1.4,29.1-6.7,32.5-11.7L-398.6,565.9z"/>
	</g>
	<g>
		<defs>
			<polygon id="SVGID_41_" points="-500.2,287 -277.7,287 -286.7,505.2 -509.2,505.2 			"/>
		</defs>
		<clipPath id="SVGID_42_">
			<use xlink:href="#SVGID_41_"  style="overflow:visible;"/>
		</clipPath>
		<path class="st19" d="M-397,610.1v4l-10.9,4.8c0,0-1.5,0.7-0.3,2.7c1.3,1.9,27.3,8.8,45,3.6s10.4-6.7,10.4-6.7l-9.1-3.1l-1.5-5
			L-397,610.1z"/>
	</g>
	<g>
		<defs>
			<polygon id="SVGID_43_" points="-500.2,287 -277.7,287 -286.7,505.2 -509.2,505.2 			"/>
		</defs>
		<clipPath id="SVGID_44_">
			<use xlink:href="#SVGID_43_"  style="overflow:visible;"/>
		</clipPath>
		<path class="st20" d="M-405.4,554.1l-9.9-8.3c0,0-24,18.8-47.9-3.5c0,0,2.6,0.4,4.6,10.2C-458.6,552.5-433,577.8-405.4,554.1z"/>
	</g>
	<g>
		<defs>
			<polygon id="SVGID_45_" points="-500.2,287 -277.7,287 -286.7,505.2 -509.2,505.2 			"/>
		</defs>
		<clipPath id="SVGID_46_">
			<use xlink:href="#SVGID_45_"  style="overflow:visible;"/>
		</clipPath>
		<path class="st21" d="M-423.1,518.2c0,0,5.9,2.3,5.9,9.8c0,7.4-39.4,6.5-39.8-12.6c0,0,0.2-7.8,11,0
			C-435.1,523.2-423.1,518.2-423.1,518.2z"/>
	</g>
	<g>
		<defs>
			<polygon id="SVGID_47_" points="-500.2,287 -277.7,287 -286.7,505.2 -509.2,505.2 			"/>
		</defs>
		<clipPath id="SVGID_48_">
			<use xlink:href="#SVGID_47_"  style="overflow:visible;"/>
		</clipPath>
		<path class="st22" d="M-417.1,535.8l1,8.2c0,0-38.7,15.1-45.3-9.6c0,0-1-9,4.2-7C-457.2,527.4-438.1,548.9-417.1,535.8z"/>
	</g>
	<g>
		<defs>
			<polygon id="SVGID_49_" points="-500.2,287 -277.7,287 -286.7,505.2 -509.2,505.2 			"/>
		</defs>
		<clipPath id="SVGID_50_">
			<use xlink:href="#SVGID_49_"  style="overflow:visible;"/>
		</clipPath>
		<path class="st23" d="M-399.4,572.6c0,0-7.2,15.8,2,18.1l35.2-0.2c0,0,4-9.7-2.2-17.1L-399.4,572.6z"/>
	</g>
	<g>
		<defs>
			<polygon id="SVGID_51_" points="-500.2,287 -277.7,287 -286.7,505.2 -509.2,505.2 			"/>
		</defs>
		<clipPath id="SVGID_52_">
			<use xlink:href="#SVGID_51_"  style="overflow:visible;"/>
		</clipPath>
		<path class="st24" d="M-396.5,590.7v5.2l-10.9,6.2c0,0-1.5,1-0.3,3.5c1.3,2.5,27.3,11.4,45,4.6c17.7-6.7,10.4-8.7,10.4-8.7l-9.1-4
			l-2.9-7.3L-396.5,590.7z"/>
	</g>
	<g>
		<defs>
			<polygon id="SVGID_53_" points="-500.2,287 -277.7,287 -286.7,505.2 -509.2,505.2 			"/>
		</defs>
		<clipPath id="SVGID_54_">
			<use xlink:href="#SVGID_53_"  style="overflow:visible;"/>
		</clipPath>
		<path class="st25" d="M-456,652.4c-0.8-7.1-0.3-18.3,18.6-21.7c18.9-3.3,24.4,0.6,31.3,11.1s6.9,10.5,6.9,10.5l-1,15
			c0,0-11-10.4-21.8-1.5s24.4,20.6,24.4,20.6s3.1,14.1,7.7,15.7c0,0-12,14.5-31.7,5.3s-13.2-27.9-13.2-27.9s1.8-3.8-8.6-10.4
			C-453.8,662.5-455.4,657.6-456,652.4z"/>
	</g>
	<g>
		<defs>
			<polygon id="SVGID_55_" points="-500.2,287 -277.7,287 -286.7,505.2 -509.2,505.2 			"/>
		</defs>
		<clipPath id="SVGID_56_">
			<use xlink:href="#SVGID_55_"  style="overflow:visible;"/>
		</clipPath>
		<path class="st26" d="M-427.5,711.5c0,0-8.5-2.4-4.6-8.3c3.9-5.8,11-2.1,11-2.1s2.3,1,4,0.1s6.8-2.9,10.4,1.3
			c3.7,4.2-4.6,8.3-4.6,8.3l-5.2,41.5c0,0,0.1,2.2,1.3,2.6c1.2,0.4,7.7,5.9,3.6,9c-4.2,3.1-21.8,3.8-28.2,0.2
			c-6.3-3.6-0.9-9.1,8-11.3l5.1-39.2C-426.9,713.3-426.2,712.1-427.5,711.5z"/>
	</g>
	<g>
		<defs>
			<polygon id="SVGID_57_" points="-500.2,287 -277.7,287 -286.7,505.2 -509.2,505.2 			"/>
		</defs>
		<clipPath id="SVGID_58_">
			<use xlink:href="#SVGID_57_"  style="overflow:visible;"/>
		</clipPath>
		<path class="st27" d="M-417.8,806.6c0,0-0.2,1.4-7.4,0.9c-4.5-0.3-5.5,1.8-5.6,3.5c-0.1,1,0.1,1.8,0.1,1.8s6,2.7,6,5.6
			s8.8,9.5,12.5,6.7s9-7.1,12.6-7.2c3.6-0.1,5.3-5.6,2.2-8.2c-3-2.6-6.3-4.9-6.3-4.9l-4.7-3.6c0,0-2.7-0.2-3.2-0.2s-4.4,1.2-4.4,1.2
			L-417.8,806.6z"/>
	</g>
	<g>
		<defs>
			<polygon id="SVGID_59_" points="-500.2,287 -277.7,287 -286.7,505.2 -509.2,505.2 			"/>
		</defs>
		<clipPath id="SVGID_60_">
			<use xlink:href="#SVGID_59_"  style="overflow:visible;"/>
		</clipPath>
		<path class="st28" d="M-253.2,665.6c0,0-1.6,0.9-3,0.7l0.1,10.5c0,0,3.9,0.8,4.7-1.4c0.9-2.2-1.5-3.2-1.6-4.7
			C-253,669.3-253.2,665.6-253.2,665.6z"/>
	</g>
	<g>
		<defs>
			<polygon id="SVGID_61_" points="-500.2,287 -277.7,287 -286.7,505.2 -509.2,505.2 			"/>
		</defs>
		<clipPath id="SVGID_62_">
			<use xlink:href="#SVGID_61_"  style="overflow:visible;"/>
		</clipPath>
		<path class="st29" d="M-449.7,817.5c0,0,4,5.7,3.9,8.3c0,0-0.2,1,0.6,1.2c0.8,0.2,6.2,4.2,5.4,8.4c0,0,3.6-0.9,4.1-0.1
			c0,0,7.5-6.2,13.5-6.9s4.9-3,4.9-3l-9.6-14.8h-3.9C-430.9,810.5-439.8,816-449.7,817.5z"/>
	</g>
	<g>
		<defs>
			<polygon id="SVGID_63_" points="-500.2,287 -277.7,287 -286.7,505.2 -509.2,505.2 			"/>
		</defs>
		<clipPath id="SVGID_64_">
			<use xlink:href="#SVGID_63_"  style="overflow:visible;"/>
		</clipPath>
		<path class="st30" d="M-259.1,667c0,0-1.7,0.8-3.1,0.5l-0.6,10.5c0,0,3.8,1,4.8-1.1s-1.3-3.2-1.3-4.8
			C-259.2,670.7-259.1,667-259.1,667z"/>
	</g>
	<g>
		<defs>
			<polygon id="SVGID_65_" points="-500.2,287 -277.7,287 -286.7,505.2 -509.2,505.2 			"/>
		</defs>
		<clipPath id="SVGID_66_">
			<use xlink:href="#SVGID_65_"  style="overflow:visible;"/>
		</clipPath>
		<path class="st31" d="M-449.7,817.5c0,0-5.9,0.1-6.8,2.5c-1,2.4,2.5,16.6,2.5,17s13.7,1.5,14.6-1c0.9-2.6-2.7-16.4-2.7-16.4
			l-3.6-1.1L-449.7,817.5z"/>
	</g>
	<g>
		<defs>
			<polygon id="SVGID_67_" points="-500.2,287 -277.7,287 -286.7,505.2 -509.2,505.2 			"/>
		</defs>
		<clipPath id="SVGID_68_">
			<use xlink:href="#SVGID_67_"  style="overflow:visible;"/>
		</clipPath>
		<path class="st32" d="M-271.3,666.4c0,0,1.7,0.8,3.1,0.6l0.2,10.5c0,0-3.9,0.9-4.8-1.2s1.4-3.2,1.5-4.7S-271.3,666.4-271.3,666.4z
			"/>
	</g>
	<g>
		<defs>
			<polygon id="SVGID_69_" points="-500.2,287 -277.7,287 -286.7,505.2 -509.2,505.2 			"/>
		</defs>
		<clipPath id="SVGID_70_">
			<use xlink:href="#SVGID_69_"  style="overflow:visible;"/>
		</clipPath>
		<path class="st33" d="M-455.4,819.6l2.3,17.7c0,0-13.4-2.6-13.3-7.7c0,0-1-5.8,3-7.6C-459.4,820.1-455.4,819.6-455.4,819.6z"/>
	</g>
	<g>
		<defs>
			<polygon id="SVGID_71_" points="-500.2,287 -277.7,287 -286.7,505.2 -509.2,505.2 			"/>
		</defs>
		<clipPath id="SVGID_72_">
			<use xlink:href="#SVGID_71_"  style="overflow:visible;"/>
		</clipPath>
		<path class="st34" d="M-427.4,762.7c0,0,9.5-1.6,10.7,1s-2.2,5.1-2.2,5.1s-0.6-0.1-0.2,1.6c0.4,1.6,6.7,25.1,6.3,30.4
			c0,0,3.2,1.2,3.7,3.2s-2.9,3.6-5.2,2.2c-2.3-1.4-3,0.6-3,0.6s-0.4,1.5-2.8-0.2c-2.3-1.7,1.9-3.7,1.9-3.7s0.2-2.8-1.3-5
			s-9-27-8.4-28.6c0,0-6.3-1.9-2.4-5.3L-427.4,762.7z"/>
	</g>
	<g>
		<defs>
			<polygon id="SVGID_73_" points="-500.2,287 -277.7,287 -286.7,505.2 -509.2,505.2 			"/>
		</defs>
		<clipPath id="SVGID_74_">
			<use xlink:href="#SVGID_73_"  style="overflow:visible;"/>
		</clipPath>
		<path class="st35" d="M-447.6,506c0,0,22.4-18.7,34.5-19.1l-0.1,26.1L-447.6,506z"/>
	</g>
	<g>
		<defs>
			<polygon id="SVGID_75_" points="-500.2,287 -277.7,287 -286.7,505.2 -509.2,505.2 			"/>
		</defs>
		<clipPath id="SVGID_76_">
			<use xlink:href="#SVGID_75_"  style="overflow:visible;"/>
		</clipPath>
		<path class="st36" d="M-255.1,583.8c0,0,3.8,1.4,1.4,9.5c-2.4,8.1-9.2,27.2-8.8,39.3c0.3,12.2-0.9,11.7-3.9,11.5
			s-5.5-6.2-4.4-10.1s5.7-23.2,5.7-23.2s2.7-9.8,0.3-15s-2.1-14.5-2.1-14.5S-267.6,577.7-255.1,583.8z"/>
	</g>
	<g>
		<defs>
			<polygon id="SVGID_77_" points="-500.2,287 -277.7,287 -286.7,505.2 -509.2,505.2 			"/>
		</defs>
		<clipPath id="SVGID_78_">
			<use xlink:href="#SVGID_77_"  style="overflow:visible;"/>
		</clipPath>
		<path class="st37" d="M-247.7,580.5c0,0,8.1,4.4,1.9,10.4c-6.2,6-3.6,20.8-3.6,20.8s0.5,12.8-2.4,24.6c0,0-0.2,4.1,1.1,7.9
			c1.3,3.8-9.5,4.3-10.4-0.2c-0.9-4.4,3-12.9,3-12.9s0.8-2.8-1.3-16.1c-2.1-13.3-0.3-33-0.3-33S-254.9,583.5-247.7,580.5z"/>
	</g>
	<g>
		<defs>
			<polygon id="SVGID_79_" points="-500.2,287 -277.7,287 -286.7,505.2 -509.2,505.2 			"/>
		</defs>
		<clipPath id="SVGID_80_">
			<use xlink:href="#SVGID_79_"  style="overflow:visible;"/>
		</clipPath>
		<path class="st38" d="M-254.8,650.7l-4.5,1.4c0,0,2.3,10.5,1.6,14.6c0,0,2.5,1.6,5.3-1.3c0,0-1.6-2.7-2-6.2L-254.8,650.7z"/>
	</g>
	<g>
		<defs>
			<polygon id="SVGID_81_" points="-500.2,287 -277.7,287 -286.7,505.2 -509.2,505.2 			"/>
		</defs>
		<clipPath id="SVGID_82_">
			<use xlink:href="#SVGID_81_"  style="overflow:visible;"/>
		</clipPath>
		<path class="st39" d="M-259.7,652.1l-4.6,1.2c0,0,1.7,10.6,0.7,14.7c0,0,2.4,1.7,5.4-0.9c0,0-1.4-2.8-1.6-6.3L-259.7,652.1z"/>
	</g>
	<g>
		<defs>
			<polygon id="SVGID_83_" points="-500.2,287 -277.7,287 -286.7,505.2 -509.2,505.2 			"/>
		</defs>
		<clipPath id="SVGID_84_">
			<use xlink:href="#SVGID_83_"  style="overflow:visible;"/>
		</clipPath>
		<path class="st40" d="M-270,651.5l4.6,1.3c0,0-2,10.6-1.2,14.6c0,0-2.5,1.6-5.4-1.1c0,0,1.5-2.7,1.9-6.3L-270,651.5z"/>
	</g>
	<g>
		<defs>
			<polygon id="SVGID_85_" points="-500.2,287 -277.7,287 -286.7,505.2 -509.2,505.2 			"/>
		</defs>
		<clipPath id="SVGID_86_">
			<use xlink:href="#SVGID_85_"  style="overflow:visible;"/>
		</clipPath>
		<path class="st41" d="M-251.1,650.2c0,0-16,7.1-21.2-0.5s10.3-8.5,11.2-3.5C-261.1,646.2-248.6,643.1-251.1,650.2z"/>
	</g>
	<g>
		<defs>
			<polygon id="SVGID_87_" points="-500.2,287 -277.7,287 -286.7,505.2 -509.2,505.2 			"/>
		</defs>
		<clipPath id="SVGID_88_">
			<use xlink:href="#SVGID_87_"  style="overflow:visible;"/>
		</clipPath>
		<path class="st42" d="M-365.7,565.6c0,0,13.2,15.3,14,20.3s3.4,50.5,30.1,43.8c0,0,13.6-5.8,9.8-18.6c-3.8-12.8-10.2,5.7-13.6,5.6
			c-3.4-0.1-6.8-2.2-6.7-4.8c0,0,27.8,2.7,28.5-12.3s-8.9,2.3-18.2,3.2c-9.3,0.9-18.9-4.8-18.8-9.6c0,0,36.9,15.3,39.8-12.6
			c0,0-0.6-6-12.3,1.6s-32.3-1.6-32.5-7.7c0,0,34.7,14.8,44.3-8.4c9.6-23.2-14.4,4.2-26.2,2.4c-11.8-1.8-28.7-7.2-31.9-12.3
			L-365.7,565.6z"/>
	</g>
	<g>
		<defs>
			<polygon id="SVGID_89_" points="-500.2,287 -277.7,287 -286.7,505.2 -509.2,505.2 			"/>
		</defs>
		<clipPath id="SVGID_90_">
			<use xlink:href="#SVGID_89_"  style="overflow:visible;"/>
		</clipPath>
		<path class="st43" d="M-359.2,555.6l-7-8c0,0,22.9,18.5,46.8-3.8c0,0,15.4,0.4,13.4,10.2C-305.9,554-331.6,579.3-359.2,555.6z"/>
	</g>
	<g>
		<defs>
			<polygon id="SVGID_91_" points="-500.2,287 -277.7,287 -286.7,505.2 -509.2,505.2 			"/>
		</defs>
		<clipPath id="SVGID_92_">
			<use xlink:href="#SVGID_91_"  style="overflow:visible;"/>
		</clipPath>
		<path class="st44" d="M-362.6,519.3c0,0-4.6,2.6-4.6,10s38.1,6.2,38.5-12.8c0,0-0.2-7.8-11,0S-362.6,519.3-362.6,519.3z"/>
	</g>
	<g>
		<defs>
			<polygon id="SVGID_93_" points="-500.2,287 -277.7,287 -286.7,505.2 -509.2,505.2 			"/>
		</defs>
		<clipPath id="SVGID_94_">
			<use xlink:href="#SVGID_93_"  style="overflow:visible;"/>
		</clipPath>
		<path class="st45" d="M-366.5,537l-0.3,8.2c0,0,37.9,15.1,44.6-9.6c0,0,1-9-4.2-7C-326.4,528.6-345.5,550-366.5,537z"/>
	</g>
	<g>
		<defs>
			<polygon id="SVGID_95_" points="-500.2,287 -277.7,287 -286.7,505.2 -509.2,505.2 			"/>
		</defs>
		<clipPath id="SVGID_96_">
			<use xlink:href="#SVGID_95_"  style="overflow:visible;"/>
		</clipPath>
		<path class="st46" d="M-301.9,655.6c1.2-7,1.3-18.3-17.4-22.6s-24.4-0.7-31.8,9.4c-7.5,10.1-7.5,10.1-7.5,10.1l0.2,15
			c0,0,11.6-9.8,21.8-0.3c10.3,9.5-25.5,19.2-25.5,19.2s-3.8,13.9-8.6,15.2c0,0,11.2,15.1,31.4,7c20.2-8.1,14.7-27.2,14.7-27.2
			s-1.6-3.9,9.1-9.9C-304.6,665.5-302.7,660.7-301.9,655.6z"/>
	</g>
	<g>
		<defs>
			<polygon id="SVGID_97_" points="-500.2,287 -277.7,287 -286.7,505.2 -509.2,505.2 			"/>
		</defs>
		<clipPath id="SVGID_98_">
			<use xlink:href="#SVGID_97_"  style="overflow:visible;"/>
		</clipPath>
		<path class="st47" d="M-335.7,712.9c0,0,8.5-2.4,4.6-8.3s-11-2.1-11-2.1s-2.3,1-4,0.1s-6.8-2.9-10.4,1.3c-3.7,4.2,4.6,8.3,4.6,8.3
			l5.2,41.5c0,0-0.1,2.2-1.3,2.6c-1.2,0.4-7.7,5.9-3.6,9c4.2,3.1,21.8,3.8,28.2,0.2c6.3-3.6,0.9-9.1-8-11.3l-5.1-39.2
			C-336.4,714.7-337,713.4-335.7,712.9z"/>
	</g>
	<g>
		<defs>
			<polygon id="SVGID_99_" points="-500.2,287 -277.7,287 -286.7,505.2 -509.2,505.2 			"/>
		</defs>
		<clipPath id="SVGID_100_">
			<use xlink:href="#SVGID_99_"  style="overflow:visible;"/>
		</clipPath>
		<path class="st48" d="M-345.5,807.9c0,0,0.2,1.4,7.4,0.9c4.5-0.3,5.5,1.8,5.6,3.5c0.1,1-0.1,1.8-0.1,1.8s-6,2.7-6,5.6
			s-8.8,9.5-12.5,6.7s-9-7.1-12.6-7.2c-3.6-0.1-5.3-5.6-2.2-8.2c3-2.6,6.3-4.9,6.3-4.9l4.7-3.6c0,0,2.7-0.2,3.2-0.2s4.4,1.2,4.4,1.2
			L-345.5,807.9z"/>
	</g>
	<g>
		<defs>
			<polygon id="SVGID_101_" points="-500.2,287 -277.7,287 -286.7,505.2 -509.2,505.2 			"/>
		</defs>
		<clipPath id="SVGID_102_">
			<use xlink:href="#SVGID_101_"  style="overflow:visible;"/>
		</clipPath>
		<path class="st49" d="M-313.6,818.9c0,0-4,5.7-3.9,8.3c0,0,0.2,1-0.6,1.2s-6.2,4.2-5.4,8.4c0,0-3.6-0.9-4.1-0.1
			c0,0-7.5-6.2-13.5-6.9c-6-0.8-4.9-3-4.9-3l9.6-14.8h3.9C-332.4,811.9-323.5,817.4-313.6,818.9z"/>
	</g>
	<g>
		<defs>
			<polygon id="SVGID_103_" points="-500.2,287 -277.7,287 -286.7,505.2 -509.2,505.2 			"/>
		</defs>
		<clipPath id="SVGID_104_">
			<use xlink:href="#SVGID_103_"  style="overflow:visible;"/>
		</clipPath>
		<path class="st50" d="M-313.3,818.7c0,0,5.9,0.1,6.8,2.5c1,2.4-2.5,16.6-2.5,17s-13.7,1.5-14.6-1c-0.9-2.6,2.7-16.4,2.7-16.4
			l3.6-1.1L-313.3,818.7z"/>
	</g>
	<g>
		<defs>
			<polygon id="SVGID_105_" points="-500.2,287 -277.7,287 -286.7,505.2 -509.2,505.2 			"/>
		</defs>
		<clipPath id="SVGID_106_">
			<use xlink:href="#SVGID_105_"  style="overflow:visible;"/>
		</clipPath>
		<path class="st51" d="M-306.6,820.5l-2.3,17.7c0,0,13.4-2.6,13.3-7.7c0,0,1-5.8-3-7.6C-302.6,821-306.6,820.5-306.6,820.5z"/>
	</g>
	<g>
		<defs>
			<polygon id="SVGID_107_" points="-500.2,287 -277.7,287 -286.7,505.2 -509.2,505.2 			"/>
		</defs>
		<clipPath id="SVGID_108_">
			<use xlink:href="#SVGID_107_"  style="overflow:visible;"/>
		</clipPath>
		<path class="st52" d="M-347.9,506c0,0-19.5-21.8-31.6-22.3l0.1,28.4L-347.9,506z"/>
	</g>
	<g>
		<defs>
			<polygon id="SVGID_109_" points="-500.2,287 -277.7,287 -286.7,505.2 -509.2,505.2 			"/>
		</defs>
		<clipPath id="SVGID_110_">
			<use xlink:href="#SVGID_109_"  style="overflow:visible;"/>
		</clipPath>
		<path class="st53" d="M-335.9,764.1c0,0-9.5-1.6-10.7,1s2.2,5.1,2.2,5.1s0.6-0.1,0.2,1.6s-6.7,25.1-6.3,30.4c0,0-3.2,1.2-3.7,3.2
			s2.9,3.6,5.2,2.2c2.3-1.4,3,0.6,3,0.6s0.4,1.5,2.8-0.2c2.3-1.7-1.9-3.7-1.9-3.7s-0.2-2.8,1.3-5s9-27,8.4-28.6c0,0,6.3-1.9,2.4-5.3
			L-335.9,764.1z"/>
	</g>
	<g>
		<defs>
			<polygon id="SVGID_111_" points="-500.2,287 -277.7,287 -286.7,505.2 -509.2,505.2 			"/>
		</defs>
		<clipPath id="SVGID_112_">
			<use xlink:href="#SVGID_111_"  style="overflow:visible;"/>
		</clipPath>
		<path class="st54" d="M-446.1,460.1c0,0,18,9.5,18,15.8c0,0,21.4,9.6,61.9,3.4c0,0,22-15.7,26.4-16.4c0,0-1.4-24.4,3.4-29.8
			c0,0-4.8-3-17.6,2.2c0,0,2.2,20.1-2.6,22c0,0-29.3,7.4-72-0.4c0,0-5.4-13.4-2.2-21.9c0,0-7.7-4.1-20-0.9
			C-450.9,434.1-441.2,446-446.1,460.1z"/>
	</g>
	<g>
		<defs>
			<polygon id="SVGID_113_" points="-500.2,287 -277.7,287 -286.7,505.2 -509.2,505.2 			"/>
		</defs>
		<clipPath id="SVGID_114_">
			<use xlink:href="#SVGID_113_"  style="overflow:visible;"/>
		</clipPath>
		<path class="st55" d="M-390.1,704.9c0,0,14.5,12.2,22,0c0,0,19.4-36.5,7.9-60.8c0,0-25.9,3.7-38.7-0.2
			C-398.8,643.9-410.6,672.4-390.1,704.9z"/>
	</g>
	<g>
		<defs>
			<polygon id="SVGID_115_" points="-500.2,287 -277.7,287 -286.7,505.2 -509.2,505.2 			"/>
		</defs>
		<clipPath id="SVGID_116_">
			<use xlink:href="#SVGID_115_"  style="overflow:visible;"/>
		</clipPath>
		<path class="st56" d="M-451.8,433.5c0,0-19.8-5.2-13.6-17.6c0,0,2.2-3.6,8.2-3.6c0,0-20.6-14.3,2.4-35.8
			c23.1-21.5,90.6-13.7,90.6-13.7s46.1,5.4,43.1,36.3c0,0-1.1,10.5-6.4,13.4c0,0,10.2,4.4,7.2,10.9s-10.9,11.7-16.2,9.7
			c-5.3-2-19.1,0.2-22.3,7.7c0,0-44,13.6-73.1,0.2l1-5.9C-430.9,434.9-435.5,431.9-451.8,433.5z"/>
	</g>
	<g>
		<defs>
			<polygon id="SVGID_117_" points="-500.2,287 -277.7,287 -286.7,505.2 -509.2,505.2 			"/>
		</defs>
		<clipPath id="SVGID_118_">
			<use xlink:href="#SVGID_117_"  style="overflow:visible;"/>
		</clipPath>
		<circle class="st57" cx="-429.4" cy="404.6" r="13"/>
	</g>
	<g>
		<defs>
			<polygon id="SVGID_119_" points="-500.2,287 -277.7,287 -286.7,505.2 -509.2,505.2 			"/>
		</defs>
		<clipPath id="SVGID_120_">
			<use xlink:href="#SVGID_119_"  style="overflow:visible;"/>
		</clipPath>
		<circle class="st58" cx="-355.4" cy="404.6" r="13"/>
	</g>
	<g>
		<defs>
			<polygon id="SVGID_121_" points="-500.2,287 -277.7,287 -286.7,505.2 -509.2,505.2 			"/>
		</defs>
		<clipPath id="SVGID_122_">
			<use xlink:href="#SVGID_121_"  style="overflow:visible;"/>
		</clipPath>
		<path class="st59" d="M-396,422.8c0,0,4-1.9,6,0.6s7.2,3.3,7.7-1.1c0.5-4.3-4.6-9.1-9.6-8.8c-5.1,0.2-11.1,0.7-12.6,7.7
			C-405.9,428.2-396,422.8-396,422.8z"/>
	</g>
	<g>
		<defs>
			<polygon id="SVGID_123_" points="-500.2,287 -277.7,287 -286.7,505.2 -509.2,505.2 			"/>
		</defs>
		<clipPath id="SVGID_124_">
			<use xlink:href="#SVGID_123_"  style="overflow:visible;"/>
		</clipPath>
		<path class="st60" d="M-402.3,633c0,0-3.8,0.8-2.2,3.9c0,0,9.7,5.9,9.7,8.4c0,0,20,2.4,30.5,0.2c0,0,6.1-6.9,9.3-8.1
			c3.2-1.2,0.6-3.5,0.6-3.5s-10.9-4.8-11.3-8.3c0,0-15.1,1.2-27.2-0.3C-392.8,625.3-397.4,631.6-402.3,633z"/>
	</g>
	<g>
		<defs>
			<polygon id="SVGID_125_" points="-500.2,287 -277.7,287 -286.7,505.2 -509.2,505.2 			"/>
		</defs>
		<clipPath id="SVGID_126_">
			<use xlink:href="#SVGID_125_"  style="overflow:visible;"/>
		</clipPath>
		<path class="st61" d="M-414.3,488.2c0,0-3.4,5.2-0.6,7.8c0,0,24.4,4.8,35.6,0.5c0,0,2-4.8-0.4-8.5L-414.3,488.2z"/>
	</g>
	<g>
		<defs>
			<polygon id="SVGID_127_" points="-500.2,287 -277.7,287 -286.7,505.2 -509.2,505.2 			"/>
		</defs>
		<clipPath id="SVGID_128_">
			<use xlink:href="#SVGID_127_"  style="overflow:visible;"/>
		</clipPath>
		<path class="st62" d="M-414.2,479.6c0,0-3.5,6.2-0.7,8.8c0,0,24.4,4.2,35.6-0.1c0,0,1.7-4-0.6-7.8L-414.2,479.6z"/>
	</g>
	<g>
		<defs>
			<polygon id="SVGID_129_" points="-500.2,287 -277.7,287 -286.7,505.2 -509.2,505.2 			"/>
		</defs>
		<clipPath id="SVGID_130_">
			<use xlink:href="#SVGID_129_"  style="overflow:visible;"/>
		</clipPath>
		<path class="st63" d="M-414.5,496c0,0-3.1,8.9-0.3,11.5c0,0,24.4,3.1,35.7,0c0,0,1.9-7.6-0.4-11.4L-414.5,496z"/>
	</g>
	<g>
		<defs>
			<polygon id="SVGID_131_" points="-500.2,287 -277.7,287 -286.7,505.2 -509.2,505.2 			"/>
		</defs>
		<clipPath id="SVGID_132_">
			<use xlink:href="#SVGID_131_"  style="overflow:visible;"/>
		</clipPath>
		<path class="st64" d="M-417.2,507.2l49.2,0.2c0,0,16.8,5.6,1.8,17.2l9,27.5c0,0-6.8,23.1-28.7,22.5c-16.9-0.5-30-23.4-31-33.8
			c-0.3-3.1-0.3-5-0.3-5s2.4-11.8-8.2-18.3C-425.3,517.5-425.7,509.2-417.2,507.2z"/>
	</g>
	<g>
		<defs>
			<polygon id="SVGID_133_" points="-500.2,287 -277.7,287 -286.7,505.2 -509.2,505.2 			"/>
		</defs>
		<clipPath id="SVGID_134_">
			<use xlink:href="#SVGID_133_"  style="overflow:visible;"/>
		</clipPath>
		<path class="st65" d="M-412.3,368.7c0,0,4.1-2.9,11.6,0.8c0,0-6.1-53.7-5.7-71.7c0.1-5.7-16.2-15.4-17.5,3.5
			c-1.2,16.8,11.4,66.4,11.4,66.4L-412.3,368.7z"/>
	</g>
	<g>
		<defs>
			<polygon id="SVGID_135_" points="-500.2,287 -277.7,287 -286.7,505.2 -509.2,505.2 			"/>
		</defs>
		<clipPath id="SVGID_136_">
			<use xlink:href="#SVGID_135_"  style="overflow:visible;"/>
		</clipPath>
		<path class="st66" d="M-385.8,365.4c0,0,4.6-1.9,11.2,3.3c0,0,5.4-53.8,9.6-71.3c1.3-5.5-12.6-18.5-17.9-0.3
			c-4.7,16.2-2.9,67.3-2.9,67.3L-385.8,365.4z"/>
	</g>
</g>
</svg>
