<?xml version="1.0" encoding="utf-8"?>
<!-- Generator: Adobe Illustrator 19.1.0, SVG Export Plug-In . SVG Version: 6.00 Build 0)  -->
<svg version="1.1" id="Layer_1" xmlns="http://www.w3.org/2000/svg" xmlns:xlink="http://www.w3.org/1999/xlink" x="0px" y="0px"
	 viewBox="-649 679.5 280.5 178.5" style="enable-background:new -649 679.5 280.5 178.5;" xml:space="preserve">
<style type="text/css">
	.st0{fill:#E9E3C4;}
	.st1{fill:#6BA2A7;}
	.st2{font-family:'Lato-Regular';}
	.st3{font-size:16px;}
	.st4{font-size:10px;}
	.st5{fill:#C24D8D;}
	.st6{fill:#D68FAF;}
	.st7{fill:#D478A1;}
	.st8{fill:#F8F4E7;}
	.st9{opacity:0.47;fill:#B04379;enable-background:new    ;}
	.st10{fill:#603E16;}
	.st11{fill:#B04379;}
	.st12{opacity:0.35;fill:#E5B1CB;enable-background:new    ;}
	.st13{fill:#E5B1CB;}
	.st14{opacity:0.56;fill:none;stroke:#B04379;stroke-width:0.1199;stroke-miterlimit:10;enable-background:new    ;}
	.st15{fill:none;stroke:#E5B1CB;stroke-width:0.3089;stroke-miterlimit:10;}
	.st16{fill:#B5AAB1;}
	.st17{fill:none;stroke:#CC84AA;stroke-width:0.3089;stroke-miterlimit:10;}
	.st18{fill:#9E979C;}
	.st19{fill:#CC84AA;}
	.st20{opacity:0.56;fill:none;stroke:#B04379;stroke-width:7.551520e-02;stroke-miterlimit:10;enable-background:new    ;}
	.st21{fill:none;stroke:#E5B1CB;stroke-width:0.1946;stroke-miterlimit:10;}
	.st22{fill:none;stroke:#CC84AA;stroke-width:0.1946;stroke-miterlimit:10;}
</style>
<rect x="-658" y="670" class="st0" width="298" height="196.5"/>
<rect x="-599.2" y="749" class="st1" width="83.5" height="83.5"/>
<g>
	<text transform="matrix(1 0 0 1 -582.5617 705.761)" class="st1 st2 st3">Welcome to my site</text>
</g>
<g>
	<text transform="matrix(1 0 0 1 -587.4402 724.9451)" class="st1 st2 st4">Today I’m Learning HTML and CSS</text>
</g>
<g>
	<path class="st5" d="M-441.3,792.5c0,0-0.4,5.7,0.3,6.8s8.8,9.4,8.8,9.4s0.3,1.2-0.6,1.6c-0.9,0.4-0.6-1-0.6-1s-1.5,1.7-2,0.1
		c0,0-2.1,1.4-1.4-1.3l-8.3-6.1c0,0-7.2-5.9-5.4-10.5s4.4-4.2,6.1-3.5C-443.2,788.5-441.1,789.8-441.3,792.5z"/>
	<path class="st6" d="M-481.1,810.4l1.6,17.4c0,0-2.3,3.2-5-0.9c0,0-4.8,0.8-2.9-3.4c0,0-3.6,0.8-3.7-2.3c-0.1-3,3.4-2.6,3.4-2.6
		s-5.3-0.4-1.5-3.1c0,0-3.2-3.2,1-2.5c0,0-2-3.2,1.1-3.8c0,0,1.7-0.1,2.5,1.8C-484.7,811-485,808-481.1,810.4z"/>
	<path class="st7" d="M-490.5,769.7C-490.5,769.7-490.5,769.7-490.5,769.7C-490.5,769.7-490.5,769.7-490.5,769.7z M-490.6,769.8
		C-490.6,769.8-490.6,769.7-490.6,769.8C-490.6,769.7-490.6,769.8-490.6,769.8z M-490.5,769.7C-490.5,769.7-490.5,769.7-490.5,769.7
		C-490.5,769.7-490.5,769.7-490.5,769.7z M-490.6,769.8C-490.6,769.8-490.6,769.7-490.6,769.8C-490.6,769.7-490.6,769.8-490.6,769.8
		z"/>
	<path class="st7" d="M-441.3,759.6c3.3,17.2,1.9,57.3-4.6,69.8c0,0-21.2,14.4-35.6,0c0,0-2.6-30.7-1.4-48.6c0,0-1.7-18.4,0.5-24
		c1.9-4.8,6.1-7,19.5-6.9C-448.7,750-443.4,748.8-441.3,759.6z"/>
	<path class="st7" d="M-481.6,829.1c0,0,2,6.8,0.5,13.1c0,0-0.6,3.6-1.4,4.7c0,0-0.8,1.4,0.3,2.4c0,0,0.6,0.8,3-0.1
		c2.4-0.9,6.6,1.6,6.6,1.6s8,3.3,9.9-0.8c1.9-4-5.2-4.4-5.2-4.4l-10.2-0.9c0,0-1.2-4,0.7-6c0,0,3.3-5.5,6-5.5l0,0.1
		c0,0,9.6,1.3,13.5-0.2c0,0,1.7,6-0.5,11.3c0,0-0.3,1.7,1.4,1.5c1.7-0.2,5.3-0.1,7,1.7c1.7,1.7,7.8,2,7.9-1.7c0-3.7-3.8-3.2-4.4-3.2
		s-8.4-0.8-8.4-0.8s-1.1-2.5,1.5-5.2c2.7-2.7,7.9-7.1,8-9.1"/>
	<path class="st6" d="M-470.5,760.4c-1.8,1.9-4.5,5.3-4.9,9.3c-0.3,3.6,2,6.8,5.4,7.9c4.6,1.4,12.8,2.8,21.2-1.3
		c1.8-0.9,3.2-2.4,3.9-4.3c0.6-1.7,1.2-3.9,1.2-6.4c0-3.7-2.7-6.9-6.4-7.6c-4-0.7-10-1.2-16.8,0.3
		C-468.1,758.6-469.4,759.3-470.5,760.4z"/>
	<path class="st8" d="M-460.5,772.9c0,0,0,0.3,0.3,0.4c0.3,0,0.3-0.3,0.3-0.3L-460.5,772.9z"/>
	
		<ellipse transform="matrix(-0.2856 -0.9583 0.9583 -0.2856 -1336.3552 538.9891)" class="st9" cx="-467.3" cy="767.6" rx="3.3" ry="3.7"/>
	
		<ellipse transform="matrix(-0.2856 -0.9583 0.9583 -0.2856 -1336.2426 539.1835)" class="st8" cx="-467.2" cy="767.6" rx="3" ry="3.4"/>
	<path class="st8" d="M-458.3,772.9l0.7-0.1c0,0,0.2,0.5-0.3,0.6C-458.5,773.4-458.3,772.9-458.3,772.9z"/>
	<path class="st8" d="M-459.4,772.9l0.6,0c0,0,0.2,0.3-0.2,0.5C-459.5,773.5-459.6,773-459.4,772.9z"/>
	
		<ellipse transform="matrix(-0.2856 -0.9583 0.9583 -0.2856 -1335.8879 541.0593)" class="st10" cx="-466.3" cy="768.4" rx="1.3" ry="1.5"/>
	<path class="st11" d="M-463.5,761.7l-0.5,1.2c0,0-5.5-2.3-8,3C-472,765.9-472,759.8-463.5,761.7z"/>
	
		<ellipse transform="matrix(-0.2856 -0.9583 0.9583 -0.2856 -1312.068 554.3622)" class="st9" cx="-449.4" cy="766.2" rx="3.1" ry="3.3"/>
	<path class="st5" d="M-475.6,792.5c0,0-3.3,4.5-3.4,5.9s2.2,12.7,2.2,12.7s-0.4,1.2-1.3,1c-1-0.2,0-1.2,0-1.2s-2.2,0.6-1.7-1
		c0,0-2.5,0.1-0.4-1.8l-3.6-9.7c0,0-2.8-8.8,1.1-11.8s5.9-1.1,6.8,0.3C-475.1,788-474,790.3-475.6,792.5z"/>
	
		<ellipse transform="matrix(-0.2856 -0.9583 0.9583 -0.2856 -1312.4656 554.3126)" class="st8" cx="-449.6" cy="766.3" rx="2.8" ry="3"/>
	
		<ellipse transform="matrix(-0.2856 -0.9583 0.9583 -0.2856 -1313.0608 555.5018)" class="st10" cx="-449.5" cy="767.2" rx="1.3" ry="1.5"/>
	<path class="st11" d="M-453.1,760.7l0.6,1c0,0,5.3-2.4,8,2.1C-444.5,763.9-445.4,757.7-453.1,760.7z"/>
	<circle class="st12" cx="-450.1" cy="771.9" r="0.9"/>
	
		<ellipse transform="matrix(-0.2856 -0.9583 0.9583 -0.2856 -1341.8661 546.9189)" class="st12" cx="-467.1" cy="773.6" rx="0.8" ry="1.3"/>
	<g>
		<path class="st13" d="M-457.1,769c0,0,0.5-0.3,0.8,0c0.3,0.3,1,0.3,1-0.3c0-0.6-0.8-1.1-1.5-1c-0.7,0.1-1.5,0.3-1.5,1.3
			C-458.3,769.9-457.1,769-457.1,769z"/>
		<circle class="st6" cx="-456" cy="768.5" r="0.1"/>
		<circle class="st6" cx="-457.6" cy="768.8" r="0.1"/>
	</g>
	<g>
		<path class="st14" d="M-456.6,766.1c0,0-0.4,0.6,0,1.3"/>
		<path class="st14" d="M-455.8,765.7c0,0-1.1-0.4-2,0.6"/>
		<path class="st14" d="M-455.9,765c0,0-1-0.3-1.5,0.2"/>
	</g>
	<polygon class="st8" points="-457.3,772.6 -457.3,773.3 -456.6,773.2 -456.6,772.5 	"/>
	<polygon class="st8" points="-456.3,772.4 -456.2,773.1 -455.6,773 -455.5,772.4 	"/>
	<path class="st15" d="M-456.5,768.8c0,0,0.1,2.3,0.9,3.4c0,0-3.7,1.1-8.2,0.1"/>
	<path class="st16" d="M-458.7,778.9c0,0,1.1,33.3-6,56.9c0,0,0.2,0,1-0.1c0,0,6.7-20.9,6.2-56.9"/>
	<g>
		<line class="st17" x1="-458.7" y1="779.8" x2="-457.1" y2="779.8"/>
		<line class="st17" x1="-458.7" y1="781" x2="-457.1" y2="780.9"/>
		<line class="st17" x1="-458.7" y1="782.1" x2="-457.1" y2="782"/>
		<line class="st17" x1="-458.7" y1="783.3" x2="-457.1" y2="783.3"/>
		<line class="st17" x1="-458.7" y1="784.5" x2="-457.1" y2="784.4"/>
		<line class="st17" x1="-458.7" y1="785.6" x2="-457.1" y2="785.5"/>
	</g>
	<g>
		<line class="st17" x1="-458.7" y1="786.9" x2="-457.1" y2="786.8"/>
		<line class="st17" x1="-458.7" y1="788" x2="-457.1" y2="787.9"/>
		<line class="st17" x1="-458.7" y1="789.1" x2="-457.1" y2="789.1"/>
		<line class="st17" x1="-458.7" y1="790.3" x2="-457.3" y2="790.3"/>
		<line class="st17" x1="-458.8" y1="791.5" x2="-457.2" y2="791.4"/>
		<line class="st17" x1="-458.8" y1="792.6" x2="-457.3" y2="792.6"/>
	</g>
	<g>
		<line class="st17" x1="-459" y1="794" x2="-457.4" y2="794"/>
		<line class="st17" x1="-459" y1="795.2" x2="-457.4" y2="795.1"/>
		<line class="st17" x1="-459" y1="796.3" x2="-457.4" y2="796.3"/>
		<line class="st17" x1="-459" y1="797.5" x2="-457.4" y2="797.5"/>
		<line class="st17" x1="-459" y1="798.7" x2="-457.4" y2="798.6"/>
		<line class="st17" x1="-459" y1="799.8" x2="-457.4" y2="799.7"/>
	</g>
	<g>
		<line class="st17" x1="-459.4" y1="801.3" x2="-457.6" y2="801.4"/>
		<line class="st17" x1="-459.5" y1="802.4" x2="-457.7" y2="802.5"/>
		<line class="st17" x1="-459.7" y1="803.5" x2="-457.8" y2="803.6"/>
		<line class="st17" x1="-459.8" y1="804.7" x2="-458" y2="804.8"/>
		<line class="st17" x1="-459.9" y1="805.9" x2="-458.1" y2="806"/>
		<line class="st17" x1="-460.1" y1="807" x2="-458.2" y2="807.1"/>
	</g>
	<g>
		<line class="st17" x1="-460.2" y1="808.3" x2="-458.4" y2="808.4"/>
		<line class="st17" x1="-460.4" y1="809.4" x2="-458.5" y2="809.5"/>
		<line class="st17" x1="-460.5" y1="810.5" x2="-458.6" y2="810.6"/>
		<line class="st17" x1="-460.7" y1="811.7" x2="-459" y2="811.8"/>
		<line class="st17" x1="-460.9" y1="812.9" x2="-459.1" y2="812.9"/>
		<line class="st17" x1="-461.1" y1="814" x2="-459.2" y2="814.1"/>
	</g>
	<g>
		<line class="st17" x1="-461" y1="815.4" x2="-459.5" y2="815.5"/>
		<line class="st17" x1="-461.1" y1="816.5" x2="-459.6" y2="816.6"/>
		<line class="st17" x1="-461.2" y1="817.6" x2="-459.7" y2="817.7"/>
		<line class="st17" x1="-461.4" y1="818.8" x2="-459.8" y2="818.9"/>
		<line class="st17" x1="-461.5" y1="820" x2="-459.9" y2="820.1"/>
		<line class="st17" x1="-461.6" y1="821.1" x2="-460" y2="821.2"/>
	</g>
	<g>
		<line class="st17" x1="-461.9" y1="822.5" x2="-460.3" y2="822.7"/>
		<line class="st17" x1="-462.1" y1="823.6" x2="-460.5" y2="823.8"/>
		<line class="st17" x1="-462.2" y1="824.7" x2="-460.7" y2="824.9"/>
		<line class="st17" x1="-462.5" y1="825.9" x2="-460.9" y2="826.1"/>
		<line class="st17" x1="-462.6" y1="827" x2="-461.1" y2="827.2"/>
		<line class="st17" x1="-462.8" y1="828.1" x2="-461.3" y2="828.4"/>
	</g>
	<g>
		<line class="st17" x1="-463.3" y1="829.3" x2="-461.8" y2="829.7"/>
		<line class="st17" x1="-463.6" y1="830.5" x2="-462" y2="830.8"/>
		<line class="st17" x1="-463.8" y1="831.6" x2="-462.3" y2="831.9"/>
		<line class="st17" x1="-464.1" y1="832.7" x2="-462.6" y2="833"/>
		<line class="st17" x1="-464.4" y1="833.9" x2="-462.8" y2="834.2"/>
		<line class="st17" x1="-464.6" y1="835" x2="-463.1" y2="835.3"/>
	</g>
	<g>
		<polygon class="st18" points="-457.8,778.8 -456.9,778.7 -455.7,780.4 -456.9,780.8 		"/>
		<circle class="st19" cx="-456.7" cy="780" r="0.4"/>
	</g>
	<path class="st6" d="M-468.5,752.2c0,0,1.1-0.6,2.9,0.6c0,0,0.1-13.5,0.8-18c0.2-1.4-3.6-4.3-4.5,0.3c-0.8,4.1,0.8,16.8,0.8,16.8
		L-468.5,752.2z"/>
	<path class="st13" d="M-468,751.4c0,0,0.6-0.3,1.6,0.3c0,0,0.1-7.5,0.4-10c0.1-0.8-2-2.4-2.5,0.2c-0.4,2.3,0.5,9.4,0.5,9.4
		L-468,751.4z"/>
	<path class="st6" d="M-454.2,751.6c0,0,2-0.9,2.7,1.1c0,0,8-10.9,11.1-14.2c1-1-0.4-5.6-3.8-2.3c-3.1,2.9-9.1,14.2-9.1,14.2
		L-454.2,751.6z"/>
	<path class="st13" d="M-452.7,750.6c0,0,0.9-0.2,1.3,0.9c0,0,4.2-5.8,5.9-7.6c0.5-0.6-0.2-3-2-1.2c-1.6,1.5-4.9,7.6-4.9,7.6
		L-452.7,750.6z"/>
	<path class="st7" d="M-463.3,750.4c0,0,0.3-2.4-1.3-3.3c0,0,2.6,0.9,2.7,2.8l0.7-3.4l0.3,3.5c0,0,0.9-3.1,2.2-2.5
		c0,0-1.5,1.7-0.8,2.9c0,0,0.3-1.4-0.8-3.4c0,0,1.9,1.4,1.9,3.4H-463.3z"/>
	<path class="st7" d="M-480.2,755.7c0,0-3.5-0.2-4.5,3.2c0,0,3.5-2.6,4.3-1.5l1.9-2.3c0,0-1.9-3.1-3.8-3.1
		C-482.3,751.9-479.6,753.4-480.2,755.7z"/>
	<path class="st7" d="M-480.4,754.7c0,0-1.6-1.2-3.4-1.3l2.7,1.9c0,0-3.2-1.1-3.7,0.2l3.4,0.9"/>
	<path class="st7" d="M-482,765.2c0,0-2.3,1.5-3.3,5.5l3.3-3.1c0,0-3.5,4.7-4.3,6.9c0,0,4.7-6,5.5-3.6c0,0-2.9,2-5.7,1.3
		c0,0,3.1,2.5,5.3,1.5"/>
	<path class="st7" d="M-483,785.3c0,0,0.2-2.2-1.3-2.2c0,0,2.1-0.9,2.1,0.5l-0.4-2.5c0,0-0.6,0.4-1.7,0.5l1.7-1.4l-0.1-1.7
		c0,0-1.3,1.8-1.4,2.9c0,0,2-2.7,2-2.4"/>
	<path class="st7" d="M-481.7,782.7c0,0-2.1,0.3-3.6-0.9c0,0,2.9,0.4,3.1-0.1"/>
	<path class="st7" d="M-441.1,775.5c0,0,2.8,2,3.1,4.3l-3.1-3.1l0.9,7.2c0,0,1.7,1.1,1.7,2.8c0,0-0.9-1.9-1.5-1.9
		c0,0,0.9,2.3,1.9,1.7c0,0-0.7,1.5-2.4-0.5C-442.3,783.9-441.1,775.5-441.1,775.5z"/>
	<path class="st7" d="M-482.7,803.4c0,0-1.3-0.4-1.2-2.8l1.4,1.9"/>
</g>
<g>
	<path class="st5" d="M-545.6,792c0,0-0.2,3.6,0.2,4.3c0.4,0.7,5.5,5.9,5.5,5.9s0.2,0.8-0.4,1c-0.6,0.3-0.4-0.6-0.4-0.6
		s-1,1.1-1.2,0.1c0,0-1.3,0.9-0.9-0.8l-5.2-3.9c0,0-4.5-3.7-3.4-6.6c1.1-2.9,2.8-2.6,3.8-2.2C-546.8,789.4-545.5,790.2-545.6,792z"
		/>
	<path class="st6" d="M-570.7,803.2l1,11c0,0-1.4,2-3.1-0.5c0,0-3,0.5-1.9-2.2c0,0-2.3,0.5-2.3-1.4c0-1.9,2.1-1.6,2.1-1.6
		s-3.3-0.3-0.9-2c0,0-2-2,0.6-1.6c0,0-1.3-2,0.7-2.4c0,0,1.1-0.1,1.5,1.1C-572.9,803.6-573.1,801.7-570.7,803.2z"/>
	<path class="st7" d="M-576.6,777.6C-576.6,777.6-576.6,777.6-576.6,777.6C-576.6,777.6-576.6,777.6-576.6,777.6z M-576.7,777.7
		C-576.6,777.6-576.6,777.6-576.7,777.7C-576.6,777.6-576.6,777.6-576.7,777.7z M-576.6,777.6C-576.6,777.6-576.6,777.6-576.6,777.6
		C-576.6,777.6-576.6,777.6-576.6,777.6z M-576.7,777.7C-576.6,777.6-576.6,777.6-576.7,777.7C-576.6,777.6-576.6,777.6-576.7,777.7
		z"/>
	<path class="st7" d="M-545.6,771.2c2.1,10.8,1.2,36.1-2.9,44c0,0-13.3,9.1-22.4,0c0,0-1.6-19.3-0.9-30.6c0,0-1.1-11.6,0.3-15.1
		c1.2-3,3.9-4.4,12.3-4.3C-550.2,765.2-546.9,764.4-545.6,771.2z"/>
	<path class="st7" d="M-570.9,815c0,0,1.2,4.3,0.3,8.3c0,0-0.4,2.2-0.9,3c0,0-0.5,0.9,0.2,1.5c0,0,0.4,0.5,1.9,0
		c1.5-0.6,4.1,1,4.1,1s5,2.1,6.2-0.5c1.2-2.5-3.3-2.8-3.3-2.8l-6.4-0.6c0,0-0.7-2.5,0.5-3.8c0,0,2.1-3.5,3.8-3.5l0,0.1
		c0,0,6,0.8,8.5-0.2c0,0,1,3.8-0.3,7.1c0,0-0.2,1.1,0.9,0.9c1.1-0.1,3.3,0,4.4,1.1c1.1,1.1,4.9,1.2,5-1.1c0-2.3-2.4-2-2.7-2
		c-0.4,0-5.3-0.5-5.3-0.5s-0.7-1.6,1-3.3c1.7-1.7,5-4.5,5-5.7"/>
	<path class="st6" d="M-564,771.7c-1.2,1.2-2.9,3.3-3.1,5.8c-0.2,2.2,1.3,4.3,3.4,5c2.9,0.9,8,1.8,13.3-0.8c1.1-0.6,2-1.5,2.5-2.7
		c0.4-1.1,0.8-2.5,0.8-4c0-2.4-1.7-4.4-4-4.8c-2.5-0.4-6.3-0.7-10.6,0.2C-562.5,770.6-563.3,771.1-564,771.7z"/>
	<path class="st8" d="M-557.7,779.6c0,0,0,0.2,0.2,0.2s0.2-0.2,0.2-0.2L-557.7,779.6z"/>
	
		<ellipse transform="matrix(-0.2856 -0.9583 0.9583 -0.2856 -1466.3773 459.4234)" class="st9" cx="-562" cy="776.3" rx="2.1" ry="2.4"/>
	
		<ellipse transform="matrix(-0.2856 -0.9583 0.9583 -0.2856 -1466.3064 459.5458)" class="st8" cx="-561.9" cy="776.3" rx="1.9" ry="2.1"/>
	<path class="st8" d="M-556.3,779.6l0.4,0c0,0,0.1,0.3-0.2,0.4C-556.4,779.9-556.3,779.6-556.3,779.6z"/>
	<path class="st8" d="M-557,779.6l0.4,0c0,0,0.1,0.2-0.1,0.3C-557,780-557.1,779.7-557,779.6z"/>
	
		<ellipse transform="matrix(-0.2856 -0.9583 0.9583 -0.2856 -1466.0829 460.7274)" class="st10" cx="-561.3" cy="776.8" rx="0.8" ry="0.9"/>
	<path class="st11" d="M-559.6,772.5l-0.3,0.8c0,0-3.4-1.5-5.1,1.9C-564.9,775.2-564.9,771.4-559.6,772.5z"/>
	
		<ellipse transform="matrix(-0.2856 -0.9583 0.9583 -0.2856 -1451.0791 469.1067)" class="st9" cx="-550.7" cy="775.4" rx="1.9" ry="2.1"/>
	<path class="st5" d="M-567.2,791.9c0,0-2.1,2.9-2.1,3.7c0,0.8,1.4,8,1.4,8s-0.2,0.8-0.8,0.6c-0.6-0.1,0-0.8,0-0.8s-1.4,0.4-1-0.6
		c0,0-1.6,0-0.3-1.1l-2.2-6.1c0,0-1.8-5.6,0.7-7.4c2.5-1.9,3.7-0.7,4.3,0.2C-566.8,789.1-566.2,790.6-567.2,791.9z"/>
	
		<ellipse transform="matrix(-0.2856 -0.9583 0.9583 -0.2856 -1451.3295 469.0755)" class="st8" cx="-550.8" cy="775.5" rx="1.7" ry="1.9"/>
	
		<ellipse transform="matrix(-0.2856 -0.9583 0.9583 -0.2856 -1451.7043 469.8245)" class="st10" cx="-550.7" cy="776" rx="0.8" ry="0.9"/>
	<path class="st11" d="M-553,771.9l0.4,0.7c0,0,3.3-1.5,5,1.3C-547.6,773.9-548.2,770-553,771.9z"/>
	<circle class="st12" cx="-551.1" cy="779" r="0.6"/>
	
		<ellipse transform="matrix(-0.2856 -0.9583 0.9583 -0.2856 -1469.8485 464.4182)" class="st12" cx="-561.8" cy="780.1" rx="0.5" ry="0.8"/>
	<g>
		<path class="st13" d="M-555.5,777.2c0,0,0.3-0.2,0.5,0c0.2,0.2,0.7,0.2,0.6-0.2c0-0.4-0.5-0.7-0.9-0.6c-0.4,0.1-0.9,0.2-1,0.8
			C-556.3,777.8-555.5,777.2-555.5,777.2z"/>
		<circle class="st6" cx="-554.9" cy="776.9" r="0.1"/>
		<circle class="st6" cx="-555.9" cy="777" r="0.1"/>
	</g>
	<g>
		<path class="st20" d="M-555.2,775.3c0,0-0.2,0.3,0,0.8"/>
		<path class="st20" d="M-554.7,775.1c0,0-0.7-0.3-1.3,0.4"/>
		<path class="st20" d="M-554.8,774.6c0,0-0.6-0.2-1,0.2"/>
	</g>
	<polygon class="st8" points="-555.7,779.4 -555.6,779.9 -555.2,779.8 -555.2,779.4 	"/>
	<polygon class="st8" points="-555,779.3 -555,779.8 -554.6,779.7 -554.6,779.3 	"/>
	<path class="st21" d="M-555.2,777.1c0,0,0.1,1.5,0.5,2.2c0,0-2.3,0.7-5.2,0.1"/>
	<path class="st16" d="M-556.6,783.4c0,0,0.7,21-3.8,35.8c0,0,0.2,0,0.7,0c0,0,4.2-13.2,3.9-35.9"/>
	<g>
		<line class="st22" x1="-556.5" y1="784" x2="-555.5" y2="783.9"/>
		<line class="st22" x1="-556.5" y1="784.7" x2="-555.5" y2="784.7"/>
		<line class="st22" x1="-556.5" y1="785.4" x2="-555.5" y2="785.4"/>
		<line class="st22" x1="-556.5" y1="786.2" x2="-555.5" y2="786.1"/>
		<line class="st22" x1="-556.5" y1="786.9" x2="-555.5" y2="786.9"/>
		<line class="st22" x1="-556.5" y1="787.6" x2="-555.5" y2="787.6"/>
	</g>
	<g>
		<line class="st22" x1="-556.5" y1="788.4" x2="-555.5" y2="788.4"/>
		<line class="st22" x1="-556.5" y1="789.1" x2="-555.5" y2="789.1"/>
		<line class="st22" x1="-556.5" y1="789.8" x2="-555.5" y2="789.8"/>
		<line class="st22" x1="-556.6" y1="790.6" x2="-555.6" y2="790.6"/>
		<line class="st22" x1="-556.6" y1="791.3" x2="-555.6" y2="791.3"/>
		<line class="st22" x1="-556.6" y1="792" x2="-555.6" y2="792"/>
	</g>
	<g>
		<line class="st22" x1="-556.7" y1="792.9" x2="-555.7" y2="792.9"/>
		<line class="st22" x1="-556.7" y1="793.6" x2="-555.7" y2="793.6"/>
		<line class="st22" x1="-556.7" y1="794.4" x2="-555.7" y2="794.3"/>
		<line class="st22" x1="-556.7" y1="795.1" x2="-555.7" y2="795.1"/>
		<line class="st22" x1="-556.7" y1="795.8" x2="-555.7" y2="795.8"/>
		<line class="st22" x1="-556.7" y1="796.6" x2="-555.7" y2="796.5"/>
	</g>
	<g>
		<line class="st22" x1="-557" y1="797.5" x2="-555.8" y2="797.5"/>
		<line class="st22" x1="-557.1" y1="798.2" x2="-555.9" y2="798.3"/>
		<line class="st22" x1="-557.2" y1="798.9" x2="-556" y2="799"/>
		<line class="st22" x1="-557.2" y1="799.7" x2="-556.1" y2="799.7"/>
		<line class="st22" x1="-557.3" y1="800.4" x2="-556.2" y2="800.4"/>
		<line class="st22" x1="-557.4" y1="801.1" x2="-556.3" y2="801.2"/>
	</g>
	<g>
		<line class="st22" x1="-557.5" y1="801.9" x2="-556.3" y2="801.9"/>
		<line class="st22" x1="-557.6" y1="802.6" x2="-556.4" y2="802.7"/>
		<line class="st22" x1="-557.7" y1="803.3" x2="-556.5" y2="803.4"/>
		<line class="st22" x1="-557.8" y1="804.1" x2="-556.7" y2="804.1"/>
		<line class="st22" x1="-557.9" y1="804.8" x2="-556.8" y2="804.8"/>
		<line class="st22" x1="-558" y1="805.5" x2="-556.9" y2="805.6"/>
	</g>
	<g>
		<line class="st22" x1="-558" y1="806.4" x2="-557" y2="806.4"/>
		<line class="st22" x1="-558.1" y1="807.1" x2="-557.1" y2="807.1"/>
		<line class="st22" x1="-558.1" y1="807.8" x2="-557.2" y2="807.9"/>
		<line class="st22" x1="-558.2" y1="808.5" x2="-557.2" y2="808.6"/>
		<line class="st22" x1="-558.3" y1="809.3" x2="-557.3" y2="809.3"/>
		<line class="st22" x1="-558.4" y1="810" x2="-557.4" y2="810"/>
	</g>
	<g>
		<line class="st22" x1="-558.5" y1="810.8" x2="-557.6" y2="811"/>
		<line class="st22" x1="-558.7" y1="811.5" x2="-557.7" y2="811.7"/>
		<line class="st22" x1="-558.8" y1="812.2" x2="-557.8" y2="812.4"/>
		<line class="st22" x1="-558.9" y1="813" x2="-557.9" y2="813.1"/>
		<line class="st22" x1="-559" y1="813.7" x2="-558.1" y2="813.8"/>
		<line class="st22" x1="-559.2" y1="814.4" x2="-558.2" y2="814.5"/>
	</g>
	<g>
		<line class="st22" x1="-559.4" y1="815.2" x2="-558.5" y2="815.4"/>
		<line class="st22" x1="-559.6" y1="815.9" x2="-558.7" y2="816.1"/>
		<line class="st22" x1="-559.8" y1="816.6" x2="-558.8" y2="816.8"/>
		<line class="st22" x1="-560" y1="817.3" x2="-559" y2="817.5"/>
		<line class="st22" x1="-560.1" y1="818" x2="-559.2" y2="818.2"/>
		<line class="st22" x1="-560.3" y1="818.7" x2="-559.3" y2="818.9"/>
	</g>
	<g>
		<polygon class="st18" points="-556,783.3 -555.4,783.3 -554.6,784.3 -555.4,784.6 		"/>
		<circle class="st19" cx="-555.3" cy="784.1" r="0.3"/>
	</g>
	<path class="st6" d="M-562.7,766.6c0,0,0.7-0.4,1.8,0.4c0,0,0.1-8.5,0.5-11.3c0.1-0.9-2.2-2.7-2.8,0.2c-0.5,2.6,0.5,10.6,0.5,10.6
		L-562.7,766.6z"/>
	<path class="st13" d="M-562.4,766.1c0,0,0.4-0.2,1,0.2c0,0,0-4.7,0.3-6.3c0.1-0.5-1.2-1.5-1.6,0.1
		C-562.9,761.5-562.4,766-562.4,766.1L-562.4,766.1z"/>
	<path class="st6" d="M-553.7,766.2c0,0,1.2-0.5,1.7,0.7c0,0,5-6.9,7-8.9c0.6-0.6-0.2-3.5-2.4-1.5c-1.9,1.8-5.8,8.9-5.8,8.9
		L-553.7,766.2z"/>
	<path class="st13" d="M-552.7,765.6c0,0,0.5-0.1,0.8,0.5c0,0,2.7-3.7,3.7-4.8c0.3-0.3-0.1-1.9-1.3-0.8c-1,1-3.1,4.8-3.1,4.8
		L-552.7,765.6z"/>
	<path class="st7" d="M-559.4,765.4c0,0,0.2-1.5-0.8-2.1c0,0,1.6,0.6,1.7,1.8l0.4-2.2l0.2,2.2c0,0,0.6-1.9,1.4-1.6
		c0,0-0.9,1.1-0.5,1.8c0,0,0.2-0.9-0.5-2.2c0,0,1.2,0.9,1.2,2.2H-559.4z"/>
	<path class="st7" d="M-570.1,768.8c0,0-2.2-0.1-2.8,2c0,0,2.2-1.6,2.7-1l1.2-1.4c0,0-1.2-1.9-2.4-2
		C-571.4,766.4-569.7,767.3-570.1,768.8z"/>
	<path class="st7" d="M-570.2,768.1c0,0-1-0.8-2.2-0.8l1.7,1.2c0,0-2-0.7-2.3,0.1l2.2,0.6"/>
	<path class="st7" d="M-571.2,774.7c0,0-1.4,1-2,3.5l2-2c0,0-2.2,2.9-2.7,4.4c0,0,2.9-3.8,3.5-2.3c0,0-1.8,1.2-3.6,0.8
		c0,0,2,1.6,3.3,0.9"/>
	<path class="st7" d="M-571.9,787.4c0,0,0.1-1.4-0.8-1.4c0,0,1.3-0.5,1.3,0.3l-0.2-1.6c0,0-0.4,0.2-1.1,0.3l1.1-0.9l0-1.1
		c0,0-0.8,1.1-0.9,1.8c0,0,1.2-1.7,1.2-1.5"/>
	<path class="st7" d="M-571.1,785.8c0,0-1.3,0.2-2.3-0.6c0,0,1.9,0.3,1.9-0.1"/>
	<path class="st7" d="M-545.5,781.3c0,0,1.7,1.3,1.9,2.7l-2-2l0.6,4.5c0,0,1.1,0.7,1.1,1.8c0,0-0.6-1.2-0.9-1.2c0,0,0.5,1.4,1.2,1
		c0,0-0.4,1-1.5-0.3S-545.5,781.3-545.5,781.3z"/>
	<path class="st7" d="M-571.6,798.9c0,0-0.8-0.3-0.8-1.7l0.9,1.2"/>
</g>
</svg>
