<?xml version="1.0" encoding="utf-8"?>
<!-- Generator: Adobe Illustrator 19.1.0, SVG Export Plug-In . SVG Version: 6.00 Build 0)  -->
<svg version="1.1" id="Layer_1" xmlns="http://www.w3.org/2000/svg" xmlns:xlink="http://www.w3.org/1999/xlink" x="0px" y="0px"
	 viewBox="-100 217.5 280.5 178.5" style="enable-background:new -100 217.5 280.5 178.5;" xml:space="preserve">
<style type="text/css">
	.st0{fill:#E9E3C4;}
	.st1{fill:#A6DCE8;}
	.st2{fill:#6BA2A7;}
	.st3{font-family:'Lato-Regular';}
	.st4{font-size:14.5344px;}
	.st5{font-size:9.084px;}
	.st6{fill:#7DB6BF;}
	.st7{fill:#436A8D;}
	.st8{fill:#6BA0A5;}
	.st9{fill:#9E6D30;}
	.st10{fill:#F3FAFC;}
	.st11{fill:#1A1F36;}
	.st12{fill:#FFFFFF;}
	.st13{fill:#072526;}
	.st14{clip-path:url(#SVGID_2_);fill:#072526;}
	.st15{clip-path:url(#SVGID_2_);fill:#6BA0A5;}
	.st16{clip-path:url(#SVGID_4_);fill:#072526;}
	.st17{clip-path:url(#SVGID_4_);fill:#6BA0A5;}
</style>
<rect x="-100.5" y="217.5" class="st0" width="281" height="178.5"/>
<rect x="-47.1" y="289.3" class="st1" width="75.9" height="75.9"/>
<g>
	<text transform="matrix(1 0 0 1 -31.9721 249.9849)" class="st2 st3 st4">Welcome to my site</text>
</g>
<g>
	<text transform="matrix(1 0 0 1 -33.9038 265.9121)" class="st2 st3 st5">Today I’m Learning HTML and CSS</text>
</g>
<g>
	<g>
		<path class="st6" d="M106.9,325.7c1,0.7,5,11.3,5,11.3s-0.1,1.2-1,1.3c-1,0.1-0.3-1.1-0.3-1.1s-1.9,1-1.8-0.5c0,0-2.3,0.6-0.8-1.6
			l-5.2-7.5c-0.4-0.6-0.5-1.4-0.3-2.1C103,324.4,104,323.6,106.9,325.7z"/>
		<path class="st6" d="M68.1,344.2l0.5,4.9c0,0-2,1.8-3,0.7c-1-1.2,0.2-1.3,0.2-1.3s-3.8,0.3-2.2-1.6c0,0-2.4-1.9,0-2.2
			c0,0-2-2.6,1.1-2.6c0,0,0.9-3.4,3.2-0.5L68.1,344.2z"/>
		<path class="st7" d="M105.9,320c0-0.1,0-0.2,0-0.4c0,0,0,0,0,0"/>
		<path class="st8" d="M83.4,361.9c0,0,5.9,0.6,8.4-0.1c0,0,1,2.6-0.3,4.8c0,0-0.2,0.7,0.8,0.6s3.3,0,4.4,0.7
			c1.1,0.7,4.9,0.8,4.9-0.7c0-1.6-2.3-1.4-2.7-1.4c-0.4,0-5.2-0.3-5.2-0.3s-0.7-1.1,0.9-2.2c1.7-1.1,4.9-3,5-3.9
			c0.1-0.9-0.1-1.3-0.1-1.3L85.1,356L83.4,361.9z"/>
		<path class="st9" d="M88.1,306.4C88.1,306.4,88.1,306.4,88.1,306.4c-0.1,0.1-0.1,0.1-0.2,0.1C88,306.4,88.1,306.4,88.1,306.4z"/>
		<path class="st8" d="M75.3,302.3 M105.9,319.5c-0.1-0.9-0.6-2.5-0.3-3.6c1.2,0.6,0.2-0.2,0.9-0.6c0.1,0,0.3,0,0.4,0
			c-0.1,1.5,1.2,1.6,1.2,1.6c-0.4-1.1-0.1-1.6,0.2-1.8c0.1,0,0.2,0,0.3,0c-0.2,0.7,0.6,1.3,0.6,1.3c0-0.7,0.4-0.9,0.7-0.8
			c0.5,1.1,2.2,1,2.2,1c-0.5,0,0.6-3.8,0.6-3.8c1.6-0.3,4.8-5.8,4.8-5.8c0.4,0.8,2.2,0.7,2.2,0.7c-1-0.8-1.3-2.5-1.3-2.5
			c0.5-3.5-0.8-6.6-0.8-6.6l2.7-0.4l-2.7-1.8c1.7,0.2,2.9-0.5,2.9-0.5c-2.7,0.1-4.9-1.3-4.9-1.3c-1.7-2.3-3.6-3.9-5.1-4.9
			c0.6-0.1,1.1-0.3,1.1-0.9c0,0-0.6,0.5-1.9,0.4c-1.6-0.9-2.8-1.2-2.8-1.2c0.4-0.5,2.8-0.5,2.8-0.5c-1.3-1-4.1-0.2-4.1-0.2
			c-0.1-0.9,1.9-2.1,1.9-2.1c-1.5-0.4-2.7,1.1-2.7,1.1s-1.1-4.3-0.9-2.8c0.1,1.5-0.8,2.4-0.8,2.4c-0.7-0.1-1.5-2.3-1.5-2.3l0.1,2.4
			l0,0.5c0-0.2-0.1-0.4-0.2-0.5c-0.9-1.3-3.9-0.9-3.9-0.9c0.4,0,0.9,0.2,1.4,0.5c-0.9-0.1-1.8-0.3-2.8-0.2c-1.9,0.2-4,0.9-7.4,1.7
			c-3.6,0.8-6.1,3.5-6.1,3.5s-3,2.8-4.7,6.6c0,0-0.1,0.1-0.2,0.4l-6.3,17.4c0,0-4,10-5.5,19.2c-0.2,1.2-0.3,2.5-0.2,3.7
			c0.1,4.1,0.9,13.5,5.1,17.6c1.1,1.1,5.3,4.4,6.3,4.4c0,0,1.2,2.9,0.3,5.6c0,0-0.4,1.5-0.8,2c0,0-0.5,0.6,0.2,1c0,0,0.4,0.4,1.9,0
			c1.5-0.4,4.1,0.7,4.1,0.7s5,1.4,6.1-0.3c1.2-1.7-3.2-1.9-3.2-1.9l-6.3-0.4c0,0-0.7-1.7,0.5-2.6c0,0,2.5-2.8,4.1-2.3
			c0,0,3.4,0.4,3.1-4.9c6.2,4.1,12.5,1.1,12.5,1.1S111.2,341.7,105.9,319.5 M79.2,291.7 M83.3,287.7 M73,306.2
			C73,306.2,73,306.2,73,306.2C73,306.2,73.1,306.2,73,306.2C73.1,306.2,73.1,306.2,73,306.2z"/>
		<path class="st6" d="M114.1,299.5c1.2,1.9,2.1,3.4-1.2,9c-3.4,5.7-8.3,2.9-8.3,2.9s-3.2-2.5-7.4-1.1s-6.6,1.4-8.2-1.4
			c-1.6-2.7-1.1-7.1,1.1-9.6c2.1-2.5,4.3-5.2,10.2-4c1.1,0.2,1.8,0.5,4,2.1s5.3,0.8,7,0.6C112,298,113.3,298.2,114.1,299.5z"/>
		<path class="st8" d="M107.9,299.2l0.2,0.8c0,0,3.8-0.5,4.6,2.8C112.7,302.8,113.3,298.7,107.9,299.2z"/>
		<path class="st8" d="M101.4,297.5l-0.5,0.7c0,0-3-2.5-5.6,0.4C95.3,298.6,96.4,294.7,101.4,297.5z"/>
		<path class="st6" d="M97.5,288l1.9,0.3c0,0,0.6-10.3,0.7-12c0.1-1.3-1.5-2.2-2.1-1.4C97.2,275.6,96.1,277.2,97.5,288z"/>
		<path class="st1" d="M97.8,288l1.3,0.2c0,0,0.4-7.2,0.5-8.3c0.1-0.9-1-1.5-1.5-1C97.6,279.4,96.8,280.5,97.8,288z"/>
		<path class="st6" d="M105.5,288.6l1.8,0.6c0,0,2.5-10,2.9-11.6c0.3-1.2-1-2.4-1.8-1.8C107.5,276.4,106.1,277.8,105.5,288.6z"/>
		<path class="st1" d="M105.8,288.6l1.3,0.5c0,0,1.7-7,2-8.1c0.2-0.8-0.7-1.7-1.3-1.3C107.2,280.1,106.2,281.1,105.8,288.6z"/>
		<g>
			<circle class="st10" cx="109.1" cy="303.4" r="2.9"/>
			<circle class="st11" cx="109" cy="303.4" r="1.2"/>
			<path class="st1" d="M106.2,303.6c0,0,3.8,0,5.5,1.4c0,0-1.1,1.7-3.1,1.3C106.7,305.8,106.2,304.3,106.2,303.6z"/>
		</g>
		<g>
			<circle class="st10" cx="98.3" cy="301.3" r="2.9"/>
			<circle class="st11" cx="98.1" cy="301.4" r="1.2"/>
			<path class="st1" d="M95.4,302.1c0,0,3.6-0.7,5.6,0.3c0,0-0.7,1.8-2.7,1.8C96.4,304.2,95.6,302.7,95.4,302.1z"/>
		</g>
		<path class="st8" d="M100,304c-0.2-0.9,1-1.4,1.5-0.7c0.3,0.4,0.8,0.8,1.7,1c1.1,0.1,1.8-0.2,2.1-0.4c0.3-0.3,0.5-0.1,0.7-0.1
			c0.2,0,0.7,0.8,0.5,1.4c-0.5,1.1-1.7,1.2-2.7,1.2C101.6,306.1,100.3,305.1,100,304C100,304,100,304,100,304z"/>
		<path class="st1" d="M101.4,303.8c0,0,0.6,1,2.1,1.2c1.1,0.2,1.6-0.1,1.9-0.3c0.1-0.1,0.3-0.2,0.5-0.2c0.2,0,0.4,0.1,0.2,0.6
			c-0.4,0.8-1.6,0.9-2.7,0.7s-2.5-0.9-2.8-1.7S101.2,303.4,101.4,303.8z"/>
		<polygon class="st12" points="102.8,304.8 102.8,305.3 103.2,305.4 103.2,304.9 		"/>
		<polygon class="st12" points="103.4,304.9 103.4,305.4 103.8,305.4 103.8,305 		"/>
		<path class="st12" d="M102.2,304.5l0.4,0.2c0,0,0,0.3-0.4,0.2S102.2,304.5,102.2,304.5z"/>
		<path class="st12" d="M101.7,304.1l0.4,0.3c0,0,0,0.3-0.4,0.2S101.7,304.1,101.7,304.1z"/>
		<path class="st12" d="M101.3,303.6l0.3,0.4c0,0-0.1,0.2-0.4,0.1C100.9,303.9,101.3,303.6,101.3,303.6z"/>
		<path class="st12" d="M105.2,304.7l0.3-0.2c0,0,0.3,0.2,0,0.4S105.2,304.7,105.2,304.7z"/>
		<path class="st12" d="M104.6,304.9l0.5-0.2c0,0,0.2,0.2-0.1,0.4S104.6,304.9,104.6,304.9z"/>
		<path class="st12" d="M104,305l0.5,0c0,0,0.1,0.2-0.2,0.4S104,305,104,305z"/>
		<path class="st1" d="M104.6,303.5c-0.1,0.4-0.4-0.1-1-0.2s-1.1,0.2-1-0.2s0.6-0.6,1.1-0.5C104.3,302.7,104.7,303.1,104.6,303.5z"
			/>
		<circle class="st8" cx="103" cy="303" r="0"/>
		<circle class="st8" cx="104.2" cy="303.2" r="0"/>
	</g>
	<path class="st13" d="M105.6,316c0,0-17.7,3.5-31.5-8.5l0.9-2c0,0,11.1,7.9,31,9.7L105.6,316z"/>
	<path class="st13" d="M74.9,305.5c0,0-11.7,15.3-17.8,38.1c0,0-1.1,4.3-7.7,4.7c0,0,0,5.9,20.1,6.3c0,0,13.7-30.9,15.9-42.3
		L74.9,305.5z"/>
	<polygon class="st13" points="98,332.7 94.7,338.6 96,339.4 104.6,324.1 103.3,323.4 	"/>
	<path class="st6" d="M94,325.7c1,0.7,5,11.3,5,11.3s-0.1,1.2-1,1.3c-1,0.1-0.3-1.1-0.3-1.1s-1.9,1-1.8-0.5c0,0-2.3,0.6-0.8-1.6
		l-5.2-7.5c-0.4-0.6-0.5-1.4-0.3-2.1C90.1,324.4,91.1,323.6,94,325.7z"/>
	<path class="st13" d="M105.1,318.8c0,0,0.2,0.8,1.3,0.8c0,0-0.5,0.3-0.3,1.3c0,0-0.3-0.5-1.1-0.5
		C105,320.3,105.4,319.7,105.1,318.8z"/>
	<path class="st13" d="M101.9,320.3c0,0,0.2,0.8,1.3,0.8c0,0-0.5,0.3-0.3,1.3c0,0-0.3-0.5-1.1-0.5
		C101.7,321.8,102.2,321.2,101.9,320.3z"/>
	<path class="st13" d="M105.4,321.4c0,0-0.3,0.8,0.6,1.4c0,0-0.6,0-1,0.9c0,0,0-0.6-0.6-1.1C104.4,322.6,105.1,322.4,105.4,321.4z"
		/>
	<path class="st13" d="M105.7,324.3c0,0-0.3,0.8,0.6,1.4c0,0-0.6,0-1,0.9c0,0,0-0.6-0.6-1.1C104.8,325.5,105.5,325.3,105.7,324.3z"
		/>
	<path class="st13" d="M108.9,322.2c0,0-0.7,0.5-0.3,1.5c0,0-0.5-0.4-1.3,0.1c0,0,0.4-0.5,0.1-1.2
		C107.4,322.6,108.1,322.8,108.9,322.2z"/>
	<g>
		<defs>
			<path id="SVGID_1_" d="M105.3,288.5c-2.1,0.8-4.1,0-4.1,0s-1.1-0.9-1.1-2c0-1.1,3.5-7.6,3.6-7.8l0,0L105.3,288.5z"/>
		</defs>
		<clipPath id="SVGID_2_">
			<use xlink:href="#SVGID_1_"  style="overflow:visible;"/>
		</clipPath>
		<path class="st14" d="M105.3,288.5c-2.1,0.8-4.1,0-4.1,0s-1.1-0.9-1.1-2c0-1.1,3.5-7.6,3.6-7.8l0,0L105.3,288.5z"/>
		<path class="st15" d="M103,281.6c0,0,0.2,0.8,1.3,0.8c0,0-0.5,0.3-0.3,1.3c0,0-0.3-0.5-1.1-0.5C102.8,283.1,103.3,282.5,103,281.6
			z"/>
		<path class="st15" d="M100.7,283.5c0,0,0.2,0.8,1.3,0.8c0,0-0.5,0.3-0.3,1.3c0,0-0.3-0.5-1.1-0.5C100.6,285,101,284.4,100.7,283.5
			z"/>
		<path class="st15" d="M103.7,284.2c0,0-0.3,0.8,0.6,1.4c0,0-0.6,0-1,0.9c0,0,0-0.6-0.6-1.1C102.7,285.4,103.5,285.2,103.7,284.2z"
			/>
		<path class="st15" d="M105.7,285.9c0,0-0.3,0.8,0.6,1.4c0,0-0.6,0-1,0.9c0,0,0-0.6-0.6-1.1C104.7,287,105.4,286.9,105.7,285.9z"/>
		<path class="st15" d="M103.6,287.1c0,0-0.3,0.8,0.6,1.4c0,0-0.6,0-1,0.9c0,0,0-0.6-0.6-1.1C102.6,288.3,103.3,288.1,103.6,287.1z"
			/>
		<path class="st15" d="M104,279.7c0,0-0.7,0.5-0.3,1.5c0,0-0.5-0.4-1.3,0.1c0,0,0.4-0.5,0.1-1.2C102.6,280.1,103.2,280.4,104,279.7
			z"/>
		<path class="st15" d="M102.3,286.1c0,0-0.7,0.5-0.3,1.5c0,0-0.5-0.4-1.3,0.1c0,0,0.4-0.5,0.1-1.2
			C100.8,286.5,101.5,286.8,102.3,286.1z"/>
	</g>
</g>
<g>
	<g>
		<path class="st6" d="M-1.6,331.8c0.6,0.5,3.1,7.1,3.1,7.1s0,0.8-0.6,0.8c-0.6,0-0.2-0.7-0.2-0.7s-1.2,0.6-1.1-0.3
			c0,0-1.4,0.4-0.5-1l-3.2-4.7c-0.3-0.4-0.3-0.9-0.2-1.3C-4.1,331-3.5,330.5-1.6,331.8z"/>
		<path class="st6" d="M-25.8,343.4l0.3,3c0,0-1.2,1.1-1.9,0.4s0.1-0.8,0.1-0.8s-2.4,0.2-1.4-1c0,0-1.5-1.2,0-1.3
			c0,0-1.2-1.6,0.7-1.6c0,0,0.6-2.1,2-0.3L-25.8,343.4z"/>
		<path class="st7" d="M-2.3,328.3c0,0,0-0.1,0-0.3c0,0,0,0,0,0"/>
		<path class="st8" d="M-16.3,354.4c0,0,3.7,0.3,5.2-0.1c0,0,0.6,1.6-0.2,3c0,0-0.1,0.4,0.5,0.4c0.7-0.1,2,0,2.7,0.4
			c0.7,0.5,3,0.5,3-0.5c0-1-1.5-0.9-1.7-0.9c-0.2,0-3.2-0.2-3.2-0.2s-0.4-0.7,0.6-1.4c1-0.7,3-1.9,3.1-2.4c0.1-0.5-0.1-0.8-0.1-0.8
			l-9-1.3L-16.3,354.4z"/>
		<path class="st9" d="M-13.4,319.8C-13.4,319.8-13.4,319.8-13.4,319.8c-0.1,0.1-0.1,0.1-0.1,0.1C-13.4,319.8-13.4,319.8-13.4,319.8
			z"/>
		<path class="st8" d="M-21.3,317.2 M-2.3,328c-0.1-0.5-0.4-1.6-0.2-2.2c0.8,0.4,0.1-0.1,0.5-0.4c0.1,0,0.2,0,0.3,0
			c-0.1,0.9,0.8,1,0.8,1c-0.2-0.7-0.1-1,0.1-1.1c0.1,0,0.1,0,0.2,0c-0.1,0.5,0.4,0.8,0.4,0.8c0-0.4,0.2-0.5,0.5-0.5
			c0.3,0.7,1.4,0.6,1.4,0.6c-0.3,0,0.4-2.3,0.4-2.3c1-0.2,3-3.6,3-3.6c0.2,0.5,1.4,0.4,1.4,0.4c-0.6-0.5-0.8-1.6-0.8-1.6
			C5.8,316.9,5,315,5,315l1.7-0.2L5,313.6c1.1,0.1,1.8-0.3,1.8-0.3c-1.6,0.1-3-0.8-3-0.8c-1.1-1.5-2.2-2.4-3.2-3
			c0.4-0.1,0.7-0.2,0.7-0.5c0,0-0.4,0.3-1.2,0.2c-1-0.6-1.7-0.7-1.7-0.7c0.3-0.3,1.7-0.3,1.7-0.3c-0.8-0.6-2.6-0.1-2.6-0.1
			c-0.1-0.6,1.2-1.3,1.2-1.3c-1-0.2-1.7,0.7-1.7,0.7s-0.7-2.7-0.6-1.7c0.1,0.9-0.5,1.5-0.5,1.5c-0.5,0-0.9-1.4-0.9-1.4l0.1,1.5
			l0,0.3c0-0.1-0.1-0.2-0.1-0.3c-0.6-0.8-2.4-0.5-2.4-0.5c0.3,0,0.6,0.1,0.9,0.3c-0.6-0.1-1.1-0.2-1.8-0.1c-1.2,0.1-2.5,0.6-4.6,1
			c-2.2,0.5-3.8,2.2-3.8,2.2s-1.9,1.7-2.9,4.1c0,0-0.1,0.1-0.1,0.3l-3.9,10.8c0,0-2.5,6.2-3.5,11.9c-0.1,0.8-0.2,1.5-0.2,2.3
			c0.1,2.5,0.6,8.4,3.2,10.9c0.7,0.7,3.3,2.8,3.9,2.8c0,0,0.8,1.8,0.2,3.5c0,0-0.2,0.9-0.5,1.3c0,0-0.3,0.4,0.1,0.7
			c0,0,0.2,0.2,1.2,0c0.9-0.2,2.5,0.4,2.5,0.4s3.1,0.9,3.8-0.2c0.7-1.1-2-1.2-2-1.2l-3.9-0.2c0,0-0.5-1.1,0.3-1.6
			c0,0,1.5-1.8,2.6-1.4c0,0,2.1,0.3,1.9-3.1c3.8,2.5,7.8,0.7,7.8,0.7S1,341.8-2.3,328 M-18.9,310.7 M-16.3,308.1 M-22.7,319.7
			C-22.7,319.7-22.8,319.7-22.7,319.7C-22.7,319.7-22.7,319.7-22.7,319.7C-22.7,319.7-22.7,319.7-22.7,319.7z"/>
		<path class="st6" d="M2.8,315.5c0.8,1.2,1.3,2.1-0.7,5.6c-2.1,3.5-5.2,1.8-5.2,1.8s-2-1.5-4.6-0.7s-4.1,0.8-5.1-0.8
			s-0.7-4.4,0.7-6c1.3-1.6,2.7-3.3,6.4-2.5c0.7,0.1,1.1,0.3,2.5,1.3c1.4,1,3.3,0.5,4.4,0.4C1.5,314.6,2.3,314.7,2.8,315.5z"/>
		<path class="st8" d="M-1,315.3l0.1,0.5c0,0,2.3-0.3,2.9,1.8C2,317.5,2.3,315-1,315.3z"/>
		<path class="st8" d="M-5.1,314.3l-0.3,0.4c0,0-1.9-1.5-3.5,0.3C-8.9,314.9-8.2,312.6-5.1,314.3z"/>
		<path class="st6" d="M-7.5,308.3l1.2,0.2c0,0,0.4-6.4,0.4-7.5c0-0.8-0.9-1.4-1.3-0.9S-8.4,301.7-7.5,308.3z"/>
		<path class="st1" d="M-7.3,308.3l0.8,0.1c0,0,0.2-4.5,0.3-5.2c0-0.5-0.6-1-0.9-0.6C-7.4,303-7.9,303.7-7.3,308.3z"/>
		<path class="st6" d="M-2.5,308.7l1.1,0.4c0,0,1.5-6.2,1.8-7.2c0.2-0.8-0.7-1.5-1.1-1.1S-2.2,302-2.5,308.7z"/>
		<path class="st1" d="M-2.4,308.7l0.8,0.3c0,0,1.1-4.3,1.3-5c0.1-0.5-0.5-1.1-0.8-0.8C-1.5,303.4-2.1,304-2.4,308.7z"/>
		<g>
			<circle class="st10" cx="-0.3" cy="317.9" r="1.8"/>
			<circle class="st11" cx="-0.4" cy="318" r="0.8"/>
			<path class="st1" d="M-2.1,318.1c0,0,2.4,0,3.4,0.8c0,0-0.7,1.1-1.9,0.8C-1.8,319.5-2.1,318.5-2.1,318.1z"/>
		</g>
		<g>
			<circle class="st10" cx="-7" cy="316.6" r="1.8"/>
			<circle class="st11" cx="-7.1" cy="316.7" r="0.8"/>
			<path class="st1" d="M-8.8,317.1c0,0,2.2-0.4,3.5,0.2c0,0-0.5,1.1-1.7,1.1S-8.7,317.5-8.8,317.1z"/>
		</g>
		<path class="st8" d="M-5.9,318.3c-0.1-0.6,0.6-0.9,1-0.4c0.2,0.2,0.5,0.5,1.1,0.6c0.7,0.1,1.1-0.1,1.3-0.2
			c0.2-0.2,0.3-0.1,0.4-0.1c0.1,0,0.5,0.5,0.3,0.9c-0.3,0.7-1.1,0.8-1.7,0.7C-5,319.7-5.8,319-5.9,318.3
			C-5.9,318.3-5.9,318.3-5.9,318.3z"/>
		<path class="st1" d="M-5.1,318.2c0,0,0.4,0.6,1.3,0.7c0.7,0.1,1-0.1,1.2-0.2c0.1-0.1,0.2-0.1,0.3-0.1c0.1,0,0.2,0.1,0.1,0.4
			c-0.2,0.5-1,0.5-1.7,0.5s-1.6-0.6-1.7-1C-5.7,317.9-5.2,317.9-5.1,318.2z"/>
		<polygon class="st12" points="-4.2,318.8 -4.2,319.1 -4,319.2 -3.9,318.9 		"/>
		<polygon class="st12" points="-3.8,318.9 -3.8,319.2 -3.6,319.2 -3.6,318.9 		"/>
		<path class="st12" d="M-4.6,318.6l0.3,0.2c0,0,0,0.2-0.2,0.1C-4.7,318.8-4.6,318.6-4.6,318.6z"/>
		<path class="st12" d="M-4.9,318.4l0.3,0.2c0,0,0,0.2-0.2,0.1C-5.1,318.6-4.9,318.4-4.9,318.4z"/>
		<path class="st12" d="M-5.1,318.1l0.2,0.3c0,0-0.1,0.1-0.2,0C-5.4,318.3-5.1,318.1-5.1,318.1z"/>
		<path class="st12" d="M-2.7,318.8l0.2-0.2c0,0,0.2,0.1,0,0.3C-2.6,319-2.7,318.8-2.7,318.8z"/>
		<path class="st12" d="M-3.1,318.9l0.3-0.1c0,0,0.1,0.1,0,0.2C-3,319.2-3.1,318.9-3.1,318.9z"/>
		<path class="st12" d="M-3.5,318.9l0.3,0c0,0,0.1,0.1-0.1,0.2C-3.4,319.2-3.5,318.9-3.5,318.9z"/>
		<path class="st1" d="M-3.1,318c-0.1,0.2-0.3-0.1-0.6-0.1s-0.7,0.1-0.6-0.1c0.1-0.2,0.4-0.4,0.7-0.3S-3.1,317.8-3.1,318z"/>
		<circle class="st8" cx="-4.1" cy="317.7" r="0"/>
		<circle class="st8" cx="-3.3" cy="317.8" r="0"/>
	</g>
	<path class="st13" d="M-2.5,325.8c0,0-11,2.2-19.6-5.3l0.5-1.3c0,0,6.9,4.9,19.3,6.1L-2.5,325.8z"/>
	<path class="st13" d="M-21.6,319.2c0,0-7.3,9.5-11.1,23.7c0,0-0.7,2.7-4.8,3c0,0,0,3.7,12.5,3.9c0,0,8.5-19.2,9.9-26.4L-21.6,319.2
		z"/>
	<polygon class="st13" points="-7.2,336.2 -9.3,339.9 -8.4,340.3 -3.1,330.8 -3.9,330.4 	"/>
	<path class="st6" d="M-9.7,331.8c0.6,0.5,3.1,7.1,3.1,7.1s0,0.8-0.6,0.8c-0.6,0-0.2-0.7-0.2-0.7s-1.2,0.6-1.1-0.3
		c0,0-1.4,0.4-0.5-1l-3.2-4.7c-0.3-0.4-0.3-0.9-0.2-1.3C-12.1,331-11.5,330.5-9.7,331.8z"/>
	<path class="st13" d="M-2.8,327.5c0,0,0.1,0.5,0.8,0.5c0,0-0.3,0.2-0.2,0.8c0,0-0.2-0.3-0.7-0.3C-2.9,328.4-2.6,328.1-2.8,327.5z"
		/>
	<path class="st13" d="M-4.8,328.4c0,0,0.1,0.5,0.8,0.5c0,0-0.3,0.2-0.2,0.8c0,0-0.2-0.3-0.7-0.3C-4.9,329.4-4.6,329-4.8,328.4z"/>
	<path class="st13" d="M-2.6,329.2c0,0-0.2,0.5,0.4,0.9c0,0-0.4,0-0.6,0.5c0,0,0-0.4-0.4-0.7C-3.2,329.9-2.8,329.8-2.6,329.2z"/>
	<path class="st13" d="M-2.4,331c0,0-0.2,0.5,0.4,0.9c0,0-0.4,0-0.6,0.5c0,0,0-0.4-0.4-0.7C-3,331.7-2.5,331.6-2.4,331z"/>
	<path class="st13" d="M-0.4,329.6c0,0-0.4,0.3-0.2,0.9c0,0-0.3-0.2-0.8,0.1c0,0,0.2-0.3,0.1-0.8C-1.3,329.9-0.9,330-0.4,329.6z"/>
	<g>
		<defs>
			<path id="SVGID_3_" d="M-2.6,308.6c-1.3,0.5-2.6,0-2.6,0s-0.7-0.5-0.7-1.2c0-0.7,2.2-4.7,2.3-4.8l0,0L-2.6,308.6z"/>
		</defs>
		<clipPath id="SVGID_4_">
			<use xlink:href="#SVGID_3_"  style="overflow:visible;"/>
		</clipPath>
		<path class="st16" d="M-2.6,308.6c-1.3,0.5-2.6,0-2.6,0s-0.7-0.5-0.7-1.2c0-0.7,2.2-4.7,2.3-4.8l0,0L-2.6,308.6z"/>
		<path class="st17" d="M-4.1,304.4c0,0,0.1,0.5,0.8,0.5c0,0-0.3,0.2-0.2,0.8c0,0-0.2-0.3-0.7-0.3C-4.2,305.3-3.9,305-4.1,304.4z"/>
		<path class="st17" d="M-5.5,305.6c0,0,0.1,0.5,0.8,0.5c0,0-0.3,0.2-0.2,0.8c0,0-0.2-0.3-0.7-0.3C-5.6,306.5-5.3,306.2-5.5,305.6z"
			/>
		<path class="st17" d="M-3.6,306c0,0-0.2,0.5,0.4,0.9c0,0-0.4,0-0.6,0.5c0,0,0-0.4-0.4-0.7C-4.2,306.7-3.8,306.6-3.6,306z"/>
		<path class="st17" d="M-2.4,307c0,0-0.2,0.5,0.4,0.9c0,0-0.4,0-0.6,0.5c0,0,0-0.4-0.4-0.7C-3,307.8-2.6,307.6-2.4,307z"/>
		<path class="st17" d="M-3.7,307.8c0,0-0.2,0.5,0.4,0.9c0,0-0.4,0-0.6,0.5c0,0,0-0.4-0.4-0.7C-4.3,308.5-3.9,308.4-3.7,307.8z"/>
		<path class="st17" d="M-3.4,303.2c0,0-0.4,0.3-0.2,0.9c0,0-0.3-0.2-0.8,0.1c0,0,0.2-0.3,0.1-0.8C-4.4,303.5-3.9,303.6-3.4,303.2z"
			/>
		<path class="st17" d="M-4.5,307.2c0,0-0.4,0.3-0.2,0.9c0,0-0.3-0.2-0.8,0.1c0,0,0.2-0.3,0.1-0.8C-5.5,307.4-5,307.6-4.5,307.2z"/>
	</g>
</g>
</svg>
