<?xml version="1.0" encoding="utf-8"?>
<!-- Generator: Adobe Illustrator 19.1.0, SVG Export Plug-In . SVG Version: 6.00 Build 0)  -->
<svg version="1.1" id="Layer_1" xmlns="http://www.w3.org/2000/svg" xmlns:xlink="http://www.w3.org/1999/xlink" x="0px" y="0px"
	 viewBox="-649 679.5 280.5 178.5" style="enable-background:new -649 679.5 280.5 178.5;" xml:space="preserve">
<style type="text/css">
	.st0{fill:#E9E3C4;}
	.st1{fill:#6BA2A7;}
	.st2{font-family:'Lato-Regular';}
	.st3{font-size:16px;}
	.st4{font-size:10px;}
	.st5{fill:#C24D8D;}
	.st6{fill:#D68FAF;}
	.st7{fill:#D478A1;}
	.st8{fill:#CC84AA;}
	.st9{fill:#F8F4E7;}
	.st10{opacity:0.47;fill:#B04379;enable-background:new    ;}
	.st11{fill:#603E16;}
	.st12{fill:#B04379;}
	.st13{opacity:0.35;fill:#E5B1CB;enable-background:new    ;}
	.st14{fill:#E5B1CB;}
	.st15{opacity:0.56;fill:none;stroke:#B04379;stroke-width:7.090279e-02;stroke-miterlimit:10;enable-background:new    ;}
	.st16{fill:none;stroke:#E5B1CB;stroke-width:0.1827;stroke-miterlimit:10;}
	.st17{fill:#B5AAB1;}
	.st18{fill:none;stroke:#CC84AA;stroke-width:0.1827;stroke-miterlimit:10;}
	.st19{fill:#9E979C;}
	.st20{opacity:0.5;fill:none;stroke:#B04379;stroke-width:0.1881;stroke-miterlimit:10;}
	.st21{opacity:0.5;fill:none;stroke:#B04379;stroke-width:0.2081;stroke-miterlimit:10;}
	.st22{opacity:0.56;fill:none;stroke:#B04379;stroke-width:0.1179;stroke-miterlimit:10;enable-background:new    ;}
	.st23{fill:none;stroke:#E5B1CB;stroke-width:0.3037;stroke-miterlimit:10;}
	.st24{fill:none;stroke:#CC84AA;stroke-width:0.3037;stroke-miterlimit:10;}
	.st25{opacity:0.5;fill:none;stroke:#B04379;stroke-width:0.3126;stroke-miterlimit:10;}
	.st26{opacity:0.5;fill:none;stroke:#B04379;stroke-width:0.346;stroke-miterlimit:10;}
</style>
<rect x="-658" y="670" class="st0" width="298" height="196.5"/>
<rect x="-599.2" y="749" class="st1" width="83.5" height="83.5"/>
<g>
	<text transform="matrix(1 0 0 1 -582.5617 705.761)" class="st1 st2 st3">Welcome to my site</text>
</g>
<g>
	<text transform="matrix(1 0 0 1 -587.4402 724.9451)" class="st1 st2 st4">Today I’m Learning HTML and CSS</text>
</g>
<path class="st5" d="M-546.6,789.1c0,0-0.2,3.3,0.2,4c0.4,0.7,5.2,5.6,5.2,5.6s0.2,0.7-0.4,1c-0.6,0.2-0.4-0.6-0.4-0.6
	s-0.9,1-1.2,0.1c0,0-1.2,0.9-0.8-0.8l-4.9-3.6c0,0-4.2-3.5-3.2-6.2s2.6-2.5,3.6-2.1C-547.7,786.6-546.5,787.4-546.6,789.1z"/>
<path class="st6" d="M-570.1,799.6l1,10.3c0,0-1.4,1.9-3-0.5c0,0-2.8,0.5-1.7-2c0,0-2.1,0.5-2.2-1.3s2-1.5,2-1.5s-3.1-0.2-0.9-1.9
	c0,0-1.9-1.9,0.6-1.5c0,0-1.2-1.9,0.7-2.2c0,0,1-0.1,1.5,1.1C-572.2,800-572.4,798.2-570.1,799.6z"/>
<path class="st7" d="M-575.7,775.6C-575.7,775.5-575.7,775.5-575.7,775.6C-575.7,775.5-575.7,775.5-575.7,775.6z M-575.8,775.6
	C-575.7,775.6-575.7,775.6-575.8,775.6C-575.7,775.6-575.7,775.6-575.8,775.6z M-575.7,775.6C-575.7,775.5-575.7,775.5-575.7,775.6
	C-575.7,775.5-575.7,775.5-575.7,775.6z M-575.8,775.6C-575.7,775.6-575.7,775.6-575.8,775.6C-575.7,775.6-575.7,775.6-575.8,775.6z
	"/>
<path class="st8" d="M-571.2,782.1c0,0,0-25.3,4.6-24.9c4.3,0.3,3.6,8,3.6,8h9.1c0,0,0.1-8.8,3.7-8.8s3.7,13.2,3.7,13.2
	s1.1,33.9-2.7,41.3c0,0-12.5,8.5-21.1,0C-570.4,810.8-571.9,792.7-571.2,782.1z"/>
<path class="st8" d="M-570.4,810.7c0,0,1.2,4,0.3,7.8c0,0-0.3,2.1-0.8,2.8c0,0-0.5,0.8,0.2,1.4c0,0,0.4,0.5,1.8,0
	c1.4-0.5,3.9,1,3.9,1s4.7,1.9,5.9-0.5c1.1-2.4-3.1-2.6-3.1-2.6l-6-0.5c0,0-0.7-2.3,0.4-3.6c0,0,2-3.3,3.5-3.2l0,0.1
	c0,0,5.7,0.8,8-0.1c0,0,1,3.5-0.3,6.7c0,0-0.2,1,0.8,0.9c1-0.1,3.1,0,4.2,1c1,1,4.6,1.2,4.7-1c0-2.2-2.2-1.9-2.6-1.9
	c-0.4,0-4.9-0.5-4.9-0.5s-0.7-1.5,0.9-3.1c1.6-1.6,4.7-4.2,4.7-5.4"/>
<path class="st6" d="M-563.8,770.1c-1.1,1.1-2.7,3.1-2.9,5.5c-0.2,2.1,1.2,4,3.2,4.7c2.7,0.8,7.5,1.6,12.5-0.8
	c1.1-0.5,1.9-1.4,2.3-2.6c0.4-1,0.7-2.3,0.7-3.8c0-2.2-1.6-4.1-3.8-4.5c-2.4-0.4-5.9-0.7-9.9,0.2
	C-562.4,769-563.2,769.4-563.8,770.1z"/>
<path class="st9" d="M-558,777.4c0,0,0,0.2,0.2,0.2c0.2,0,0.2-0.2,0.2-0.2L-558,777.4z"/>
<ellipse transform="matrix(-0.2856 -0.9583 0.9583 -0.2856 -1464.4886 456.9065)" class="st10" cx="-561.9" cy="774.3" rx="1.9" ry="2.2"/>
<ellipse transform="matrix(-0.2856 -0.9583 0.9583 -0.2856 -1464.422 457.0215)" class="st9" cx="-561.9" cy="774.3" rx="1.8" ry="2"/>
<path class="st9" d="M-556.7,777.4l0.4,0c0,0,0.1,0.3-0.2,0.3C-556.8,777.8-556.7,777.4-556.7,777.4z"/>
<path class="st9" d="M-557.3,777.5l0.3,0c0,0,0.1,0.2-0.1,0.3C-557.3,777.8-557.4,777.5-557.3,777.5z"/>
<ellipse transform="matrix(-0.2856 -0.9583 0.9583 -0.2856 -1464.2122 458.1309)" class="st11" cx="-561.4" cy="774.8" rx="0.8" ry="0.9"/>
<path class="st12" d="M-559.7,770.8l-0.3,0.7c0,0-3.2-1.4-4.7,1.8C-564.7,773.3-564.7,769.7-559.7,770.8z"/>
<ellipse transform="matrix(-0.2856 -0.9583 0.9583 -0.2856 -1450.1248 465.9984)" class="st10" cx="-551.4" cy="773.5" rx="1.8" ry="2"/>
<path class="st5" d="M-566.9,789c0,0-2,2.7-2,3.5c0,0.8,1.3,7.5,1.3,7.5s-0.2,0.7-0.8,0.6c-0.6-0.1,0-0.7,0-0.7s-1.3,0.3-1-0.6
	c0,0-1.5,0-0.3-1.1l-2.1-5.7c0,0-1.6-5.2,0.7-7s3.5-0.6,4,0.2C-566.5,786.4-565.9,787.7-566.9,789z"/>
<ellipse transform="matrix(-0.2856 -0.9583 0.9583 -0.2856 -1450.3599 465.9691)" class="st9" cx="-551.5" cy="773.6" rx="1.6" ry="1.8"/>
<ellipse transform="matrix(-0.2856 -0.9583 0.9583 -0.2856 -1450.7119 466.6723)" class="st11" cx="-551.4" cy="774" rx="0.8" ry="0.9"/>
<path class="st12" d="M-553.5,770.2l0.4,0.6c0,0,3.1-1.4,4.7,1.3C-548.5,772.1-549,768.4-553.5,770.2z"/>
<circle class="st13" cx="-551.8" cy="776.9" r="0.5"/>
<ellipse transform="matrix(-0.2856 -0.9583 0.9583 -0.2856 -1467.7478 461.5963)" class="st13" cx="-561.8" cy="777.9" rx="0.5" ry="0.8"/>
<g>
	<path class="st14" d="M-555.9,775.2c0,0,0.3-0.2,0.5,0s0.6,0.2,0.6-0.2c0-0.4-0.5-0.7-0.9-0.6c-0.4,0.1-0.9,0.2-0.9,0.8
		C-556.6,775.7-555.9,775.2-555.9,775.2z"/>
	<circle class="st6" cx="-555.3" cy="774.9" r="0.1"/>
	<circle class="st6" cx="-556.2" cy="775" r="0.1"/>
</g>
<g>
	<path class="st15" d="M-555.6,773.4c0,0-0.2,0.3,0,0.8"/>
	<path class="st15" d="M-555.1,773.2c0,0-0.7-0.2-1.2,0.4"/>
	<path class="st15" d="M-555.2,772.8c0,0-0.6-0.2-0.9,0.1"/>
</g>
<polygon class="st9" points="-556,777.3 -556,777.7 -555.6,777.6 -555.6,777.2 "/>
<polygon class="st9" points="-555.4,777.2 -555.4,777.6 -555,777.5 -555,777.1 "/>
<path class="st16" d="M-555.6,775c0,0,0.1,1.4,0.5,2c0,0-2.2,0.7-4.9,0.1"/>
<path class="st17" d="M-556.9,781c0,0,0.6,19.7-3.5,33.6c0,0,0.1,0,0.6,0c0,0,4-12.4,3.7-33.7"/>
<g>
	<line class="st18" x1="-556.9" y1="781.5" x2="-555.9" y2="781.5"/>
	<line class="st18" x1="-556.9" y1="782.2" x2="-555.9" y2="782.2"/>
	<line class="st18" x1="-556.9" y1="782.9" x2="-555.9" y2="782.9"/>
	<line class="st18" x1="-556.9" y1="783.6" x2="-555.9" y2="783.6"/>
	<line class="st18" x1="-556.9" y1="784.3" x2="-555.9" y2="784.2"/>
	<line class="st18" x1="-556.9" y1="785" x2="-555.9" y2="784.9"/>
</g>
<g>
	<line class="st18" x1="-556.9" y1="785.7" x2="-555.9" y2="785.7"/>
	<line class="st18" x1="-556.9" y1="786.4" x2="-555.9" y2="786.3"/>
	<line class="st18" x1="-556.9" y1="787" x2="-555.9" y2="787"/>
	<line class="st18" x1="-556.9" y1="787.8" x2="-556" y2="787.7"/>
	<line class="st18" x1="-556.9" y1="788.4" x2="-556" y2="788.4"/>
	<line class="st18" x1="-556.9" y1="789.1" x2="-556" y2="789.1"/>
</g>
<g>
	<line class="st18" x1="-557" y1="789.9" x2="-556.1" y2="789.9"/>
	<line class="st18" x1="-557" y1="790.6" x2="-556.1" y2="790.6"/>
	<line class="st18" x1="-557" y1="791.3" x2="-556.1" y2="791.3"/>
	<line class="st18" x1="-557" y1="792" x2="-556.1" y2="792"/>
	<line class="st18" x1="-557" y1="792.7" x2="-556.1" y2="792.6"/>
	<line class="st18" x1="-557" y1="793.4" x2="-556.1" y2="793.3"/>
</g>
<g>
	<line class="st18" x1="-557.3" y1="794.2" x2="-556.2" y2="794.3"/>
	<line class="st18" x1="-557.4" y1="794.9" x2="-556.3" y2="794.9"/>
	<line class="st18" x1="-557.4" y1="795.6" x2="-556.4" y2="795.6"/>
	<line class="st18" x1="-557.5" y1="796.3" x2="-556.4" y2="796.3"/>
	<line class="st18" x1="-557.6" y1="796.9" x2="-556.5" y2="797"/>
	<line class="st18" x1="-557.7" y1="797.6" x2="-556.6" y2="797.7"/>
</g>
<g>
	<line class="st18" x1="-557.8" y1="798.4" x2="-556.7" y2="798.4"/>
	<line class="st18" x1="-557.9" y1="799" x2="-556.8" y2="799.1"/>
	<line class="st18" x1="-557.9" y1="799.7" x2="-556.8" y2="799.8"/>
	<line class="st18" x1="-558" y1="800.4" x2="-557" y2="800.5"/>
	<line class="st18" x1="-558.2" y1="801.1" x2="-557.1" y2="801.1"/>
	<line class="st18" x1="-558.3" y1="801.7" x2="-557.2" y2="801.8"/>
</g>
<g>
	<line class="st18" x1="-558.2" y1="802.6" x2="-557.3" y2="802.6"/>
	<line class="st18" x1="-558.3" y1="803.2" x2="-557.4" y2="803.3"/>
	<line class="st18" x1="-558.4" y1="803.9" x2="-557.5" y2="804"/>
	<line class="st18" x1="-558.4" y1="804.6" x2="-557.5" y2="804.7"/>
	<line class="st18" x1="-558.5" y1="805.3" x2="-557.6" y2="805.3"/>
	<line class="st18" x1="-558.6" y1="806" x2="-557.7" y2="806"/>
</g>
<g>
	<line class="st18" x1="-558.7" y1="806.8" x2="-557.8" y2="806.9"/>
	<line class="st18" x1="-558.8" y1="807.4" x2="-557.9" y2="807.5"/>
	<line class="st18" x1="-559" y1="808.1" x2="-558.1" y2="808.2"/>
	<line class="st18" x1="-559.1" y1="808.8" x2="-558.2" y2="808.9"/>
	<line class="st18" x1="-559.2" y1="809.4" x2="-558.3" y2="809.6"/>
	<line class="st18" x1="-559.3" y1="810.1" x2="-558.4" y2="810.2"/>
</g>
<g>
	<line class="st18" x1="-559.6" y1="810.8" x2="-558.7" y2="811"/>
	<line class="st18" x1="-559.8" y1="811.5" x2="-558.8" y2="811.7"/>
	<line class="st18" x1="-559.9" y1="812.1" x2="-559" y2="812.3"/>
	<line class="st18" x1="-560.1" y1="812.8" x2="-559.2" y2="813"/>
	<line class="st18" x1="-560.2" y1="813.5" x2="-559.3" y2="813.7"/>
	<line class="st18" x1="-560.4" y1="814.2" x2="-559.5" y2="814.3"/>
</g>
<g>
	<polygon class="st19" points="-556.3,781 -555.8,780.9 -555.1,781.9 -555.8,782.1 	"/>
	<circle class="st8" cx="-555.7" cy="781.7" r="0.3"/>
</g>
<path class="st20" d="M-568.8,765.2c0,0-0.1-4.9,2-4.7c0,0,2.1-0.4,2,4.5"/>
<path class="st21" d="M-552,765.1c0,0-0.1-6.2,1.9-6c0,0,2-0.5,1.9,5.8"/>
<path class="st5" d="M-435.5,784.1c0,0-0.4,5.6,0.3,6.7c0.6,1.1,8.6,9.2,8.6,9.2s0.3,1.2-0.6,1.6c-0.9,0.4-0.6-1-0.6-1
	s-1.5,1.7-1.9,0.1c0,0-2.1,1.4-1.3-1.3l-8.2-6c0,0-7.1-5.8-5.4-10.4c1.7-4.6,4.4-4.1,5.9-3.5C-437.4,780.1-435.3,781.4-435.5,784.1z
	"/>
<path class="st6" d="M-474.6,801.6l1.6,17.1c0,0-2.3,3.2-4.9-0.8c0,0-4.7,0.8-2.9-3.4c0,0-3.5,0.8-3.6-2.2c-0.1-3,3.3-2.5,3.3-2.5
	s-5.2-0.4-1.5-3.1c0,0-3.2-3.1,1-2.5c0,0-2-3.1,1.1-3.7c0,0,1.7-0.1,2.4,1.8C-478.1,802.3-478.5,799.3-474.6,801.6z"/>
<path class="st7" d="M-483.9,761.6C-483.9,761.6-483.8,761.6-483.9,761.6C-483.9,761.6-483.9,761.6-483.9,761.6z M-484,761.7
	C-484,761.7-484,761.7-484,761.7C-484,761.7-484,761.7-484,761.7z M-483.9,761.6C-483.9,761.6-483.8,761.6-483.9,761.6
	C-483.9,761.6-483.9,761.6-483.9,761.6z M-484,761.7C-484,761.7-484,761.7-484,761.7C-484,761.7-484,761.7-484,761.7z"/>
<path class="st8" d="M-476.5,772.5c0,0,0-42,7.6-41.4c7.1,0.5,5.9,13.3,5.9,13.3h15.2c0,0,0.2-14.7,6.2-14.7s6.2,22,6.2,22
	s1.9,56.3-4.5,68.7c0,0-20.8,14.2-35,0C-475.1,820.3-477.7,790.2-476.5,772.5z"/>
<path class="st8" d="M-475.1,820c0,0,1.9,6.7,0.5,12.9c0,0-0.6,3.5-1.3,4.6c0,0-0.8,1.4,0.3,2.4c0,0,0.6,0.8,3-0.1
	c2.4-0.9,6.5,1.6,6.5,1.6s7.9,3.2,9.7-0.8c1.9-4-5.1-4.3-5.1-4.3l-10-0.9c0,0-1.1-3.9,0.7-5.9c0,0,3.3-5.4,5.9-5.4l0,0.1
	c0,0,9.4,1.3,13.3-0.2c0,0,1.6,5.9-0.5,11.1c0,0-0.3,1.6,1.3,1.4c1.7-0.2,5.2-0.1,6.9,1.6c1.7,1.7,7.7,1.9,7.7-1.7
	c0-3.6-3.7-3.2-4.3-3.2c-0.6,0-8.2-0.8-8.2-0.8s-1.1-2.5,1.5-5.1c2.6-2.6,7.7-7,7.9-9"/>
<path class="st6" d="M-464.2,752.5c-1.8,1.8-4.5,5.2-4.8,9.1c-0.3,3.5,2,6.7,5.3,7.8c4.5,1.4,12.5,2.7,20.8-1.3
	c1.8-0.9,3.2-2.4,3.9-4.3c0.6-1.6,1.2-3.9,1.2-6.3c0-3.7-2.7-6.8-6.3-7.5c-3.9-0.7-9.9-1.2-16.5,0.3
	C-461.9,750.7-463.2,751.5-464.2,752.5z"/>
<path class="st9" d="M-454.4,764.8c0,0,0,0.3,0.3,0.3s0.3-0.3,0.3-0.3L-454.4,764.8z"/>
<ellipse transform="matrix(-0.2856 -0.9583 0.9583 -0.2856 -1320.6627 534.637)" class="st10" cx="-461.1" cy="759.6" rx="3.2" ry="3.7"/>
<ellipse transform="matrix(-0.2856 -0.9583 0.9583 -0.2856 -1320.552 534.8281)" class="st9" cx="-460.9" cy="759.6" rx="2.9" ry="3.3"/>
<path class="st9" d="M-452.3,764.8l0.6-0.1c0,0,0.2,0.5-0.3,0.5C-452.5,765.3-452.3,764.8-452.3,764.8z"/>
<path class="st9" d="M-453.3,764.8l0.6,0c0,0,0.2,0.3-0.2,0.5C-453.4,765.4-453.5,764.9-453.3,764.8z"/>
<ellipse transform="matrix(-0.2856 -0.9583 0.9583 -0.2856 -1320.2032 536.6723)" class="st11" cx="-460.1" cy="760.4" rx="1.3" ry="1.4"/>
<path class="st12" d="M-457.3,753.8l-0.5,1.2c0,0-5.4-2.3-7.9,3C-465.7,758-465.7,751.9-457.3,753.8z"/>
<ellipse transform="matrix(-0.2856 -0.9583 0.9583 -0.2856 -1296.7845 549.7511)" class="st10" cx="-443.5" cy="758.2" rx="3" ry="3.3"/>
<path class="st5" d="M-469.3,784c0,0-3.3,4.5-3.3,5.8c-0.1,1.3,2.2,12.4,2.2,12.4s-0.4,1.2-1.3,1c-1-0.2,0-1.2,0-1.2s-2.1,0.6-1.6-1
	c0,0-2.4,0.1-0.4-1.8l-3.5-9.5c0,0-2.7-8.7,1.1-11.6c3.8-2.9,5.8-1.1,6.7,0.3C-468.7,779.6-467.7,781.9-469.3,784z"/>
<ellipse transform="matrix(-0.2856 -0.9583 0.9583 -0.2856 -1297.1754 549.7023)" class="st9" cx="-443.7" cy="758.3" rx="2.7" ry="2.9"/>
<ellipse transform="matrix(-0.2856 -0.9583 0.9583 -0.2856 -1297.7606 550.8715)" class="st11" cx="-443.6" cy="759.1" rx="1.3" ry="1.5"/>
<path class="st12" d="M-447.1,752.8l0.6,1c0,0,5.2-2.4,7.9,2.1C-438.6,755.9-439.6,749.8-447.1,752.8z"/>
<circle class="st13" cx="-444.2" cy="763.8" r="0.9"/>
<ellipse transform="matrix(-0.2856 -0.9583 0.9583 -0.2856 -1326.0807 542.4332)" class="st13" cx="-460.9" cy="765.5" rx="0.8" ry="1.3"/>
<g>
	<path class="st14" d="M-451,761c0,0,0.5-0.3,0.8,0c0.3,0.3,1,0.3,1-0.3c0-0.6-0.8-1.1-1.5-1c-0.7,0.1-1.5,0.3-1.5,1.3
		C-452.2,761.9-451,761-451,761z"/>
	<circle class="st6" cx="-450" cy="760.5" r="0.1"/>
	<circle class="st6" cx="-451.6" cy="760.7" r="0.1"/>
</g>
<g>
	<path class="st22" d="M-450.6,758.1c0,0-0.4,0.5,0,1.3"/>
	<path class="st22" d="M-449.7,757.7c0,0-1.1-0.4-2,0.6"/>
	<path class="st22" d="M-449.9,757c0,0-1-0.3-1.5,0.2"/>
</g>
<polygon class="st9" points="-451.3,764.5 -451.2,765.2 -450.5,765.1 -450.5,764.4 "/>
<polygon class="st9" points="-450.2,764.3 -450.2,765 -449.5,764.9 -449.5,764.3 "/>
<path class="st23" d="M-450.5,760.8c0,0,0.1,2.3,0.8,3.4c0,0-3.7,1.1-8.1,0.1"/>
<path class="st17" d="M-452.6,770.7c0,0,1.1,32.7-5.9,55.9c0,0,0.2,0,1-0.1c0,0,6.6-20.6,6.1-56"/>
<g>
	<line class="st24" x1="-452.6" y1="771.6" x2="-451.1" y2="771.5"/>
	<line class="st24" x1="-452.6" y1="772.7" x2="-451.1" y2="772.7"/>
	<line class="st24" x1="-452.6" y1="773.8" x2="-451.1" y2="773.8"/>
	<line class="st24" x1="-452.6" y1="775" x2="-451.1" y2="775"/>
	<line class="st24" x1="-452.6" y1="776.1" x2="-451.1" y2="776.1"/>
	<line class="st24" x1="-452.6" y1="777.3" x2="-451.1" y2="777.2"/>
</g>
<g>
	<line class="st24" x1="-452.6" y1="778.5" x2="-451.1" y2="778.4"/>
	<line class="st24" x1="-452.6" y1="779.6" x2="-451.1" y2="779.6"/>
	<line class="st24" x1="-452.6" y1="780.7" x2="-451.1" y2="780.7"/>
	<line class="st24" x1="-452.7" y1="781.9" x2="-451.2" y2="781.9"/>
	<line class="st24" x1="-452.7" y1="783.1" x2="-451.2" y2="783"/>
	<line class="st24" x1="-452.7" y1="784.2" x2="-451.2" y2="784.1"/>
</g>
<g>
	<line class="st24" x1="-452.9" y1="785.6" x2="-451.4" y2="785.5"/>
	<line class="st24" x1="-452.9" y1="786.7" x2="-451.4" y2="786.6"/>
	<line class="st24" x1="-452.9" y1="787.8" x2="-451.4" y2="787.7"/>
	<line class="st24" x1="-452.9" y1="789" x2="-451.4" y2="788.9"/>
	<line class="st24" x1="-452.9" y1="790.1" x2="-451.4" y2="790.1"/>
	<line class="st24" x1="-452.9" y1="791.2" x2="-451.4" y2="791.2"/>
</g>
<g>
	<line class="st24" x1="-453.3" y1="792.7" x2="-451.5" y2="792.8"/>
	<line class="st24" x1="-453.4" y1="793.8" x2="-451.6" y2="793.9"/>
	<line class="st24" x1="-453.6" y1="794.9" x2="-451.8" y2="795"/>
	<line class="st24" x1="-453.7" y1="796.1" x2="-451.9" y2="796.2"/>
	<line class="st24" x1="-453.8" y1="797.2" x2="-452" y2="797.3"/>
	<line class="st24" x1="-454" y1="798.3" x2="-452.2" y2="798.4"/>
</g>
<g>
	<line class="st24" x1="-454.1" y1="799.5" x2="-452.3" y2="799.6"/>
	<line class="st24" x1="-454.3" y1="800.7" x2="-452.4" y2="800.8"/>
	<line class="st24" x1="-454.4" y1="801.8" x2="-452.6" y2="801.9"/>
	<line class="st24" x1="-454.6" y1="803" x2="-452.9" y2="803"/>
	<line class="st24" x1="-454.8" y1="804.1" x2="-453" y2="804.2"/>
	<line class="st24" x1="-455" y1="805.2" x2="-453.1" y2="805.3"/>
</g>
<g>
	<line class="st24" x1="-454.9" y1="806.5" x2="-453.4" y2="806.6"/>
	<line class="st24" x1="-455" y1="807.7" x2="-453.5" y2="807.7"/>
	<line class="st24" x1="-455.1" y1="808.8" x2="-453.6" y2="808.9"/>
	<line class="st24" x1="-455.2" y1="809.9" x2="-453.7" y2="810"/>
	<line class="st24" x1="-455.3" y1="811.1" x2="-453.8" y2="811.2"/>
	<line class="st24" x1="-455.5" y1="812.2" x2="-453.9" y2="812.3"/>
</g>
<g>
	<line class="st24" x1="-455.7" y1="813.5" x2="-454.2" y2="813.7"/>
	<line class="st24" x1="-455.9" y1="814.6" x2="-454.4" y2="814.8"/>
	<line class="st24" x1="-456.1" y1="815.7" x2="-454.6" y2="815.9"/>
	<line class="st24" x1="-456.3" y1="816.9" x2="-454.8" y2="817.1"/>
	<line class="st24" x1="-456.5" y1="818" x2="-455" y2="818.2"/>
	<line class="st24" x1="-456.7" y1="819.1" x2="-455.2" y2="819.3"/>
</g>
<g>
	<line class="st24" x1="-457.2" y1="820.3" x2="-455.7" y2="820.6"/>
	<line class="st24" x1="-457.4" y1="821.4" x2="-455.9" y2="821.7"/>
	<line class="st24" x1="-457.7" y1="822.5" x2="-456.2" y2="822.8"/>
	<line class="st24" x1="-457.9" y1="823.6" x2="-456.4" y2="823.9"/>
	<line class="st24" x1="-458.2" y1="824.7" x2="-456.7" y2="825"/>
	<line class="st24" x1="-458.5" y1="825.8" x2="-457" y2="826.1"/>
</g>
<g>
	<polygon class="st19" points="-451.8,770.6 -450.9,770.5 -449.6,772.1 -450.9,772.6 	"/>
	<circle class="st8" cx="-450.6" cy="771.8" r="0.4"/>
</g>
<path class="st25" d="M-472.4,744.5c0,0-0.2-8.1,3.3-7.8c0,0,3.6-0.6,3.3,7.5"/>
<path class="st26" d="M-444.5,744.3c0,0-0.2-10.4,3.1-10c0,0,3.4-0.8,3.1,9.7"/>
</svg>
