<?xml version="1.0" encoding="utf-8"?>
<!-- Generator: Adobe Illustrator 19.1.0, SVG Export Plug-In . SVG Version: 6.00 Build 0)  -->
<svg version="1.1" id="Layer_1" xmlns="http://www.w3.org/2000/svg" xmlns:xlink="http://www.w3.org/1999/xlink" x="0px" y="0px"
	 viewBox="-100 217.5 280.5 178.5" style="enable-background:new -100 217.5 280.5 178.5;" xml:space="preserve">
<style type="text/css">
	.st0{fill:#E9E3C4;}
	.st1{fill:#A6DCE8;}
	.st2{fill:#6BA2A7;}
	.st3{font-family:'Lato-Regular';}
	.st4{font-size:14.5344px;}
	.st5{font-size:9.084px;}
	.st6{fill:#7CB6C0;}
	.st7{fill:#43698E;}
	.st8{fill:#6BA1A6;}
	.st9{fill:#9F6C30;}
	.st10{fill:none;stroke:#7CB6C0;stroke-width:0.2285;stroke-miterlimit:10;}
	.st11{fill:#F4FAFC;}
	.st12{fill:#1B1F36;}
	.st13{fill:#FFFFFF;}
	.st14{fill:none;stroke:#7CB6C0;stroke-width:0.1379;stroke-miterlimit:10;}
</style>
<rect x="-100" y="217.5" class="st0" width="281" height="178.5"/>
<rect x="-46.6" y="289.3" class="st1" width="75.9" height="75.9"/>
<g>
	<text transform="matrix(1 0 0 1 -31.4721 249.9849)" class="st2 st3 st4">Welcome to my site</text>
</g>
<g>
	<text transform="matrix(1 0 0 1 -35.9038 267.4121)" class="st2 st3 st5">Today I’m Learning HTML and CSS</text>
</g>
<g>
	<path class="st6" d="M63.2,355.5l0.5,5.6c0,0-2.3,2.1-3.4,0.7c-1.1-1.4,0.3-1.5,0.3-1.5s-4.3,0.3-2.6-1.8c0,0-2.7-2.2,0-2.5
		c0,0-2.3-3,1.2-3c0,0,1-3.9,3.6-0.6L63.2,355.5z"/>
	<path class="st6" d="M102.2,333.6c2,1.5,9.3,21.9,9.3,21.9s-0.1,2.3-2,2.4c-1.8,0.1-0.5-2.2-0.5-2.2s-3.6,1.9-3.4-1.1
		c0,0-4.4,1.2-1.5-3.1L94.4,337c-0.8-1.2-1-2.7-0.5-4C94.7,331.1,96.7,329.5,102.2,333.6z"/>
	<path class="st7" d="M103.3,327.2C103.3,327.2,103.3,327.2,103.3,327.2c0-0.1-0.1-0.2-0.1-0.3c0,0-0.3-0.3-0.8-0.7
		c0.7,0.6,0.9,1.3,0.9,1.5C103.4,327.6,103.4,327.4,103.3,327.2z"/>
	<path class="st8" d="M80.7,375.7c0,0,6.8,0.6,9.6-0.1c0,0,1.2,2.9-0.4,5.5c0,0-0.2,0.8,1,0.7c1.2-0.1,3.8,0,5,0.8
		c1.2,0.8,5.6,1,5.6-0.8c0-1.8-2.7-1.6-3.1-1.6c-0.4,0-5.9-0.4-5.9-0.4s-0.8-1.2,1.1-2.6s5.6-3.5,5.7-4.5c0.1-1-0.2-1.5-0.2-1.5
		L82.7,369L80.7,375.7z"/>
	<path class="st9" d="M86.1,312.1C86.1,312.1,86,312.1,86.1,312.1c-0.1,0.1-0.2,0.1-0.2,0.2C86,312.1,86.1,312.1,86.1,312.1z"/>
	<path class="st8" d="M103.4,327.7c0-0.2-0.2-0.9-0.9-1.5 M71.4,307.4 M103.3,327.2c-0.1-1,0.9-3,1.2-4.2c1.4,0.6,1.8-0.2,2.6-0.6
		c0.2,0,0.3,0,0.5-0.1c-0.1,1.7,1.4,1.9,1.4,1.9c-0.4-1.2-0.1-1.8,0.2-2.1c0.1,0,0.2,0,0.3,0c-0.3,0.8,0.7,1.5,0.7,1.5
		c0-0.8,0.4-1,0.8-0.9c0.5,1.3,2.5,1.1,2.5,1.1c-0.6,0,0.7-4.3,0.7-4.3c1.9-0.4,5.5-6.6,5.5-6.6c0.4,0.9,2.6,0.8,2.6,0.8
		c-1.1-1-1.5-2.9-1.5-2.9c0.5-4.1-0.9-7.5-0.9-7.5l3.1-0.5l-3.1-2.1c1.9,0.2,3.4-0.5,3.4-0.5c-3,0.2-5.6-1.5-5.6-1.5
		c-1.9-2.7-4.1-4.4-5.9-5.6c0.7-0.1,1.2-0.4,1.2-1c0,0-0.7,0.6-2.1,0.5c-1.9-1.1-3.2-1.4-3.2-1.4c0.5-0.6,3.2-0.6,3.2-0.6
		c-1.5-1.2-4.7-0.2-4.7-0.2c-0.1-1.1,2.2-2.4,2.2-2.4c-1.8-0.4-3.1,1.2-3.1,1.2s-1.2-4.9-1.1-3.2c0.2,1.7-1,2.8-1,2.8
		c-0.8-0.1-1.7-2.6-1.7-2.6l0.1,2.8l0,0.5c0-0.2-0.1-0.4-0.3-0.6c-1-1.4-4.5-1-4.5-1c0.5,0,1,0.2,1.6,0.6c-1-0.1-2.1-0.3-3.3-0.2
		c-2.2,0.2-4.6,1-8.4,1.9c-4.1,1-7,4-7,4s-3.5,3.2-5.4,7.6c0,0-0.1,0.2-0.2,0.5L67,322.2c0,0-4.5,11.5-6.4,22
		c-0.2,1.4-0.3,2.8-0.3,4.3c0.2,4.7,1.1,15.5,5.8,20.1c1.3,1.3,6.1,5.1,7.2,5.1c0,0,1.4,3.3,0.4,6.4c0,0-0.4,1.7-1,2.3
		c0,0-0.6,0.7,0.2,1.2c0,0,0.5,0.4,2.2,0c1.7-0.5,4.7,0.8,4.7,0.8s5.7,1.6,7-0.4c1.4-2-3.7-2.2-3.7-2.2l-7.3-0.5
		c0,0-0.8-1.9,0.5-2.9c0,0,2.8-3.2,4.8-2.6c0,0,3.9,0.5,3.5-5.6c7.1,4.7,14.4,1.2,14.4,1.2S109.4,352.6,103.3,327.2 M75.8,295.3
		 M80.6,290.6 M68.8,311.9C68.8,311.9,68.8,311.9,68.8,311.9C68.8,311.9,68.8,311.9,68.8,311.9C68.9,311.8,68.8,311.9,68.8,311.9z
		 M102,325.9c0.1,0.1,0.3,0.2,0.4,0.3C102.3,326,102.2,326,102,325.9z"/>
	<path class="st6" d="M115.9,304.2c1.4,2.2,2.5,3.8-1.4,10.3c-3.9,6.5-9.5,3.4-9.5,3.4s-3.7-2.8-8.5-1.3c-4.8,1.6-7.6,1.6-9.4-1.6
		c-1.8-3.1-1.2-8.1,1.2-11c2.5-2.9,5-6,11.7-4.6c1.3,0.3,2,0.6,4.6,2.4c2.5,1.8,6,0.9,8,0.7C113.5,302.5,114.9,302.7,115.9,304.2z"
		/>
	<g>
		<path class="st1" d="M103.2,308.1c0,0,0.9-0.3,1.2,0.3c0.3,0.6,1.4,0.9,1.6,0s-0.7-2-1.7-2.1c-1-0.1-2.3-0.2-2.8,1.2
			C101.1,308.9,103.2,308.1,103.2,308.1z"/>
		<circle class="st7" cx="105" cy="307.8" r="0.2"/>
		<circle class="st7" cx="102.6" cy="307.5" r="0.2"/>
	</g>
	<path class="st8" d="M108.8,303.8l0.2,0.9c0,0,4.3-0.6,5.3,3.2C114.3,307.9,115,303.3,108.8,303.8z"/>
	<path class="st8" d="M101.3,301.9l-0.6,0.8c0,0-3.4-2.8-6.4,0.5C94.3,303.1,95.6,298.7,101.3,301.9z"/>
	<path class="st10" d="M82.5,296.4c0,0-3.1,0.6-5.2,4.8c0,0,4.2-2.2,6-1.7c0,0-3.4,2.5-3.4,6.1c0,0,7.2-7.9,13.1-8.5"/>
	<path class="st10" d="M78.9,311.8c0,0-1.4,1.4-1.5,3.5l2.7-1.9c0,0-1.3,2.4-0.8,4.1"/>
	<path class="st6" d="M106,291.7l2.1,0.7c0,0,2.8-11.5,3.3-13.3c0.4-1.4-1.2-2.8-2.1-2.1C108.3,277.7,106.7,279.3,106,291.7z"/>
	<path class="st1" d="M106.3,291.7l1.4,0.5c0,0,2-8,2.3-9.3c0.2-1-0.8-1.9-1.5-1.4C108,282,106.8,283.1,106.3,291.7z"/>
	<g>
		<circle class="st11" cx="110.2" cy="308.7" r="3.4"/>
		<circle class="st12" cx="110" cy="308.7" r="1.4"/>
		<path class="st1" d="M106.8,308.9c0,0,4.3,0,6.2,1.6c0,0-1.3,2-3.6,1.5C107.3,311.5,106.8,309.7,106.8,308.9z"/>
	</g>
	<g>
		<circle class="st11" cx="97.7" cy="306.3" r="3.4"/>
		<circle class="st12" cx="97.6" cy="306.3" r="1.4"/>
		<path class="st1" d="M94.5,307.2c0,0,4.1-0.8,6.4,0.3c0,0-0.9,2.1-3.1,2.1C95.5,309.6,94.6,307.9,94.5,307.2z"/>
	</g>
	<path class="st8" d="M99.7,309.4c-0.2-1,1.1-1.6,1.8-0.8c0.3,0.4,1,1,2,1.1c1.2,0.2,2-0.2,2.4-0.4c0.4-0.3,0.6-0.2,0.8-0.2
		c0.2,0,0.9,0.9,0.6,1.6c-0.5,1.2-1.9,1.4-3.1,1.3C101.5,311.8,100,310.6,99.7,309.4C99.7,309.4,99.7,309.4,99.7,309.4z"/>
	<path class="st1" d="M101.3,309.1c0,0,0.7,1.1,2.4,1.4c1.2,0.2,1.9-0.2,2.1-0.4c0.2-0.1,0.4-0.2,0.6-0.2c0.2,0,0.5,0.2,0.2,0.7
		c-0.5,0.9-1.9,1-3,0.8c-1.2-0.1-2.9-1-3.2-1.9C100.1,308.5,101.1,308.6,101.3,309.1z"/>
	<circle class="st1" cx="94.8" cy="310.3" r="0.7"/>
	<ellipse class="st1" cx="112.2" cy="313.3" rx="1.1" ry="0.7"/>
	<polygon class="st13" points="102.9,310.2 102.9,310.8 103.4,310.9 103.4,310.4 	"/>
	<polygon class="st13" points="103.6,310.4 103.6,310.9 104,310.9 104.1,310.5 	"/>
	<path class="st13" d="M102.2,309.9l0.5,0.3c0,0,0,0.3-0.4,0.2C102,310.3,102.2,309.9,102.2,309.9z"/>
	<path class="st13" d="M101.6,309.5l0.5,0.4c0,0,0,0.3-0.4,0.2C101.3,309.9,101.6,309.5,101.6,309.5z"/>
	<path class="st13" d="M101.2,308.9l0.3,0.5c0,0-0.1,0.3-0.5,0.1C100.8,309.3,101.2,308.9,101.2,308.9z"/>
	<path class="st13" d="M105.7,310.2l0.4-0.3c0,0,0.3,0.2,0,0.5C105.8,310.6,105.7,310.2,105.7,310.2z"/>
	<path class="st13" d="M104.9,310.4l0.6-0.2c0,0,0.2,0.2-0.1,0.5C105.1,311,104.9,310.4,104.9,310.4z"/>
	<path class="st13" d="M104.3,310.5l0.6,0c0,0,0.2,0.3-0.2,0.4C104.3,311,104.3,310.5,104.3,310.5z"/>
</g>
<path class="st6" d="M97.2,292.9l2.2,0.3c0,0,0.6-11.8,0.8-13.7c0.1-1.4-1.7-2.5-2.5-1.6C96.9,278.7,95.6,280.5,97.2,292.9z"/>
<path class="st1" d="M97.5,292.8l1.5,0.2c0,0,0.5-8.2,0.5-9.6c0.1-1-1.2-1.8-1.7-1.1S96.4,284.2,97.5,292.8z"/>
<path class="st6" d="M83,328.1c1.7,2.3,2.9,27.5,2.9,27.5s-0.9,2.5-3,2S83,355,83,355s-4.7,0.9-3.4-2.4c0,0-5.3-0.2-0.7-3.9
	l-5.7-19.5c-0.5-1.6-0.2-3.3,0.8-4.6C75.5,322.7,78.3,321.6,83,328.1z"/>
<g>
	<path class="st6" d="M-24.2,341.9l0.3,3.4c0,0-1.4,1.3-2.1,0.5c-0.7-0.8,0.2-0.9,0.2-0.9s-2.6,0.2-1.5-1.1c0,0-1.6-1.3,0-1.5
		c0,0-1.4-1.8,0.7-1.8c0,0,0.6-2.3,2.2-0.4L-24.2,341.9z"/>
	<path class="st6" d="M-0.7,328.7c1.2,0.9,5.6,13.2,5.6,13.2s-0.1,1.4-1.2,1.5c-1.1,0.1-0.3-1.3-0.3-1.3s-2.2,1.2-2-0.6
		c0,0-2.7,0.7-0.9-1.9l-5.8-8.8c-0.5-0.7-0.6-1.6-0.3-2.4C-5.2,327.2-4,326.2-0.7,328.7z"/>
	<path class="st7" d="M0,324.8C0,324.8,0,324.8,0,324.8c0-0.1,0-0.1,0-0.2c0,0-0.2-0.2-0.5-0.5c0.4,0.4,0.5,0.8,0.6,0.9
		C0,325.1,0,325,0,324.8z"/>
	<path class="st8" d="M-13.6,354.1c0,0,4.1,0.4,5.8-0.1c0,0,0.7,1.8-0.2,3.3c0,0-0.1,0.5,0.6,0.4s2.3,0,3,0.5s3.4,0.6,3.4-0.5
		s-1.6-0.9-1.9-0.9s-3.6-0.2-3.6-0.2s-0.5-0.8,0.7-1.5c1.1-0.8,3.4-2.1,3.4-2.7c0.1-0.6-0.1-0.9-0.1-0.9l-9.9-1.4L-13.6,354.1z"/>
	<path class="st9" d="M-10.4,315.7C-10.4,315.7-10.4,315.7-10.4,315.7c-0.1,0.1-0.1,0.1-0.1,0.1C-10.5,315.7-10.4,315.7-10.4,315.7z
		"/>
	<path class="st8" d="M0,325.1c0-0.1-0.1-0.5-0.6-0.9 M-19.3,312.8 M0,324.8c-0.1-0.6,0.5-1.8,0.7-2.5c0.9,0.4,1.1-0.1,1.6-0.4
		c0.1,0,0.2,0,0.3,0c-0.1,1,0.9,1.1,0.9,1.1c-0.3-0.7-0.1-1.1,0.1-1.3c0.1,0,0.1,0,0.2,0c-0.2,0.5,0.4,0.9,0.4,0.9
		c0-0.5,0.3-0.6,0.5-0.6c0.3,0.8,1.5,0.7,1.5,0.7c-0.4,0,0.4-2.6,0.4-2.6c1.1-0.2,3.3-4,3.3-4c0.3,0.5,1.5,0.5,1.5,0.5
		c-0.7-0.6-0.9-1.8-0.9-1.8c0.3-2.4-0.5-4.6-0.5-4.6l1.9-0.3l-1.9-1.3c1.2,0.1,2-0.3,2-0.3c-1.8,0.1-3.4-0.9-3.4-0.9
		c-1.2-1.6-2.5-2.7-3.6-3.4c0.4-0.1,0.7-0.2,0.7-0.6c0,0-0.4,0.3-1.3,0.3c-1.1-0.6-1.9-0.8-1.9-0.8c0.3-0.3,1.9-0.3,1.9-0.3
		c-0.9-0.7-2.9-0.1-2.9-0.1c-0.1-0.6,1.3-1.4,1.3-1.4c-1.1-0.3-1.9,0.7-1.9,0.7s-0.7-3-0.6-1.9c0.1,1-0.6,1.7-0.6,1.7
		c-0.5,0-1-1.6-1-1.6l0.1,1.7l0,0.3c0-0.1-0.1-0.2-0.2-0.4c-0.6-0.9-2.7-0.6-2.7-0.6c0.3,0,0.6,0.1,1,0.3c-0.6-0.1-1.3-0.2-2-0.1
		c-1.3,0.1-2.8,0.6-5.1,1.2c-2.5,0.6-4.2,2.4-4.2,2.4s-2.1,1.9-3.2,4.6c0,0-0.1,0.1-0.1,0.3l-4.4,12c0,0-2.7,6.9-3.8,13.3
		c-0.1,0.9-0.2,1.7-0.2,2.6c0.1,2.8,0.7,9.3,3.5,12.1c0.8,0.8,3.7,3.1,4.4,3.1c0,0,0.8,2,0.2,3.9c0,0-0.2,1.1-0.6,1.4
		c0,0-0.4,0.4,0.1,0.7c0,0,0.3,0.3,1.3,0c1-0.3,2.8,0.5,2.8,0.5s3.4,1,4.3-0.2c0.8-1.2-2.2-1.3-2.2-1.3l-4.4-0.3
		c0,0-0.5-1.2,0.3-1.8c0,0,1.7-1.9,2.9-1.6c0,0,2.4,0.3,2.1-3.4c4.3,2.8,8.7,0.7,8.7,0.7S3.7,340.2,0,324.8 M-16.6,305.6
		 M-13.7,302.7 M-20.8,315.6C-20.8,315.6-20.9,315.6-20.8,315.6C-20.8,315.6-20.8,315.6-20.8,315.6
		C-20.8,315.5-20.8,315.6-20.8,315.6z M-0.8,324c0.1,0.1,0.2,0.1,0.2,0.2C-0.6,324.1-0.7,324-0.8,324z"/>
	<path class="st6" d="M7.6,310.9c0.8,1.3,1.5,2.3-0.8,6.2c-2.3,3.9-5.8,2-5.8,2s-2.2-1.7-5.1-0.8c-2.9,0.9-4.6,0.9-5.7-0.9
		c-1.1-1.9-0.7-4.9,0.7-6.6c1.5-1.8,3-3.6,7.1-2.8c0.8,0.2,1.2,0.4,2.7,1.5s3.6,0.6,4.8,0.4C6.1,309.9,7,310,7.6,310.9z"/>
	<g>
		<path class="st1" d="M-0.1,313.3c0,0,0.5-0.2,0.7,0.2c0.2,0.3,0.8,0.5,1,0c0.1-0.5-0.4-1.2-1-1.3s-1.4-0.1-1.7,0.7
			S-0.1,313.3-0.1,313.3z"/>
		<circle class="st7" cx="1" cy="313.1" r="0.1"/>
		<circle class="st7" cx="-0.5" cy="312.9" r="0.1"/>
	</g>
	<path class="st8" d="M3.3,310.7l0.1,0.5c0,0,2.6-0.4,3.2,2C6.6,313.2,7,310.4,3.3,310.7z"/>
	<path class="st8" d="M-1.2,309.5l-0.4,0.5c0,0-2.1-1.7-3.9,0.3C-5.5,310.3-4.6,307.6-1.2,309.5z"/>
	<path class="st14" d="M-12.6,306.2c0,0-1.9,0.3-3.1,2.9c0,0,2.6-1.3,3.6-1c0,0-2,1.5-2,3.7c0,0,4.4-4.8,7.9-5.1"/>
	<path class="st14" d="M-14.7,315.5c0,0-0.9,0.8-0.9,2.1l1.6-1.2c0,0-0.8,1.5-0.5,2.5"/>
	<path class="st6" d="M1.6,303.4l1.2,0.4c0,0,1.7-6.9,2-8c0.2-0.8-0.7-1.7-1.3-1.3C3,295,2,295.9,1.6,303.4z"/>
	<path class="st1" d="M1.8,303.4l0.9,0.3c0,0,1.2-4.8,1.4-5.6c0.1-0.6-0.5-1.2-0.9-0.9S2.1,298.2,1.8,303.4z"/>
	<g>
		<circle class="st11" cx="4.1" cy="313.6" r="2"/>
		<circle class="st12" cx="4" cy="313.6" r="0.9"/>
		<path class="st1" d="M2.1,313.8c0,0,2.6,0,3.8,0.9c0,0-0.8,1.2-2.2,0.9C2.4,315.3,2.1,314.2,2.1,313.8z"/>
	</g>
	<g>
		<circle class="st11" cx="-3.4" cy="312.2" r="2"/>
		<circle class="st12" cx="-3.5" cy="312.2" r="0.9"/>
		<path class="st1" d="M-5.3,312.7c0,0,2.5-0.5,3.9,0.2c0,0-0.5,1.3-1.9,1.3C-4.7,314.2-5.2,313.2-5.3,312.7z"/>
	</g>
	<path class="st8" d="M-2.2,314.1c-0.1-0.6,0.7-1,1.1-0.5c0.2,0.3,0.6,0.6,1.2,0.7c0.8,0.1,1.2-0.1,1.4-0.3c0.2-0.2,0.4-0.1,0.5-0.1
		c0.1,0,0.5,0.5,0.3,0.9c-0.3,0.7-1.2,0.9-1.9,0.8C-1.1,315.5-2,314.8-2.2,314.1C-2.2,314.1-2.2,314.1-2.2,314.1z"/>
	<path class="st1" d="M-1.2,313.9c0,0,0.4,0.7,1.5,0.8c0.7,0.1,1.1-0.1,1.3-0.2c0.1-0.1,0.2-0.1,0.3-0.1c0.1,0,0.3,0.1,0.1,0.4
		c-0.3,0.5-1.1,0.6-1.8,0.5s-1.7-0.6-1.9-1.2C-2,313.5-1.3,313.6-1.2,313.9z"/>
	<circle class="st1" cx="-5.1" cy="314.6" r="0.4"/>
	<ellipse class="st1" cx="5.4" cy="316.4" rx="0.6" ry="0.4"/>
	<polygon class="st13" points="-0.3,314.6 -0.3,314.9 0,315 0.1,314.7 	"/>
	<polygon class="st13" points="0.2,314.7 0.2,315 0.4,315 0.5,314.7 	"/>
	<path class="st13" d="M-0.7,314.4l0.3,0.2c0,0,0,0.2-0.3,0.1C-0.8,314.6-0.7,314.4-0.7,314.4z"/>
	<path class="st13" d="M-1,314.1l0.3,0.2c0,0,0,0.2-0.3,0.1C-1.2,314.4-1,314.1-1,314.1z"/>
	<path class="st13" d="M-1.3,313.8l0.2,0.3c0,0-0.1,0.2-0.3,0C-1.5,314-1.3,313.8-1.3,313.8z"/>
	<path class="st13" d="M1.4,314.5l0.2-0.2c0,0,0.2,0.1,0,0.3S1.4,314.5,1.4,314.5z"/>
	<path class="st13" d="M1,314.7l0.3-0.1c0,0,0.1,0.1,0,0.3S1,314.7,1,314.7z"/>
	<path class="st13" d="M0.6,314.7l0.4,0c0,0,0.1,0.2-0.1,0.2C0.6,315.1,0.6,314.7,0.6,314.7z"/>
</g>
<path class="st6" d="M-3.7,304.1l1.3,0.2c0,0,0.4-7.1,0.5-8.3c0.1-0.9-1-1.5-1.5-1C-3.9,295.6-4.7,296.7-3.7,304.1z"/>
<path class="st1" d="M-3.5,304.1l0.9,0.1c0,0,0.3-5,0.3-5.8c0-0.6-0.7-1.1-1-0.7C-3.6,298.1-4.2,298.9-3.5,304.1z"/>
<path class="st6" d="M-12.3,325.3c1,1.4,1.7,16.6,1.7,16.6s-0.6,1.5-1.8,1.2c-1.3-0.3,0.1-1.6,0.1-1.6s-2.9,0.6-2.1-1.4
	c0,0-3.2-0.1-0.4-2.4l-3.5-11.8c-0.3-0.9-0.1-2,0.5-2.8C-16.8,322.1-15.1,321.4-12.3,325.3z"/>
</svg>
